<?xml version="1.0" encoding="utf-8"?>
<COLLADA xmlns="http://www.collada.org/2005/11/COLLADASchema" version="1.4.1">
  <asset>
    <contributor>
      <authoring_tool>Fusion URDF/XACRO Exporter</authoring_tool>
    </contributor>
    <created>2026-06-07T18:57:53Z</created>
    <modified>2026-06-07T18:57:53Z</modified>
    <unit name="meter" meter="1.0"/>
    <up_axis>Z_UP</up_axis>
  </asset>
  <library_effects>
    <effect id="Powder_Coat__Green_-effect">
      <profile_COMMON>
        <technique sid="common">
          <lambert>
            <emission><color>0 0 0 1</color></emission>
            <ambient><color>0.0000 0.0000 0.0000 1</color></ambient>
            <diffuse><color>0.2667 0.5882 0.2824 1</color></diffuse>
            <reflective><color>0 0 0 1</color></reflective>
            <transparent opaque="A_ONE"><color>1 1 1 1</color></transparent>
            <transparency><float>1</float></transparency>
          </lambert>
        </technique>
      </profile_COMMON>
    </effect>
  </library_effects>
  <library_materials>
    <material id="Powder_Coat__Green_" name="Powder_Coat_(Green)">
      <instance_effect url="#Powder_Coat__Green_-effect"/>
    </material>
  </library_materials>
  <library_geometries>
    <geometry id="FootCoverRight-mesh" name="FootCoverRight">
      <mesh>
        <source id="FootCoverRight-mesh-positions">
          <float_array id="FootCoverRight-mesh-positions-array" count="2076">0.078652 0.023357 0.269276 0.078883 0.023656 0.268724 0.079272 0.024198 0.267789 0.079852 0.025248 0.266401 0.080817 0.027880 0.264087 0.080936 0.027699 0.263865 0.081097 0.027523 0.263666 0.081295 0.027355 0.263496 0.081527 0.027199 0.263358 0.081786 0.027061 0.263257 0.082066 0.026942 0.263195 0.082361 0.026845 0.263173 0.082663 0.026774 0.263191 0.082034 0.024616 0.264930 0.081281 0.022833 0.267012 0.080433 0.021470 0.269357 0.079518 0.020557 0.271889 0.079457 0.020630 0.271640 0.079399 0.020669 0.271531 0.079362 0.020690 0.271486 0.079319 0.020710 0.271448 0.079269 0.020732 0.271419 0.079213 0.020754 0.271397 0.079092 0.020800 0.271368 0.078851 0.020912 0.271322 0.079033 0.021445 0.270196 0.078738 0.021721 0.270175 0.078497 0.022045 0.270196 0.078780 0.022690 0.269247 0.078745 0.022764 0.269267 0.078712 0.022838 0.269288 0.078682 0.022913 0.269310 0.079007 0.023572 0.268452 0.080116 0.025105 0.265908 0.080390 0.024753 0.265701 0.080748 0.024445 0.265569 0.081170 0.024198 0.265519 0.081629 0.024027 0.265554 0.080421 0.021952 0.268458 0.079978 0.022152 0.268383 0.079581 0.022440 0.268375 0.079253 0.022801 0.268435 0.079013 0.023212 0.268558 0.074044 0.025017 0.286823 0.073785 0.025023 0.286791 0.073543 0.025023 0.286717 0.073496 0.025152 0.286830 0.073196 0.025307 0.286830 0.072911 0.025509 0.286830 0.072443 0.025991 0.286830 0.072058 0.026572 0.286830 0.071781 0.027169 0.286830 0.071428 0.028505 0.286830 0.071330 0.029857 0.286830 0.071671 0.028288 0.286012 0.072089 0.026867 0.285007 0.072581 0.025599 0.283827 0.073135 0.024507 0.282501 0.073173 0.024209 0.282439 0.073181 0.024126 0.282440 0.073183 0.024094 0.282448 0.073184 0.024065 0.282460 0.073183 0.024041 0.282474 0.073181 0.024020 0.282492 0.073177 0.023984 0.282531 0.073171 0.023913 0.282612 0.073179 0.023826 0.282680 0.073220 0.023641 0.282807 0.073359 0.023324 0.283087 0.073584 0.023057 0.283365 0.073881 0.022856 0.283629 0.074243 0.022726 0.283863 0.074619 0.022694 0.284072 0.074745 0.022684 0.284101 0.074898 0.022665 0.284104 0.075142 0.022647 0.284096 0.074987 0.022970 0.284557 0.074803 0.023305 0.284998 0.074624 0.023657 0.285427 0.074424 0.024086 0.285909 0.074230 0.024539 0.286373 0.072413 0.025457 0.284395 0.072467 0.025099 0.284772 0.072649 0.024790 0.285154 0.072946 0.024553 0.285513 0.073337 0.024402 0.285825 0.073796 0.024348 0.286070 0.071767 0.027105 0.286453 0.071736 0.027396 0.286019 0.078238 0.020070 0.275429 0.076930 0.020448 0.279044 0.076445 0.020593 0.279546 0.076380 0.020612 0.279590 0.076326 0.020626 0.279616 0.076280 0.020637 0.279627 0.076260 0.020641 0.279628 0.076242 0.020644 0.279625 0.076225 0.020647 0.279620 0.076210 0.020649 0.279612 0.076182 0.020652 0.279591 0.076138 0.020654 0.279532 0.076096 0.020656 0.279468 0.076073 0.020660 0.279440 0.076048 0.020665 0.279416 0.075992 0.020681 0.279379 0.075932 0.020702 0.279352 0.075693 0.020812 0.279254 0.075488 0.020946 0.279121 0.075305 0.021111 0.279001 0.075149 0.021303 0.278882 0.075010 0.021543 0.278757 0.074805 0.021689 0.279249 0.074602 0.021853 0.279736 0.074402 0.022035 0.280217 0.074288 0.022394 0.280025 0.074255 0.022779 0.279856 0.073752 0.023589 0.281022 0.074939 0.022485 0.278175 0.076192 0.022070 0.275173 0.077449 0.022367 0.272159 0.077941 0.020092 0.275392 0.077519 0.020219 0.275217 0.077136 0.020449 0.275061 0.076814 0.020770 0.274930 0.076569 0.021164 0.274833 0.076416 0.021608 0.274775 0.077795 0.022064 0.271472 0.077986 0.021632 0.271436 0.078265 0.021250 0.271451 0.078616 0.020938 0.271514 0.079020 0.020715 0.271622 0.079453 0.020592 0.271770 0.076426 0.020502 0.279023 0.076016 0.020625 0.278822 0.075653 0.020850 0.278617 0.075358 0.021164 0.278418 0.075149 0.021548 0.278238 0.075035 0.021982 0.278086 0.075979 0.021316 0.281677 0.075580 0.021370 0.281718 0.075122 0.021442 0.281495 0.074717 0.021631 0.281241 0.074391 0.021925 0.280972 0.074166 0.022304 0.280707 0.074057 0.022744 0.280463 0.128071 0.196806 0.267053 0.128071 0.196323 0.264671 0.128071 0.195515 0.262378 0.128071 0.194397 0.260220 0.127071 0.194397 0.260220 0.127071 0.195515 0.262378 0.127071 0.196323 0.264671 0.127071 0.196806 0.267053 0.128589 0.162761 0.208465 0.128589 0.159315 0.203914 0.128589 0.155029 0.200143 0.128589 0.150075 0.197304 0.128589 0.144655 0.195512 0.128589 0.138985 0.194839 0.128589 0.133296 0.195313 0.128589 0.127816 0.196913 0.128589 0.122766 0.199576 0.128072 0.122728 0.199519 0.127071 0.122728 0.199519 0.127071 0.127790 0.196850 0.127071 0.133283 0.195246 0.127071 0.138986 0.194771 0.127071 0.144669 0.195446 0.127071 0.150103 0.197242 0.127071 0.155068 0.200087 0.127071 0.159365 0.203868 0.127071 0.162819 0.208430 0.128071 0.162819 0.208430 0.130072 0.179455 0.284830 0.130072 0.183419 0.284314 0.130072 0.187120 0.282802 0.130072 0.190311 0.280394 0.130072 0.192779 0.277249 0.130072 0.194361 0.273578 0.130072 0.194952 0.269625 0.130072 0.194512 0.265651 0.130072 0.192882 0.261595 0.130003 0.193131 0.260991 0.129804 0.193543 0.260740 0.129486 0.193897 0.260525 0.129071 0.194168 0.260359 0.128589 0.194338 0.260255 0.128071 0.196892 0.270807 0.128071 0.196203 0.274401 0.128071 0.194723 0.277879 0.128071 0.192620 0.280858 0.128071 0.189831 0.283421 0.128071 0.186686 0.285265 0.128071 0.183096 0.286446 0.128071 0.179455 0.286830 0.128589 0.179455 0.286762 0.129072 0.179455 0.286562 0.129486 0.179455 0.286244 0.129804 0.179455 0.285830 0.130003 0.179455 0.285348 0.130004 0.183646 0.284786 0.129805 0.183772 0.285252 0.129487 0.183881 0.285653 0.129073 0.183965 0.285961 0.128590 0.184017 0.286154 0.130004 0.187545 0.283150 0.129805 0.187789 0.283567 0.129487 0.187999 0.283926 0.129073 0.188160 0.284201 0.128590 0.188261 0.284374 0.130004 0.190880 0.280551 0.129805 0.191225 0.280890 0.129487 0.191521 0.281181 0.129073 0.191748 0.281405 0.128590 0.191891 0.281545 0.130004 0.193420 0.277168 0.129805 0.193843 0.277401 0.129487 0.194207 0.277602 0.129073 0.194486 0.277755 0.128590 0.194663 0.277850 0.130004 0.194983 0.273243 0.129805 0.195452 0.273361 0.129487 0.195855 0.273462 0.129073 0.196164 0.273540 0.128590 0.196358 0.273589 0.130004 0.195466 0.269043 0.129805 0.195950 0.269034 0.129487 0.196365 0.269026 0.129073 0.196684 0.269021 0.128590 0.196884 0.269017 0.130004 0.194833 0.264862 0.129805 0.195297 0.264727 0.129487 0.195696 0.264612 0.129073 0.196002 0.264523 0.128590 0.196195 0.264467 0.130071 0.161112 0.209471 0.130071 0.157900 0.205229 0.130071 0.153905 0.201714 0.130071 0.149288 0.199068 0.130071 0.144235 0.197398 0.130071 0.138951 0.196771 0.130071 0.133648 0.197212 0.130071 0.128541 0.198704 0.130071 0.123834 0.201186 0.130003 0.123548 0.200754 0.129804 0.123281 0.200353 0.129486 0.123052 0.200007 0.129072 0.122876 0.199743 0.129071 0.162591 0.208569 0.129486 0.162319 0.208735 0.129804 0.161966 0.208951 0.130003 0.161554 0.209202 0.130003 0.158279 0.204877 0.129804 0.158632 0.204548 0.129486 0.158936 0.204266 0.129071 0.159168 0.204050 0.130003 0.154206 0.201293 0.129804 0.154486 0.200901 0.129486 0.154727 0.200564 0.129071 0.154912 0.200305 0.130003 0.149499 0.198595 0.129804 0.149695 0.198155 0.129486 0.149864 0.197777 0.129071 0.149994 0.197486 0.130003 0.144348 0.196893 0.129804 0.144452 0.196422 0.129486 0.144542 0.196017 0.129071 0.144611 0.195707 0.130003 0.138960 0.196253 0.129804 0.138969 0.195771 0.129486 0.138976 0.195357 0.129071 0.138982 0.195039 0.130003 0.133554 0.196703 0.129804 0.133466 0.196229 0.129486 0.133390 0.195821 0.129071 0.133332 0.195509 0.130003 0.128346 0.198224 0.129804 0.128165 0.197777 0.129486 0.128010 0.197393 0.129071 0.127891 0.197098 0.128071 0.026774 0.263191 0.128589 0.026812 0.263248 0.129071 0.026922 0.263414 0.129485 0.027098 0.263679 0.129803 0.027326 0.264024 0.130003 0.027593 0.264425 0.130071 0.027879 0.264856 0.130071 0.025402 0.266991 0.130071 0.023537 0.269678 0.130071 0.022402 0.272745 0.130071 0.022068 0.275999 0.130071 0.022556 0.279232 0.130071 0.023836 0.282242 0.130071 0.025827 0.284837 0.130071 0.025825 0.284838 0.130071 0.025824 0.284839 0.130071 0.025822 0.284841 0.130071 0.025817 0.284849 0.130071 0.025799 0.284891 0.130057 0.025724 0.285070 0.129973 0.025568 0.285451 0.129812 0.025421 0.285815 0.129578 0.025290 0.286145 0.129275 0.025179 0.286427 0.128913 0.025095 0.286644 0.128505 0.025041 0.286782 0.128071 0.025023 0.286830 0.128071 0.022494 0.283870 0.128071 0.020813 0.280358 0.128071 0.020091 0.276532 0.128071 0.020379 0.272650 0.128071 0.021656 0.268972 0.128071 0.023837 0.265747 0.130003 0.024946 0.266728 0.129803 0.024585 0.266409 0.129485 0.024275 0.266134 0.129071 0.024037 0.265924 0.128589 0.023888 0.265792 0.130003 0.022980 0.269635 0.129803 0.022549 0.269419 0.129485 0.022179 0.269234 0.129071 0.021895 0.269092 0.128589 0.021717 0.269002 0.130003 0.021829 0.272950 0.129803 0.021357 0.272852 0.129485 0.020952 0.272768 0.129071 0.020641 0.272704 0.128589 0.020446 0.272664 0.130003 0.021570 0.276449 0.129803 0.021089 0.276476 0.129485 0.020676 0.276500 0.129071 0.020359 0.276517 0.128589 0.020159 0.276529 0.130003 0.022220 0.279897 0.129803 0.021762 0.280047 0.129485 0.021369 0.280176 0.129071 0.021067 0.280275 0.128589 0.020877 0.280337 0.130003 0.023736 0.283062 0.129803 0.023332 0.283325 0.129485 0.022985 0.283551 0.129071 0.022719 0.283724 0.128589 0.022551 0.283833 0.128071 0.121393 0.202205 0.128071 0.126632 0.199442 0.128071 0.132319 0.197782 0.128071 0.138222 0.197291 0.128071 0.144104 0.197989 0.128071 0.149728 0.199848 0.128071 0.154868 0.202793 0.128071 0.159315 0.206706 0.128071 0.162891 0.211429 0.127071 0.162891 0.211429 0.127071 0.159315 0.206706 0.127071 0.154868 0.202793 0.127071 0.149728 0.199848 0.127071 0.144104 0.197989 0.127071 0.138222 0.197291 0.127071 0.132319 0.197782 0.127071 0.126632 0.199442 0.127071 0.121393 0.202205 0.127071 0.089746 0.221405 0.126663 0.087159 0.223122 0.125464 0.084747 0.224722 0.123557 0.082676 0.226096 0.121071 0.081087 0.227151 0.118177 0.080088 0.227814 0.115071 0.079748 0.228040 0.115071 0.080577 0.229289 0.118177 0.080918 0.229063 0.121071 0.081917 0.228401 0.123557 0.083506 0.227346 0.125464 0.085576 0.225972 0.126663 0.087988 0.224372 0.127071 0.090576 0.222655 0.130071 0.136886 0.223267 0.130071 0.136940 0.222853 0.130071 0.137100 0.222467 0.130071 0.137355 0.222135 0.130071 0.137686 0.221881 0.130071 0.138072 0.221721 0.130071 0.138486 0.221667 0.130071 0.138900 0.221721 0.130071 0.139286 0.221881 0.130071 0.139617 0.222135 0.130071 0.139872 0.222467 0.130071 0.140031 0.222853 0.130071 0.140086 0.223267 0.130071 0.140031 0.223681 0.130071 0.139872 0.224067 0.130071 0.139617 0.224398 0.130071 0.139286 0.224652 0.130071 0.138900 0.224812 0.130071 0.138486 0.224867 0.130071 0.138072 0.224812 0.130071 0.137686 0.224652 0.130071 0.137355 0.224398 0.130071 0.137100 0.224067 0.130071 0.136940 0.223681 0.128071 0.136886 0.223267 0.128071 0.136940 0.223681 0.128071 0.137100 0.224067 0.128071 0.137355 0.224398 0.128071 0.137686 0.224652 0.128071 0.138072 0.224812 0.128071 0.138486 0.224867 0.128071 0.138900 0.224812 0.128071 0.139286 0.224652 0.128071 0.139617 0.224398 0.128071 0.139872 0.224067 0.128071 0.140031 0.223681 0.128071 0.140086 0.223267 0.128071 0.140031 0.222853 0.128071 0.139872 0.222467 0.128071 0.139617 0.222135 0.128071 0.139286 0.221881 0.128071 0.138900 0.221721 0.128071 0.138486 0.221667 0.128071 0.138072 0.221721 0.128071 0.137686 0.221881 0.128071 0.137355 0.222135 0.128071 0.137100 0.222467 0.128071 0.136940 0.222853 0.130071 0.036668 0.275690 0.130071 0.036613 0.276104 0.130071 0.036453 0.276490 0.130071 0.036199 0.276821 0.130071 0.035868 0.277075 0.130071 0.035482 0.277235 0.130071 0.035068 0.277290 0.130071 0.034654 0.277235 0.130071 0.034268 0.277075 0.130071 0.033936 0.276821 0.130071 0.033682 0.276490 0.130071 0.033522 0.276104 0.130071 0.033468 0.275690 0.130071 0.033522 0.275276 0.130071 0.033682 0.274890 0.130071 0.033936 0.274558 0.130071 0.034268 0.274304 0.130071 0.034654 0.274144 0.130071 0.035068 0.274090 0.130071 0.035482 0.274144 0.130071 0.035868 0.274304 0.130071 0.036199 0.274558 0.130071 0.036453 0.274890 0.130071 0.036613 0.275276 0.128071 0.033468 0.275690 0.128071 0.033522 0.276104 0.128071 0.033682 0.276490 0.128071 0.033936 0.276821 0.128071 0.034268 0.277075 0.128071 0.034654 0.277235 0.128071 0.035068 0.277290 0.128071 0.035482 0.277235 0.128071 0.035868 0.277075 0.128071 0.036199 0.276821 0.128071 0.036453 0.276490 0.128071 0.036613 0.276104 0.128071 0.036668 0.275690 0.128071 0.036613 0.275276 0.128071 0.036453 0.274890 0.128071 0.036199 0.274558 0.128071 0.035868 0.274304 0.128071 0.035482 0.274144 0.128071 0.035068 0.274090 0.128071 0.034654 0.274144 0.128071 0.034268 0.274304 0.128071 0.033936 0.274558 0.128071 0.033682 0.274890 0.128071 0.033522 0.275276 0.130071 0.177855 0.269330 0.130071 0.177909 0.268916 0.130071 0.178069 0.268530 0.130071 0.178324 0.268199 0.130071 0.178655 0.267944 0.130071 0.179041 0.267785 0.130071 0.179455 0.267730 0.130071 0.179869 0.267785 0.130071 0.180255 0.267944 0.130071 0.180586 0.268199 0.130071 0.180841 0.268530 0.130071 0.181000 0.268916 0.130071 0.181055 0.269330 0.130071 0.181000 0.269744 0.130071 0.180841 0.270130 0.130071 0.180586 0.270461 0.130071 0.180255 0.270716 0.130071 0.179869 0.270875 0.130071 0.179455 0.270930 0.130071 0.179041 0.270875 0.130071 0.178655 0.270716 0.130071 0.178324 0.270461 0.130071 0.178069 0.270130 0.130071 0.177909 0.269744 0.128071 0.177855 0.269330 0.128071 0.177909 0.269744 0.128071 0.178069 0.270130 0.128071 0.178324 0.270461 0.128071 0.178655 0.270716 0.128071 0.179041 0.270875 0.128071 0.179455 0.270930 0.128071 0.179869 0.270875 0.128071 0.180255 0.270716 0.128071 0.180586 0.270461 0.128071 0.180841 0.270130 0.128071 0.181000 0.269744 0.128071 0.181055 0.269330 0.128071 0.181000 0.268916 0.128071 0.180841 0.268530 0.128071 0.180586 0.268199 0.128071 0.180255 0.267944 0.128071 0.179869 0.267785 0.128071 0.179455 0.267730 0.128071 0.179041 0.267785 0.128071 0.178655 0.267944 0.128071 0.178324 0.268199 0.128071 0.178069 0.268530 0.128071 0.177909 0.268916 0.095384 0.080499 0.229171 0.095606 0.080252 0.228799 0.095934 0.080042 0.228483 0.096348 0.079882 0.228242 0.096823 0.079782 0.228091 0.097328 0.079748 0.228040 0.093249 0.071737 0.234449 0.090805 0.062908 0.240308 0.088360 0.054079 0.246166 0.085916 0.045250 0.252025 0.083472 0.036421 0.257884 0.093560 0.071467 0.234173 0.091116 0.062638 0.240031 0.088672 0.053809 0.245890 0.086228 0.044980 0.251748 0.083783 0.036151 0.257607 0.093953 0.071232 0.233982 0.091509 0.062403 0.239840 0.089065 0.053574 0.245699 0.086621 0.044745 0.251557 0.084177 0.035916 0.257416 0.094404 0.071045 0.233888 0.091960 0.062216 0.239747 0.089515 0.053387 0.245605 0.087071 0.044558 0.251464 0.084627 0.035729 0.257323 0.128589 0.036054 0.286762 0.128589 0.047085 0.286762 0.128589 0.058116 0.286762 0.128589 0.069147 0.286762 0.128589 0.080177 0.286762 0.128589 0.091208 0.286762 0.128589 0.102239 0.286762 0.128589 0.113270 0.286762 0.128589 0.124301 0.286762 0.128589 0.135332 0.286762 0.128589 0.146362 0.286762 0.128589 0.157393 0.286762 0.128589 0.168424 0.286762 0.129071 0.036054 0.286562 0.129071 0.047085 0.286562 0.129071 0.058116 0.286562 0.129071 0.069147 0.286562 0.129071 0.080177 0.286562 0.129072 0.091208 0.286562 0.129072 0.102239 0.286562 0.129072 0.113270 0.286562 0.129072 0.124301 0.286562 0.129072 0.135332 0.286562 0.129072 0.146362 0.286562 0.129072 0.157393 0.286562 0.129072 0.168424 0.286562 0.129486 0.036054 0.286244 0.129486 0.047085 0.286244 0.129486 0.058116 0.286244 0.129486 0.069147 0.286244 0.129486 0.080177 0.286244 0.129486 0.091208 0.286244 0.129486 0.102239 0.286244 0.129486 0.113270 0.286244 0.129486 0.124301 0.286244 0.129486 0.135332 0.286244 0.129486 0.146362 0.286244 0.129486 0.157393 0.286244 0.129486 0.168424 0.286244 0.129804 0.036054 0.285830 0.129804 0.047085 0.285830 0.129804 0.058116 0.285830 0.129804 0.069147 0.285830 0.129804 0.080177 0.285830 0.129804 0.091208 0.285830 0.129804 0.102239 0.285830 0.129804 0.113270 0.285830 0.129804 0.124301 0.285830 0.129804 0.135332 0.285830 0.129804 0.146362 0.285830 0.129804 0.157393 0.285830 0.129804 0.168424 0.285830 0.130003 0.036054 0.285348 0.130003 0.047085 0.285348 0.130003 0.058116 0.285348 0.130003 0.069147 0.285348 0.130003 0.080177 0.285348 0.130003 0.091208 0.285348 0.130003 0.102239 0.285348 0.130003 0.113270 0.285348 0.130003 0.124301 0.285348 0.130003 0.135332 0.285348 0.130003 0.146362 0.285348 0.130003 0.157393 0.285348 0.130003 0.168424 0.285348 0.130005 0.166844 0.217892 0.130005 0.172140 0.226579 0.130005 0.177436 0.235265 0.130005 0.182733 0.243952 0.130005 0.188029 0.252638 0.129807 0.167257 0.217640 0.129807 0.172554 0.226326 0.129807 0.177850 0.235013 0.129807 0.183146 0.243699 0.129807 0.188443 0.252386 0.129486 0.167616 0.217421 0.129486 0.172912 0.226108 0.129486 0.178208 0.234794 0.129486 0.183505 0.243481 0.129486 0.188801 0.252167 0.129071 0.167887 0.217256 0.129071 0.173183 0.225942 0.129071 0.178480 0.234629 0.129071 0.183776 0.243315 0.129071 0.189072 0.252002 0.128589 0.168058 0.217152 0.128589 0.173354 0.225838 0.128589 0.178650 0.234525 0.128589 0.183947 0.243211 0.128589 0.189243 0.251898 0.130003 0.036316 0.258637 0.130003 0.045039 0.252849 0.130003 0.053762 0.247060 0.130003 0.062486 0.241272 0.130003 0.071209 0.235484 0.130003 0.079932 0.229696 0.130003 0.088655 0.223907 0.130003 0.097378 0.218119 0.130003 0.106101 0.212331 0.130003 0.114824 0.206543 0.129803 0.036050 0.258235 0.129803 0.044773 0.252447 0.129803 0.053496 0.246659 0.129803 0.062219 0.240870 0.129803 0.070942 0.235082 0.129803 0.079665 0.229294 0.129803 0.088388 0.223506 0.129803 0.097111 0.217717 0.129803 0.105835 0.211929 0.129803 0.114558 0.206141 0.129485 0.035821 0.257890 0.129485 0.044544 0.252102 0.129485 0.053267 0.246314 0.129485 0.061990 0.240525 0.129485 0.070713 0.234737 0.129485 0.079436 0.228949 0.129485 0.088159 0.223161 0.129486 0.096883 0.217372 0.129486 0.105606 0.211584 0.129486 0.114329 0.205796 0.129071 0.035645 0.257626 0.129071 0.044368 0.251837 0.129071 0.053091 0.246049 0.129071 0.061814 0.240261 0.129071 0.070538 0.234472 0.129071 0.079261 0.228684 0.129071 0.087984 0.222896 0.129071 0.096707 0.217108 0.129071 0.105430 0.211319 0.129071 0.114153 0.205531 0.128589 0.035535 0.257459 0.128589 0.044258 0.251671 0.128589 0.052981 0.245883 0.128589 0.061704 0.240094 0.128589 0.070427 0.234306 0.128589 0.079150 0.228518 0.128589 0.087873 0.222729 0.128589 0.096596 0.216941 0.128589 0.105319 0.211153 0.128589 0.114043 0.205364 0.071329 0.096932 0.286830 0.073496 0.096720 0.286830 0.094855 0.081340 0.230440 0.097251 0.080975 0.229890 0.082122 0.025023 0.266153 0.097502 0.080577 0.229289 0.128071 0.025023 0.266153</float_array>
          <technique_common>
            <accessor source="#FootCoverRight-mesh-positions-array" count="692" stride="3">
              <param name="X" type="float"/>
              <param name="Y" type="float"/>
              <param name="Z" type="float"/>
            </accessor>
          </technique_common>
        </source>
        <source id="FootCoverRight-mesh-normals">
          <float_array id="FootCoverRight-mesh-normals-array" count="3393">-0.923954 0.001227 -0.382502 -0.925041 0.007554 -0.379792 -0.901918 -0.086051 -0.423249 -0.923373 -0.000018 -0.383903 -0.857134 -0.210466 -0.470134 -0.838921 -0.179199 -0.513906 -0.702065 -0.354898 -0.617375 -0.786187 -0.177609 -0.591916 -0.687761 -0.263224 -0.676534 -0.922338 -0.001943 -0.386380 -0.865530 -0.087721 -0.493116 -0.923934 0.004297 -0.382527 -0.572603 -0.342482 -0.744871 -0.522871 -0.509195 -0.683612 -0.737538 -0.415794 -0.532122 -0.573464 -0.596047 -0.562020 -0.652980 -0.581728 -0.484984 -0.505857 -0.719981 -0.475117 -0.374808 -0.740356 -0.558025 -0.153548 -0.840017 -0.520378 -0.082595 -0.718214 -0.690903 0.001272 -0.814299 -0.580444 0.001065 -0.697400 -0.716681 -0.156062 -0.523905 -0.837358 -0.004746 -0.560666 -0.828029 -0.443478 -0.413461 -0.795222 -0.303496 -0.474434 -0.826319 -0.312145 -0.632785 -0.708624 -0.001772 -0.906311 -0.422608 -0.279839 -0.888353 -0.364032 -0.396611 -0.828920 -0.394451 -0.007103 -0.968657 -0.248299 -0.072968 -0.955172 -0.286917 -0.115430 -0.944559 -0.307382 -0.139167 -0.937980 -0.317530 -0.164634 -0.930404 -0.327482 -0.191804 -0.921707 -0.337146 -0.220345 -0.911812 -0.346477 -0.773339 -0.419854 -0.475046 -0.827317 -0.293091 -0.479211 -0.844907 -0.256414 -0.469451 -0.861018 -0.219289 -0.458868 -0.875623 -0.181780 -0.447482 -0.035474 -0.675694 0.736329 -0.158901 -0.690023 0.706130 -0.024590 -0.705696 0.708088 -0.267675 -0.738062 0.619367 -0.012506 -0.733931 0.679109 0.000041 -0.760770 0.649022 -0.158960 -0.844045 0.512172 0.011216 -0.782757 0.622227 0.022702 -0.803636 0.594688 -0.090561 -0.840762 0.533778 0.017546 -0.827057 0.561845 -0.277698 -0.694709 0.663523 -0.409002 -0.670797 0.618667 -0.497034 -0.711207 0.497134 -0.526191 -0.641790 0.557878 -0.692461 -0.635800 0.340963 -0.706989 -0.561621 0.429824 -0.839894 -0.459846 0.288306 -0.280750 -0.686444 0.670801 -0.840616 -0.516988 0.161515 -0.921390 -0.357795 0.151736 -0.931385 -0.362883 -0.028959 -0.955081 -0.295031 0.027885 -0.970601 -0.149552 -0.188593 -0.979193 -0.154193 -0.131933 -0.922598 0.000846 -0.385762 -0.919508 0.004642 -0.393043 -0.923247 -0.000525 -0.384206 -0.958569 -0.184005 -0.217456 -0.939563 -0.276291 -0.202198 -0.851248 -0.524743 0.004731 -0.921182 -0.365367 -0.133903 -0.923108 -0.000415 -0.384541 -0.939686 -0.089993 -0.329987 -0.944022 -0.231797 -0.234718 -0.945473 -0.189472 -0.264917 -0.942674 -0.119269 -0.311673 -0.945264 -0.168048 -0.279708 -0.943668 -0.132544 -0.303188 -0.944403 -0.145011 -0.295084 -0.923163 -0.000922 -0.384408 -0.944924 -0.156800 -0.287284 -0.738791 -0.658507 0.143379 -0.589800 -0.759362 0.274784 -0.409741 -0.823108 0.393200 -0.218468 -0.844204 0.489481 -0.000559 -0.999844 -0.017657 -0.135215 -0.988434 -0.068672 -0.000884 -0.967429 -0.253142 -0.048379 -0.959726 -0.276742 -0.067348 -0.954241 -0.291355 -0.110046 -0.943784 -0.311707 -0.264642 -0.898351 -0.350615 -0.186655 -0.921159 -0.341507 -0.215247 -0.911334 -0.350911 -0.274845 -0.888003 -0.368660 -0.391920 -0.828766 -0.399431 -0.466086 -0.786674 -0.404856 -0.503266 -0.720700 -0.476776 -0.641432 -0.630948 -0.436427 -0.650581 -0.582597 -0.487160 -0.780863 -0.439894 -0.443562 -0.771253 -0.420742 -0.477646 -0.876570 -0.224208 -0.425859 -0.844410 -0.256375 -0.470366 -0.860461 -0.219160 -0.459973 -0.875006 -0.181559 -0.448777 -0.922849 0.000190 -0.385163 -0.923156 0.002366 -0.384417 -0.000656 -0.974803 0.223065 -0.222241 -0.964893 0.139966 -0.427420 -0.903188 0.039528 -0.352266 -0.929455 0.109644 -0.382050 -0.919281 0.094655 -0.133009 -0.968768 0.209279 -0.154042 -0.966710 0.204312 -0.173541 -0.964577 0.198681 -0.191551 -0.962424 0.192479 -0.200068 -0.961342 0.189192 -0.238907 -0.955808 0.171330 -0.208298 -0.960256 0.185796 -0.224010 -0.958060 0.178718 -0.216270 -0.959163 0.182301 -0.267124 -0.950961 0.155944 -0.294639 -0.945260 0.140257 -0.308640 -0.941908 0.132482 -0.322951 -0.938151 0.124799 -0.496509 -0.867357 0.034225 -0.608666 -0.790911 -0.063123 -0.345941 -0.925229 -0.155810 -0.537298 -0.810217 -0.234223 -0.600213 -0.799336 -0.028400 -0.691449 -0.716891 -0.089253 -0.755831 -0.634348 -0.162240 -0.769567 -0.621074 -0.148441 -0.839136 -0.501468 -0.210669 -0.860674 -0.442266 -0.252273 -0.845668 -0.496810 -0.195003 -0.852134 -0.491579 -0.179492 -0.858529 -0.485779 -0.164154 -0.915823 -0.306379 -0.259615 -0.917325 -0.225419 -0.328179 -0.932303 -0.113415 -0.343437 -0.922917 0.000587 -0.384999 -0.922334 0.003799 -0.386375 -0.922908 -0.000972 -0.385018 -0.896925 -0.230937 -0.377086 -0.820724 -0.453072 -0.348047 -0.902605 -0.082232 -0.422543 -0.826880 -0.293142 -0.479935 -0.159423 -0.929782 -0.331798 -0.133878 -0.937283 -0.321835 -0.698569 -0.649838 -0.299521 -0.000395 -0.974918 0.222563 -0.001222 -0.916650 0.399690 -0.133152 -0.968637 0.209794 -0.169622 -0.922797 0.345940 -0.154221 -0.966551 0.204929 -0.173744 -0.964398 0.199371 -0.191766 -0.962234 0.193214 -0.200287 -0.961149 0.189941 -0.208518 -0.960062 0.186553 -0.216488 -0.958969 0.183062 -0.224226 -0.957868 0.179478 -0.398297 -0.886822 0.234319 -0.239114 -0.955622 0.172078 -0.267304 -0.950796 0.156641 -0.294790 -0.945118 0.140892 -0.308778 -0.941776 0.133093 -0.323081 -0.938027 0.125394 -0.382164 -0.919173 0.095241 -0.352384 -0.929341 0.110226 0.016774 -0.826341 0.562920 -0.410247 -0.822639 0.393654 -0.590215 -0.758900 0.275166 -0.600667 -0.792277 0.107222 -0.739108 -0.658079 0.143704 -0.763364 -0.645406 -0.026956 -0.851461 -0.524395 0.004989 -0.875645 -0.455908 -0.159355 -0.921303 -0.365130 -0.133716 -0.930093 -0.236299 -0.281228 -0.945523 -0.189366 -0.264816 -0.945309 -0.167949 -0.279613 -0.091210 -0.840230 0.534503 -0.218985 -0.843830 0.489894 -0.159522 -0.843628 0.512683 -0.939632 -0.276147 -0.202077 -0.944076 -0.231684 -0.234615 -0.944966 -0.156710 -0.287195 -0.923291 -0.001959 -0.384096 -0.932468 -0.115250 -0.342375 -0.915879 -0.307775 -0.257758 -0.858523 -0.486624 -0.161667 -0.852232 -0.492015 -0.177826 -0.845784 -0.496996 -0.194023 -0.944440 -0.144933 -0.295006 -0.943697 -0.132484 -0.303122 -0.942696 -0.119233 -0.311622 -0.939689 -0.090018 -0.329971 -0.923147 -0.001037 -0.384446 -0.839178 -0.501569 -0.210257 -0.769618 -0.621126 -0.147957 -0.691512 -0.716897 -0.088717 -0.600292 -0.799297 -0.027827 -0.496612 -0.867273 0.034837 -0.000000 0.991499 -0.130114 -0.000000 0.991499 -0.130114 -0.000000 0.963904 -0.266251 -0.000000 0.963904 -0.266251 -0.000000 0.917711 -0.397250 -0.000000 0.917711 -0.397250 -0.000000 0.853810 -0.520584 -0.000000 0.853811 -0.520584 -0.000000 0.853811 -0.520584 0.000000 0.732592 -0.680668 0.000000 0.853811 -0.520584 0.000000 0.732592 -0.680668 0.000000 0.853811 -0.520584 0.000000 0.581835 -0.813307 0.000000 0.581835 -0.813307 0.000000 0.407618 -0.913153 0.000000 0.407618 -0.913153 0.000000 0.216965 -0.976179 0.000000 0.216965 -0.976179 0.000000 0.017564 -0.999846 0.000000 0.017564 -0.999846 0.000000 -0.182545 -0.983198 0.000000 -0.182545 -0.983197 0.000000 -0.375293 -0.926906 0.000000 -0.375294 -0.926906 0.000000 -0.552910 -0.833241 0.000000 -0.552911 -0.833241 0.000000 -0.552910 -0.833241 1.000000 -0.000001 -0.000025 1.000000 -0.000007 -0.000024 0.965929 -0.000001 0.258808 0.966437 0.067232 0.247950 0.866813 0.130495 0.481254 0.866813 0.251895 0.430330 0.707936 0.356791 0.609530 0.707936 0.503874 0.494911 0.500666 0.617569 0.606582 0.707936 0.616040 0.345429 0.500666 0.755127 0.423222 0.707937 0.684868 0.172573 0.500666 0.839402 0.211512 0.500666 0.865501 -0.015539 0.259172 0.965676 -0.017337 0.259172 0.927482 -0.269458 -0.000037 0.991500 -0.130109 -0.000037 0.963905 -0.266247 -0.000037 0.917711 -0.397248 0.258794 0.824723 -0.502849 -0.000040 0.853811 -0.520584 1.000000 -0.000014 -0.000022 0.966437 0.129780 0.221713 0.866814 0.355736 0.349408 0.866814 0.434877 0.243960 0.866814 0.483518 0.121837 0.707937 0.706162 -0.012678 0.500667 0.831269 -0.241506 0.499991 0.739426 -0.450842 1.000000 -0.000019 -0.000018 0.966437 0.183280 0.180021 0.966437 0.224030 0.125736 0.966437 0.249115 0.062772 0.866814 0.498551 -0.008950 0.707937 0.678232 -0.197044 0.707110 0.603732 -0.368106 1.000000 -0.000023 -0.000013 1.000000 -0.000026 -0.000007 1.000000 -0.000027 0.000000 0.966437 0.256861 -0.004611 0.866814 0.478833 -0.139113 0.866036 0.426890 -0.260282 1.000000 -0.000026 0.000007 0.966437 0.246702 -0.071673 0.965935 0.220953 -0.134719 0.999997 -0.002070 0.001192 -0.000036 0.996434 0.084375 0.259171 0.936556 0.235992 0.259171 0.842621 0.472039 0.259171 0.689048 0.676789 0.500666 0.437298 0.747064 0.707936 0.184837 0.681661 0.866027 -0.000001 0.499997 -0.000035 0.957087 0.289802 -0.000033 0.872527 0.488566 -0.000032 0.752352 0.658761 -0.000030 0.592956 0.805235 0.259171 0.487911 0.833530 -0.000028 0.413213 0.910634 0.259170 0.252765 0.932170 -0.000027 0.208066 0.978115 0.258802 -0.000001 0.965930 -0.000025 -0.000001 1.000000 0.499991 -0.000001 0.866031 0.500665 0.226544 0.835471 0.707104 -0.000001 0.707109 1.000000 0.000000 -0.000000 1.000000 0.000005 -0.000005 0.965926 0.220983 -0.134737 0.965926 0.189609 -0.176170 0.866026 0.366295 -0.340333 0.866026 0.290917 -0.406653 0.707108 0.411419 -0.575094 0.707108 0.288229 -0.645695 0.500003 0.353007 -0.790812 0.500003 0.187897 -0.845395 0.258823 0.209572 -0.942916 0.500003 0.015211 -0.865890 0.258823 0.016965 -0.965776 0.500003 -0.158089 -0.851473 0.258823 -0.176325 -0.949695 0.500003 -0.325014 -0.802723 0.258823 -0.362506 -0.895321 0.258830 -0.534069 -0.804846 0.500011 -0.478831 -0.721602 0.707108 -0.265372 -0.655420 0.707112 -0.390964 -0.589186 0.866026 -0.187647 -0.463452 0.866027 -0.276454 -0.416619 0.965925 -0.143105 -0.215661 0.965926 -0.097133 -0.239901 1.000000 -0.000004 -0.000006 1.000000 -0.000003 -0.000007 0.965926 -0.047246 -0.254470 1.000000 -0.000001 -0.000007 0.965926 0.004546 -0.258779 1.000000 0.000000 -0.000007 0.965926 0.056155 -0.252654 1.000000 0.000002 -0.000007 1.000000 0.000003 -0.000007 0.965926 0.105499 -0.236341 1.000000 0.000004 -0.000006 0.965926 0.150590 -0.210499 0.258823 0.393728 -0.882037 0.500003 0.503883 -0.704343 0.707108 0.518020 -0.481304 0.866025 0.426906 -0.260292 0.258823 0.562009 -0.785593 0.500003 0.634442 -0.589475 0.707106 0.603736 -0.368109 0.258823 0.707629 -0.657474 0.499998 0.739423 -0.450839 0.258823 0.824717 -0.502845 0.866026 0.203808 -0.456575 0.866026 0.108482 -0.488089 0.707108 0.153417 -0.690262 0.707108 0.012420 -0.706996 0.707108 -0.129079 -0.695224 0.866026 0.008782 -0.499922 0.866026 -0.091272 -0.491598 -0.000004 -0.748729 -0.662876 -0.000004 -0.552911 -0.833240 0.258686 -0.723243 -0.640313 0.258690 -0.534090 -0.804877 0.499768 -0.648518 -0.574157 0.499771 -0.478908 -0.721717 0.706826 -0.529641 -0.468911 0.706828 -0.391121 -0.589422 0.865761 -0.374706 -0.331742 0.865763 -0.276706 -0.416999 0.965755 -0.194261 -0.171987 0.965756 -0.143454 -0.216187 0.999999 -0.001181 -0.001064 1.000000 -0.000435 -0.000657 0.999999 -0.001409 -0.000735 0.965755 -0.231979 -0.116199 0.865761 -0.447461 -0.224133 0.706826 -0.632479 -0.316808 0.499768 -0.774438 -0.387915 0.258686 -0.863672 -0.432611 -0.000006 -0.894106 -0.447856 0.258687 -0.945916 -0.195766 -0.000006 -0.979248 -0.202664 0.258687 -0.964436 0.054269 -0.000007 -0.998421 0.056181 0.258687 -0.917983 0.300647 -0.000007 -0.950331 0.311241 -0.000007 -0.838219 0.545333 0.258687 -0.809687 0.526771 0.216844 -0.654591 0.724216 0.420969 -0.610644 0.670745 0.499768 -0.726031 0.472346 0.601956 -0.540950 0.587386 0.706826 -0.592946 0.385762 0.753490 -0.449076 0.480191 0.865761 -0.419492 0.272916 0.870413 -0.339600 0.356444 0.950575 -0.216554 0.222511 0.965755 -0.217479 0.141489 0.992791 -0.084585 0.084915 0.999999 -0.001373 0.000801 0.999543 -0.021462 0.021305 0.999961 -0.006282 0.006221 0.999991 -0.003074 0.003044 0.999996 -0.002036 0.002016 0.999999 -0.000962 0.000953 0.999997 -0.001592 0.001576 0.999999 -0.001548 -0.000360 0.965755 -0.254070 -0.052582 0.865762 -0.490071 -0.101425 0.706826 -0.692708 -0.143362 0.499769 -0.848185 -0.175539 0.999999 -0.001589 0.000038 0.965755 -0.259044 0.014576 0.865762 -0.499666 0.028116 0.706826 -0.706270 0.039742 0.499769 -0.864791 0.048662 0.999999 -0.001529 0.000433 0.965755 -0.246567 0.080753 0.865762 -0.475600 0.155763 0.706826 -0.672252 0.220168 0.499769 -0.823138 0.269584 -0.000006 -0.669638 0.742687 -0.000000 0.552911 0.833241 -0.000000 0.552911 0.833241 -0.000000 0.375294 0.926906 -0.000000 0.375294 0.926906 -0.000000 0.182545 0.983197 -0.000000 0.182545 0.983197 -0.000000 -0.017564 0.999846 -0.000000 -0.017564 0.999846 -0.000000 -0.216965 0.976179 -0.000000 -0.216965 0.976179 -0.000000 -0.407618 0.913153 -0.000000 -0.407618 0.913153 -0.000000 -0.581835 0.813307 -0.000000 -0.581835 0.813307 -0.000000 -0.732592 0.680668 -0.000000 -0.732592 0.680668 -0.000000 -0.853810 0.520584 -0.000000 -0.853810 0.520584 -1.000000 -0.000000 0.000000 -1.000000 0.000000 -0.000000 -0.965926 0.215658 -0.143104 -0.965926 0.215658 -0.143104 -0.866025 0.416619 -0.276456 -0.866025 0.416619 -0.276456 -0.707107 0.589189 -0.390969 -0.707107 0.589189 -0.390969 -0.500000 0.721606 -0.478837 -0.500000 0.721606 -0.478837 -0.258819 0.804847 -0.534073 -0.258819 0.804847 -0.534073 -0.000000 0.833239 -0.552913 -0.000000 0.833239 -0.552913 -0.000000 0.965929 0.258808 -0.000000 0.965929 0.258808 -0.000000 1.000000 -0.000011 -0.000000 1.000000 -0.000011 -0.000000 0.965923 -0.258830 -0.000000 0.965923 -0.258830 -0.000000 0.866020 -0.500009 -0.000000 0.866020 -0.500009 -0.000000 0.707099 -0.707115 -0.000000 0.707099 -0.707115 -0.000000 0.499991 -0.866031 -0.000000 0.499991 -0.866031 -0.000000 0.258808 -0.965929 -0.000000 0.258808 -0.965929 -0.000000 -0.000011 -1.000000 -0.000000 -0.000011 -1.000000 -0.000000 -0.258830 -0.965923 -0.000000 -0.258830 -0.965923 -0.000000 -0.500009 -0.866020 -0.000000 -0.500009 -0.866020 -0.000000 -0.707115 -0.707099 -0.000000 -0.707115 -0.707099 0.000000 -0.866031 -0.499991 0.000000 -0.866031 -0.499991 0.000000 -0.965929 -0.258808 0.000000 -0.965929 -0.258808 0.000000 -1.000000 0.000011 0.000000 -1.000000 0.000011 0.000000 -0.965923 0.258830 0.000000 -0.965923 0.258830 0.000000 -0.866020 0.500009 0.000000 -0.866020 0.500009 0.000000 -0.707099 0.707115 0.000000 -0.707099 0.707115 0.000000 -0.499991 0.866031 0.000000 -0.499991 0.866031 0.000000 -0.258808 0.965929 0.000000 -0.258808 0.965929 0.000000 0.000011 1.000000 0.000000 0.000011 1.000000 0.000000 0.258830 0.965923 0.000000 0.258830 0.965923 0.000000 0.500009 0.866020 0.000000 0.500009 0.866020 0.000000 0.707115 0.707099 0.000000 0.707115 0.707099 -0.000000 0.866031 0.499991 -0.000000 0.866031 0.499991 -0.000000 -0.965925 -0.258821 -0.000000 -0.965926 -0.258817 -0.000000 -1.000000 -0.000002 -0.000000 -1.000000 0.000002 0.000000 -0.965926 0.258817 0.000000 -0.965925 0.258821 0.000000 -0.866026 0.499998 0.000000 -0.866024 0.500002 0.000000 -0.707108 0.707105 0.000000 -0.707105 0.707108 0.000000 -0.500002 0.866024 0.000000 -0.499998 0.866026 0.000000 -0.258821 0.965925 0.000000 -0.258817 0.965926 0.000000 -0.000002 1.000000 0.000000 0.000002 1.000000 0.000000 0.258817 0.965926 0.000000 0.258821 0.965925 0.000000 0.499998 0.866026 0.000000 0.500002 0.866024 0.000000 0.707105 0.707108 0.000000 0.707108 0.707105 0.000000 0.866024 0.500002 0.000000 0.866026 0.499998 0.000000 0.965925 0.258821 0.000000 0.965926 0.258817 0.000000 1.000000 0.000002 0.000000 1.000000 -0.000002 -0.000000 0.965926 -0.258817 -0.000000 0.965925 -0.258821 -0.000000 0.866026 -0.499998 -0.000000 0.866024 -0.500002 -0.000000 0.707108 -0.707105 -0.000000 0.707105 -0.707108 -0.000000 0.500002 -0.866024 -0.000000 0.499998 -0.866026 -0.000000 0.258821 -0.965925 -0.000000 0.258817 -0.965926 -0.000000 0.000002 -1.000000 -0.000000 -0.000002 -1.000000 -0.000000 -0.258817 -0.965926 -0.000000 -0.258821 -0.965925 -0.000000 -0.499998 -0.866026 -0.000000 -0.500002 -0.866024 -0.000000 -0.707105 -0.707108 -0.000000 -0.707108 -0.707105 -0.000000 -0.866024 -0.500002 -0.000000 -0.866026 -0.499998 -0.000000 0.965925 0.258821 -0.000000 0.965925 0.258821 -0.000000 1.000000 0.000002 -0.000000 1.000000 0.000002 -0.000000 0.965926 -0.258817 0.000000 0.866025 0.500002 0.000000 0.866025 0.500002 0.000000 0.707106 0.707108 0.000000 0.707106 0.707108 0.000000 0.499998 0.866026 0.000000 0.499998 0.866026 0.000000 0.258817 0.965926 0.000000 0.258817 0.965926 0.000000 -0.000002 1.000000 0.000000 -0.000002 1.000000 0.000000 -0.258821 0.965925 0.000000 -0.258821 0.965925 0.000000 -0.500002 0.866025 0.000000 -0.500002 0.866025 0.000000 -0.707108 0.707106 0.000000 -0.707108 0.707106 0.000000 -0.866026 0.499998 0.000000 -0.866026 0.499998 0.000000 -0.965926 0.258817 0.000000 -0.965926 0.258817 0.000000 -1.000000 -0.000002 0.000000 -1.000000 -0.000002 0.000000 -0.965925 -0.258821 0.000000 -0.965925 -0.258821 -0.000000 -0.866025 -0.500002 -0.000000 -0.866025 -0.500002 -0.000000 -0.707106 -0.707108 -0.000000 -0.707106 -0.707108 -0.000000 -0.499998 -0.866026 -0.000000 -0.499998 -0.866026 -0.000000 -0.258817 -0.965926 -0.000000 -0.258817 -0.965926 -0.000000 0.000002 -1.000000 -0.000000 0.000002 -1.000000 -0.000000 0.258821 -0.965925 -0.000000 0.258821 -0.965925 -0.000000 0.500002 -0.866025 -0.000000 0.500002 -0.866025 -0.000000 0.707108 -0.707106 -0.000000 0.707108 -0.707106 -0.000000 0.866026 -0.499998 -0.000000 0.866026 -0.499998 -0.000000 0.965926 -0.258817 0.000000 -0.552911 -0.833241 0.000000 -0.552911 -0.833240 0.000000 -0.696776 -0.717288 0.000000 -0.748728 -0.662877 0.000000 -0.815663 -0.578527 0.000000 -0.894105 -0.447856 0.000000 -0.906528 -0.422145 0.000000 -0.967371 -0.253365 0.000000 -0.979248 -0.202665 0.000000 -0.999849 -0.017391 0.000000 -0.998421 0.056180 0.000000 -0.974669 0.223651 0.000000 -0.950331 0.311241 0.000000 -0.916864 0.399201 0.000000 -0.838219 0.545333 -0.000000 -0.828180 0.560462 -0.000000 -0.806538 0.591182 -0.000000 -0.784181 0.620532 -0.000000 -0.760687 0.649119 -0.000000 -0.669638 0.742687 -0.000000 -0.732049 0.681252 -0.000000 -0.701947 0.712229 -0.000000 -0.670102 0.742269 -0.817483 -0.143770 -0.557719 -0.817483 -0.143770 -0.557719 -0.922901 0.000000 -0.385037 -0.817483 -0.143770 -0.557719 -0.817483 -0.143770 -0.557719 -0.661708 -0.278683 -0.696045 -0.661708 -0.278683 -0.696045 -0.465170 -0.396430 -0.791493 -0.465170 -0.396430 -0.791493 -0.239976 -0.489755 -0.838183 -0.298228 -0.469056 -0.831292 -0.150945 -0.517223 -0.842434 -0.000003 -0.552910 -0.833241 -0.239976 -0.489755 -0.838183 -0.239976 -0.489755 -0.838184 -0.465169 -0.396430 -0.791493 -0.465169 -0.396430 -0.791493 -0.661708 -0.278683 -0.696045 -0.661708 -0.278683 -0.696045 -0.661708 -0.278683 -0.696045 -0.465169 -0.396430 -0.791493 -0.239976 -0.489755 -0.838184 0.000000 -0.552911 -0.833241 -0.465169 -0.396430 -0.791493 -0.239976 -0.489755 -0.838184 -0.239976 -0.489755 -0.838184 -0.438320 -0.409563 -0.800084 -0.567827 -0.340186 -0.749563 -0.661708 -0.278683 -0.696045 -0.683632 -0.262596 -0.680948 -0.782935 -0.178666 -0.595895 -0.817483 -0.143770 -0.557719 -0.863333 -0.090432 -0.496467 -0.922901 -0.000000 -0.385038 -0.817483 -0.143770 -0.557719 -0.000067 -0.000001 1.000000 0.000003 -0.000001 1.000000 0.258775 -0.000001 0.965938 0.258775 -0.000001 0.965938 0.499980 -0.000001 0.866037 0.499980 -0.000001 0.866037 0.707107 -0.000001 0.707106 0.707107 -0.000001 0.707106 0.866037 -0.000001 0.499979 0.866038 -0.000001 0.499979 0.965938 -0.000001 0.258774 0.965938 -0.000001 0.258774 1.000000 -0.000001 -0.000073 0.965938 -0.000001 0.258774 0.965938 -0.000001 0.258774 0.866038 -0.000001 0.499979 0.866038 -0.000001 0.499979 0.707108 -0.000001 0.707106 0.707108 -0.000001 0.707106 0.499981 -0.000001 0.866036 0.499981 -0.000001 0.866036 0.258776 -0.000001 0.965937 0.258776 -0.000001 0.965937 0.258776 -0.000001 0.965937 0.258776 -0.000001 0.965937 0.499981 -0.000001 0.866036 0.499982 -0.000001 0.866036 0.707108 -0.000001 0.707105 0.707108 -0.000001 0.707105 0.866038 -0.000001 0.499978 0.866038 -0.000001 0.499978 0.965938 -0.000001 0.258773 0.965938 -0.000001 0.258772 0.999994 -0.000001 0.003464 0.965938 -0.000001 0.258772 0.965938 -0.000001 0.258772 0.866038 -0.000001 0.499978 0.866038 -0.000001 0.499978 0.707109 -0.000001 0.707105 0.707109 -0.000001 0.707105 0.499982 -0.000001 0.866036 0.601956 -0.000001 0.798529 0.420972 -0.000001 0.907074 0.258777 -0.000001 0.965937 0.216850 -0.000001 0.976205 0.258777 -0.000001 0.965937 0.258777 -0.000001 0.965937 0.499982 -0.000001 0.866036 0.499982 -0.000001 0.866036 0.707108 -0.000001 0.707105 0.753487 -0.000001 0.657463 0.866038 -0.000001 0.499977 0.965939 -0.000001 0.258772 0.870409 -0.000001 0.492329 0.950577 -0.000001 0.310490 0.965939 -0.000001 0.258771 0.992787 -0.000001 0.119888 0.999537 -0.000001 0.030435 0.999955 -0.000001 0.009499 0.999991 -0.000001 0.004131 0.999985 -0.000001 0.005546 0.999990 -0.000001 0.004501 0.965938 -0.000001 0.258773 0.965938 -0.000001 0.258773 0.965938 -0.000001 0.258773 0.866038 -0.000001 0.499978 0.866038 -0.000001 0.499978 0.707108 -0.000001 0.707106 0.499982 -0.000001 0.866036 0.258776 -0.000001 0.965937 0.499981 -0.000001 0.866036 0.707108 -0.000001 0.707105 0.866038 -0.000001 0.499978 0.258776 -0.000001 0.965937 0.258775 -0.000001 0.965938 0.258775 -0.000001 0.965938 0.499981 -0.000001 0.866037 0.499980 -0.000001 0.866037 0.707108 -0.000001 0.707106 0.499981 -0.000001 0.866036 0.258775 -0.000001 0.965938 0.707109 -0.000001 0.707105 0.866038 -0.000001 0.499978 0.707108 -0.000001 0.707106 0.866038 -0.000001 0.499979 0.965938 -0.000001 0.258774 0.965926 0.220982 -0.134737 0.999989 -0.004046 0.002467 0.966940 0.217724 -0.132750 1.000000 0.000006 -0.000004 0.966940 0.217724 -0.132750 0.966940 0.217724 -0.132750 0.867601 0.424567 -0.258866 0.867601 0.424567 -0.258866 0.707106 0.603736 -0.368109 0.707106 0.603736 -0.368109 0.500000 0.739422 -0.450839 0.499999 0.739422 -0.450839 0.258821 0.824717 -0.502845 0.258822 0.824717 -0.502845 0.000002 0.853811 -0.520584 0.000000 0.853811 -0.520584 0.258822 0.824717 -0.502845 0.258822 0.824717 -0.502845 0.499998 0.739423 -0.450840 0.499997 0.739423 -0.450840 0.707104 0.603738 -0.368110 0.707104 0.603737 -0.368110 0.866023 0.426909 -0.260294 0.867601 0.424567 -0.258866 0.965924 0.220987 -0.134740 0.966940 0.217724 -0.132750 0.966940 0.217724 -0.132750 0.258823 0.824717 -0.502845 0.258821 0.824717 -0.502845 0.258821 0.824717 -0.502845 0.500000 0.739421 -0.450839 0.500001 0.739421 -0.450838 0.707107 0.603735 -0.368108 0.707108 0.603735 -0.368108 0.866026 0.426905 -0.260292 0.867601 0.424567 -0.258866 0.867601 0.424567 -0.258866 0.707105 0.603737 -0.368109 0.499998 0.739423 -0.450839 1.000000 -0.000000 -0.000000 1.000000 -0.000443 -0.000668 0.965927 -0.143102 -0.215656 0.965911 -0.143135 -0.215705 0.866029 -0.276452 -0.416615 0.866004 -0.276476 -0.416651 0.707114 -0.390963 -0.589184 0.707088 -0.390977 -0.589206 0.500012 -0.478831 -0.721602 0.499990 -0.478838 -0.721612 0.258830 -0.534069 -0.804846 0.258817 -0.534071 -0.804849 0.000056 -0.552911 -0.833241 0.258804 -0.534073 -0.804852 0.258792 -0.534075 -0.804855 0.499946 -0.478852 -0.721634 0.499924 -0.478859 -0.721644 0.707008 -0.391021 -0.589272 0.706982 -0.391036 -0.589294 0.865906 -0.276570 -0.416793 0.865881 -0.276593 -0.416828 0.965832 -0.143298 -0.215951 0.965816 -0.143330 -0.216000 0.965800 -0.143363 -0.216049 0.965784 -0.143395 -0.216098 0.865832 -0.276640 -0.416899 0.865807 -0.276664 -0.416935 0.706903 -0.391080 -0.589360 0.706876 -0.391094 -0.589382 0.499835 -0.478887 -0.721687 0.499813 -0.478894 -0.721697 0.258728 -0.534084 -0.804869 0.258716 -0.534086 -0.804872 0.258703 -0.534088 -0.804875 0.258690 -0.534090 -0.804877 0.499769 -0.478908 -0.721719 0.499791 -0.478901 -0.721708 0.706823 -0.391123 -0.589426 0.706850 -0.391109 -0.589404 0.865758 -0.276711 -0.417006 0.865783 -0.276688 -0.416970 0.965753 -0.143461 -0.216196 0.965769 -0.143428 -0.216147 0.000000 -0.552911 -0.833241 0.865857 -0.276617 -0.416864 0.706929 -0.391065 -0.589338 0.499857 -0.478880 -0.721676 0.258741 -0.534082 -0.804866 0.965848 -0.143265 -0.215902 0.965863 -0.143232 -0.215852 0.965879 -0.143200 -0.215803 0.865955 -0.276523 -0.416722 0.865980 -0.276499 -0.416686 0.707061 -0.390992 -0.589228 0.865930 -0.276546 -0.416757 0.965895 -0.143167 -0.215754 0.706956 -0.391050 -0.589316 0.499902 -0.478866 -0.721655 0.258779 -0.534077 -0.804858 0.707035 -0.391007 -0.589250 0.499879 -0.478873 -0.721666 0.258754 -0.534080 -0.804863 0.499968 -0.478845 -0.721623 0.258766 -0.534078 -0.804860 -0.000000 -0.000000 1.000000 -0.000000 -0.000000 1.000000 -0.000000 -0.000000 1.000000 -0.000000 -0.000000 1.000000 -0.000000 -0.000000 1.000000 -0.000000 -0.000000 1.000000 -0.000000 -0.000000 1.000000 -0.000000 -0.000000 1.000000 -0.000000 -0.000000 1.000000 -0.000000 -0.000000 1.000000 -0.922901 0.000000 -0.385037 -0.922901 0.000000 -0.385037 -0.922901 0.000000 -0.385037 -0.922901 0.000000 -0.385037 -0.922901 0.000000 -0.385037 -0.922901 0.000000 -0.385037 -0.922901 0.000000 -0.385037 -0.922901 0.000000 -0.385037 -0.922901 0.000000 -0.385037 -0.922901 0.000000 -0.385037 -0.922901 0.000000 -0.385037 -0.922901 0.000000 -0.385037 -0.922901 0.000000 -0.385037 -0.922901 0.000000 -0.385037 -0.922901 0.000000 -0.385037 -0.922901 0.000000 -0.385037 -0.922901 0.000000 -0.385037 0.095207 0.968948 -0.228198 0.095207 0.968948 -0.228198 0.095207 0.968948 -0.228198 0.095207 0.968948 -0.228198 0.922901 0.000000 0.385037 0.922901 0.000000 0.385037 0.922901 0.000000 0.385037 0.922901 0.000000 0.385037 0.922901 0.000000 0.385037 0.922901 0.000000 0.385037 -0.000000 0.552911 0.833241 -0.000000 0.552911 0.833241 -0.000000 0.552911 0.833241 -0.000000 0.552911 0.833241 -0.000000 0.552911 0.833241 -0.000000 0.552911 0.833241 -0.000000 0.552911 0.833241 -0.000000 0.552911 0.833241 -0.000000 0.552911 0.833241 -0.000000 0.552911 0.833241 -1.000000 -0.000000 0.000000 -1.000000 -0.000000 0.000000 -1.000000 -0.000000 0.000000 -1.000000 -0.000000 0.000000 -1.000000 -0.000000 0.000000 -1.000000 -0.000000 0.000000 -1.000000 -0.000000 0.000000 -1.000000 -0.000000 0.000000 -1.000000 -0.000000 0.000000 -1.000000 -0.000000 0.000000 -1.000000 -0.000000 0.000000 -1.000000 -0.000000 0.000000 -1.000000 -0.000000 0.000000 -1.000000 -0.000000 0.000000 -1.000000 -0.000000 0.000000 -1.000000 -0.000000 0.000000 -1.000000 -0.000000 0.000000 -1.000000 -0.000000 0.000000 -1.000000 -0.000000 0.000000 -1.000000 -0.000000 0.000000 -1.000000 -0.000000 0.000000 -1.000000 -0.000000 0.000000 -1.000000 -0.000000 0.000000 -1.000000 -0.000000 0.000000 -1.000000 -0.000000 0.000000 -1.000000 -0.000000 0.000000 -1.000000 -0.000000 0.000000 -1.000000 -0.000000 0.000000 -1.000000 -0.000000 0.000000 -1.000000 -0.000000 0.000000 -1.000000 -0.000000 0.000000 -1.000000 -0.000000 0.000000 -1.000000 -0.000000 0.000000 -1.000000 -0.000000 0.000000 -1.000000 -0.000000 0.000000 -1.000000 -0.000000 0.000000 -1.000000 -0.000000 0.000000 -1.000000 -0.000000 0.000000 -1.000000 -0.000000 0.000000 -1.000000 -0.000000 0.000000 -1.000000 -0.000000 0.000000 -1.000000 -0.000000 0.000000 -1.000000 -0.000000 0.000000 -1.000000 -0.000000 0.000000 -1.000000 -0.000000 0.000000 -1.000000 -0.000000 0.000000 -1.000000 -0.000000 0.000000 -1.000000 -0.000000 0.000000 -1.000000 -0.000000 0.000000 -1.000000 -0.000000 0.000000 -1.000000 -0.000000 0.000000 -1.000000 -0.000000 0.000000 -1.000000 -0.000000 0.000000 -1.000000 -0.000000 0.000000 -1.000000 -0.000000 0.000000 -1.000000 -0.000000 0.000000 -1.000000 -0.000000 0.000000 -1.000000 -0.000000 0.000000 -1.000000 -0.000000 0.000000 -1.000000 -0.000000 0.000000 -1.000000 -0.000000 0.000000 -1.000000 -0.000000 0.000000 -1.000000 -0.000000 0.000000 -1.000000 -0.000000 0.000000 -1.000000 -0.000000 0.000000 -1.000000 -0.000000 0.000000 -1.000000 -0.000000 0.000000 -1.000000 -0.000000 0.000000 -1.000000 -0.000000 0.000000 -1.000000 -0.000000 0.000000 -1.000000 -0.000000 0.000000 -1.000000 -0.000000 0.000000 -1.000000 -0.000000 0.000000 -1.000000 -0.000000 0.000000 -1.000000 -0.000000 0.000000 -1.000000 -0.000000 0.000000 -1.000000 -0.000000 0.000000 -1.000000 -0.000000 0.000000 -1.000000 -0.000000 0.000000 -1.000000 -0.000000 0.000000 -1.000000 -0.000000 0.000000 -1.000000 -0.000000 0.000000 -1.000000 -0.000000 0.000000 -1.000000 -0.000000 0.000000 -1.000000 -0.000000 0.000000 -1.000000 -0.000000 0.000000 -1.000000 -0.000000 0.000000 -1.000000 -0.000000 0.000000 -1.000000 -0.000000 0.000000 -1.000000 -0.000000 0.000000 -1.000000 -0.000000 0.000000 -1.000000 -0.000000 0.000000 -1.000000 -0.000000 0.000000 -1.000000 -0.000000 0.000000 -1.000000 -0.000000 0.000000 -1.000000 -0.000000 0.000000 -1.000000 -0.000000 0.000000 -1.000000 -0.000000 0.000000 -1.000000 -0.000000 0.000000 -1.000000 -0.000000 0.000000 -1.000000 -0.000000 0.000000 -1.000000 -0.000000 0.000000 -1.000000 -0.000000 0.000000 -1.000000 -0.000000 0.000000 -1.000000 -0.000000 0.000000 -1.000000 -0.000000 0.000000 -1.000000 -0.000000 0.000000 -1.000000 -0.000000 0.000000 -1.000000 -0.000000 0.000000 -1.000000 -0.000000 0.000000 -1.000000 -0.000000 0.000000 -1.000000 -0.000000 0.000000 -1.000000 -0.000000 0.000000 -1.000000 -0.000000 0.000000 0.000000 -0.853810 0.520584 0.000000 -0.853810 0.520584 -0.000000 1.000000 -0.000000 -0.000000 1.000000 -0.000000 -0.000000 1.000000 -0.000000 -0.000000 1.000000 -0.000000 -0.000000 1.000000 -0.000000 -0.000000 1.000000 -0.000000 0.000000 -0.552911 -0.833241 0.000000 -0.552911 -0.833241 0.000000 -0.552911 -0.833241 0.000000 -0.552911 -0.833241 0.000000 -0.552911 -0.833241 0.000000 -0.552911 -0.833241 0.000000 -0.552911 -0.833241 0.000000 -0.552911 -0.833241 0.000000 -0.552911 -0.833241 0.000000 -0.552911 -0.833241 -0.000000 0.833239 -0.552913 -0.000000 0.833239 -0.552913 -0.000000 0.833239 -0.552913 -0.000000 0.833239 -0.552913 -0.000000 0.833239 -0.552913 -0.000000 0.833239 -0.552913 -0.000000 0.833239 -0.552913 -0.000000 0.833239 -0.552913 -0.000000 0.833239 -0.552913 -0.000000 0.853811 -0.520584 -0.000000 0.853811 -0.520584 1.000000 0.000000 -0.000000 1.000000 0.000000 -0.000000 1.000000 0.000000 -0.000000 1.000000 0.000000 -0.000000 1.000000 0.000000 -0.000000 1.000000 0.000000 -0.000000 1.000000 0.000000 -0.000000 1.000000 0.000000 -0.000000 1.000000 0.000000 -0.000000 1.000000 0.000000 -0.000000 1.000000 0.000000 -0.000000 1.000000 0.000000 -0.000000 1.000000 0.000000 -0.000000 1.000000 0.000000 -0.000000 1.000000 0.000000 -0.000000 1.000000 0.000000 -0.000000 1.000000 0.000000 -0.000000 1.000000 0.000000 -0.000000 1.000000 0.000000 -0.000000 1.000000 0.000000 -0.000000 1.000000 0.000000 -0.000000 1.000000 0.000000 -0.000000 1.000000 0.000000 -0.000000 1.000000 0.000000 -0.000000 1.000000 0.000000 -0.000000 1.000000 0.000000 -0.000000 1.000000 0.000000 -0.000000 1.000000 0.000000 -0.000000 1.000000 0.000000 -0.000000 1.000000 0.000000 -0.000000 1.000000 0.000000 -0.000000 1.000000 0.000000 -0.000000 1.000000 0.000000 -0.000000 1.000000 0.000000 -0.000000 1.000000 0.000000 -0.000000 1.000000 0.000000 -0.000000 1.000000 0.000000 -0.000000 1.000000 0.000000 -0.000000 1.000000 0.000000 -0.000000 1.000000 0.000000 -0.000000 1.000000 0.000000 -0.000000 1.000000 0.000000 -0.000000 1.000000 0.000000 -0.000000 1.000000 0.000000 -0.000000 1.000000 0.000000 -0.000000 1.000000 0.000000 -0.000000 1.000000 0.000000 -0.000000 1.000000 0.000000 -0.000000 1.000000 0.000000 -0.000000 1.000000 0.000000 -0.000000 1.000000 0.000000 -0.000000 1.000000 0.000000 -0.000000 1.000000 0.000000 -0.000000 1.000000 0.000000 -0.000000 1.000000 0.000000 -0.000000 1.000000 0.000000 -0.000000 1.000000 0.000000 -0.000000 1.000000 0.000000 -0.000000 1.000000 0.000000 -0.000000 1.000000 0.000000 -0.000000 1.000000 0.000000 -0.000000 1.000000 0.000000 -0.000000 1.000000 0.000000 -0.000000 1.000000 0.000000 -0.000000 1.000000 0.000000 -0.000000 1.000000 0.000000 -0.000000 1.000000 0.000000 -0.000000 1.000000 0.000000 -0.000000 1.000000 0.000000 -0.000000 1.000000 0.000000 -0.000000 1.000000 0.000000 -0.000000 1.000000 0.000000 -0.000000 1.000000 0.000000 -0.000000 1.000000 0.000000 -0.000000 1.000000 0.000000 -0.000000 1.000000 0.000000 -0.000000 1.000000 0.000000 -0.000000 1.000000 0.000000 -0.000000 1.000000 0.000000 -0.000000 1.000000 0.000000 -0.000000 1.000000 0.000000 -0.000000 1.000000 0.000000 -0.000000 1.000000 0.000000 -0.000000 1.000000 0.000000 -0.000000 1.000000 0.000000 -0.000000 1.000000 0.000000 -0.000000 1.000000 0.000000 -0.000000 1.000000 0.000000 -0.000000 1.000000 0.000000 -0.000000 1.000000 0.000000 -0.000000 1.000000 0.000000 -0.000000 1.000000 0.000000 -0.000000 1.000000 0.000000 -0.000000 1.000000 0.000000 -0.000000 1.000000 0.000000 -0.000000 1.000000 0.000000 -0.000000 1.000000 0.000000 -0.000000 1.000000 0.000000 -0.000000</float_array>
          <technique_common>
            <accessor source="#FootCoverRight-mesh-normals-array" count="1131" stride="3">
              <param name="X" type="float"/>
              <param name="Y" type="float"/>
              <param name="Z" type="float"/>
            </accessor>
          </technique_common>
        </source>
        <vertices id="FootCoverRight-mesh-vertices">
          <input semantic="POSITION" source="#FootCoverRight-mesh-positions"/>
        </vertices>
        <triangles material="Powder_Coat__Green_" count="1392">
          <input semantic="VERTEX" source="#FootCoverRight-mesh-vertices" offset="0"/>
          <input semantic="NORMAL" source="#FootCoverRight-mesh-normals" offset="1"/>
          <p>0 0 1 1 32 2 32 2 1 1 2 3 32 2 2 3 42 4 42 4 2 3 33 5 42 4 33 5 34 6 34 6 33 5 6 7 34 6 6 7 7 8 2 3 3 9 33 5 33 5 3 9 5 10 33 5 5 10 6 7 3 9 4 11 5 10 7 8 8 12 34 6 34 6 8 12 35 13 34 6 35 13 41 14 41 14 35 13 40 15 41 14 40 15 26 16 26 16 40 15 25 17 25 17 40 15 39 18 25 17 39 18 38 19 38 19 39 18 37 20 38 19 37 20 14 21 14 21 37 20 13 22 13 22 37 20 11 23 13 22 11 23 12 24 8 12 9 25 35 13 35 13 9 25 10 26 35 13 10 26 36 27 36 27 10 26 11 23 36 27 11 23 37 20 14 21 15 28 38 19 38 19 15 28 23 29 38 19 23 29 25 17 25 17 23 29 24 30 16 31 17 32 15 28 15 28 17 32 18 33 15 28 18 33 19 34 19 34 20 35 15 28 15 28 20 35 21 36 15 28 21 36 22 37 22 37 23 29 15 28 26 16 27 38 41 14 41 14 27 38 28 39 41 14 28 39 42 4 42 4 28 39 29 40 42 4 29 40 30 41 30 41 31 42 42 4 42 4 31 42 32 2 41 14 42 4 34 6 39 18 40 15 36 27 36 27 40 15 35 13 36 27 37 20 39 18 43 43 44 44 80 45 80 45 44 44 86 46 80 45 86 46 79 47 79 47 86 46 78 48 78 48 86 46 73 49 78 48 73 49 77 50 77 50 73 49 76 51 76 51 73 49 74 52 76 51 74 52 75 53 44 44 45 54 86 46 86 46 45 54 47 55 86 46 47 55 85 56 85 56 47 55 48 57 85 56 48 57 84 58 84 58 48 57 49 59 84 58 49 59 50 60 45 54 46 61 47 55 84 58 50 60 83 62 83 62 50 60 51 63 83 62 51 63 82 64 82 64 51 63 87 65 82 64 87 65 88 66 88 66 87 65 52 67 88 66 52 67 54 68 54 68 52 67 53 69 51 63 52 67 87 65 54 68 55 70 88 66 88 66 55 70 81 71 88 66 81 71 82 64 82 64 81 71 66 72 82 64 66 72 68 73 68 73 66 72 67 74 55 70 56 75 81 71 81 71 56 75 58 76 81 71 58 76 65 77 65 77 58 76 64 78 64 78 58 76 59 79 64 78 59 79 63 80 63 80 59 79 60 81 63 80 60 81 61 82 56 75 57 83 58 76 61 82 62 84 63 80 65 77 66 72 81 71 82 64 68 73 83 62 83 62 68 73 69 85 83 62 69 85 84 58 84 58 69 85 70 86 84 58 70 86 85 56 85 56 70 86 71 87 85 56 71 87 86 46 86 46 71 87 72 88 86 46 72 88 73 49 89 89 120 90 16 91 16 91 120 90 131 92 16 91 131 92 17 93 17 93 131 92 18 94 18 94 131 92 130 95 18 94 130 95 21 96 21 96 130 95 22 97 22 97 130 95 23 98 23 98 130 95 24 99 24 99 130 95 129 100 24 99 129 100 25 101 25 101 129 100 128 102 25 101 128 102 26 103 26 103 128 102 127 104 26 103 127 104 27 105 27 105 127 104 126 106 27 105 126 106 29 107 29 107 126 106 30 108 30 108 126 106 31 109 31 109 126 106 119 110 31 109 119 110 0 111 89 89 90 112 120 90 120 90 90 112 132 113 120 90 132 113 133 114 133 114 132 113 104 115 133 114 104 115 105 116 90 112 91 117 132 113 132 113 91 117 92 118 132 113 92 118 93 119 93 119 94 120 132 113 132 113 94 120 95 121 132 113 95 121 99 122 99 122 95 121 96 123 99 122 96 123 98 124 98 124 96 123 97 125 99 122 100 126 132 113 132 113 100 126 101 127 132 113 101 127 102 128 102 128 103 129 132 113 132 113 103 129 104 115 105 116 106 130 133 114 133 114 106 130 134 131 133 114 134 131 121 132 121 132 134 131 122 133 121 132 122 133 130 95 130 95 122 133 129 100 106 130 107 134 134 131 134 131 107 134 108 135 134 131 108 135 135 136 135 136 108 135 109 137 135 136 109 137 110 138 135 136 110 138 136 139 136 139 110 138 111 140 136 139 111 140 112 141 113 142 114 143 112 141 112 141 114 143 136 139 136 139 114 143 137 144 137 144 114 143 115 145 137 144 115 145 117 146 117 146 115 145 116 147 117 146 118 148 137 144 137 144 118 148 125 149 137 144 125 149 124 150 124 150 125 149 127 104 124 150 127 104 128 102 118 148 119 110 125 149 125 149 119 110 126 106 125 149 126 106 127 104 0 111 32 151 31 109 29 107 28 152 27 105 21 96 20 153 18 94 18 94 20 153 19 154 130 95 131 92 121 132 121 132 131 92 120 90 121 132 120 90 133 114 128 102 129 100 123 155 123 155 129 100 122 133 123 155 122 133 135 136 135 136 122 133 134 131 128 102 123 155 124 150 124 150 123 155 136 139 124 150 136 139 137 144 136 139 123 155 135 136 90 156 138 157 91 158 91 158 138 157 139 159 91 158 139 159 92 160 92 160 139 159 93 161 93 161 139 159 94 162 94 162 139 159 95 163 95 163 139 159 96 164 96 164 139 159 97 165 97 165 139 159 98 166 98 166 139 159 140 167 98 166 140 167 99 168 99 168 140 167 100 169 100 169 140 167 101 170 101 170 140 167 102 171 102 171 140 167 103 172 103 172 140 167 105 173 103 172 105 173 104 174 138 157 75 175 139 159 139 159 75 175 71 176 139 159 71 176 140 167 140 167 71 176 70 177 140 167 70 177 141 178 141 178 70 177 69 179 141 178 69 179 142 180 142 180 69 179 68 181 142 180 68 181 143 182 143 182 68 181 67 183 143 182 67 183 144 184 144 184 67 183 64 185 144 184 64 185 63 186 75 175 74 187 71 176 71 176 74 187 72 188 72 188 74 187 73 189 67 183 66 190 64 185 64 185 66 190 65 191 62 192 116 193 63 186 63 186 116 193 115 194 63 186 115 194 144 184 144 184 115 194 114 195 144 184 114 195 143 182 143 182 114 195 113 196 143 182 113 196 142 180 142 180 113 196 112 197 142 180 112 197 111 198 62 192 61 199 116 193 116 193 61 199 60 200 116 193 60 200 59 201 59 201 58 202 116 193 116 193 58 202 57 203 110 204 109 205 111 198 111 198 109 205 108 206 111 198 108 206 142 180 142 180 108 206 107 207 142 180 107 207 141 178 141 178 107 207 106 208 141 178 106 208 140 167 140 167 106 208 105 173 152 209 145 210 151 211 151 211 145 210 146 212 151 211 146 212 147 213 151 211 147 213 150 214 150 214 147 213 148 215 150 214 148 215 149 216 153 217 154 218 172 219 172 219 154 218 170 220 172 219 170 220 171 221 154 218 155 222 170 220 170 220 155 222 169 223 169 223 155 222 156 224 169 223 156 224 168 225 168 225 156 224 157 226 168 225 157 226 167 227 167 227 157 226 158 228 167 227 158 228 166 229 166 229 158 228 159 230 166 229 159 230 165 231 165 231 159 230 160 232 165 231 160 232 164 233 164 233 160 232 162 234 164 233 162 234 163 235 160 232 161 236 162 234 173 237 174 238 199 239 199 239 174 238 200 240 199 239 200 240 201 241 201 241 200 240 206 242 201 241 206 242 207 243 207 243 206 242 212 244 207 243 212 244 213 245 213 245 212 244 217 246 213 245 217 246 218 247 218 247 217 246 222 248 218 247 222 248 223 249 223 249 222 248 228 250 223 249 228 250 229 251 229 251 228 250 234 252 229 251 234 252 145 253 145 253 234 252 146 254 146 254 234 252 147 255 147 255 234 252 186 256 147 255 186 256 148 257 174 238 175 258 200 240 200 240 175 258 205 259 200 240 205 259 206 242 206 242 205 259 211 260 206 242 211 260 212 244 212 244 211 260 216 261 212 244 216 261 217 246 217 246 216 261 221 262 217 246 221 262 222 248 222 248 221 262 227 263 222 248 227 263 228 250 228 250 227 263 233 264 228 250 233 264 234 252 234 252 233 264 185 265 234 252 185 265 186 256 175 258 176 266 205 259 205 259 176 266 210 267 205 259 210 267 211 260 211 260 210 267 215 268 211 260 215 268 216 261 216 261 215 268 220 269 216 261 220 269 221 262 221 262 220 269 226 270 221 262 226 270 227 263 227 263 226 270 232 271 227 263 232 271 233 264 233 264 232 271 184 272 233 264 184 272 185 265 176 266 177 273 210 267 210 267 177 273 215 268 177 273 178 274 215 268 215 268 178 274 220 269 178 274 179 275 220 269 220 269 179 275 225 276 220 269 225 276 226 270 226 270 225 276 231 277 226 270 231 277 232 271 232 271 231 277 183 278 232 271 183 278 184 272 179 275 180 279 225 276 225 276 180 279 230 280 225 276 230 280 231 277 231 277 230 280 182 281 231 277 182 281 183 278 180 279 181 282 230 280 230 280 181 282 182 281 145 253 187 283 229 251 229 251 187 283 224 284 229 251 224 284 223 249 223 249 224 284 219 285 223 249 219 285 218 247 218 247 219 285 214 286 218 247 214 286 213 245 213 245 214 286 208 287 213 245 208 287 207 243 207 243 208 287 202 288 207 243 202 288 201 241 201 241 202 288 198 289 201 241 198 289 199 239 187 283 188 290 224 284 224 284 188 290 219 285 188 290 189 291 219 285 219 285 189 291 190 292 219 285 190 292 214 286 214 286 190 292 191 293 214 286 191 293 209 294 209 294 191 293 192 295 209 294 192 295 204 296 204 296 192 295 193 297 204 296 193 297 195 298 195 298 193 297 194 299 195 298 196 300 204 296 204 296 196 300 203 301 204 296 203 301 209 294 209 294 203 301 208 287 209 294 208 287 214 286 196 300 197 302 203 301 203 301 197 302 202 288 203 301 202 288 208 287 197 302 198 289 202 288 235 303 236 304 251 305 251 305 236 304 252 306 251 305 252 306 253 307 253 307 252 306 257 308 253 307 257 308 258 309 258 309 257 308 262 310 258 309 262 310 263 311 263 311 262 310 267 312 263 311 267 312 157 313 157 313 267 312 271 314 157 313 271 314 158 315 158 315 271 314 275 316 158 315 275 316 159 317 159 317 275 316 279 318 159 317 279 318 160 319 160 319 279 318 161 320 161 320 279 318 247 321 247 321 279 318 278 322 247 321 278 322 246 323 246 323 278 322 277 324 246 323 277 324 245 325 245 325 277 324 244 326 244 326 277 324 276 327 244 326 276 327 243 328 243 328 276 327 242 329 242 329 276 327 272 330 242 329 272 330 241 331 241 331 272 330 268 332 241 331 268 332 240 333 240 333 268 332 264 334 240 333 264 334 239 335 239 335 264 334 238 336 238 336 264 334 260 337 238 336 260 337 237 338 237 338 260 337 256 339 237 338 256 339 236 304 236 304 256 339 252 306 157 313 156 340 263 311 263 311 156 340 259 341 263 311 259 341 258 309 258 309 259 341 254 342 258 309 254 342 253 307 253 307 254 342 250 343 253 307 250 343 251 305 156 340 155 344 259 341 259 341 155 344 255 345 259 341 255 345 254 342 254 342 255 345 249 346 254 342 249 346 250 343 155 344 154 347 255 345 255 345 154 347 248 348 255 345 248 348 249 346 154 347 153 349 248 348 278 322 279 318 275 316 257 308 252 306 256 339 257 308 256 339 261 350 261 350 256 339 260 337 261 350 260 337 265 351 265 351 260 337 264 334 265 351 264 334 268 332 257 308 261 350 262 310 262 310 261 350 266 352 262 310 266 352 267 312 267 312 266 352 270 353 267 312 270 353 271 314 271 314 270 353 274 354 271 314 274 354 275 316 275 316 274 354 278 322 266 352 261 350 265 351 266 352 265 351 269 355 269 355 265 351 268 332 269 355 268 332 272 330 266 352 269 355 270 353 270 353 269 355 273 356 270 353 273 356 274 354 274 354 273 356 277 324 274 354 277 324 278 322 273 356 269 355 272 330 277 324 273 356 276 327 276 327 273 356 272 330 312 357 280 358 317 359 317 359 280 358 281 360 317 359 281 360 316 361 316 361 281 360 282 362 316 361 282 362 315 363 315 363 282 362 283 364 315 363 283 364 314 365 314 365 283 364 284 366 314 365 284 366 313 367 313 367 284 366 285 368 313 367 285 368 287 369 287 369 285 368 286 370 287 369 288 371 313 367 313 367 288 371 318 372 313 367 318 372 314 365 314 365 318 372 319 373 314 365 319 373 315 363 315 363 319 373 320 374 315 363 320 374 316 361 316 361 320 374 321 375 316 361 321 375 317 359 317 359 321 375 322 376 317 359 322 376 312 357 312 357 322 376 311 377 311 377 322 376 327 378 311 377 327 378 310 379 310 379 327 378 332 380 310 379 332 380 309 381 309 381 332 380 337 382 309 381 337 382 308 383 308 383 337 382 307 384 307 384 337 382 342 385 307 384 342 385 305 386 305 386 342 385 304 387 304 387 342 385 341 388 304 387 341 388 303 389 303 389 341 388 340 390 303 389 340 390 302 391 302 391 340 390 339 392 302 391 339 392 301 393 301 393 339 392 300 394 300 394 339 392 338 395 300 394 338 395 299 396 299 396 338 395 292 397 299 396 292 397 298 398 298 398 292 397 297 399 297 399 292 397 296 400 296 400 292 397 295 401 295 401 292 397 293 402 295 401 293 402 294 403 288 371 289 404 318 372 318 372 289 404 323 405 318 372 323 405 319 373 319 373 323 405 324 406 319 373 324 406 320 374 320 374 324 406 325 407 320 374 325 407 321 375 321 375 325 407 326 408 321 375 326 408 322 376 322 376 326 408 327 378 289 404 290 409 323 405 323 405 290 409 328 410 323 405 328 410 324 406 324 406 328 410 329 411 324 406 329 411 325 407 325 407 329 411 330 412 325 407 330 412 326 408 326 408 330 412 331 413 326 408 331 413 327 378 327 378 331 413 332 380 290 409 291 414 328 410 328 410 291 414 333 415 328 410 333 415 329 411 329 411 333 415 334 416 329 411 334 416 330 412 330 412 334 416 335 417 330 412 335 417 331 413 331 413 335 417 336 418 331 413 336 418 332 380 332 380 336 418 337 382 291 414 292 397 333 415 333 415 292 397 338 395 333 415 338 395 334 416 334 416 338 395 339 392 334 416 339 392 335 417 335 417 339 392 340 390 335 417 340 390 336 418 336 418 340 390 341 388 336 418 341 388 337 382 337 382 341 388 342 385 305 386 306 419 307 384 360 420 343 421 359 422 359 422 343 421 344 423 359 422 344 423 358 424 358 424 344 423 345 425 358 424 345 425 357 426 357 426 345 425 346 427 357 426 346 427 356 428 356 428 346 427 347 429 356 428 347 429 355 430 355 430 347 429 348 431 355 430 348 431 354 432 354 432 348 431 349 433 354 432 349 433 353 434 353 434 349 433 350 435 353 434 350 435 352 436 352 436 350 435 351 437 374 438 361 439 373 440 373 440 361 439 362 441 373 440 362 441 372 442 372 442 362 441 363 443 372 442 363 443 371 444 371 444 363 443 364 445 371 444 364 445 370 446 370 446 364 445 365 447 370 446 365 447 369 448 369 448 365 447 366 449 369 448 366 449 368 450 368 450 366 449 367 451 376 452 422 453 375 454 375 454 422 453 399 455 375 454 399 455 398 456 398 456 399 455 400 457 398 456 400 457 397 458 397 458 400 457 401 459 397 458 401 459 396 460 396 460 401 459 402 461 396 460 402 461 395 462 395 462 402 461 403 463 395 462 403 463 394 464 394 464 403 463 404 465 394 464 404 465 393 466 393 466 404 465 405 467 393 466 405 467 392 468 392 468 405 467 406 469 392 468 406 469 391 470 391 470 406 469 407 471 391 470 407 471 390 472 390 472 407 471 408 473 390 472 408 473 389 474 389 474 408 473 409 475 389 474 409 475 388 476 388 476 409 475 410 477 388 476 410 477 387 478 387 478 410 477 411 479 387 478 411 479 386 480 386 480 411 479 412 481 386 480 412 481 385 482 385 482 412 481 413 483 385 482 413 483 384 484 384 484 413 483 414 485 384 484 414 485 383 486 383 486 414 485 415 487 383 486 415 487 382 488 382 488 415 487 416 489 382 488 416 489 381 490 381 490 416 489 417 491 381 490 417 491 380 492 380 492 417 491 418 493 380 492 418 493 379 494 379 494 418 493 419 495 379 494 419 495 378 496 378 496 419 495 420 497 378 496 420 497 377 498 377 498 420 497 421 499 377 498 421 499 376 452 376 452 421 499 422 453 424 500 458 501 423 502 423 502 458 501 459 503 423 502 459 503 446 504 446 504 459 503 460 505 446 504 460 505 445 506 445 506 460 505 461 507 445 506 461 507 444 508 444 508 461 507 462 509 444 508 462 509 443 510 443 510 462 509 463 511 443 510 463 511 442 512 442 512 463 511 464 513 442 512 464 513 441 514 441 514 464 513 465 515 441 514 465 515 440 516 440 516 465 515 466 517 440 516 466 517 439 518 439 518 466 517 467 519 439 518 467 519 438 520 438 520 467 519 468 521 438 520 468 521 437 522 437 522 468 521 469 523 437 522 469 523 436 524 436 524 469 523 470 525 436 524 470 525 435 526 435 526 470 525 447 527 435 526 447 527 434 528 434 528 447 527 448 529 434 528 448 529 433 530 433 530 448 529 449 531 433 530 449 531 432 532 432 532 449 531 450 533 432 532 450 533 431 534 431 534 450 533 451 535 431 534 451 535 430 536 430 536 451 535 452 537 430 536 452 537 429 538 429 538 452 537 453 539 429 538 453 539 428 540 428 540 453 539 454 541 428 540 454 541 427 542 427 542 454 541 455 543 427 542 455 543 426 544 426 544 455 543 456 545 426 544 456 545 425 546 425 546 456 545 457 547 425 546 457 547 424 500 424 500 457 547 458 501 472 548 518 549 471 550 471 550 518 549 495 551 471 550 495 551 496 552 518 549 472 548 517 553 517 553 472 548 473 554 517 553 473 554 516 555 516 555 473 554 474 556 516 555 474 556 515 557 515 557 474 556 475 558 515 557 475 558 514 559 514 559 475 558 476 560 514 559 476 560 513 561 513 561 476 560 477 562 513 561 477 562 512 563 512 563 477 562 478 564 512 563 478 564 511 565 511 565 478 564 479 566 511 565 479 566 510 567 510 567 479 566 480 568 510 567 480 568 509 569 509 569 480 568 481 570 509 569 481 570 508 571 508 571 481 570 482 572 508 571 482 572 507 573 507 573 482 572 483 574 507 573 483 574 506 575 506 575 483 574 484 576 506 575 484 576 505 577 505 577 484 576 485 578 505 577 485 578 504 579 504 579 485 578 486 580 504 579 486 580 503 581 503 581 486 580 487 582 503 581 487 582 502 583 502 583 487 582 488 584 502 583 488 584 501 585 501 585 488 584 489 586 501 585 489 586 500 587 500 587 489 586 490 588 500 587 490 588 499 589 499 589 490 588 491 590 499 589 491 590 498 591 498 591 491 590 492 592 498 591 492 592 497 593 497 593 492 592 493 594 497 593 493 594 496 552 496 552 493 594 494 595 496 552 494 595 471 550 12 596 280 597 13 598 13 598 280 597 312 599 13 598 312 599 14 600 14 600 312 599 311 601 14 600 311 601 15 602 15 602 311 601 16 603 16 603 311 601 310 604 16 603 310 604 89 605 89 605 310 604 309 606 89 605 309 606 90 607 90 607 309 606 308 608 90 607 308 608 138 609 138 609 308 608 307 610 138 609 307 610 75 611 75 611 307 610 76 612 76 612 307 610 77 613 77 613 307 610 78 614 78 614 307 610 306 615 78 614 306 615 79 616 79 616 306 615 80 617 80 617 306 615 43 618 520 619 525 620 519 621 519 621 525 620 526 622 519 621 526 622 527 623 527 623 526 622 532 624 527 623 532 624 533 625 533 625 532 624 538 626 533 625 538 626 539 627 539 627 538 626 544 628 539 627 544 628 10 629 10 629 544 628 11 630 11 630 544 628 12 631 12 631 544 628 543 632 12 631 543 632 542 633 542 633 543 632 537 634 542 633 537 634 536 635 536 635 537 634 531 636 536 635 531 636 530 637 530 637 531 636 525 620 530 637 525 620 520 619 520 619 521 638 530 637 530 637 521 638 535 639 530 637 535 639 536 635 536 635 535 639 541 640 536 635 541 640 542 633 542 633 541 640 524 641 542 633 524 641 12 631 521 638 522 642 535 639 535 639 522 642 540 643 535 639 540 643 541 640 541 640 540 643 524 641 522 642 523 644 540 643 540 643 523 644 524 641 10 629 9 645 539 627 539 627 9 645 8 646 539 627 8 646 534 647 534 647 8 646 7 648 534 647 7 648 6 649 534 647 6 649 529 650 529 650 6 649 5 651 529 650 5 651 4 652 519 621 527 623 4 652 4 652 527 623 528 653 4 652 528 653 529 650 529 650 528 653 534 647 532 624 526 622 531 636 531 636 526 622 525 620 534 647 528 653 533 625 533 625 528 653 527 623 538 626 532 624 537 634 537 634 532 624 531 636 539 627 534 647 533 625 544 628 538 626 543 632 543 632 538 626 537 634 194 654 306 655 195 656 195 656 306 655 557 657 195 656 557 657 196 658 196 658 557 657 570 659 196 658 570 659 197 660 197 660 570 659 583 661 197 660 583 661 198 662 198 662 583 661 596 663 198 662 596 663 199 664 199 664 596 663 609 665 199 664 609 665 173 666 173 666 609 665 608 667 173 666 608 667 607 668 607 668 608 667 594 669 607 668 594 669 593 670 593 670 594 669 580 671 593 670 580 671 579 672 579 672 580 671 566 673 579 672 566 673 565 674 565 674 566 673 552 675 565 674 552 675 551 676 551 676 552 675 306 655 551 676 306 655 550 677 550 677 306 655 549 678 550 677 549 678 563 679 563 679 549 678 562 680 563 679 562 680 576 681 576 681 562 680 575 682 576 681 575 682 589 683 589 683 575 682 588 684 589 683 588 684 602 685 602 685 588 684 601 686 602 685 601 686 293 687 293 687 601 686 600 688 293 687 600 688 599 689 599 689 600 688 586 690 599 689 586 690 585 691 585 691 586 690 572 692 585 691 572 692 571 693 571 693 572 692 558 694 571 693 558 694 303 695 303 695 558 694 304 696 304 696 558 694 545 697 304 696 545 697 305 698 305 698 545 697 306 655 306 655 545 697 546 699 306 655 546 699 547 700 547 700 546 699 560 701 547 700 560 701 561 702 561 702 560 701 574 703 561 702 574 703 575 682 575 682 574 703 588 684 303 695 302 704 571 693 571 693 302 704 584 705 571 693 584 705 585 691 585 691 584 705 598 706 585 691 598 706 599 689 599 689 598 706 293 687 302 704 301 707 584 705 584 705 301 707 300 708 584 705 300 708 597 709 597 709 300 708 299 710 597 709 299 710 298 711 298 711 297 712 597 709 597 709 297 712 294 713 597 709 294 713 293 687 297 712 296 714 294 713 294 713 296 714 295 715 602 685 293 687 603 716 603 716 293 687 173 666 603 716 173 666 604 717 604 717 173 666 605 718 604 717 605 718 591 719 591 719 605 718 592 720 591 719 592 720 578 721 578 721 592 720 579 672 578 721 579 672 565 674 546 699 545 697 559 722 559 722 545 697 558 694 559 722 558 694 572 692 549 678 306 655 548 723 548 723 306 655 547 700 548 723 547 700 561 702 562 680 549 678 548 723 562 680 548 723 561 702 551 676 550 677 564 724 564 724 550 677 563 679 564 724 563 679 577 725 577 725 563 679 576 681 577 725 576 681 590 726 590 726 576 681 589 683 590 726 589 683 603 716 603 716 589 683 602 685 552 675 553 727 306 655 306 655 553 727 554 728 306 655 554 728 555 729 555 729 554 728 568 730 555 729 568 730 569 731 569 731 568 730 582 732 569 731 582 732 583 661 583 661 582 732 596 663 552 675 566 673 553 727 553 727 566 673 567 733 553 727 567 733 554 728 554 728 567 733 568 730 557 657 306 655 556 734 556 734 306 655 555 729 556 734 555 729 569 731 570 659 557 657 556 734 570 659 556 734 569 731 546 699 559 722 560 701 560 701 559 722 573 735 560 701 573 735 574 703 574 703 573 735 587 736 574 703 587 736 588 684 588 684 587 736 601 686 573 735 559 722 572 692 575 682 562 680 561 702 578 721 565 674 564 724 564 724 565 674 551 676 578 721 564 724 577 725 566 673 580 671 567 733 567 733 580 671 581 737 567 733 581 737 568 730 568 730 581 737 582 732 583 661 570 659 569 731 587 736 573 735 586 690 586 690 573 735 572 692 591 719 578 721 577 725 591 719 577 725 590 726 593 670 579 672 592 720 580 671 594 669 581 737 581 737 594 669 595 738 581 737 595 738 582 732 582 732 595 738 596 663 601 686 587 736 600 688 600 688 587 736 586 690 604 717 591 719 590 726 604 717 590 726 603 716 593 670 592 720 606 739 606 739 592 720 605 718 606 739 605 718 173 666 609 665 596 663 595 738 609 665 595 738 608 667 608 667 595 738 594 669 293 687 598 706 597 709 597 709 598 706 584 705 173 666 607 668 606 739 606 739 607 668 593 670 182 740 181 741 614 742 614 742 181 741 235 743 614 742 235 743 613 744 613 744 235 743 612 745 613 744 612 745 618 746 618 746 612 745 617 747 618 746 617 747 623 748 623 748 617 747 622 749 623 748 622 749 628 750 628 750 622 749 627 751 628 750 627 751 633 752 633 752 627 751 632 753 633 752 632 753 148 754 148 754 632 753 172 755 172 755 632 753 631 756 172 755 631 756 630 757 630 757 631 756 625 758 630 757 625 758 248 759 248 759 625 758 249 760 249 760 625 758 620 761 249 760 620 761 250 762 250 762 620 761 615 763 250 762 615 763 251 764 251 764 615 763 610 765 251 764 610 765 235 743 235 743 610 765 611 766 235 743 611 766 612 745 612 745 611 766 617 747 248 759 153 767 630 757 630 757 153 767 172 755 633 752 148 754 634 768 634 768 148 754 186 769 634 768 186 769 629 770 629 770 186 769 185 771 629 770 185 771 624 772 624 772 185 771 184 773 624 772 184 773 183 774 624 772 183 774 619 775 619 775 183 774 182 740 619 775 182 740 614 742 611 766 610 765 616 776 616 776 610 765 615 763 616 776 615 763 621 777 621 777 615 763 620 761 621 777 620 761 626 778 626 778 620 761 625 758 626 778 625 758 631 756 619 775 614 742 613 744 619 775 613 744 618 746 622 749 617 747 616 776 616 776 617 747 611 766 622 749 616 776 621 777 624 772 619 775 618 746 624 772 618 746 623 748 627 751 622 749 621 777 627 751 621 777 626 778 629 770 624 772 623 748 629 770 623 748 628 750 632 753 627 751 626 778 632 753 626 778 631 756 634 768 629 770 628 750 634 768 628 750 633 752 243 779 286 780 244 781 244 781 286 780 644 782 244 781 644 782 245 783 245 783 644 782 654 784 245 783 654 784 246 785 246 785 654 784 664 786 246 785 664 786 247 787 247 787 664 786 674 788 247 787 674 788 161 789 161 789 674 788 684 790 161 789 684 790 162 791 162 791 684 790 683 792 162 791 683 792 682 793 682 793 683 792 672 794 682 793 672 794 671 795 671 795 672 794 661 796 671 795 661 796 660 797 660 797 661 796 650 798 660 797 650 798 649 799 649 799 650 798 639 800 649 799 639 800 638 801 638 801 639 800 286 780 638 801 286 780 637 802 637 802 286 780 636 803 637 802 636 803 647 804 647 804 636 803 646 805 647 804 646 805 657 806 657 806 646 805 656 807 657 806 656 807 667 808 667 808 656 807 666 809 667 808 666 809 677 810 677 810 666 809 676 811 677 810 676 811 162 791 162 791 676 811 675 812 162 791 675 812 281 813 281 813 675 812 282 814 282 814 675 812 665 815 282 814 665 815 283 816 283 816 665 815 655 817 283 816 655 817 284 818 284 818 655 817 645 819 284 818 645 819 285 820 285 820 645 819 635 821 285 820 635 821 286 780 286 780 635 821 636 803 281 813 280 822 162 791 646 805 636 803 635 821 646 805 635 821 645 819 638 801 637 802 648 823 648 823 637 802 647 804 648 823 647 804 658 824 658 824 647 804 657 806 658 824 657 806 668 825 668 825 657 806 667 808 668 825 667 808 678 826 678 826 667 808 677 810 678 826 677 810 162 791 639 800 640 827 286 780 286 780 640 827 641 828 286 780 641 828 642 829 642 829 641 828 652 830 642 829 652 830 653 831 653 831 652 830 663 832 653 831 663 832 664 786 664 786 663 832 674 788 639 800 650 798 640 827 640 827 650 798 651 833 640 827 651 833 641 828 641 828 651 833 652 830 644 782 286 780 643 834 643 834 286 780 642 829 643 834 642 829 653 831 654 784 644 782 643 834 654 784 643 834 653 831 656 807 646 805 645 819 656 807 645 819 655 817 638 801 648 823 649 799 649 799 648 823 659 835 649 799 659 835 660 797 660 797 659 835 670 836 660 797 670 836 671 795 671 795 670 836 681 837 671 795 681 837 682 793 682 793 681 837 162 791 659 835 648 823 658 824 650 798 661 796 651 833 651 833 661 796 662 838 651 833 662 838 652 830 652 830 662 838 663 832 664 786 654 784 653 831 666 809 656 807 655 817 666 809 655 817 665 815 659 835 658 824 669 839 669 839 658 824 668 825 669 839 668 825 679 840 679 840 668 825 678 826 679 840 678 826 162 791 661 796 672 794 662 838 662 838 672 794 673 841 662 838 673 841 663 832 663 832 673 841 674 788 676 811 666 809 665 815 676 811 665 815 675 812 659 835 669 839 670 836 670 836 669 839 680 842 670 836 680 842 681 837 681 837 680 842 162 791 680 842 669 839 679 840 684 790 674 788 673 841 684 790 673 841 683 792 683 792 673 841 672 794 162 791 680 842 679 840 53 843 51 844 685 845 685 845 51 844 50 846 685 845 50 846 49 847 53 843 52 848 51 844 685 845 49 847 686 849 686 849 49 847 48 850 686 849 48 850 47 851 47 851 46 852 686 849 519 853 4 854 687 855 687 855 4 854 685 856 685 856 4 854 53 857 53 857 4 854 3 858 53 857 3 858 54 859 54 859 3 858 55 860 55 860 3 858 56 861 56 861 3 858 57 862 57 862 3 858 116 863 116 863 3 858 1 864 116 863 1 864 117 865 117 865 1 864 118 866 118 866 1 864 119 867 119 867 1 864 0 868 3 858 2 869 1 864 688 870 687 871 686 872 686 872 687 871 685 873 45 874 689 875 46 876 46 876 689 875 686 877 686 877 689 875 688 878 688 878 689 875 690 879 373 880 691 881 374 882 374 882 691 881 343 421 374 882 343 421 360 420 373 880 372 883 691 881 691 881 372 883 371 884 691 881 371 884 370 885 370 885 369 886 691 881 691 881 369 886 368 887 691 881 368 887 690 888 690 888 689 889 691 881 171 890 352 891 149 892 149 892 352 891 152 893 149 892 152 893 151 894 352 891 171 890 353 895 353 895 171 890 170 896 353 895 170 896 354 897 354 897 170 896 169 898 354 897 169 898 355 899 355 899 169 898 168 900 355 899 168 900 356 901 356 901 168 900 167 902 356 901 167 902 166 903 356 901 166 903 357 904 357 904 166 903 165 905 357 904 165 905 358 906 358 906 165 905 164 907 358 906 164 907 359 908 359 908 164 907 163 909 359 908 163 909 360 910 360 910 163 909 361 439 360 910 361 439 374 438 151 894 150 911 149 892 306 912 447 913 691 914 691 914 447 913 470 915 691 914 470 915 469 916 194 917 455 918 306 912 306 912 455 918 454 919 306 912 454 919 453 920 193 921 192 922 194 917 194 917 192 922 501 923 194 917 501 923 500 924 192 922 191 925 501 923 501 923 191 925 190 926 501 923 190 926 189 927 501 923 189 927 502 928 502 928 189 927 188 929 502 928 188 929 503 930 503 930 188 929 504 931 504 931 188 929 187 932 504 931 187 932 505 933 505 933 187 932 506 934 506 934 187 932 507 935 507 935 187 932 145 936 507 935 145 936 508 937 508 937 145 936 509 938 509 938 145 936 510 939 510 939 145 936 511 940 511 940 145 936 512 941 512 941 145 936 513 942 513 942 145 936 408 943 513 942 408 943 407 944 145 936 351 945 408 943 408 943 351 945 409 946 409 946 351 945 410 947 410 947 351 945 411 948 411 948 351 945 412 949 412 949 351 945 413 950 413 950 351 945 414 951 414 951 351 945 415 952 415 952 351 945 416 953 416 953 351 945 350 954 416 953 350 954 417 955 417 955 350 954 349 956 417 955 349 956 343 957 343 957 349 956 348 958 343 957 348 958 344 959 344 959 348 958 347 960 344 959 347 960 345 961 345 961 347 960 346 962 691 914 400 963 343 957 343 957 400 963 399 964 343 957 399 964 422 965 518 966 461 967 495 968 495 968 461 967 460 969 495 968 460 969 496 970 496 970 460 969 459 971 496 970 459 971 497 972 497 972 459 971 458 973 497 972 458 973 194 917 194 917 458 973 457 974 194 917 457 974 456 975 518 966 517 976 461 967 461 967 517 976 462 977 462 977 517 976 404 978 462 977 404 978 463 979 463 979 404 978 403 980 463 979 403 980 691 914 691 914 403 980 402 981 691 914 402 981 401 982 517 976 516 983 404 978 404 978 516 983 405 984 405 984 516 983 515 985 405 984 515 985 514 986 405 984 514 986 406 987 406 987 514 986 513 942 406 987 513 942 407 944 500 924 499 988 194 917 194 917 499 988 498 989 194 917 498 989 497 972 422 965 421 990 343 957 343 957 421 990 420 991 343 957 420 991 419 992 419 992 418 993 343 957 343 957 418 993 417 955 401 982 400 963 691 914 469 916 468 994 691 914 691 914 468 994 467 995 691 914 467 995 466 996 466 996 465 997 691 914 691 914 465 997 464 998 691 914 464 998 463 979 456 975 455 918 194 917 453 920 452 999 306 912 306 912 452 999 451 1000 306 912 451 1000 450 1001 450 1001 449 1002 306 912 306 912 449 1002 448 1003 306 912 448 1003 447 913 145 1004 152 1005 351 437 351 437 152 1005 352 436 306 1006 689 1007 43 1008 43 1008 689 1007 45 1009 43 1008 45 1009 44 1010 306 1006 691 1011 689 1007 163 235 162 1012 361 1013 361 1013 162 1012 280 1014 361 1013 280 1014 362 1015 362 1015 280 1014 363 1016 363 1016 280 1014 364 1017 364 1017 280 1014 365 1018 365 1018 280 1014 366 1019 366 1019 280 1014 367 1020 367 1020 280 1014 524 641 524 641 280 1014 12 1021 524 1022 521 1023 367 451 367 451 521 1023 690 1024 367 451 690 1024 368 450 523 1025 522 1026 524 1022 524 1022 522 1026 521 1023 521 1023 520 1027 690 1024 690 1024 520 1027 519 1028 690 1024 519 1028 688 1029 688 1029 519 1028 687 1030 148 1031 172 1032 149 216 149 216 172 1032 171 221 293 1033 427 1034 173 1035 173 1035 427 1034 426 1036 173 1035 426 1036 425 1037 292 1038 429 1039 293 1033 293 1033 429 1039 428 1040 293 1033 428 1040 427 1034 291 1041 431 1042 292 1038 292 1038 431 1042 430 1043 292 1038 430 1043 429 1039 290 1044 433 1045 291 1041 291 1041 433 1045 432 1046 291 1041 432 1046 431 1042 289 1047 436 1048 290 1044 290 1044 436 1048 435 1049 290 1044 435 1049 434 1050 288 1051 439 1052 289 1047 289 1047 439 1052 438 1053 289 1047 438 1053 437 1054 439 1052 288 1051 440 1055 440 1055 288 1051 287 1056 440 1055 287 1056 441 1057 441 1057 287 1056 286 1058 441 1057 286 1058 442 1059 442 1059 286 1058 443 1060 443 1060 286 1058 444 1061 444 1061 286 1058 394 1062 444 1061 394 1062 473 1063 473 1063 394 1062 474 1064 474 1064 394 1062 393 1065 474 1064 393 1065 475 1066 475 1066 393 1065 476 1067 476 1067 393 1065 392 1068 476 1067 392 1068 181 1069 181 1069 392 1068 391 1070 181 1069 391 1070 390 1071 243 1072 375 1073 286 1058 286 1058 375 1073 398 1074 286 1058 398 1074 397 1075 242 1076 238 1077 243 1072 243 1072 238 1077 237 1078 243 1072 237 1078 236 1079 238 1077 242 1076 239 1080 239 1080 242 1076 241 1081 239 1080 241 1081 240 1082 243 1072 236 1079 381 1083 381 1083 236 1079 235 1084 381 1083 235 1084 382 1085 382 1085 235 1084 383 1086 383 1086 235 1084 384 1087 384 1087 235 1084 385 1088 385 1088 235 1084 386 1089 386 1089 235 1084 387 1090 387 1090 235 1084 388 1091 388 1091 235 1084 389 1092 389 1092 235 1084 181 1069 389 1092 181 1069 390 1071 180 1093 479 1094 181 1069 181 1069 479 1094 478 1095 181 1069 478 1095 477 1096 179 1097 481 1098 180 1093 180 1093 481 1098 480 1099 180 1093 480 1099 479 1094 178 1100 485 1101 179 1097 179 1097 485 1101 484 1102 179 1097 484 1102 483 1103 177 1104 488 1105 178 1100 178 1100 488 1105 487 1106 178 1100 487 1106 486 1107 488 1105 177 1104 489 1108 489 1108 177 1104 176 1109 489 1108 176 1109 175 1110 175 1110 174 1111 489 1108 489 1108 174 1111 173 1035 489 1108 173 1035 490 1112 490 1112 173 1035 491 1113 491 1113 173 1035 492 1114 492 1114 173 1035 493 1115 493 1115 173 1035 424 1116 493 1115 424 1116 423 1117 397 1075 396 1118 286 1058 286 1058 396 1118 395 1119 286 1058 395 1119 394 1062 381 1083 380 1120 243 1072 243 1072 380 1120 379 1121 243 1072 379 1121 378 1122 378 1122 377 1123 243 1072 243 1072 377 1123 376 1124 243 1072 376 1124 375 1073 493 1115 423 1117 494 1125 494 1125 423 1117 446 1126 494 1125 446 1126 471 1127 471 1127 446 1126 445 1128 471 1127 445 1128 472 1129 472 1129 445 1128 444 1061 472 1129 444 1061 473 1063 437 1054 436 1048 289 1047 434 1050 433 1045 290 1044 425 1037 424 1116 173 1035 486 1107 485 1101 178 1100 483 1103 482 1130 179 1097 179 1097 482 1130 481 1098 477 1096 476 1067 181 1069</p>
        </triangles>
      </mesh>
    </geometry>
  </library_geometries>
  <library_visual_scenes>
    <visual_scene id="Scene" name="Scene">
      <node id="FootCoverRight-node" name="FootCoverRight" type="NODE">
        <instance_geometry url="#FootCoverRight-mesh">
          <bind_material>
            <technique_common>
              <instance_material symbol="Powder_Coat__Green_" target="#Powder_Coat__Green_"/>
            </technique_common>
          </bind_material>
        </instance_geometry>
      </node>
    </visual_scene>
  </library_visual_scenes>
  <scene>
    <instance_visual_scene url="#Scene"/>
  </scene>
</COLLADA>
