<?xml version="1.0" encoding="utf-8"?>
<COLLADA xmlns="http://www.collada.org/2005/11/COLLADASchema" version="1.4.1">
  <asset>
    <contributor>
      <authoring_tool>Fusion URDF/XACRO Exporter</authoring_tool>
    </contributor>
    <created>2026-06-07T18:57:41Z</created>
    <modified>2026-06-07T18:57:41Z</modified>
    <unit name="meter" meter="1.0"/>
    <up_axis>Z_UP</up_axis>
  </asset>
  <library_effects>
    <effect id="Aluminum_-_Polished-effect">
      <profile_COMMON>
        <technique sid="common">
          <lambert>
            <emission><color>0 0 0 1</color></emission>
            <ambient><color>0.0000 0.0000 0.0000 1</color></ambient>
            <diffuse><color>0.9608 0.9608 0.9647 1</color></diffuse>
            <reflective><color>0 0 0 1</color></reflective>
            <transparent opaque="A_ONE"><color>1 1 1 1</color></transparent>
            <transparency><float>1</float></transparency>
          </lambert>
        </technique>
      </profile_COMMON>
    </effect>
  </library_effects>
  <library_materials>
    <material id="Aluminum_-_Polished" name="Aluminum_-_Polished">
      <instance_effect url="#Aluminum_-_Polished-effect"/>
    </material>
  </library_materials>
  <library_geometries>
    <geometry id="HipRollMountRight-mesh" name="HipRollMountRight">
      <mesh>
        <source id="HipRollMountRight-mesh-positions">
          <float_array id="HipRollMountRight-mesh-positions-array" count="2046">0.071250 0.023500 -0.039500 0.071182 0.023500 -0.038982 0.070982 0.023500 -0.038500 0.070664 0.023500 -0.038086 0.070250 0.023500 -0.037768 0.069768 0.023500 -0.037568 0.069250 0.023500 -0.037500 0.069250 -0.023500 -0.037500 0.069768 -0.023500 -0.037568 0.070250 -0.023500 -0.037768 0.070664 -0.023500 -0.038086 0.070982 -0.023500 -0.038500 0.071182 -0.023500 -0.038982 0.071250 -0.023500 -0.039500 0.071182 0.014100 -0.038982 0.071182 0.004700 -0.038982 0.071182 -0.004700 -0.038982 0.071182 -0.014100 -0.038982 0.070982 0.014100 -0.038500 0.070982 0.004700 -0.038500 0.070982 -0.004700 -0.038500 0.070982 -0.014100 -0.038500 0.070664 0.014100 -0.038086 0.070664 0.004700 -0.038086 0.070664 -0.004700 -0.038086 0.070664 -0.014100 -0.038086 0.070250 0.014100 -0.037768 0.070250 0.004700 -0.037768 0.070250 -0.004700 -0.037768 0.070250 -0.014100 -0.037768 0.069768 0.014100 -0.037568 0.069768 0.004700 -0.037568 0.069768 -0.004700 -0.037568 0.069768 -0.014100 -0.037568 0.071250 -0.011046 -0.066183 0.071250 -0.011118 -0.066726 0.071250 -0.011328 -0.067233 0.071250 -0.011661 -0.067667 0.071250 -0.012096 -0.068001 0.071250 -0.012603 -0.068211 0.071250 -0.013146 -0.068282 0.071250 -0.013690 -0.068211 0.071250 -0.014196 -0.068001 0.071250 -0.014631 -0.067667 0.071250 -0.014965 -0.067233 0.071250 -0.015175 -0.066726 0.071250 -0.015246 -0.066183 0.071250 -0.015175 -0.065639 0.071250 -0.014965 -0.065133 0.071250 -0.014631 -0.064698 0.071250 -0.014196 -0.064364 0.071250 -0.013690 -0.064154 0.071250 -0.013146 -0.064083 0.071250 -0.012603 -0.064154 0.071250 -0.012096 -0.064364 0.071250 -0.011661 -0.064698 0.071250 -0.011328 -0.065133 0.071250 -0.011118 -0.065639 0.071250 -0.011046 -0.051002 0.071250 -0.011118 -0.051546 0.071250 -0.011328 -0.052053 0.071250 -0.011661 -0.052487 0.071250 -0.012096 -0.052821 0.071250 -0.012603 -0.053031 0.071250 -0.013146 -0.053102 0.071250 -0.013690 -0.053031 0.071250 -0.014196 -0.052821 0.071250 -0.014631 -0.052487 0.071250 -0.014965 -0.052053 0.071250 -0.015175 -0.051546 0.071250 -0.015246 -0.051002 0.071250 -0.015175 -0.050459 0.071250 -0.014965 -0.049953 0.071250 -0.014631 -0.049518 0.071250 -0.014196 -0.049184 0.071250 -0.013690 -0.048974 0.071250 -0.013146 -0.048903 0.071250 -0.012603 -0.048974 0.071250 -0.012096 -0.049184 0.071250 -0.011661 -0.049518 0.071250 -0.011328 -0.049953 0.071250 -0.011118 -0.050459 0.071250 0.002100 -0.073773 0.071250 0.002028 -0.074316 0.071250 0.001819 -0.074823 0.071250 0.001485 -0.075257 0.071250 0.001050 -0.075591 0.071250 0.000544 -0.075801 0.071250 0.000000 -0.075872 0.071250 -0.000544 -0.075801 0.071250 -0.001050 -0.075591 0.071250 -0.001485 -0.075257 0.071250 -0.001819 -0.074823 0.071250 -0.002028 -0.074316 0.071250 -0.002100 -0.073773 0.071250 -0.002028 -0.073229 0.071250 -0.001819 -0.072722 0.071250 -0.001485 -0.072288 0.071250 -0.001050 -0.071954 0.071250 -0.000544 -0.071744 0.071250 0.000000 -0.071673 0.071250 0.000544 -0.071744 0.071250 0.001050 -0.071954 0.071250 0.001485 -0.072288 0.071250 0.001819 -0.072722 0.071250 0.002028 -0.073229 0.071250 0.015246 -0.051002 0.071250 0.015175 -0.051546 0.071250 0.014965 -0.052053 0.071250 0.014631 -0.052487 0.071250 0.014196 -0.052821 0.071250 0.013690 -0.053031 0.071250 0.013146 -0.053102 0.071250 0.012603 -0.053031 0.071250 0.012096 -0.052821 0.071250 0.011661 -0.052487 0.071250 0.011328 -0.052053 0.071250 0.011118 -0.051546 0.071250 0.011046 -0.051002 0.071250 0.011118 -0.050459 0.071250 0.011328 -0.049953 0.071250 0.011661 -0.049518 0.071250 0.012096 -0.049184 0.071250 0.012603 -0.048974 0.071250 0.013146 -0.048903 0.071250 0.013690 -0.048974 0.071250 0.014196 -0.049184 0.071250 0.014631 -0.049518 0.071250 0.014965 -0.049953 0.071250 0.015175 -0.050459 0.071250 0.015246 -0.066183 0.071250 0.015175 -0.066726 0.071250 0.014965 -0.067233 0.071250 0.014631 -0.067667 0.071250 0.014196 -0.068001 0.071250 0.013690 -0.068211 0.071250 0.013146 -0.068282 0.071250 0.012603 -0.068211 0.071250 0.012096 -0.068001 0.071250 0.011661 -0.067667 0.071250 0.011328 -0.067233 0.071250 0.011118 -0.066726 0.071250 0.011046 -0.066183 0.071250 0.011118 -0.065639 0.071250 0.011328 -0.065133 0.071250 0.011661 -0.064698 0.071250 0.012096 -0.064364 0.071250 0.012603 -0.064154 0.071250 0.013146 -0.064083 0.071250 0.013690 -0.064154 0.071250 0.014196 -0.064364 0.071250 0.014631 -0.064698 0.071250 0.014965 -0.065133 0.071250 0.015175 -0.065639 0.071250 -0.023500 -0.064685 0.071250 -0.022989 -0.068567 0.071250 -0.021490 -0.072185 0.071250 -0.019107 -0.075292 0.071250 -0.016000 -0.077675 0.071250 -0.012382 -0.079174 0.071250 -0.008500 -0.079685 0.071250 0.008500 -0.079685 0.071250 0.012382 -0.079174 0.071250 0.016000 -0.077675 0.071250 0.019107 -0.075292 0.071250 0.021490 -0.072185 0.071250 0.022989 -0.068567 0.071250 0.023500 -0.064685 0.066250 0.023500 -0.064685 0.066250 0.023500 -0.044500 0.066182 0.023500 -0.043982 0.065982 0.023500 -0.043500 0.065664 0.023500 -0.043086 0.065250 0.023500 -0.042768 0.064768 0.023500 -0.042568 0.064250 0.023500 -0.042500 0.000000 0.023500 -0.042500 0.000000 0.023500 -0.037500 0.066250 -0.023500 -0.044500 0.066182 -0.023500 -0.043982 0.065982 -0.023500 -0.043500 0.065664 -0.023500 -0.043086 0.065250 -0.023500 -0.042768 0.064768 -0.023500 -0.042568 0.064250 -0.023500 -0.042500 0.066182 -0.014100 -0.043982 0.066182 -0.004700 -0.043982 0.066182 0.004700 -0.043982 0.066182 0.014100 -0.043982 0.065982 -0.014100 -0.043500 0.065982 -0.004700 -0.043500 0.065982 0.004700 -0.043500 0.065982 0.014100 -0.043500 0.065664 -0.014100 -0.043086 0.065664 -0.004700 -0.043086 0.065664 0.004700 -0.043086 0.065664 0.014100 -0.043086 0.065250 -0.014100 -0.042768 0.065250 -0.004700 -0.042768 0.065250 0.004700 -0.042768 0.065250 0.014100 -0.042768 0.064768 -0.014100 -0.042568 0.064768 -0.004700 -0.042568 0.064768 0.004700 -0.042568 0.064768 0.014100 -0.042568 0.066250 0.022989 -0.068567 0.066250 0.021490 -0.072185 0.066250 0.019107 -0.075292 0.066250 0.016000 -0.077675 0.066250 0.012382 -0.079174 0.066250 0.008500 -0.079685 0.066250 -0.008500 -0.079685 0.066250 -0.012382 -0.079174 0.066250 -0.016000 -0.077675 0.066250 -0.019107 -0.075292 0.066250 -0.021490 -0.072185 0.066250 -0.022989 -0.068567 0.066250 -0.023500 -0.064685 0.066250 -0.011046 -0.066183 0.066250 -0.011118 -0.065639 0.066250 -0.011328 -0.065133 0.066250 -0.011661 -0.064698 0.066250 -0.012096 -0.064364 0.066250 -0.012603 -0.064154 0.066250 -0.013146 -0.064083 0.066250 -0.013690 -0.064154 0.066250 -0.014196 -0.064364 0.066250 -0.014631 -0.064698 0.066250 -0.014965 -0.065133 0.066250 -0.015175 -0.065639 0.066250 -0.015246 -0.066183 0.066250 -0.015175 -0.066726 0.066250 -0.014965 -0.067233 0.066250 -0.014631 -0.067667 0.066250 -0.014196 -0.068001 0.066250 -0.013690 -0.068211 0.066250 -0.013146 -0.068282 0.066250 -0.012603 -0.068211 0.066250 -0.012096 -0.068001 0.066250 -0.011661 -0.067667 0.066250 -0.011328 -0.067233 0.066250 -0.011118 -0.066726 0.066250 -0.011046 -0.051002 0.066250 -0.011118 -0.050459 0.066250 -0.011328 -0.049953 0.066250 -0.011661 -0.049518 0.066250 -0.012096 -0.049184 0.066250 -0.012603 -0.048974 0.066250 -0.013146 -0.048903 0.066250 -0.013690 -0.048974 0.066250 -0.014196 -0.049184 0.066250 -0.014631 -0.049518 0.066250 -0.014965 -0.049953 0.066250 -0.015175 -0.050459 0.066250 -0.015246 -0.051002 0.066250 -0.015175 -0.051546 0.066250 -0.014965 -0.052053 0.066250 -0.014631 -0.052487 0.066250 -0.014196 -0.052821 0.066250 -0.013690 -0.053031 0.066250 -0.013146 -0.053102 0.066250 -0.012603 -0.053031 0.066250 -0.012096 -0.052821 0.066250 -0.011661 -0.052487 0.066250 -0.011328 -0.052053 0.066250 -0.011118 -0.051546 0.066250 0.002100 -0.073773 0.066250 0.002028 -0.073229 0.066250 0.001819 -0.072722 0.066250 0.001485 -0.072288 0.066250 0.001050 -0.071954 0.066250 0.000544 -0.071744 0.066250 0.000000 -0.071673 0.066250 -0.000544 -0.071744 0.066250 -0.001050 -0.071954 0.066250 -0.001485 -0.072288 0.066250 -0.001819 -0.072722 0.066250 -0.002028 -0.073229 0.066250 -0.002100 -0.073773 0.066250 -0.002028 -0.074316 0.066250 -0.001819 -0.074823 0.066250 -0.001485 -0.075257 0.066250 -0.001050 -0.075591 0.066250 -0.000544 -0.075801 0.066250 0.000000 -0.075872 0.066250 0.000544 -0.075801 0.066250 0.001050 -0.075591 0.066250 0.001485 -0.075257 0.066250 0.001819 -0.074823 0.066250 0.002028 -0.074316 0.066250 0.015246 -0.051002 0.066250 0.015175 -0.050459 0.066250 0.014965 -0.049953 0.066250 0.014631 -0.049518 0.066250 0.014196 -0.049184 0.066250 0.013690 -0.048974 0.066250 0.013146 -0.048903 0.066250 0.012603 -0.048974 0.066250 0.012096 -0.049184 0.066250 0.011661 -0.049518 0.066250 0.011328 -0.049953 0.066250 0.011118 -0.050459 0.066250 0.011046 -0.051002 0.066250 0.011118 -0.051546 0.066250 0.011328 -0.052053 0.066250 0.011661 -0.052487 0.066250 0.012096 -0.052821 0.066250 0.012603 -0.053031 0.066250 0.013146 -0.053102 0.066250 0.013690 -0.053031 0.066250 0.014196 -0.052821 0.066250 0.014631 -0.052487 0.066250 0.014965 -0.052053 0.066250 0.015175 -0.051546 0.066250 0.015246 -0.066183 0.066250 0.015175 -0.065639 0.066250 0.014965 -0.065133 0.066250 0.014631 -0.064698 0.066250 0.014196 -0.064364 0.066250 0.013690 -0.064154 0.066250 0.013146 -0.064083 0.066250 0.012603 -0.064154 0.066250 0.012096 -0.064364 0.066250 0.011661 -0.064698 0.066250 0.011328 -0.065133 0.066250 0.011118 -0.065639 0.066250 0.011046 -0.066183 0.066250 0.011118 -0.066726 0.066250 0.011328 -0.067233 0.066250 0.011661 -0.067667 0.066250 0.012096 -0.068001 0.066250 0.012603 -0.068211 0.066250 0.013146 -0.068282 0.066250 0.013690 -0.068211 0.066250 0.014196 -0.068001 0.066250 0.014631 -0.067667 0.066250 0.014965 -0.067233 0.066250 0.015175 -0.066726 0.000000 -0.023500 -0.037500 0.000000 -0.023500 -0.042500 0.005229 -0.022911 -0.042500 0.010196 -0.021173 -0.042500 0.014652 -0.018373 -0.042500 0.018373 -0.014652 -0.042500 0.021173 -0.010196 -0.042500 0.022911 -0.005229 -0.042500 0.023500 -0.000000 -0.042500 0.022911 0.005229 -0.042500 0.021173 0.010196 -0.042500 0.018373 0.014652 -0.042500 0.014652 0.018373 -0.042500 0.010196 0.021173 -0.042500 0.005229 0.022911 -0.042500 -0.005229 -0.022911 -0.037500 -0.010196 -0.021173 -0.037500 -0.014652 -0.018373 -0.037500 -0.018373 -0.014652 -0.037500 -0.021173 -0.010196 -0.037500 -0.022911 -0.005229 -0.037500 -0.023500 0.000000 -0.037500 -0.022911 0.005229 -0.037500 -0.021173 0.010196 -0.037500 -0.018373 0.014652 -0.037500 -0.014652 0.018373 -0.037500 -0.010196 0.021173 -0.037500 -0.005229 0.022911 -0.037500 0.023500 0.000000 -0.047500 0.022911 0.005229 -0.047500 0.021173 0.010196 -0.047500 0.018373 0.014652 -0.047500 0.014652 0.018373 -0.047500 0.010196 0.021173 -0.047500 0.005229 0.022911 -0.047500 -0.000000 0.023500 -0.047500 -0.005229 0.022911 -0.047500 -0.010196 0.021173 -0.047500 -0.014652 0.018373 -0.047500 -0.018373 0.014652 -0.047500 -0.021173 0.010196 -0.047500 -0.022911 0.005229 -0.047500 -0.023500 0.000000 -0.047500 -0.022911 -0.005229 -0.047500 -0.021173 -0.010196 -0.047500 -0.018373 -0.014652 -0.047500 -0.014652 -0.018373 -0.047500 -0.010196 -0.021173 -0.047500 -0.005229 -0.022911 -0.047500 -0.000000 -0.023500 -0.047500 0.005229 -0.022911 -0.047500 0.010196 -0.021173 -0.047500 0.014652 -0.018373 -0.047500 0.018373 -0.014652 -0.047500 0.021173 -0.010196 -0.047500 0.022911 -0.005229 -0.047500 0.002250 -0.015180 -0.047500 0.002173 -0.015762 -0.047500 0.001949 -0.016305 -0.047500 0.001591 -0.016771 -0.047500 0.001125 -0.017129 -0.047500 0.000582 -0.017353 -0.047500 0.000000 -0.017430 -0.047500 -0.000582 -0.017353 -0.047500 -0.001125 -0.017129 -0.047500 -0.001591 -0.016771 -0.047500 -0.001949 -0.016305 -0.047500 -0.002173 -0.015762 -0.047500 -0.002250 -0.015180 -0.047500 -0.002173 -0.014598 -0.047500 -0.001949 -0.014055 -0.047500 -0.001591 -0.013589 -0.047500 -0.001125 -0.013231 -0.047500 -0.000582 -0.013007 -0.047500 0.000000 -0.012930 -0.047500 0.000582 -0.013007 -0.047500 0.001125 -0.013231 -0.047500 0.001591 -0.013589 -0.047500 0.001949 -0.014055 -0.047500 0.002173 -0.014598 -0.047500 0.002250 -0.015180 -0.037500 0.002173 -0.014598 -0.037500 0.001949 -0.014055 -0.037500 0.001591 -0.013589 -0.037500 0.001125 -0.013231 -0.037500 0.000582 -0.013007 -0.037500 0.000000 -0.012930 -0.037500 -0.000582 -0.013007 -0.037500 -0.001125 -0.013231 -0.037500 -0.001591 -0.013589 -0.037500 -0.001949 -0.014055 -0.037500 -0.002173 -0.014598 -0.037500 -0.002250 -0.015180 -0.037500 -0.002173 -0.015762 -0.037500 -0.001949 -0.016305 -0.037500 -0.001591 -0.016771 -0.037500 -0.001125 -0.017129 -0.037500 -0.000582 -0.017353 -0.037500 0.000000 -0.017430 -0.037500 0.000582 -0.017353 -0.037500 0.001125 -0.017129 -0.037500 0.001591 -0.016771 -0.037500 0.001949 -0.016305 -0.037500 0.002173 -0.015762 -0.037500 -0.010896 0.007590 -0.047500 -0.010973 0.007008 -0.047500 -0.011198 0.006465 -0.047500 -0.011555 0.005999 -0.047500 -0.012021 0.005641 -0.047500 -0.012564 0.005417 -0.047500 -0.013146 0.005340 -0.047500 -0.013729 0.005417 -0.047500 -0.014271 0.005641 -0.047500 -0.014737 0.005999 -0.047500 -0.015095 0.006465 -0.047500 -0.015320 0.007008 -0.047500 -0.015396 0.007590 -0.047500 -0.015320 0.008172 -0.047500 -0.015095 0.008715 -0.047500 -0.014737 0.009181 -0.047500 -0.014271 0.009539 -0.047500 -0.013729 0.009763 -0.047500 -0.013146 0.009840 -0.047500 -0.012564 0.009763 -0.047500 -0.012021 0.009539 -0.047500 -0.011555 0.009181 -0.047500 -0.011198 0.008715 -0.047500 -0.010973 0.008172 -0.047500 -0.010896 0.007590 -0.037500 -0.010973 0.008172 -0.037500 -0.011198 0.008715 -0.037500 -0.011555 0.009181 -0.037500 -0.012021 0.009539 -0.037500 -0.012564 0.009763 -0.037500 -0.013146 0.009840 -0.037500 -0.013729 0.009763 -0.037500 -0.014271 0.009539 -0.037500 -0.014737 0.009181 -0.037500 -0.015095 0.008715 -0.037500 -0.015320 0.008172 -0.037500 -0.015396 0.007590 -0.037500 -0.015320 0.007008 -0.037500 -0.015095 0.006465 -0.037500 -0.014737 0.005999 -0.037500 -0.014271 0.005641 -0.037500 -0.013729 0.005417 -0.037500 -0.013146 0.005340 -0.037500 -0.012564 0.005417 -0.037500 -0.012021 0.005641 -0.037500 -0.011555 0.005999 -0.037500 -0.011198 0.006465 -0.037500 -0.010973 0.007008 -0.037500 0.002250 0.015180 -0.047500 0.002173 0.014598 -0.047500 0.001949 0.014055 -0.047500 0.001591 0.013589 -0.047500 0.001125 0.013231 -0.047500 0.000582 0.013007 -0.047500 -0.000000 0.012930 -0.047500 -0.000582 0.013007 -0.047500 -0.001125 0.013231 -0.047500 -0.001591 0.013589 -0.047500 -0.001949 0.014055 -0.047500 -0.002173 0.014598 -0.047500 -0.002250 0.015180 -0.047500 -0.002173 0.015762 -0.047500 -0.001949 0.016305 -0.047500 -0.001591 0.016771 -0.047500 -0.001125 0.017129 -0.047500 -0.000582 0.017353 -0.047500 -0.000000 0.017430 -0.047500 0.000582 0.017353 -0.047500 0.001125 0.017129 -0.047500 0.001591 0.016771 -0.047500 0.001949 0.016305 -0.047500 0.002173 0.015762 -0.047500 0.002250 0.015180 -0.037500 0.002173 0.015762 -0.037500 0.001949 0.016305 -0.037500 0.001591 0.016771 -0.037500 0.001125 0.017129 -0.037500 0.000582 0.017353 -0.037500 -0.000000 0.017430 -0.037500 -0.000582 0.017353 -0.037500 -0.001125 0.017129 -0.037500 -0.001591 0.016771 -0.037500 -0.001949 0.016305 -0.037500 -0.002173 0.015762 -0.037500 -0.002250 0.015180 -0.037500 -0.002173 0.014598 -0.037500 -0.001949 0.014055 -0.037500 -0.001591 0.013589 -0.037500 -0.001125 0.013231 -0.037500 -0.000582 0.013007 -0.037500 -0.000000 0.012930 -0.037500 0.000582 0.013007 -0.037500 0.001125 0.013231 -0.037500 0.001591 0.013589 -0.037500 0.001949 0.014055 -0.037500 0.002173 0.014598 -0.037500 0.015396 0.007590 -0.047500 0.015320 0.007008 -0.047500 0.015095 0.006465 -0.047500 0.014737 0.005999 -0.047500 0.014271 0.005641 -0.047500 0.013729 0.005417 -0.047500 0.013146 0.005340 -0.047500 0.012564 0.005417 -0.047500 0.012021 0.005641 -0.047500 0.011555 0.005999 -0.047500 0.011198 0.006465 -0.047500 0.010973 0.007008 -0.047500 0.010896 0.007590 -0.047500 0.010973 0.008172 -0.047500 0.011198 0.008715 -0.047500 0.011555 0.009181 -0.047500 0.012021 0.009539 -0.047500 0.012564 0.009763 -0.047500 0.013146 0.009840 -0.047500 0.013729 0.009763 -0.047500 0.014271 0.009539 -0.047500 0.014737 0.009181 -0.047500 0.015095 0.008715 -0.047500 0.015320 0.008172 -0.047500 0.015396 0.007590 -0.037500 0.015320 0.008172 -0.037500 0.015095 0.008715 -0.037500 0.014737 0.009181 -0.037500 0.014271 0.009539 -0.037500 0.013729 0.009763 -0.037500 0.013146 0.009840 -0.037500 0.012564 0.009763 -0.037500 0.012021 0.009539 -0.037500 0.011555 0.009181 -0.037500 0.011198 0.008715 -0.037500 0.010973 0.008172 -0.037500 0.010896 0.007590 -0.037500 0.010973 0.007008 -0.037500 0.011198 0.006465 -0.037500 0.011555 0.005999 -0.037500 0.012021 0.005641 -0.037500 0.012564 0.005417 -0.037500 0.013146 0.005340 -0.037500 0.013729 0.005417 -0.037500 0.014271 0.005641 -0.037500 0.014737 0.005999 -0.037500 0.015095 0.006465 -0.037500 0.015320 0.007008 -0.037500 -0.010896 -0.007590 -0.047500 -0.010973 -0.008172 -0.047500 -0.011198 -0.008715 -0.047500 -0.011555 -0.009181 -0.047500 -0.012021 -0.009539 -0.047500 -0.012564 -0.009763 -0.047500 -0.013146 -0.009840 -0.047500 -0.013729 -0.009763 -0.047500 -0.014271 -0.009539 -0.047500 -0.014737 -0.009181 -0.047500 -0.015095 -0.008715 -0.047500 -0.015320 -0.008172 -0.047500 -0.015396 -0.007590 -0.047500 -0.015320 -0.007008 -0.047500 -0.015095 -0.006465 -0.047500 -0.014737 -0.005999 -0.047500 -0.014271 -0.005641 -0.047500 -0.013729 -0.005417 -0.047500 -0.013146 -0.005340 -0.047500 -0.012564 -0.005417 -0.047500 -0.012021 -0.005641 -0.047500 -0.011555 -0.005999 -0.047500 -0.011198 -0.006465 -0.047500 -0.010973 -0.007008 -0.047500 -0.010896 -0.007590 -0.037500 -0.010973 -0.007008 -0.037500 -0.011198 -0.006465 -0.037500 -0.011555 -0.005999 -0.037500 -0.012021 -0.005641 -0.037500 -0.012564 -0.005417 -0.037500 -0.013146 -0.005340 -0.037500 -0.013729 -0.005417 -0.037500 -0.014271 -0.005641 -0.037500 -0.014737 -0.005999 -0.037500 -0.015095 -0.006465 -0.037500 -0.015320 -0.007008 -0.037500 -0.015396 -0.007590 -0.037500 -0.015320 -0.008172 -0.037500 -0.015095 -0.008715 -0.037500 -0.014737 -0.009181 -0.037500 -0.014271 -0.009539 -0.037500 -0.013729 -0.009763 -0.037500 -0.013146 -0.009840 -0.037500 -0.012564 -0.009763 -0.037500 -0.012021 -0.009539 -0.037500 -0.011555 -0.009181 -0.037500 -0.011198 -0.008715 -0.037500 -0.010973 -0.008172 -0.037500 0.015396 -0.007590 -0.047500 0.015320 -0.008172 -0.047500 0.015095 -0.008715 -0.047500 0.014737 -0.009181 -0.047500 0.014271 -0.009539 -0.047500 0.013729 -0.009763 -0.047500 0.013146 -0.009840 -0.047500 0.012564 -0.009763 -0.047500 0.012021 -0.009539 -0.047500 0.011555 -0.009181 -0.047500 0.011198 -0.008715 -0.047500 0.010973 -0.008172 -0.047500 0.010896 -0.007590 -0.047500 0.010973 -0.007008 -0.047500 0.011198 -0.006465 -0.047500 0.011555 -0.005999 -0.047500 0.012021 -0.005641 -0.047500 0.012564 -0.005417 -0.047500 0.013146 -0.005340 -0.047500 0.013729 -0.005417 -0.047500 0.014271 -0.005641 -0.047500 0.014737 -0.005999 -0.047500 0.015095 -0.006465 -0.047500 0.015320 -0.007008 -0.047500 0.015396 -0.007590 -0.037500 0.015320 -0.007008 -0.037500 0.015095 -0.006465 -0.037500 0.014737 -0.005999 -0.037500 0.014271 -0.005641 -0.037500 0.013729 -0.005417 -0.037500 0.013146 -0.005340 -0.037500 0.012564 -0.005417 -0.037500 0.012021 -0.005641 -0.037500 0.011555 -0.005999 -0.037500 0.011198 -0.006465 -0.037500 0.010973 -0.007008 -0.037500 0.010896 -0.007590 -0.037500 0.010973 -0.008172 -0.037500 0.011198 -0.008715 -0.037500 0.011555 -0.009181 -0.037500 0.012021 -0.009539 -0.037500 0.012564 -0.009763 -0.037500 0.013146 -0.009840 -0.037500 0.013729 -0.009763 -0.037500 0.014271 -0.009539 -0.037500 0.014737 -0.009181 -0.037500 0.015095 -0.008715 -0.037500 0.015320 -0.008172 -0.037500</float_array>
          <technique_common>
            <accessor source="#HipRollMountRight-mesh-positions-array" count="682" stride="3">
              <param name="X" type="float"/>
              <param name="Y" type="float"/>
              <param name="Z" type="float"/>
            </accessor>
          </technique_common>
        </source>
        <source id="HipRollMountRight-mesh-normals">
          <float_array id="HipRollMountRight-mesh-normals-array" count="3972">0.965926 -0.000000 0.258819 0.965926 -0.000000 0.258819 1.000000 0.000000 0.000000 0.965926 -0.000000 0.258819 0.965926 -0.000000 0.258819 0.866025 -0.000000 0.500000 0.866025 -0.000000 0.500000 0.707107 -0.000000 0.707107 0.707107 -0.000000 0.707107 0.500000 -0.000000 0.866025 0.500000 -0.000000 0.866025 0.258819 -0.000000 0.965926 0.258819 -0.000000 0.965926 0.000000 -0.000000 1.000000 0.258819 -0.000000 0.965926 0.258819 -0.000000 0.965926 0.500000 -0.000000 0.866025 0.500000 -0.000000 0.866025 0.707107 -0.000000 0.707107 0.707107 -0.000000 0.707107 0.866025 -0.000000 0.500000 0.866025 -0.000000 0.500000 0.500000 -0.000000 0.866025 0.258819 -0.000000 0.965926 0.000000 -0.000000 1.000000 0.258819 -0.000000 0.965926 0.866025 -0.000000 0.500000 0.965926 -0.000000 0.258819 1.000000 0.000000 0.000000 0.965926 -0.000000 0.258819 0.866025 -0.000000 0.500000 0.707107 -0.000000 0.707107 0.707107 -0.000000 0.707107 0.500000 -0.000000 0.866025 1.000000 0.000000 -0.000000 1.000000 0.000000 -0.000000 1.000000 0.000000 -0.000000 1.000000 0.000000 -0.000000 1.000000 0.000000 -0.000000 1.000000 0.000000 -0.000000 1.000000 0.000000 -0.000000 1.000000 0.000000 -0.000000 1.000000 0.000000 -0.000000 1.000000 0.000000 -0.000000 1.000000 0.000000 -0.000000 1.000000 0.000000 -0.000000 1.000000 0.000000 -0.000000 1.000000 0.000000 -0.000000 1.000000 0.000000 -0.000000 1.000000 0.000000 -0.000000 1.000000 0.000000 -0.000000 1.000000 0.000000 -0.000000 1.000000 0.000000 -0.000000 1.000000 0.000000 -0.000000 1.000000 0.000000 -0.000000 1.000000 0.000000 -0.000000 1.000000 0.000000 -0.000000 1.000000 0.000000 -0.000000 1.000000 0.000000 -0.000000 1.000000 0.000000 -0.000000 1.000000 0.000000 -0.000000 1.000000 0.000000 -0.000000 1.000000 0.000000 -0.000000 1.000000 0.000000 -0.000000 1.000000 0.000000 -0.000000 1.000000 0.000000 -0.000000 1.000000 0.000000 -0.000000 1.000000 0.000000 -0.000000 1.000000 0.000000 -0.000000 1.000000 0.000000 -0.000000 1.000000 0.000000 -0.000000 1.000000 0.000000 -0.000000 1.000000 0.000000 -0.000000 1.000000 0.000000 -0.000000 1.000000 0.000000 -0.000000 1.000000 0.000000 -0.000000 1.000000 0.000000 -0.000000 1.000000 0.000000 -0.000000 1.000000 0.000000 -0.000000 1.000000 0.000000 -0.000000 1.000000 0.000000 -0.000000 1.000000 0.000000 -0.000000 1.000000 0.000000 -0.000000 1.000000 0.000000 -0.000000 1.000000 0.000000 -0.000000 1.000000 0.000000 -0.000000 1.000000 0.000000 -0.000000 1.000000 0.000000 -0.000000 1.000000 0.000000 -0.000000 1.000000 0.000000 -0.000000 1.000000 0.000000 -0.000000 1.000000 0.000000 -0.000000 1.000000 0.000000 -0.000000 1.000000 0.000000 -0.000000 1.000000 0.000000 -0.000000 1.000000 0.000000 -0.000000 1.000000 0.000000 -0.000000 1.000000 0.000000 -0.000000 1.000000 0.000000 -0.000000 1.000000 0.000000 -0.000000 1.000000 0.000000 -0.000000 1.000000 0.000000 -0.000000 1.000000 0.000000 -0.000000 1.000000 0.000000 -0.000000 1.000000 0.000000 -0.000000 1.000000 0.000000 -0.000000 1.000000 0.000000 -0.000000 1.000000 0.000000 -0.000000 1.000000 0.000000 -0.000000 1.000000 0.000000 -0.000000 1.000000 0.000000 -0.000000 1.000000 0.000000 -0.000000 1.000000 0.000000 -0.000000 1.000000 0.000000 -0.000000 1.000000 0.000000 -0.000000 1.000000 0.000000 -0.000000 1.000000 0.000000 -0.000000 1.000000 0.000000 -0.000000 1.000000 0.000000 -0.000000 1.000000 0.000000 -0.000000 1.000000 0.000000 -0.000000 1.000000 0.000000 -0.000000 1.000000 0.000000 -0.000000 1.000000 0.000000 -0.000000 1.000000 0.000000 -0.000000 1.000000 0.000000 -0.000000 1.000000 0.000000 -0.000000 1.000000 0.000000 -0.000000 1.000000 0.000000 -0.000000 1.000000 0.000000 -0.000000 1.000000 0.000000 -0.000000 1.000000 0.000000 -0.000000 1.000000 0.000000 -0.000000 1.000000 0.000000 -0.000000 1.000000 0.000000 -0.000000 1.000000 0.000000 -0.000000 1.000000 0.000000 -0.000000 1.000000 0.000000 -0.000000 1.000000 0.000000 -0.000000 1.000000 0.000000 -0.000000 1.000000 0.000000 -0.000000 1.000000 0.000000 -0.000000 1.000000 0.000000 -0.000000 1.000000 0.000000 -0.000000 1.000000 0.000000 -0.000000 1.000000 0.000000 -0.000000 1.000000 0.000000 -0.000000 1.000000 0.000000 -0.000000 1.000000 0.000000 -0.000000 1.000000 0.000000 -0.000000 1.000000 0.000000 -0.000000 1.000000 0.000000 -0.000000 1.000000 0.000000 -0.000000 1.000000 0.000000 -0.000000 1.000000 0.000000 -0.000000 1.000000 0.000000 -0.000000 1.000000 0.000000 -0.000000 1.000000 0.000000 -0.000000 1.000000 0.000000 -0.000000 1.000000 0.000000 -0.000000 1.000000 0.000000 -0.000000 1.000000 0.000000 -0.000000 1.000000 0.000000 -0.000000 1.000000 0.000000 -0.000000 1.000000 0.000000 -0.000000 1.000000 0.000000 -0.000000 1.000000 0.000000 -0.000000 1.000000 0.000000 -0.000000 0.000000 1.000000 -0.000000 0.000000 1.000000 -0.000000 0.000000 1.000000 -0.000000 0.000000 1.000000 -0.000000 0.000000 1.000000 -0.000000 0.000000 1.000000 -0.000000 0.000000 1.000000 -0.000000 0.000000 1.000000 -0.000000 0.000000 1.000000 -0.000000 0.000000 1.000000 -0.000000 0.000000 1.000000 -0.000000 0.000000 1.000000 -0.000000 0.000000 1.000000 -0.000000 0.000000 1.000000 -0.000000 0.000000 1.000000 -0.000000 0.000000 1.000000 -0.000000 0.000000 1.000000 -0.000000 0.000000 1.000000 -0.000000 -0.965926 0.000000 -0.258819 -0.965926 0.000000 -0.258819 -1.000000 -0.000000 0.000000 -0.965926 0.000000 -0.258819 -0.965926 0.000000 -0.258819 -0.866025 0.000000 -0.500000 -0.866025 0.000000 -0.500000 -0.707107 0.000000 -0.707107 -0.707107 0.000000 -0.707107 -0.500000 0.000000 -0.866025 -0.500000 0.000000 -0.866025 -0.258819 0.000000 -0.965926 -0.258819 0.000000 -0.965926 0.000000 -0.000000 -1.000000 -0.258819 0.000000 -0.965926 -0.258819 0.000000 -0.965926 -0.500000 0.000000 -0.866025 -0.500000 0.000000 -0.866025 -0.707107 0.000000 -0.707107 -0.707107 0.000000 -0.707107 -0.866025 0.000000 -0.500000 -0.866025 0.000000 -0.500000 -0.500000 0.000000 -0.866025 -0.258819 0.000000 -0.965926 0.000000 -0.000000 -1.000000 -0.258819 0.000000 -0.965926 -0.866025 0.000000 -0.500000 -0.965926 0.000000 -0.258819 -1.000000 -0.000000 0.000000 -0.965926 0.000000 -0.258819 -0.866025 0.000000 -0.500000 -0.707107 0.000000 -0.707107 -0.707107 0.000000 -0.707107 -0.500000 0.000000 -0.866025 -1.000000 0.000000 0.000000 -1.000000 0.000000 0.000000 -1.000000 0.000000 0.000000 -1.000000 0.000000 0.000000 -1.000000 0.000000 0.000000 -1.000000 0.000000 0.000000 -1.000000 0.000000 0.000000 -1.000000 0.000000 0.000000 -1.000000 0.000000 0.000000 -1.000000 0.000000 0.000000 -1.000000 0.000000 0.000000 -1.000000 0.000000 0.000000 -1.000000 0.000000 0.000000 -1.000000 0.000000 0.000000 -1.000000 0.000000 0.000000 -1.000000 0.000000 0.000000 -1.000000 0.000000 0.000000 -1.000000 0.000000 0.000000 -1.000000 0.000000 0.000000 -1.000000 0.000000 0.000000 -1.000000 0.000000 0.000000 -1.000000 0.000000 0.000000 -1.000000 0.000000 0.000000 -1.000000 0.000000 0.000000 -1.000000 0.000000 0.000000 -1.000000 0.000000 0.000000 -1.000000 0.000000 0.000000 -1.000000 0.000000 0.000000 -1.000000 0.000000 0.000000 -1.000000 0.000000 0.000000 -1.000000 0.000000 0.000000 -1.000000 0.000000 0.000000 -1.000000 0.000000 0.000000 -1.000000 0.000000 0.000000 -1.000000 0.000000 0.000000 -1.000000 0.000000 0.000000 -1.000000 0.000000 0.000000 -1.000000 0.000000 0.000000 -1.000000 0.000000 0.000000 -1.000000 0.000000 0.000000 -1.000000 0.000000 0.000000 -1.000000 0.000000 0.000000 -1.000000 0.000000 0.000000 -1.000000 0.000000 0.000000 -1.000000 0.000000 0.000000 -1.000000 0.000000 0.000000 -1.000000 0.000000 0.000000 -1.000000 0.000000 0.000000 -1.000000 0.000000 0.000000 -1.000000 0.000000 0.000000 -1.000000 0.000000 0.000000 -1.000000 0.000000 0.000000 -1.000000 0.000000 0.000000 -1.000000 0.000000 0.000000 -1.000000 0.000000 0.000000 -1.000000 0.000000 0.000000 -1.000000 0.000000 0.000000 -1.000000 0.000000 0.000000 -1.000000 0.000000 0.000000 -1.000000 0.000000 0.000000 -1.000000 0.000000 0.000000 -1.000000 0.000000 0.000000 -1.000000 0.000000 0.000000 -1.000000 0.000000 0.000000 -1.000000 0.000000 0.000000 -1.000000 0.000000 0.000000 -1.000000 0.000000 0.000000 -1.000000 0.000000 0.000000 -1.000000 0.000000 0.000000 -1.000000 0.000000 0.000000 -1.000000 0.000000 0.000000 -1.000000 0.000000 0.000000 -1.000000 0.000000 0.000000 -1.000000 0.000000 0.000000 -1.000000 0.000000 0.000000 -1.000000 0.000000 0.000000 -1.000000 0.000000 0.000000 -1.000000 0.000000 0.000000 -1.000000 0.000000 0.000000 -1.000000 0.000000 0.000000 -1.000000 0.000000 0.000000 -1.000000 0.000000 0.000000 -1.000000 0.000000 0.000000 -1.000000 0.000000 0.000000 -1.000000 0.000000 0.000000 -1.000000 0.000000 0.000000 -1.000000 0.000000 0.000000 -1.000000 0.000000 0.000000 -1.000000 0.000000 0.000000 -1.000000 0.000000 0.000000 -1.000000 0.000000 0.000000 -1.000000 0.000000 0.000000 -1.000000 0.000000 0.000000 -1.000000 0.000000 0.000000 -1.000000 0.000000 0.000000 -1.000000 0.000000 0.000000 -1.000000 0.000000 0.000000 -1.000000 0.000000 0.000000 -1.000000 0.000000 0.000000 -1.000000 0.000000 0.000000 -1.000000 0.000000 0.000000 -1.000000 0.000000 0.000000 -1.000000 0.000000 0.000000 -1.000000 0.000000 0.000000 -1.000000 0.000000 0.000000 -1.000000 0.000000 0.000000 -1.000000 0.000000 0.000000 -1.000000 0.000000 0.000000 -1.000000 0.000000 0.000000 -1.000000 0.000000 0.000000 -1.000000 0.000000 0.000000 -1.000000 0.000000 0.000000 -1.000000 0.000000 0.000000 -1.000000 0.000000 0.000000 -1.000000 0.000000 0.000000 -1.000000 0.000000 0.000000 -1.000000 0.000000 0.000000 -1.000000 0.000000 0.000000 -1.000000 0.000000 0.000000 -1.000000 0.000000 0.000000 -1.000000 0.000000 0.000000 -1.000000 0.000000 0.000000 -1.000000 0.000000 0.000000 -1.000000 0.000000 0.000000 -1.000000 0.000000 0.000000 -1.000000 0.000000 0.000000 -1.000000 0.000000 0.000000 -1.000000 0.000000 0.000000 -1.000000 0.000000 0.000000 -1.000000 0.000000 0.000000 -1.000000 0.000000 0.000000 -1.000000 0.000000 0.000000 -1.000000 0.000000 0.000000 -1.000000 0.000000 0.000000 0.000000 0.000000 -1.000000 0.000000 0.000000 -1.000000 0.000000 -0.258819 -0.965926 0.000000 -0.258819 -0.965926 0.000000 -0.500000 -0.866025 0.000000 -0.500000 -0.866025 0.000000 -0.707107 -0.707107 0.000000 -0.707107 -0.707107 0.000000 -0.866025 -0.500000 0.000000 -0.866025 -0.500000 0.000000 -0.965926 -0.258819 0.000000 -0.965926 -0.258819 0.000000 -1.000000 0.000000 0.000000 -1.000000 0.000000 0.000000 -1.000000 0.000000 0.000000 -1.000000 0.000000 0.000000 -1.000000 0.000000 0.000000 -1.000000 0.000000 0.000000 -1.000000 0.000000 0.000000 -1.000000 0.000000 0.000000 -1.000000 0.000000 0.000000 -1.000000 0.000000 0.000000 -1.000000 0.000000 0.000000 -1.000000 0.000000 0.000000 -1.000000 0.000000 0.000000 -1.000000 0.000000 0.000000 -1.000000 0.000000 0.000000 -1.000000 0.000000 0.000000 -1.000000 0.000000 0.000000 -1.000000 0.000000 0.000000 0.000000 -1.000000 0.000000 0.000000 -1.000000 0.000000 0.258819 -0.965926 0.000000 0.258819 -0.965926 0.000000 0.500000 -0.866025 0.000000 0.500000 -0.866025 0.000000 0.707107 -0.707107 0.000000 0.707107 -0.707107 0.000000 0.866025 -0.500000 0.000000 0.866025 -0.500000 0.000000 0.965926 -0.258819 0.000000 0.965926 -0.258819 -0.000000 -0.965926 0.258819 -0.000000 -0.965926 0.258819 -0.000000 -1.000000 0.000000 -0.000000 -1.000000 0.000000 -0.000000 -0.965926 -0.258819 -0.000000 -0.965926 -0.258819 -0.000000 -0.866025 -0.500000 -0.000000 -0.866025 -0.500000 -0.000000 -0.707107 -0.707107 -0.000000 -0.707107 -0.707107 -0.000000 -0.500000 -0.866025 -0.000000 -0.500000 -0.866025 -0.000000 -0.258819 -0.965926 -0.000000 -0.258819 -0.965926 -0.000000 0.000000 -1.000000 -0.000000 0.000000 -1.000000 -0.000000 0.258819 -0.965926 -0.000000 0.258819 -0.965926 -0.000000 0.500000 -0.866025 -0.000000 0.500000 -0.866025 -0.000000 0.707107 -0.707107 -0.000000 0.707107 -0.707107 -0.000000 0.866025 -0.500000 -0.000000 0.866025 -0.500000 -0.000000 0.965926 -0.258819 -0.000000 0.965926 -0.258819 0.000000 1.000000 0.000000 0.000000 1.000000 0.000000 0.000000 0.965926 0.258819 0.000000 0.965926 0.258819 0.000000 0.866025 0.500000 0.000000 0.866025 0.500000 0.000000 0.707107 0.707107 0.000000 0.707107 0.707107 0.000000 0.500000 0.866025 0.000000 0.500000 0.866025 0.000000 0.258819 0.965926 0.000000 0.258819 0.965926 0.000000 0.000000 1.000000 0.000000 0.000000 1.000000 -0.000000 -0.258819 0.965926 -0.000000 -0.258819 0.965926 -0.000000 -0.500000 0.866025 -0.000000 -0.500000 0.866025 -0.000000 -0.707107 0.707107 -0.000000 -0.707107 0.707107 -0.000000 -0.866025 0.500000 -0.000000 -0.866025 0.500000 -0.000000 -0.965926 0.258819 -0.000000 -0.965926 0.258819 -0.000000 -1.000000 0.000000 -0.000000 -1.000000 0.000000 -0.000000 -0.965926 -0.258819 -0.000000 -0.965926 -0.258819 -0.000000 -0.866025 -0.500000 -0.000000 -0.866025 -0.500000 -0.000000 -0.707107 -0.707107 -0.000000 -0.707107 -0.707107 -0.000000 -0.500000 -0.866025 -0.000000 -0.500000 -0.866025 -0.000000 -0.258819 -0.965926 -0.000000 -0.258819 -0.965926 -0.000000 0.000000 -1.000000 -0.000000 0.000000 -1.000000 -0.000000 0.258819 -0.965926 -0.000000 0.258819 -0.965926 -0.000000 0.500000 -0.866025 -0.000000 0.500000 -0.866025 -0.000000 0.707107 -0.707107 -0.000000 0.707107 -0.707107 -0.000000 0.866025 -0.500000 -0.000000 0.866025 -0.500000 -0.000000 0.965926 -0.258819 -0.000000 0.965926 -0.258819 0.000000 1.000000 0.000000 0.000000 1.000000 0.000000 0.000000 0.965926 0.258819 0.000000 0.965926 0.258819 0.000000 0.866025 0.500000 0.000000 0.866025 0.500000 0.000000 0.707107 0.707107 0.000000 0.707107 0.707107 0.000000 0.500000 0.866025 0.000000 0.500000 0.866025 0.000000 0.258819 0.965926 0.000000 0.258819 0.965926 0.000000 0.000000 1.000000 0.000000 0.000000 1.000000 -0.000000 -0.258819 0.965926 -0.000000 -0.258819 0.965926 -0.000000 -0.500000 0.866025 -0.000000 -0.500000 0.866025 -0.000000 -0.707107 0.707107 -0.000000 -0.707107 0.707107 -0.000000 -0.866025 0.500000 -0.000000 -0.866025 0.500000 -0.000000 -0.965926 0.258819 -0.000000 -0.965926 0.258819 -0.000000 -1.000000 0.000000 -0.000000 -1.000000 0.000000 -0.000000 -0.965926 -0.258819 -0.000000 -0.965926 -0.258819 -0.000000 -0.866025 -0.500000 -0.000000 -0.866025 -0.500000 -0.000000 -0.707107 -0.707107 -0.000000 -0.707107 -0.707107 -0.000000 -0.500000 -0.866025 -0.000000 -0.500000 -0.866025 -0.000000 -0.258819 -0.965926 -0.000000 -0.258819 -0.965926 -0.000000 0.000000 -1.000000 -0.000000 0.000000 -1.000000 -0.000000 0.258819 -0.965926 -0.000000 0.258819 -0.965926 -0.000000 0.500000 -0.866025 -0.000000 0.500000 -0.866025 -0.000000 0.707107 -0.707107 -0.000000 0.707107 -0.707107 -0.000000 0.866025 -0.500000 -0.000000 0.866025 -0.500000 -0.000000 0.965926 -0.258819 -0.000000 0.965926 -0.258819 0.000000 1.000000 0.000000 0.000000 1.000000 0.000000 0.000000 0.965926 0.258819 0.000000 0.965926 0.258819 0.000000 0.866025 0.500000 0.000000 0.866025 0.500000 0.000000 0.707107 0.707107 0.000000 0.707107 0.707107 0.000000 0.500000 0.866025 0.000000 0.500000 0.866025 0.000000 0.258819 0.965926 0.000000 0.258819 0.965926 0.000000 0.000000 1.000000 0.000000 0.000000 1.000000 -0.000000 -0.258819 0.965926 -0.000000 -0.258819 0.965926 -0.000000 -0.500000 0.866025 -0.000000 -0.500000 0.866025 -0.000000 -0.707107 0.707107 -0.000000 -0.707107 0.707107 -0.000000 -0.866025 0.500000 -0.000000 -0.866025 0.500000 -0.000000 -0.965926 0.258819 -0.000000 -0.965926 0.258819 -0.000000 -1.000000 0.000000 -0.000000 -1.000000 0.000000 -0.000000 -0.965926 -0.258819 -0.000000 -0.965926 -0.258819 -0.000000 -0.866025 -0.500000 -0.000000 -0.866025 -0.500000 -0.000000 -0.707107 -0.707107 -0.000000 -0.707107 -0.707107 -0.000000 -0.500000 -0.866025 -0.000000 -0.500000 -0.866025 -0.000000 -0.258819 -0.965926 -0.000000 -0.258819 -0.965926 -0.000000 0.000000 -1.000000 -0.000000 0.000000 -1.000000 -0.000000 0.258819 -0.965926 -0.000000 0.258819 -0.965926 -0.000000 0.500000 -0.866025 -0.000000 0.500000 -0.866025 -0.000000 0.707107 -0.707107 -0.000000 0.707107 -0.707107 -0.000000 0.866025 -0.500000 -0.000000 0.866025 -0.500000 -0.000000 0.965926 -0.258819 -0.000000 0.965926 -0.258819 0.000000 1.000000 0.000000 0.000000 1.000000 0.000000 0.000000 0.965926 0.258819 0.000000 0.965926 0.258819 0.000000 0.866025 0.500000 0.000000 0.866025 0.500000 0.000000 0.707107 0.707107 0.000000 0.707107 0.707107 0.000000 0.500000 0.866025 0.000000 0.500000 0.866025 0.000000 0.258819 0.965926 0.000000 0.258819 0.965926 0.000000 0.000000 1.000000 0.000000 0.000000 1.000000 -0.000000 -0.258819 0.965926 -0.000000 -0.258819 0.965926 -0.000000 -0.500000 0.866025 -0.000000 -0.500000 0.866025 -0.000000 -0.707107 0.707107 -0.000000 -0.707107 0.707107 -0.000000 -0.866025 0.500000 -0.000000 -0.866025 0.500000 -0.000000 -0.965926 0.258819 -0.000000 -0.965926 0.258819 -0.000000 -1.000000 0.000000 -0.000000 -1.000000 0.000000 -0.000000 -0.965926 -0.258819 -0.000000 -0.965926 -0.258819 -0.000000 -0.866025 -0.500000 -0.000000 -0.866025 -0.500000 -0.000000 -0.707107 -0.707107 -0.000000 -0.707107 -0.707107 -0.000000 -0.500000 -0.866025 -0.000000 -0.500000 -0.866025 -0.000000 -0.258819 -0.965926 -0.000000 -0.258819 -0.965926 -0.000000 0.000000 -1.000000 -0.000000 0.000000 -1.000000 -0.000000 0.258819 -0.965926 -0.000000 0.258819 -0.965926 -0.000000 0.500000 -0.866025 -0.000000 0.500000 -0.866025 -0.000000 0.707107 -0.707107 -0.000000 0.707107 -0.707107 -0.000000 0.866025 -0.500000 -0.000000 0.866025 -0.500000 -0.000000 0.965926 -0.258819 -0.000000 0.965926 -0.258819 0.000000 1.000000 0.000000 0.000000 1.000000 0.000000 0.000000 0.965926 0.258819 0.000000 0.965926 0.258819 0.000000 0.866025 0.500000 0.000000 0.866025 0.500000 0.000000 0.707107 0.707107 0.000000 0.707107 0.707107 0.000000 0.500000 0.866025 0.000000 0.500000 0.866025 0.000000 0.258819 0.965926 0.000000 0.258819 0.965926 0.000000 0.000000 1.000000 0.000000 0.000000 1.000000 -0.000000 -0.258819 0.965926 -0.000000 -0.258819 0.965926 -0.000000 -0.500000 0.866025 -0.000000 -0.500000 0.866025 -0.000000 -0.707107 0.707107 -0.000000 -0.707107 0.707107 -0.000000 -0.866025 0.500000 -0.000000 -0.866025 0.500000 0.000000 0.000000 -1.000000 0.000000 0.000000 -1.000000 0.000000 0.000000 -1.000000 0.000000 0.000000 -1.000000 0.000000 0.000000 -1.000000 0.000000 0.000000 -1.000000 0.000000 0.000000 -1.000000 0.000000 0.000000 -1.000000 0.000000 0.000000 -1.000000 0.000000 0.000000 -1.000000 0.000000 0.000000 -1.000000 0.000000 0.000000 -1.000000 0.000000 0.000000 -1.000000 0.000000 0.000000 -1.000000 0.000000 0.000000 -1.000000 -0.222521 -0.974928 -0.000000 -0.222521 -0.974928 -0.000000 -0.000000 -1.000000 -0.000000 -0.433884 -0.900969 -0.000000 -0.433884 -0.900969 -0.000000 -0.623490 -0.781831 -0.000000 -0.623490 -0.781831 -0.000000 -0.781831 -0.623490 -0.000000 -0.781831 -0.623490 -0.000000 -0.900969 -0.433884 -0.000000 -0.900969 -0.433884 -0.000000 -0.974928 -0.222521 -0.000000 -0.974928 -0.222521 -0.000000 -1.000000 0.000000 -0.000000 -1.000000 0.000000 -0.000000 -0.974928 0.222521 0.000000 -0.974928 0.222521 0.000000 -0.900969 0.433884 0.000000 -0.900969 0.433884 0.000000 -0.781831 0.623490 0.000000 -0.781831 0.623490 0.000000 -0.623490 0.781831 0.000000 -0.623490 0.781831 0.000000 -0.433884 0.900969 0.000000 -0.433884 0.900969 0.000000 -0.222521 0.974928 0.000000 -0.222521 0.974928 0.000000 -0.000000 1.000000 0.000000 0.222521 0.974928 0.000000 0.222521 0.974928 0.000000 0.433884 0.900969 0.000000 0.433884 0.900969 0.000000 0.623490 0.781831 0.000000 0.623490 0.781831 0.000000 0.781831 0.623490 0.000000 0.781831 0.623490 0.000000 0.900969 0.433884 0.000000 0.900969 0.433884 0.000000 0.974928 0.222521 0.000000 0.974928 0.222521 0.000000 1.000000 0.000000 0.000000 1.000000 0.000000 0.000000 0.974928 -0.222521 0.000000 0.974928 -0.222521 0.000000 0.900969 -0.433884 0.000000 0.900969 -0.433884 0.000000 0.781831 -0.623490 0.000000 0.781831 -0.623490 0.000000 0.623490 -0.781831 0.000000 0.623490 -0.781831 0.000000 0.433884 -0.900969 0.000000 0.433884 -0.900969 0.000000 0.222521 -0.974928 0.000000 0.222521 -0.974928 0.000000 -0.965926 0.258819 -0.000000 -0.965926 0.258819 -0.000000 -1.000000 0.000000 -0.000000 -1.000000 0.000000 -0.000000 -0.965926 -0.258819 -0.000000 -0.965926 -0.258819 -0.000000 -0.866025 -0.500000 -0.000000 -0.866025 -0.500000 -0.000000 -0.707107 -0.707107 -0.000000 -0.707107 -0.707107 -0.000000 -0.500000 -0.866025 -0.000000 -0.500000 -0.866025 -0.000000 -0.258819 -0.965926 -0.000000 -0.258819 -0.965926 -0.000000 0.000000 -1.000000 -0.000000 0.000000 -1.000000 -0.000000 0.258819 -0.965926 -0.000000 0.258819 -0.965926 -0.000000 0.500000 -0.866025 -0.000000 0.500000 -0.866025 -0.000000 0.707107 -0.707107 -0.000000 0.707107 -0.707107 -0.000000 0.866025 -0.500000 -0.000000 0.866025 -0.500000 -0.000000 0.965926 -0.258819 -0.000000 0.965926 -0.258819 -0.000000 1.000000 -0.000000 0.000000 1.000000 -0.000000 0.000000 0.965926 0.258819 0.000000 0.965926 0.258819 0.000000 0.866025 0.500000 0.000000 0.866025 0.500000 0.000000 0.707107 0.707107 0.000000 0.707107 0.707107 0.000000 0.500000 0.866025 0.000000 0.500000 0.866025 0.000000 0.258819 0.965926 0.000000 0.258819 0.965926 0.000000 0.000000 1.000000 0.000000 0.000000 1.000000 0.000000 -0.258819 0.965926 -0.000000 -0.258819 0.965926 -0.000000 -0.500000 0.866025 -0.000000 -0.500000 0.866025 -0.000000 -0.707107 0.707107 -0.000000 -0.707107 0.707107 -0.000000 -0.866025 0.500000 -0.000000 -0.866025 0.500000 -0.000000 -0.965926 0.258819 -0.000000 -0.965926 0.258819 -0.000000 -1.000000 0.000000 -0.000000 -1.000000 0.000000 -0.000000 -0.965926 -0.258819 -0.000000 -0.965926 -0.258819 -0.000000 -0.866025 -0.500000 -0.000000 -0.866025 -0.500000 -0.000000 -0.707107 -0.707107 -0.000000 -0.707107 -0.707107 -0.000000 -0.500000 -0.866025 -0.000000 -0.500000 -0.866025 -0.000000 -0.258819 -0.965926 -0.000000 -0.258819 -0.965926 -0.000000 0.000000 -1.000000 -0.000000 0.000000 -1.000000 -0.000000 0.258819 -0.965926 -0.000000 0.258819 -0.965926 -0.000000 0.500000 -0.866025 -0.000000 0.500000 -0.866025 -0.000000 0.707107 -0.707107 -0.000000 0.707107 -0.707107 -0.000000 0.866025 -0.500000 -0.000000 0.866025 -0.500000 -0.000000 0.965926 -0.258819 -0.000000 0.965926 -0.258819 -0.000000 1.000000 -0.000000 0.000000 1.000000 -0.000000 0.000000 0.965926 0.258819 0.000000 0.965926 0.258819 0.000000 0.866025 0.500000 0.000000 0.866025 0.500000 0.000000 0.707107 0.707107 0.000000 0.707107 0.707107 0.000000 0.500000 0.866025 0.000000 0.500000 0.866025 0.000000 0.258819 0.965926 0.000000 0.258819 0.965926 0.000000 0.000000 1.000000 0.000000 0.000000 1.000000 0.000000 -0.258819 0.965926 -0.000000 -0.258819 0.965926 -0.000000 -0.500000 0.866025 -0.000000 -0.500000 0.866025 -0.000000 -0.707107 0.707107 -0.000000 -0.707107 0.707107 -0.000000 -0.866025 0.500000 -0.000000 -0.866025 0.500000 -0.000000 -0.965926 0.258819 -0.000000 -0.965926 0.258819 -0.000000 -1.000000 0.000000 -0.000000 -1.000000 0.000000 -0.000000 -0.965926 -0.258819 -0.000000 -0.965926 -0.258819 -0.000000 -0.866025 -0.500000 -0.000000 -0.866025 -0.500000 -0.000000 -0.707107 -0.707107 -0.000000 -0.707107 -0.707107 -0.000000 -0.500000 -0.866025 -0.000000 -0.500000 -0.866025 -0.000000 -0.258819 -0.965926 -0.000000 -0.258819 -0.965926 -0.000000 0.000000 -1.000000 -0.000000 0.000000 -1.000000 -0.000000 0.258819 -0.965926 -0.000000 0.258819 -0.965926 -0.000000 0.500000 -0.866025 -0.000000 0.500000 -0.866025 -0.000000 0.707107 -0.707107 -0.000000 0.707107 -0.707107 -0.000000 0.866025 -0.500000 -0.000000 0.866025 -0.500000 -0.000000 0.965926 -0.258819 -0.000000 0.965926 -0.258819 -0.000000 1.000000 -0.000000 0.000000 1.000000 -0.000000 0.000000 0.965926 0.258819 0.000000 0.965926 0.258819 0.000000 0.866025 0.500000 0.000000 0.866025 0.500000 0.000000 0.707107 0.707107 0.000000 0.707107 0.707107 0.000000 0.500000 0.866025 0.000000 0.500000 0.866025 0.000000 0.258819 0.965926 0.000000 0.258819 0.965926 0.000000 0.000000 1.000000 0.000000 0.000000 1.000000 0.000000 -0.258819 0.965926 -0.000000 -0.258819 0.965926 -0.000000 -0.500000 0.866025 -0.000000 -0.500000 0.866025 -0.000000 -0.707107 0.707107 -0.000000 -0.707107 0.707107 -0.000000 -0.866025 0.500000 -0.000000 -0.866025 0.500000 -0.000000 -0.965926 0.258819 -0.000000 -0.965926 0.258819 -0.000000 -1.000000 0.000000 -0.000000 -1.000000 0.000000 -0.000000 -0.965926 -0.258819 -0.000000 -0.965926 -0.258819 -0.000000 -0.866025 -0.500000 -0.000000 -0.866025 -0.500000 -0.000000 -0.707107 -0.707107 -0.000000 -0.707107 -0.707107 -0.000000 -0.500000 -0.866025 -0.000000 -0.500000 -0.866025 -0.000000 -0.258819 -0.965926 -0.000000 -0.258819 -0.965926 -0.000000 0.000000 -1.000000 -0.000000 0.000000 -1.000000 -0.000000 0.258819 -0.965926 -0.000000 0.258819 -0.965926 -0.000000 0.500000 -0.866025 -0.000000 0.500000 -0.866025 -0.000000 0.707107 -0.707107 -0.000000 0.707107 -0.707107 -0.000000 0.866025 -0.500000 -0.000000 0.866025 -0.500000 -0.000000 0.965926 -0.258819 -0.000000 0.965926 -0.258819 -0.000000 1.000000 -0.000000 0.000000 1.000000 -0.000000 0.000000 0.965926 0.258819 0.000000 0.965926 0.258819 0.000000 0.866025 0.500000 0.000000 0.866025 0.500000 0.000000 0.707107 0.707107 0.000000 0.707107 0.707107 0.000000 0.500000 0.866025 0.000000 0.500000 0.866025 0.000000 0.258819 0.965926 0.000000 0.258819 0.965926 0.000000 0.000000 1.000000 0.000000 0.000000 1.000000 0.000000 -0.258819 0.965926 -0.000000 -0.258819 0.965926 -0.000000 -0.500000 0.866025 -0.000000 -0.500000 0.866025 -0.000000 -0.707107 0.707107 -0.000000 -0.707107 0.707107 -0.000000 -0.866025 0.500000 -0.000000 -0.866025 0.500000 -0.000000 -0.965926 0.258819 -0.000000 -0.965926 0.258819 -0.000000 -1.000000 0.000000 -0.000000 -1.000000 0.000000 -0.000000 -0.965926 -0.258819 -0.000000 -0.965926 -0.258819 -0.000000 -0.866025 -0.500000 -0.000000 -0.866025 -0.500000 -0.000000 -0.707107 -0.707107 -0.000000 -0.707107 -0.707107 -0.000000 -0.500000 -0.866025 -0.000000 -0.500000 -0.866025 -0.000000 -0.258819 -0.965926 -0.000000 -0.258819 -0.965926 -0.000000 0.000000 -1.000000 -0.000000 0.000000 -1.000000 -0.000000 0.258819 -0.965926 -0.000000 0.258819 -0.965926 -0.000000 0.500000 -0.866025 -0.000000 0.500000 -0.866025 -0.000000 0.707107 -0.707107 -0.000000 0.707107 -0.707107 -0.000000 0.866025 -0.500000 -0.000000 0.866025 -0.500000 -0.000000 0.965926 -0.258819 -0.000000 0.965926 -0.258819 -0.000000 1.000000 -0.000000 0.000000 1.000000 -0.000000 0.000000 0.965926 0.258819 0.000000 0.965926 0.258819 0.000000 0.866025 0.500000 0.000000 0.866025 0.500000 0.000000 0.707107 0.707107 0.000000 0.707107 0.707107 0.000000 0.500000 0.866025 0.000000 0.500000 0.866025 0.000000 0.258819 0.965926 0.000000 0.258819 0.965926 0.000000 0.000000 1.000000 0.000000 0.000000 1.000000 0.000000 -0.258819 0.965926 -0.000000 -0.258819 0.965926 -0.000000 -0.500000 0.866025 -0.000000 -0.500000 0.866025 -0.000000 -0.707107 0.707107 -0.000000 -0.707107 0.707107 -0.000000 -0.866025 0.500000 -0.000000 -0.866025 0.500000 -0.000000 -0.965926 0.258819 -0.000000 -0.965926 0.258819 -0.000000 -1.000000 0.000000 -0.000000 -1.000000 0.000000 -0.000000 -0.965926 -0.258819 -0.000000 -0.965926 -0.258819 -0.000000 -0.866025 -0.500000 -0.000000 -0.866025 -0.500000 -0.000000 -0.707107 -0.707107 -0.000000 -0.707107 -0.707107 -0.000000 -0.500000 -0.866025 -0.000000 -0.500000 -0.866025 -0.000000 -0.258819 -0.965926 -0.000000 -0.258819 -0.965926 -0.000000 0.000000 -1.000000 -0.000000 0.000000 -1.000000 -0.000000 0.258819 -0.965926 -0.000000 0.258819 -0.965926 -0.000000 0.500000 -0.866025 -0.000000 0.500000 -0.866025 -0.000000 0.707107 -0.707107 -0.000000 0.707107 -0.707107 -0.000000 0.866025 -0.500000 -0.000000 0.866025 -0.500000 -0.000000 0.965926 -0.258819 -0.000000 0.965926 -0.258819 -0.000000 1.000000 -0.000000 0.000000 1.000000 -0.000000 0.000000 0.965926 0.258819 0.000000 0.965926 0.258819 0.000000 0.866025 0.500000 0.000000 0.866025 0.500000 0.000000 0.707107 0.707107 0.000000 0.707107 0.707107 0.000000 0.500000 0.866025 0.000000 0.500000 0.866025 0.000000 0.258819 0.965926 0.000000 0.258819 0.965926 0.000000 0.000000 1.000000 0.000000 0.000000 1.000000 0.000000 -0.258819 0.965926 -0.000000 -0.258819 0.965926 -0.000000 -0.500000 0.866025 -0.000000 -0.500000 0.866025 -0.000000 -0.707107 0.707107 -0.000000 -0.707107 0.707107 -0.000000 -0.866025 0.500000 -0.000000 -0.866025 0.500000 -0.000000 0.000000 0.000000 -1.000000 0.000000 0.000000 -1.000000 0.000000 0.000000 -1.000000 0.000000 0.000000 -1.000000 0.000000 0.000000 -1.000000 0.000000 0.000000 -1.000000 0.000000 0.000000 -1.000000 0.000000 0.000000 -1.000000 0.000000 0.000000 -1.000000 0.000000 0.000000 -1.000000 0.000000 0.000000 -1.000000 0.000000 0.000000 -1.000000 0.000000 0.000000 -1.000000 0.000000 0.000000 -1.000000 0.000000 0.000000 -1.000000 0.000000 0.000000 -1.000000 0.000000 0.000000 -1.000000 0.000000 0.000000 -1.000000 0.000000 0.000000 -1.000000 0.000000 0.000000 -1.000000 0.000000 0.000000 -1.000000 0.000000 0.000000 -1.000000 0.000000 0.000000 -1.000000 0.000000 0.000000 -1.000000 0.000000 0.000000 -1.000000 0.000000 0.000000 -1.000000 0.000000 0.000000 -1.000000 0.000000 0.000000 -1.000000 0.000000 0.000000 -1.000000 0.000000 0.000000 -1.000000 0.000000 0.000000 -1.000000 0.000000 0.000000 -1.000000 0.000000 0.000000 -1.000000 0.000000 0.000000 -1.000000 0.000000 0.000000 -1.000000 0.000000 0.000000 -1.000000 0.000000 0.000000 -1.000000 0.000000 0.000000 -1.000000 0.000000 0.000000 -1.000000 0.000000 0.000000 -1.000000 0.000000 0.000000 -1.000000 0.000000 0.000000 -1.000000 0.000000 0.000000 -1.000000 0.000000 0.000000 -1.000000 0.000000 0.000000 -1.000000 0.000000 0.000000 -1.000000 0.000000 0.000000 -1.000000 0.000000 0.000000 -1.000000 0.000000 0.000000 -1.000000 0.000000 0.000000 -1.000000 0.000000 0.000000 -1.000000 0.000000 0.000000 -1.000000 0.000000 0.000000 -1.000000 0.000000 0.000000 -1.000000 0.000000 0.000000 -1.000000 0.000000 0.000000 -1.000000 0.000000 0.000000 -1.000000 0.000000 0.000000 -1.000000 0.000000 0.000000 -1.000000 0.000000 0.000000 -1.000000 0.000000 0.000000 -1.000000 0.000000 0.000000 -1.000000 0.000000 0.000000 -1.000000 0.000000 0.000000 -1.000000 0.000000 0.000000 -1.000000 0.000000 0.000000 -1.000000 0.000000 0.000000 -1.000000 0.000000 0.000000 -1.000000 0.000000 0.000000 -1.000000 0.000000 0.000000 -1.000000 0.000000 0.000000 -1.000000 0.000000 0.000000 -1.000000 0.000000 0.000000 -1.000000 0.000000 0.000000 -1.000000 0.000000 0.000000 -1.000000 0.000000 0.000000 -1.000000 0.000000 0.000000 -1.000000 0.000000 0.000000 -1.000000 0.000000 0.000000 -1.000000 0.000000 0.000000 -1.000000 0.000000 0.000000 -1.000000 0.000000 0.000000 -1.000000 0.000000 0.000000 -1.000000 0.000000 0.000000 -1.000000 0.000000 0.000000 -1.000000 0.000000 0.000000 -1.000000 0.000000 0.000000 -1.000000 0.000000 0.000000 -1.000000 0.000000 0.000000 -1.000000 0.000000 0.000000 -1.000000 0.000000 0.000000 -1.000000 0.000000 0.000000 -1.000000 0.000000 0.000000 -1.000000 0.000000 0.000000 -1.000000 0.000000 0.000000 -1.000000 0.000000 0.000000 -1.000000 0.000000 0.000000 -1.000000 0.000000 0.000000 -1.000000 0.000000 0.000000 -1.000000 0.000000 0.000000 -1.000000 0.000000 0.000000 -1.000000 0.000000 0.000000 -1.000000 0.000000 0.000000 -1.000000 0.000000 0.000000 -1.000000 0.000000 0.000000 -1.000000 0.000000 0.000000 -1.000000 0.000000 0.000000 -1.000000 0.000000 0.000000 -1.000000 0.000000 0.000000 -1.000000 0.000000 0.000000 -1.000000 0.000000 0.000000 -1.000000 0.000000 0.000000 -1.000000 0.000000 0.000000 -1.000000 0.000000 0.000000 -1.000000 0.000000 0.000000 -1.000000 0.000000 0.000000 -1.000000 0.000000 0.000000 -1.000000 0.000000 0.000000 -1.000000 0.000000 0.000000 -1.000000 0.000000 0.000000 -1.000000 0.000000 0.000000 -1.000000 0.000000 0.000000 -1.000000 0.000000 0.000000 -1.000000 0.000000 0.000000 -1.000000 0.000000 0.000000 -1.000000 0.000000 0.000000 -1.000000 0.000000 0.000000 -1.000000 0.000000 0.000000 -1.000000 0.000000 0.000000 -1.000000 0.000000 0.000000 -1.000000 0.000000 0.000000 -1.000000 0.000000 0.000000 -1.000000 0.000000 0.000000 -1.000000 0.000000 0.000000 -1.000000 0.000000 0.000000 -1.000000 0.000000 0.000000 -1.000000 0.000000 0.000000 -1.000000 0.000000 0.000000 -1.000000 0.000000 0.000000 -1.000000 0.000000 0.000000 -1.000000 0.000000 0.000000 -1.000000 0.000000 0.000000 -1.000000 0.000000 0.000000 -1.000000 0.000000 0.000000 -1.000000 0.000000 0.000000 -1.000000 0.000000 0.000000 -1.000000 0.000000 0.000000 -1.000000 0.000000 0.000000 -1.000000 0.000000 0.000000 -1.000000 0.000000 0.000000 -1.000000 0.000000 0.000000 -1.000000 0.000000 0.000000 -1.000000 0.000000 0.000000 -1.000000 0.000000 0.000000 -1.000000 0.000000 0.000000 -1.000000 0.000000 0.000000 -1.000000 0.000000 0.000000 -1.000000 0.000000 0.000000 -1.000000 0.000000 0.000000 -1.000000 0.000000 0.000000 -1.000000 0.000000 0.000000 -1.000000 0.000000 0.000000 -1.000000 0.000000 0.000000 -1.000000 0.000000 0.000000 -1.000000 0.000000 0.000000 -1.000000 0.000000 0.000000 -1.000000 0.000000 0.000000 -1.000000 0.000000 0.000000 -1.000000 0.000000 0.000000 -1.000000 0.000000 0.000000 -1.000000 0.000000 0.000000 -1.000000 0.000000 0.000000 -1.000000 -0.000000 -0.000000 1.000000 -0.000000 -0.000000 1.000000 -0.000000 -0.000000 1.000000 -0.000000 -0.000000 1.000000 -0.000000 -0.000000 1.000000 -0.000000 -0.000000 1.000000 -0.000000 -0.000000 1.000000 -0.000000 -0.000000 1.000000 -0.000000 -0.000000 1.000000 -0.000000 -0.000000 1.000000 -0.000000 -0.000000 1.000000 -0.000000 -0.000000 1.000000 -0.000000 -0.000000 1.000000 -0.000000 -0.000000 1.000000 -0.000000 -0.000000 1.000000 -0.000000 -0.000000 1.000000 -0.000000 -0.000000 1.000000 -0.000000 -0.000000 1.000000 -0.000000 -0.000000 1.000000 -0.000000 -0.000000 1.000000 -0.000000 -0.000000 1.000000 -0.000000 -0.000000 1.000000 -0.000000 -0.000000 1.000000 -0.000000 -0.000000 1.000000 -0.000000 -0.000000 1.000000 -0.000000 -0.000000 1.000000 -0.000000 -0.000000 1.000000 -0.000000 -0.000000 1.000000 -0.000000 -0.000000 1.000000 -0.000000 -0.000000 1.000000 -0.000000 -0.000000 1.000000 -0.000000 -0.000000 1.000000 -0.000000 -0.000000 1.000000 -0.000000 -0.000000 1.000000 -0.000000 -0.000000 1.000000 -0.000000 -0.000000 1.000000 -0.000000 -0.000000 1.000000 -0.000000 -0.000000 1.000000 -0.000000 -0.000000 1.000000 -0.000000 -0.000000 1.000000 -0.000000 -0.000000 1.000000 -0.000000 -0.000000 1.000000 -0.000000 -0.000000 1.000000 -0.000000 -0.000000 1.000000 -0.000000 -0.000000 1.000000 -0.000000 -0.000000 1.000000 -0.000000 -0.000000 1.000000 -0.000000 -0.000000 1.000000 -0.000000 -0.000000 1.000000 -0.000000 -0.000000 1.000000 -0.000000 -0.000000 1.000000 -0.000000 -0.000000 1.000000 -0.000000 -0.000000 1.000000 -0.000000 -0.000000 1.000000 -0.000000 -0.000000 1.000000 -0.000000 -0.000000 1.000000 -0.000000 -0.000000 1.000000 -0.000000 -0.000000 1.000000 -0.000000 -0.000000 1.000000 -0.000000 -0.000000 1.000000 -0.000000 -0.000000 1.000000 -0.000000 -0.000000 1.000000 -0.000000 -0.000000 1.000000 -0.000000 -0.000000 1.000000 -0.000000 -0.000000 1.000000 -0.000000 -0.000000 1.000000 -0.000000 -0.000000 1.000000 -0.000000 -0.000000 1.000000 -0.000000 -0.000000 1.000000 -0.000000 -0.000000 1.000000 -0.000000 -0.000000 1.000000 -0.000000 -0.000000 1.000000 -0.000000 -0.000000 1.000000 -0.000000 -0.000000 1.000000 -0.000000 -0.000000 1.000000 -0.000000 -0.000000 1.000000 -0.000000 -0.000000 1.000000 -0.000000 -0.000000 1.000000 -0.000000 -0.000000 1.000000 -0.000000 -0.000000 1.000000 -0.000000 -0.000000 1.000000 -0.000000 -0.000000 1.000000 -0.000000 -0.000000 1.000000 -0.000000 -0.000000 1.000000 -0.000000 -0.000000 1.000000 -0.000000 -0.000000 1.000000 -0.000000 -0.000000 1.000000 -0.000000 -0.000000 1.000000 -0.000000 -0.000000 1.000000 -0.000000 -0.000000 1.000000 -0.000000 -0.000000 1.000000 -0.000000 -0.000000 1.000000 -0.000000 -0.000000 1.000000 -0.000000 -0.000000 1.000000 -0.000000 -0.000000 1.000000 -0.000000 -0.000000 1.000000 -0.000000 -0.000000 1.000000 -0.000000 -0.000000 1.000000 -0.000000 -0.000000 1.000000 -0.000000 -0.000000 1.000000 -0.000000 -0.000000 1.000000 -0.000000 -0.000000 1.000000 -0.000000 -0.000000 1.000000 -0.000000 -0.000000 1.000000 -0.000000 -0.000000 1.000000 -0.000000 -0.000000 1.000000 -0.000000 -0.000000 1.000000 -0.000000 -0.000000 1.000000 -0.000000 -0.000000 1.000000 -0.000000 -0.000000 1.000000 -0.000000 -0.000000 1.000000 -0.000000 -0.000000 1.000000 -0.000000 -0.000000 1.000000 -0.000000 -0.000000 1.000000 -0.000000 -0.000000 1.000000 -0.000000 -0.000000 1.000000 -0.000000 -0.000000 1.000000 -0.000000 -0.000000 1.000000 -0.000000 -0.000000 1.000000 -0.000000 -0.000000 1.000000 -0.000000 -0.000000 1.000000 -0.000000 -0.000000 1.000000 -0.000000 -0.000000 1.000000 -0.000000 -0.000000 1.000000 -0.000000 -0.000000 1.000000 -0.000000 -0.000000 1.000000 -0.000000 -0.000000 1.000000 -0.000000 -0.000000 1.000000 -0.000000 -0.000000 1.000000 -0.000000 -0.000000 1.000000 -0.000000 -0.000000 1.000000 -0.000000 -0.000000 1.000000 -0.000000 -0.000000 1.000000 -0.000000 -0.000000 1.000000 -0.000000 -0.000000 1.000000 -0.000000 -0.000000 1.000000 -0.000000 -0.000000 1.000000 -0.000000 -0.000000 1.000000 -0.000000 -0.000000 1.000000 -0.000000 -0.000000 1.000000 -0.000000 -0.000000 1.000000 -0.000000 -0.000000 1.000000 -0.000000 -0.000000 1.000000 -0.000000 -0.000000 1.000000 -0.000000 -0.000000 1.000000 -0.000000 -0.000000 1.000000 -0.000000 -0.000000 1.000000 -0.000000 -0.000000 1.000000 -0.000000 -0.000000 1.000000 -0.000000 -0.000000 1.000000 -0.000000 -0.000000 1.000000 -0.000000 -0.000000 1.000000 -0.000000 -0.000000 1.000000 -0.000000 -0.000000 1.000000 -0.000000 -0.000000 1.000000 -0.000000 -0.000000 1.000000 -0.000000 -0.000000 1.000000 -0.000000 -0.000000 1.000000 -0.000000 -0.000000 1.000000</float_array>
          <technique_common>
            <accessor source="#HipRollMountRight-mesh-normals-array" count="1324" stride="3">
              <param name="X" type="float"/>
              <param name="Y" type="float"/>
              <param name="Z" type="float"/>
            </accessor>
          </technique_common>
        </source>
        <vertices id="HipRollMountRight-mesh-vertices">
          <input semantic="POSITION" source="#HipRollMountRight-mesh-positions"/>
        </vertices>
        <triangles material="Aluminum_-_Polished" count="1404">
          <input semantic="VERTEX" source="#HipRollMountRight-mesh-vertices" offset="0"/>
          <input semantic="NORMAL" source="#HipRollMountRight-mesh-normals" offset="1"/>
          <p>1 0 14 1 0 2 0 2 14 1 15 3 0 2 15 3 16 4 16 4 15 3 20 5 16 4 20 5 21 6 21 6 20 5 25 7 21 6 25 7 10 8 10 8 25 7 9 9 9 9 25 7 29 10 9 9 29 10 8 11 8 11 29 10 33 12 8 11 33 12 7 13 7 13 33 12 32 14 7 13 32 14 31 15 31 15 32 14 27 16 31 15 27 16 26 17 26 17 27 16 22 18 26 17 22 18 3 19 3 19 22 18 2 20 2 20 22 18 18 21 2 20 18 21 1 0 1 0 18 21 14 1 3 19 4 22 26 17 26 17 4 22 30 23 26 17 30 23 31 15 31 15 30 23 6 24 31 15 6 24 7 13 4 22 5 25 30 23 30 23 5 25 6 24 10 8 11 26 21 6 21 6 11 26 17 27 21 6 17 27 16 4 16 4 17 27 13 28 16 4 13 28 0 2 11 26 12 29 17 27 17 27 12 29 13 28 15 3 14 1 19 30 19 30 14 1 18 21 19 30 18 21 23 31 23 31 18 21 22 18 23 31 22 18 27 16 15 3 19 30 20 5 20 5 19 30 24 32 20 5 24 32 25 7 25 7 24 32 29 10 24 32 19 30 23 31 24 32 23 31 28 33 28 33 23 31 27 16 28 33 27 16 32 14 33 12 29 10 28 33 28 33 29 10 24 32 33 12 28 33 32 14 35 34 98 35 34 36 34 36 98 35 99 37 34 36 99 37 57 38 57 38 99 37 100 39 57 38 100 39 56 40 56 40 100 39 144 41 56 40 144 41 60 42 60 42 144 41 116 43 60 42 116 43 59 44 59 44 116 43 117 45 59 44 117 45 58 46 58 46 117 45 118 47 58 46 118 47 81 48 81 48 118 47 119 49 81 48 119 49 80 50 80 50 119 49 120 51 80 50 120 51 79 52 79 52 120 51 121 53 79 52 121 53 78 54 78 54 121 53 122 55 78 54 122 55 13 28 13 28 122 55 0 2 0 2 122 55 123 56 0 2 123 56 124 57 98 35 35 34 97 58 97 58 35 34 36 59 97 58 36 59 96 60 96 60 36 59 37 61 96 60 37 61 95 62 95 62 37 61 38 63 95 62 38 63 94 64 94 64 38 63 39 65 94 64 39 65 160 66 160 66 39 65 159 67 159 67 39 65 158 68 158 68 39 65 40 69 158 68 40 69 157 70 157 70 40 69 41 71 157 70 41 71 42 72 157 70 42 72 156 73 156 73 42 72 43 74 156 73 43 74 44 75 156 73 44 75 155 76 155 76 44 75 45 77 155 76 45 77 46 78 155 76 46 78 154 79 154 79 46 78 47 80 154 79 47 80 48 81 48 81 49 82 154 79 154 79 49 82 50 83 154 79 50 83 66 84 66 84 50 83 51 85 66 84 51 85 65 86 65 86 51 85 52 87 65 86 52 87 64 88 64 88 52 87 63 89 63 89 52 87 53 90 63 89 53 90 62 91 62 91 53 90 54 92 62 91 54 92 61 93 61 93 54 92 55 94 61 93 55 94 56 40 60 42 61 93 56 40 66 84 67 95 154 79 154 79 67 95 68 96 154 79 68 96 69 97 69 97 70 98 154 79 154 79 70 98 13 28 13 28 70 98 71 99 13 28 71 99 72 100 72 100 73 101 13 28 13 28 73 101 74 102 13 28 74 102 75 103 75 103 76 104 13 28 13 28 76 104 77 105 13 28 77 105 78 54 83 106 161 107 82 108 82 108 161 107 137 109 82 108 137 109 138 110 83 106 84 111 161 107 161 107 84 111 85 112 161 107 85 112 86 113 86 113 87 114 161 107 161 107 87 114 88 115 161 107 88 115 160 66 160 66 88 115 89 116 160 66 89 116 90 117 90 117 91 118 160 66 160 66 91 118 92 119 160 66 92 119 93 120 93 120 94 64 160 66 144 41 100 39 143 121 143 121 100 39 101 122 143 121 101 122 142 123 142 123 101 122 102 124 142 123 102 124 141 125 141 125 102 124 103 126 141 125 103 126 140 127 140 127 103 126 104 128 140 127 104 128 139 129 139 129 104 128 105 130 139 129 105 130 138 110 138 110 105 130 82 108 107 131 167 132 106 133 106 133 167 132 0 2 106 133 0 2 129 134 129 134 0 2 128 135 128 135 0 2 127 136 127 136 0 2 126 137 126 137 0 2 125 138 125 138 0 2 124 57 107 131 108 139 167 132 167 132 108 139 109 140 167 132 109 140 110 141 111 142 149 143 110 141 110 141 149 143 150 144 110 141 150 144 167 132 167 132 150 144 151 145 167 132 151 145 152 146 149 143 111 142 148 147 148 147 111 142 112 148 148 147 112 148 113 149 148 147 113 149 147 150 147 150 113 149 114 151 147 150 114 151 146 152 146 152 114 151 115 153 146 152 115 153 145 154 145 154 115 153 116 43 145 154 116 43 144 41 131 155 166 156 130 157 130 157 166 156 167 132 130 157 167 132 153 158 153 158 167 132 152 146 131 155 132 159 166 156 166 156 132 159 165 160 165 160 132 159 133 161 165 160 133 161 134 162 165 160 134 162 164 163 164 163 134 162 135 164 164 163 135 164 136 165 164 163 136 165 163 166 163 166 136 165 137 109 163 166 137 109 162 167 162 167 137 109 161 107 5 168 4 169 6 170 6 170 4 169 3 171 6 170 3 171 2 172 2 172 1 173 6 170 6 170 1 173 0 174 6 170 0 174 175 175 175 175 0 174 174 176 174 176 0 174 173 177 173 177 0 174 172 178 172 178 0 174 171 179 171 179 0 174 170 180 170 180 0 174 169 181 169 181 0 174 167 182 169 181 167 182 168 183 176 184 177 185 175 175 175 175 177 185 6 170 179 186 185 187 178 188 178 188 185 187 186 189 178 188 186 189 187 190 187 190 186 189 191 191 187 190 191 191 192 192 192 192 191 191 196 193 192 192 196 193 172 194 172 194 196 193 173 195 173 195 196 193 200 196 173 195 200 196 174 197 174 197 200 196 204 198 174 197 204 198 175 199 175 199 204 198 203 200 175 199 203 200 202 201 202 201 203 200 198 202 202 201 198 202 197 203 197 203 198 202 193 204 197 203 193 204 181 205 181 205 193 204 180 206 180 206 193 204 189 207 180 206 189 207 179 186 179 186 189 207 185 187 181 205 182 208 197 203 197 203 182 208 201 209 197 203 201 209 202 201 202 201 201 209 184 210 202 201 184 210 175 199 182 208 183 211 201 209 201 209 183 211 184 210 172 194 171 212 192 192 192 192 171 212 188 213 192 192 188 213 187 190 187 190 188 213 169 214 187 190 169 214 178 188 171 212 170 215 188 213 188 213 170 215 169 214 186 189 185 187 190 216 190 216 185 187 189 207 190 216 189 207 194 217 194 217 189 207 193 204 194 217 193 204 198 202 186 189 190 216 191 191 191 191 190 216 195 218 191 191 195 218 196 193 196 193 195 218 200 196 195 218 190 216 194 217 195 218 194 217 199 219 199 219 194 217 198 202 199 219 198 202 203 200 204 198 200 196 199 219 199 219 200 196 195 218 204 198 199 219 203 200 169 214 247 220 178 188 178 188 247 220 248 221 178 188 248 221 249 222 168 223 313 224 169 214 169 214 313 224 290 225 169 214 290 225 291 226 205 227 314 228 168 223 168 223 314 228 315 229 168 223 315 229 316 230 206 231 335 232 205 227 205 227 335 232 336 233 205 227 336 233 337 234 207 235 333 236 206 231 206 231 333 236 334 237 206 231 334 237 335 232 333 236 207 235 332 238 332 238 207 235 208 239 332 238 208 239 331 240 331 240 208 239 209 241 331 240 209 241 266 242 266 242 209 241 210 243 266 242 210 243 289 244 289 244 210 243 288 245 288 245 210 243 287 246 287 246 210 243 286 247 286 247 210 243 285 248 285 248 210 243 284 249 284 249 210 243 211 250 284 249 211 250 283 251 283 251 211 250 282 252 282 252 211 250 281 253 281 253 211 250 280 254 280 254 211 250 279 255 279 255 211 250 278 256 278 256 211 250 212 257 278 256 212 257 237 258 237 258 212 257 213 259 237 258 213 259 236 260 236 260 213 259 214 261 236 260 214 261 235 262 235 262 214 261 215 263 235 262 215 263 234 264 234 264 215 263 233 265 233 265 215 263 216 266 233 265 216 266 232 267 232 267 216 266 231 268 231 268 216 266 230 269 230 269 216 266 217 270 230 269 217 270 229 271 229 271 217 270 228 272 228 272 217 270 227 273 227 273 217 270 226 274 226 274 217 270 258 275 226 274 258 275 225 276 225 276 258 275 259 277 225 276 259 277 224 278 224 278 259 277 260 279 224 278 260 279 261 280 178 188 255 281 217 270 217 270 255 281 256 282 217 270 256 282 257 283 241 284 218 285 273 286 273 286 218 285 219 287 273 286 219 287 272 288 272 288 219 287 325 289 272 288 325 289 271 290 271 290 325 289 326 291 271 290 326 291 327 292 325 289 219 287 324 293 324 293 219 287 220 294 324 293 220 294 323 295 323 295 220 294 221 296 323 295 221 296 305 297 305 297 221 296 263 298 305 297 263 298 304 299 304 299 263 298 264 300 304 299 264 300 303 301 303 301 264 300 265 302 303 301 265 302 302 303 302 303 265 302 242 304 302 303 242 304 301 305 301 305 242 304 243 306 301 305 243 306 300 307 300 307 243 306 244 308 300 307 244 308 299 309 299 309 244 308 245 310 299 309 245 310 298 311 298 311 245 310 246 312 298 311 246 312 297 313 297 313 246 312 247 220 297 313 247 220 169 214 221 296 222 314 263 298 263 298 222 314 262 315 262 315 222 314 223 316 262 315 223 316 261 280 261 280 223 316 224 278 278 256 237 258 277 317 277 317 237 258 238 318 277 317 238 318 276 319 276 319 238 318 239 320 276 319 239 320 275 321 275 321 239 320 240 322 275 321 240 322 274 323 274 323 240 322 241 284 274 323 241 284 273 286 249 222 250 324 178 188 178 188 250 324 251 325 178 188 251 325 252 326 252 326 253 327 178 188 178 188 253 327 254 328 178 188 254 328 255 281 257 283 258 275 217 270 266 242 267 329 331 240 331 240 267 329 330 330 330 330 267 329 268 331 330 330 268 331 329 332 329 332 268 331 269 333 329 332 269 333 328 334 328 334 269 333 270 335 328 334 270 335 327 292 327 292 270 335 271 290 291 226 292 336 169 214 169 214 292 336 293 337 169 214 293 337 294 338 294 338 295 339 169 214 169 214 295 339 296 340 169 214 296 340 297 313 323 295 305 297 322 341 322 341 305 297 306 342 322 341 306 342 321 343 321 343 306 342 307 344 321 343 307 344 320 345 320 345 307 344 308 346 320 345 308 346 309 347 320 345 309 347 319 348 319 348 309 347 310 349 319 348 310 349 318 350 318 350 310 349 168 223 318 350 168 223 317 351 317 351 168 223 316 230 310 349 311 352 168 223 168 223 311 352 312 353 168 223 312 353 313 224 337 234 314 228 205 227 211 354 160 355 212 356 212 356 160 355 159 357 212 356 159 357 213 358 213 358 159 357 158 359 213 358 158 359 214 360 214 360 158 359 157 361 214 360 157 361 215 362 215 362 157 361 156 363 215 362 156 363 216 364 216 364 156 363 155 365 216 364 155 365 217 366 217 366 155 365 154 367 12 368 7 369 13 370 13 370 7 369 184 371 13 370 184 371 183 372 12 368 11 373 7 369 7 369 11 373 10 374 7 369 10 374 9 375 9 375 8 376 7 369 7 369 338 377 184 371 184 371 338 377 339 378 183 372 182 379 13 370 13 370 182 379 181 380 13 370 181 380 180 381 180 381 179 382 13 370 13 370 179 382 178 383 13 370 178 383 154 367 154 367 178 383 217 366 161 384 210 385 162 386 162 386 210 385 209 387 162 386 209 387 163 388 163 388 209 387 208 389 163 388 208 389 164 390 164 390 208 389 207 391 164 390 207 391 165 392 165 392 207 391 206 393 165 392 206 393 166 394 166 394 206 393 205 395 166 394 205 395 167 182 167 182 205 395 168 183 337 396 131 397 314 398 314 398 131 397 130 399 314 398 130 399 315 400 315 400 130 399 153 401 315 400 153 401 316 402 316 402 153 401 152 403 316 402 152 403 317 404 317 404 152 403 151 405 317 404 151 405 318 406 318 406 151 405 150 407 318 406 150 407 319 408 319 408 150 407 149 409 319 408 149 409 320 410 320 410 149 409 148 411 320 410 148 411 321 412 321 412 148 411 147 413 321 412 147 413 322 414 322 414 147 413 146 415 322 414 146 415 323 416 323 416 146 415 145 417 323 416 145 417 324 418 324 418 145 417 144 419 324 418 144 419 325 420 325 420 144 419 143 421 325 420 143 421 326 422 326 422 143 421 142 423 326 422 142 423 327 424 327 424 142 423 141 425 327 424 141 425 328 426 328 426 141 425 140 427 328 426 140 427 329 428 329 428 140 427 139 429 329 428 139 429 330 430 330 430 139 429 138 431 330 430 138 431 331 432 331 432 138 431 137 433 331 432 137 433 332 434 332 434 137 433 136 435 332 434 136 435 333 436 333 436 136 435 135 437 333 436 135 437 334 438 334 438 135 437 134 439 334 438 134 439 335 440 335 440 134 439 133 441 335 440 133 441 336 442 336 442 133 441 132 443 336 442 132 443 337 396 337 396 132 443 131 397 313 444 107 445 290 446 290 446 107 445 106 447 290 446 106 447 291 448 291 448 106 447 129 449 291 448 129 449 292 450 292 450 129 449 128 451 292 450 128 451 293 452 293 452 128 451 127 453 293 452 127 453 294 454 294 454 127 453 126 455 294 454 126 455 295 456 295 456 126 455 125 457 295 456 125 457 296 458 296 458 125 457 124 459 296 458 124 459 297 460 297 460 124 459 123 461 297 460 123 461 298 462 298 462 123 461 122 463 298 462 122 463 299 464 299 464 122 463 121 465 299 464 121 465 300 466 300 466 121 465 120 467 300 466 120 467 301 468 301 468 120 467 119 469 301 468 119 469 302 470 302 470 119 469 118 471 302 470 118 471 303 472 303 472 118 471 117 473 303 472 117 473 304 474 304 474 117 473 116 475 304 474 116 475 305 476 305 476 116 475 115 477 305 476 115 477 306 478 306 478 115 477 114 479 306 478 114 479 307 480 307 480 114 479 113 481 307 480 113 481 308 482 308 482 113 481 112 483 308 482 112 483 309 484 309 484 112 483 111 485 309 484 111 485 310 486 310 486 111 485 110 487 310 486 110 487 311 488 311 488 110 487 109 489 311 488 109 489 312 490 312 490 109 489 108 491 312 490 108 491 313 444 313 444 108 491 107 445 289 492 83 493 266 494 266 494 83 493 82 495 266 494 82 495 267 496 267 496 82 495 105 497 267 496 105 497 268 498 268 498 105 497 104 499 268 498 104 499 269 500 269 500 104 499 103 501 269 500 103 501 270 502 270 502 103 501 102 503 270 502 102 503 271 504 271 504 102 503 101 505 271 504 101 505 272 506 272 506 101 505 100 507 272 506 100 507 273 508 273 508 100 507 99 509 273 508 99 509 274 510 274 510 99 509 98 511 274 510 98 511 275 512 275 512 98 511 97 513 275 512 97 513 276 514 276 514 97 513 96 515 276 514 96 515 277 516 277 516 96 515 95 517 277 516 95 517 278 518 278 518 95 517 94 519 278 518 94 519 279 520 279 520 94 519 93 521 279 520 93 521 280 522 280 522 93 521 92 523 280 522 92 523 281 524 281 524 92 523 91 525 281 524 91 525 282 526 282 526 91 525 90 527 282 526 90 527 283 528 283 528 90 527 89 529 283 528 89 529 284 530 284 530 89 529 88 531 284 530 88 531 285 532 285 532 88 531 87 533 285 532 87 533 286 534 286 534 87 533 86 535 286 534 86 535 287 536 287 536 86 535 85 537 287 536 85 537 288 538 288 538 85 537 84 539 288 538 84 539 289 492 289 492 84 539 83 493 265 540 59 541 242 542 242 542 59 541 58 543 242 542 58 543 243 544 243 544 58 543 81 545 243 544 81 545 244 546 244 546 81 545 80 547 244 546 80 547 245 548 245 548 80 547 79 549 245 548 79 549 246 550 246 550 79 549 78 551 246 550 78 551 247 552 247 552 78 551 77 553 247 552 77 553 248 554 248 554 77 553 76 555 248 554 76 555 249 556 249 556 76 555 75 557 249 556 75 557 250 558 250 558 75 557 74 559 250 558 74 559 251 560 251 560 74 559 73 561 251 560 73 561 252 562 252 562 73 561 72 563 252 562 72 563 253 564 253 564 72 563 71 565 253 564 71 565 254 566 254 566 71 565 70 567 254 566 70 567 255 568 255 568 70 567 69 569 255 568 69 569 256 570 256 570 69 569 68 571 256 570 68 571 257 572 257 572 68 571 67 573 257 572 67 573 258 574 258 574 67 573 66 575 258 574 66 575 259 576 259 576 66 575 65 577 259 576 65 577 260 578 260 578 65 577 64 579 260 578 64 579 261 580 261 580 64 579 63 581 261 580 63 581 262 582 262 582 63 581 62 583 262 582 62 583 263 584 263 584 62 583 61 585 263 584 61 585 264 586 264 586 61 585 60 587 264 586 60 587 265 540 265 540 60 587 59 541 241 588 35 589 218 590 218 590 35 589 34 591 218 590 34 591 219 592 219 592 34 591 57 593 219 592 57 593 220 594 220 594 57 593 56 595 220 594 56 595 221 596 221 596 56 595 55 597 221 596 55 597 222 598 222 598 55 597 54 599 222 598 54 599 223 600 223 600 54 599 53 601 223 600 53 601 224 602 224 602 53 601 52 603 224 602 52 603 225 604 225 604 52 603 51 605 225 604 51 605 226 606 226 606 51 605 50 607 226 606 50 607 227 608 227 608 50 607 49 609 227 608 49 609 228 610 228 610 49 609 48 611 228 610 48 611 229 612 229 612 48 611 47 613 229 612 47 613 230 614 230 614 47 613 46 615 230 614 46 615 231 616 231 616 46 615 45 617 231 616 45 617 232 618 232 618 45 617 44 619 232 618 44 619 233 620 233 620 44 619 43 621 233 620 43 621 234 622 234 622 43 621 42 623 234 622 42 623 235 624 235 624 42 623 41 625 235 624 41 625 236 626 236 626 41 625 40 627 236 626 40 627 237 628 237 628 40 627 39 629 237 628 39 629 238 630 238 630 39 629 38 631 238 630 38 631 239 632 239 632 38 631 37 633 239 632 37 633 240 634 240 634 37 633 36 635 240 634 36 635 241 588 241 588 36 635 35 589 160 355 211 354 161 384 161 384 211 354 210 385 184 210 346 636 175 199 175 199 346 636 347 637 175 199 347 637 348 638 339 639 340 640 184 210 184 210 340 640 341 641 184 210 341 641 342 642 342 642 343 643 184 210 184 210 343 643 344 644 184 210 344 644 345 645 345 645 346 636 184 210 348 638 349 646 175 199 175 199 349 646 350 647 175 199 350 647 351 648 351 648 352 649 175 199 175 199 352 649 176 650 338 377 353 651 339 378 339 378 353 651 386 652 339 378 386 652 387 653 353 651 354 654 386 652 386 652 354 654 385 655 385 655 354 654 355 656 385 655 355 656 384 657 384 657 355 656 356 658 384 657 356 658 383 659 383 659 356 658 357 660 383 659 357 660 382 661 382 661 357 660 358 662 382 661 358 662 381 663 381 663 358 662 359 664 381 663 359 664 380 665 380 665 359 664 360 666 380 665 360 666 379 667 379 667 360 666 361 668 379 667 361 668 378 669 378 669 361 668 362 670 378 669 362 670 377 671 377 671 362 670 363 672 377 671 363 672 376 673 376 673 363 672 364 674 376 673 364 674 375 675 375 675 364 674 365 676 375 675 365 676 374 677 374 677 365 676 176 184 374 677 176 184 373 678 373 678 176 184 352 679 373 678 352 679 372 680 372 680 352 679 351 681 372 680 351 681 371 682 371 682 351 681 350 683 371 682 350 683 370 684 370 684 350 683 349 685 370 684 349 685 369 686 369 686 349 685 348 687 369 686 348 687 368 688 368 688 348 687 347 689 368 688 347 689 367 690 367 690 347 689 366 691 366 691 347 689 346 692 366 691 346 692 393 693 393 693 346 692 345 694 393 693 345 694 344 695 365 676 177 185 176 184 393 693 344 695 392 696 392 696 344 695 343 697 392 696 343 697 391 698 391 698 343 697 342 699 391 698 342 699 390 700 390 700 342 699 341 701 390 700 341 701 389 702 389 702 341 701 340 703 389 702 340 703 388 704 388 704 340 703 339 378 388 704 339 378 387 653 395 705 441 706 394 707 394 707 441 706 418 708 394 707 418 708 417 709 417 709 418 708 419 710 417 709 419 710 416 711 416 711 419 710 420 712 416 711 420 712 415 713 415 713 420 712 421 714 415 713 421 714 414 715 414 715 421 714 422 716 414 715 422 716 413 717 413 717 422 716 423 718 413 717 423 718 412 719 412 719 423 718 424 720 412 719 424 720 411 721 411 721 424 720 425 722 411 721 425 722 410 723 410 723 425 722 426 724 410 723 426 724 409 725 409 725 426 724 427 726 409 725 427 726 408 727 408 727 427 726 428 728 408 727 428 728 407 729 407 729 428 728 429 730 407 729 429 730 406 731 406 731 429 730 430 732 406 731 430 732 405 733 405 733 430 732 431 734 405 733 431 734 404 735 404 735 431 734 432 736 404 735 432 736 403 737 403 737 432 736 433 738 403 737 433 738 402 739 402 739 433 738 434 740 402 739 434 740 401 741 401 741 434 740 435 742 401 741 435 742 400 743 400 743 435 742 436 744 400 743 436 744 399 745 399 745 436 744 437 746 399 745 437 746 398 747 398 747 437 746 438 748 398 747 438 748 397 749 397 749 438 748 439 750 397 749 439 750 396 751 396 751 439 750 440 752 396 751 440 752 395 705 395 705 440 752 441 706 443 753 489 754 442 755 442 755 489 754 466 756 442 755 466 756 465 757 465 757 466 756 467 758 465 757 467 758 464 759 464 759 467 758 468 760 464 759 468 760 463 761 463 761 468 760 469 762 463 761 469 762 462 763 462 763 469 762 470 764 462 763 470 764 461 765 461 765 470 764 471 766 461 765 471 766 460 767 460 767 471 766 472 768 460 767 472 768 459 769 459 769 472 768 473 770 459 769 473 770 458 771 458 771 473 770 474 772 458 771 474 772 457 773 457 773 474 772 475 774 457 773 475 774 456 775 456 775 475 774 476 776 456 775 476 776 455 777 455 777 476 776 477 778 455 777 477 778 454 779 454 779 477 778 478 780 454 779 478 780 453 781 453 781 478 780 479 782 453 781 479 782 452 783 452 783 479 782 480 784 452 783 480 784 451 785 451 785 480 784 481 786 451 785 481 786 450 787 450 787 481 786 482 788 450 787 482 788 449 789 449 789 482 788 483 790 449 789 483 790 448 791 448 791 483 790 484 792 448 791 484 792 447 793 447 793 484 792 485 794 447 793 485 794 446 795 446 795 485 794 486 796 446 795 486 796 445 797 445 797 486 796 487 798 445 797 487 798 444 799 444 799 487 798 488 800 444 799 488 800 443 753 443 753 488 800 489 754 491 801 537 802 490 803 490 803 537 802 514 804 490 803 514 804 513 805 513 805 514 804 515 806 513 805 515 806 512 807 512 807 515 806 516 808 512 807 516 808 511 809 511 809 516 808 517 810 511 809 517 810 510 811 510 811 517 810 518 812 510 811 518 812 509 813 509 813 518 812 519 814 509 813 519 814 508 815 508 815 519 814 520 816 508 815 520 816 507 817 507 817 520 816 521 818 507 817 521 818 506 819 506 819 521 818 522 820 506 819 522 820 505 821 505 821 522 820 523 822 505 821 523 822 504 823 504 823 523 822 524 824 504 823 524 824 503 825 503 825 524 824 525 826 503 825 525 826 502 827 502 827 525 826 526 828 502 827 526 828 501 829 501 829 526 828 527 830 501 829 527 830 500 831 500 831 527 830 528 832 500 831 528 832 499 833 499 833 528 832 529 834 499 833 529 834 498 835 498 835 529 834 530 836 498 835 530 836 497 837 497 837 530 836 531 838 497 837 531 838 496 839 496 839 531 838 532 840 496 839 532 840 495 841 495 841 532 840 533 842 495 841 533 842 494 843 494 843 533 842 534 844 494 843 534 844 493 845 493 845 534 844 535 846 493 845 535 846 492 847 492 847 535 846 536 848 492 847 536 848 491 801 491 801 536 848 537 802 539 849 585 850 538 851 538 851 585 850 562 852 538 851 562 852 561 853 561 853 562 852 563 854 561 853 563 854 560 855 560 855 563 854 564 856 560 855 564 856 559 857 559 857 564 856 565 858 559 857 565 858 558 859 558 859 565 858 566 860 558 859 566 860 557 861 557 861 566 860 567 862 557 861 567 862 556 863 556 863 567 862 568 864 556 863 568 864 555 865 555 865 568 864 569 866 555 865 569 866 554 867 554 867 569 866 570 868 554 867 570 868 553 869 553 869 570 868 571 870 553 869 571 870 552 871 552 871 571 870 572 872 552 871 572 872 551 873 551 873 572 872 573 874 551 873 573 874 550 875 550 875 573 874 574 876 550 875 574 876 549 877 549 877 574 876 575 878 549 877 575 878 548 879 548 879 575 878 576 880 548 879 576 880 547 881 547 881 576 880 577 882 547 881 577 882 546 883 546 883 577 882 578 884 546 883 578 884 545 885 545 885 578 884 579 886 545 885 579 886 544 887 544 887 579 886 580 888 544 887 580 888 543 889 543 889 580 888 581 890 543 889 581 890 542 891 542 891 581 890 582 892 542 891 582 892 541 893 541 893 582 892 583 894 541 893 583 894 540 895 540 895 583 894 584 896 540 895 584 896 539 849 539 849 584 896 585 850 587 897 633 898 586 899 586 899 633 898 610 900 586 899 610 900 609 901 609 901 610 900 611 902 609 901 611 902 608 903 608 903 611 902 612 904 608 903 612 904 607 905 607 905 612 904 613 906 607 905 613 906 606 907 606 907 613 906 614 908 606 907 614 908 605 909 605 909 614 908 615 910 605 909 615 910 604 911 604 911 615 910 616 912 604 911 616 912 603 913 603 913 616 912 617 914 603 913 617 914 602 915 602 915 617 914 618 916 602 915 618 916 601 917 601 917 618 916 619 918 601 917 619 918 600 919 600 919 619 918 620 920 600 919 620 920 599 921 599 921 620 920 621 922 599 921 621 922 598 923 598 923 621 922 622 924 598 923 622 924 597 925 597 925 622 924 623 926 597 925 623 926 596 927 596 927 623 926 624 928 596 927 624 928 595 929 595 929 624 928 625 930 595 929 625 930 594 931 594 931 625 930 626 932 594 931 626 932 593 933 593 933 626 932 627 934 593 933 627 934 592 935 592 935 627 934 628 936 592 935 628 936 591 937 591 937 628 936 629 938 591 937 629 938 590 939 590 939 629 938 630 940 590 939 630 940 589 941 589 941 630 940 631 942 589 941 631 942 588 943 588 943 631 942 632 944 588 943 632 944 587 897 587 897 632 944 633 898 635 945 681 946 634 947 634 947 681 946 658 948 634 947 658 948 657 949 657 949 658 948 659 950 657 949 659 950 656 951 656 951 659 950 660 952 656 951 660 952 655 953 655 953 660 952 661 954 655 953 661 954 654 955 654 955 661 954 662 956 654 955 662 956 653 957 653 957 662 956 663 958 653 957 663 958 652 959 652 959 663 958 664 960 652 959 664 960 651 961 651 961 664 960 665 962 651 961 665 962 650 963 650 963 665 962 666 964 650 963 666 964 649 965 649 965 666 964 667 966 649 965 667 966 648 967 648 967 667 966 668 968 648 967 668 968 647 969 647 969 668 968 669 970 647 969 669 970 646 971 646 971 669 970 670 972 646 971 670 972 645 973 645 973 670 972 671 974 645 973 671 974 644 975 644 975 671 974 672 976 644 975 672 976 643 977 643 977 672 976 673 978 643 977 673 978 642 979 642 979 673 978 674 980 642 979 674 980 641 981 641 981 674 980 675 982 641 981 675 982 640 983 640 983 675 982 676 984 640 983 676 984 639 985 639 985 676 984 677 986 639 985 677 986 638 987 638 987 677 986 678 988 638 987 678 988 637 989 637 989 678 988 679 990 637 989 679 990 636 991 636 991 679 990 680 992 636 991 680 992 635 945 635 945 680 992 681 946 635 993 634 994 392 995 392 995 634 994 657 996 392 995 657 996 393 997 393 997 657 996 656 998 393 997 656 998 655 999 393 997 655 999 366 1000 366 1000 655 999 654 1001 366 1000 654 1001 542 1002 542 1002 654 1001 543 1003 543 1003 654 1001 653 1004 543 1003 653 1004 544 1005 544 1005 653 1004 652 1006 544 1005 652 1006 545 1007 545 1007 652 1006 651 1008 545 1007 651 1008 546 1009 546 1009 651 1008 650 1010 546 1009 650 1010 547 1011 547 1011 650 1010 649 1012 547 1011 649 1012 548 1013 548 1013 649 1012 648 1014 548 1013 648 1014 608 1015 608 1015 648 1014 412 1016 608 1015 412 1016 609 1017 609 1017 412 1016 411 1018 609 1017 411 1018 586 1019 586 1019 411 1018 410 1020 586 1019 410 1020 587 1021 587 1021 410 1020 409 1022 587 1021 409 1022 588 1023 588 1023 409 1022 408 1024 588 1023 408 1024 589 1025 589 1025 408 1024 407 1026 589 1025 407 1026 590 1027 590 1027 407 1026 406 1028 590 1027 406 1028 385 1029 385 1029 406 1028 405 1030 385 1029 405 1030 404 1031 648 1014 647 1032 412 1016 412 1016 647 1032 413 1033 413 1033 647 1032 646 1034 413 1033 646 1034 414 1035 414 1035 646 1034 645 1036 414 1035 645 1036 415 1037 415 1037 645 1036 644 1038 415 1037 644 1038 416 1039 416 1039 644 1038 643 1040 416 1039 643 1040 417 1041 417 1041 643 1040 642 1042 417 1041 642 1042 394 1043 394 1043 642 1042 389 1044 394 1043 389 1044 395 1045 395 1045 389 1044 396 1046 396 1046 389 1044 388 1047 396 1046 388 1047 397 1048 397 1048 388 1047 398 1049 398 1049 388 1047 387 1050 398 1049 387 1050 399 1051 399 1051 387 1050 400 1052 400 1052 387 1050 401 1053 401 1053 387 1050 402 1054 402 1054 387 1050 386 1055 402 1054 386 1055 403 1056 403 1056 386 1055 404 1031 404 1031 386 1055 385 1029 389 1044 642 1042 390 1057 390 1057 642 1042 641 1058 390 1057 641 1058 640 1059 640 1059 639 1060 390 1057 390 1057 639 1060 391 1061 391 1061 639 1060 638 1062 391 1061 638 1062 637 1063 391 1061 637 1063 392 995 392 995 637 1063 636 1064 392 995 636 1064 635 993 548 1013 608 1015 444 1065 444 1065 608 1015 607 1066 444 1065 607 1066 445 1067 445 1067 607 1066 606 1068 445 1067 606 1068 446 1069 446 1069 606 1068 605 1070 446 1069 605 1070 447 1071 447 1071 605 1070 604 1072 447 1071 604 1072 448 1073 448 1073 604 1072 449 1074 449 1074 604 1072 603 1075 449 1074 603 1075 450 1076 450 1076 603 1075 602 1077 450 1076 602 1077 380 1078 380 1078 602 1077 601 1079 380 1078 601 1079 381 1080 381 1080 601 1079 600 1081 381 1080 600 1081 599 1082 381 1080 599 1082 382 1083 382 1083 599 1082 598 1084 382 1083 598 1084 597 1085 597 1085 596 1086 382 1083 382 1083 596 1086 595 1087 382 1083 595 1087 383 1088 383 1088 595 1087 594 1089 383 1088 594 1089 593 1090 383 1088 593 1090 384 1091 384 1091 593 1090 592 1092 384 1091 592 1092 591 1093 591 1093 590 1027 384 1091 384 1091 590 1027 385 1029 539 1094 538 1095 368 1096 368 1096 538 1095 561 1097 368 1096 561 1097 560 1098 560 1098 559 1099 368 1096 368 1096 559 1099 369 1100 369 1100 559 1099 558 1101 369 1100 558 1101 557 1102 369 1100 557 1102 370 1103 370 1103 557 1102 556 1104 370 1103 556 1104 555 1105 555 1105 554 1106 370 1103 370 1103 554 1106 371 1107 371 1107 554 1106 490 1108 371 1107 490 1108 513 1109 490 1108 554 1106 491 1110 491 1110 554 1106 553 1111 491 1110 553 1111 492 1112 492 1112 553 1111 552 1113 492 1112 552 1113 493 1114 493 1114 552 1113 551 1115 493 1114 551 1115 494 1116 494 1116 551 1115 550 1117 494 1116 550 1117 495 1118 495 1118 550 1117 549 1119 495 1118 549 1119 496 1120 496 1120 549 1119 548 1013 496 1120 548 1013 444 1065 542 1002 541 1121 366 1000 366 1000 541 1121 367 1122 367 1122 541 1121 540 1123 367 1122 540 1123 539 1094 367 1122 539 1094 368 1096 513 1109 512 1124 371 1107 371 1107 512 1124 372 1125 372 1125 512 1124 511 1126 372 1125 511 1126 510 1127 372 1125 510 1127 373 1128 373 1128 510 1127 509 1129 373 1128 509 1129 508 1130 508 1130 507 1131 373 1128 373 1128 507 1131 506 1132 373 1128 506 1132 374 1133 374 1133 506 1132 505 1134 374 1133 505 1134 504 1135 374 1133 504 1135 375 1136 375 1136 504 1135 503 1137 375 1136 503 1137 502 1138 375 1136 502 1138 462 1139 462 1139 502 1138 501 1140 462 1139 501 1140 463 1141 463 1141 501 1140 500 1142 463 1141 500 1142 464 1143 464 1143 500 1142 499 1144 464 1143 499 1144 465 1145 465 1145 499 1144 498 1146 465 1145 498 1146 442 1147 442 1147 498 1146 497 1148 442 1147 497 1148 443 1149 443 1149 497 1148 496 1120 443 1149 496 1120 444 1065 375 1136 462 1139 376 1150 376 1150 462 1139 461 1151 376 1150 461 1151 460 1152 460 1152 459 1153 376 1150 376 1150 459 1153 377 1154 377 1154 459 1153 458 1155 377 1154 458 1155 457 1156 377 1154 457 1156 378 1157 378 1157 457 1156 456 1158 378 1157 456 1158 455 1159 455 1159 454 1160 378 1157 378 1157 454 1160 453 1161 378 1157 453 1161 379 1162 379 1162 453 1161 452 1163 379 1162 452 1163 451 1164 379 1162 451 1164 380 1078 380 1078 451 1164 450 1076 6 24 660 1165 7 13 7 13 660 1165 659 1166 7 13 659 1166 658 1167 177 1168 567 1169 6 24 6 24 567 1169 566 1170 6 24 566 1170 565 1171 365 1172 520 1173 177 1168 177 1168 520 1173 519 1174 177 1168 519 1174 518 1175 520 1173 365 1172 521 1176 521 1176 365 1172 364 1177 521 1176 364 1177 522 1178 522 1178 364 1177 523 1179 523 1179 364 1177 363 1180 523 1179 363 1180 524 1181 524 1181 363 1180 525 1182 525 1182 363 1180 526 1183 526 1183 363 1180 362 1184 526 1183 362 1184 527 1185 527 1185 362 1184 471 1186 527 1185 471 1186 528 1187 528 1187 471 1186 529 1188 529 1188 471 1186 470 1189 529 1188 470 1189 530 1190 530 1190 470 1189 469 1191 530 1190 469 1191 531 1192 531 1192 469 1191 468 1193 531 1192 468 1193 467 1194 361 1195 473 1196 362 1184 362 1184 473 1196 472 1197 362 1184 472 1197 471 1186 360 1198 478 1199 361 1195 361 1195 478 1199 477 1200 361 1195 477 1200 476 1201 359 1202 483 1203 360 1198 360 1198 483 1203 482 1204 360 1198 482 1204 481 1205 358 1206 617 1207 359 1202 359 1202 617 1207 616 1208 359 1202 616 1208 484 1209 484 1209 616 1208 485 1210 485 1210 616 1208 615 1211 485 1210 615 1211 614 1212 357 1213 622 1214 358 1206 358 1206 622 1214 621 1215 358 1206 621 1215 620 1216 356 1217 627 1218 357 1213 357 1213 627 1218 626 1219 357 1213 626 1219 625 1220 355 1221 430 1222 356 1217 356 1217 430 1222 429 1223 356 1217 429 1223 629 1224 629 1224 429 1223 428 1225 629 1224 428 1225 427 1226 354 1227 433 1228 355 1221 355 1221 433 1228 432 1229 355 1221 432 1229 431 1230 353 1231 435 1232 354 1227 354 1227 435 1232 434 1233 354 1227 434 1233 433 1228 435 1232 353 1231 436 1234 436 1234 353 1231 338 1235 436 1234 338 1235 437 1236 437 1236 338 1235 438 1237 438 1237 338 1235 439 1238 439 1238 338 1235 677 1239 439 1238 677 1239 440 1240 440 1240 677 1239 441 1241 441 1241 677 1239 676 1242 441 1241 676 1242 418 1243 418 1243 676 1242 419 1244 419 1244 676 1242 675 1245 419 1244 675 1245 420 1246 420 1246 675 1245 421 1247 421 1247 675 1245 674 1248 421 1247 674 1248 422 1249 422 1249 674 1248 673 1250 422 1249 673 1250 423 1251 423 1251 673 1250 672 1252 423 1251 672 1252 671 1253 338 1235 7 13 677 1239 677 1239 7 13 678 1254 678 1254 7 13 679 1255 679 1255 7 13 680 1256 680 1256 7 13 681 1257 681 1257 7 13 658 1167 423 1251 671 1253 424 1258 424 1258 671 1253 670 1259 424 1258 670 1259 610 1260 610 1260 670 1259 611 1261 611 1261 670 1259 669 1262 611 1261 669 1262 612 1263 612 1263 669 1262 668 1264 612 1263 668 1264 613 1265 613 1265 668 1264 667 1266 613 1265 667 1266 614 1212 614 1212 667 1266 666 1267 614 1212 666 1267 486 1268 486 1268 666 1267 578 1269 486 1268 578 1269 487 1270 487 1270 578 1269 577 1271 487 1270 577 1271 488 1272 488 1272 577 1271 576 1273 488 1272 576 1273 489 1274 489 1274 576 1273 575 1275 489 1274 575 1275 466 1276 466 1276 575 1275 574 1277 466 1276 574 1277 532 1278 532 1278 574 1277 573 1279 532 1278 573 1279 533 1280 533 1280 573 1279 572 1281 533 1280 572 1281 571 1282 666 1267 665 1283 578 1269 578 1269 665 1283 579 1284 579 1284 665 1283 664 1285 579 1284 664 1285 580 1286 580 1286 664 1285 581 1287 581 1287 664 1285 663 1288 581 1287 663 1288 662 1289 581 1287 662 1289 582 1290 582 1290 662 1289 661 1291 582 1290 661 1291 583 1292 583 1292 661 1291 660 1165 583 1292 660 1165 584 1293 584 1293 660 1165 6 24 584 1293 6 24 585 1294 585 1294 6 24 562 1295 562 1295 6 24 563 1296 563 1296 6 24 564 1297 564 1297 6 24 565 1171 610 1260 633 1298 424 1258 424 1258 633 1298 425 1299 425 1299 633 1298 632 1300 425 1299 632 1300 631 1301 425 1299 631 1301 426 1302 426 1302 631 1301 630 1303 426 1302 630 1303 427 1226 427 1226 630 1303 629 1224 629 1224 628 1304 356 1217 356 1217 628 1304 627 1218 625 1220 624 1305 357 1213 357 1213 624 1305 623 1306 357 1213 623 1306 622 1214 620 1216 619 1307 358 1206 358 1206 619 1307 618 1308 358 1206 618 1308 617 1207 533 1280 571 1282 534 1309 534 1309 571 1282 570 1310 534 1309 570 1310 535 1311 535 1311 570 1310 569 1312 535 1311 569 1312 536 1313 536 1313 569 1312 537 1314 537 1314 569 1312 568 1315 537 1314 568 1315 514 1316 514 1316 568 1315 515 1317 515 1317 568 1315 567 1169 515 1317 567 1169 516 1318 516 1318 567 1169 517 1319 517 1319 567 1169 177 1168 517 1319 177 1168 518 1175 466 1276 532 1278 467 1194 467 1194 532 1278 531 1192 486 1268 485 1210 614 1212 484 1209 483 1203 359 1202 481 1205 480 1320 360 1198 360 1198 480 1320 479 1321 360 1198 479 1321 478 1199 476 1201 475 1322 361 1195 361 1195 475 1322 474 1323 361 1195 474 1323 473 1196 431 1230 430 1222 355 1221</p>
        </triangles>
      </mesh>
    </geometry>
  </library_geometries>
  <library_visual_scenes>
    <visual_scene id="Scene" name="Scene">
      <node id="HipRollMountRight-node" name="HipRollMountRight" type="NODE">
        <instance_geometry url="#HipRollMountRight-mesh">
          <bind_material>
            <technique_common>
              <instance_material symbol="Aluminum_-_Polished" target="#Aluminum_-_Polished"/>
            </technique_common>
          </bind_material>
        </instance_geometry>
      </node>
    </visual_scene>
  </library_visual_scenes>
  <scene>
    <instance_visual_scene url="#Scene"/>
  </scene>
</COLLADA>
