<?xml version="1.0" encoding="utf-8"?>
<COLLADA xmlns="http://www.collada.org/2005/11/COLLADASchema" version="1.4.1">
  <asset>
    <contributor>
      <authoring_tool>Fusion URDF/XACRO Exporter</authoring_tool>
    </contributor>
    <created>2026-06-08T18:29:22Z</created>
    <modified>2026-06-08T18:29:22Z</modified>
    <unit name="meter" meter="1.0"/>
    <up_axis>Z_UP</up_axis>
  </asset>
  <library_effects>
    <effect id="Powder_Coat__Black_-effect">
      <profile_COMMON>
        <technique sid="common">
          <lambert>
            <emission><color>0 0 0 1</color></emission>
            <ambient><color>0.0000 0.0000 0.0000 1</color></ambient>
            <diffuse><color>0.0980 0.0980 0.0980 1</color></diffuse>
            <reflective><color>0 0 0 1</color></reflective>
            <transparent opaque="A_ONE"><color>1 1 1 1</color></transparent>
            <transparency><float>1</float></transparency>
          </lambert>
        </technique>
      </profile_COMMON>
    </effect>
  </library_effects>
  <library_materials>
    <material id="Powder_Coat__Black_" name="Powder_Coat_(Black)">
      <instance_effect url="#Powder_Coat__Black_-effect"/>
    </material>
  </library_materials>
  <library_geometries>
    <geometry id="Battery_Mount-mesh" name="Battery_Mount">
      <mesh>
        <source id="Battery_Mount-mesh-positions">
          <float_array id="Battery_Mount-mesh-positions-array" count="1200">0.031000 0.213000 -0.135750 0.031000 0.089200 -0.135750 0.031000 0.089200 -0.123750 0.031000 0.213000 -0.123750 -0.031000 0.089200 -0.135750 -0.031000 0.213000 -0.135750 -0.031000 0.213000 -0.123750 -0.031000 0.089200 -0.123750 -0.019300 0.200250 -0.123750 -0.019377 0.200832 -0.123750 -0.019601 0.201375 -0.123750 -0.019959 0.201841 -0.123750 -0.020425 0.202199 -0.123750 -0.020968 0.202423 -0.123750 -0.021550 0.202500 -0.123750 -0.022132 0.202423 -0.123750 -0.022675 0.202199 -0.123750 -0.023141 0.201841 -0.123750 -0.023499 0.201375 -0.123750 -0.023723 0.200832 -0.123750 -0.023800 0.200250 -0.123750 -0.023723 0.199668 -0.123750 -0.023499 0.199125 -0.123750 -0.023141 0.198659 -0.123750 -0.022675 0.198301 -0.123750 -0.022132 0.198077 -0.123750 -0.021550 0.198000 -0.123750 -0.020968 0.198077 -0.123750 -0.020425 0.198301 -0.123750 -0.019959 0.198659 -0.123750 -0.019601 0.199125 -0.123750 -0.019377 0.199668 -0.123750 0.013025 0.164780 -0.123750 0.012948 0.165362 -0.123750 0.012724 0.165905 -0.123750 0.012366 0.166371 -0.123750 0.011900 0.166729 -0.123750 0.011357 0.166953 -0.123750 0.010775 0.167030 -0.123750 0.010193 0.166953 -0.123750 0.009650 0.166729 -0.123750 0.009184 0.166371 -0.123750 0.008826 0.165905 -0.123750 0.008602 0.165362 -0.123750 0.008525 0.164780 -0.123750 0.008602 0.164198 -0.123750 0.008826 0.163655 -0.123750 0.009184 0.163189 -0.123750 0.009650 0.162831 -0.123750 0.010193 0.162607 -0.123750 0.010775 0.162530 -0.123750 0.011357 0.162607 -0.123750 0.011900 0.162831 -0.123750 0.012366 0.163189 -0.123750 0.012724 0.163655 -0.123750 0.012948 0.164198 -0.123750 0.002250 0.200250 -0.123750 0.002173 0.200832 -0.123750 0.001949 0.201375 -0.123750 0.001591 0.201841 -0.123750 0.001125 0.202199 -0.123750 0.000582 0.202423 -0.123750 0.000000 0.202500 -0.123750 -0.000582 0.202423 -0.123750 -0.001125 0.202199 -0.123750 -0.001591 0.201841 -0.123750 -0.001949 0.201375 -0.123750 -0.002173 0.200832 -0.123750 -0.002250 0.200250 -0.123750 -0.002173 0.199668 -0.123750 -0.001949 0.199125 -0.123750 -0.001591 0.198659 -0.123750 -0.001125 0.198301 -0.123750 -0.000582 0.198077 -0.123750 0.000000 0.198000 -0.123750 0.000582 0.198077 -0.123750 0.001125 0.198301 -0.123750 0.001591 0.198659 -0.123750 0.001949 0.199125 -0.123750 0.002173 0.199668 -0.123750 0.023800 0.200250 -0.123750 0.023723 0.200832 -0.123750 0.023499 0.201375 -0.123750 0.023141 0.201841 -0.123750 0.022675 0.202199 -0.123750 0.022132 0.202423 -0.123750 0.021550 0.202500 -0.123750 0.020968 0.202423 -0.123750 0.020425 0.202199 -0.123750 0.019959 0.201841 -0.123750 0.019601 0.201375 -0.123750 0.019377 0.200832 -0.123750 0.019300 0.200250 -0.123750 0.019377 0.199668 -0.123750 0.019601 0.199125 -0.123750 0.019959 0.198659 -0.123750 0.020425 0.198301 -0.123750 0.020968 0.198077 -0.123750 0.021550 0.198000 -0.123750 0.022132 0.198077 -0.123750 0.022675 0.198301 -0.123750 0.023141 0.198659 -0.123750 0.023499 0.199125 -0.123750 0.023723 0.199668 -0.123750 0.023800 0.129310 -0.123750 0.023723 0.129892 -0.123750 0.023499 0.130435 -0.123750 0.023141 0.130901 -0.123750 0.022675 0.131259 -0.123750 0.022132 0.131483 -0.123750 0.021550 0.131560 -0.123750 0.020968 0.131483 -0.123750 0.020425 0.131259 -0.123750 0.019959 0.130901 -0.123750 0.019601 0.130435 -0.123750 0.019377 0.129892 -0.123750 0.019300 0.129310 -0.123750 0.019377 0.128728 -0.123750 0.019601 0.128185 -0.123750 0.019959 0.127719 -0.123750 0.020425 0.127361 -0.123750 0.020968 0.127137 -0.123750 0.021550 0.127060 -0.123750 0.022132 0.127137 -0.123750 0.022675 0.127361 -0.123750 0.023141 0.127719 -0.123750 0.023499 0.128185 -0.123750 0.023723 0.128728 -0.123750 -0.019300 0.129310 -0.123750 -0.019377 0.129892 -0.123750 -0.019601 0.130435 -0.123750 -0.019959 0.130901 -0.123750 -0.020425 0.131259 -0.123750 -0.020968 0.131483 -0.123750 -0.021550 0.131560 -0.123750 -0.022132 0.131483 -0.123750 -0.022675 0.131259 -0.123750 -0.023141 0.130901 -0.123750 -0.023499 0.130435 -0.123750 -0.023723 0.129892 -0.123750 -0.023800 0.129310 -0.123750 -0.023723 0.128728 -0.123750 -0.023499 0.128185 -0.123750 -0.023141 0.127719 -0.123750 -0.022675 0.127361 -0.123750 -0.022132 0.127137 -0.123750 -0.021550 0.127060 -0.123750 -0.020968 0.127137 -0.123750 -0.020425 0.127361 -0.123750 -0.019959 0.127719 -0.123750 -0.019601 0.128185 -0.123750 -0.019377 0.128728 -0.123750 0.002250 0.129310 -0.123750 0.002173 0.129892 -0.123750 0.001949 0.130435 -0.123750 0.001591 0.130901 -0.123750 0.001125 0.131259 -0.123750 0.000582 0.131483 -0.123750 0.000000 0.131560 -0.123750 -0.000582 0.131483 -0.123750 -0.001125 0.131259 -0.123750 -0.001591 0.130901 -0.123750 -0.001949 0.130435 -0.123750 -0.002173 0.129892 -0.123750 -0.002250 0.129310 -0.123750 -0.002173 0.128728 -0.123750 -0.001949 0.128185 -0.123750 -0.001591 0.127719 -0.123750 -0.001125 0.127361 -0.123750 -0.000582 0.127137 -0.123750 0.000000 0.127060 -0.123750 0.000582 0.127137 -0.123750 0.001125 0.127361 -0.123750 0.001591 0.127719 -0.123750 0.001949 0.128185 -0.123750 0.002173 0.128728 -0.123750 -0.008525 0.164780 -0.123750 -0.008602 0.165362 -0.123750 -0.008826 0.165905 -0.123750 -0.009184 0.166371 -0.123750 -0.009650 0.166729 -0.123750 -0.010193 0.166953 -0.123750 -0.010775 0.167030 -0.123750 -0.011357 0.166953 -0.123750 -0.011900 0.166729 -0.123750 -0.012366 0.166371 -0.123750 -0.012724 0.165905 -0.123750 -0.012948 0.165362 -0.123750 -0.013025 0.164780 -0.123750 -0.012948 0.164198 -0.123750 -0.012724 0.163655 -0.123750 -0.012366 0.163189 -0.123750 -0.011900 0.162831 -0.123750 -0.011357 0.162607 -0.123750 -0.010775 0.162530 -0.123750 -0.010193 0.162607 -0.123750 -0.009650 0.162831 -0.123750 -0.009184 0.163189 -0.123750 -0.008826 0.163655 -0.123750 -0.008602 0.164198 -0.123750 0.035000 0.213000 -0.135750 0.035000 0.089200 -0.135750 -0.035000 0.089200 -0.135750 -0.035000 0.213000 -0.135750 0.035000 0.089200 -0.117750 -0.035000 0.089200 -0.117750 -0.019300 0.200250 -0.117750 -0.019377 0.200832 -0.117750 -0.019601 0.201375 -0.117750 -0.019959 0.201841 -0.117750 -0.020425 0.202199 -0.117750 -0.020968 0.202423 -0.117750 -0.021550 0.202500 -0.117750 -0.022132 0.202423 -0.117750 -0.022675 0.202199 -0.117750 -0.023141 0.201841 -0.117750 -0.023499 0.201375 -0.117750 -0.023723 0.200832 -0.117750 -0.023800 0.200250 -0.117750 -0.023723 0.199668 -0.117750 -0.023499 0.199125 -0.117750 -0.023141 0.198659 -0.117750 -0.022675 0.198301 -0.117750 -0.022132 0.198077 -0.117750 -0.021550 0.198000 -0.117750 -0.020968 0.198077 -0.117750 -0.020425 0.198301 -0.117750 -0.019959 0.198659 -0.117750 -0.019601 0.199125 -0.117750 -0.019377 0.199668 -0.117750 0.013025 0.164780 -0.117750 0.012948 0.165362 -0.117750 0.012724 0.165905 -0.117750 0.012366 0.166371 -0.117750 0.011900 0.166729 -0.117750 0.011357 0.166953 -0.117750 0.010775 0.167030 -0.117750 0.010193 0.166953 -0.117750 0.009650 0.166729 -0.117750 0.009184 0.166371 -0.117750 0.008826 0.165905 -0.117750 0.008602 0.165362 -0.117750 0.008525 0.164780 -0.117750 0.008602 0.164198 -0.117750 0.008826 0.163655 -0.117750 0.009184 0.163189 -0.117750 0.009650 0.162831 -0.117750 0.010193 0.162607 -0.117750 0.010775 0.162530 -0.117750 0.011357 0.162607 -0.117750 0.011900 0.162831 -0.117750 0.012366 0.163189 -0.117750 0.012724 0.163655 -0.117750 0.012948 0.164198 -0.117750 0.023800 0.129310 -0.117750 0.023723 0.129892 -0.117750 0.023499 0.130435 -0.117750 0.023141 0.130901 -0.117750 0.022675 0.131259 -0.117750 0.022132 0.131483 -0.117750 0.021550 0.131560 -0.117750 0.020968 0.131483 -0.117750 0.020425 0.131259 -0.117750 0.019959 0.130901 -0.117750 0.019601 0.130435 -0.117750 0.019377 0.129892 -0.117750 0.019300 0.129310 -0.117750 0.019377 0.128728 -0.117750 0.019601 0.128185 -0.117750 0.019959 0.127719 -0.117750 0.020425 0.127361 -0.117750 0.020968 0.127137 -0.117750 0.021550 0.127060 -0.117750 0.022132 0.127137 -0.117750 0.022675 0.127361 -0.117750 0.023141 0.127719 -0.117750 0.023499 0.128185 -0.117750 0.023723 0.128728 -0.117750 0.002250 0.200250 -0.117750 0.002173 0.200832 -0.117750 0.001949 0.201375 -0.117750 0.001591 0.201841 -0.117750 0.001125 0.202199 -0.117750 0.000582 0.202423 -0.117750 0.000000 0.202500 -0.117750 -0.000582 0.202423 -0.117750 -0.001125 0.202199 -0.117750 -0.001591 0.201841 -0.117750 -0.001949 0.201375 -0.117750 -0.002173 0.200832 -0.117750 -0.002250 0.200250 -0.117750 -0.002173 0.199668 -0.117750 -0.001949 0.199125 -0.117750 -0.001591 0.198659 -0.117750 -0.001125 0.198301 -0.117750 -0.000582 0.198077 -0.117750 0.000000 0.198000 -0.117750 0.000582 0.198077 -0.117750 0.001125 0.198301 -0.117750 0.001591 0.198659 -0.117750 0.001949 0.199125 -0.117750 0.002173 0.199668 -0.117750 -0.019300 0.129310 -0.117750 -0.019377 0.129892 -0.117750 -0.019601 0.130435 -0.117750 -0.019959 0.130901 -0.117750 -0.020425 0.131259 -0.117750 -0.020968 0.131483 -0.117750 -0.021550 0.131560 -0.117750 -0.022132 0.131483 -0.117750 -0.022675 0.131259 -0.117750 -0.023141 0.130901 -0.117750 -0.023499 0.130435 -0.117750 -0.023723 0.129892 -0.117750 -0.023800 0.129310 -0.117750 -0.023723 0.128728 -0.117750 -0.023499 0.128185 -0.117750 -0.023141 0.127719 -0.117750 -0.022675 0.127361 -0.117750 -0.022132 0.127137 -0.117750 -0.021550 0.127060 -0.117750 -0.020968 0.127137 -0.117750 -0.020425 0.127361 -0.117750 -0.019959 0.127719 -0.117750 -0.019601 0.128185 -0.117750 -0.019377 0.128728 -0.117750 -0.008525 0.164780 -0.117750 -0.008602 0.165362 -0.117750 -0.008826 0.165905 -0.117750 -0.009184 0.166371 -0.117750 -0.009650 0.166729 -0.117750 -0.010193 0.166953 -0.117750 -0.010775 0.167030 -0.117750 -0.011357 0.166953 -0.117750 -0.011900 0.166729 -0.117750 -0.012366 0.166371 -0.117750 -0.012724 0.165905 -0.117750 -0.012948 0.165362 -0.117750 -0.013025 0.164780 -0.117750 -0.012948 0.164198 -0.117750 -0.012724 0.163655 -0.117750 -0.012366 0.163189 -0.117750 -0.011900 0.162831 -0.117750 -0.011357 0.162607 -0.117750 -0.010775 0.162530 -0.117750 -0.010193 0.162607 -0.117750 -0.009650 0.162831 -0.117750 -0.009184 0.163189 -0.117750 -0.008826 0.163655 -0.117750 -0.008602 0.164198 -0.117750 0.023800 0.200250 -0.117750 0.023723 0.200832 -0.117750 0.023499 0.201375 -0.117750 0.023141 0.201841 -0.117750 0.022675 0.202199 -0.117750 0.022132 0.202423 -0.117750 0.021550 0.202500 -0.117750 0.020968 0.202423 -0.117750 0.020425 0.202199 -0.117750 0.019959 0.201841 -0.117750 0.019601 0.201375 -0.117750 0.019377 0.200832 -0.117750 0.019300 0.200250 -0.117750 0.019377 0.199668 -0.117750 0.019601 0.199125 -0.117750 0.019959 0.198659 -0.117750 0.020425 0.198301 -0.117750 0.020968 0.198077 -0.117750 0.021550 0.198000 -0.117750 0.022132 0.198077 -0.117750 0.022675 0.198301 -0.117750 0.023141 0.198659 -0.117750 0.023499 0.199125 -0.117750 0.023723 0.199668 -0.117750 0.002250 0.129310 -0.117750 0.002173 0.129892 -0.117750 0.001949 0.130435 -0.117750 0.001591 0.130901 -0.117750 0.001125 0.131259 -0.117750 0.000582 0.131483 -0.117750 0.000000 0.131560 -0.117750 -0.000582 0.131483 -0.117750 -0.001125 0.131259 -0.117750 -0.001591 0.130901 -0.117750 -0.001949 0.130435 -0.117750 -0.002173 0.129892 -0.117750 -0.002250 0.129310 -0.117750 -0.002173 0.128728 -0.117750 -0.001949 0.128185 -0.117750 -0.001591 0.127719 -0.117750 -0.001125 0.127361 -0.117750 -0.000582 0.127137 -0.117750 0.000000 0.127060 -0.117750 0.000582 0.127137 -0.117750 0.001125 0.127361 -0.117750 0.001591 0.127719 -0.117750 0.001949 0.128185 -0.117750 0.002173 0.128728 -0.117750 -0.035000 0.213000 -0.117750 0.035000 0.213000 -0.117750</float_array>
          <technique_common>
            <accessor source="#Battery_Mount-mesh-positions-array" count="400" stride="3">
              <param name="X" type="float"/>
              <param name="Y" type="float"/>
              <param name="Z" type="float"/>
            </accessor>
          </technique_common>
        </source>
        <source id="Battery_Mount-mesh-normals">
          <float_array id="Battery_Mount-mesh-normals-array" count="2448">-1.000000 -0.000000 0.000000 -1.000000 -0.000000 0.000000 -1.000000 -0.000000 0.000000 -1.000000 -0.000000 0.000000 1.000000 -0.000000 -0.000000 1.000000 -0.000000 -0.000000 1.000000 -0.000000 -0.000000 1.000000 -0.000000 -0.000000 0.000000 0.000000 -1.000000 0.000000 0.000000 -1.000000 0.000000 0.000000 -1.000000 0.000000 0.000000 -1.000000 0.000000 0.000000 -1.000000 0.000000 0.000000 -1.000000 0.000000 0.000000 -1.000000 0.000000 0.000000 -1.000000 0.000000 0.000000 -1.000000 0.000000 0.000000 -1.000000 0.000000 0.000000 -1.000000 0.000000 0.000000 -1.000000 0.000000 0.000000 -1.000000 0.000000 0.000000 -1.000000 0.000000 0.000000 -1.000000 0.000000 0.000000 -1.000000 0.000000 0.000000 -1.000000 0.000000 0.000000 -1.000000 0.000000 0.000000 -1.000000 0.000000 0.000000 -1.000000 0.000000 0.000000 -1.000000 0.000000 0.000000 -1.000000 0.000000 0.000000 -1.000000 0.000000 0.000000 -1.000000 0.000000 0.000000 -1.000000 0.000000 0.000000 -1.000000 0.000000 0.000000 -1.000000 0.000000 0.000000 -1.000000 0.000000 0.000000 -1.000000 0.000000 0.000000 -1.000000 0.000000 0.000000 -1.000000 0.000000 0.000000 -1.000000 0.000000 0.000000 -1.000000 0.000000 0.000000 -1.000000 0.000000 0.000000 -1.000000 0.000000 0.000000 -1.000000 0.000000 0.000000 -1.000000 0.000000 0.000000 -1.000000 0.000000 0.000000 -1.000000 0.000000 0.000000 -1.000000 0.000000 0.000000 -1.000000 0.000000 0.000000 -1.000000 0.000000 0.000000 -1.000000 0.000000 0.000000 -1.000000 0.000000 0.000000 -1.000000 0.000000 0.000000 -1.000000 0.000000 0.000000 -1.000000 0.000000 0.000000 -1.000000 0.000000 0.000000 -1.000000 0.000000 0.000000 -1.000000 0.000000 0.000000 -1.000000 0.000000 0.000000 -1.000000 0.000000 0.000000 -1.000000 0.000000 0.000000 -1.000000 0.000000 0.000000 -1.000000 0.000000 0.000000 -1.000000 0.000000 0.000000 -1.000000 0.000000 0.000000 -1.000000 0.000000 0.000000 -1.000000 0.000000 0.000000 -1.000000 0.000000 0.000000 -1.000000 0.000000 0.000000 -1.000000 0.000000 0.000000 -1.000000 0.000000 0.000000 -1.000000 0.000000 0.000000 -1.000000 0.000000 0.000000 -1.000000 0.000000 0.000000 -1.000000 0.000000 0.000000 -1.000000 0.000000 0.000000 -1.000000 0.000000 0.000000 -1.000000 0.000000 0.000000 -1.000000 0.000000 0.000000 -1.000000 0.000000 0.000000 -1.000000 0.000000 0.000000 -1.000000 0.000000 0.000000 -1.000000 0.000000 0.000000 -1.000000 0.000000 0.000000 -1.000000 0.000000 0.000000 -1.000000 0.000000 0.000000 -1.000000 0.000000 0.000000 -1.000000 0.000000 0.000000 -1.000000 0.000000 0.000000 -1.000000 0.000000 0.000000 -1.000000 0.000000 0.000000 -1.000000 0.000000 0.000000 -1.000000 0.000000 0.000000 -1.000000 0.000000 0.000000 -1.000000 0.000000 0.000000 -1.000000 0.000000 0.000000 -1.000000 0.000000 0.000000 -1.000000 0.000000 0.000000 -1.000000 0.000000 0.000000 -1.000000 0.000000 0.000000 -1.000000 0.000000 0.000000 -1.000000 0.000000 0.000000 -1.000000 0.000000 0.000000 -1.000000 0.000000 0.000000 -1.000000 0.000000 0.000000 -1.000000 0.000000 0.000000 -1.000000 0.000000 0.000000 -1.000000 0.000000 0.000000 -1.000000 0.000000 0.000000 -1.000000 0.000000 0.000000 -1.000000 0.000000 0.000000 -1.000000 0.000000 0.000000 -1.000000 0.000000 0.000000 -1.000000 0.000000 0.000000 -1.000000 0.000000 0.000000 -1.000000 0.000000 0.000000 -1.000000 0.000000 0.000000 -1.000000 0.000000 0.000000 -1.000000 0.000000 0.000000 -1.000000 0.000000 0.000000 -1.000000 0.000000 0.000000 -1.000000 0.000000 0.000000 -1.000000 0.000000 0.000000 -1.000000 0.000000 0.000000 -1.000000 0.000000 0.000000 -1.000000 0.000000 0.000000 -1.000000 0.000000 0.000000 -1.000000 0.000000 0.000000 -1.000000 0.000000 0.000000 -1.000000 0.000000 0.000000 -1.000000 0.000000 0.000000 -1.000000 0.000000 0.000000 -1.000000 0.000000 0.000000 -1.000000 0.000000 0.000000 -1.000000 0.000000 0.000000 -1.000000 0.000000 0.000000 -1.000000 0.000000 0.000000 -1.000000 0.000000 0.000000 -1.000000 0.000000 0.000000 -1.000000 0.000000 0.000000 -1.000000 0.000000 0.000000 -1.000000 0.000000 0.000000 -1.000000 0.000000 0.000000 -1.000000 0.000000 0.000000 -1.000000 0.000000 0.000000 -1.000000 0.000000 0.000000 -1.000000 0.000000 0.000000 -1.000000 0.000000 0.000000 -1.000000 0.000000 0.000000 -1.000000 0.000000 0.000000 -1.000000 0.000000 0.000000 -1.000000 0.000000 0.000000 -1.000000 0.000000 0.000000 -1.000000 0.000000 0.000000 -1.000000 0.000000 0.000000 -1.000000 0.000000 0.000000 -1.000000 0.000000 0.000000 -1.000000 0.000000 0.000000 -1.000000 0.000000 0.000000 -1.000000 0.000000 0.000000 -1.000000 0.000000 0.000000 -1.000000 0.000000 0.000000 -1.000000 0.000000 0.000000 -1.000000 0.000000 0.000000 -1.000000 0.000000 0.000000 -1.000000 0.000000 0.000000 -1.000000 0.000000 0.000000 -1.000000 0.000000 0.000000 -1.000000 0.000000 0.000000 -1.000000 0.000000 0.000000 -1.000000 0.000000 0.000000 -1.000000 0.000000 0.000000 -1.000000 0.000000 0.000000 -1.000000 0.000000 0.000000 -1.000000 0.000000 0.000000 -1.000000 0.000000 0.000000 -1.000000 0.000000 0.000000 -1.000000 0.000000 0.000000 -1.000000 0.000000 0.000000 -1.000000 0.000000 0.000000 -1.000000 0.000000 0.000000 -1.000000 0.000000 0.000000 -1.000000 0.000000 0.000000 -1.000000 0.000000 0.000000 -1.000000 0.000000 0.000000 -1.000000 0.000000 0.000000 -1.000000 0.000000 0.000000 -1.000000 0.000000 0.000000 -1.000000 0.000000 0.000000 -1.000000 0.000000 0.000000 -1.000000 0.000000 0.000000 -1.000000 0.000000 0.000000 -1.000000 0.000000 0.000000 -1.000000 0.000000 0.000000 -1.000000 0.000000 0.000000 -1.000000 0.000000 0.000000 -1.000000 0.000000 0.000000 -1.000000 0.000000 0.000000 -1.000000 0.000000 0.000000 -1.000000 0.000000 0.000000 -1.000000 0.000000 0.000000 -1.000000 0.000000 0.000000 -1.000000 0.000000 0.000000 -1.000000 0.000000 -0.000000 -1.000000 0.000000 -0.000000 -1.000000 0.000000 -0.000000 -1.000000 0.000000 -0.000000 -1.000000 0.000000 -0.000000 -1.000000 0.000000 -0.000000 -1.000000 0.000000 -0.000000 -1.000000 0.000000 -0.000000 -1.000000 0.000000 -1.000000 0.000000 0.000000 -1.000000 0.000000 0.000000 -1.000000 0.000000 0.000000 -1.000000 0.000000 0.000000 -1.000000 0.000000 0.000000 -1.000000 0.000000 0.000000 -1.000000 0.000000 0.000000 -1.000000 0.000000 -0.965926 0.258819 0.000000 -0.965926 0.258819 0.000000 -1.000000 0.000000 0.000000 -1.000000 0.000000 0.000000 -0.965926 -0.258819 -0.000000 -0.965926 -0.258819 -0.000000 -0.866025 -0.500000 -0.000000 -0.866025 -0.500000 -0.000000 -0.707107 -0.707107 -0.000000 -0.707107 -0.707107 -0.000000 -0.500000 -0.866025 -0.000000 -0.500000 -0.866025 -0.000000 -0.258819 -0.965926 -0.000000 -0.258819 -0.965926 -0.000000 0.000000 -1.000000 0.000000 0.000000 -1.000000 0.000000 0.258819 -0.965926 0.000000 0.258819 -0.965926 0.000000 0.500000 -0.866025 0.000000 0.500000 -0.866025 0.000000 0.707107 -0.707107 0.000000 0.707107 -0.707107 0.000000 0.866025 -0.500000 0.000000 0.866025 -0.500000 0.000000 0.965926 -0.258819 0.000000 0.965926 -0.258819 0.000000 1.000000 -0.000000 0.000000 1.000000 -0.000000 0.000000 0.965926 0.258819 0.000000 0.965926 0.258819 0.000000 0.866025 0.500000 0.000000 0.866025 0.500000 0.000000 0.707107 0.707107 0.000000 0.707107 0.707107 0.000000 0.500000 0.866025 0.000000 0.500000 0.866025 0.000000 0.258819 0.965926 0.000000 0.258819 0.965926 0.000000 0.000000 1.000000 0.000000 0.000000 1.000000 0.000000 -0.258819 0.965926 0.000000 -0.258819 0.965926 0.000000 -0.500000 0.866025 0.000000 -0.500000 0.866025 0.000000 -0.707107 0.707107 0.000000 -0.707107 0.707107 0.000000 -0.866025 0.500000 0.000000 -0.866025 0.500000 0.000000 -0.965926 0.258819 0.000000 -0.965926 0.258819 0.000000 -1.000000 0.000000 0.000000 -1.000000 0.000000 0.000000 -0.965926 -0.258819 -0.000000 -0.965926 -0.258819 -0.000000 -0.866025 -0.500000 -0.000000 -0.866025 -0.500000 -0.000000 -0.707107 -0.707107 -0.000000 -0.707107 -0.707107 -0.000000 -0.500000 -0.866025 -0.000000 -0.500000 -0.866025 -0.000000 -0.258819 -0.965926 -0.000000 -0.258819 -0.965926 -0.000000 0.000000 -1.000000 0.000000 0.000000 -1.000000 0.000000 0.258819 -0.965926 0.000000 0.258819 -0.965926 0.000000 0.500000 -0.866025 0.000000 0.500000 -0.866025 0.000000 0.707107 -0.707107 0.000000 0.707107 -0.707107 0.000000 0.866025 -0.500000 0.000000 0.866025 -0.500000 0.000000 0.965926 -0.258819 0.000000 0.965926 -0.258819 0.000000 1.000000 -0.000000 0.000000 1.000000 -0.000000 0.000000 0.965926 0.258819 0.000000 0.965926 0.258819 0.000000 0.866025 0.500000 0.000000 0.866025 0.500000 0.000000 0.707107 0.707107 0.000000 0.707107 0.707107 0.000000 0.500000 0.866025 0.000000 0.500000 0.866025 0.000000 0.258819 0.965926 0.000000 0.258819 0.965926 0.000000 0.000000 1.000000 0.000000 0.000000 1.000000 0.000000 -0.258819 0.965926 0.000000 -0.258819 0.965926 0.000000 -0.500000 0.866025 0.000000 -0.500000 0.866025 0.000000 -0.707107 0.707107 0.000000 -0.707107 0.707107 0.000000 -0.866025 0.500000 0.000000 -0.866025 0.500000 0.000000 -0.965926 0.258819 0.000000 -0.965926 0.258819 0.000000 -1.000000 0.000000 0.000000 -1.000000 0.000000 0.000000 -0.965926 -0.258819 -0.000000 -0.965926 -0.258819 -0.000000 -0.866025 -0.500000 -0.000000 -0.866025 -0.500000 -0.000000 -0.707107 -0.707107 -0.000000 -0.707107 -0.707107 -0.000000 -0.500000 -0.866025 -0.000000 -0.500000 -0.866025 -0.000000 -0.258819 -0.965926 -0.000000 -0.258819 -0.965926 -0.000000 0.000000 -1.000000 0.000000 0.000000 -1.000000 0.000000 0.258819 -0.965926 0.000000 0.258819 -0.965926 0.000000 0.500000 -0.866025 0.000000 0.500000 -0.866025 0.000000 0.707107 -0.707107 0.000000 0.707107 -0.707107 0.000000 0.866025 -0.500000 0.000000 0.866025 -0.500000 0.000000 0.965926 -0.258819 0.000000 0.965926 -0.258819 0.000000 1.000000 -0.000000 0.000000 1.000000 -0.000000 0.000000 0.965926 0.258819 0.000000 0.965926 0.258819 0.000000 0.866025 0.500000 0.000000 0.866025 0.500000 0.000000 0.707107 0.707107 0.000000 0.707107 0.707107 0.000000 0.500000 0.866025 0.000000 0.500000 0.866025 0.000000 0.258819 0.965926 0.000000 0.258819 0.965926 0.000000 0.000000 1.000000 0.000000 0.000000 1.000000 0.000000 -0.258819 0.965926 0.000000 -0.258819 0.965926 0.000000 -0.500000 0.866025 0.000000 -0.500000 0.866025 0.000000 -0.707107 0.707107 0.000000 -0.707107 0.707107 0.000000 -0.866025 0.500000 0.000000 -0.866025 0.500000 0.000000 -0.965926 0.258819 0.000000 -0.965926 0.258819 0.000000 -1.000000 0.000000 0.000000 -1.000000 0.000000 0.000000 -0.965926 -0.258819 -0.000000 -0.965926 -0.258819 -0.000000 -0.866025 -0.500000 -0.000000 -0.866025 -0.500000 -0.000000 -0.707107 -0.707107 -0.000000 -0.707107 -0.707107 -0.000000 -0.500000 -0.866025 -0.000000 -0.500000 -0.866025 -0.000000 -0.258819 -0.965926 -0.000000 -0.258819 -0.965926 -0.000000 0.000000 -1.000000 0.000000 0.000000 -1.000000 0.000000 0.258819 -0.965926 0.000000 0.258819 -0.965926 0.000000 0.500000 -0.866025 0.000000 0.500000 -0.866025 0.000000 0.707107 -0.707107 0.000000 0.707107 -0.707107 0.000000 0.866025 -0.500000 0.000000 0.866025 -0.500000 0.000000 0.965926 -0.258819 0.000000 0.965926 -0.258819 0.000000 1.000000 -0.000000 0.000000 1.000000 -0.000000 0.000000 0.965926 0.258819 0.000000 0.965926 0.258819 0.000000 0.866025 0.500000 0.000000 0.866025 0.500000 0.000000 0.707107 0.707107 0.000000 0.707107 0.707107 0.000000 0.500000 0.866025 0.000000 0.500000 0.866025 0.000000 0.258819 0.965926 0.000000 0.258819 0.965926 0.000000 0.000000 1.000000 0.000000 0.000000 1.000000 0.000000 -0.258819 0.965926 0.000000 -0.258819 0.965926 0.000000 -0.500000 0.866025 0.000000 -0.500000 0.866025 0.000000 -0.707107 0.707107 0.000000 -0.707107 0.707107 0.000000 -0.866025 0.500000 0.000000 -0.866025 0.500000 0.000000 -0.965926 0.258819 0.000000 -0.965926 0.258819 0.000000 -1.000000 0.000000 0.000000 -1.000000 0.000000 0.000000 -0.965926 -0.258819 -0.000000 -0.965926 -0.258819 -0.000000 -0.866025 -0.500000 -0.000000 -0.866025 -0.500000 -0.000000 -0.707107 -0.707107 -0.000000 -0.707107 -0.707107 -0.000000 -0.500000 -0.866025 -0.000000 -0.500000 -0.866025 -0.000000 -0.258819 -0.965926 -0.000000 -0.258819 -0.965926 -0.000000 0.000000 -1.000000 0.000000 0.000000 -1.000000 0.000000 0.258819 -0.965926 0.000000 0.258819 -0.965926 0.000000 0.500000 -0.866025 0.000000 0.500000 -0.866025 0.000000 0.707107 -0.707107 0.000000 0.707107 -0.707107 0.000000 0.866025 -0.500000 0.000000 0.866025 -0.500000 0.000000 0.965926 -0.258819 0.000000 0.965926 -0.258819 0.000000 1.000000 -0.000000 0.000000 1.000000 -0.000000 0.000000 0.965926 0.258819 0.000000 0.965926 0.258819 0.000000 0.866025 0.500000 0.000000 0.866025 0.500000 0.000000 0.707107 0.707107 0.000000 0.707107 0.707107 0.000000 0.500000 0.866025 0.000000 0.500000 0.866025 0.000000 0.258819 0.965926 0.000000 0.258819 0.965926 0.000000 0.000000 1.000000 0.000000 0.000000 1.000000 0.000000 -0.258819 0.965926 0.000000 -0.258819 0.965926 0.000000 -0.500000 0.866025 0.000000 -0.500000 0.866025 0.000000 -0.707107 0.707107 0.000000 -0.707107 0.707107 0.000000 -0.866025 0.500000 0.000000 -0.866025 0.500000 0.000000 -0.965926 0.258819 0.000000 -0.965926 0.258819 0.000000 -1.000000 0.000000 0.000000 -1.000000 0.000000 0.000000 -0.965926 -0.258819 -0.000000 -0.965926 -0.258819 -0.000000 -0.866025 -0.500000 -0.000000 -0.866025 -0.500000 -0.000000 -0.707107 -0.707107 -0.000000 -0.707107 -0.707107 -0.000000 -0.500000 -0.866025 -0.000000 -0.500000 -0.866025 -0.000000 -0.258819 -0.965926 -0.000000 -0.258819 -0.965926 -0.000000 0.000000 -1.000000 0.000000 0.000000 -1.000000 0.000000 0.258819 -0.965926 0.000000 0.258819 -0.965926 0.000000 0.500000 -0.866025 0.000000 0.500000 -0.866025 0.000000 0.707107 -0.707107 0.000000 0.707107 -0.707107 0.000000 0.866025 -0.500000 0.000000 0.866025 -0.500000 0.000000 0.965926 -0.258819 0.000000 0.965926 -0.258819 0.000000 1.000000 -0.000000 0.000000 1.000000 -0.000000 0.000000 0.965926 0.258819 0.000000 0.965926 0.258819 0.000000 0.866025 0.500000 0.000000 0.866025 0.500000 0.000000 0.707107 0.707107 0.000000 0.707107 0.707107 0.000000 0.500000 0.866025 0.000000 0.500000 0.866025 0.000000 0.258819 0.965926 0.000000 0.258819 0.965926 0.000000 0.000000 1.000000 0.000000 0.000000 1.000000 0.000000 -0.258819 0.965926 0.000000 -0.258819 0.965926 0.000000 -0.500000 0.866025 0.000000 -0.500000 0.866025 0.000000 -0.707107 0.707107 0.000000 -0.707107 0.707107 0.000000 -0.866025 0.500000 0.000000 -0.866025 0.500000 0.000000 -0.965926 0.258819 0.000000 -0.965926 0.258819 0.000000 -1.000000 0.000000 0.000000 -1.000000 0.000000 0.000000 -0.965926 -0.258819 -0.000000 -0.965926 -0.258819 -0.000000 -0.866025 -0.500000 -0.000000 -0.866025 -0.500000 -0.000000 -0.707107 -0.707107 -0.000000 -0.707107 -0.707107 -0.000000 -0.500000 -0.866025 -0.000000 -0.500000 -0.866025 -0.000000 -0.258819 -0.965926 -0.000000 -0.258819 -0.965926 -0.000000 0.000000 -1.000000 0.000000 0.000000 -1.000000 0.000000 0.258819 -0.965926 0.000000 0.258819 -0.965926 0.000000 0.500000 -0.866025 0.000000 0.500000 -0.866025 0.000000 0.707107 -0.707107 0.000000 0.707107 -0.707107 0.000000 0.866025 -0.500000 0.000000 0.866025 -0.500000 0.000000 0.965926 -0.258819 0.000000 0.965926 -0.258819 0.000000 1.000000 -0.000000 0.000000 1.000000 -0.000000 0.000000 0.965926 0.258819 0.000000 0.965926 0.258819 0.000000 0.866025 0.500000 0.000000 0.866025 0.500000 0.000000 0.707107 0.707107 0.000000 0.707107 0.707107 0.000000 0.500000 0.866025 0.000000 0.500000 0.866025 0.000000 0.258819 0.965926 0.000000 0.258819 0.965926 0.000000 0.000000 1.000000 0.000000 0.000000 1.000000 0.000000 -0.258819 0.965926 0.000000 -0.258819 0.965926 0.000000 -0.500000 0.866025 0.000000 -0.500000 0.866025 0.000000 -0.707107 0.707107 0.000000 -0.707107 0.707107 0.000000 -0.866025 0.500000 0.000000 -0.866025 0.500000 0.000000 -0.965926 0.258819 0.000000 -0.965926 0.258819 0.000000 -1.000000 0.000000 0.000000 -1.000000 0.000000 0.000000 -0.965926 -0.258819 -0.000000 -0.965926 -0.258819 -0.000000 -0.866025 -0.500000 -0.000000 -0.866025 -0.500000 -0.000000 -0.707107 -0.707107 -0.000000 -0.707107 -0.707107 -0.000000 -0.500000 -0.866025 -0.000000 -0.500000 -0.866025 -0.000000 -0.258819 -0.965926 -0.000000 -0.258819 -0.965926 -0.000000 0.000000 -1.000000 0.000000 0.000000 -1.000000 0.000000 0.258819 -0.965926 0.000000 0.258819 -0.965926 0.000000 0.500000 -0.866025 0.000000 0.500000 -0.866025 0.000000 0.707107 -0.707107 0.000000 0.707107 -0.707107 0.000000 0.866025 -0.500000 0.000000 0.866025 -0.500000 0.000000 0.965926 -0.258819 0.000000 0.965926 -0.258819 0.000000 1.000000 -0.000000 0.000000 1.000000 -0.000000 0.000000 0.965926 0.258819 0.000000 0.965926 0.258819 0.000000 0.866025 0.500000 0.000000 0.866025 0.500000 0.000000 0.707107 0.707107 0.000000 0.707107 0.707107 0.000000 0.500000 0.866025 0.000000 0.500000 0.866025 0.000000 0.258819 0.965926 0.000000 0.258819 0.965926 0.000000 0.000000 1.000000 0.000000 0.000000 1.000000 0.000000 -0.258819 0.965926 0.000000 -0.258819 0.965926 0.000000 -0.500000 0.866025 0.000000 -0.500000 0.866025 0.000000 -0.707107 0.707107 0.000000 -0.707107 0.707107 0.000000 -0.866025 0.500000 0.000000 -0.866025 0.500000 0.000000 -1.000000 0.000000 0.000000 -1.000000 0.000000 0.000000 -1.000000 0.000000 0.000000 -1.000000 0.000000 0.000000 1.000000 -0.000000 0.000000 1.000000 -0.000000 0.000000 1.000000 -0.000000 0.000000 1.000000 -0.000000 0.000000 -0.000000 1.000000 0.000000 -0.000000 1.000000 0.000000 -0.000000 1.000000 0.000000 -0.000000 1.000000 0.000000 -0.000000 1.000000 0.000000 -0.000000 1.000000 0.000000 -0.000000 1.000000 0.000000 -0.000000 1.000000 0.000000 -0.000000 0.000000 1.000000 -0.000000 0.000000 1.000000 -0.000000 0.000000 1.000000 -0.000000 0.000000 1.000000 -0.000000 0.000000 1.000000 -0.000000 0.000000 1.000000 -0.000000 0.000000 1.000000 -0.000000 0.000000 1.000000 -0.000000 0.000000 1.000000 -0.000000 0.000000 1.000000 -0.000000 0.000000 1.000000 -0.000000 0.000000 1.000000 -0.000000 0.000000 1.000000 -0.000000 0.000000 1.000000 -0.000000 0.000000 1.000000 -0.000000 0.000000 1.000000 -0.000000 0.000000 1.000000 -0.000000 0.000000 1.000000 -0.000000 0.000000 1.000000 -0.000000 0.000000 1.000000 -0.000000 0.000000 1.000000 -0.000000 0.000000 1.000000 -0.000000 0.000000 1.000000 -0.000000 0.000000 1.000000 -0.000000 0.000000 1.000000 -0.000000 0.000000 1.000000 -0.000000 0.000000 1.000000 -0.000000 0.000000 1.000000 -0.000000 0.000000 1.000000 -0.000000 0.000000 1.000000 -0.000000 0.000000 1.000000 -0.000000 0.000000 1.000000 -0.000000 0.000000 1.000000 -0.000000 0.000000 1.000000 -0.000000 0.000000 1.000000 -0.000000 0.000000 1.000000 -0.000000 0.000000 1.000000 -0.000000 0.000000 1.000000 -0.000000 0.000000 1.000000 -0.000000 0.000000 1.000000 -0.000000 0.000000 1.000000 -0.000000 0.000000 1.000000 -0.000000 0.000000 1.000000 -0.000000 0.000000 1.000000 -0.000000 0.000000 1.000000 -0.000000 0.000000 1.000000 -0.000000 0.000000 1.000000 -0.000000 0.000000 1.000000 -0.000000 0.000000 1.000000 -0.000000 0.000000 1.000000 -0.000000 0.000000 1.000000 -0.000000 0.000000 1.000000 -0.000000 0.000000 1.000000 -0.000000 0.000000 1.000000 -0.000000 0.000000 1.000000 -0.000000 0.000000 1.000000 -0.000000 0.000000 1.000000 -0.000000 0.000000 1.000000 -0.000000 0.000000 1.000000 -0.000000 0.000000 1.000000 -0.000000 0.000000 1.000000 -0.000000 0.000000 1.000000 -0.000000 0.000000 1.000000 -0.000000 0.000000 1.000000 -0.000000 0.000000 1.000000 -0.000000 0.000000 1.000000 -0.000000 0.000000 1.000000 -0.000000 0.000000 1.000000 -0.000000 0.000000 1.000000 -0.000000 0.000000 1.000000 -0.000000 0.000000 1.000000 -0.000000 0.000000 1.000000 -0.000000 0.000000 1.000000 -0.000000 0.000000 1.000000 -0.000000 0.000000 1.000000 -0.000000 0.000000 1.000000 -0.000000 0.000000 1.000000 -0.000000 0.000000 1.000000 -0.000000 0.000000 1.000000 -0.000000 0.000000 1.000000 -0.000000 0.000000 1.000000 -0.000000 0.000000 1.000000 -0.000000 0.000000 1.000000 -0.000000 0.000000 1.000000 -0.000000 0.000000 1.000000 -0.000000 0.000000 1.000000 -0.000000 0.000000 1.000000 -0.000000 0.000000 1.000000 -0.000000 0.000000 1.000000 -0.000000 0.000000 1.000000 -0.000000 0.000000 1.000000 -0.000000 0.000000 1.000000 -0.000000 0.000000 1.000000 -0.000000 0.000000 1.000000 -0.000000 0.000000 1.000000 -0.000000 0.000000 1.000000 -0.000000 0.000000 1.000000 -0.000000 0.000000 1.000000 -0.000000 0.000000 1.000000 -0.000000 0.000000 1.000000 -0.000000 0.000000 1.000000 -0.000000 0.000000 1.000000 -0.000000 0.000000 1.000000 -0.000000 0.000000 1.000000 -0.000000 0.000000 1.000000 -0.000000 0.000000 1.000000 -0.000000 0.000000 1.000000 -0.000000 0.000000 1.000000 -0.000000 0.000000 1.000000 -0.000000 0.000000 1.000000 -0.000000 0.000000 1.000000 -0.000000 0.000000 1.000000 -0.000000 0.000000 1.000000 -0.000000 0.000000 1.000000 -0.000000 0.000000 1.000000 -0.000000 0.000000 1.000000 -0.000000 0.000000 1.000000 -0.000000 0.000000 1.000000 -0.000000 0.000000 1.000000 -0.000000 0.000000 1.000000 -0.000000 0.000000 1.000000 -0.000000 0.000000 1.000000 -0.000000 0.000000 1.000000 -0.000000 0.000000 1.000000 -0.000000 0.000000 1.000000 -0.000000 0.000000 1.000000 -0.000000 0.000000 1.000000 -0.000000 0.000000 1.000000 -0.000000 0.000000 1.000000 -0.000000 0.000000 1.000000 -0.000000 0.000000 1.000000 -0.000000 0.000000 1.000000 -0.000000 0.000000 1.000000 -0.000000 0.000000 1.000000 -0.000000 0.000000 1.000000 -0.000000 0.000000 1.000000 -0.000000 0.000000 1.000000 -0.000000 0.000000 1.000000 -0.000000 0.000000 1.000000 -0.000000 0.000000 1.000000 -0.000000 0.000000 1.000000 -0.000000 0.000000 1.000000 -0.000000 0.000000 1.000000 -0.000000 0.000000 1.000000 -0.000000 0.000000 1.000000 -0.000000 0.000000 1.000000 -0.000000 0.000000 1.000000 -0.000000 0.000000 1.000000 -0.000000 0.000000 1.000000 -0.000000 0.000000 1.000000 -0.000000 0.000000 1.000000 -0.000000 0.000000 1.000000 -0.000000 0.000000 1.000000 -0.000000 0.000000 1.000000 -0.000000 0.000000 1.000000 -0.000000 0.000000 1.000000 -0.000000 0.000000 1.000000 -0.000000 0.000000 1.000000 -0.000000 0.000000 1.000000 -0.000000 0.000000 1.000000 -0.000000 0.000000 1.000000 -0.000000 0.000000 1.000000 -0.000000 0.000000 1.000000 -0.000000 0.000000 1.000000 -0.000000 0.000000 1.000000 -0.000000 0.000000 1.000000 -0.000000 0.000000 1.000000 -0.000000 0.000000 1.000000 -0.000000 0.000000 1.000000 -0.000000 0.000000 1.000000 -0.000000 0.000000 1.000000 -0.000000 0.000000 1.000000 -0.000000 0.000000 1.000000 -0.000000 0.000000 1.000000 -0.000000 0.000000 1.000000 -0.000000 0.000000 1.000000 -0.000000 0.000000 1.000000 -0.000000 0.000000 1.000000 -0.000000 0.000000 1.000000 -0.000000 0.000000 1.000000 -0.000000 0.000000 1.000000 -0.000000 0.000000 1.000000 -0.000000 0.000000 1.000000 -0.000000 0.000000 1.000000 -0.000000 0.000000 1.000000 -0.000000 0.000000 1.000000 -0.000000 0.000000 1.000000 -0.000000 0.000000 1.000000 -0.000000 0.000000 1.000000 -0.000000 0.000000 1.000000 -0.000000 0.000000 1.000000 -0.000000 0.000000 1.000000 -0.000000 0.000000 1.000000 -0.000000 0.000000 1.000000 -0.000000 0.000000 1.000000 -0.000000 0.000000 1.000000</float_array>
          <technique_common>
            <accessor source="#Battery_Mount-mesh-normals-array" count="816" stride="3">
              <param name="X" type="float"/>
              <param name="Y" type="float"/>
              <param name="Z" type="float"/>
            </accessor>
          </technique_common>
        </source>
        <vertices id="Battery_Mount-mesh-vertices">
          <input semantic="POSITION" source="#Battery_Mount-mesh-positions"/>
        </vertices>
        <triangles material="Powder_Coat__Black_" count="828">
          <input semantic="VERTEX" source="#Battery_Mount-mesh-vertices" offset="0"/>
          <input semantic="NORMAL" source="#Battery_Mount-mesh-normals" offset="1"/>
          <p>0 0 1 1 3 2 3 2 1 1 2 3 4 4 5 5 7 6 7 6 5 5 6 7 6 8 140 9 7 10 7 10 140 9 141 11 7 10 141 11 142 12 3 13 62 14 6 8 6 8 62 14 63 15 6 8 63 15 64 16 2 17 104 18 3 13 3 13 104 18 105 19 3 13 105 19 103 20 103 20 105 19 102 21 102 21 105 19 106 22 102 21 106 22 101 23 101 23 106 22 107 24 101 23 107 24 32 25 32 25 107 24 108 26 32 25 108 26 55 27 55 27 108 26 109 28 55 27 109 28 110 29 7 10 170 30 2 17 2 17 170 30 171 31 2 17 171 31 172 32 9 33 67 34 8 35 8 35 67 34 68 36 8 35 68 36 31 37 31 37 68 36 69 38 31 37 69 38 182 39 182 39 69 38 181 40 181 40 69 38 70 41 181 40 70 41 180 42 180 42 70 41 71 43 180 42 71 43 179 44 179 44 71 43 72 45 179 44 72 45 178 46 178 46 72 45 73 47 178 46 73 47 177 48 177 48 73 47 74 49 177 48 74 49 43 50 43 50 74 49 75 51 43 50 75 51 42 52 42 52 75 51 76 53 42 52 76 53 41 54 41 54 76 53 77 55 41 54 77 55 40 56 40 56 77 55 78 57 40 56 78 57 39 58 39 58 78 57 79 59 39 58 79 59 38 60 38 60 79 59 93 61 38 60 93 61 37 62 37 62 93 61 94 63 37 62 94 63 36 64 36 64 94 63 95 65 36 64 95 65 35 66 35 66 95 65 96 67 35 66 96 67 34 68 34 68 96 67 97 69 34 68 97 69 33 70 33 70 97 69 98 71 33 70 98 71 99 72 67 34 9 33 66 73 66 73 9 33 10 74 66 73 10 74 65 75 65 75 10 74 11 76 65 75 11 76 64 16 64 16 11 76 12 77 64 16 12 77 6 8 6 8 12 77 13 78 6 8 13 78 14 79 14 79 15 80 6 8 6 8 15 80 16 81 6 8 16 81 17 82 17 82 18 83 6 8 6 8 18 83 19 84 6 8 19 84 20 85 20 85 21 86 6 8 6 8 21 86 139 87 6 8 139 87 140 9 21 86 22 88 139 87 139 87 22 88 138 89 138 89 22 88 23 90 138 89 23 90 137 91 137 91 23 90 188 92 137 91 188 92 136 93 136 93 188 92 189 94 136 93 189 94 135 95 135 95 189 94 134 96 134 96 189 94 133 97 133 97 189 94 190 98 133 97 190 98 132 99 132 99 190 98 191 100 132 99 191 100 131 101 131 101 191 100 192 102 131 101 192 102 130 103 130 103 192 102 193 104 130 103 193 104 129 105 129 105 193 104 194 106 129 105 194 106 163 107 163 107 194 106 195 108 163 107 195 108 162 109 162 109 195 108 196 110 162 109 196 110 161 111 161 111 196 110 197 112 161 111 197 112 160 113 160 113 197 112 198 114 160 113 198 114 159 115 159 115 198 114 199 116 159 115 199 116 158 117 158 117 199 116 45 118 158 117 45 118 157 119 157 119 45 118 46 120 157 119 46 120 156 121 156 121 46 120 47 122 156 121 47 122 155 123 155 123 47 122 48 124 155 123 48 124 154 125 154 125 48 124 49 126 154 125 49 126 153 127 153 127 49 126 50 128 153 127 50 128 115 129 115 129 50 128 51 130 115 129 51 130 114 131 114 131 51 130 52 132 114 131 52 132 113 133 113 133 52 132 53 134 113 133 53 134 112 135 112 135 53 134 54 136 112 135 54 136 111 137 111 137 54 136 55 27 111 137 55 27 110 29 23 90 24 138 188 92 188 92 24 138 187 139 187 139 24 138 25 140 187 139 25 140 26 141 26 141 27 142 187 139 187 139 27 142 186 143 186 143 27 142 28 144 186 143 28 144 185 145 185 145 28 144 29 146 185 145 29 146 184 147 184 147 29 146 30 148 184 147 30 148 183 149 183 149 30 148 31 37 183 149 31 37 182 39 101 23 32 25 100 150 100 150 32 25 33 70 100 150 33 70 99 72 177 48 43 50 176 151 176 151 43 50 44 152 176 151 44 152 199 116 199 116 44 152 45 118 57 153 91 154 56 155 56 155 91 154 92 156 56 155 92 156 79 59 79 59 92 156 93 61 91 154 57 153 90 157 90 157 57 153 58 158 90 157 58 158 89 159 89 159 58 158 59 160 89 159 59 160 88 161 88 161 59 160 60 162 88 161 60 162 3 13 3 13 60 162 61 163 3 13 61 163 62 14 103 20 80 164 3 13 3 13 80 164 81 165 3 13 81 165 82 166 82 166 83 167 3 13 3 13 83 167 84 168 3 13 84 168 85 169 85 169 86 170 3 13 3 13 86 170 87 171 3 13 87 171 88 161 153 127 115 129 152 172 152 172 115 129 116 173 152 172 116 173 175 174 175 174 116 173 117 175 175 174 117 175 174 176 174 176 117 175 118 177 174 176 118 177 173 178 173 178 118 177 119 179 173 178 119 179 2 17 2 17 119 179 120 180 2 17 120 180 121 181 121 181 122 182 2 17 2 17 122 182 123 183 2 17 123 183 124 184 124 184 125 185 2 17 2 17 125 185 126 186 2 17 126 186 127 187 127 187 104 18 2 17 129 105 163 107 128 188 128 188 163 107 164 189 128 188 164 189 151 190 151 190 164 189 165 191 151 190 165 191 150 192 150 192 165 191 166 193 150 192 166 193 149 194 149 194 166 193 167 195 149 194 167 195 7 10 7 10 167 195 168 196 7 10 168 196 169 197 142 12 143 198 7 10 7 10 143 198 144 199 7 10 144 199 145 200 145 200 146 201 7 10 7 10 146 201 147 202 7 10 147 202 148 203 148 203 149 194 7 10 169 197 170 30 7 10 172 32 173 178 2 17 0 204 200 205 1 206 1 206 200 205 201 207 4 208 202 209 5 210 5 210 202 209 203 211 4 212 7 213 202 214 202 214 7 213 205 215 205 215 7 213 2 216 205 215 2 216 204 217 204 217 2 216 201 218 201 218 2 216 1 219 31 220 229 221 8 222 8 222 229 221 206 223 8 222 206 223 9 224 9 224 206 223 207 225 9 224 207 225 10 226 10 226 207 225 208 227 10 226 208 227 11 228 11 228 208 227 209 229 11 228 209 229 12 230 12 230 209 229 210 231 12 230 210 231 13 232 13 232 210 231 211 233 13 232 211 233 14 234 14 234 211 233 212 235 14 234 212 235 15 236 15 236 212 235 213 237 15 236 213 237 16 238 16 238 213 237 214 239 16 238 214 239 17 240 17 240 214 239 215 241 17 240 215 241 18 242 18 242 215 241 216 243 18 242 216 243 19 244 19 244 216 243 217 245 19 244 217 245 20 246 20 246 217 245 218 247 20 246 218 247 21 248 21 248 218 247 219 249 21 248 219 249 22 250 22 250 219 249 220 251 22 250 220 251 23 252 23 252 220 251 221 253 23 252 221 253 24 254 24 254 221 253 222 255 24 254 222 255 25 256 25 256 222 255 223 257 25 256 223 257 26 258 26 258 223 257 224 259 26 258 224 259 27 260 27 260 224 259 225 261 27 260 225 261 28 262 28 262 225 261 226 263 28 262 226 263 29 264 29 264 226 263 227 265 29 264 227 265 30 266 30 266 227 265 228 267 30 266 228 267 31 220 31 220 228 267 229 221 55 268 253 269 32 270 32 270 253 269 230 271 32 270 230 271 33 272 33 272 230 271 231 273 33 272 231 273 34 274 34 274 231 273 232 275 34 274 232 275 35 276 35 276 232 275 233 277 35 276 233 277 36 278 36 278 233 277 234 279 36 278 234 279 37 280 37 280 234 279 235 281 37 280 235 281 38 282 38 282 235 281 236 283 38 282 236 283 39 284 39 284 236 283 237 285 39 284 237 285 40 286 40 286 237 285 238 287 40 286 238 287 41 288 41 288 238 287 239 289 41 288 239 289 42 290 42 290 239 289 240 291 42 290 240 291 43 292 43 292 240 291 241 293 43 292 241 293 44 294 44 294 241 293 242 295 44 294 242 295 45 296 45 296 242 295 243 297 45 296 243 297 46 298 46 298 243 297 244 299 46 298 244 299 47 300 47 300 244 299 245 301 47 300 245 301 48 302 48 302 245 301 246 303 48 302 246 303 49 304 49 304 246 303 247 305 49 304 247 305 50 306 50 306 247 305 248 307 50 306 248 307 51 308 51 308 248 307 249 309 51 308 249 309 52 310 52 310 249 309 250 311 52 310 250 311 53 312 53 312 250 311 251 313 53 312 251 313 54 314 54 314 251 313 252 315 54 314 252 315 55 268 55 268 252 315 253 269 127 316 277 317 104 318 104 318 277 317 254 319 104 318 254 319 105 320 105 320 254 319 255 321 105 320 255 321 106 322 106 322 255 321 256 323 106 322 256 323 107 324 107 324 256 323 257 325 107 324 257 325 108 326 108 326 257 325 258 327 108 326 258 327 109 328 109 328 258 327 259 329 109 328 259 329 110 330 110 330 259 329 260 331 110 330 260 331 111 332 111 332 260 331 261 333 111 332 261 333 112 334 112 334 261 333 262 335 112 334 262 335 113 336 113 336 262 335 263 337 113 336 263 337 114 338 114 338 263 337 264 339 114 338 264 339 115 340 115 340 264 339 265 341 115 340 265 341 116 342 116 342 265 341 266 343 116 342 266 343 117 344 117 344 266 343 267 345 117 344 267 345 118 346 118 346 267 345 268 347 118 346 268 347 119 348 119 348 268 347 269 349 119 348 269 349 120 350 120 350 269 349 270 351 120 350 270 351 121 352 121 352 270 351 271 353 121 352 271 353 122 354 122 354 271 353 272 355 122 354 272 355 123 356 123 356 272 355 273 357 123 356 273 357 124 358 124 358 273 357 274 359 124 358 274 359 125 360 125 360 274 359 275 361 125 360 275 361 126 362 126 362 275 361 276 363 126 362 276 363 127 316 127 316 276 363 277 317 79 364 301 365 56 366 56 366 301 365 278 367 56 366 278 367 57 368 57 368 278 367 279 369 57 368 279 369 58 370 58 370 279 369 280 371 58 370 280 371 59 372 59 372 280 371 281 373 59 372 281 373 60 374 60 374 281 373 282 375 60 374 282 375 61 376 61 376 282 375 283 377 61 376 283 377 62 378 62 378 283 377 284 379 62 378 284 379 63 380 63 380 284 379 285 381 63 380 285 381 64 382 64 382 285 381 286 383 64 382 286 383 65 384 65 384 286 383 287 385 65 384 287 385 66 386 66 386 287 385 288 387 66 386 288 387 67 388 67 388 288 387 289 389 67 388 289 389 68 390 68 390 289 389 290 391 68 390 290 391 69 392 69 392 290 391 291 393 69 392 291 393 70 394 70 394 291 393 292 395 70 394 292 395 71 396 71 396 292 395 293 397 71 396 293 397 72 398 72 398 293 397 294 399 72 398 294 399 73 400 73 400 294 399 295 401 73 400 295 401 74 402 74 402 295 401 296 403 74 402 296 403 75 404 75 404 296 403 297 405 75 404 297 405 76 406 76 406 297 405 298 407 76 406 298 407 77 408 77 408 298 407 299 409 77 408 299 409 78 410 78 410 299 409 300 411 78 410 300 411 79 364 79 364 300 411 301 365 151 412 325 413 128 414 128 414 325 413 302 415 128 414 302 415 129 416 129 416 302 415 303 417 129 416 303 417 130 418 130 418 303 417 304 419 130 418 304 419 131 420 131 420 304 419 305 421 131 420 305 421 132 422 132 422 305 421 306 423 132 422 306 423 133 424 133 424 306 423 307 425 133 424 307 425 134 426 134 426 307 425 308 427 134 426 308 427 135 428 135 428 308 427 309 429 135 428 309 429 136 430 136 430 309 429 310 431 136 430 310 431 137 432 137 432 310 431 311 433 137 432 311 433 138 434 138 434 311 433 312 435 138 434 312 435 139 436 139 436 312 435 313 437 139 436 313 437 140 438 140 438 313 437 314 439 140 438 314 439 141 440 141 440 314 439 315 441 141 440 315 441 142 442 142 442 315 441 316 443 142 442 316 443 143 444 143 444 316 443 317 445 143 444 317 445 144 446 144 446 317 445 318 447 144 446 318 447 145 448 145 448 318 447 319 449 145 448 319 449 146 450 146 450 319 449 320 451 146 450 320 451 147 452 147 452 320 451 321 453 147 452 321 453 148 454 148 454 321 453 322 455 148 454 322 455 149 456 149 456 322 455 323 457 149 456 323 457 150 458 150 458 323 457 324 459 150 458 324 459 151 412 151 412 324 459 325 413 199 460 349 461 176 462 176 462 349 461 326 463 176 462 326 463 177 464 177 464 326 463 327 465 177 464 327 465 178 466 178 466 327 465 328 467 178 466 328 467 179 468 179 468 328 467 329 469 179 468 329 469 180 470 180 470 329 469 330 471 180 470 330 471 181 472 181 472 330 471 331 473 181 472 331 473 182 474 182 474 331 473 332 475 182 474 332 475 183 476 183 476 332 475 333 477 183 476 333 477 184 478 184 478 333 477 334 479 184 478 334 479 185 480 185 480 334 479 335 481 185 480 335 481 186 482 186 482 335 481 336 483 186 482 336 483 187 484 187 484 336 483 337 485 187 484 337 485 188 486 188 486 337 485 338 487 188 486 338 487 189 488 189 488 338 487 339 489 189 488 339 489 190 490 190 490 339 489 340 491 190 490 340 491 191 492 191 492 340 491 341 493 191 492 341 493 192 494 192 494 341 493 342 495 192 494 342 495 193 496 193 496 342 495 343 497 193 496 343 497 194 498 194 498 343 497 344 499 194 498 344 499 195 500 195 500 344 499 345 501 195 500 345 501 196 502 196 502 345 501 346 503 196 502 346 503 197 504 197 504 346 503 347 505 197 504 347 505 198 506 198 506 347 505 348 507 198 506 348 507 199 460 199 460 348 507 349 461 103 508 373 509 80 510 80 510 373 509 350 511 80 510 350 511 81 512 81 512 350 511 351 513 81 512 351 513 82 514 82 514 351 513 352 515 82 514 352 515 83 516 83 516 352 515 353 517 83 516 353 517 84 518 84 518 353 517 354 519 84 518 354 519 85 520 85 520 354 519 355 521 85 520 355 521 86 522 86 522 355 521 356 523 86 522 356 523 87 524 87 524 356 523 357 525 87 524 357 525 88 526 88 526 357 525 358 527 88 526 358 527 89 528 89 528 358 527 359 529 89 528 359 529 90 530 90 530 359 529 360 531 90 530 360 531 91 532 91 532 360 531 361 533 91 532 361 533 92 534 92 534 361 533 362 535 92 534 362 535 93 536 93 536 362 535 363 537 93 536 363 537 94 538 94 538 363 537 364 539 94 538 364 539 95 540 95 540 364 539 365 541 95 540 365 541 96 542 96 542 365 541 366 543 96 542 366 543 97 544 97 544 366 543 367 545 97 544 367 545 98 546 98 546 367 545 368 547 98 546 368 547 99 548 99 548 368 547 369 549 99 548 369 549 100 550 100 550 369 549 370 551 100 550 370 551 101 552 101 552 370 551 371 553 101 552 371 553 102 554 102 554 371 553 372 555 102 554 372 555 103 508 103 508 372 555 373 509 175 556 397 557 152 558 152 558 397 557 374 559 152 558 374 559 153 560 153 560 374 559 375 561 153 560 375 561 154 562 154 562 375 561 376 563 154 562 376 563 155 564 155 564 376 563 377 565 155 564 377 565 156 566 156 566 377 565 378 567 156 566 378 567 157 568 157 568 378 567 379 569 157 568 379 569 158 570 158 570 379 569 380 571 158 570 380 571 159 572 159 572 380 571 381 573 159 572 381 573 160 574 160 574 381 573 382 575 160 574 382 575 161 576 161 576 382 575 383 577 161 576 383 577 162 578 162 578 383 577 384 579 162 578 384 579 163 580 163 580 384 579 385 581 163 580 385 581 164 582 164 582 385 581 386 583 164 582 386 583 165 584 165 584 386 583 387 585 165 584 387 585 166 586 166 586 387 585 388 587 166 586 388 587 167 588 167 588 388 587 389 589 167 588 389 589 168 590 168 590 389 589 390 591 168 590 390 591 169 592 169 592 390 591 391 593 169 592 391 593 170 594 170 594 391 593 392 595 170 594 392 595 171 596 171 596 392 595 393 597 171 596 393 597 172 598 172 598 393 597 394 599 172 598 394 599 173 600 173 600 394 599 395 601 173 600 395 601 174 602 174 602 395 601 396 603 174 602 396 603 175 556 175 556 396 603 397 557 205 604 398 605 202 606 202 606 398 605 203 607 399 608 204 609 200 610 200 610 204 609 201 611 5 612 203 613 6 614 6 614 203 613 398 615 6 614 398 615 399 616 6 614 399 616 3 617 3 617 399 616 200 618 3 617 200 618 0 619 398 620 284 621 399 622 399 622 284 621 283 623 399 622 283 623 357 624 357 624 283 623 358 625 358 625 283 623 282 626 358 625 282 626 359 627 359 627 282 626 281 628 359 627 281 628 360 629 360 629 281 628 280 630 360 629 280 630 361 631 361 631 280 630 279 632 361 631 279 632 362 633 362 633 279 632 278 634 362 633 278 634 363 635 363 635 278 634 301 636 363 635 301 636 364 637 364 637 301 636 300 638 364 637 300 638 236 639 236 639 300 638 237 640 237 640 300 638 299 641 237 640 299 641 238 642 238 642 299 641 239 643 239 643 299 641 298 644 239 643 298 644 297 645 205 646 314 647 398 620 398 620 314 647 313 648 398 620 313 648 312 649 204 650 392 651 205 646 205 646 392 651 391 652 205 646 391 652 390 653 399 622 254 654 204 650 204 650 254 654 277 655 204 650 277 655 276 656 397 657 267 658 374 659 374 659 267 658 266 660 374 659 266 660 375 661 375 661 266 660 265 662 375 661 265 662 376 663 376 663 265 662 264 664 376 663 264 664 248 665 248 665 264 664 249 666 249 666 264 664 263 667 249 666 263 667 250 668 250 668 263 667 251 669 251 669 263 667 262 670 251 669 262 670 261 671 267 658 397 657 268 672 268 672 397 657 396 673 268 672 396 673 269 674 269 674 396 673 395 675 269 674 395 675 270 676 270 676 395 675 394 677 270 676 394 677 204 650 204 650 394 677 393 678 204 650 393 678 392 651 389 679 323 680 390 653 390 653 323 680 322 681 390 653 322 681 205 646 205 646 322 681 321 682 205 646 321 682 320 683 323 680 389 679 324 684 324 684 389 679 388 685 324 684 388 685 325 686 325 686 388 685 387 687 325 686 387 687 302 688 302 688 387 687 386 689 302 688 386 689 303 690 303 690 386 689 385 691 303 690 385 691 304 692 304 692 385 691 384 693 304 692 384 693 344 694 344 694 384 693 345 695 345 695 384 693 383 696 345 695 383 696 346 697 346 697 383 696 347 698 347 698 383 696 382 699 347 698 382 699 381 700 347 698 381 700 348 701 348 701 381 700 380 702 348 701 380 702 244 703 244 703 380 702 379 704 244 703 379 704 245 705 245 705 379 704 378 706 245 705 378 706 377 707 376 663 247 708 377 707 377 707 247 708 246 709 377 707 246 709 245 705 351 710 350 711 399 622 399 622 350 711 373 712 399 622 373 712 372 713 399 622 372 713 256 714 256 714 372 713 371 715 256 714 371 715 257 716 257 716 371 715 230 717 257 716 230 717 258 718 258 718 230 717 253 719 258 718 253 719 259 720 259 720 253 719 260 721 260 721 253 719 252 722 260 721 252 722 261 671 261 671 252 722 251 669 371 715 370 723 230 717 230 717 370 723 231 724 231 724 370 723 369 725 231 724 369 725 368 726 231 724 368 726 232 727 232 727 368 726 367 728 232 727 367 728 233 729 233 729 367 728 366 730 233 729 366 730 365 731 364 637 235 732 365 731 365 731 235 732 234 733 365 731 234 733 233 729 357 624 356 734 399 622 399 622 356 734 355 735 399 622 355 735 354 736 354 736 353 737 399 622 399 622 353 737 352 738 399 622 352 738 351 710 349 739 243 740 326 741 326 741 243 740 242 742 326 741 242 742 327 743 327 743 242 742 241 744 327 743 241 744 328 745 328 745 241 744 240 746 328 745 240 746 296 747 296 747 240 746 297 645 297 645 240 746 239 643 243 740 349 739 244 703 244 703 349 739 348 701 344 694 343 748 304 692 304 692 343 748 305 749 305 749 343 748 342 750 305 749 342 750 341 751 340 752 307 753 341 751 341 751 307 753 306 754 341 751 306 754 305 749 307 753 340 752 308 755 308 755 340 752 339 756 308 755 339 756 309 757 309 757 339 756 310 758 310 758 339 756 338 759 310 758 338 759 311 760 311 760 338 759 221 761 311 760 221 761 312 649 312 649 221 761 220 762 312 649 220 762 398 620 398 620 220 762 219 763 398 620 219 763 218 764 221 761 338 759 222 765 222 765 338 759 337 766 222 765 337 766 223 767 223 767 337 766 224 768 224 768 337 766 336 769 224 768 336 769 225 770 225 770 336 769 335 771 225 770 335 771 226 772 226 772 335 771 227 773 227 773 335 771 334 774 227 773 334 774 333 775 227 773 333 775 228 776 228 776 333 775 332 777 228 776 332 777 292 778 292 778 332 777 331 779 292 778 331 779 293 780 293 780 331 779 330 781 293 780 330 781 329 782 328 745 295 783 329 782 329 782 295 783 294 784 329 782 294 784 293 780 320 683 319 785 205 646 205 646 319 785 318 786 205 646 318 786 317 787 317 787 316 788 205 646 205 646 316 788 315 789 205 646 315 789 314 647 296 747 295 783 328 745 228 776 292 778 229 790 229 790 292 778 291 791 229 790 291 791 206 792 206 792 291 791 290 793 206 792 290 793 207 794 207 794 290 793 289 795 207 794 289 795 208 796 208 796 289 795 288 797 208 796 288 797 209 798 209 798 288 797 287 799 209 798 287 799 210 800 210 800 287 799 286 801 210 800 286 801 211 802 211 802 286 801 285 803 211 802 285 803 398 620 398 620 285 803 284 621 276 656 275 804 204 650 204 650 275 804 274 805 204 650 274 805 273 806 273 806 272 807 204 650 204 650 272 807 271 808 204 650 271 808 270 676 256 714 255 809 399 622 399 622 255 809 254 654 248 665 247 708 376 663 236 639 235 732 364 637 218 764 217 810 398 620 398 620 217 810 216 811 398 620 216 811 215 812 215 812 214 813 398 620 398 620 214 813 213 814 398 620 213 814 212 815 212 815 211 802 398 620</p>
        </triangles>
      </mesh>
    </geometry>
  </library_geometries>
  <library_visual_scenes>
    <visual_scene id="Scene" name="Scene">
      <node id="Battery_Mount-node" name="Battery_Mount" type="NODE">
        <instance_geometry url="#Battery_Mount-mesh">
          <bind_material>
            <technique_common>
              <instance_material symbol="Powder_Coat__Black_" target="#Powder_Coat__Black_"/>
            </technique_common>
          </bind_material>
        </instance_geometry>
      </node>
    </visual_scene>
  </library_visual_scenes>
  <scene>
    <instance_visual_scene url="#Scene"/>
  </scene>
</COLLADA>
