<?xml version="1.0" encoding="utf-8"?>
<COLLADA xmlns="http://www.collada.org/2005/11/COLLADASchema" version="1.4.1">
  <asset>
    <contributor>
      <authoring_tool>Fusion URDF/XACRO Exporter</authoring_tool>
    </contributor>
    <created>2026-06-08T18:29:34Z</created>
    <modified>2026-06-08T18:29:34Z</modified>
    <unit name="meter" meter="1.0"/>
    <up_axis>Z_UP</up_axis>
  </asset>
  <library_effects>
    <effect id="Powder_Coat__Green_-effect">
      <profile_COMMON>
        <technique sid="common">
          <lambert>
            <emission><color>0 0 0 1</color></emission>
            <ambient><color>0.0000 0.0000 0.0000 1</color></ambient>
            <diffuse><color>0.2667 0.5882 0.2824 1</color></diffuse>
            <reflective><color>0 0 0 1</color></reflective>
            <transparent opaque="A_ONE"><color>1 1 1 1</color></transparent>
            <transparency><float>1</float></transparency>
          </lambert>
        </technique>
      </profile_COMMON>
    </effect>
  </library_effects>
  <library_materials>
    <material id="Powder_Coat__Green_" name="Powder_Coat_(Green)">
      <instance_effect url="#Powder_Coat__Green_-effect"/>
    </material>
  </library_materials>
  <library_geometries>
    <geometry id="FootCoverLeft-mesh" name="FootCoverLeft">
      <mesh>
        <source id="FootCoverLeft-mesh-positions">
          <float_array id="FootCoverLeft-mesh-positions-array" count="2076">0.080817 0.027880 -0.264087 0.079852 0.025248 -0.266401 0.079272 0.024198 -0.267789 0.078883 0.023656 -0.268724 0.078652 0.023357 -0.269276 0.079007 0.023572 -0.268452 0.078682 0.022913 -0.269310 0.078712 0.022838 -0.269288 0.078745 0.022764 -0.269267 0.078780 0.022690 -0.269247 0.078497 0.022045 -0.270196 0.078738 0.021721 -0.270175 0.079033 0.021445 -0.270196 0.078851 0.020912 -0.271322 0.079092 0.020800 -0.271368 0.079213 0.020754 -0.271397 0.079269 0.020732 -0.271419 0.079319 0.020710 -0.271448 0.079362 0.020690 -0.271486 0.079399 0.020669 -0.271531 0.079457 0.020630 -0.271640 0.079518 0.020557 -0.271889 0.080433 0.021470 -0.269357 0.081281 0.022833 -0.267012 0.082034 0.024616 -0.264930 0.082663 0.026774 -0.263191 0.082361 0.026845 -0.263173 0.082066 0.026942 -0.263195 0.081786 0.027061 -0.263257 0.081527 0.027199 -0.263358 0.081295 0.027355 -0.263496 0.081097 0.027523 -0.263666 0.080936 0.027699 -0.263865 0.080116 0.025105 -0.265908 0.080390 0.024753 -0.265701 0.080748 0.024445 -0.265569 0.081170 0.024198 -0.265519 0.081629 0.024027 -0.265554 0.079013 0.023212 -0.268558 0.079253 0.022801 -0.268435 0.079581 0.022440 -0.268375 0.079978 0.022152 -0.268383 0.080421 0.021952 -0.268458 0.073543 0.025023 -0.286717 0.073785 0.025023 -0.286791 0.074044 0.025017 -0.286823 0.074230 0.024539 -0.286373 0.074424 0.024086 -0.285909 0.074624 0.023657 -0.285427 0.074803 0.023305 -0.284998 0.074987 0.022970 -0.284557 0.075142 0.022647 -0.284096 0.074898 0.022665 -0.284104 0.074745 0.022684 -0.284101 0.074619 0.022694 -0.284072 0.074243 0.022726 -0.283863 0.073881 0.022856 -0.283629 0.073584 0.023057 -0.283365 0.073359 0.023324 -0.283087 0.073220 0.023641 -0.282807 0.073179 0.023826 -0.282680 0.073171 0.023913 -0.282612 0.073177 0.023984 -0.282531 0.073181 0.024020 -0.282492 0.073183 0.024041 -0.282474 0.073184 0.024065 -0.282460 0.073183 0.024094 -0.282448 0.073181 0.024126 -0.282440 0.073173 0.024209 -0.282439 0.073135 0.024507 -0.282501 0.072581 0.025599 -0.283827 0.072089 0.026867 -0.285007 0.071671 0.028288 -0.286012 0.071330 0.029857 -0.286830 0.071428 0.028505 -0.286830 0.071781 0.027169 -0.286830 0.072058 0.026572 -0.286830 0.072443 0.025991 -0.286830 0.072911 0.025509 -0.286830 0.073196 0.025307 -0.286830 0.073496 0.025152 -0.286830 0.073796 0.024348 -0.286070 0.073337 0.024402 -0.285825 0.072946 0.024553 -0.285513 0.072649 0.024790 -0.285154 0.072467 0.025099 -0.284772 0.072413 0.025457 -0.284395 0.071736 0.027396 -0.286019 0.071767 0.027105 -0.286453 0.076930 0.020448 -0.279044 0.078238 0.020070 -0.275429 0.077449 0.022367 -0.272159 0.076192 0.022070 -0.275173 0.074939 0.022485 -0.278175 0.073752 0.023589 -0.281022 0.074255 0.022779 -0.279856 0.074288 0.022394 -0.280025 0.074402 0.022035 -0.280217 0.074602 0.021853 -0.279736 0.074805 0.021689 -0.279249 0.075010 0.021543 -0.278757 0.075149 0.021303 -0.278882 0.075305 0.021111 -0.279001 0.075488 0.020946 -0.279121 0.075693 0.020812 -0.279254 0.075932 0.020702 -0.279352 0.075992 0.020681 -0.279379 0.076048 0.020665 -0.279416 0.076073 0.020660 -0.279440 0.076096 0.020656 -0.279468 0.076138 0.020654 -0.279532 0.076182 0.020652 -0.279591 0.076210 0.020649 -0.279612 0.076225 0.020647 -0.279620 0.076242 0.020644 -0.279625 0.076260 0.020641 -0.279628 0.076280 0.020637 -0.279627 0.076326 0.020626 -0.279616 0.076380 0.020612 -0.279590 0.076445 0.020593 -0.279546 0.075035 0.021982 -0.278086 0.075149 0.021548 -0.278238 0.075358 0.021164 -0.278418 0.075653 0.020850 -0.278617 0.076016 0.020625 -0.278822 0.076426 0.020502 -0.279023 0.077941 0.020092 -0.275392 0.077519 0.020219 -0.275217 0.077136 0.020449 -0.275061 0.076814 0.020770 -0.274930 0.076569 0.021164 -0.274833 0.076416 0.021608 -0.274775 0.079453 0.020592 -0.271770 0.079020 0.020715 -0.271622 0.078616 0.020938 -0.271514 0.078265 0.021250 -0.271451 0.077986 0.021632 -0.271436 0.077795 0.022064 -0.271472 0.075979 0.021316 -0.281677 0.075580 0.021370 -0.281718 0.075122 0.021442 -0.281495 0.074717 0.021631 -0.281241 0.074391 0.021925 -0.280972 0.074166 0.022304 -0.280707 0.074057 0.022744 -0.280463 0.128071 0.194397 -0.260220 0.128071 0.195515 -0.262378 0.128071 0.196323 -0.264671 0.128071 0.196806 -0.267053 0.127071 0.196806 -0.267053 0.127071 0.196323 -0.264671 0.127071 0.195515 -0.262378 0.127071 0.194397 -0.260220 0.128589 0.122766 -0.199576 0.128589 0.127816 -0.196913 0.128589 0.133296 -0.195313 0.128589 0.138985 -0.194839 0.128589 0.144655 -0.195512 0.128589 0.150075 -0.197304 0.128589 0.155029 -0.200143 0.128589 0.159315 -0.203914 0.128589 0.162761 -0.208465 0.128071 0.162819 -0.208430 0.127071 0.162819 -0.208430 0.127071 0.159365 -0.203868 0.127071 0.155068 -0.200087 0.127071 0.150103 -0.197242 0.127071 0.144669 -0.195446 0.127071 0.138986 -0.194771 0.127071 0.133283 -0.195246 0.127071 0.127790 -0.196850 0.127071 0.122728 -0.199519 0.128072 0.122728 -0.199519 0.130072 0.192882 -0.261595 0.130072 0.194512 -0.265651 0.130072 0.194952 -0.269625 0.130072 0.194361 -0.273578 0.130072 0.192779 -0.277249 0.130072 0.190311 -0.280394 0.130072 0.187120 -0.282802 0.130072 0.183419 -0.284314 0.130072 0.179455 -0.284830 0.130003 0.179455 -0.285348 0.129804 0.179455 -0.285830 0.129486 0.179455 -0.286244 0.129072 0.179455 -0.286562 0.128589 0.179455 -0.286762 0.128071 0.179455 -0.286830 0.128071 0.183096 -0.286446 0.128071 0.186686 -0.285265 0.128071 0.189831 -0.283421 0.128071 0.192620 -0.280858 0.128071 0.194723 -0.277879 0.128071 0.196203 -0.274401 0.128071 0.196892 -0.270807 0.128589 0.194338 -0.260255 0.129071 0.194168 -0.260359 0.129486 0.193897 -0.260525 0.129804 0.193543 -0.260740 0.130003 0.193131 -0.260991 0.130004 0.194833 -0.264862 0.129805 0.195297 -0.264727 0.129487 0.195696 -0.264612 0.129073 0.196002 -0.264523 0.128590 0.196195 -0.264467 0.130004 0.195466 -0.269043 0.129805 0.195950 -0.269034 0.129487 0.196365 -0.269026 0.129073 0.196684 -0.269021 0.128590 0.196884 -0.269017 0.130004 0.194983 -0.273243 0.129805 0.195452 -0.273361 0.129487 0.195855 -0.273462 0.129073 0.196164 -0.273540 0.128590 0.196358 -0.273589 0.130004 0.193420 -0.277168 0.129805 0.193843 -0.277401 0.129487 0.194207 -0.277602 0.129073 0.194486 -0.277755 0.128590 0.194663 -0.277850 0.130004 0.190880 -0.280551 0.129805 0.191225 -0.280890 0.129487 0.191521 -0.281181 0.129073 0.191748 -0.281405 0.128590 0.191891 -0.281545 0.130004 0.187545 -0.283150 0.129805 0.187789 -0.283567 0.129487 0.187999 -0.283926 0.129073 0.188160 -0.284201 0.128590 0.188261 -0.284374 0.130004 0.183646 -0.284786 0.129805 0.183772 -0.285252 0.129487 0.183881 -0.285653 0.129073 0.183965 -0.285961 0.128590 0.184017 -0.286154 0.130071 0.123834 -0.201186 0.130071 0.128541 -0.198704 0.130071 0.133648 -0.197212 0.130071 0.138951 -0.196771 0.130071 0.144235 -0.197398 0.130071 0.149288 -0.199068 0.130071 0.153905 -0.201714 0.130071 0.157900 -0.205229 0.130071 0.161112 -0.209471 0.130003 0.161554 -0.209202 0.129804 0.161966 -0.208951 0.129486 0.162319 -0.208735 0.129071 0.162591 -0.208569 0.129072 0.122876 -0.199743 0.129486 0.123052 -0.200007 0.129804 0.123281 -0.200353 0.130003 0.123548 -0.200754 0.130003 0.128346 -0.198224 0.129804 0.128165 -0.197777 0.129486 0.128010 -0.197393 0.129071 0.127891 -0.197098 0.130003 0.133554 -0.196703 0.129804 0.133466 -0.196229 0.129486 0.133390 -0.195821 0.129071 0.133332 -0.195509 0.130003 0.138960 -0.196253 0.129804 0.138969 -0.195771 0.129486 0.138976 -0.195357 0.129071 0.138982 -0.195039 0.130003 0.144348 -0.196893 0.129804 0.144452 -0.196422 0.129486 0.144542 -0.196017 0.129071 0.144611 -0.195707 0.130003 0.149499 -0.198595 0.129804 0.149695 -0.198155 0.129486 0.149864 -0.197777 0.129071 0.149994 -0.197486 0.130003 0.154206 -0.201293 0.129804 0.154486 -0.200901 0.129486 0.154727 -0.200564 0.129071 0.154912 -0.200305 0.130003 0.158279 -0.204877 0.129804 0.158632 -0.204548 0.129486 0.158936 -0.204266 0.129071 0.159168 -0.204050 0.130071 0.027879 -0.264856 0.130003 0.027593 -0.264425 0.129803 0.027326 -0.264024 0.129485 0.027098 -0.263679 0.129071 0.026922 -0.263414 0.128589 0.026812 -0.263248 0.128071 0.026774 -0.263191 0.128071 0.023837 -0.265747 0.128071 0.021656 -0.268972 0.128071 0.020379 -0.272650 0.128071 0.020091 -0.276532 0.128071 0.020813 -0.280358 0.128071 0.022494 -0.283870 0.128071 0.025023 -0.286830 0.128505 0.025041 -0.286782 0.128913 0.025095 -0.286644 0.129275 0.025179 -0.286427 0.129578 0.025290 -0.286145 0.129812 0.025421 -0.285815 0.129973 0.025568 -0.285451 0.130057 0.025724 -0.285070 0.130071 0.025799 -0.284891 0.130071 0.025817 -0.284849 0.130071 0.025822 -0.284841 0.130071 0.025824 -0.284839 0.130071 0.025825 -0.284838 0.130071 0.025827 -0.284837 0.130071 0.023836 -0.282242 0.130071 0.022556 -0.279232 0.130071 0.022068 -0.275999 0.130071 0.022402 -0.272745 0.130071 0.023537 -0.269678 0.130071 0.025402 -0.266991 0.128589 0.023888 -0.265792 0.129071 0.024037 -0.265924 0.129485 0.024275 -0.266134 0.129803 0.024585 -0.266409 0.130003 0.024946 -0.266728 0.128589 0.021717 -0.269002 0.129071 0.021895 -0.269092 0.129485 0.022179 -0.269234 0.129803 0.022549 -0.269419 0.130003 0.022980 -0.269635 0.128589 0.020446 -0.272664 0.129071 0.020641 -0.272704 0.129485 0.020952 -0.272768 0.129803 0.021357 -0.272852 0.130003 0.021829 -0.272950 0.128589 0.020159 -0.276529 0.129071 0.020359 -0.276517 0.129485 0.020676 -0.276500 0.129803 0.021089 -0.276476 0.130003 0.021570 -0.276449 0.128589 0.020877 -0.280337 0.129071 0.021067 -0.280275 0.129485 0.021369 -0.280176 0.129803 0.021762 -0.280047 0.130003 0.022220 -0.279897 0.128589 0.022551 -0.283833 0.129071 0.022719 -0.283724 0.129485 0.022985 -0.283551 0.129803 0.023332 -0.283325 0.130003 0.023736 -0.283062 0.128071 0.162891 -0.211429 0.128071 0.159315 -0.206706 0.128071 0.154868 -0.202793 0.128071 0.149728 -0.199848 0.128071 0.144104 -0.197989 0.128071 0.138222 -0.197291 0.128071 0.132319 -0.197782 0.128071 0.126632 -0.199442 0.128071 0.121393 -0.202205 0.127071 0.121393 -0.202205 0.127071 0.126632 -0.199442 0.127071 0.132319 -0.197782 0.127071 0.138222 -0.197291 0.127071 0.144104 -0.197989 0.127071 0.149728 -0.199848 0.127071 0.154868 -0.202793 0.127071 0.159315 -0.206706 0.127071 0.162891 -0.211429 0.115071 0.079748 -0.228040 0.118177 0.080088 -0.227814 0.121071 0.081087 -0.227151 0.123557 0.082676 -0.226096 0.125464 0.084747 -0.224722 0.126663 0.087159 -0.223122 0.127071 0.089746 -0.221405 0.127071 0.090576 -0.222655 0.126663 0.087988 -0.224372 0.125464 0.085576 -0.225972 0.123557 0.083506 -0.227346 0.121071 0.081917 -0.228401 0.118177 0.080918 -0.229063 0.115071 0.080577 -0.229289 0.130071 0.136886 -0.223267 0.130071 0.136940 -0.223681 0.130071 0.137100 -0.224067 0.130071 0.137355 -0.224398 0.130071 0.137686 -0.224652 0.130071 0.138072 -0.224812 0.130071 0.138486 -0.224867 0.130071 0.138900 -0.224812 0.130071 0.139286 -0.224652 0.130071 0.139617 -0.224398 0.130071 0.139872 -0.224067 0.130071 0.140031 -0.223681 0.130071 0.140086 -0.223267 0.130071 0.140031 -0.222853 0.130071 0.139872 -0.222467 0.130071 0.139617 -0.222135 0.130071 0.139286 -0.221881 0.130071 0.138900 -0.221721 0.130071 0.138486 -0.221667 0.130071 0.138072 -0.221721 0.130071 0.137686 -0.221881 0.130071 0.137355 -0.222135 0.130071 0.137100 -0.222467 0.130071 0.136940 -0.222853 0.128071 0.136886 -0.223267 0.128071 0.136940 -0.222853 0.128071 0.137100 -0.222467 0.128071 0.137355 -0.222135 0.128071 0.137686 -0.221881 0.128071 0.138072 -0.221721 0.128071 0.138486 -0.221667 0.128071 0.138900 -0.221721 0.128071 0.139286 -0.221881 0.128071 0.139617 -0.222135 0.128071 0.139872 -0.222467 0.128071 0.140031 -0.222853 0.128071 0.140086 -0.223267 0.128071 0.140031 -0.223681 0.128071 0.139872 -0.224067 0.128071 0.139617 -0.224398 0.128071 0.139286 -0.224652 0.128071 0.138900 -0.224812 0.128071 0.138486 -0.224867 0.128071 0.138072 -0.224812 0.128071 0.137686 -0.224652 0.128071 0.137355 -0.224398 0.128071 0.137100 -0.224067 0.128071 0.136940 -0.223681 0.130071 0.036668 -0.275690 0.130071 0.036613 -0.275276 0.130071 0.036453 -0.274890 0.130071 0.036199 -0.274558 0.130071 0.035868 -0.274304 0.130071 0.035482 -0.274144 0.130071 0.035068 -0.274090 0.130071 0.034654 -0.274144 0.130071 0.034268 -0.274304 0.130071 0.033936 -0.274558 0.130071 0.033682 -0.274890 0.130071 0.033522 -0.275276 0.130071 0.033468 -0.275690 0.130071 0.033522 -0.276104 0.130071 0.033682 -0.276490 0.130071 0.033936 -0.276821 0.130071 0.034268 -0.277075 0.130071 0.034654 -0.277235 0.130071 0.035068 -0.277290 0.130071 0.035482 -0.277235 0.130071 0.035868 -0.277075 0.130071 0.036199 -0.276821 0.130071 0.036453 -0.276490 0.130071 0.036613 -0.276104 0.128071 0.033468 -0.275690 0.128071 0.033522 -0.275276 0.128071 0.033682 -0.274890 0.128071 0.033936 -0.274558 0.128071 0.034268 -0.274304 0.128071 0.034654 -0.274144 0.128071 0.035068 -0.274090 0.128071 0.035482 -0.274144 0.128071 0.035868 -0.274304 0.128071 0.036199 -0.274558 0.128071 0.036453 -0.274890 0.128071 0.036613 -0.275276 0.128071 0.036668 -0.275690 0.128071 0.036613 -0.276104 0.128071 0.036453 -0.276490 0.128071 0.036199 -0.276821 0.128071 0.035868 -0.277075 0.128071 0.035482 -0.277235 0.128071 0.035068 -0.277290 0.128071 0.034654 -0.277235 0.128071 0.034268 -0.277075 0.128071 0.033936 -0.276821 0.128071 0.033682 -0.276490 0.128071 0.033522 -0.276104 0.130071 0.177855 -0.269330 0.130071 0.177909 -0.269744 0.130071 0.178069 -0.270130 0.130071 0.178324 -0.270461 0.130071 0.178655 -0.270716 0.130071 0.179041 -0.270875 0.130071 0.179455 -0.270930 0.130071 0.179869 -0.270875 0.130071 0.180255 -0.270716 0.130071 0.180586 -0.270461 0.130071 0.180841 -0.270130 0.130071 0.181000 -0.269744 0.130071 0.181055 -0.269330 0.130071 0.181000 -0.268916 0.130071 0.180841 -0.268530 0.130071 0.180586 -0.268199 0.130071 0.180255 -0.267944 0.130071 0.179869 -0.267785 0.130071 0.179455 -0.267730 0.130071 0.179041 -0.267785 0.130071 0.178655 -0.267944 0.130071 0.178324 -0.268199 0.130071 0.178069 -0.268530 0.130071 0.177909 -0.268916 0.128071 0.177855 -0.269330 0.128071 0.177909 -0.268916 0.128071 0.178069 -0.268530 0.128071 0.178324 -0.268199 0.128071 0.178655 -0.267944 0.128071 0.179041 -0.267785 0.128071 0.179455 -0.267730 0.128071 0.179869 -0.267785 0.128071 0.180255 -0.267944 0.128071 0.180586 -0.268199 0.128071 0.180841 -0.268530 0.128071 0.181000 -0.268916 0.128071 0.181055 -0.269330 0.128071 0.181000 -0.269744 0.128071 0.180841 -0.270130 0.128071 0.180586 -0.270461 0.128071 0.180255 -0.270716 0.128071 0.179869 -0.270875 0.128071 0.179455 -0.270930 0.128071 0.179041 -0.270875 0.128071 0.178655 -0.270716 0.128071 0.178324 -0.270461 0.128071 0.178069 -0.270130 0.128071 0.177909 -0.269744 0.097328 0.079748 -0.228040 0.096823 0.079782 -0.228091 0.096348 0.079882 -0.228242 0.095934 0.080042 -0.228483 0.095606 0.080252 -0.228799 0.095384 0.080499 -0.229171 0.094404 0.071045 -0.233888 0.091960 0.062216 -0.239747 0.089515 0.053387 -0.245605 0.087071 0.044558 -0.251464 0.084627 0.035729 -0.257323 0.093953 0.071232 -0.233982 0.091509 0.062403 -0.239840 0.089065 0.053574 -0.245699 0.086621 0.044745 -0.251557 0.084177 0.035916 -0.257416 0.093560 0.071467 -0.234173 0.091116 0.062638 -0.240031 0.088672 0.053809 -0.245890 0.086228 0.044980 -0.251748 0.083783 0.036151 -0.257607 0.093249 0.071737 -0.234449 0.090805 0.062908 -0.240308 0.088360 0.054079 -0.246166 0.085916 0.045250 -0.252025 0.083472 0.036421 -0.257884 0.128589 0.168424 -0.286762 0.128589 0.157393 -0.286762 0.128589 0.146362 -0.286762 0.128589 0.135332 -0.286762 0.128589 0.124301 -0.286762 0.128589 0.113270 -0.286762 0.128589 0.102239 -0.286762 0.128589 0.091208 -0.286762 0.128589 0.080177 -0.286762 0.128589 0.069147 -0.286762 0.128589 0.058116 -0.286762 0.128589 0.047085 -0.286762 0.128589 0.036054 -0.286762 0.129072 0.168424 -0.286562 0.129072 0.157393 -0.286562 0.129072 0.146362 -0.286562 0.129072 0.135332 -0.286562 0.129072 0.124301 -0.286562 0.129072 0.113270 -0.286562 0.129072 0.102239 -0.286562 0.129072 0.091208 -0.286562 0.129071 0.080177 -0.286562 0.129071 0.069147 -0.286562 0.129071 0.058116 -0.286562 0.129071 0.047085 -0.286562 0.129071 0.036054 -0.286562 0.129486 0.168424 -0.286244 0.129486 0.157393 -0.286244 0.129486 0.146362 -0.286244 0.129486 0.135332 -0.286244 0.129486 0.124301 -0.286244 0.129486 0.113270 -0.286244 0.129486 0.102239 -0.286244 0.129486 0.091208 -0.286244 0.129486 0.080177 -0.286244 0.129486 0.069147 -0.286244 0.129486 0.058116 -0.286244 0.129486 0.047085 -0.286244 0.129486 0.036054 -0.286244 0.129804 0.168424 -0.285830 0.129804 0.157393 -0.285830 0.129804 0.146362 -0.285830 0.129804 0.135332 -0.285830 0.129804 0.124301 -0.285830 0.129804 0.113270 -0.285830 0.129804 0.102239 -0.285830 0.129804 0.091208 -0.285830 0.129804 0.080177 -0.285830 0.129804 0.069147 -0.285830 0.129804 0.058116 -0.285830 0.129804 0.047085 -0.285830 0.129804 0.036054 -0.285830 0.130003 0.168424 -0.285348 0.130003 0.157393 -0.285348 0.130003 0.146362 -0.285348 0.130003 0.135332 -0.285348 0.130003 0.124301 -0.285348 0.130003 0.113270 -0.285348 0.130003 0.102239 -0.285348 0.130003 0.091208 -0.285348 0.130003 0.080177 -0.285348 0.130003 0.069147 -0.285348 0.130003 0.058116 -0.285348 0.130003 0.047085 -0.285348 0.130003 0.036054 -0.285348 0.130005 0.188029 -0.252638 0.130005 0.182733 -0.243952 0.130005 0.177436 -0.235265 0.130005 0.172140 -0.226579 0.130005 0.166844 -0.217892 0.129807 0.188443 -0.252386 0.129807 0.183146 -0.243699 0.129807 0.177850 -0.235013 0.129807 0.172554 -0.226326 0.129807 0.167257 -0.217640 0.129486 0.188801 -0.252167 0.129486 0.183505 -0.243481 0.129486 0.178208 -0.234794 0.129486 0.172912 -0.226108 0.129486 0.167616 -0.217421 0.129071 0.189072 -0.252002 0.129071 0.183776 -0.243315 0.129071 0.178480 -0.234629 0.129071 0.173183 -0.225942 0.129071 0.167887 -0.217256 0.128589 0.189243 -0.251898 0.128589 0.183947 -0.243211 0.128589 0.178650 -0.234525 0.128589 0.173354 -0.225838 0.128589 0.168058 -0.217152 0.130003 0.114824 -0.206543 0.130003 0.106101 -0.212331 0.130003 0.097378 -0.218119 0.130003 0.088655 -0.223907 0.130003 0.079932 -0.229696 0.130003 0.071209 -0.235484 0.130003 0.062486 -0.241272 0.130003 0.053762 -0.247060 0.130003 0.045039 -0.252849 0.130003 0.036316 -0.258637 0.129803 0.114558 -0.206141 0.129803 0.105835 -0.211929 0.129803 0.097111 -0.217717 0.129803 0.088388 -0.223506 0.129803 0.079665 -0.229294 0.129803 0.070942 -0.235082 0.129803 0.062219 -0.240870 0.129803 0.053496 -0.246659 0.129803 0.044773 -0.252447 0.129803 0.036050 -0.258235 0.129486 0.114329 -0.205796 0.129486 0.105606 -0.211584 0.129486 0.096883 -0.217372 0.129485 0.088159 -0.223161 0.129485 0.079436 -0.228949 0.129485 0.070713 -0.234737 0.129485 0.061990 -0.240525 0.129485 0.053267 -0.246314 0.129485 0.044544 -0.252102 0.129485 0.035821 -0.257890 0.129071 0.114153 -0.205531 0.129071 0.105430 -0.211319 0.129071 0.096707 -0.217108 0.129071 0.087984 -0.222896 0.129071 0.079261 -0.228684 0.129071 0.070538 -0.234472 0.129071 0.061814 -0.240261 0.129071 0.053091 -0.246049 0.129071 0.044368 -0.251837 0.129071 0.035645 -0.257626 0.128589 0.114043 -0.205364 0.128589 0.105319 -0.211153 0.128589 0.096596 -0.216941 0.128589 0.087873 -0.222729 0.128589 0.079150 -0.228518 0.128589 0.070427 -0.234306 0.128589 0.061704 -0.240094 0.128589 0.052981 -0.245883 0.128589 0.044258 -0.251671 0.128589 0.035535 -0.257459 0.071329 0.096932 -0.286830 0.073496 0.096720 -0.286830 0.094855 0.081340 -0.230440 0.097251 0.080975 -0.229890 0.097502 0.080577 -0.229289 0.082122 0.025023 -0.266153 0.128071 0.025023 -0.266153</float_array>
          <technique_common>
            <accessor source="#FootCoverLeft-mesh-positions-array" count="692" stride="3">
              <param name="X" type="float"/>
              <param name="Y" type="float"/>
              <param name="Z" type="float"/>
            </accessor>
          </technique_common>
        </source>
        <source id="FootCoverLeft-mesh-normals">
          <float_array id="FootCoverLeft-mesh-normals-array" count="3393">-0.923934 0.004297 0.382527 -0.922338 -0.001943 0.386380 -0.865530 -0.087721 0.493116 -0.838921 -0.179199 0.513906 -0.786187 -0.177609 0.591916 -0.702065 -0.354898 0.617375 -0.687761 -0.263224 0.676534 -0.572603 -0.342482 0.744871 -0.522871 -0.509195 0.683612 -0.443478 -0.413461 0.795222 -0.303496 -0.474434 0.826319 -0.312145 -0.632785 0.708624 -0.156062 -0.523905 0.837358 -0.082595 -0.718214 0.690903 0.001065 -0.697400 0.716681 0.001272 -0.814299 0.580444 -0.153548 -0.840017 0.520378 -0.001772 -0.906311 0.422608 -0.220345 -0.911812 0.346477 -0.191804 -0.921707 0.337146 -0.923373 -0.000018 0.383903 -0.857134 -0.210466 0.470134 -0.737538 -0.415794 0.532122 -0.827317 -0.293091 0.479211 -0.773339 -0.419854 0.475046 -0.901918 -0.086051 0.423249 -0.925041 0.007554 0.379792 -0.923954 0.001227 0.382502 -0.875623 -0.181780 0.447482 -0.861018 -0.219289 0.458868 -0.844907 -0.256414 0.469451 -0.652980 -0.581728 0.484984 -0.573464 -0.596047 0.562020 -0.505857 -0.719981 0.475117 -0.374808 -0.740356 0.558025 -0.396611 -0.828920 0.394451 -0.279839 -0.888353 0.364032 -0.164634 -0.930404 0.327482 -0.139167 -0.937980 0.317530 -0.115430 -0.944559 0.307382 -0.072968 -0.955172 0.286917 -0.007103 -0.968657 0.248299 -0.004746 -0.560666 0.828029 -0.158901 -0.690023 -0.706130 -0.267675 -0.738062 -0.619367 -0.277698 -0.694709 -0.663523 -0.409002 -0.670797 -0.618667 -0.280750 -0.686444 -0.670801 -0.035474 -0.675694 -0.736329 -0.024590 -0.705696 -0.708088 -0.012506 -0.733931 -0.679109 0.000041 -0.760770 -0.649022 -0.218468 -0.844204 -0.489481 0.011216 -0.782757 -0.622227 -0.158960 -0.844045 -0.512172 0.022702 -0.803636 -0.594688 -0.090561 -0.840762 -0.533778 0.017546 -0.827057 -0.561845 -0.409741 -0.823108 -0.393200 -0.589800 -0.759362 -0.274784 -0.497034 -0.711207 -0.497134 -0.692461 -0.635800 -0.340963 -0.738791 -0.658507 -0.143379 -0.840616 -0.516988 -0.161515 -0.851248 -0.524743 -0.004731 -0.931385 -0.362883 0.028959 -0.921182 -0.365367 0.133903 -0.939563 -0.276291 0.202198 -0.958569 -0.184005 0.217456 -0.944022 -0.231797 0.234718 -0.945473 -0.189472 0.264917 -0.945264 -0.168048 0.279708 -0.942674 -0.119269 0.311673 -0.939686 -0.089993 0.329987 -0.923108 -0.000415 0.384541 -0.923247 -0.000525 0.384206 -0.944924 -0.156800 0.287284 -0.944403 -0.145011 0.295084 -0.943668 -0.132544 0.303188 -0.923163 -0.000922 0.384408 -0.970601 -0.149552 0.188593 -0.922598 0.000846 0.385762 -0.979193 -0.154193 0.131933 -0.919508 0.004642 0.393043 -0.955081 -0.295031 -0.027885 -0.921390 -0.357795 -0.151736 -0.839894 -0.459846 -0.288306 -0.706989 -0.561621 -0.429824 -0.526191 -0.641790 -0.557878 -0.000559 -0.999844 0.017657 -0.135215 -0.988434 0.068672 -0.000656 -0.974803 -0.223065 -0.222241 -0.964893 -0.139966 -0.133009 -0.968768 -0.209279 -0.154042 -0.966710 -0.204312 -0.173541 -0.964577 -0.198681 -0.191551 -0.962424 -0.192479 -0.200068 -0.961342 -0.189192 -0.224010 -0.958060 -0.178718 -0.208298 -0.960256 -0.185796 -0.216270 -0.959163 -0.182301 -0.000884 -0.967429 0.253142 -0.048379 -0.959726 0.276742 -0.264642 -0.898351 0.350615 -0.159423 -0.929782 0.331798 -0.215247 -0.911334 0.350911 -0.186655 -0.921159 0.341507 -0.067348 -0.954241 0.291355 -0.110046 -0.943784 0.311707 -0.133878 -0.937283 0.321835 -0.274845 -0.888003 0.368660 -0.391920 -0.828766 0.399431 -0.466086 -0.786674 0.404856 -0.503266 -0.720700 0.476776 -0.641432 -0.630948 0.436427 -0.650581 -0.582597 0.487160 -0.780863 -0.439894 0.443562 -0.771253 -0.420742 0.477646 -0.876570 -0.224208 0.425859 -0.844410 -0.256375 0.470366 -0.860461 -0.219160 0.459973 -0.826880 -0.293142 0.479935 -0.875006 -0.181559 0.448777 -0.922849 0.000190 0.385163 -0.896925 -0.230937 0.377086 -0.922908 -0.000972 0.385018 -0.917325 -0.225419 0.328179 -0.922917 0.000587 0.384999 -0.932303 -0.113415 0.343437 -0.922334 0.003799 0.386375 -0.902605 -0.082232 0.422543 -0.923156 0.002366 0.384417 -0.915823 -0.306379 0.259615 -0.860674 -0.442266 0.252273 -0.820724 -0.453072 0.348047 -0.858529 -0.485779 0.164154 -0.852134 -0.491579 0.179492 -0.845668 -0.496810 0.195003 -0.839136 -0.501468 0.210669 -0.755831 -0.634348 0.162240 -0.769567 -0.621074 0.148441 -0.691449 -0.716891 0.089253 -0.608666 -0.790911 0.063123 -0.600213 -0.799336 0.028400 -0.496509 -0.867357 -0.034225 -0.427420 -0.903188 -0.039528 -0.382050 -0.919281 -0.094655 -0.352266 -0.929455 -0.109644 -0.322951 -0.938151 -0.124799 -0.308640 -0.941908 -0.132482 -0.294639 -0.945260 -0.140257 -0.267124 -0.950961 -0.155944 -0.238907 -0.955808 -0.171330 -0.698569 -0.649838 0.299521 -0.537298 -0.810217 0.234223 -0.345941 -0.925229 0.155810 -0.001222 -0.916650 -0.399690 -0.169622 -0.922797 -0.345940 0.016774 -0.826341 -0.562920 -0.218985 -0.843830 -0.489894 -0.091210 -0.840230 -0.534503 -0.159522 -0.843628 -0.512683 -0.000395 -0.974918 -0.222563 -0.133152 -0.968637 -0.209794 -0.154221 -0.966551 -0.204929 -0.173744 -0.964398 -0.199371 -0.191766 -0.962234 -0.193214 -0.200287 -0.961149 -0.189941 -0.208518 -0.960062 -0.186553 -0.216488 -0.958969 -0.183062 -0.224226 -0.957868 -0.179478 -0.398297 -0.886822 -0.234319 -0.410247 -0.822639 -0.393654 -0.590215 -0.758900 -0.275166 -0.600667 -0.792277 -0.107222 -0.739108 -0.658079 -0.143704 -0.763364 -0.645406 0.026956 -0.851461 -0.524395 -0.004989 -0.875645 -0.455908 0.159355 -0.921303 -0.365130 0.133716 -0.930093 -0.236299 0.281228 -0.944076 -0.231684 0.234615 -0.945523 -0.189366 0.264816 -0.945309 -0.167949 0.279613 -0.932468 -0.115250 0.342375 -0.923291 -0.001959 0.384096 -0.239114 -0.955622 -0.172078 -0.267304 -0.950796 -0.156641 -0.294790 -0.945118 -0.140892 -0.308778 -0.941776 -0.133093 -0.323081 -0.938027 -0.125394 -0.352384 -0.929341 -0.110226 -0.382164 -0.919173 -0.095241 -0.496612 -0.867273 -0.034837 -0.600292 -0.799297 0.027827 -0.691512 -0.716897 0.088717 -0.769618 -0.621126 0.147957 -0.839178 -0.501569 0.210257 -0.845784 -0.496996 0.194023 -0.852232 -0.492015 0.177826 -0.858523 -0.486624 0.161667 -0.915879 -0.307775 0.257758 -0.923147 -0.001037 0.384446 -0.939689 -0.090018 0.329971 -0.942696 -0.119233 0.311622 -0.943697 -0.132484 0.303122 -0.944440 -0.144933 0.295006 -0.944966 -0.156710 0.287195 -0.939632 -0.276147 0.202077 -0.000000 0.853811 0.520584 -0.000000 0.853810 0.520584 -0.000000 0.917711 0.397250 -0.000000 0.917711 0.397250 -0.000000 0.963904 0.266251 -0.000000 0.991499 0.130114 -0.000000 0.991499 0.130114 -0.000000 0.963904 0.266251 0.000000 -0.552910 0.833241 0.000000 -0.375293 0.926906 0.000000 -0.552910 0.833241 0.000000 -0.375294 0.926906 0.000000 -0.552911 0.833241 0.000000 -0.182545 0.983197 0.000000 -0.182545 0.983198 0.000000 0.017564 0.999846 0.000000 0.017564 0.999846 0.000000 0.216965 0.976179 0.000000 0.216965 0.976179 0.000000 0.407618 0.913153 0.000000 0.407618 0.913153 0.000000 0.581835 0.813307 0.000000 0.581835 0.813307 0.000000 0.732592 0.680668 0.000000 0.732592 0.680668 0.000000 0.853811 0.520584 -0.000000 0.853811 0.520584 0.000000 0.853811 0.520584 0.965935 0.220953 0.134719 0.999997 -0.002070 -0.001192 0.966437 0.246702 0.071673 1.000000 -0.000026 -0.000007 0.966437 0.256861 0.004611 1.000000 -0.000027 -0.000000 0.966437 0.249115 -0.062772 1.000000 -0.000026 0.000007 0.966437 0.224030 -0.125736 1.000000 -0.000023 0.000013 0.966437 0.183280 -0.180021 1.000000 -0.000019 0.000018 0.966437 0.129780 -0.221713 1.000000 -0.000014 0.000022 0.966437 0.067232 -0.247950 1.000000 -0.000007 0.000024 0.965929 -0.000001 -0.258808 1.000000 -0.000001 0.000025 0.866813 0.130495 -0.481254 0.866027 -0.000001 -0.499997 0.707936 0.184837 -0.681661 0.707104 -0.000001 -0.707109 0.500665 0.226544 -0.835471 0.499991 -0.000001 -0.866031 0.259170 0.252765 -0.932170 0.258802 -0.000001 -0.965930 -0.000027 0.208066 -0.978115 -0.000025 -0.000001 -1.000000 -0.000028 0.413213 -0.910634 0.259171 0.487911 -0.833530 0.500666 0.437298 -0.747064 0.500666 0.617569 -0.606582 0.707936 0.503874 -0.494911 0.707936 0.616040 -0.345429 0.866814 0.434877 -0.243960 0.866814 0.483518 -0.121837 -0.000030 0.592956 -0.805235 0.259171 0.689048 -0.676789 0.500666 0.755127 -0.423222 0.707937 0.684868 -0.172573 0.866814 0.498551 0.008950 -0.000032 0.752352 -0.658761 0.259171 0.842621 -0.472039 0.500666 0.839402 -0.211512 0.707937 0.706162 0.012678 0.866814 0.478833 0.139113 -0.000033 0.872527 -0.488566 -0.000035 0.957087 -0.289802 0.259171 0.936556 -0.235992 -0.000036 0.996434 -0.084375 0.259172 0.965676 0.017337 -0.000037 0.991500 0.130109 0.259172 0.927482 0.269458 -0.000037 0.963905 0.266247 -0.000037 0.917711 0.397248 -0.000040 0.853811 0.520584 0.258794 0.824723 0.502849 0.499991 0.739426 0.450842 0.500667 0.831269 0.241506 0.500666 0.865501 0.015539 0.707110 0.603732 0.368106 0.707937 0.678232 0.197044 0.866036 0.426890 0.260282 0.866814 0.355736 -0.349408 0.707936 0.356791 -0.609530 0.866813 0.251895 -0.430330 0.965925 -0.143105 0.215661 1.000000 -0.000004 0.000006 0.965926 -0.097133 0.239901 1.000000 -0.000003 0.000007 0.965926 -0.047246 0.254470 1.000000 -0.000001 0.000007 0.965926 0.004546 0.258779 1.000000 0.000000 0.000007 0.965926 0.056155 0.252654 1.000000 0.000002 0.000007 1.000000 0.000003 0.000007 0.965926 0.105499 0.236341 1.000000 0.000004 0.000006 0.965926 0.150590 0.210499 1.000000 0.000005 0.000005 0.965926 0.189609 0.176170 0.965926 0.220983 0.134737 0.866026 0.366295 0.340333 0.866025 0.426906 0.260292 0.707108 0.518020 0.481304 0.707106 0.603736 0.368109 0.500003 0.634442 0.589475 0.499998 0.739423 0.450839 0.258823 0.707629 0.657474 0.258823 0.824717 0.502845 1.000000 0.000000 0.000000 0.258823 0.562009 0.785593 0.500003 0.503883 0.704343 0.707108 0.411419 0.575094 0.866026 0.290917 0.406653 0.258823 0.393728 0.882037 0.500003 0.353007 0.790812 0.707108 0.288229 0.645695 0.866026 0.203808 0.456575 0.258823 0.209572 0.942916 0.500003 0.187897 0.845395 0.707108 0.153417 0.690262 0.866026 0.108482 0.488089 0.500003 0.015211 0.865890 0.258823 0.016965 0.965776 0.500003 -0.158089 0.851473 0.258823 -0.176325 0.949695 0.500003 -0.325014 0.802723 0.258823 -0.362506 0.895321 0.258830 -0.534069 0.804846 0.500011 -0.478831 0.721602 0.707108 -0.265372 0.655420 0.707108 -0.129079 0.695224 0.707108 0.012420 0.706996 0.707112 -0.390964 0.589186 0.866026 -0.187647 0.463452 0.866026 -0.091272 0.491598 0.866026 0.008782 0.499922 0.866027 -0.276454 0.416619 1.000000 -0.000435 0.000657 0.965756 -0.143454 0.216187 0.999999 -0.001181 0.001064 0.965755 -0.194261 0.171987 0.999999 -0.001409 0.000735 0.965755 -0.231979 0.116199 0.999999 -0.001548 0.000360 0.965755 -0.254070 0.052582 0.999999 -0.001589 -0.000038 0.965755 -0.259044 -0.014576 0.999999 -0.001529 -0.000433 0.965755 -0.246567 -0.080753 0.999999 -0.001373 -0.000801 0.965755 -0.217479 -0.141489 0.992791 -0.084585 -0.084915 0.950575 -0.216554 -0.222511 0.865761 -0.419492 -0.272916 0.870413 -0.339600 -0.356444 0.753490 -0.449076 -0.480191 0.706826 -0.592946 -0.385762 0.601956 -0.540950 -0.587386 0.499768 -0.726031 -0.472346 0.420969 -0.610644 -0.670745 0.258687 -0.809687 -0.526771 -0.000006 -0.669638 -0.742687 -0.000007 -0.838219 -0.545333 0.258687 -0.917983 -0.300647 -0.000007 -0.950331 -0.311241 -0.000007 -0.998421 -0.056181 0.258687 -0.964436 -0.054269 -0.000006 -0.979248 0.202664 0.258687 -0.945916 0.195766 -0.000006 -0.894106 0.447856 0.258686 -0.863672 0.432611 -0.000004 -0.748729 0.662876 0.258686 -0.723243 0.640313 -0.000004 -0.552911 0.833240 0.258690 -0.534090 0.804877 0.499768 -0.648518 0.574157 0.499771 -0.478908 0.721717 0.706826 -0.529641 0.468911 0.706828 -0.391121 0.589422 0.865761 -0.374706 0.331742 0.865763 -0.276706 0.416999 0.216844 -0.654591 -0.724216 0.999543 -0.021462 -0.021305 0.999961 -0.006282 -0.006221 0.999991 -0.003074 -0.003044 0.999996 -0.002036 -0.002016 0.999999 -0.000962 -0.000953 0.999997 -0.001592 -0.001576 0.499768 -0.774438 0.387915 0.499769 -0.848185 0.175539 0.499769 -0.864791 -0.048662 0.499769 -0.823138 -0.269584 0.706826 -0.632479 0.316808 0.706826 -0.692708 0.143362 0.706826 -0.706270 -0.039742 0.706826 -0.672252 -0.220168 0.865761 -0.447461 0.224133 0.865762 -0.490071 0.101425 0.865762 -0.499666 -0.028116 0.865762 -0.475600 -0.155763 -0.000000 -0.853810 -0.520584 -0.000000 -0.732592 -0.680668 -0.000000 -0.853810 -0.520584 -0.000000 -0.732592 -0.680668 -0.000000 -0.581835 -0.813307 -0.000000 -0.581835 -0.813307 -0.000000 -0.407618 -0.913153 -0.000000 -0.407618 -0.913153 -0.000000 -0.216965 -0.976179 -0.000000 -0.216965 -0.976179 -0.000000 -0.017564 -0.999846 -0.000000 -0.017564 -0.999846 -0.000000 0.182545 -0.983197 -0.000000 0.182545 -0.983197 -0.000000 0.375294 -0.926906 -0.000000 0.375294 -0.926906 -0.000000 0.552911 -0.833241 -0.000000 0.552911 -0.833241 -0.000000 0.833239 0.552913 -0.258819 0.804847 0.534073 -0.000000 0.833239 0.552913 -0.258819 0.804847 0.534073 -0.500000 0.721606 0.478837 -0.500000 0.721606 0.478837 -0.707107 0.589189 0.390969 -0.707107 0.589189 0.390969 -0.866025 0.416619 0.276456 -0.866025 0.416619 0.276456 -0.965926 0.215658 0.143104 -0.965926 0.215658 0.143104 -1.000000 0.000000 0.000000 -1.000000 -0.000000 -0.000000 -0.000000 0.965923 0.258830 -0.000000 0.965923 0.258830 -0.000000 1.000000 0.000011 -0.000000 1.000000 0.000011 -0.000000 0.965929 -0.258808 -0.000000 0.866020 0.500009 -0.000000 0.866020 0.500009 -0.000000 0.707099 0.707115 -0.000000 0.707099 0.707115 -0.000000 0.499991 0.866031 -0.000000 0.499991 0.866031 -0.000000 0.258808 0.965929 -0.000000 0.258808 0.965929 -0.000000 -0.000011 1.000000 -0.000000 -0.000011 1.000000 -0.000000 -0.258830 0.965923 -0.000000 -0.258830 0.965923 -0.000000 -0.500009 0.866020 -0.000000 -0.500009 0.866020 -0.000000 -0.707115 0.707099 -0.000000 -0.707115 0.707099 0.000000 -0.866031 0.499991 0.000000 -0.866031 0.499991 0.000000 -0.965929 0.258808 0.000000 -0.965929 0.258808 0.000000 -1.000000 -0.000011 0.000000 -1.000000 -0.000011 0.000000 -0.965923 -0.258830 0.000000 -0.965923 -0.258830 0.000000 -0.866020 -0.500009 0.000000 -0.866020 -0.500009 0.000000 -0.707099 -0.707115 0.000000 -0.707099 -0.707115 0.000000 -0.499991 -0.866031 0.000000 -0.499991 -0.866031 0.000000 -0.258808 -0.965929 0.000000 -0.258808 -0.965929 0.000000 0.000011 -1.000000 0.000000 0.000011 -1.000000 0.000000 0.258830 -0.965923 0.000000 0.258830 -0.965923 0.000000 0.500009 -0.866020 0.000000 0.500009 -0.866020 0.000000 0.707115 -0.707099 0.000000 0.707115 -0.707099 -0.000000 0.866031 -0.499991 -0.000000 0.866031 -0.499991 -0.000000 0.965929 -0.258808 0.000000 -0.965926 -0.258817 -0.000000 -1.000000 -0.000002 -0.000000 -1.000000 0.000002 -0.000000 -0.965926 0.258817 -0.000000 -0.965925 0.258821 -0.000000 -0.866026 0.499998 -0.000000 -0.866024 0.500002 -0.000000 -0.707108 0.707105 -0.000000 -0.707105 0.707108 -0.000000 -0.500002 0.866024 -0.000000 -0.499998 0.866026 -0.000000 -0.258821 0.965925 -0.000000 -0.258817 0.965926 -0.000000 -0.000002 1.000000 -0.000000 0.000002 1.000000 -0.000000 0.258817 0.965926 -0.000000 0.258821 0.965925 -0.000000 0.499998 0.866026 -0.000000 0.500002 0.866024 -0.000000 0.707105 0.707108 -0.000000 0.707108 0.707105 -0.000000 0.866024 0.500002 -0.000000 0.866026 0.499998 -0.000000 0.965925 0.258821 -0.000000 0.965926 0.258817 0.000000 1.000000 0.000002 0.000000 1.000000 -0.000002 0.000000 0.965926 -0.258817 0.000000 0.965925 -0.258821 0.000000 0.866026 -0.499998 0.000000 0.866024 -0.500002 0.000000 0.707108 -0.707105 0.000000 0.707105 -0.707108 0.000000 0.500002 -0.866024 0.000000 0.499998 -0.866026 0.000000 0.258821 -0.965925 0.000000 0.258817 -0.965926 0.000000 0.000002 -1.000000 0.000000 -0.000002 -1.000000 0.000000 -0.258817 -0.965926 0.000000 -0.258821 -0.965925 0.000000 -0.499998 -0.866026 0.000000 -0.500002 -0.866024 0.000000 -0.707105 -0.707108 0.000000 -0.707108 -0.707105 0.000000 -0.866024 -0.500002 0.000000 -0.866026 -0.499998 0.000000 -0.965925 -0.258821 -0.000000 0.965926 0.258817 -0.000000 0.965926 0.258817 -0.000000 1.000000 -0.000002 -0.000000 1.000000 -0.000002 -0.000000 0.965925 -0.258821 -0.000000 0.965925 -0.258821 0.000000 0.866025 -0.500002 0.000000 0.866025 -0.500002 0.000000 0.707106 -0.707108 0.000000 0.707106 -0.707108 0.000000 0.499998 -0.866026 0.000000 0.499998 -0.866026 0.000000 0.258817 -0.965926 0.000000 0.258817 -0.965926 0.000000 -0.000002 -1.000000 0.000000 -0.000002 -1.000000 0.000000 -0.258821 -0.965925 0.000000 -0.258821 -0.965925 0.000000 -0.500002 -0.866025 0.000000 -0.500002 -0.866025 0.000000 -0.707108 -0.707106 0.000000 -0.707108 -0.707106 0.000000 -0.866026 -0.499998 0.000000 -0.866026 -0.499998 0.000000 -0.965926 -0.258817 0.000000 -0.965926 -0.258817 0.000000 -1.000000 0.000002 0.000000 -1.000000 0.000002 0.000000 -0.965925 0.258821 0.000000 -0.965925 0.258821 -0.000000 -0.866025 0.500002 -0.000000 -0.866025 0.500002 -0.000000 -0.707106 0.707108 -0.000000 -0.707106 0.707108 -0.000000 -0.499998 0.866026 -0.000000 -0.499998 0.866026 -0.000000 -0.258817 0.965926 -0.000000 -0.258817 0.965926 -0.000000 0.000002 1.000000 -0.000000 0.000002 1.000000 -0.000000 0.258821 0.965925 -0.000000 0.258821 0.965925 -0.000000 0.500002 0.866025 -0.000000 0.500002 0.866025 -0.000000 0.707108 0.707106 -0.000000 0.707108 0.707106 -0.000000 0.866026 0.499998 -0.000000 0.866026 0.499998 0.000000 -0.552911 0.833241 0.000000 -0.696776 0.717288 0.000000 -0.552911 0.833240 0.000000 -0.748728 0.662877 0.000000 -0.815663 0.578527 0.000000 -0.894105 0.447856 0.000000 -0.906528 0.422145 0.000000 -0.967371 0.253365 0.000000 -0.979248 0.202665 0.000000 -0.999849 0.017391 0.000000 -0.998421 -0.056180 0.000000 -0.974669 -0.223651 0.000000 -0.950331 -0.311241 0.000000 -0.916864 -0.399201 0.000000 -0.838219 -0.545333 -0.000000 -0.828180 -0.560462 -0.000000 -0.806538 -0.591182 -0.000000 -0.784181 -0.620532 -0.000000 -0.760687 -0.649119 -0.000000 -0.669638 -0.742687 -0.000000 -0.732049 -0.681252 -0.000000 -0.701947 -0.712229 -0.000000 -0.670102 -0.742269 -0.239976 -0.489755 0.838184 -0.239976 -0.489755 0.838184 0.000000 -0.552911 0.833241 -0.239976 -0.489755 0.838184 -0.239976 -0.489755 0.838184 -0.465169 -0.396430 0.791493 -0.465169 -0.396430 0.791493 -0.661708 -0.278683 0.696045 -0.661708 -0.278683 0.696045 -0.817483 -0.143770 0.557719 -0.817483 -0.143770 0.557719 -0.922901 0.000000 0.385037 -0.922901 -0.000000 0.385038 -0.465169 -0.396430 0.791493 -0.465169 -0.396430 0.791493 -0.661708 -0.278683 0.696045 -0.661708 -0.278683 0.696045 -0.817483 -0.143770 0.557719 -0.817483 -0.143770 0.557719 -0.863333 -0.090432 0.496467 -0.817483 -0.143770 0.557719 -0.817483 -0.143770 0.557719 -0.661708 -0.278683 0.696045 -0.465170 -0.396430 0.791493 -0.239976 -0.489755 0.838183 -0.782935 -0.178666 0.595895 -0.661708 -0.278683 0.696045 -0.683632 -0.262596 0.680948 -0.567827 -0.340186 0.749563 -0.465170 -0.396430 0.791493 -0.438320 -0.409563 0.800084 -0.298228 -0.469056 0.831292 -0.239976 -0.489755 0.838183 -0.150945 -0.517223 0.842434 -0.000003 -0.552910 0.833241 0.000003 -0.000001 -1.000000 -0.000067 -0.000001 -1.000000 0.216850 -0.000001 -0.976205 0.258776 -0.000001 -0.965937 0.258777 -0.000001 -0.965937 0.499982 -0.000001 -0.866036 0.499982 -0.000001 -0.866036 0.707108 -0.000001 -0.707105 0.707109 -0.000001 -0.707105 0.866038 -0.000001 -0.499978 0.866038 -0.000001 -0.499978 0.965938 -0.000001 -0.258772 0.965938 -0.000001 -0.258772 0.999994 -0.000001 -0.003464 0.965939 -0.000001 -0.258772 0.965939 -0.000001 -0.258771 0.866038 -0.000001 -0.499977 0.950577 -0.000001 -0.310490 0.870409 -0.000001 -0.492329 0.258775 -0.000001 -0.965938 0.258775 -0.000001 -0.965938 0.258775 -0.000001 -0.965938 0.258775 -0.000001 -0.965938 0.499980 -0.000001 -0.866037 0.499981 -0.000001 -0.866037 0.707108 -0.000001 -0.707106 0.707108 -0.000001 -0.707106 0.866038 -0.000001 -0.499979 0.866038 -0.000001 -0.499979 0.965938 -0.000001 -0.258774 0.965938 -0.000001 -0.258774 0.965938 -0.000001 -0.258774 0.965938 -0.000001 -0.258773 0.866038 -0.000001 -0.499978 0.866038 -0.000001 -0.499978 0.707108 -0.000001 -0.707106 0.707108 -0.000001 -0.707105 0.499981 -0.000001 -0.866036 0.499981 -0.000001 -0.866036 0.258776 -0.000001 -0.965937 0.258776 -0.000001 -0.965937 0.499980 -0.000001 -0.866037 0.499980 -0.000001 -0.866037 0.707107 -0.000001 -0.707106 0.707107 -0.000001 -0.707106 0.866037 -0.000001 -0.499979 0.866038 -0.000001 -0.499979 0.965938 -0.000001 -0.258774 0.965938 -0.000001 -0.258774 1.000000 -0.000001 0.000073 0.999991 -0.000001 -0.004131 0.999955 -0.000001 -0.009499 0.999537 -0.000001 -0.030435 0.999990 -0.000001 -0.004501 0.999985 -0.000001 -0.005546 0.992787 -0.000001 -0.119888 0.753487 -0.000001 -0.657463 0.707109 -0.000001 -0.707105 0.866038 -0.000001 -0.499978 0.707109 -0.000001 -0.707105 0.601956 -0.000001 -0.798529 0.499982 -0.000001 -0.866036 0.499982 -0.000001 -0.866036 0.420972 -0.000001 -0.907074 0.258777 -0.000001 -0.965937 0.258777 -0.000001 -0.965937 0.258775 -0.000001 -0.965938 0.258776 -0.000001 -0.965937 0.258776 -0.000001 -0.965937 0.499981 -0.000001 -0.866036 0.499981 -0.000001 -0.866036 0.707108 -0.000001 -0.707106 0.499981 -0.000001 -0.866036 0.258776 -0.000001 -0.965937 0.499982 -0.000001 -0.866036 0.707108 -0.000001 -0.707105 0.866038 -0.000001 -0.499978 0.965938 -0.000001 -0.258773 0.707108 -0.000001 -0.707106 0.707108 -0.000001 -0.707105 0.866038 -0.000001 -0.499978 0.965938 -0.000001 -0.258772 0.866038 -0.000001 -0.499979 0.866038 -0.000001 -0.499978 0.965938 -0.000001 -0.258773 0.965938 -0.000001 -0.258773 0.999989 -0.004046 -0.002467 0.966940 0.217724 0.132750 1.000000 0.000006 0.000004 0.966940 0.217724 0.132750 0.966940 0.217724 0.132750 0.867601 0.424567 0.258866 0.965924 0.220987 0.134740 0.866023 0.426909 0.260294 0.707104 0.603737 0.368110 0.707104 0.603738 0.368110 0.499998 0.739423 0.450840 0.499997 0.739423 0.450840 0.258822 0.824717 0.502845 0.258823 0.824717 0.502845 0.000000 0.853811 0.520584 0.258822 0.824717 0.502845 0.258822 0.824717 0.502845 0.499998 0.739423 0.450839 0.499999 0.739422 0.450839 0.707105 0.603737 0.368109 0.707106 0.603736 0.368109 0.867601 0.424567 0.258866 0.867601 0.424567 0.258866 0.966940 0.217724 0.132750 0.966940 0.217724 0.132750 0.965926 0.220982 0.134737 0.867601 0.424567 0.258866 0.866026 0.426905 0.260292 0.707107 0.603735 0.368108 0.707108 0.603735 0.368108 0.500001 0.739421 0.450838 0.500000 0.739421 0.450839 0.258821 0.824717 0.502845 0.258821 0.824717 0.502845 0.000002 0.853811 0.520584 0.258821 0.824717 0.502845 0.867601 0.424567 0.258866 0.707106 0.603736 0.368109 0.500000 0.739422 0.450839 1.000000 -0.000000 0.000000 0.965832 -0.143298 0.215951 1.000000 -0.000443 0.000668 0.965816 -0.143330 0.216000 0.965800 -0.143363 0.216049 0.865857 -0.276617 0.416864 0.865832 -0.276640 0.416899 0.706929 -0.391065 0.589338 0.706903 -0.391080 0.589360 0.499857 -0.478880 0.721676 0.499835 -0.478887 0.721687 0.258741 -0.534082 0.804866 0.258728 -0.534084 0.804869 0.000000 -0.552911 0.833241 0.258716 -0.534086 0.804872 0.258703 -0.534088 0.804875 0.499791 -0.478901 0.721708 0.499769 -0.478908 0.721719 0.706823 -0.391123 0.589426 0.965927 -0.143102 0.215656 0.965911 -0.143135 0.215705 0.965895 -0.143167 0.215754 0.965879 -0.143200 0.215803 0.865980 -0.276499 0.416686 0.865955 -0.276523 0.416722 0.707061 -0.390992 0.589228 0.707035 -0.391007 0.589250 0.499968 -0.478845 0.721623 0.499946 -0.478852 0.721634 0.258804 -0.534073 0.804852 0.258792 -0.534075 0.804855 0.000056 -0.552911 0.833241 0.258779 -0.534077 0.804858 0.258766 -0.534078 0.804860 0.499902 -0.478866 0.721655 0.499879 -0.478873 0.721666 0.706956 -0.391050 0.589316 0.866029 -0.276452 0.416615 0.866004 -0.276476 0.416651 0.707114 -0.390963 0.589184 0.707088 -0.390977 0.589206 0.500012 -0.478831 0.721602 0.499990 -0.478838 0.721612 0.258830 -0.534069 0.804846 0.258817 -0.534071 0.804849 0.258754 -0.534080 0.804863 0.258690 -0.534090 0.804877 0.706850 -0.391109 0.589404 0.865758 -0.276711 0.417006 0.865783 -0.276688 0.416970 0.965753 -0.143461 0.216196 0.965769 -0.143428 0.216147 0.965784 -0.143395 0.216098 0.965863 -0.143232 0.215852 0.965848 -0.143265 0.215902 0.865906 -0.276570 0.416793 0.865881 -0.276593 0.416828 0.706982 -0.391036 0.589294 0.865930 -0.276546 0.416757 0.865807 -0.276664 0.416935 0.707008 -0.391021 0.589272 0.706876 -0.391094 0.589382 0.499813 -0.478894 0.721697 0.499924 -0.478859 0.721644 -0.000000 -0.000000 -1.000000 -0.000000 -0.000000 -1.000000 -0.000000 -0.000000 -1.000000 -0.000000 -0.000000 -1.000000 -0.000000 -0.000000 -1.000000 -0.000000 -0.000000 -1.000000 -0.000000 -0.000000 -1.000000 -0.000000 -0.000000 -1.000000 -0.000000 -0.000000 -1.000000 -0.000000 -0.000000 -1.000000 -0.922901 0.000000 0.385037 -0.922901 0.000000 0.385037 -0.922901 0.000000 0.385037 -0.922901 0.000000 0.385037 -0.922901 0.000000 0.385037 -0.922901 0.000000 0.385037 -0.922901 0.000000 0.385037 -0.922901 0.000000 0.385037 -0.922901 0.000000 0.385037 -0.922901 0.000000 0.385037 -0.922901 0.000000 0.385037 -0.922901 0.000000 0.385037 -0.922901 0.000000 0.385037 -0.922901 0.000000 0.385037 -0.922901 0.000000 0.385037 -0.922901 0.000000 0.385037 -0.922901 0.000000 0.385037 0.095207 0.968948 0.228198 0.095207 0.968948 0.228198 0.095207 0.968948 0.228198 0.095207 0.968948 0.228198 0.922901 0.000000 -0.385037 0.922901 0.000000 -0.385037 0.922901 0.000000 -0.385037 0.922901 0.000000 -0.385037 0.922901 0.000000 -0.385037 0.922901 0.000000 -0.385037 -0.000000 0.552911 -0.833241 -0.000000 0.552911 -0.833241 -0.000000 0.552911 -0.833241 -0.000000 0.552911 -0.833241 -0.000000 0.552911 -0.833241 -0.000000 0.552911 -0.833241 -0.000000 0.552911 -0.833241 -0.000000 0.552911 -0.833241 -0.000000 0.552911 -0.833241 -0.000000 0.552911 -0.833241 -1.000000 -0.000000 -0.000000 -1.000000 -0.000000 -0.000000 -1.000000 -0.000000 -0.000000 -1.000000 -0.000000 -0.000000 -1.000000 -0.000000 -0.000000 -1.000000 -0.000000 -0.000000 -1.000000 -0.000000 -0.000000 -1.000000 -0.000000 -0.000000 -1.000000 -0.000000 -0.000000 -1.000000 -0.000000 -0.000000 -1.000000 -0.000000 -0.000000 -1.000000 -0.000000 -0.000000 -1.000000 -0.000000 -0.000000 -1.000000 -0.000000 -0.000000 -1.000000 -0.000000 -0.000000 -1.000000 -0.000000 -0.000000 -1.000000 -0.000000 -0.000000 -1.000000 -0.000000 -0.000000 -1.000000 -0.000000 -0.000000 -1.000000 -0.000000 -0.000000 -1.000000 -0.000000 -0.000000 -1.000000 -0.000000 -0.000000 -1.000000 -0.000000 -0.000000 -1.000000 -0.000000 -0.000000 -1.000000 -0.000000 -0.000000 -1.000000 -0.000000 -0.000000 -1.000000 -0.000000 -0.000000 -1.000000 -0.000000 -0.000000 -1.000000 -0.000000 -0.000000 -1.000000 -0.000000 -0.000000 -1.000000 -0.000000 -0.000000 -1.000000 -0.000000 -0.000000 -1.000000 -0.000000 -0.000000 -1.000000 -0.000000 -0.000000 -1.000000 -0.000000 -0.000000 -1.000000 -0.000000 -0.000000 -1.000000 -0.000000 -0.000000 -1.000000 -0.000000 -0.000000 -1.000000 -0.000000 -0.000000 -1.000000 -0.000000 -0.000000 -1.000000 -0.000000 -0.000000 -1.000000 -0.000000 -0.000000 -1.000000 -0.000000 -0.000000 -1.000000 -0.000000 -0.000000 -1.000000 -0.000000 -0.000000 -1.000000 -0.000000 -0.000000 -1.000000 -0.000000 -0.000000 -1.000000 -0.000000 -0.000000 -1.000000 -0.000000 -0.000000 -1.000000 -0.000000 -0.000000 -1.000000 -0.000000 -0.000000 -1.000000 -0.000000 -0.000000 -1.000000 -0.000000 -0.000000 -1.000000 -0.000000 -0.000000 -1.000000 -0.000000 -0.000000 -1.000000 -0.000000 -0.000000 -1.000000 -0.000000 -0.000000 -1.000000 -0.000000 -0.000000 -1.000000 -0.000000 -0.000000 -1.000000 -0.000000 -0.000000 -1.000000 -0.000000 -0.000000 -1.000000 -0.000000 -0.000000 -1.000000 -0.000000 -0.000000 -1.000000 -0.000000 -0.000000 -1.000000 -0.000000 -0.000000 -1.000000 -0.000000 -0.000000 -1.000000 -0.000000 -0.000000 -1.000000 -0.000000 -0.000000 -1.000000 -0.000000 -0.000000 -1.000000 -0.000000 -0.000000 -1.000000 -0.000000 -0.000000 -1.000000 -0.000000 -0.000000 -1.000000 -0.000000 -0.000000 -1.000000 -0.000000 -0.000000 -1.000000 -0.000000 -0.000000 -1.000000 -0.000000 -0.000000 -1.000000 -0.000000 -0.000000 -1.000000 -0.000000 -0.000000 -1.000000 -0.000000 -0.000000 -1.000000 -0.000000 -0.000000 -1.000000 -0.000000 -0.000000 -1.000000 -0.000000 -0.000000 -1.000000 -0.000000 -0.000000 -1.000000 -0.000000 -0.000000 -1.000000 -0.000000 -0.000000 -1.000000 -0.000000 -0.000000 -1.000000 -0.000000 -0.000000 -1.000000 -0.000000 -0.000000 -1.000000 -0.000000 -0.000000 -1.000000 -0.000000 -0.000000 -1.000000 -0.000000 -0.000000 -1.000000 -0.000000 -0.000000 -1.000000 -0.000000 -0.000000 -1.000000 -0.000000 -0.000000 -1.000000 -0.000000 -0.000000 -1.000000 -0.000000 -0.000000 -1.000000 -0.000000 -0.000000 -1.000000 -0.000000 -0.000000 -1.000000 -0.000000 -0.000000 -1.000000 -0.000000 -0.000000 -1.000000 -0.000000 -0.000000 -1.000000 -0.000000 -0.000000 -1.000000 -0.000000 -0.000000 -1.000000 -0.000000 -0.000000 -1.000000 -0.000000 -0.000000 -1.000000 -0.000000 -0.000000 -1.000000 -0.000000 -0.000000 -1.000000 -0.000000 -0.000000 -1.000000 -0.000000 -0.000000 -1.000000 -0.000000 -0.000000 -1.000000 -0.000000 -0.000000 -1.000000 -0.000000 -0.000000 -1.000000 -0.000000 -0.000000 -1.000000 -0.000000 -0.000000 0.000000 -0.853810 -0.520584 0.000000 -0.853810 -0.520584 -0.000000 1.000000 -0.000000 -0.000000 1.000000 -0.000000 -0.000000 1.000000 -0.000000 -0.000000 1.000000 -0.000000 -0.000000 1.000000 -0.000000 -0.000000 1.000000 -0.000000 0.000000 -0.552911 0.833241 0.000000 -0.552911 0.833241 0.000000 -0.552911 0.833241 0.000000 -0.552911 0.833241 0.000000 -0.552911 0.833241 0.000000 -0.552911 0.833241 0.000000 -0.552911 0.833241 0.000000 -0.552911 0.833241 0.000000 -0.552911 0.833241 0.000000 -0.552911 0.833241 -0.000000 0.833239 0.552913 -0.000000 0.833239 0.552913 -0.000000 0.833239 0.552913 -0.000000 0.833239 0.552913 -0.000000 0.833239 0.552913 -0.000000 0.833239 0.552913 -0.000000 0.833239 0.552913 -0.000000 0.833239 0.552913 -0.000000 0.833239 0.552913 -0.000000 0.853811 0.520584 -0.000000 0.853811 0.520584 1.000000 0.000000 0.000000 1.000000 0.000000 0.000000 1.000000 0.000000 0.000000 1.000000 0.000000 0.000000 1.000000 0.000000 0.000000 1.000000 0.000000 0.000000 1.000000 0.000000 0.000000 1.000000 0.000000 0.000000 1.000000 0.000000 0.000000 1.000000 0.000000 0.000000 1.000000 0.000000 0.000000 1.000000 0.000000 0.000000 1.000000 0.000000 0.000000 1.000000 0.000000 0.000000 1.000000 0.000000 0.000000 1.000000 0.000000 0.000000 1.000000 0.000000 0.000000 1.000000 0.000000 0.000000 1.000000 0.000000 0.000000 1.000000 0.000000 0.000000 1.000000 0.000000 0.000000 1.000000 0.000000 0.000000 1.000000 0.000000 0.000000 1.000000 0.000000 0.000000 1.000000 0.000000 0.000000 1.000000 0.000000 0.000000 1.000000 0.000000 0.000000 1.000000 0.000000 0.000000 1.000000 0.000000 0.000000 1.000000 0.000000 0.000000 1.000000 0.000000 0.000000 1.000000 0.000000 0.000000 1.000000 0.000000 0.000000 1.000000 0.000000 0.000000 1.000000 0.000000 0.000000 1.000000 0.000000 0.000000 1.000000 0.000000 0.000000 1.000000 0.000000 0.000000 1.000000 0.000000 0.000000 1.000000 0.000000 0.000000 1.000000 0.000000 0.000000 1.000000 0.000000 0.000000 1.000000 0.000000 0.000000 1.000000 0.000000 0.000000 1.000000 0.000000 0.000000 1.000000 0.000000 0.000000 1.000000 0.000000 0.000000 1.000000 0.000000 0.000000 1.000000 0.000000 0.000000 1.000000 0.000000 0.000000 1.000000 0.000000 0.000000 1.000000 0.000000 0.000000 1.000000 0.000000 0.000000 1.000000 0.000000 0.000000 1.000000 0.000000 0.000000 1.000000 0.000000 0.000000 1.000000 0.000000 0.000000 1.000000 0.000000 0.000000 1.000000 0.000000 0.000000 1.000000 0.000000 0.000000 1.000000 0.000000 0.000000 1.000000 0.000000 0.000000 1.000000 0.000000 0.000000 1.000000 0.000000 0.000000 1.000000 0.000000 0.000000 1.000000 0.000000 0.000000 1.000000 0.000000 0.000000 1.000000 0.000000 0.000000 1.000000 0.000000 0.000000 1.000000 0.000000 0.000000 1.000000 0.000000 0.000000 1.000000 0.000000 0.000000 1.000000 0.000000 0.000000 1.000000 0.000000 0.000000 1.000000 0.000000 0.000000 1.000000 0.000000 0.000000 1.000000 0.000000 0.000000 1.000000 0.000000 0.000000 1.000000 0.000000 0.000000 1.000000 0.000000 0.000000 1.000000 0.000000 0.000000 1.000000 0.000000 0.000000 1.000000 0.000000 0.000000 1.000000 0.000000 0.000000 1.000000 0.000000 0.000000 1.000000 0.000000 0.000000 1.000000 0.000000 0.000000 1.000000 0.000000 0.000000 1.000000 0.000000 0.000000 1.000000 0.000000 0.000000 1.000000 0.000000 0.000000 1.000000 0.000000 0.000000 1.000000 0.000000 0.000000 1.000000 0.000000 0.000000 1.000000 0.000000 0.000000 1.000000 0.000000 0.000000 1.000000 0.000000 0.000000 1.000000 0.000000 0.000000</float_array>
          <technique_common>
            <accessor source="#FootCoverLeft-mesh-normals-array" count="1131" stride="3">
              <param name="X" type="float"/>
              <param name="Y" type="float"/>
              <param name="Z" type="float"/>
            </accessor>
          </technique_common>
        </source>
        <vertices id="FootCoverLeft-mesh-vertices">
          <input semantic="POSITION" source="#FootCoverLeft-mesh-positions"/>
        </vertices>
        <triangles material="Powder_Coat__Green_" count="1392">
          <input semantic="VERTEX" source="#FootCoverLeft-mesh-vertices" offset="0"/>
          <input semantic="NORMAL" source="#FootCoverLeft-mesh-normals" offset="1"/>
          <p>0 0 1 1 32 2 32 2 1 1 33 3 32 2 33 3 31 4 31 4 33 3 34 5 31 4 34 5 30 6 30 6 34 5 29 7 29 7 34 5 35 8 29 7 35 8 28 9 28 9 35 8 27 10 27 10 35 8 36 11 27 10 36 11 26 12 26 12 36 11 37 13 26 12 37 13 24 14 24 14 37 13 23 15 23 15 37 13 42 16 23 15 42 16 22 17 22 17 42 16 15 18 22 17 15 18 16 19 1 1 2 20 33 3 33 3 2 20 38 21 33 3 38 21 39 22 39 22 38 21 9 23 39 22 9 23 10 24 38 21 2 20 5 25 5 25 2 20 3 26 5 25 3 26 4 27 5 25 6 28 38 21 38 21 6 28 7 29 38 21 7 29 8 30 8 30 9 23 38 21 10 24 11 31 39 22 39 22 11 31 40 32 39 22 40 32 34 5 34 5 40 32 35 8 11 31 12 33 40 32 40 32 12 33 41 34 40 32 41 34 35 8 35 8 41 34 36 11 13 35 14 36 12 33 12 33 14 36 41 34 41 34 14 36 42 16 42 16 14 36 15 18 16 19 17 37 22 17 22 17 17 37 18 38 22 17 18 38 19 39 19 39 20 40 22 17 22 17 20 40 21 41 24 14 25 42 26 12 39 22 34 5 33 3 42 16 37 13 36 11 42 16 36 11 41 34 44 43 81 44 43 45 43 45 81 44 79 46 43 45 79 46 80 47 45 48 46 49 44 43 44 43 46 49 81 44 46 49 47 50 81 44 81 44 47 50 48 51 81 44 48 51 54 52 54 52 48 51 49 53 54 52 49 53 53 54 53 54 49 53 50 55 53 54 50 55 52 56 52 56 50 55 51 57 55 58 56 59 54 52 54 52 56 59 82 60 54 52 82 60 81 44 81 44 82 60 79 46 82 60 56 59 83 61 83 61 56 59 57 62 83 61 57 62 84 63 84 63 57 62 58 64 84 63 58 64 85 65 85 65 58 64 59 66 85 65 59 66 60 67 85 65 60 67 86 68 86 68 60 67 61 69 86 68 61 69 62 70 63 71 67 72 62 70 62 70 67 72 68 73 62 70 68 73 86 68 86 68 68 73 70 74 86 68 70 74 71 75 64 76 65 77 63 71 63 71 65 77 66 78 63 71 66 78 67 72 68 73 69 79 70 74 86 68 71 75 87 80 87 80 71 75 72 81 87 80 72 81 74 82 74 82 72 81 73 83 87 80 74 82 88 84 88 84 74 82 75 85 88 84 75 85 76 86 88 84 76 86 84 63 84 63 76 86 77 87 84 63 77 87 83 61 83 61 77 87 78 88 83 61 78 88 82 60 82 60 78 88 79 46 84 63 85 65 88 84 88 84 85 65 86 68 88 84 86 68 87 80 90 89 126 90 89 91 89 91 126 90 125 92 89 91 125 92 119 93 119 93 125 92 118 94 118 94 125 92 117 95 117 95 125 92 116 96 116 96 125 92 115 97 115 97 125 92 112 98 115 97 112 98 114 99 114 99 112 98 113 100 90 89 21 101 126 90 126 90 21 101 132 102 126 90 132 102 133 103 133 103 132 102 17 104 133 103 17 104 15 105 15 105 17 104 16 106 21 101 20 107 132 102 132 102 20 107 19 108 132 102 19 108 18 109 18 109 17 104 132 102 15 105 14 110 133 103 133 103 14 110 13 111 133 103 13 111 134 112 134 112 13 111 12 113 134 112 12 113 135 114 135 114 12 113 11 115 135 114 11 115 136 116 136 116 11 115 10 117 136 116 10 117 137 118 137 118 10 117 8 119 137 118 8 119 7 120 10 117 9 121 8 119 7 120 6 122 137 118 137 118 6 122 91 123 137 118 91 123 131 124 131 124 91 123 92 125 131 124 92 125 120 126 120 126 92 125 93 127 120 126 93 127 95 128 95 128 93 127 94 129 5 130 4 131 6 122 6 122 4 131 91 123 95 128 96 132 120 126 120 126 96 132 121 133 120 126 121 133 131 124 131 124 121 133 130 134 131 124 130 134 137 118 137 118 130 134 136 116 97 135 98 136 96 132 96 132 98 136 121 133 98 136 99 137 121 133 121 133 99 137 100 138 121 133 100 138 122 139 122 139 100 138 101 140 122 139 101 140 102 141 122 139 102 141 123 142 123 142 102 141 103 143 123 142 103 143 104 144 123 142 104 144 124 145 124 145 104 144 105 146 124 145 105 146 106 147 124 145 106 147 125 92 125 92 106 147 107 148 125 92 107 148 108 149 108 149 109 150 125 92 125 92 109 150 110 151 125 92 110 151 111 152 111 152 112 98 125 92 121 133 122 139 130 134 130 134 122 139 129 153 130 134 129 153 136 116 136 116 129 153 135 114 122 139 123 142 129 153 129 153 123 142 128 154 129 153 128 154 135 114 135 114 128 154 134 112 123 142 124 145 128 154 128 154 124 145 127 155 128 154 127 155 134 112 134 112 127 155 133 103 124 145 125 92 127 155 127 155 125 92 126 90 127 155 126 90 133 103 138 156 139 157 51 158 51 158 139 157 54 159 51 158 54 159 52 160 52 160 54 159 53 161 89 162 119 163 138 156 138 156 119 163 139 157 119 163 118 164 139 157 139 157 118 164 117 165 139 157 117 165 116 166 116 166 115 167 139 157 139 157 115 167 114 168 139 157 114 168 113 169 113 169 112 170 139 157 139 157 112 170 140 171 139 157 140 171 55 172 55 172 140 171 56 173 56 173 140 171 141 174 56 173 141 174 57 175 57 175 141 174 142 176 57 175 142 176 58 177 58 177 142 176 143 178 58 177 143 178 59 179 59 179 143 178 144 180 59 179 144 180 61 181 61 181 144 180 62 182 62 182 144 180 63 183 63 183 144 180 95 184 63 183 95 184 94 185 112 170 111 186 140 171 140 171 111 186 110 187 140 171 110 187 109 188 109 188 108 189 140 171 140 171 108 189 107 190 140 171 107 190 106 191 106 191 105 192 140 171 140 171 105 192 104 193 140 171 104 193 141 174 141 174 104 193 103 194 141 174 103 194 142 176 142 176 103 194 102 195 142 176 102 195 101 196 100 197 99 198 101 196 101 196 99 198 98 199 101 196 98 199 97 200 96 201 143 178 97 200 97 200 143 178 142 176 97 200 142 176 101 196 143 178 96 201 144 180 144 180 96 201 95 184 69 202 68 203 94 185 94 185 68 203 67 204 94 185 67 204 66 205 66 205 65 206 94 185 94 185 65 206 64 207 94 185 64 207 63 183 61 181 60 208 59 179 55 172 54 159 139 157 152 209 145 210 151 211 151 211 145 210 146 212 151 211 146 212 147 213 148 214 149 215 147 213 147 213 149 215 150 216 147 213 150 216 151 211 153 217 154 218 172 219 172 219 154 218 170 220 172 219 170 220 171 221 170 220 154 218 169 222 169 222 154 218 155 223 169 222 155 223 168 224 168 224 155 223 156 225 168 224 156 225 167 226 167 226 156 225 157 227 167 226 157 227 166 228 166 228 157 227 158 229 166 228 158 229 165 230 165 230 158 229 159 231 165 230 159 231 164 232 164 232 159 231 160 233 164 232 160 233 162 234 162 234 160 233 161 235 162 234 163 236 164 232 199 237 173 238 200 239 200 239 173 238 174 240 200 239 174 240 205 241 205 241 174 240 175 242 205 241 175 242 210 243 210 243 175 242 176 244 210 243 176 244 215 245 215 245 176 244 177 246 215 245 177 246 220 247 220 247 177 246 178 248 220 247 178 248 225 249 225 249 178 248 179 250 225 249 179 250 230 251 230 251 179 250 180 252 230 251 180 252 182 253 182 253 180 252 181 254 230 251 182 253 231 255 231 255 182 253 183 256 231 255 183 256 232 257 232 257 183 256 184 258 232 257 184 258 233 259 233 259 184 258 185 260 233 259 185 260 234 261 234 261 185 260 186 262 234 261 186 262 188 263 188 263 186 262 187 264 188 263 189 265 234 261 234 261 189 265 229 266 234 261 229 266 228 267 228 267 229 266 223 268 228 267 223 268 222 269 222 269 223 268 217 270 222 269 217 270 216 271 216 271 217 270 211 272 216 271 211 272 210 243 210 243 211 272 205 241 189 265 190 273 229 266 229 266 190 273 224 274 229 266 224 274 223 268 223 268 224 274 218 275 223 268 218 275 217 270 217 270 218 275 212 276 217 270 212 276 211 272 211 272 212 276 206 277 211 272 206 277 205 241 205 241 206 277 200 239 190 273 191 278 224 274 224 274 191 278 219 279 224 274 219 279 218 275 218 275 219 279 213 280 218 275 213 280 212 276 212 276 213 280 207 281 212 276 207 281 206 277 206 277 207 281 201 282 206 277 201 282 200 239 200 239 201 282 199 237 191 278 192 283 219 279 219 279 192 283 193 284 219 279 193 284 214 285 214 285 193 284 194 286 214 285 194 286 209 287 209 287 194 286 148 288 209 287 148 288 204 289 204 289 148 288 147 290 204 289 147 290 146 291 145 292 195 293 146 291 146 291 195 293 204 289 195 293 196 294 204 289 204 289 196 294 203 295 204 289 203 295 209 287 209 287 203 295 208 296 209 287 208 296 214 285 214 285 208 296 213 280 214 285 213 280 219 279 196 294 197 297 203 295 203 295 197 297 202 298 203 295 202 298 208 296 208 296 202 298 207 281 208 296 207 281 213 280 197 297 198 299 202 298 202 298 198 299 201 282 202 298 201 282 207 281 198 299 199 237 201 282 210 243 215 245 216 271 216 271 215 245 221 300 216 271 221 300 222 269 222 269 221 300 227 301 222 269 227 301 228 267 228 267 227 301 233 259 228 267 233 259 234 261 215 245 220 247 221 300 221 300 220 247 226 302 221 300 226 302 227 301 227 301 226 302 232 257 227 301 232 257 233 259 220 247 225 249 226 302 226 302 225 249 231 255 226 302 231 255 232 257 230 251 231 255 225 249 251 303 235 304 252 305 252 305 235 304 236 306 252 305 236 306 256 307 256 307 236 306 237 308 256 307 237 308 260 309 260 309 237 308 238 310 260 309 238 310 264 311 264 311 238 310 239 312 264 311 239 312 240 313 264 311 240 313 268 314 268 314 240 313 241 315 268 314 241 315 272 316 272 316 241 315 242 317 272 316 242 317 276 318 276 318 242 317 244 319 276 318 244 319 277 320 277 320 244 319 245 321 277 320 245 321 278 322 278 322 245 321 246 323 278 322 246 323 279 324 279 324 246 323 247 325 279 324 247 325 160 326 160 326 247 325 161 327 242 317 243 328 244 319 160 326 159 329 279 324 279 324 159 329 275 330 279 324 275 330 278 322 278 322 275 330 274 331 278 322 274 331 277 320 277 320 274 331 273 332 277 320 273 332 276 318 276 318 273 332 272 316 159 329 158 333 275 330 275 330 158 333 271 334 275 330 271 334 274 331 274 331 271 334 270 335 274 331 270 335 273 332 273 332 270 335 269 336 273 332 269 336 272 316 272 316 269 336 268 314 158 333 157 337 271 334 271 334 157 337 267 338 271 334 267 338 270 335 270 335 267 338 266 339 270 335 266 339 269 336 269 336 266 339 265 340 269 336 265 340 268 314 268 314 265 340 264 311 267 338 157 337 263 341 263 341 157 337 156 342 263 341 156 342 259 343 259 343 156 342 155 344 259 343 155 344 255 345 255 345 155 344 154 346 255 345 154 346 153 347 153 347 248 348 255 345 255 345 248 348 254 349 255 345 254 349 259 343 259 343 254 349 258 350 259 343 258 350 263 341 263 341 258 350 262 351 263 341 262 351 267 338 267 338 262 351 266 339 248 348 249 352 254 349 254 349 249 352 253 353 254 349 253 353 258 350 258 350 253 353 257 354 258 350 257 354 262 351 262 351 257 354 261 355 262 351 261 355 266 339 266 339 261 355 265 340 249 352 250 356 253 353 253 353 250 356 251 303 253 353 251 303 252 305 257 354 253 353 252 305 257 354 252 305 256 307 261 355 257 354 256 307 261 355 256 307 260 309 265 340 261 355 260 309 265 340 260 309 264 311 280 357 281 358 312 359 312 359 281 358 317 360 312 359 317 360 311 361 311 361 317 360 322 362 311 361 322 362 310 363 310 363 322 362 327 364 310 363 327 364 309 365 309 365 327 364 332 366 309 365 332 366 308 367 308 367 332 366 337 368 308 367 337 368 307 369 307 369 337 368 342 370 307 369 342 370 300 371 300 371 342 370 299 372 299 372 342 370 341 373 299 372 341 373 298 374 298 374 341 373 297 375 297 375 341 373 340 376 297 375 340 376 296 377 296 377 340 376 339 378 296 377 339 378 295 379 295 379 339 378 338 380 295 379 338 380 293 381 293 381 338 380 292 382 292 382 338 380 333 383 292 382 333 383 291 384 291 384 333 383 290 385 290 385 333 383 328 386 290 385 328 386 289 387 289 387 328 386 323 388 289 387 323 388 288 389 288 389 323 388 318 390 288 389 318 390 287 391 287 391 318 390 313 392 287 391 313 392 286 393 286 393 313 392 285 394 285 394 313 392 314 395 285 394 314 395 284 396 284 396 314 395 315 397 284 396 315 397 283 398 283 398 315 397 316 399 283 398 316 399 282 400 282 400 316 399 317 360 282 400 317 360 281 358 293 381 294 401 295 379 300 371 301 402 307 369 307 369 301 402 302 403 307 369 302 403 303 404 303 404 304 405 307 369 307 369 304 405 306 406 306 406 304 405 305 407 314 395 313 392 319 408 319 408 313 392 318 390 319 408 318 390 324 409 324 409 318 390 323 388 324 409 323 388 329 410 329 410 323 388 328 386 329 410 328 386 334 411 334 411 328 386 333 383 334 411 333 383 339 378 339 378 333 383 338 380 315 397 314 395 320 412 320 412 314 395 319 408 320 412 319 408 325 413 325 413 319 408 324 409 325 413 324 409 330 414 330 414 324 409 329 410 330 414 329 410 335 415 335 415 329 410 334 411 335 415 334 411 340 376 340 376 334 411 339 378 322 362 317 360 316 399 316 399 315 397 321 416 321 416 315 397 320 412 321 416 320 412 326 417 326 417 320 412 325 413 326 417 325 413 331 418 331 418 325 413 330 414 331 418 330 414 336 419 336 419 330 414 335 415 336 419 335 415 341 373 341 373 335 415 340 376 327 364 322 362 321 416 321 416 322 362 316 399 327 364 321 416 326 417 332 366 327 364 326 417 332 366 326 417 331 418 337 368 332 366 331 418 337 368 331 418 336 419 342 370 337 368 336 419 342 370 336 419 341 373 343 420 344 421 360 422 360 422 344 421 359 423 359 423 344 421 345 424 359 423 345 424 358 425 358 425 345 424 346 426 358 425 346 426 357 427 357 427 346 426 347 428 357 427 347 428 356 429 356 429 347 428 348 430 356 429 348 430 355 431 355 431 348 430 349 432 355 431 349 432 354 433 354 433 349 432 350 434 354 433 350 434 353 435 353 435 350 434 351 436 353 435 351 436 352 437 361 438 362 439 374 440 374 440 362 439 373 441 373 441 362 439 363 442 373 441 363 442 372 443 372 443 363 442 364 444 372 443 364 444 371 445 371 445 364 444 365 446 371 445 365 446 370 447 370 447 365 446 366 448 370 447 366 448 369 449 369 449 366 448 367 450 369 449 367 450 368 451 376 452 422 453 375 454 375 454 422 453 399 455 375 454 399 455 400 456 422 453 376 452 421 457 421 457 376 452 377 458 421 457 377 458 420 459 420 459 377 458 378 460 420 459 378 460 419 461 419 461 378 460 379 462 419 461 379 462 418 463 418 463 379 462 380 464 418 463 380 464 417 465 417 465 380 464 381 466 417 465 381 466 416 467 416 467 381 466 382 468 416 467 382 468 415 469 415 469 382 468 383 470 415 469 383 470 414 471 414 471 383 470 384 472 414 471 384 472 413 473 413 473 384 472 385 474 413 473 385 474 412 475 412 475 385 474 386 476 412 475 386 476 411 477 411 477 386 476 387 478 411 477 387 478 410 479 410 479 387 478 388 480 410 479 388 480 409 481 409 481 388 480 389 482 409 481 389 482 408 483 408 483 389 482 390 484 408 483 390 484 407 485 407 485 390 484 391 486 407 485 391 486 406 487 406 487 391 486 392 488 406 487 392 488 405 489 405 489 392 488 393 490 405 489 393 490 404 491 404 491 393 490 394 492 404 491 394 492 403 493 403 493 394 492 395 494 403 493 395 494 402 495 402 495 395 494 396 496 402 495 396 496 401 497 401 497 396 496 397 498 401 497 397 498 400 456 400 456 397 498 398 499 400 456 398 499 375 454 424 500 459 501 423 502 423 502 459 501 460 503 423 502 460 503 446 504 446 504 460 503 461 505 446 504 461 505 445 506 445 506 461 505 462 507 445 506 462 507 444 508 444 508 462 507 463 509 444 508 463 509 443 510 443 510 463 509 464 511 443 510 464 511 442 512 442 512 464 511 465 513 442 512 465 513 441 514 441 514 465 513 466 515 441 514 466 515 440 516 440 516 466 515 467 517 440 516 467 517 439 518 439 518 467 517 468 519 439 518 468 519 438 520 438 520 468 519 469 521 438 520 469 521 437 522 437 522 469 521 470 523 437 522 470 523 436 524 436 524 470 523 447 525 436 524 447 525 435 526 435 526 447 525 448 527 435 526 448 527 434 528 434 528 448 527 449 529 434 528 449 529 433 530 433 530 449 529 450 531 433 530 450 531 432 532 432 532 450 531 451 533 432 532 451 533 431 534 431 534 451 533 452 535 431 534 452 535 430 536 430 536 452 535 453 537 430 536 453 537 429 538 429 538 453 537 454 539 429 538 454 539 428 540 428 540 454 539 455 541 428 540 455 541 427 542 427 542 455 541 456 543 427 542 456 543 426 544 426 544 456 543 457 545 426 544 457 545 425 546 425 546 457 545 458 547 425 546 458 547 424 500 424 500 458 547 459 501 472 548 518 549 471 550 471 550 518 549 495 551 471 550 495 551 494 552 494 552 495 551 496 553 494 552 496 553 493 554 493 554 496 553 497 555 493 554 497 555 492 556 492 556 497 555 498 557 492 556 498 557 491 558 491 558 498 557 499 559 491 558 499 559 490 560 490 560 499 559 500 561 490 560 500 561 489 562 489 562 500 561 501 563 489 562 501 563 488 564 488 564 501 563 502 565 488 564 502 565 487 566 487 566 502 565 503 567 487 566 503 567 486 568 486 568 503 567 504 569 486 568 504 569 485 570 485 570 504 569 505 571 485 570 505 571 484 572 484 572 505 571 506 573 484 572 506 573 483 574 483 574 506 573 507 575 483 574 507 575 482 576 482 576 507 575 508 577 482 576 508 577 481 578 481 578 508 577 509 579 481 578 509 579 480 580 480 580 509 579 510 581 480 580 510 581 479 582 479 582 510 581 511 583 479 582 511 583 478 584 478 584 511 583 512 585 478 584 512 585 477 586 477 586 512 585 513 587 477 586 513 587 476 588 476 588 513 587 514 589 476 588 514 589 475 590 475 590 514 589 515 591 475 590 515 591 474 592 474 592 515 591 516 593 474 592 516 593 473 594 473 594 516 593 517 595 473 594 517 595 472 548 472 548 517 595 518 549 25 596 24 597 286 598 286 598 24 597 287 599 287 599 24 597 23 600 287 599 23 600 288 601 288 601 23 600 22 602 288 601 22 602 21 603 288 601 21 603 289 604 289 604 21 603 90 605 289 604 90 605 290 606 290 606 90 605 89 607 290 606 89 607 291 608 291 608 89 607 138 609 291 608 138 609 292 610 292 610 138 609 51 611 292 610 51 611 50 612 50 612 49 613 292 610 292 610 49 613 48 614 292 610 48 614 293 615 293 615 48 614 47 616 293 615 47 616 46 617 46 617 45 618 293 615 520 619 525 620 519 621 519 621 525 620 526 622 519 621 526 622 527 623 527 623 526 622 531 624 527 623 531 624 532 625 532 625 531 624 536 626 532 625 536 626 537 627 537 627 536 626 541 628 537 627 541 628 542 629 542 629 541 628 524 630 542 629 524 630 0 631 520 619 521 632 525 620 525 620 521 632 530 633 525 620 530 633 526 622 526 622 530 633 531 624 521 632 522 634 530 633 530 633 522 634 535 635 530 633 535 635 531 624 531 624 535 635 536 626 522 634 523 636 535 635 535 635 523 636 540 637 535 635 540 637 536 626 536 626 540 637 541 628 523 636 524 630 540 637 540 637 524 630 541 628 32 638 544 639 0 631 0 631 544 639 543 640 0 631 543 640 542 629 542 629 543 640 538 641 542 629 538 641 537 627 537 627 538 641 533 642 537 627 533 642 532 625 532 625 533 642 528 643 532 625 528 643 527 623 527 623 528 643 519 621 32 638 31 644 544 639 544 639 31 644 539 645 544 639 539 645 543 640 543 640 539 645 538 641 31 644 30 646 539 645 539 645 30 646 29 647 539 645 29 647 534 648 534 648 29 647 28 649 534 648 28 649 27 650 534 648 27 650 529 651 529 651 27 650 26 652 529 651 26 652 528 643 528 643 26 652 519 621 26 652 25 653 519 621 534 648 529 651 533 642 533 642 529 651 528 643 539 645 534 648 538 641 538 641 534 648 533 642 293 654 187 655 294 656 294 656 187 655 554 657 294 656 554 657 555 658 555 658 554 657 567 659 555 658 567 659 568 660 568 660 567 659 580 661 568 660 580 661 581 662 581 662 580 661 593 663 581 662 593 663 594 664 594 664 593 663 606 665 594 664 606 665 607 666 607 666 606 665 306 667 607 666 306 667 608 668 608 668 306 667 609 669 608 668 609 669 596 670 596 670 609 669 299 671 596 670 299 671 298 672 186 673 545 674 187 655 187 655 545 674 546 675 187 655 546 675 547 676 547 676 546 675 559 677 547 676 559 677 560 678 560 678 559 677 572 679 560 678 572 679 573 680 573 680 572 679 585 681 573 680 585 681 586 682 586 682 585 681 598 683 586 682 598 683 599 684 599 684 598 683 306 667 599 684 306 667 600 685 600 685 306 667 601 686 600 685 601 686 588 687 588 687 601 686 589 688 588 687 589 688 576 689 576 689 589 688 577 690 576 689 577 690 564 691 564 691 577 690 565 692 564 691 565 692 552 693 552 693 565 692 553 694 552 693 553 694 187 655 187 655 553 694 554 657 186 673 185 695 545 674 545 674 185 695 558 696 545 674 558 696 546 675 546 675 558 696 559 677 185 695 184 697 558 696 558 696 184 697 571 698 558 696 571 698 559 677 559 677 571 698 572 679 184 697 183 699 571 698 571 698 183 699 584 700 571 698 584 700 572 679 572 679 584 700 585 681 183 699 182 701 584 700 584 700 182 701 597 702 584 700 597 702 585 681 585 681 597 702 598 683 181 703 306 667 182 701 182 701 306 667 597 702 306 667 305 704 609 669 609 669 305 704 302 705 609 669 302 705 301 706 304 707 303 708 305 704 305 704 303 708 302 705 301 706 300 709 609 669 609 669 300 709 299 671 298 672 297 710 596 670 596 670 297 710 583 711 596 670 583 711 595 712 595 712 583 711 582 713 595 712 582 713 594 664 594 664 582 713 581 662 297 710 296 714 583 711 583 711 296 714 570 715 583 711 570 715 582 713 582 713 570 715 569 716 582 713 569 716 581 662 581 662 569 716 568 660 296 714 295 717 570 715 570 715 295 717 557 718 570 715 557 718 569 716 569 716 557 718 556 719 569 716 556 719 568 660 568 660 556 719 555 658 295 717 294 656 557 718 557 718 294 656 556 719 547 676 548 720 187 655 187 655 548 720 549 721 187 655 549 721 550 722 550 722 549 721 562 723 550 722 562 723 563 724 563 724 562 723 575 725 563 724 575 725 576 689 576 689 575 725 588 687 547 676 560 678 548 720 548 720 560 678 561 726 548 720 561 726 549 721 549 721 561 726 562 723 552 693 187 655 551 727 551 727 187 655 550 722 551 727 550 722 563 724 564 691 552 693 551 727 564 691 551 727 563 724 556 719 294 656 555 658 554 657 553 694 566 728 566 728 553 694 565 692 566 728 565 692 578 729 578 729 565 692 577 690 578 729 577 690 590 730 590 730 577 690 589 688 590 730 589 688 602 731 602 731 589 688 601 686 602 731 601 686 306 667 560 678 573 680 561 726 561 726 573 680 574 732 561 726 574 732 562 723 562 723 574 732 575 725 576 689 564 691 563 724 554 657 566 728 567 659 567 659 566 728 579 733 567 659 579 733 580 661 580 661 579 733 592 734 580 661 592 734 593 663 593 663 592 734 605 735 593 663 605 735 606 665 606 665 605 735 306 667 579 733 566 728 578 729 573 680 586 682 574 732 574 732 586 682 587 736 574 732 587 736 575 725 575 725 587 736 588 687 579 733 578 729 591 737 591 737 578 729 590 730 591 737 590 730 603 738 603 738 590 730 602 731 603 738 602 731 306 667 600 685 588 687 587 736 600 685 587 736 599 684 599 684 587 736 586 682 579 733 591 737 592 734 592 734 591 737 604 739 592 734 604 739 605 735 605 735 604 739 306 667 604 739 591 737 603 738 608 668 596 670 595 712 608 668 595 712 607 666 607 666 595 712 594 664 306 667 598 683 597 702 306 667 604 739 603 738 173 740 612 741 243 742 243 742 612 741 613 743 243 742 613 743 614 744 614 744 613 743 619 745 614 744 619 745 244 746 244 746 619 745 245 747 245 747 619 745 624 748 245 747 624 748 246 749 246 749 624 748 629 750 246 749 629 750 247 751 247 751 629 750 634 752 247 751 634 752 161 753 161 753 634 752 162 754 162 754 634 752 633 755 162 754 633 755 632 756 632 756 633 755 628 757 632 756 628 757 627 758 627 758 628 757 623 759 627 758 623 759 622 760 622 760 623 759 618 761 622 760 618 761 617 762 617 762 618 761 612 741 617 762 612 741 611 763 611 763 612 741 173 740 611 763 173 740 610 764 610 764 173 740 199 765 610 764 199 765 615 766 615 766 199 765 198 767 615 766 198 767 620 768 620 768 198 767 197 769 620 768 197 769 196 770 620 768 196 770 625 771 625 771 196 770 195 772 625 771 195 772 630 773 630 773 195 772 145 774 630 773 145 774 631 775 631 775 145 774 632 756 631 775 632 756 627 758 145 774 162 754 632 756 244 746 243 742 614 744 633 755 634 752 629 750 611 763 610 764 616 776 616 776 610 764 615 766 616 776 615 766 620 768 619 745 613 743 618 761 618 761 613 743 612 741 611 763 616 776 617 762 617 762 616 776 621 777 617 762 621 777 622 760 622 760 621 777 626 778 622 760 626 778 627 758 627 758 626 778 631 775 621 777 616 776 620 768 624 748 619 745 623 759 623 759 619 745 618 761 626 778 621 777 625 771 625 771 621 777 620 768 629 750 624 748 628 757 628 757 624 748 623 759 631 775 626 778 630 773 630 773 626 778 625 771 633 755 629 750 628 757 235 779 640 780 280 781 280 781 640 780 641 782 280 781 641 782 642 783 642 783 641 782 651 784 642 783 651 784 652 785 652 785 651 784 661 786 652 785 661 786 662 787 662 787 661 786 671 788 662 787 671 788 672 789 672 789 671 788 681 790 672 789 681 790 682 791 682 791 681 790 286 792 682 791 286 792 683 793 683 793 286 792 684 794 683 793 684 794 674 795 674 795 684 794 284 796 674 795 284 796 283 797 251 798 635 799 235 779 235 779 635 799 636 800 235 779 636 800 637 801 637 801 636 800 646 802 637 801 646 802 647 803 647 803 646 802 656 804 647 803 656 804 657 805 657 805 656 804 666 806 657 805 666 806 667 807 667 807 666 806 676 808 667 807 676 808 677 809 677 809 676 808 172 810 677 809 172 810 678 811 678 811 172 810 679 812 678 811 679 812 669 813 669 813 679 812 670 814 669 813 670 814 660 815 660 815 670 814 661 786 660 815 661 786 651 784 251 798 250 816 635 799 635 799 250 816 645 817 635 799 645 817 636 800 636 800 645 817 646 802 250 816 249 818 645 817 645 817 249 818 655 819 645 817 655 819 646 802 646 802 655 819 656 804 249 818 248 820 655 819 655 819 248 820 665 821 655 819 665 821 656 804 656 804 665 821 666 806 248 820 153 822 665 821 665 821 153 822 675 823 665 821 675 823 666 806 666 806 675 823 676 808 153 822 172 810 675 823 675 823 172 810 676 808 679 812 172 810 680 824 680 824 172 810 286 792 680 824 286 792 681 790 286 792 285 825 684 794 684 794 285 825 284 796 674 795 283 797 664 826 664 826 283 797 282 827 664 826 282 827 654 828 654 828 282 827 281 829 654 828 281 829 644 830 644 830 281 829 280 781 644 830 280 781 643 831 643 831 280 781 642 783 643 831 642 783 652 785 637 801 638 832 235 779 235 779 638 832 639 833 235 779 639 833 640 780 640 780 639 833 649 834 640 780 649 834 650 835 650 835 649 834 659 836 650 835 659 836 660 815 660 815 659 836 669 813 637 801 647 803 638 832 638 832 647 803 648 837 638 832 648 837 639 833 639 833 648 837 649 834 651 784 641 782 650 835 650 835 641 782 640 780 644 830 643 831 653 838 653 838 643 831 652 785 653 838 652 785 662 787 647 803 657 805 648 837 648 837 657 805 658 839 648 837 658 839 649 834 649 834 658 839 659 836 660 815 651 784 650 835 644 830 653 838 654 828 654 828 653 838 663 840 654 828 663 840 664 826 664 826 663 840 673 841 664 826 673 841 674 795 674 795 673 841 683 793 663 840 653 838 662 787 657 805 667 807 658 839 658 839 667 807 668 842 658 839 668 842 659 836 659 836 668 842 669 813 671 788 661 786 670 814 673 841 663 840 672 789 672 789 663 840 662 787 678 811 669 813 668 842 678 811 668 842 677 809 677 809 668 842 667 807 679 812 680 824 670 814 670 814 680 824 671 788 680 824 681 790 671 788 683 793 673 841 682 791 682 791 673 841 672 789 74 843 73 844 75 845 75 845 73 844 685 846 75 845 685 846 76 847 76 847 685 846 77 848 77 848 685 846 686 849 77 848 686 849 78 850 78 850 686 849 79 851 79 851 686 849 80 852 524 853 687 854 0 855 0 855 687 854 685 856 0 855 685 856 73 857 0 855 73 857 1 858 1 858 73 857 72 859 1 858 72 859 71 860 71 860 70 861 1 858 1 858 70 861 69 862 1 858 69 862 94 863 1 858 94 863 3 864 3 864 94 863 93 865 3 864 93 865 92 866 92 866 91 867 3 864 3 864 91 867 4 868 3 864 2 869 1 858 688 870 686 871 687 872 687 872 686 871 685 873 43 874 80 875 690 876 690 876 80 875 686 877 690 876 686 877 688 878 688 878 689 879 690 876 689 880 374 881 691 882 691 882 374 881 373 883 691 882 373 883 372 884 372 884 371 885 691 882 691 882 371 885 370 886 691 882 370 886 369 887 369 887 368 888 691 882 691 882 368 888 351 436 351 436 368 888 352 437 691 882 690 889 689 880 152 890 360 891 163 892 163 892 360 891 359 893 163 892 359 893 164 894 164 894 359 893 358 895 164 894 358 895 165 896 165 896 358 895 357 897 165 896 357 897 166 898 166 898 357 897 356 899 166 898 356 899 167 900 167 900 356 899 168 901 168 901 356 899 355 902 168 901 355 902 169 903 169 903 355 902 354 904 169 903 354 904 170 905 170 905 354 904 353 906 170 905 353 906 171 907 171 907 353 906 352 908 171 907 352 908 367 450 367 450 352 908 368 451 151 909 150 910 152 890 152 890 150 910 149 911 152 890 149 911 360 891 691 912 447 913 293 914 293 914 447 913 470 915 293 914 470 915 469 916 351 917 422 918 691 912 691 912 422 918 421 919 691 912 421 919 420 920 350 921 346 922 351 917 351 917 346 922 345 923 351 917 345 923 405 924 405 924 345 923 344 925 405 924 344 925 406 926 406 926 344 925 343 927 406 926 343 927 407 928 407 928 343 927 408 929 408 929 343 927 409 930 409 930 343 927 410 931 410 931 343 927 411 932 411 932 343 927 412 933 412 933 343 927 413 934 413 934 343 927 414 935 414 935 343 927 148 936 414 935 148 936 501 937 501 937 148 936 502 938 502 938 148 936 503 939 503 939 148 936 504 940 504 940 148 936 505 941 505 941 148 936 506 942 506 942 148 936 507 943 507 943 148 936 194 944 507 943 194 944 508 945 508 945 194 944 509 946 509 946 194 944 510 947 510 947 194 944 193 948 510 947 193 948 511 949 511 949 193 948 512 950 512 950 193 948 192 951 512 950 192 951 513 952 513 952 192 951 191 953 513 952 191 953 190 954 346 922 350 921 347 955 347 955 350 921 349 956 347 955 349 956 348 957 190 954 189 958 513 952 513 952 189 958 187 959 513 952 187 959 514 960 514 960 187 959 515 961 515 961 187 959 516 962 516 962 187 959 517 963 517 963 187 959 460 964 517 963 460 964 459 965 189 958 188 966 187 959 293 914 463 967 187 959 187 959 463 967 462 968 187 959 462 968 461 969 518 970 458 971 495 972 495 972 458 971 457 973 495 972 457 973 496 974 496 974 457 973 497 975 497 975 457 973 456 976 497 975 456 976 418 977 418 977 456 976 455 978 418 977 455 978 419 979 419 979 455 978 691 912 419 979 691 912 420 920 458 971 518 970 459 965 459 965 518 970 517 963 500 980 416 981 501 937 501 937 416 981 415 982 501 937 415 982 414 935 416 981 500 980 417 983 417 983 500 980 499 984 417 983 499 984 498 985 417 983 498 985 418 977 418 977 498 985 497 975 400 986 399 987 351 917 351 917 399 987 422 918 405 924 404 988 351 917 351 917 404 988 403 989 351 917 403 989 402 990 402 990 401 991 351 917 351 917 401 991 400 986 469 916 468 992 293 914 293 914 468 992 467 993 293 914 467 993 466 994 466 994 465 995 293 914 293 914 465 995 464 996 293 914 464 996 463 967 461 969 460 964 187 959 455 978 454 997 691 912 691 912 454 997 453 998 691 912 453 998 452 999 452 999 451 1000 691 912 691 912 451 1000 450 1001 691 912 450 1001 449 1002 449 1002 448 1003 691 912 691 912 448 1003 447 913 148 1004 343 420 149 1005 149 1005 343 420 360 422 691 1006 293 1007 690 1008 690 1008 293 1007 45 1009 690 1008 45 1009 43 1010 43 1010 45 1009 44 1011 172 1012 367 1013 286 1014 286 1014 367 1013 366 1015 286 1014 366 1015 365 1016 172 1012 171 221 367 1013 365 1016 364 1017 286 1014 286 1014 364 1017 363 1018 286 1014 363 1018 362 1019 362 1019 361 1020 286 1014 286 1014 361 1020 519 621 286 1014 519 621 25 1021 361 438 522 1022 519 1023 519 1023 522 1022 521 1024 519 1023 521 1024 520 1025 374 440 689 1026 361 438 361 438 689 1026 522 1022 688 1027 524 1028 689 1026 689 1026 524 1028 523 1029 689 1026 523 1029 522 1022 688 1027 687 1030 524 1028 145 1031 152 209 162 1032 162 1032 152 209 163 236 181 1033 443 1034 306 1035 306 1035 443 1034 442 1036 306 1035 442 1036 441 1037 180 1038 477 1039 181 1033 181 1033 477 1039 476 1040 181 1033 476 1040 475 1041 180 1038 179 1042 477 1039 477 1039 179 1042 178 1043 477 1039 178 1043 177 1044 477 1039 177 1044 478 1045 478 1045 177 1044 176 1046 478 1045 176 1046 479 1047 479 1047 176 1046 480 1048 480 1048 176 1046 481 1049 481 1049 176 1046 175 1050 481 1049 175 1050 482 1051 482 1051 175 1050 483 1052 483 1052 175 1050 484 1053 484 1053 175 1050 485 1054 485 1054 175 1050 174 1055 485 1054 174 1055 486 1056 486 1056 174 1055 487 1057 487 1057 174 1055 173 1058 487 1057 173 1058 488 1059 488 1059 173 1058 489 1060 489 1060 173 1058 490 1061 490 1061 173 1058 382 1062 490 1061 382 1062 381 1063 243 1064 385 1065 173 1058 173 1058 385 1065 384 1066 173 1058 384 1066 383 1067 242 1068 393 1069 243 1064 243 1064 393 1069 392 1070 243 1064 392 1070 391 1071 393 1069 242 1068 235 1072 235 1072 242 1068 241 1073 235 1072 241 1073 240 1074 235 1072 240 1074 236 1075 236 1075 240 1074 239 1076 236 1075 239 1076 237 1077 237 1077 239 1076 238 1078 280 1079 375 1080 235 1072 235 1072 375 1080 398 1081 235 1072 398 1081 397 1082 312 1083 429 1084 280 1079 280 1079 429 1084 428 1085 280 1079 428 1085 427 1086 429 1084 312 1083 430 1087 430 1087 312 1083 311 1088 430 1087 311 1088 431 1089 431 1089 311 1088 310 1090 431 1089 310 1090 432 1091 432 1091 310 1090 433 1092 433 1092 310 1090 434 1093 434 1093 310 1090 309 1094 434 1093 309 1094 435 1095 435 1095 309 1094 436 1096 436 1096 309 1094 437 1097 437 1097 309 1094 308 1098 437 1097 308 1098 438 1099 438 1099 308 1098 439 1100 439 1100 308 1098 307 1101 439 1100 307 1101 440 1102 440 1102 307 1101 441 1037 441 1037 307 1101 306 1035 397 1082 396 1103 235 1072 235 1072 396 1103 395 1104 235 1072 395 1104 394 1105 394 1105 393 1069 235 1072 391 1071 390 1106 243 1064 243 1064 390 1106 389 1107 243 1064 389 1107 388 1108 388 1108 387 1109 243 1064 243 1064 387 1109 386 1110 243 1064 386 1110 385 1065 383 1067 382 1062 173 1058 380 1111 492 1112 381 1063 381 1063 492 1112 491 1113 381 1063 491 1113 490 1061 379 1114 280 1079 380 1111 380 1111 280 1079 426 1115 380 1111 426 1115 493 1116 493 1116 426 1115 494 1117 494 1117 426 1115 425 1118 494 1117 425 1118 471 1119 471 1119 425 1118 424 1120 471 1119 424 1120 472 1121 472 1121 424 1120 423 1122 472 1121 423 1122 473 1123 473 1123 423 1122 446 1124 473 1123 446 1124 181 1033 181 1033 446 1124 445 1125 181 1033 445 1125 444 1126 379 1114 378 1127 280 1079 280 1079 378 1127 377 1128 280 1079 377 1128 376 1129 376 1129 375 1080 280 1079 444 1126 443 1034 181 1033 427 1086 426 1115 280 1079 493 1116 492 1112 380 1111 475 1041 474 1130 181 1033 181 1033 474 1130 473 1123</p>
        </triangles>
      </mesh>
    </geometry>
  </library_geometries>
  <library_visual_scenes>
    <visual_scene id="Scene" name="Scene">
      <node id="FootCoverLeft-node" name="FootCoverLeft" type="NODE">
        <instance_geometry url="#FootCoverLeft-mesh">
          <bind_material>
            <technique_common>
              <instance_material symbol="Powder_Coat__Green_" target="#Powder_Coat__Green_"/>
            </technique_common>
          </bind_material>
        </instance_geometry>
      </node>
    </visual_scene>
  </library_visual_scenes>
  <scene>
    <instance_visual_scene url="#Scene"/>
  </scene>
</COLLADA>
