<?xml version="1.0" encoding="utf-8"?>
<COLLADA xmlns="http://www.collada.org/2005/11/COLLADASchema" version="1.4.1">
  <asset>
    <contributor>
      <authoring_tool>Fusion URDF/XACRO Exporter</authoring_tool>
    </contributor>
    <created>2026-06-08T18:29:34Z</created>
    <modified>2026-06-08T18:29:34Z</modified>
    <unit name="meter" meter="1.0"/>
    <up_axis>Z_UP</up_axis>
  </asset>
  <library_effects>
    <effect id="Steel_-_Satin-effect">
      <profile_COMMON>
        <technique sid="common">
          <lambert>
            <emission><color>0 0 0 1</color></emission>
            <ambient><color>0.0000 0.0000 0.0000 1</color></ambient>
            <diffuse><color>0.6275 0.6275 0.6275 1</color></diffuse>
            <reflective><color>0 0 0 1</color></reflective>
            <transparent opaque="A_ONE"><color>1 1 1 1</color></transparent>
            <transparency><float>1</float></transparency>
          </lambert>
        </technique>
      </profile_COMMON>
    </effect>
  </library_effects>
  <library_materials>
    <material id="Steel_-_Satin" name="Steel_-_Satin">
      <instance_effect url="#Steel_-_Satin-effect"/>
    </material>
  </library_materials>
  <library_geometries>
    <geometry id="FootPadLeft-mesh" name="FootPadLeft">
      <mesh>
        <source id="FootPadLeft-mesh-positions">
          <float_array id="FootPadLeft-mesh-positions-array" count="312">0.077021 0.026023 -0.292690 0.077127 0.026130 -0.294473 0.077439 0.026441 -0.296207 0.077937 0.026939 -0.297852 0.078595 0.027598 -0.299380 0.080287 0.029290 -0.302035 0.082331 0.031334 -0.304140 0.084599 0.033602 -0.305725 0.087006 0.036009 -0.306827 0.089495 0.038497 -0.307475 0.092021 0.041023 -0.307690 0.106071 0.041023 -0.307690 0.108597 0.038497 -0.307475 0.111086 0.036009 -0.306827 0.113493 0.033602 -0.305725 0.115761 0.031334 -0.304140 0.117805 0.029290 -0.302035 0.119497 0.027598 -0.299380 0.120155 0.026939 -0.297852 0.120653 0.026441 -0.296207 0.120965 0.026130 -0.294473 0.121071 0.026023 -0.292690 0.095536 0.196023 -0.292690 0.102556 0.196023 -0.292690 0.121071 0.196023 -0.292690 0.120965 0.195917 -0.294473 0.120653 0.195605 -0.296207 0.120155 0.195107 -0.297852 0.119497 0.194448 -0.299380 0.117805 0.192756 -0.302035 0.115761 0.190712 -0.304140 0.113493 0.188445 -0.305725 0.111086 0.186037 -0.306827 0.108597 0.183549 -0.307475 0.106071 0.181023 -0.307690 0.092021 0.181023 -0.307690 0.089495 0.183549 -0.307475 0.087006 0.186037 -0.306827 0.084599 0.188445 -0.305725 0.082331 0.190712 -0.304140 0.080287 0.192756 -0.302035 0.078595 0.194448 -0.299380 0.077937 0.195107 -0.297852 0.077439 0.195605 -0.296207 0.077127 0.195917 -0.294473 0.077021 0.196023 -0.292690 0.092021 0.137617 -0.307690 0.091596 0.137598 -0.307684 0.091181 0.137491 -0.307666 0.090798 0.137314 -0.307640 0.090451 0.137085 -0.307607 0.089823 0.136500 -0.307528 0.089300 0.135822 -0.307441 0.087811 0.132765 -0.307088 0.086833 0.129439 -0.306764 0.086181 0.126179 -0.306507 0.085383 0.119199 -0.306141 0.085148 0.112351 -0.306023 0.085383 0.105503 -0.306141 0.086181 0.098524 -0.306507 0.086833 0.095263 -0.306764 0.087811 0.091938 -0.307087 0.089300 0.088880 -0.307441 0.089823 0.088202 -0.307528 0.090451 0.087618 -0.307607 0.090798 0.087388 -0.307640 0.091181 0.087211 -0.307666 0.091596 0.087105 -0.307684 0.092021 0.087085 -0.307690 0.077532 0.111023 -0.296572 0.079030 0.111023 -0.300190 0.081414 0.111023 -0.303296 0.084521 0.111023 -0.305680 0.106071 0.088055 -0.307690 0.106466 0.088120 -0.307684 0.106844 0.088249 -0.307670 0.107559 0.088670 -0.307616 0.108171 0.089222 -0.307542 0.108702 0.089856 -0.307457 0.110289 0.092737 -0.307085 0.111377 0.095903 -0.306720 0.112127 0.099059 -0.306413 0.113047 0.105711 -0.305969 0.113325 0.112351 -0.305819 0.113047 0.118991 -0.305969 0.112127 0.125643 -0.306413 0.111377 0.128800 -0.306720 0.110289 0.131966 -0.307085 0.108702 0.134846 -0.307457 0.108171 0.135480 -0.307542 0.107559 0.136032 -0.307616 0.106844 0.136453 -0.307670 0.106466 0.136582 -0.307684 0.106071 0.136648 -0.307690 0.120560 0.111023 -0.296572 0.119062 0.111023 -0.300190 0.116678 0.111023 -0.303296 0.113572 0.111023 -0.305680 0.095536 0.041473 -0.292690 0.102556 0.041473 -0.292690 0.105364 0.041473 -0.286140 0.092728 0.041473 -0.286140 0.092728 0.196023 -0.286140 0.105364 0.196023 -0.286140</float_array>
          <technique_common>
            <accessor source="#FootPadLeft-mesh-positions-array" count="104" stride="3">
              <param name="X" type="float"/>
              <param name="Y" type="float"/>
              <param name="Z" type="float"/>
            </accessor>
          </technique_common>
        </source>
        <source id="FootPadLeft-mesh-normals">
          <float_array id="FootPadLeft-mesh-normals-array" count="648">0.000000 -1.000000 -0.000000 0.000000 -0.992911 -0.118864 0.000000 -1.000000 -0.000000 0.000000 -0.992911 -0.118864 0.000000 -0.972121 -0.234480 0.000000 -0.972121 -0.234480 0.000000 -0.938914 -0.344151 0.000000 -0.938914 -0.344151 0.000000 -0.895013 -0.446039 0.000000 -0.895013 -0.446040 0.000000 -0.782216 -0.623008 0.000000 -0.782215 -0.623008 0.000000 -0.645954 -0.763377 0.000000 -0.645953 -0.763377 0.000000 -0.494764 -0.869027 0.000000 -0.494764 -0.869027 0.000000 -0.334286 -0.942472 0.000000 -0.334286 -0.942472 0.000000 -0.168393 -0.985720 0.000000 -0.168393 -0.985720 -0.000000 0.000000 -1.000000 -0.000000 0.000000 -1.000000 -0.000000 1.000000 0.000000 -0.000000 1.000000 0.000000 -0.000000 0.992910 -0.118864 -0.000000 1.000000 0.000000 -0.000000 0.992910 -0.118864 -0.000000 1.000000 0.000000 -0.000000 0.972121 -0.234480 -0.000000 0.972121 -0.234480 -0.000000 0.938914 -0.344151 -0.000000 0.938914 -0.344151 -0.000000 0.895013 -0.446040 -0.000000 0.895013 -0.446040 -0.000000 0.782215 -0.623008 -0.000000 0.782215 -0.623008 -0.000000 0.645953 -0.763377 -0.000000 0.645953 -0.763377 -0.000000 0.494764 -0.869027 -0.000000 0.494764 -0.869027 -0.000000 0.334286 -0.942472 -0.000000 0.334286 -0.942472 -0.000000 0.168392 -0.985720 -0.000000 0.168392 -0.985720 -0.000000 0.000000 -1.000000 -0.000000 0.000000 -1.000000 -1.000000 -0.000000 0.000017 -1.000000 -0.000000 0.000018 -0.965929 -0.000000 -0.258807 -0.992912 -0.000000 -0.118848 -0.972124 -0.000000 -0.234466 -0.938918 -0.000000 -0.344140 -0.866029 -0.000000 -0.499994 -0.938918 -0.000000 -0.344141 -0.895017 -0.000000 -0.446032 -0.782218 -0.000000 -0.623005 -0.707108 -0.000000 -0.707106 -0.645954 -0.000000 -0.763377 -0.499996 -0.000000 -0.866028 -0.494761 -0.000000 -0.869029 -0.442504 -0.000000 -0.896766 -0.334279 -0.000000 -0.942474 -0.389265 -0.000000 -0.921126 -0.345837 -0.000000 -0.938294 -0.895017 -0.000000 -0.446031 -0.782218 -0.000000 -0.623005 -0.645953 -0.000000 -0.763377 -0.494760 -0.000000 -0.869030 -0.458135 -0.000000 -0.888883 -0.442504 -0.000000 -0.896766 -0.334279 -0.000000 -0.942474 -0.389265 -0.000000 -0.921126 -0.345837 -0.000000 -0.938295 -0.280620 -0.000000 -0.959819 -0.168382 -0.000000 -0.985722 -0.181338 -0.000000 -0.983421 -0.146468 -0.000000 -0.989215 -0.104647 -0.000000 -0.994509 -0.081520 -0.000000 -0.996672 0.000016 -0.000000 -1.000000 -0.055936 -0.000000 -0.998434 -0.028266 -0.000000 -0.999600 0.000015 -0.000000 -1.000000 -0.280620 -0.000000 -0.959819 -0.168382 -0.000000 -0.985722 -0.181339 -0.000000 -0.983421 -0.146469 -0.000000 -0.989215 -0.104648 -0.000000 -0.994509 -0.081521 -0.000000 -0.996672 0.000014 -0.000000 -1.000000 -0.055936 -0.000000 -0.998434 -0.028266 -0.000000 -0.999600 0.000014 -0.000000 -1.000000 -0.972124 -0.000000 -0.234467 -0.992912 -0.000000 -0.118849 0.992912 -0.000000 -0.118849 0.965929 -0.000000 -0.258807 1.000000 -0.000000 0.000017 0.992912 -0.000000 -0.118848 1.000000 -0.000000 0.000018 0.972124 -0.000000 -0.234467 0.938918 -0.000000 -0.344141 0.866029 -0.000000 -0.499994 0.895017 -0.000000 -0.446031 0.782218 -0.000000 -0.623004 0.707108 -0.000000 -0.707106 0.645954 -0.000000 -0.763377 0.499996 -0.000000 -0.866028 0.494761 -0.000000 -0.869029 0.483583 -0.000000 -0.875298 0.465026 -0.000000 -0.885297 0.403699 -0.000000 -0.914892 0.334279 -0.000000 -0.942474 0.353679 -0.000000 -0.935367 0.281160 -0.000000 -0.959661 0.168382 -0.000000 -0.985722 0.175383 -0.000000 -0.984500 0.139955 -0.000000 -0.990158 0.099176 -0.000000 -0.995070 -0.000014 -0.000000 -1.000000 0.051468 -0.000000 -0.998675 0.026307 -0.000000 -0.999654 -0.000015 -0.000000 -1.000000 0.494760 -0.000000 -0.869030 0.465026 -0.000000 -0.885297 0.403699 -0.000000 -0.914892 0.334279 -0.000000 -0.942474 0.353679 -0.000000 -0.935367 0.281160 -0.000000 -0.959661 0.168382 -0.000000 -0.985722 0.175383 -0.000000 -0.984500 0.139955 -0.000000 -0.990158 0.099176 -0.000000 -0.995070 -0.000016 -0.000000 -1.000000 0.051468 -0.000000 -0.998675 0.026307 -0.000000 -0.999654 -0.000016 -0.000000 -1.000000 0.645953 -0.000000 -0.763377 0.782218 -0.000000 -0.623004 0.895018 -0.000000 -0.446031 0.938918 -0.000000 -0.344140 0.972124 -0.000000 -0.234466 -0.007994 0.132912 -0.991096 -0.007760 0.131905 -0.991232 -0.008131 0.133498 -0.991016 -0.007457 0.130590 -0.991408 -0.007110 0.129062 -0.991611 -0.006176 0.124856 -0.992156 -0.006312 0.125476 -0.992077 -0.005468 0.121562 -0.992569 -0.002508 0.106642 -0.994294 -0.002195 0.104928 -0.994477 0.000696 0.087514 -0.996163 0.000716 0.087384 -0.996174 0.002978 0.070689 -0.997494 0.005553 0.044470 -0.998995 0.006195 0.034958 -0.999370 0.007231 -0.000000 -0.999974 0.007231 -0.000000 -0.999974 0.006195 -0.034959 -0.999370 0.005553 -0.044470 -0.998995 0.002978 -0.070690 -0.997494 0.000716 -0.087384 -0.996174 0.000696 -0.087514 -0.996163 -0.002195 -0.104928 -0.994477 -0.002509 -0.106642 -0.994294 -0.005468 -0.121562 -0.992569 -0.006176 -0.124857 -0.992156 -0.006312 -0.125476 -0.992077 -0.007110 -0.129062 -0.991611 -0.007457 -0.130590 -0.991408 -0.007760 -0.131905 -0.991232 -0.009668 -0.139894 -0.990119 -0.008131 -0.133498 -0.991016 -0.011337 -0.146497 -0.989146 -0.007994 -0.132912 -0.991096 -0.011388 -0.146696 -0.989116 -0.011340 -0.146510 -0.989144 -0.010987 -0.145139 -0.989350 -0.010401 -0.142834 -0.989692 -0.009668 0.139894 -0.990119 -0.011337 0.146497 -0.989146 -0.010401 0.142834 -0.989692 -0.010987 0.145139 -0.989350 -0.011340 0.146510 -0.989144 -0.011388 0.146696 -0.989116 -0.000000 -0.000000 -1.000000 -0.000000 -0.000000 -1.000000 -0.000000 -0.000000 -1.000000 -0.000000 -0.000000 -1.000000 0.000000 0.000000 1.000000 0.000000 0.000000 1.000000 0.000000 0.000000 1.000000 0.000000 0.000000 1.000000 0.000000 0.000000 1.000000 0.000000 0.000000 1.000000 0.000000 0.000000 1.000000 0.000000 0.000000 1.000000 0.000000 -1.000000 0.000000 0.000000 -1.000000 0.000000 0.000000 -1.000000 0.000000 0.000000 -1.000000 0.000000 -0.000000 1.000000 -0.000000 -0.000000 1.000000 -0.000000 0.000000 -0.000000 1.000000 0.000000 -0.000000 1.000000 0.000000 -0.000000 1.000000 0.000000 -0.000000 1.000000 0.919145 0.000000 -0.393920 0.919145 0.000000 -0.393920 0.919145 0.000000 -0.393920 0.919145 0.000000 -0.393920 -0.919145 0.000000 -0.393919 -0.919145 0.000000 -0.393919 -0.919145 0.000000 -0.393919 -0.919145 0.000000 -0.393919</float_array>
          <technique_common>
            <accessor source="#FootPadLeft-mesh-normals-array" count="216" stride="3">
              <param name="X" type="float"/>
              <param name="Y" type="float"/>
              <param name="Z" type="float"/>
            </accessor>
          </technique_common>
        </source>
        <vertices id="FootPadLeft-mesh-vertices">
          <input semantic="POSITION" source="#FootPadLeft-mesh-positions"/>
        </vertices>
        <triangles material="Steel_-_Satin" count="204">
          <input semantic="VERTEX" source="#FootPadLeft-mesh-vertices" offset="0"/>
          <input semantic="NORMAL" source="#FootPadLeft-mesh-normals" offset="1"/>
          <p>0 0 1 1 21 2 21 2 1 1 20 3 20 3 1 1 19 4 19 4 1 1 2 5 19 4 2 5 3 6 19 4 3 6 18 7 18 7 3 6 4 8 18 7 4 8 17 9 17 9 4 8 16 10 16 10 4 8 5 11 16 10 5 11 15 12 15 12 5 11 6 13 15 12 6 13 14 14 14 14 6 13 7 15 14 14 7 15 13 16 13 16 7 15 8 17 13 16 8 17 12 18 12 18 8 17 9 19 12 18 9 19 11 20 11 20 9 19 10 21 45 22 22 23 44 24 44 24 22 23 23 25 44 24 23 25 25 26 25 26 23 25 24 27 25 26 26 28 44 24 44 24 26 28 43 29 43 29 26 28 42 30 42 30 26 28 27 31 42 30 27 31 41 32 41 32 27 31 28 33 41 32 28 33 29 34 41 32 29 34 40 35 40 35 29 34 30 36 40 35 30 36 39 37 39 37 30 36 31 38 39 37 31 38 38 39 38 39 31 38 32 40 38 39 32 40 37 41 37 41 32 40 33 42 37 41 33 42 36 43 36 43 33 42 34 44 36 43 34 44 35 45 0 46 45 47 69 48 69 48 45 47 44 49 69 48 44 49 43 50 43 50 42 51 69 48 69 48 42 51 70 52 69 48 70 52 3 53 3 53 70 52 4 54 4 54 70 52 5 55 5 55 70 52 71 56 5 55 71 56 6 57 6 57 71 56 72 58 6 57 72 58 7 59 7 59 72 58 58 60 7 59 58 60 8 61 8 61 58 60 59 62 8 61 59 62 60 63 42 51 41 64 70 52 70 52 41 64 40 65 70 52 40 65 71 56 71 56 40 65 39 66 71 56 39 66 72 58 72 58 39 66 38 67 72 58 38 67 57 68 57 68 38 67 56 69 56 69 38 67 37 70 56 69 37 70 55 71 55 71 37 70 54 72 54 72 37 70 53 73 53 73 37 70 36 74 53 73 36 74 52 75 52 75 36 74 51 76 51 76 36 74 50 77 50 77 36 74 49 78 49 78 36 74 35 79 49 78 35 79 48 80 48 80 35 79 47 81 47 81 35 79 46 82 57 68 58 60 72 58 60 63 61 83 8 61 8 61 61 83 9 84 9 84 61 83 62 85 9 84 62 85 63 86 63 86 64 87 9 84 9 84 64 87 65 88 9 84 65 88 10 89 10 89 65 88 66 90 10 89 66 90 67 91 67 91 68 92 10 89 3 53 2 93 69 48 69 48 2 93 1 94 69 48 1 94 0 46 20 95 94 96 21 97 21 97 94 96 25 98 21 97 25 98 24 99 20 95 19 100 94 96 94 96 19 100 18 101 94 96 18 101 95 102 95 102 18 101 17 103 95 102 17 103 16 104 95 102 16 104 96 105 96 105 16 104 15 106 96 105 15 106 97 107 97 107 15 106 14 108 97 107 14 108 83 109 83 109 14 108 82 110 82 110 14 108 81 111 81 111 14 108 13 112 81 111 13 112 80 113 80 113 13 112 79 114 79 114 13 112 12 115 79 114 12 115 78 116 78 116 12 115 77 117 77 117 12 115 76 118 76 118 12 115 11 119 76 118 11 119 75 120 75 120 11 119 74 121 74 121 11 119 73 122 97 107 83 109 31 123 31 123 83 109 84 124 31 123 84 124 85 125 31 123 85 125 32 126 32 126 85 125 86 127 32 126 86 127 87 128 32 126 87 128 33 129 33 129 87 128 88 130 33 129 88 130 89 131 89 131 90 132 33 129 33 129 90 132 34 133 34 133 90 132 91 134 34 133 91 134 92 135 92 135 93 136 34 133 31 123 30 137 97 107 97 107 30 137 96 105 30 137 29 138 96 105 96 105 29 138 95 102 29 138 28 139 95 102 95 102 28 139 27 140 95 102 27 140 94 96 94 96 27 140 26 141 94 96 26 141 25 98 67 142 66 143 68 144 68 144 66 143 65 145 68 144 65 145 64 146 68 144 64 146 79 147 79 147 64 146 63 148 79 147 63 148 62 149 79 147 62 149 80 150 80 150 62 149 61 151 80 150 61 151 60 152 80 150 60 152 81 153 81 153 60 152 59 154 81 153 59 154 82 155 82 155 59 154 58 156 82 155 58 156 83 157 83 157 58 156 57 158 83 157 57 158 56 159 83 157 56 159 84 160 84 160 56 159 55 161 84 160 55 161 85 162 85 162 55 161 54 163 85 162 54 163 53 164 85 162 53 164 86 165 86 165 53 164 52 166 86 165 52 166 87 167 87 167 52 166 51 168 87 167 51 168 50 169 50 169 49 170 87 167 87 167 49 170 48 171 87 167 48 171 88 172 88 172 48 171 46 173 88 172 46 173 93 174 48 171 47 175 46 173 92 176 91 177 93 174 93 174 91 177 90 178 93 174 90 178 89 179 89 179 88 172 93 174 79 147 78 180 68 144 68 144 78 180 73 181 73 181 78 180 77 182 73 181 77 182 76 183 76 183 75 184 73 181 73 181 75 184 74 185 73 186 11 20 68 187 68 187 11 20 10 21 35 45 34 44 46 188 46 188 34 44 93 189 22 190 45 191 98 192 98 192 45 191 0 193 98 192 0 193 99 194 99 194 0 193 21 195 99 194 21 195 24 196 24 196 23 197 99 194 98 198 99 199 101 200 101 200 99 199 100 201 103 202 23 25 102 203 102 203 23 25 22 23 101 204 100 205 102 206 102 206 100 205 103 207 99 208 23 209 100 210 100 210 23 209 103 211 98 212 101 213 22 214 22 214 101 213 102 215</p>
        </triangles>
      </mesh>
    </geometry>
  </library_geometries>
  <library_visual_scenes>
    <visual_scene id="Scene" name="Scene">
      <node id="FootPadLeft-node" name="FootPadLeft" type="NODE">
        <instance_geometry url="#FootPadLeft-mesh">
          <bind_material>
            <technique_common>
              <instance_material symbol="Steel_-_Satin" target="#Steel_-_Satin"/>
            </technique_common>
          </bind_material>
        </instance_geometry>
      </node>
    </visual_scene>
  </library_visual_scenes>
  <scene>
    <instance_visual_scene url="#Scene"/>
  </scene>
</COLLADA>
