<?xml version="1.0" encoding="utf-8"?>
<COLLADA xmlns="http://www.collada.org/2005/11/COLLADASchema" version="1.4.1">
  <asset>
    <contributor>
      <authoring_tool>Fusion URDF/XACRO Exporter</authoring_tool>
    </contributor>
    <created>2026-06-08T18:29:35Z</created>
    <modified>2026-06-08T18:29:35Z</modified>
    <unit name="meter" meter="1.0"/>
    <up_axis>Z_UP</up_axis>
  </asset>
  <library_effects>
    <effect id="Powder_Coat__White_-effect">
      <profile_COMMON>
        <technique sid="common">
          <lambert>
            <emission><color>0 0 0 1</color></emission>
            <ambient><color>0.0000 0.0000 0.0000 1</color></ambient>
            <diffuse><color>0.9647 0.9647 0.9529 1</color></diffuse>
            <reflective><color>0 0 0 1</color></reflective>
            <transparent opaque="A_ONE"><color>1 1 1 1</color></transparent>
            <transparency><float>1</float></transparency>
          </lambert>
        </technique>
      </profile_COMMON>
    </effect>
  </library_effects>
  <library_materials>
    <material id="Powder_Coat__White_" name="Powder_Coat_(White)">
      <instance_effect url="#Powder_Coat__White_-effect"/>
    </material>
  </library_materials>
  <library_geometries>
    <geometry id="FootBaseRight-mesh" name="FootBaseRight">
      <mesh>
        <source id="FootBaseRight-mesh-positions">
          <float_array id="FootBaseRight-mesh-positions-array" count="1722">0.118071 0.137704 0.246786 0.118071 0.132730 0.246158 0.118071 0.128069 0.244312 0.118071 0.124013 0.241365 0.118071 0.120817 0.237503 0.118071 0.118683 0.232966 0.118071 0.117743 0.228042 0.118071 0.118058 0.223038 0.118071 0.119607 0.218270 0.118071 0.122293 0.214038 0.118071 0.125948 0.210606 0.118071 0.130341 0.208191 0.118071 0.135197 0.206944 0.118071 0.140210 0.206944 0.118071 0.145066 0.208191 0.118071 0.149459 0.210606 0.118071 0.153114 0.214038 0.118071 0.155800 0.218270 0.118071 0.157349 0.223038 0.118071 0.157664 0.228042 0.118071 0.156725 0.232966 0.118071 0.154590 0.237503 0.118071 0.151395 0.241365 0.118071 0.147339 0.244312 0.118071 0.142677 0.246158 0.121071 0.137704 0.246786 0.121071 0.142677 0.246158 0.121071 0.147339 0.244312 0.121071 0.151395 0.241365 0.121071 0.154590 0.237503 0.121071 0.156725 0.232966 0.121071 0.157664 0.228042 0.121071 0.157349 0.223038 0.121071 0.155800 0.218270 0.121071 0.153114 0.214038 0.121071 0.149459 0.210606 0.121071 0.145066 0.208191 0.121071 0.140210 0.206944 0.121071 0.135197 0.206944 0.121071 0.130341 0.208191 0.121071 0.125948 0.210606 0.121071 0.122293 0.214038 0.121071 0.119607 0.218270 0.121071 0.118058 0.223038 0.121071 0.117743 0.228042 0.121071 0.118683 0.232966 0.121071 0.120817 0.237503 0.121071 0.124013 0.241365 0.121071 0.128069 0.244312 0.121071 0.132730 0.246158 0.118071 0.149295 0.225430 0.118071 0.148842 0.225371 0.118071 0.148420 0.225196 0.118071 0.148057 0.224918 0.118071 0.147779 0.224555 0.118071 0.147604 0.224133 0.118071 0.147545 0.223680 0.118071 0.147604 0.223227 0.118071 0.147779 0.222805 0.118071 0.148057 0.222443 0.118071 0.148420 0.222165 0.118071 0.148842 0.221990 0.118071 0.149295 0.221930 0.118071 0.149748 0.221990 0.118071 0.150170 0.222165 0.118071 0.150532 0.222443 0.118071 0.150810 0.222805 0.118071 0.150985 0.223227 0.118071 0.151045 0.223680 0.118071 0.150985 0.224133 0.118071 0.150810 0.224555 0.118071 0.150532 0.224918 0.118071 0.150170 0.225196 0.118071 0.149748 0.225371 0.118071 0.129218 0.220051 0.118071 0.128765 0.219991 0.118071 0.128343 0.219816 0.118071 0.127981 0.219538 0.118071 0.127703 0.219176 0.118071 0.127528 0.218754 0.118071 0.127468 0.218301 0.118071 0.127528 0.217848 0.118071 0.127703 0.217426 0.118071 0.127981 0.217063 0.118071 0.128343 0.216785 0.118071 0.128765 0.216610 0.118071 0.129218 0.216551 0.118071 0.129671 0.216610 0.118071 0.130093 0.216785 0.118071 0.130456 0.217063 0.118071 0.130734 0.217426 0.118071 0.130909 0.217848 0.118071 0.130968 0.218301 0.118071 0.130909 0.218754 0.118071 0.130734 0.219176 0.118071 0.130456 0.219538 0.118071 0.130093 0.219816 0.118071 0.129671 0.219991 0.118071 0.146189 0.237021 0.118071 0.145736 0.236962 0.118071 0.145314 0.236787 0.118071 0.144952 0.236509 0.118071 0.144673 0.236146 0.118071 0.144499 0.235724 0.118071 0.144439 0.235271 0.118071 0.144499 0.234818 0.118071 0.144673 0.234396 0.118071 0.144952 0.234034 0.118071 0.145314 0.233756 0.118071 0.145736 0.233581 0.118071 0.146189 0.233521 0.118071 0.146642 0.233581 0.118071 0.147064 0.233756 0.118071 0.147426 0.234034 0.118071 0.147705 0.234396 0.118071 0.147879 0.234818 0.118071 0.147939 0.235271 0.118071 0.147879 0.235724 0.118071 0.147705 0.236146 0.118071 0.147426 0.236509 0.118071 0.147064 0.236787 0.118071 0.146642 0.236962 0.118071 0.126113 0.231642 0.118071 0.125660 0.231582 0.118071 0.125238 0.231407 0.118071 0.124875 0.231129 0.118071 0.124597 0.230767 0.118071 0.124422 0.230345 0.118071 0.124363 0.229892 0.118071 0.124422 0.229439 0.118071 0.124597 0.229017 0.118071 0.124875 0.228654 0.118071 0.125238 0.228376 0.118071 0.125660 0.228201 0.118071 0.126113 0.228142 0.118071 0.126566 0.228201 0.118071 0.126988 0.228376 0.118071 0.127350 0.228654 0.118071 0.127628 0.229017 0.118071 0.127803 0.229439 0.118071 0.127863 0.229892 0.118071 0.127803 0.230345 0.118071 0.127628 0.230767 0.118071 0.127350 0.231129 0.118071 0.126988 0.231407 0.118071 0.126566 0.231582 0.118071 0.134598 0.240127 0.118071 0.134145 0.240068 0.118071 0.133723 0.239893 0.118071 0.133360 0.239615 0.118071 0.133082 0.239252 0.118071 0.132907 0.238830 0.118071 0.132848 0.238377 0.118071 0.132907 0.237924 0.118071 0.133082 0.237502 0.118071 0.133360 0.237140 0.118071 0.133723 0.236862 0.118071 0.134145 0.236687 0.118071 0.134598 0.236627 0.118071 0.135051 0.236687 0.118071 0.135473 0.236862 0.118071 0.135835 0.237140 0.118071 0.136113 0.237502 0.118071 0.136288 0.237924 0.118071 0.136348 0.238377 0.118071 0.136288 0.238830 0.118071 0.136113 0.239252 0.118071 0.135835 0.239615 0.118071 0.135473 0.239893 0.118071 0.135051 0.240068 0.118071 0.140810 0.216945 0.118071 0.140357 0.216885 0.118071 0.139935 0.216710 0.118071 0.139572 0.216432 0.118071 0.139294 0.216070 0.118071 0.139119 0.215648 0.118071 0.139060 0.215195 0.118071 0.139119 0.214742 0.118071 0.139294 0.214320 0.118071 0.139572 0.213957 0.118071 0.139935 0.213679 0.118071 0.140357 0.213505 0.118071 0.140810 0.213445 0.118071 0.141262 0.213505 0.118071 0.141685 0.213679 0.118071 0.142047 0.213957 0.118071 0.142325 0.214320 0.118071 0.142500 0.214742 0.118071 0.142560 0.215195 0.118071 0.142500 0.215648 0.118071 0.142325 0.216070 0.118071 0.142047 0.216432 0.118071 0.141685 0.216710 0.118071 0.141262 0.216885 0.128071 0.127468 0.218301 0.128071 0.127528 0.217848 0.128071 0.127703 0.217426 0.128071 0.127981 0.217063 0.128071 0.128343 0.216785 0.128071 0.128765 0.216610 0.128071 0.129218 0.216551 0.128071 0.129671 0.216610 0.128071 0.130093 0.216785 0.128071 0.130456 0.217063 0.128071 0.130734 0.217426 0.128071 0.130909 0.217848 0.128071 0.130968 0.218301 0.128071 0.130909 0.218754 0.128071 0.130734 0.219176 0.128071 0.130456 0.219538 0.128071 0.130093 0.219816 0.128071 0.129671 0.219991 0.128071 0.129218 0.220051 0.128071 0.128765 0.219991 0.128071 0.128343 0.219816 0.128071 0.127981 0.219538 0.128071 0.127703 0.219176 0.128071 0.127528 0.218754 0.128071 0.144439 0.235271 0.128071 0.144499 0.234818 0.128071 0.144673 0.234396 0.128071 0.144952 0.234034 0.128071 0.145314 0.233756 0.128071 0.145736 0.233581 0.128071 0.146189 0.233521 0.128071 0.146642 0.233581 0.128071 0.147064 0.233756 0.128071 0.147426 0.234034 0.128071 0.147705 0.234396 0.128071 0.147879 0.234818 0.128071 0.147939 0.235271 0.128071 0.147879 0.235724 0.128071 0.147705 0.236146 0.128071 0.147426 0.236509 0.128071 0.147064 0.236787 0.128071 0.146642 0.236962 0.128071 0.146189 0.237021 0.128071 0.145736 0.236962 0.128071 0.145314 0.236787 0.128071 0.144952 0.236509 0.128071 0.144673 0.236146 0.128071 0.144499 0.235724 0.128071 0.132848 0.238377 0.128071 0.132907 0.237924 0.128071 0.133082 0.237502 0.128071 0.133360 0.237140 0.128071 0.133723 0.236862 0.128071 0.134145 0.236687 0.128071 0.134598 0.236627 0.128071 0.135051 0.236687 0.128071 0.135473 0.236862 0.128071 0.135835 0.237140 0.128071 0.136113 0.237502 0.128071 0.136288 0.237924 0.128071 0.136348 0.238377 0.128071 0.136288 0.238830 0.128071 0.136113 0.239252 0.128071 0.135835 0.239615 0.128071 0.135473 0.239893 0.128071 0.135051 0.240068 0.128071 0.134598 0.240127 0.128071 0.134145 0.240068 0.128071 0.133723 0.239893 0.128071 0.133360 0.239615 0.128071 0.133082 0.239252 0.128071 0.132907 0.238830 0.128071 0.139060 0.215195 0.128071 0.139119 0.214742 0.128071 0.139294 0.214320 0.128071 0.139572 0.213957 0.128071 0.139935 0.213679 0.128071 0.140357 0.213505 0.128071 0.140810 0.213445 0.128071 0.141262 0.213505 0.128071 0.141685 0.213679 0.128071 0.142047 0.213957 0.128071 0.142325 0.214320 0.128071 0.142500 0.214742 0.128071 0.142560 0.215195 0.128071 0.142500 0.215648 0.128071 0.142325 0.216070 0.128071 0.142047 0.216432 0.128071 0.141685 0.216710 0.128071 0.141262 0.216885 0.128071 0.140810 0.216945 0.128071 0.140357 0.216885 0.128071 0.139935 0.216710 0.128071 0.139572 0.216432 0.128071 0.139294 0.216070 0.128071 0.139119 0.215648 0.128071 0.124363 0.229892 0.128071 0.124422 0.229439 0.128071 0.124597 0.229017 0.128071 0.124875 0.228654 0.128071 0.125238 0.228376 0.128071 0.125660 0.228201 0.128071 0.126113 0.228142 0.128071 0.126566 0.228201 0.128071 0.126988 0.228376 0.128071 0.127350 0.228654 0.128071 0.127628 0.229017 0.128071 0.127803 0.229439 0.128071 0.127863 0.229892 0.128071 0.127803 0.230345 0.128071 0.127628 0.230767 0.128071 0.127350 0.231129 0.128071 0.126988 0.231407 0.128071 0.126566 0.231582 0.128071 0.126113 0.231642 0.128071 0.125660 0.231582 0.128071 0.125238 0.231407 0.128071 0.124875 0.231129 0.128071 0.124597 0.230767 0.128071 0.124422 0.230345 0.128071 0.147545 0.223680 0.128071 0.147604 0.223227 0.128071 0.147779 0.222805 0.128071 0.148057 0.222443 0.128071 0.148420 0.222165 0.128071 0.148842 0.221990 0.128071 0.149295 0.221930 0.128071 0.149748 0.221990 0.128071 0.150170 0.222165 0.128071 0.150532 0.222443 0.128071 0.150810 0.222805 0.128071 0.150985 0.223227 0.128071 0.151045 0.223680 0.128071 0.150985 0.224133 0.128071 0.150810 0.224555 0.128071 0.150532 0.224918 0.128071 0.150170 0.225196 0.128071 0.149748 0.225371 0.128071 0.149295 0.225430 0.128071 0.148842 0.225371 0.128071 0.148420 0.225196 0.128071 0.148057 0.224918 0.128071 0.147779 0.224555 0.128071 0.147604 0.224133 0.077554 0.145217 0.279410 0.079648 0.142261 0.279586 0.081108 0.124847 0.276087 0.079262 0.124847 0.275317 0.120570 0.196023 0.274191 0.117715 0.172872 0.277047 0.115686 0.149822 0.279075 0.114474 0.126790 0.280287 0.114071 0.103694 0.280690 0.079210 0.103693 0.280690 0.079309 0.123005 0.280400 0.077240 0.130253 0.280164 0.077076 0.115261 0.280557 0.077045 0.114041 0.280631 0.077021 0.115262 0.280557 0.077021 0.135526 0.279940 0.077021 0.155741 0.278663 0.077021 0.175907 0.276725 0.077021 0.196023 0.274126 0.098429 0.196023 0.274160 0.098335 0.085571 0.229600 0.095415 0.086032 0.236601 0.092555 0.087638 0.243456 0.089822 0.090354 0.250006 0.087280 0.094117 0.256100 0.084987 0.098838 0.261596 0.082996 0.104409 0.266366 0.081355 0.110700 0.270300 0.080101 0.117566 0.273307 0.081957 0.117495 0.274052 0.083230 0.110569 0.271001 0.084897 0.104232 0.267005 0.086918 0.098633 0.262160 0.089246 0.093906 0.256580 0.091826 0.090162 0.250397 0.094596 0.087490 0.243757 0.097492 0.085953 0.236817 0.100443 0.085587 0.229742 0.123571 0.033668 0.275690 0.123571 0.033715 0.276052 0.123571 0.033855 0.276390 0.123571 0.034078 0.276680 0.123571 0.034368 0.276902 0.123571 0.034705 0.277042 0.123571 0.035068 0.277090 0.123571 0.035430 0.277042 0.123571 0.035768 0.276902 0.123571 0.036058 0.276680 0.123571 0.036280 0.276390 0.123571 0.036420 0.276052 0.123571 0.036468 0.275690 0.123571 0.036420 0.275327 0.123571 0.036280 0.274990 0.123571 0.036058 0.274700 0.123571 0.035768 0.274477 0.123571 0.035430 0.274337 0.123571 0.035068 0.274290 0.123571 0.034705 0.274337 0.123571 0.034368 0.274477 0.123571 0.034078 0.274700 0.123571 0.033855 0.274990 0.123571 0.033715 0.275327 0.128071 0.033668 0.275690 0.128071 0.033715 0.275327 0.128071 0.033855 0.274990 0.128071 0.034078 0.274700 0.128071 0.034368 0.274477 0.128071 0.034705 0.274337 0.128071 0.035068 0.274290 0.128071 0.035430 0.274337 0.128071 0.035768 0.274477 0.128071 0.036058 0.274700 0.128071 0.036280 0.274990 0.128071 0.036420 0.275327 0.128071 0.036468 0.275690 0.128071 0.036420 0.276052 0.128071 0.036280 0.276390 0.128071 0.036058 0.276680 0.128071 0.035768 0.276902 0.128071 0.035430 0.277042 0.128071 0.035068 0.277090 0.128071 0.034705 0.277042 0.128071 0.034368 0.276902 0.128071 0.034078 0.276680 0.128071 0.033855 0.276390 0.128071 0.033715 0.276052 0.123571 0.137086 0.223267 0.123571 0.137134 0.223629 0.123571 0.137273 0.223967 0.123571 0.137496 0.224257 0.123571 0.137786 0.224479 0.123571 0.138124 0.224619 0.123571 0.138486 0.224667 0.123571 0.138848 0.224619 0.123571 0.139186 0.224479 0.123571 0.139476 0.224257 0.123571 0.139698 0.223967 0.123571 0.139838 0.223629 0.123571 0.139886 0.223267 0.123571 0.139838 0.222904 0.123571 0.139698 0.222567 0.123571 0.139476 0.222277 0.123571 0.139186 0.222054 0.123571 0.138848 0.221914 0.123571 0.138486 0.221867 0.123571 0.138124 0.221914 0.123571 0.137786 0.222054 0.123571 0.137496 0.222277 0.123571 0.137273 0.222567 0.123571 0.137134 0.222904 0.128071 0.139886 0.223267 0.128071 0.139838 0.223629 0.128071 0.139698 0.223967 0.128071 0.139476 0.224257 0.128071 0.139186 0.224479 0.128071 0.138848 0.224619 0.128071 0.138486 0.224667 0.128071 0.138124 0.224619 0.128071 0.137786 0.224479 0.128071 0.137496 0.224257 0.128071 0.137273 0.223967 0.128071 0.137134 0.223629 0.128071 0.137086 0.223267 0.128071 0.137134 0.222904 0.128071 0.137273 0.222567 0.128071 0.137496 0.222277 0.128071 0.137786 0.222054 0.128071 0.138124 0.221914 0.128071 0.138486 0.221867 0.128071 0.138848 0.221914 0.128071 0.139186 0.222054 0.128071 0.139476 0.222277 0.128071 0.139698 0.222567 0.128071 0.139838 0.222904 0.128071 0.121946 0.203039 0.121071 0.121946 0.203039 0.121071 0.127008 0.200369 0.121071 0.132501 0.198765 0.121071 0.138204 0.198290 0.121071 0.143887 0.198965 0.121071 0.149321 0.200761 0.121071 0.154286 0.203607 0.121071 0.158583 0.207387 0.121071 0.162037 0.211949 0.128071 0.162037 0.211949 0.128071 0.158583 0.207387 0.128071 0.154286 0.203607 0.128071 0.149321 0.200761 0.128071 0.143887 0.198965 0.128071 0.138204 0.198290 0.128071 0.132501 0.198765 0.128071 0.127008 0.200369 0.100466 0.085581 0.229687 0.100489 0.085575 0.229632 0.100512 0.085569 0.229577 0.121071 0.085569 0.229577 0.121071 0.085495 0.228820 0.121071 0.085431 0.228062 0.121071 0.085380 0.227303 0.099294 0.085380 0.227303 0.098974 0.085432 0.228069 0.098654 0.085496 0.228835 0.128071 0.177855 0.269330 0.128071 0.177909 0.268916 0.128071 0.178069 0.268530 0.128071 0.178324 0.268199 0.128071 0.178655 0.267944 0.128071 0.179041 0.267785 0.128071 0.179455 0.267730 0.128071 0.179869 0.267785 0.128071 0.180255 0.267944 0.128071 0.180586 0.268199 0.128071 0.180841 0.268530 0.128071 0.181000 0.268916 0.128071 0.181055 0.269330 0.128071 0.181000 0.269744 0.128071 0.180841 0.270130 0.128071 0.180586 0.270461 0.128071 0.180255 0.270716 0.128071 0.179869 0.270875 0.128071 0.179455 0.270930 0.128071 0.179041 0.270875 0.128071 0.178655 0.270716 0.128071 0.178324 0.270461 0.128071 0.178069 0.270130 0.128071 0.177909 0.269744 0.122071 0.177855 0.269330 0.122071 0.177909 0.269744 0.122071 0.178069 0.270130 0.122071 0.178324 0.270461 0.122071 0.178655 0.270716 0.122071 0.179041 0.270875 0.122071 0.179455 0.270930 0.122071 0.179869 0.270875 0.122071 0.180255 0.270716 0.122071 0.180586 0.270461 0.122071 0.180841 0.270130 0.122071 0.181000 0.269744 0.122071 0.181055 0.269330 0.122071 0.181000 0.268916 0.122071 0.180841 0.268530 0.122071 0.180586 0.268199 0.122071 0.180255 0.267944 0.122071 0.179869 0.267785 0.122071 0.179455 0.267730 0.122071 0.179041 0.267785 0.122071 0.178655 0.267944 0.122071 0.178324 0.268199 0.122071 0.178069 0.268530 0.122071 0.177909 0.268916 0.128071 0.026023 0.266690 0.128071 0.196023 0.267690 0.128071 0.196023 0.280690 0.128071 0.026023 0.280690 0.082861 0.026023 0.266690 0.121071 0.026023 0.292690 0.077021 0.026023 0.292690 0.077021 0.026023 0.280690 0.121071 0.196023 0.292690 0.095318 0.196023 0.292690 0.092425 0.196023 0.285940 0.105667 0.196023 0.285940 0.102774 0.196023 0.292690 0.121071 0.196023 0.267690 0.121071 0.196023 0.273690 0.077021 0.196023 0.292690 0.121071 0.028023 0.267763 0.121071 0.028023 0.273690 0.077021 0.103695 0.280690 0.102774 0.041023 0.292690 0.095318 0.041023 0.292690 0.092425 0.041023 0.285940 0.114071 0.028023 0.280690 0.105667 0.041023 0.285940 0.084581 0.028023 0.267763 0.079188 0.028023 0.280690</float_array>
          <technique_common>
            <accessor source="#FootBaseRight-mesh-positions-array" count="574" stride="3">
              <param name="X" type="float"/>
              <param name="Y" type="float"/>
              <param name="Z" type="float"/>
            </accessor>
          </technique_common>
        </source>
        <source id="FootBaseRight-mesh-normals">
          <float_array id="FootBaseRight-mesh-normals-array" count="3558">0.000000 -0.248690 0.968583 0.000000 -0.248690 0.968583 0.000000 -0.000000 1.000000 0.000000 -0.000000 1.000000 0.000000 0.248690 0.968583 0.000000 0.248690 0.968583 0.000000 0.481754 0.876307 0.000000 0.481754 0.876307 0.000000 0.684547 0.728969 0.000000 0.684547 0.728969 0.000000 0.844328 0.535827 0.000000 0.844328 0.535827 0.000000 0.951057 0.309017 0.000000 0.951057 0.309017 0.000000 0.998027 0.062791 0.000000 0.998027 0.062791 0.000000 0.982287 -0.187381 0.000000 0.982287 -0.187381 0.000000 0.904827 -0.425779 0.000000 0.904827 -0.425779 0.000000 0.770513 -0.637424 0.000000 0.770513 -0.637424 0.000000 0.587785 -0.809017 0.000000 0.587785 -0.809017 0.000000 0.368125 -0.929776 0.000000 0.368125 -0.929776 0.000000 0.125333 -0.992115 0.000000 0.125333 -0.992115 -0.000000 -0.125333 -0.992115 -0.000000 -0.125333 -0.992115 -0.000000 -0.368125 -0.929776 -0.000000 -0.368125 -0.929776 -0.000000 -0.587785 -0.809017 -0.000000 -0.587785 -0.809017 -0.000000 -0.770513 -0.637424 -0.000000 -0.770513 -0.637424 -0.000000 -0.904827 -0.425779 -0.000000 -0.904827 -0.425779 -0.000000 -0.982287 -0.187381 -0.000000 -0.982287 -0.187381 0.000000 -0.998027 0.062791 0.000000 -0.998027 0.062791 0.000000 -0.951057 0.309017 0.000000 -0.951057 0.309017 0.000000 -0.844328 0.535827 0.000000 -0.844328 0.535827 0.000000 -0.684547 0.728969 0.000000 -0.684547 0.728969 0.000000 -0.481754 0.876307 0.000000 -0.481754 0.876307 -1.000000 0.000000 0.000000 -1.000000 0.000000 0.000000 -1.000000 0.000000 0.000000 -1.000000 0.000000 0.000000 -1.000000 0.000000 0.000000 -1.000000 0.000000 0.000000 -1.000000 0.000000 0.000000 -1.000000 0.000000 0.000000 -1.000000 0.000000 0.000000 -1.000000 0.000000 0.000000 -1.000000 0.000000 0.000000 -1.000000 0.000000 0.000000 -1.000000 0.000000 0.000000 -1.000000 0.000000 0.000000 -1.000000 0.000000 0.000000 -1.000000 0.000000 0.000000 -1.000000 0.000000 0.000000 -1.000000 0.000000 0.000000 -1.000000 0.000000 0.000000 -1.000000 0.000000 0.000000 -1.000000 0.000000 0.000000 -1.000000 0.000000 0.000000 -1.000000 0.000000 0.000000 -1.000000 0.000000 0.000000 -1.000000 0.000000 0.000000 -1.000000 0.000000 0.000000 -1.000000 0.000000 0.000000 -1.000000 0.000000 0.000000 -1.000000 0.000000 0.000000 -1.000000 0.000000 0.000000 -1.000000 0.000000 0.000000 -1.000000 0.000000 0.000000 -1.000000 0.000000 0.000000 -1.000000 0.000000 0.000000 -1.000000 0.000000 0.000000 -1.000000 0.000000 0.000000 -1.000000 0.000000 0.000000 -1.000000 0.000000 0.000000 -1.000000 0.000000 0.000000 -1.000000 0.000000 0.000000 -1.000000 0.000000 0.000000 -1.000000 0.000000 0.000000 -1.000000 0.000000 0.000000 -1.000000 0.000000 0.000000 -1.000000 0.000000 0.000000 -1.000000 0.000000 0.000000 -1.000000 0.000000 0.000000 -1.000000 0.000000 0.000000 -1.000000 0.000000 0.000000 -1.000000 0.000000 0.000000 -1.000000 0.000000 0.000000 -1.000000 0.000000 0.000000 -1.000000 0.000000 0.000000 -1.000000 0.000000 0.000000 -1.000000 0.000000 0.000000 -1.000000 0.000000 0.000000 -1.000000 0.000000 0.000000 -1.000000 0.000000 0.000000 -1.000000 0.000000 0.000000 -1.000000 0.000000 0.000000 -1.000000 0.000000 0.000000 -1.000000 0.000000 0.000000 -1.000000 0.000000 0.000000 -1.000000 0.000000 0.000000 -1.000000 0.000000 0.000000 -1.000000 0.000000 0.000000 -1.000000 0.000000 0.000000 -1.000000 0.000000 0.000000 -1.000000 0.000000 0.000000 -1.000000 0.000000 0.000000 -1.000000 0.000000 0.000000 -1.000000 0.000000 0.000000 -1.000000 0.000000 0.000000 -1.000000 0.000000 0.000000 -1.000000 0.000000 0.000000 -1.000000 0.000000 0.000000 -1.000000 0.000000 0.000000 -1.000000 0.000000 0.000000 -1.000000 0.000000 0.000000 -1.000000 0.000000 0.000000 -1.000000 0.000000 0.000000 -1.000000 0.000000 0.000000 -1.000000 0.000000 0.000000 -1.000000 0.000000 0.000000 -1.000000 0.000000 0.000000 -1.000000 0.000000 0.000000 -1.000000 0.000000 0.000000 -1.000000 0.000000 0.000000 -1.000000 0.000000 0.000000 -1.000000 0.000000 0.000000 -1.000000 0.000000 0.000000 -1.000000 0.000000 0.000000 -1.000000 0.000000 0.000000 -1.000000 0.000000 0.000000 -1.000000 0.000000 0.000000 -1.000000 0.000000 0.000000 -1.000000 0.000000 0.000000 -1.000000 0.000000 0.000000 -1.000000 0.000000 0.000000 -1.000000 0.000000 0.000000 -1.000000 0.000000 0.000000 -1.000000 0.000000 0.000000 -1.000000 0.000000 0.000000 -1.000000 0.000000 0.000000 -1.000000 0.000000 0.000000 -1.000000 0.000000 0.000000 -1.000000 0.000000 0.000000 -1.000000 0.000000 0.000000 -1.000000 0.000000 0.000000 -1.000000 0.000000 0.000000 -1.000000 0.000000 0.000000 -1.000000 0.000000 0.000000 -1.000000 0.000000 0.000000 -1.000000 0.000000 0.000000 -1.000000 0.000000 0.000000 -1.000000 0.000000 0.000000 -1.000000 0.000000 0.000000 -1.000000 0.000000 0.000000 -1.000000 0.000000 0.000000 -1.000000 0.000000 0.000000 -1.000000 0.000000 0.000000 -1.000000 0.000000 0.000000 -1.000000 0.000000 0.000000 -1.000000 0.000000 0.000000 -1.000000 0.000000 0.000000 -1.000000 0.000000 0.000000 -1.000000 0.000000 0.000000 -1.000000 0.000000 0.000000 -1.000000 0.000000 0.000000 -1.000000 0.000000 0.000000 -1.000000 0.000000 0.000000 -1.000000 0.000000 0.000000 -1.000000 0.000000 0.000000 -1.000000 0.000000 0.000000 -1.000000 0.000000 0.000000 -1.000000 0.000000 0.000000 -1.000000 0.000000 0.000000 -1.000000 0.000000 0.000000 -1.000000 0.000000 0.000000 -1.000000 0.000000 0.000000 -1.000000 0.000000 0.000000 -1.000000 0.000000 0.000000 -1.000000 0.000000 0.000000 -1.000000 0.000000 0.000000 -1.000000 0.000000 0.000000 -1.000000 0.000000 0.000000 -1.000000 0.000000 0.000000 -1.000000 0.000000 0.000000 -1.000000 0.000000 0.000000 -1.000000 0.000000 0.000000 -1.000000 0.000000 0.000000 -1.000000 0.000000 0.000000 -1.000000 0.000000 0.000000 -1.000000 0.000000 0.000000 -1.000000 0.000000 0.000000 -1.000000 0.000000 0.000000 -1.000000 0.000000 0.000000 -1.000000 0.000000 0.000000 -1.000000 0.000000 0.000000 -1.000000 0.000000 0.000000 -1.000000 0.000000 0.000000 -1.000000 0.000000 0.000000 -1.000000 0.000000 0.000000 -1.000000 0.000000 0.000000 -1.000000 0.000000 0.000000 -1.000000 0.000000 0.000000 -1.000000 0.000000 0.000000 -1.000000 0.000000 0.000000 -1.000000 0.000000 0.000000 0.000000 -0.258819 -0.965926 0.000000 -0.258819 -0.965926 0.000000 -0.000000 -1.000000 0.000000 -0.000000 -1.000000 -0.000000 0.258819 -0.965926 -0.000000 0.258819 -0.965926 -0.000000 0.500000 -0.866025 -0.000000 0.500000 -0.866025 -0.000000 0.707107 -0.707107 -0.000000 0.707107 -0.707107 -0.000000 0.866025 -0.500000 -0.000000 0.866025 -0.500000 -0.000000 0.965926 -0.258819 -0.000000 0.965926 -0.258819 -0.000000 1.000000 -0.000000 -0.000000 1.000000 -0.000000 -0.000000 0.965926 0.258819 -0.000000 0.965926 0.258819 -0.000000 0.866025 0.500000 -0.000000 0.866025 0.500000 -0.000000 0.707107 0.707107 -0.000000 0.707107 0.707107 -0.000000 0.500000 0.866025 -0.000000 0.500000 0.866025 -0.000000 0.258819 0.965926 -0.000000 0.258819 0.965926 0.000000 -0.000000 1.000000 -0.000000 0.000000 1.000000 0.000000 -0.258819 0.965926 0.000000 -0.258819 0.965926 0.000000 -0.500000 0.866025 0.000000 -0.500000 0.866025 0.000000 -0.707107 0.707107 0.000000 -0.707107 0.707107 0.000000 -0.866025 0.500000 0.000000 -0.866025 0.500000 0.000000 -0.965926 0.258819 0.000000 -0.965926 0.258819 0.000000 -1.000000 -0.000000 0.000000 -1.000000 0.000000 0.000000 -0.965926 -0.258819 0.000000 -0.965926 -0.258819 0.000000 -0.866025 -0.500000 0.000000 -0.866025 -0.500000 0.000000 -0.707107 -0.707107 0.000000 -0.707107 -0.707107 0.000000 -0.500000 -0.866025 0.000000 -0.500000 -0.866025 0.000000 -0.258819 -0.965926 0.000000 -0.258819 -0.965926 0.000000 -0.000000 -1.000000 0.000000 -0.000000 -1.000000 -0.000000 0.258819 -0.965926 -0.000000 0.258819 -0.965926 -0.000000 0.500000 -0.866025 -0.000000 0.500000 -0.866025 -0.000000 0.707107 -0.707107 -0.000000 0.707107 -0.707107 -0.000000 0.866025 -0.500000 -0.000000 0.866025 -0.500000 -0.000000 0.965926 -0.258819 -0.000000 0.965926 -0.258819 -0.000000 1.000000 -0.000000 -0.000000 1.000000 -0.000000 -0.000000 0.965926 0.258819 -0.000000 0.965926 0.258819 -0.000000 0.866025 0.500000 -0.000000 0.866025 0.500000 -0.000000 0.707107 0.707107 -0.000000 0.707107 0.707107 -0.000000 0.500000 0.866025 -0.000000 0.500000 0.866025 -0.000000 0.258819 0.965926 -0.000000 0.258819 0.965926 0.000000 -0.000000 1.000000 -0.000000 0.000000 1.000000 0.000000 -0.258819 0.965926 0.000000 -0.258819 0.965926 0.000000 -0.500000 0.866025 0.000000 -0.500000 0.866025 0.000000 -0.707107 0.707107 0.000000 -0.707107 0.707107 0.000000 -0.866025 0.500000 0.000000 -0.866025 0.500000 0.000000 -0.965926 0.258819 0.000000 -0.965926 0.258819 0.000000 -1.000000 -0.000000 0.000000 -1.000000 0.000000 0.000000 -0.965926 -0.258819 0.000000 -0.965926 -0.258819 0.000000 -0.866025 -0.500000 0.000000 -0.866025 -0.500000 0.000000 -0.707107 -0.707107 0.000000 -0.707107 -0.707107 0.000000 -0.500000 -0.866025 0.000000 -0.500000 -0.866025 0.000000 -0.258819 -0.965926 0.000000 -0.258819 -0.965926 0.000000 -0.000000 -1.000000 0.000000 -0.000000 -1.000000 -0.000000 0.258819 -0.965926 -0.000000 0.258819 -0.965926 -0.000000 0.500000 -0.866025 -0.000000 0.500000 -0.866025 -0.000000 0.707107 -0.707107 -0.000000 0.707107 -0.707107 -0.000000 0.866025 -0.500000 -0.000000 0.866025 -0.500000 -0.000000 0.965926 -0.258819 -0.000000 0.965926 -0.258819 -0.000000 1.000000 -0.000000 -0.000000 1.000000 -0.000000 -0.000000 0.965926 0.258819 -0.000000 0.965926 0.258819 -0.000000 0.866025 0.500000 -0.000000 0.866025 0.500000 -0.000000 0.707107 0.707107 -0.000000 0.707107 0.707107 -0.000000 0.500000 0.866025 -0.000000 0.500000 0.866025 -0.000000 0.258819 0.965926 -0.000000 0.258819 0.965926 0.000000 -0.000000 1.000000 -0.000000 0.000000 1.000000 0.000000 -0.258819 0.965926 0.000000 -0.258819 0.965926 0.000000 -0.500000 0.866025 0.000000 -0.500000 0.866025 0.000000 -0.707107 0.707107 0.000000 -0.707107 0.707107 0.000000 -0.866025 0.500000 0.000000 -0.866025 0.500000 0.000000 -0.965926 0.258819 0.000000 -0.965926 0.258819 0.000000 -1.000000 -0.000000 0.000000 -1.000000 0.000000 0.000000 -0.965926 -0.258819 0.000000 -0.965926 -0.258819 0.000000 -0.866025 -0.500000 0.000000 -0.866025 -0.500000 0.000000 -0.707107 -0.707107 0.000000 -0.707107 -0.707107 0.000000 -0.500000 -0.866025 0.000000 -0.500000 -0.866025 0.000000 -0.258819 -0.965926 0.000000 -0.258819 -0.965926 0.000000 -0.000000 -1.000000 0.000000 -0.000000 -1.000000 -0.000000 0.258819 -0.965926 -0.000000 0.258819 -0.965926 -0.000000 0.500000 -0.866025 -0.000000 0.500000 -0.866025 -0.000000 0.707107 -0.707107 -0.000000 0.707107 -0.707107 -0.000000 0.866025 -0.500000 -0.000000 0.866025 -0.500000 -0.000000 0.965926 -0.258819 -0.000000 0.965926 -0.258819 -0.000000 1.000000 -0.000000 -0.000000 1.000000 -0.000000 -0.000000 0.965926 0.258819 -0.000000 0.965926 0.258819 -0.000000 0.866025 0.500000 -0.000000 0.866025 0.500000 -0.000000 0.707107 0.707107 -0.000000 0.707107 0.707107 -0.000000 0.500000 0.866025 -0.000000 0.500000 0.866025 -0.000000 0.258819 0.965926 -0.000000 0.258819 0.965926 0.000000 -0.000000 1.000000 -0.000000 0.000000 1.000000 0.000000 -0.258819 0.965926 0.000000 -0.258819 0.965926 0.000000 -0.500000 0.866025 0.000000 -0.500000 0.866025 0.000000 -0.707107 0.707107 0.000000 -0.707107 0.707107 0.000000 -0.866025 0.500000 0.000000 -0.866025 0.500000 0.000000 -0.965926 0.258819 0.000000 -0.965926 0.258819 0.000000 -1.000000 -0.000000 0.000000 -1.000000 0.000000 0.000000 -0.965926 -0.258819 0.000000 -0.965926 -0.258819 0.000000 -0.866025 -0.500000 0.000000 -0.866025 -0.500000 0.000000 -0.707107 -0.707107 0.000000 -0.707107 -0.707107 0.000000 -0.500000 -0.866025 0.000000 -0.500000 -0.866025 0.000000 -0.258819 -0.965926 0.000000 -0.258819 -0.965926 0.000000 -0.000000 -1.000000 0.000000 -0.000000 -1.000000 -0.000000 0.258819 -0.965926 -0.000000 0.258819 -0.965926 -0.000000 0.500000 -0.866025 -0.000000 0.500000 -0.866025 -0.000000 0.707107 -0.707107 -0.000000 0.707107 -0.707107 -0.000000 0.866025 -0.500000 -0.000000 0.866025 -0.500000 -0.000000 0.965926 -0.258819 -0.000000 0.965926 -0.258819 -0.000000 1.000000 -0.000000 -0.000000 1.000000 -0.000000 -0.000000 0.965926 0.258819 -0.000000 0.965926 0.258819 -0.000000 0.866025 0.500000 -0.000000 0.866025 0.500000 -0.000000 0.707107 0.707107 -0.000000 0.707107 0.707107 -0.000000 0.500000 0.866025 -0.000000 0.500000 0.866025 -0.000000 0.258819 0.965926 -0.000000 0.258819 0.965926 0.000000 -0.000000 1.000000 -0.000000 0.000000 1.000000 0.000000 -0.258819 0.965926 0.000000 -0.258819 0.965926 0.000000 -0.500000 0.866025 0.000000 -0.500000 0.866025 0.000000 -0.707107 0.707107 0.000000 -0.707107 0.707107 0.000000 -0.866025 0.500000 0.000000 -0.866025 0.500000 0.000000 -0.965926 0.258819 0.000000 -0.965926 0.258819 0.000000 -1.000000 -0.000000 0.000000 -1.000000 0.000000 0.000000 -0.965926 -0.258819 0.000000 -0.965926 -0.258819 0.000000 -0.866025 -0.500000 0.000000 -0.866025 -0.500000 0.000000 -0.707107 -0.707107 0.000000 -0.707107 -0.707107 0.000000 -0.500000 -0.866025 0.000000 -0.500000 -0.866025 0.000000 -0.258819 -0.965926 0.000000 -0.258819 -0.965926 0.000000 -0.000000 -1.000000 0.000000 -0.000000 -1.000000 -0.000000 0.258819 -0.965926 -0.000000 0.258819 -0.965926 -0.000000 0.500000 -0.866025 -0.000000 0.500000 -0.866025 -0.000000 0.707107 -0.707107 -0.000000 0.707107 -0.707107 -0.000000 0.866025 -0.500000 -0.000000 0.866025 -0.500000 -0.000000 0.965926 -0.258819 -0.000000 0.965926 -0.258819 -0.000000 1.000000 -0.000000 -0.000000 1.000000 -0.000000 -0.000000 0.965926 0.258819 -0.000000 0.965926 0.258819 -0.000000 0.866025 0.500000 -0.000000 0.866025 0.500000 -0.000000 0.707107 0.707107 -0.000000 0.707107 0.707107 -0.000000 0.500000 0.866025 -0.000000 0.500000 0.866025 -0.000000 0.258819 0.965926 -0.000000 0.258819 0.965926 0.000000 -0.000000 1.000000 -0.000000 0.000000 1.000000 0.000000 -0.258819 0.965926 0.000000 -0.258819 0.965926 0.000000 -0.500000 0.866025 0.000000 -0.500000 0.866025 0.000000 -0.707107 0.707107 0.000000 -0.707107 0.707107 0.000000 -0.866025 0.500000 0.000000 -0.866025 0.500000 0.000000 -0.965926 0.258819 0.000000 -0.965926 0.258819 0.000000 -1.000000 -0.000000 0.000000 -1.000000 0.000000 0.000000 -0.965926 -0.258819 0.000000 -0.965926 -0.258819 0.000000 -0.866025 -0.500000 0.000000 -0.866025 -0.500000 0.000000 -0.707107 -0.707107 0.000000 -0.707107 -0.707107 0.000000 -0.500000 -0.866025 0.000000 -0.500000 -0.866025 0.376214 0.212760 -0.901774 0.376214 0.212760 -0.901774 0.376214 0.212760 -0.901774 0.376214 0.212760 -0.901774 0.001473 -0.141958 -0.989872 0.001327 -0.139751 -0.990186 -0.000102 -0.111905 -0.993719 -0.000334 -0.105040 -0.994468 -0.000789 -0.079375 -0.996845 -0.000793 -0.070080 -0.997541 -0.000732 -0.062395 -0.998051 -0.000666 -0.057685 -0.998335 -0.000042 -0.035000 -0.999387 0.000310 -0.026751 -0.999642 0.001918 0.000075 -0.999998 0.002224 0.004143 -0.999989 -0.000428 -0.046749 -0.998907 -0.000163 -0.038263 -0.999268 0.000978 -0.014131 -0.999900 0.000978 -0.014136 -0.999900 0.001096 -0.012173 -0.999925 0.001630 -0.144238 -0.989542 -0.011276 0.999571 0.027029 -0.006024 0.999878 0.014439 0.047879 0.992238 -0.114765 0.052509 0.990657 -0.125863 0.105902 0.961430 -0.253843 0.109824 0.958457 -0.263245 0.161419 0.907877 -0.386916 0.164592 0.904026 -0.394522 0.213117 0.832844 -0.510835 0.215542 0.828624 -0.516647 0.259773 0.738107 -0.622668 0.261492 0.734002 -0.626788 0.300283 0.625908 -0.719770 0.301376 0.622354 -0.722390 0.333689 0.498900 -0.799844 0.334270 0.496270 -0.801236 0.359201 0.360090 -0.860994 0.359410 0.358675 -0.861497 -0.000000 0.965924 -0.258825 -0.000000 0.965924 -0.258825 -0.000000 1.000000 -0.000006 -0.000000 1.000000 -0.000006 0.000000 0.965927 0.258814 0.000000 0.965927 0.258814 0.000000 0.866028 0.499995 0.000000 0.866028 0.499995 0.000000 0.707111 0.707103 0.000000 0.707111 0.707103 0.000000 0.500005 0.866023 0.000000 0.500005 0.866023 0.000000 0.258825 0.965924 0.000000 0.258825 0.965924 0.000000 0.000006 1.000000 0.000000 0.000006 1.000000 0.000000 -0.258814 0.965927 0.000000 -0.258814 0.965927 0.000000 -0.499995 0.866028 0.000000 -0.499995 0.866028 0.000000 -0.707103 0.707111 0.000000 -0.707103 0.707111 0.000000 -0.866023 0.500005 0.000000 -0.866023 0.500005 0.000000 -0.965924 0.258825 0.000000 -0.965924 0.258825 0.000000 -1.000000 0.000006 0.000000 -1.000000 0.000006 -0.000000 -0.965927 -0.258814 -0.000000 0.866023 -0.500005 -0.000000 0.866023 -0.500005 -0.000000 0.707103 -0.707111 -0.000000 0.707103 -0.707111 -0.000000 0.499995 -0.866028 -0.000000 0.499995 -0.866028 -0.000000 0.258814 -0.965927 -0.000000 0.258814 -0.965927 -0.000000 -0.000006 -1.000000 -0.000000 -0.000006 -1.000000 -0.000000 -0.258825 -0.965924 -0.000000 -0.258825 -0.965924 -0.000000 -0.500005 -0.866023 -0.000000 -0.500005 -0.866023 -0.000000 -0.707111 -0.707103 -0.000000 -0.707111 -0.707103 -0.000000 -0.866028 -0.499995 -0.000000 -0.866028 -0.499995 -0.000000 -0.965927 -0.258814 0.000000 0.965922 -0.258834 0.000000 0.965926 -0.258819 -0.000000 1.000000 -0.000015 -0.000000 1.000000 -0.000000 -0.000000 0.965930 0.258804 -0.000000 0.965926 0.258819 -0.000000 0.866033 0.499987 -0.000000 0.866025 0.500000 -0.000000 0.707118 0.707096 -0.000000 0.707107 0.707107 -0.000000 0.500013 0.866018 -0.000000 0.500000 0.866025 -0.000000 0.258834 0.965922 -0.000000 0.258819 0.965926 -0.000000 0.000015 1.000000 -0.000000 0.000000 1.000000 -0.000000 -0.258804 0.965930 -0.000000 -0.258819 0.965926 -0.000000 -0.499987 0.866033 -0.000000 -0.500000 0.866025 -0.000000 -0.707096 0.707118 -0.000000 -0.707107 0.707107 -0.000000 -0.866018 0.500013 -0.000000 -0.866025 0.500000 -0.000000 -0.965922 0.258834 -0.000000 -0.965926 0.258819 0.000000 -1.000000 0.000015 0.000000 -1.000000 0.000000 0.000000 -0.965930 -0.258804 0.000000 -0.965926 -0.258819 0.000000 -0.866033 -0.499987 0.000000 -0.866025 -0.500000 0.000000 -0.707118 -0.707096 0.000000 -0.707107 -0.707107 0.000000 -0.500013 -0.866018 0.000000 -0.500000 -0.866025 0.000000 -0.258834 -0.965922 0.000000 -0.258819 -0.965926 0.000000 -0.000015 -1.000000 0.000000 -0.000000 -1.000000 0.000000 0.258804 -0.965930 0.000000 0.258819 -0.965926 0.000000 0.499987 -0.866033 0.000000 0.500000 -0.866025 0.000000 0.707096 -0.707118 0.000000 0.707107 -0.707107 0.000000 0.866018 -0.500013 0.000000 0.866025 -0.500000 0.000000 -0.552910 -0.833241 0.000000 -0.375294 -0.926906 0.000000 -0.552910 -0.833241 0.000000 -0.375294 -0.926906 0.000000 -0.182545 -0.983197 0.000000 -0.182545 -0.983197 0.000000 0.017564 -0.999846 0.000000 0.017564 -0.999846 0.000000 0.216965 -0.976179 0.000000 0.216965 -0.976179 0.000000 0.407618 -0.913153 0.000000 0.407618 -0.913153 0.000000 0.581835 -0.813307 0.000000 0.581835 -0.813307 0.000000 0.732592 -0.680668 0.000000 0.732592 -0.680668 0.000000 0.853811 -0.520584 0.000000 0.853811 -0.520584 -0.000001 0.994086 -0.108598 -0.000001 0.994203 -0.107516 -0.000001 0.994388 -0.105794 -0.000001 0.994320 -0.106434 -0.000001 0.994435 -0.105352 -0.000000 0.995878 -0.090703 -0.000001 0.994433 -0.105374 -0.000000 0.995903 -0.090430 0.000000 0.997139 -0.075591 0.000000 0.997148 -0.075466 0.000001 0.998171 -0.060461 0.000001 0.998169 -0.060485 0.000000 0.965925 0.258821 0.000000 0.965925 0.258821 0.000000 1.000000 0.000002 0.000000 1.000000 0.000002 0.000000 0.965926 -0.258817 0.000000 0.965926 -0.258817 0.000000 0.866026 -0.499998 0.000000 0.866026 -0.499998 0.000000 0.707108 -0.707106 0.000000 0.707108 -0.707106 0.000000 0.500002 -0.866025 0.000000 0.500002 -0.866025 0.000000 0.258821 -0.965925 0.000000 0.258821 -0.965925 0.000000 0.000002 -1.000000 0.000000 0.000002 -1.000000 0.000000 -0.258817 -0.965926 0.000000 -0.258817 -0.965926 0.000000 -0.499998 -0.866026 0.000000 -0.499998 -0.866026 0.000000 -0.707106 -0.707108 0.000000 -0.707106 -0.707108 0.000000 -0.866025 -0.500002 0.000000 -0.866025 -0.500002 -0.000000 -0.965925 -0.258821 -0.000000 -0.965925 -0.258821 -0.000000 -1.000000 -0.000002 -0.000000 -1.000000 -0.000002 -0.000000 -0.965926 0.258817 -0.000000 0.866025 0.500002 -0.000000 0.866025 0.500002 -0.000000 0.707106 0.707108 -0.000000 0.707106 0.707108 -0.000000 0.499998 0.866026 -0.000000 0.499998 0.866026 -0.000000 0.258817 0.965926 -0.000000 0.258817 0.965926 -0.000000 -0.000002 1.000000 -0.000000 -0.000002 1.000000 -0.000000 -0.258821 0.965925 -0.000000 -0.258821 0.965925 -0.000000 -0.500002 0.866025 -0.000000 -0.500002 0.866025 -0.000000 -0.707108 0.707106 -0.000000 -0.707108 0.707106 -0.000000 -0.866026 0.499998 -0.000000 -0.866026 0.499998 -0.000000 -0.965926 0.258817 1.000000 0.000000 -0.000000 1.000000 0.000000 -0.000000 1.000000 0.000000 -0.000000 1.000000 0.000000 -0.000000 1.000000 0.000000 -0.000000 1.000000 0.000000 -0.000000 1.000000 0.000000 -0.000000 1.000000 0.000000 -0.000000 1.000000 0.000000 -0.000000 1.000000 0.000000 -0.000000 1.000000 0.000000 -0.000000 1.000000 0.000000 -0.000000 1.000000 0.000000 -0.000000 1.000000 0.000000 -0.000000 1.000000 0.000000 -0.000000 1.000000 0.000000 -0.000000 1.000000 0.000000 -0.000000 1.000000 0.000000 -0.000000 1.000000 0.000000 -0.000000 1.000000 0.000000 -0.000000 1.000000 0.000000 -0.000000 1.000000 0.000000 -0.000000 1.000000 0.000000 -0.000000 1.000000 0.000000 -0.000000 1.000000 0.000000 -0.000000 1.000000 0.000000 -0.000000 1.000000 0.000000 -0.000000 1.000000 0.000000 -0.000000 1.000000 0.000000 -0.000000 1.000000 0.000000 -0.000000 1.000000 0.000000 -0.000000 1.000000 0.000000 -0.000000 1.000000 0.000000 -0.000000 1.000000 0.000000 -0.000000 1.000000 0.000000 -0.000000 1.000000 0.000000 -0.000000 1.000000 0.000000 -0.000000 1.000000 0.000000 -0.000000 1.000000 0.000000 -0.000000 1.000000 0.000000 -0.000000 1.000000 0.000000 -0.000000 1.000000 0.000000 -0.000000 1.000000 0.000000 -0.000000 1.000000 0.000000 -0.000000 1.000000 0.000000 -0.000000 1.000000 0.000000 -0.000000 1.000000 0.000000 -0.000000 1.000000 0.000000 -0.000000 1.000000 0.000000 -0.000000 1.000000 0.000000 -0.000000 1.000000 0.000000 -0.000000 1.000000 0.000000 -0.000000 1.000000 0.000000 -0.000000 1.000000 0.000000 -0.000000 1.000000 0.000000 -0.000000 1.000000 0.000000 -0.000000 1.000000 0.000000 -0.000000 1.000000 0.000000 -0.000000 1.000000 0.000000 -0.000000 1.000000 0.000000 -0.000000 1.000000 0.000000 -0.000000 1.000000 0.000000 -0.000000 1.000000 0.000000 -0.000000 1.000000 0.000000 -0.000000 1.000000 0.000000 -0.000000 1.000000 0.000000 -0.000000 1.000000 0.000000 -0.000000 1.000000 0.000000 -0.000000 1.000000 0.000000 -0.000000 1.000000 0.000000 -0.000000 1.000000 0.000000 -0.000000 1.000000 0.000000 -0.000000 1.000000 0.000000 -0.000000 1.000000 0.000000 -0.000000 1.000000 0.000000 -0.000000 1.000000 0.000000 -0.000000 1.000000 0.000000 -0.000000 1.000000 0.000000 -0.000000 1.000000 0.000000 -0.000000 1.000000 0.000000 -0.000000 1.000000 0.000000 -0.000000 1.000000 0.000000 -0.000000 1.000000 0.000000 -0.000000 1.000000 0.000000 -0.000000 1.000000 0.000000 -0.000000 1.000000 0.000000 -0.000000 1.000000 0.000000 -0.000000 1.000000 0.000000 -0.000000 1.000000 0.000000 -0.000000 1.000000 0.000000 -0.000000 1.000000 0.000000 -0.000000 1.000000 0.000000 -0.000000 1.000000 0.000000 -0.000000 1.000000 0.000000 -0.000000 1.000000 0.000000 -0.000000 1.000000 0.000000 -0.000000 1.000000 0.000000 -0.000000 1.000000 0.000000 -0.000000 1.000000 0.000000 -0.000000 1.000000 0.000000 -0.000000 1.000000 0.000000 -0.000000 1.000000 0.000000 -0.000000 1.000000 0.000000 -0.000000 1.000000 0.000000 -0.000000 1.000000 0.000000 -0.000000 1.000000 0.000000 -0.000000 1.000000 0.000000 -0.000000 1.000000 0.000000 -0.000000 1.000000 0.000000 -0.000000 1.000000 0.000000 -0.000000 1.000000 0.000000 -0.000000 1.000000 0.000000 -0.000000 1.000000 0.000000 -0.000000 1.000000 0.000000 -0.000000 1.000000 0.000000 -0.000000 1.000000 0.000000 -0.000000 1.000000 0.000000 -0.000000 1.000000 0.000000 -0.000000 1.000000 0.000000 -0.000000 1.000000 0.000000 -0.000000 1.000000 0.000000 -0.000000 1.000000 0.000000 -0.000000 1.000000 0.000000 -0.000000 1.000000 0.000000 -0.000000 1.000000 0.000000 -0.000000 1.000000 0.000000 -0.000000 1.000000 0.000000 -0.000000 1.000000 0.000000 -0.000000 1.000000 0.000000 -0.000000 1.000000 0.000000 -0.000000 1.000000 0.000000 -0.000000 1.000000 0.000000 -0.000000 1.000000 0.000000 -0.000000 1.000000 0.000000 -0.000000 1.000000 0.000000 -0.000000 1.000000 0.000000 -0.000000 1.000000 0.000000 -0.000000 1.000000 0.000000 -0.000000 1.000000 0.000000 -0.000000 1.000000 0.000000 -0.000000 1.000000 0.000000 -0.000000 1.000000 0.000000 -0.000000 1.000000 0.000000 -0.000000 1.000000 0.000000 -0.000000 1.000000 0.000000 -0.000000 1.000000 0.000000 -0.000000 1.000000 0.000000 -0.000000 1.000000 0.000000 -0.000000 1.000000 0.000000 -0.000000 1.000000 0.000000 -0.000000 1.000000 0.000000 -0.000000 1.000000 0.000000 -0.000000 1.000000 0.000000 -0.000000 1.000000 0.000000 -0.000000 1.000000 0.000000 -0.000000 1.000000 0.000000 -0.000000 1.000000 0.000000 -0.000000 1.000000 0.000000 -0.000000 1.000000 0.000000 -0.000000 1.000000 0.000000 -0.000000 1.000000 0.000000 -0.000000 1.000000 0.000000 -0.000000 1.000000 0.000000 -0.000000 1.000000 0.000000 -0.000000 1.000000 0.000000 -0.000000 1.000000 0.000000 -0.000000 1.000000 0.000000 -0.000000 1.000000 0.000000 -0.000000 1.000000 0.000000 -0.000000 1.000000 0.000000 -0.000000 1.000000 0.000000 -0.000000 1.000000 0.000000 -0.000000 1.000000 0.000000 -0.000000 1.000000 0.000000 -0.000000 1.000000 0.000000 -0.000000 1.000000 0.000000 -0.000000 1.000000 0.000000 -0.000000 1.000000 0.000000 -0.000000 1.000000 0.000000 -0.000000 1.000000 0.000000 -0.000000 1.000000 0.000000 -0.000000 1.000000 0.000000 -0.000000 1.000000 0.000000 -0.000000 1.000000 0.000000 -0.000000 1.000000 0.000000 -0.000000 1.000000 0.000000 -0.000000 1.000000 0.000000 -0.000000 1.000000 0.000000 -0.000000 1.000000 0.000000 -0.000000 1.000000 0.000000 -0.000000 1.000000 0.000000 -0.000000 1.000000 0.000000 -0.000000 1.000000 0.000000 -0.000000 1.000000 0.000000 -0.000000 1.000000 0.000000 -0.000000 1.000000 0.000000 -0.000000 1.000000 0.000000 -0.000000 1.000000 0.000000 -0.000000 1.000000 0.000000 -0.000000 1.000000 0.000000 -0.000000 1.000000 0.000000 -0.000000 1.000000 0.000000 -0.000000 1.000000 0.000000 -0.000000 1.000000 0.000000 -0.000000 1.000000 0.000000 -0.000000 1.000000 0.000000 -0.000000 1.000000 0.000000 -0.000000 1.000000 0.000000 -0.000000 1.000000 0.000000 -0.000000 1.000000 0.000000 -0.000000 1.000000 0.000000 -0.000000 1.000000 0.000000 -0.000000 1.000000 0.000000 -0.000000 1.000000 0.000000 -0.000000 1.000000 0.000000 -0.000000 1.000000 0.000000 -0.000000 1.000000 0.000000 -0.000000 1.000000 0.000000 -0.000000 1.000000 0.000000 -0.000000 1.000000 0.000000 -0.000000 1.000000 0.000000 -0.000000 1.000000 0.000000 -0.000000 1.000000 0.000000 -0.000000 1.000000 0.000000 -0.000000 1.000000 0.000000 -0.000000 1.000000 0.000000 -0.000000 1.000000 0.000000 -0.000000 1.000000 0.000000 -0.000000 1.000000 0.000000 -0.000000 0.000000 -0.552910 -0.833241 0.000000 -0.552910 -0.833241 0.000000 -0.552910 -0.833241 0.000000 -0.552910 -0.833241 0.000000 -1.000000 0.000000 0.000000 -1.000000 0.000000 0.000000 -1.000000 0.000000 0.000000 -1.000000 0.000000 0.000000 -1.000000 0.000000 0.000000 -1.000000 0.000000 0.863779 -0.000000 0.503871 0.863779 -0.000000 0.503871 0.863779 -0.000000 0.503871 0.863779 -0.000000 0.503871 -0.000000 1.000000 -0.000000 -0.000000 1.000000 -0.000000 -0.000000 1.000000 -0.000000 -0.000000 1.000000 -0.000000 -0.000000 1.000000 -0.000000 -0.000000 1.000000 -0.000000 -0.000000 1.000000 -0.000000 -0.000000 1.000000 -0.000000 -0.000000 1.000000 -0.000000 -0.000000 1.000000 -0.000000 -0.000000 1.000000 -0.000000 -0.000000 1.000000 -0.000000 -0.000000 1.000000 -0.000000 -0.000000 0.853811 -0.520584 -0.000000 0.853811 -0.520584 -1.000000 -0.000000 0.000000 -1.000000 -0.000000 0.000000 -1.000000 -0.000000 0.000000 -1.000000 -0.000000 0.000000 -1.000000 -0.000000 0.000000 -1.000000 -0.000000 0.000000 -1.000000 -0.000000 0.000000 -1.000000 -0.000000 0.000000 -1.000000 -0.000000 0.000000 -1.000000 -0.000000 0.000000 -1.000000 -0.000000 0.000000 -1.000000 -0.000000 0.000000 -1.000000 -0.000000 0.000000 -1.000000 -0.000000 0.000000 -1.000000 -0.000000 0.000000 -1.000000 -0.000000 0.000000 -1.000000 -0.000000 0.000000 -1.000000 -0.000000 0.000000 -1.000000 -0.000000 0.000000 -1.000000 -0.000000 0.000000 -1.000000 -0.000000 0.000000 -1.000000 -0.000000 0.000000 -1.000000 -0.000000 0.000000 -1.000000 -0.000000 0.000000 -1.000000 -0.000000 0.000000 -1.000000 -0.000000 0.000000 -1.000000 -0.000000 0.000000 -1.000000 -0.000000 0.000000 -1.000000 -0.000000 0.000000 -1.000000 -0.000000 0.000000 -1.000000 -0.000000 0.000000 -1.000000 -0.000000 0.000000 -1.000000 -0.000000 0.000000 -1.000000 -0.000000 0.000000 -1.000000 -0.000000 0.000000 -1.000000 -0.000000 0.000000 -1.000000 -0.000000 0.000000 -1.000000 -0.000000 0.000000 -1.000000 -0.000000 0.000000 -1.000000 -0.000000 0.000000 -1.000000 -0.000000 0.000000 -1.000000 -0.000000 0.000000 1.000000 0.000000 -0.000000 1.000000 0.000000 -0.000000 1.000000 0.000000 -0.000000 1.000000 0.000000 -0.000000 1.000000 0.000000 -0.000000 1.000000 0.000000 -0.000000 1.000000 0.000000 -0.000000 1.000000 0.000000 -0.000000 1.000000 0.000000 -0.000000 1.000000 0.000000 -0.000000 1.000000 0.000000 -0.000000 1.000000 0.000000 -0.000000 1.000000 0.000000 -0.000000 1.000000 0.000000 -0.000000 1.000000 0.000000 -0.000000 1.000000 0.000000 -0.000000 1.000000 0.000000 -0.000000 1.000000 0.000000 -0.000000 1.000000 0.000000 -0.000000 1.000000 0.000000 -0.000000 1.000000 0.000000 -0.000000 1.000000 0.000000 -0.000000 1.000000 0.000000 -0.000000 1.000000 0.000000 -0.000000 1.000000 0.000000 -0.000000 1.000000 0.000000 -0.000000 1.000000 0.000000 -0.000000 1.000000 0.000000 -0.000000 1.000000 0.000000 -0.000000 1.000000 0.000000 -0.000000 1.000000 0.000000 -0.000000 1.000000 0.000000 -0.000000 1.000000 0.000000 -0.000000 1.000000 0.000000 -0.000000 1.000000 0.000000 -0.000000 1.000000 0.000000 -0.000000 1.000000 0.000000 -0.000000 1.000000 0.000000 -0.000000 1.000000 0.000000 -0.000000 1.000000 0.000000 -0.000000 1.000000 0.000000 -0.000000 1.000000 0.000000 -0.000000 1.000000 0.000000 -0.000000 1.000000 0.000000 -0.000000 1.000000 0.000000 -0.000000 1.000000 0.000000 -0.000000 1.000000 0.000000 -0.000000 1.000000 0.000000 -0.000000 -0.922901 -0.000000 -0.385038 -0.922901 -0.000000 -0.385038 -0.922901 -0.000000 -0.385038 -0.922901 -0.000000 -0.385038 -0.922901 -0.000000 -0.385038 -0.922901 -0.000000 -0.385038 -0.922901 -0.000000 -0.385038 -0.922901 -0.000000 -0.385038 -0.922901 -0.000000 -0.385038 -0.922901 -0.000000 -0.385038 -0.922901 -0.000000 -0.385038 -0.922901 -0.000000 -0.385038 -0.922901 -0.000000 -0.385038 -0.922901 -0.000000 -0.385038 -0.922901 -0.000000 -0.385038 -0.922901 -0.000000 -0.385038 -0.922901 -0.000000 -0.385038 -0.922901 -0.000000 -0.385038 -0.922901 -0.000000 -0.385038 -0.922901 -0.000000 -0.385038 -0.000000 -0.000000 1.000000 -0.000000 -0.000000 1.000000 -0.000000 -0.000000 1.000000 -0.000000 -0.000000 1.000000 -0.000000 -0.000000 1.000000 -0.000000 -0.000000 1.000000 -0.000000 -0.000000 1.000000 -0.000000 -0.000000 1.000000 -1.000000 -0.000000 0.000000 -1.000000 -0.000000 0.000000 -1.000000 -0.000000 0.000000 -1.000000 -0.000000 0.000000 -1.000000 -0.000000 0.000000 -1.000000 -0.000000 0.000000 -1.000000 -0.000000 0.000000 -1.000000 -0.000000 0.000000 -1.000000 -0.000000 0.000000 -1.000000 -0.000000 0.000000 0.919145 -0.000000 -0.393920 0.919145 -0.000000 -0.393920 0.919145 -0.000000 -0.393920 0.919145 -0.000000 -0.393920 -0.707107 -0.000000 -0.707107 -0.707107 -0.000000 -0.707107 -0.707107 -0.000000 -0.707107 -0.707107 -0.000000 -0.707107 -0.707107 -0.000000 -0.707107 -0.707107 -0.000000 -0.707107 -0.707107 -0.000000 -0.707107 -0.707107 -0.000000 -0.707107 -0.919145 0.000000 -0.393920 -0.919145 0.000000 -0.393920 -0.919145 0.000000 -0.393920 -0.919145 0.000000 -0.393920 -0.000000 -0.000000 1.000000 -0.000000 -0.000000 1.000000 -0.000000 -0.000000 1.000000 -0.000000 -0.000000 1.000000 -0.000000 1.000000 -0.000000 -0.000000 1.000000 -0.000000 -0.000000 1.000000 -0.000000 -0.000000 1.000000 -0.000000 -0.000000 1.000000 -0.000000 -0.000000 0.552910 0.833241 -0.000000 0.552910 0.833241 -0.000000 0.552910 0.833241 -0.000000 0.552910 0.833241 0.922901 0.000000 0.385037 0.922901 0.000000 0.385037 0.922901 0.000000 0.385037 0.922901 0.000000 0.385037 0.922901 0.000000 0.385037 0.922901 0.000000 0.385037 0.922901 0.000000 0.385037 0.922901 0.000000 0.385037 0.922901 0.000000 0.385037 0.922901 0.000000 0.385037 0.922901 0.000000 0.385037 0.922901 0.000000 0.385037 0.922901 0.000000 0.385037 0.922901 0.000000 0.385037 0.922901 0.000000 0.385037 0.922901 0.000000 0.385037 0.922901 0.000000 0.385037 0.922901 0.000000 0.385037 0.000000 1.000000 -0.000000 0.000000 1.000000 -0.000000 0.000000 1.000000 -0.000000 0.000000 1.000000 -0.000000 0.000000 0.000000 -1.000000 0.000000 0.000000 -1.000000 0.000000 0.000000 -1.000000 0.000000 0.000000 -1.000000 1.000000 0.000000 -0.000000 1.000000 0.000000 -0.000000 1.000000 0.000000 -0.000000 1.000000 0.000000 -0.000000 1.000000 0.000000 -0.000000 1.000000 0.000000 -0.000000 1.000000 0.000000 -0.000000 1.000000 0.000000 -0.000000 1.000000 0.000000 -0.000000 1.000000 0.000000 -0.000000 1.000000 0.000000 -0.000000 1.000000 0.000000 -0.000000 1.000000 0.000000 -0.000000 1.000000 0.000000 -0.000000 1.000000 0.000000 -0.000000 1.000000 0.000000 -0.000000 1.000000 0.000000 -0.000000 1.000000 0.000000 -0.000000 1.000000 0.000000 -0.000000 1.000000 0.000000 -0.000000 1.000000 0.000000 -0.000000 1.000000 0.000000 -0.000000 1.000000 0.000000 -0.000000 1.000000 0.000000 -0.000000</float_array>
          <technique_common>
            <accessor source="#FootBaseRight-mesh-normals-array" count="1186" stride="3">
              <param name="X" type="float"/>
              <param name="Y" type="float"/>
              <param name="Z" type="float"/>
            </accessor>
          </technique_common>
        </source>
        <vertices id="FootBaseRight-mesh-vertices">
          <input semantic="POSITION" source="#FootBaseRight-mesh-positions"/>
        </vertices>
        <triangles material="Powder_Coat__White_" count="1168">
          <input semantic="VERTEX" source="#FootBaseRight-mesh-vertices" offset="0"/>
          <input semantic="NORMAL" source="#FootBaseRight-mesh-normals" offset="1"/>
          <p>1 0 49 1 0 2 0 2 49 1 25 3 0 2 25 3 24 4 24 4 25 3 26 5 24 4 26 5 23 6 23 6 26 5 27 7 23 6 27 7 22 8 22 8 27 7 28 9 22 8 28 9 21 10 21 10 28 9 29 11 21 10 29 11 20 12 20 12 29 11 30 13 20 12 30 13 19 14 19 14 30 13 31 15 19 14 31 15 18 16 18 16 31 15 32 17 18 16 32 17 17 18 17 18 32 17 33 19 17 18 33 19 16 20 16 20 33 19 34 21 16 20 34 21 15 22 15 22 34 21 35 23 15 22 35 23 14 24 14 24 35 23 36 25 14 24 36 25 13 26 13 26 36 25 37 27 13 26 37 27 12 28 12 28 37 27 38 29 12 28 38 29 11 30 11 30 38 29 39 31 11 30 39 31 10 32 10 32 39 31 40 33 10 32 40 33 9 34 9 34 40 33 41 35 9 34 41 35 8 36 8 36 41 35 42 37 8 36 42 37 7 38 7 38 42 37 43 39 7 38 43 39 6 40 6 40 43 39 44 41 6 40 44 41 5 42 5 42 44 41 45 43 5 42 45 43 4 44 4 44 45 43 46 45 4 44 46 45 3 46 3 46 46 45 47 47 3 46 47 47 2 48 2 48 47 47 48 49 2 48 48 49 1 0 1 0 48 49 49 1 51 50 111 51 50 52 50 52 111 51 112 53 50 52 112 53 73 54 73 54 112 53 113 55 73 54 113 55 20 56 20 56 113 55 114 57 20 56 114 57 115 58 111 51 51 50 110 59 110 59 51 50 52 60 110 59 52 60 109 61 109 61 52 60 53 62 109 61 53 62 108 63 108 63 53 62 54 64 108 63 54 64 107 65 107 65 54 64 55 66 107 65 55 66 139 67 139 67 55 66 95 68 139 67 95 68 138 69 138 69 95 68 96 70 138 69 96 70 137 71 137 71 96 70 97 72 137 71 97 72 136 73 136 73 97 72 74 74 136 73 74 74 135 75 135 75 74 74 75 76 135 75 75 76 134 77 134 77 75 76 76 78 134 77 76 78 133 79 133 79 76 78 77 80 133 79 77 80 7 81 7 81 77 80 78 82 7 81 78 82 8 83 8 83 78 82 79 84 8 83 79 84 80 85 95 68 55 66 171 86 171 86 55 66 56 87 171 86 56 87 170 88 170 88 56 87 57 89 170 88 57 89 193 90 193 90 57 89 58 91 193 90 58 91 192 92 192 92 58 91 59 93 192 92 59 93 191 94 191 94 59 93 60 95 191 94 60 95 190 96 190 96 60 95 61 97 190 96 61 97 189 98 189 98 61 97 16 99 189 98 16 99 188 100 188 100 16 99 15 101 188 100 15 101 187 102 187 102 15 101 186 103 186 103 15 101 14 104 186 103 14 104 185 105 185 105 14 104 184 106 184 106 14 104 183 107 183 107 14 104 13 108 183 107 13 108 182 109 182 109 13 108 181 110 181 110 13 108 180 111 180 111 13 108 12 112 180 111 12 112 179 113 179 113 12 112 178 114 178 114 12 112 177 115 177 115 12 112 11 116 177 115 11 116 89 117 89 117 11 116 88 118 88 118 11 116 87 119 87 119 11 116 86 120 86 120 11 116 10 121 86 120 10 121 85 122 85 122 10 121 84 123 84 123 10 121 83 124 83 124 10 121 9 125 83 124 9 125 82 126 82 126 9 125 81 127 81 127 9 125 80 85 80 85 9 125 8 83 61 97 62 128 16 99 16 99 62 128 63 129 16 99 63 129 17 130 17 130 63 129 64 131 17 130 64 131 65 132 65 132 66 133 17 130 17 130 66 133 18 134 18 134 66 133 67 135 18 134 67 135 68 136 68 136 69 137 18 134 18 134 69 137 19 138 19 138 69 137 70 139 19 138 70 139 71 140 71 140 72 141 19 138 19 138 72 141 20 56 20 56 72 141 73 54 177 115 89 117 176 142 176 142 89 117 90 143 176 142 90 143 175 144 175 144 90 143 91 145 175 144 91 145 174 146 174 146 91 145 92 147 174 146 92 147 173 148 173 148 92 147 93 149 173 148 93 149 172 150 172 150 93 149 94 151 172 150 94 151 171 86 171 86 94 151 95 68 121 152 98 153 23 154 23 154 98 153 99 155 23 154 99 155 100 156 23 154 100 156 24 157 24 157 100 156 101 158 24 157 101 158 165 159 165 159 101 158 164 160 164 160 101 158 102 161 164 160 102 161 163 162 163 162 102 161 103 163 163 162 103 163 162 164 162 164 103 163 104 165 162 164 104 165 161 166 161 166 104 165 105 167 161 166 105 167 160 168 160 168 105 167 106 169 160 168 106 169 159 170 159 170 106 169 107 65 159 170 107 65 139 67 20 56 115 58 21 171 21 171 115 58 116 172 21 171 116 172 117 173 117 173 118 174 21 171 21 171 118 174 22 175 22 175 118 174 119 176 22 175 119 176 120 177 120 177 121 152 22 175 22 175 121 152 23 154 123 178 4 179 122 180 122 180 4 179 3 181 122 180 3 181 145 182 145 182 3 181 153 183 145 182 153 183 154 184 123 178 124 185 4 179 4 179 124 185 125 186 4 179 125 186 5 187 5 187 125 186 126 188 5 187 126 188 127 189 127 189 128 190 5 187 5 187 128 190 6 191 6 191 128 190 129 192 6 191 129 192 130 193 130 193 131 194 6 191 6 191 131 194 7 81 7 81 131 194 132 195 7 81 132 195 133 79 139 67 140 196 159 170 159 170 140 196 158 197 158 197 140 196 141 198 158 197 141 198 157 199 157 199 141 198 142 200 157 199 142 200 156 201 156 201 142 200 143 202 156 201 143 202 155 203 155 203 143 202 144 204 155 203 144 204 154 184 154 184 144 204 145 182 169 205 146 206 1 207 1 207 146 206 147 208 1 207 147 208 148 209 1 207 148 209 2 210 2 210 148 209 149 211 2 210 149 211 150 212 150 212 151 213 2 210 2 210 151 213 3 181 3 181 151 213 152 214 3 181 152 214 153 183 165 159 166 215 24 157 24 157 166 215 167 216 24 157 167 216 0 217 0 217 167 216 168 218 0 217 168 218 169 205 0 217 169 205 1 207 97 219 211 220 74 221 74 221 211 220 212 222 74 221 212 222 75 223 75 223 212 222 213 224 75 223 213 224 76 225 76 225 213 224 214 226 76 225 214 226 77 227 77 227 214 226 215 228 77 227 215 228 78 229 78 229 215 228 216 230 78 229 216 230 79 231 79 231 216 230 217 232 79 231 217 232 80 233 80 233 217 232 194 234 80 233 194 234 81 235 81 235 194 234 195 236 81 235 195 236 82 237 82 237 195 236 196 238 82 237 196 238 83 239 83 239 196 238 197 240 83 239 197 240 84 241 84 241 197 240 198 242 84 241 198 242 85 243 85 243 198 242 199 244 85 243 199 244 86 245 86 245 199 244 200 246 86 245 200 246 87 247 87 247 200 246 201 248 87 247 201 248 88 249 88 249 201 248 202 250 88 249 202 250 89 251 89 251 202 250 203 252 89 251 203 252 90 253 90 253 203 252 204 254 90 253 204 254 91 255 91 255 204 254 205 256 91 255 205 256 92 257 92 257 205 256 206 258 92 257 206 258 93 259 93 259 206 258 207 260 93 259 207 260 94 261 94 261 207 260 208 262 94 261 208 262 95 263 95 263 208 262 209 264 95 263 209 264 96 265 96 265 209 264 210 266 96 265 210 266 97 219 97 219 210 266 211 220 121 267 235 268 98 269 98 269 235 268 236 270 98 269 236 270 99 271 99 271 236 270 237 272 99 271 237 272 100 273 100 273 237 272 238 274 100 273 238 274 101 275 101 275 238 274 239 276 101 275 239 276 102 277 102 277 239 276 240 278 102 277 240 278 103 279 103 279 240 278 241 280 103 279 241 280 104 281 104 281 241 280 218 282 104 281 218 282 105 283 105 283 218 282 219 284 105 283 219 284 106 285 106 285 219 284 220 286 106 285 220 286 107 287 107 287 220 286 221 288 107 287 221 288 108 289 108 289 221 288 222 290 108 289 222 290 109 291 109 291 222 290 223 292 109 291 223 292 110 293 110 293 223 292 224 294 110 293 224 294 111 295 111 295 224 294 225 296 111 295 225 296 112 297 112 297 225 296 226 298 112 297 226 298 113 299 113 299 226 298 227 300 113 299 227 300 114 301 114 301 227 300 228 302 114 301 228 302 115 303 115 303 228 302 229 304 115 303 229 304 116 305 116 305 229 304 230 306 116 305 230 306 117 307 117 307 230 306 231 308 117 307 231 308 118 309 118 309 231 308 232 310 118 309 232 310 119 311 119 311 232 310 233 312 119 311 233 312 120 313 120 313 233 312 234 314 120 313 234 314 121 267 121 267 234 314 235 268 169 315 259 316 146 317 146 317 259 316 260 318 146 317 260 318 147 319 147 319 260 318 261 320 147 319 261 320 148 321 148 321 261 320 262 322 148 321 262 322 149 323 149 323 262 322 263 324 149 323 263 324 150 325 150 325 263 324 264 326 150 325 264 326 151 327 151 327 264 326 265 328 151 327 265 328 152 329 152 329 265 328 242 330 152 329 242 330 153 331 153 331 242 330 243 332 153 331 243 332 154 333 154 333 243 332 244 334 154 333 244 334 155 335 155 335 244 334 245 336 155 335 245 336 156 337 156 337 245 336 246 338 156 337 246 338 157 339 157 339 246 338 247 340 157 339 247 340 158 341 158 341 247 340 248 342 158 341 248 342 159 343 159 343 248 342 249 344 159 343 249 344 160 345 160 345 249 344 250 346 160 345 250 346 161 347 161 347 250 346 251 348 161 347 251 348 162 349 162 349 251 348 252 350 162 349 252 350 163 351 163 351 252 350 253 352 163 351 253 352 164 353 164 353 253 352 254 354 164 353 254 354 165 355 165 355 254 354 255 356 165 355 255 356 166 357 166 357 255 356 256 358 166 357 256 358 167 359 167 359 256 358 257 360 167 359 257 360 168 361 168 361 257 360 258 362 168 361 258 362 169 315 169 315 258 362 259 316 193 363 283 364 170 365 170 365 283 364 284 366 170 365 284 366 171 367 171 367 284 366 285 368 171 367 285 368 172 369 172 369 285 368 286 370 172 369 286 370 173 371 173 371 286 370 287 372 173 371 287 372 174 373 174 373 287 372 288 374 174 373 288 374 175 375 175 375 288 374 289 376 175 375 289 376 176 377 176 377 289 376 266 378 176 377 266 378 177 379 177 379 266 378 267 380 177 379 267 380 178 381 178 381 267 380 268 382 178 381 268 382 179 383 179 383 268 382 269 384 179 383 269 384 180 385 180 385 269 384 270 386 180 385 270 386 181 387 181 387 270 386 271 388 181 387 271 388 182 389 182 389 271 388 272 390 182 389 272 390 183 391 183 391 272 390 273 392 183 391 273 392 184 393 184 393 273 392 274 394 184 393 274 394 185 395 185 395 274 394 275 396 185 395 275 396 186 397 186 397 275 396 276 398 186 397 276 398 187 399 187 399 276 398 277 400 187 399 277 400 188 401 188 401 277 400 278 402 188 401 278 402 189 403 189 403 278 402 279 404 189 403 279 404 190 405 190 405 279 404 280 406 190 405 280 406 191 407 191 407 280 406 281 408 191 407 281 408 192 409 192 409 281 408 282 410 192 409 282 410 193 363 193 363 282 410 283 364 145 411 307 412 122 413 122 413 307 412 308 414 122 413 308 414 123 415 123 415 308 414 309 416 123 415 309 416 124 417 124 417 309 416 310 418 124 417 310 418 125 419 125 419 310 418 311 420 125 419 311 420 126 421 126 421 311 420 312 422 126 421 312 422 127 423 127 423 312 422 313 424 127 423 313 424 128 425 128 425 313 424 290 426 128 425 290 426 129 427 129 427 290 426 291 428 129 427 291 428 130 429 130 429 291 428 292 430 130 429 292 430 131 431 131 431 292 430 293 432 131 431 293 432 132 433 132 433 293 432 294 434 132 433 294 434 133 435 133 435 294 434 295 436 133 435 295 436 134 437 134 437 295 436 296 438 134 437 296 438 135 439 135 439 296 438 297 440 135 439 297 440 136 441 136 441 297 440 298 442 136 441 298 442 137 443 137 443 298 442 299 444 137 443 299 444 138 445 138 445 299 444 300 446 138 445 300 446 139 447 139 447 300 446 301 448 139 447 301 448 140 449 140 449 301 448 302 450 140 449 302 450 141 451 141 451 302 450 303 452 141 451 303 452 142 453 142 453 303 452 304 454 142 453 304 454 143 455 143 455 304 454 305 456 143 455 305 456 144 457 144 457 305 456 306 458 144 457 306 458 145 411 145 411 306 458 307 412 73 459 331 460 50 461 50 461 331 460 332 462 50 461 332 462 51 463 51 463 332 462 333 464 51 463 333 464 52 465 52 465 333 464 334 466 52 465 334 466 53 467 53 467 334 466 335 468 53 467 335 468 54 469 54 469 335 468 336 470 54 469 336 470 55 471 55 471 336 470 337 472 55 471 337 472 56 473 56 473 337 472 314 474 56 473 314 474 57 475 57 475 314 474 315 476 57 475 315 476 58 477 58 477 315 476 316 478 58 477 316 478 59 479 59 479 316 478 317 480 59 479 317 480 60 481 60 481 317 480 318 482 60 481 318 482 61 483 61 483 318 482 319 484 61 483 319 484 62 485 62 485 319 484 320 486 62 485 320 486 63 487 63 487 320 486 321 488 63 487 321 488 64 489 64 489 321 488 322 490 64 489 322 490 65 491 65 491 322 490 323 492 65 491 323 492 66 493 66 493 323 492 324 494 66 493 324 494 67 495 67 495 324 494 325 496 67 495 325 496 68 497 68 497 325 496 326 498 68 497 326 498 69 499 69 499 326 498 327 500 69 499 327 500 70 501 70 501 327 500 328 502 70 501 328 502 71 503 71 503 328 502 329 504 71 503 329 504 72 505 72 505 329 504 330 506 72 505 330 506 73 459 73 459 330 506 331 460 338 507 339 508 341 509 341 509 339 508 340 510 357 511 342 512 355 513 355 513 342 512 343 514 355 513 343 514 354 515 354 515 343 514 344 516 354 515 344 516 338 517 338 517 344 516 339 518 339 518 344 516 345 519 339 518 345 519 348 520 348 520 345 519 346 521 348 520 346 521 347 522 354 515 338 517 353 523 353 523 338 517 349 524 353 523 349 524 352 525 352 525 349 524 350 526 352 525 350 526 351 527 355 513 356 528 357 511 375 529 358 530 374 531 374 531 358 530 359 532 374 531 359 532 373 533 373 533 359 532 360 534 373 533 360 534 372 535 372 535 360 534 361 536 372 535 361 536 371 537 371 537 361 536 362 538 371 537 362 538 370 539 370 539 362 538 363 540 370 539 363 540 369 541 369 541 363 540 364 542 369 541 364 542 368 543 368 543 364 542 365 544 368 543 365 544 367 545 367 545 365 544 366 546 367 545 366 546 340 510 340 510 366 546 341 509 377 547 423 548 376 549 376 549 423 548 400 550 376 549 400 550 399 551 399 551 400 550 401 552 399 551 401 552 398 553 398 553 401 552 402 554 398 553 402 554 397 555 397 555 402 554 403 556 397 555 403 556 396 557 396 557 403 556 404 558 396 557 404 558 395 559 395 559 404 558 405 560 395 559 405 560 394 561 394 561 405 560 406 562 394 561 406 562 393 563 393 563 406 562 407 564 393 563 407 564 392 565 392 565 407 564 408 566 392 565 408 566 391 567 391 567 408 566 409 568 391 567 409 568 390 569 390 569 409 568 410 570 390 569 410 570 389 571 389 571 410 570 411 572 389 571 411 572 388 573 388 573 411 572 412 574 388 573 412 574 413 575 423 548 377 547 422 576 422 576 377 547 378 577 422 576 378 577 421 578 421 578 378 577 379 579 421 578 379 579 420 580 420 580 379 579 380 581 420 580 380 581 419 582 419 582 380 581 381 583 419 582 381 583 418 584 418 584 381 583 382 585 418 584 382 585 417 586 417 586 382 585 383 587 417 586 383 587 416 588 416 588 383 587 384 589 416 588 384 589 415 590 415 590 384 589 385 591 415 590 385 591 414 592 414 592 385 591 386 593 414 592 386 593 413 575 413 575 386 593 387 594 413 575 387 594 388 573 425 595 459 596 424 597 424 597 459 596 460 598 424 597 460 598 447 599 447 599 460 598 461 600 447 599 461 600 446 601 446 601 461 600 462 602 446 601 462 602 445 603 445 603 462 602 463 604 445 603 463 604 444 605 444 605 463 604 464 606 444 605 464 606 443 607 443 607 464 606 465 608 443 607 465 608 442 609 442 609 465 608 466 610 442 609 466 610 441 611 441 611 466 610 467 612 441 611 467 612 440 613 440 613 467 612 468 614 440 613 468 614 439 615 439 615 468 614 469 616 439 615 469 616 438 617 438 617 469 616 470 618 438 617 470 618 437 619 437 619 470 618 471 620 437 619 471 620 436 621 436 621 471 620 448 622 436 621 448 622 435 623 435 623 448 622 449 624 435 623 449 624 434 625 434 625 449 624 450 626 434 625 450 626 433 627 433 627 450 626 451 628 433 627 451 628 432 629 432 629 451 628 452 630 432 629 452 630 431 631 431 631 452 630 453 632 431 631 453 632 430 633 430 633 453 632 454 634 430 633 454 634 429 635 429 635 454 634 455 636 429 635 455 636 428 637 428 637 455 636 456 638 428 637 456 638 427 639 427 639 456 638 457 640 427 639 457 640 426 641 426 641 457 640 458 642 426 641 458 642 425 595 425 595 458 642 459 596 473 643 474 644 472 645 472 645 474 644 489 646 489 646 474 644 475 647 489 646 475 647 488 648 488 648 475 647 476 649 488 648 476 649 487 650 487 650 476 649 477 651 487 650 477 651 486 652 486 652 477 651 478 653 486 652 478 653 485 654 485 654 478 653 479 655 485 654 479 655 484 656 484 656 479 655 480 657 484 656 480 657 483 658 483 658 480 657 481 659 483 658 481 659 482 660 375 661 490 662 358 663 358 663 490 662 491 664 358 663 491 664 492 665 358 663 492 665 499 666 499 666 492 665 493 667 499 666 493 667 494 668 499 666 494 668 498 669 498 669 494 668 495 670 498 669 495 670 497 671 497 671 495 670 496 672 501 673 547 674 500 675 500 675 547 674 524 676 500 675 524 676 523 677 523 677 524 676 525 678 523 677 525 678 522 679 522 679 525 678 526 680 522 679 526 680 521 681 521 681 526 680 527 682 521 681 527 682 520 683 520 683 527 682 528 684 520 683 528 684 519 685 519 685 528 684 529 686 519 685 529 686 518 687 518 687 529 686 530 688 518 687 530 688 517 689 517 689 530 688 531 690 517 689 531 690 516 691 516 691 531 690 532 692 516 691 532 692 515 693 515 693 532 692 533 694 515 693 533 694 514 695 514 695 533 694 534 696 514 695 534 696 513 697 513 697 534 696 535 698 513 697 535 698 512 699 512 699 535 698 536 700 512 699 536 700 537 701 547 674 501 673 546 702 546 702 501 673 502 703 546 702 502 703 545 704 545 704 502 703 503 705 545 704 503 705 544 706 544 706 503 705 504 707 544 706 504 707 543 708 543 708 504 707 505 709 543 708 505 709 542 710 542 710 505 709 506 711 542 710 506 711 541 712 541 712 506 711 507 713 541 712 507 713 540 714 540 714 507 713 508 715 540 714 508 715 539 716 539 716 508 715 509 717 539 716 509 717 538 718 538 718 509 717 510 719 538 718 510 719 537 701 537 701 510 719 511 720 537 701 511 720 512 699 472 721 290 722 548 723 548 723 290 722 313 724 548 723 313 724 312 725 489 726 266 727 472 721 472 721 266 727 200 728 472 721 200 728 199 729 489 726 488 730 266 727 266 727 488 730 267 731 267 731 488 730 268 732 268 732 488 730 269 733 269 733 488 730 270 734 270 734 488 730 271 735 271 735 488 730 272 736 272 736 488 730 487 737 272 736 487 737 486 738 486 738 485 739 272 736 272 736 485 739 484 740 272 736 484 740 273 741 273 741 484 740 483 742 273 741 483 742 274 743 274 743 483 742 275 744 275 744 483 742 482 745 275 744 482 745 276 746 276 746 482 745 277 747 277 747 482 745 278 748 278 748 482 745 279 749 279 749 482 745 321 750 279 749 321 750 280 751 280 751 321 750 320 752 280 751 320 752 281 753 281 753 320 752 282 754 282 754 320 752 319 755 282 754 319 755 283 756 283 756 319 755 318 757 283 756 318 757 468 758 468 758 318 757 469 759 469 759 318 757 317 760 469 759 317 760 470 761 470 761 317 760 316 762 470 761 316 762 471 763 471 763 316 762 315 764 471 763 315 764 448 765 448 765 315 764 314 766 448 765 314 766 449 767 449 767 314 766 337 768 449 767 337 768 450 769 450 769 337 768 336 770 450 769 336 770 451 771 451 771 336 770 335 772 451 771 335 772 452 773 452 773 335 772 334 774 452 773 334 774 453 775 453 775 334 774 333 776 453 775 333 776 223 777 223 777 333 776 224 778 224 778 333 776 332 779 224 778 332 779 225 780 225 780 332 779 331 781 225 780 331 781 226 782 226 782 331 781 227 783 227 783 331 781 330 784 227 783 330 784 228 785 228 785 330 784 329 786 228 785 329 786 229 787 229 787 329 786 328 788 229 787 328 788 230 789 230 789 328 788 549 790 230 789 549 790 231 791 231 791 549 790 232 792 232 792 549 790 233 793 233 793 549 790 506 794 233 793 506 794 234 795 234 795 506 794 235 796 235 796 506 794 505 797 235 796 505 797 259 798 259 798 505 797 504 799 259 798 504 799 503 800 549 790 328 788 482 745 482 745 328 788 327 801 482 745 327 801 326 802 550 803 515 804 549 790 549 790 515 804 514 805 549 790 514 805 513 806 551 807 417 808 550 803 550 803 417 808 416 809 550 803 416 809 520 810 520 810 416 809 415 811 520 810 415 811 521 812 521 812 415 811 414 813 521 812 414 813 413 814 548 723 401 815 551 807 551 807 401 815 400 816 551 807 400 816 423 817 423 817 422 818 551 807 551 807 422 818 421 819 551 807 421 819 420 820 420 820 419 821 551 807 551 807 419 821 418 822 551 807 418 822 417 808 521 812 413 814 522 823 522 823 413 814 412 824 522 823 412 824 523 825 523 825 412 824 411 826 523 825 411 826 261 827 261 827 411 826 410 828 261 827 410 828 409 829 261 827 409 829 262 830 262 830 409 829 408 831 262 830 408 831 548 723 548 723 408 831 407 832 548 723 407 832 406 833 406 833 405 834 548 723 548 723 405 834 404 835 548 723 404 835 403 836 403 836 402 837 548 723 548 723 402 837 401 815 523 825 261 827 500 838 500 838 261 827 260 839 500 838 260 839 501 840 501 840 260 839 502 841 502 841 260 839 503 800 503 800 260 839 259 798 520 810 519 842 550 803 550 803 519 842 518 843 550 803 518 843 517 844 517 844 516 845 550 803 550 803 516 845 515 804 513 806 512 846 549 790 549 790 512 846 511 847 549 790 511 847 510 848 510 848 509 849 549 790 549 790 509 849 508 850 549 790 508 850 507 851 507 851 506 794 549 790 468 758 467 852 283 756 283 756 467 852 284 853 284 853 467 852 466 854 284 853 466 854 285 855 285 855 466 854 465 856 285 855 465 856 286 857 286 857 465 856 203 858 286 857 203 858 287 859 287 859 203 858 288 860 288 860 203 858 289 861 289 861 203 858 266 727 266 727 203 858 202 862 266 727 202 862 201 863 465 856 464 864 203 858 203 858 464 864 463 865 203 858 463 865 462 866 462 866 461 867 203 858 203 858 461 867 204 868 204 868 461 867 460 869 204 868 460 869 205 870 205 870 460 869 206 871 206 871 460 869 459 872 206 871 459 872 458 873 206 871 458 873 246 874 246 874 458 873 457 875 246 874 457 875 456 876 246 874 456 876 247 877 247 877 456 876 455 878 247 877 455 878 248 879 248 879 455 878 222 880 248 879 222 880 221 881 455 878 454 882 222 880 222 880 454 882 223 777 223 777 454 882 453 775 326 802 325 883 482 745 482 745 325 883 324 884 482 745 324 884 323 885 323 885 322 886 482 745 482 745 322 886 321 750 312 725 311 887 548 723 548 723 311 887 310 888 548 723 310 888 264 889 264 889 310 888 265 890 265 890 310 888 309 891 265 890 309 891 242 892 242 892 309 891 243 893 243 893 309 891 308 894 243 893 308 894 307 895 307 895 306 896 243 893 243 893 306 896 305 897 243 893 305 897 304 898 304 898 303 899 243 893 243 893 303 899 302 900 243 893 302 900 301 901 243 893 301 901 209 902 209 902 301 901 300 903 209 902 300 903 210 904 210 904 300 903 299 905 210 904 299 905 211 906 211 906 299 905 212 907 212 907 299 905 213 908 213 908 299 905 214 909 214 909 299 905 215 910 215 910 299 905 216 911 216 911 299 905 217 912 217 912 299 905 194 913 194 913 299 905 298 914 194 913 298 914 297 915 297 915 296 916 194 913 194 913 296 916 295 917 194 913 295 917 294 918 294 918 293 919 194 913 194 913 293 919 292 920 194 913 292 920 472 721 472 721 292 920 291 921 472 721 291 921 290 722 264 889 263 922 548 723 548 723 263 922 262 830 259 798 258 923 235 796 235 796 258 923 236 924 236 924 258 923 257 925 236 924 257 925 237 926 237 926 257 925 256 927 237 926 256 927 255 928 237 926 255 928 238 929 238 929 255 928 254 930 238 929 254 930 253 931 238 929 253 931 239 932 239 932 253 931 252 933 239 932 252 933 240 934 240 934 252 933 251 935 240 934 251 935 241 936 241 936 251 935 250 937 241 936 250 937 218 938 218 938 250 937 219 939 219 939 250 937 249 940 219 939 249 940 220 941 220 941 249 940 221 881 221 881 249 940 248 879 246 874 245 942 206 871 206 871 245 942 244 943 206 871 244 943 243 893 209 902 208 944 243 893 243 893 208 944 207 945 243 893 207 945 206 871 201 863 200 728 266 727 199 729 198 946 472 721 472 721 198 946 197 947 472 721 197 947 196 948 196 948 195 949 472 721 472 721 195 949 194 913 552 950 497 951 548 952 548 952 497 951 496 953 548 952 496 953 472 645 472 645 496 953 473 643 554 954 555 955 553 956 553 956 555 955 551 957 551 957 555 955 552 958 551 957 552 958 548 959 550 960 556 961 551 962 551 962 556 961 553 963 557 964 558 965 563 966 563 966 558 965 356 967 356 967 558 965 357 968 357 968 558 965 559 969 357 968 559 969 342 970 342 970 559 969 550 971 342 970 550 971 562 972 562 972 550 971 549 973 562 972 549 973 561 974 560 975 556 976 559 969 559 969 556 976 550 971 481 659 561 977 482 660 482 660 561 977 549 978 49 979 565 980 25 981 25 981 565 980 562 982 25 981 562 982 561 983 565 980 49 979 564 984 564 984 49 979 48 985 564 984 48 985 47 986 564 984 47 986 493 987 493 987 47 986 46 988 493 987 46 988 45 989 45 989 44 990 493 987 493 987 44 990 494 991 494 991 44 990 495 992 495 992 44 990 496 993 496 993 44 990 43 994 496 993 43 994 42 995 42 995 41 996 496 993 496 993 41 996 473 997 473 997 41 996 40 998 473 997 40 998 39 999 39 999 38 1000 473 997 473 997 38 1000 474 1001 474 1001 38 1000 475 1002 475 1002 38 1000 476 1003 476 1003 38 1000 37 1004 476 1003 37 1004 477 1005 477 1005 37 1004 478 1006 478 1006 37 1004 479 1007 479 1007 37 1004 36 1008 479 1007 36 1008 480 1009 480 1009 36 1008 35 1010 480 1009 35 1010 481 1011 481 1011 35 1010 34 1012 481 1011 34 1012 33 1013 33 1013 32 1014 481 1011 481 1011 32 1014 31 1015 481 1011 31 1015 561 983 561 983 31 1015 30 1016 561 983 30 1016 29 1017 29 1017 28 1018 561 983 561 983 28 1018 27 1019 561 983 27 1019 26 1020 26 1020 25 981 561 983 376 1021 399 1022 377 1023 377 1023 399 1022 398 1024 377 1023 398 1024 378 1025 378 1025 398 1024 397 1026 378 1025 397 1026 379 1027 379 1027 397 1026 396 1028 379 1027 396 1028 380 1029 380 1029 396 1028 395 1030 380 1029 395 1030 381 1031 381 1031 395 1030 394 1032 381 1031 394 1032 382 1033 382 1033 394 1032 393 1034 382 1033 393 1034 383 1035 383 1035 393 1034 392 1036 383 1035 392 1036 384 1037 384 1037 392 1036 391 1038 384 1037 391 1038 385 1039 385 1039 391 1038 390 1040 385 1039 390 1040 386 1041 386 1041 390 1040 389 1042 386 1041 389 1042 387 1043 387 1043 389 1042 388 1044 424 1045 447 1046 425 1047 425 1047 447 1046 446 1048 425 1047 446 1048 426 1049 426 1049 446 1048 445 1050 426 1049 445 1050 427 1051 427 1051 445 1050 444 1052 427 1051 444 1052 428 1053 428 1053 444 1052 443 1054 428 1053 443 1054 429 1055 429 1055 443 1054 442 1056 429 1055 442 1056 430 1057 430 1057 442 1056 441 1058 430 1057 441 1058 431 1059 431 1059 441 1058 440 1060 431 1059 440 1060 432 1061 432 1061 440 1060 439 1062 432 1061 439 1062 433 1063 433 1063 439 1062 438 1064 433 1063 438 1064 434 1065 434 1065 438 1064 437 1066 434 1065 437 1066 435 1067 435 1067 437 1066 436 1068 566 1069 351 1070 366 1071 366 1071 351 1070 350 1072 366 1071 350 1072 341 1073 341 1073 350 1072 349 1074 341 1073 349 1074 338 1075 366 1071 365 1076 566 1069 566 1069 365 1076 364 1077 566 1069 364 1077 552 1078 552 1078 364 1077 363 1079 552 1078 363 1079 362 1080 362 1080 361 1081 552 1078 552 1078 361 1081 360 1082 552 1078 360 1082 359 1083 359 1083 358 1084 552 1078 552 1078 358 1084 499 1085 552 1078 499 1085 498 1086 498 1086 497 1087 552 1078 552 1078 555 1088 566 1069 560 1089 567 1090 556 1091 556 1091 567 1090 553 1092 553 1092 567 1090 568 1093 553 1092 568 1093 554 1094 554 1094 568 1093 563 1095 563 1095 568 1093 557 1096 356 1097 355 1098 563 1099 563 1099 355 1098 354 1100 563 1099 354 1100 353 1101 352 1102 351 1103 353 1101 353 1101 351 1103 563 1099 351 1103 566 1104 563 1099 563 1099 566 1104 554 1105 554 1105 566 1104 555 1106 568 1107 569 1108 557 1109 557 1109 569 1108 558 1110 570 1111 346 1112 565 1113 565 1113 346 1112 344 1114 565 1113 344 1114 343 1115 346 1112 345 1116 344 1114 343 1115 342 1117 565 1113 565 1113 342 1117 562 1118 571 1119 567 1120 559 1121 559 1121 567 1120 560 1122 569 1123 571 1124 558 1125 558 1125 571 1124 559 1126 573 1127 570 1128 572 1129 572 1129 570 1128 565 1130 572 1129 565 1130 564 1131 493 1132 492 1133 564 1134 564 1134 492 1133 572 1135 339 1136 348 1137 340 1138 340 1138 348 1137 367 1139 367 1139 348 1137 347 1140 367 1139 347 1140 368 1141 368 1141 347 1140 369 1142 369 1142 347 1140 572 1143 369 1142 572 1143 370 1144 370 1144 572 1143 371 1145 371 1145 572 1143 372 1146 372 1146 572 1143 373 1147 373 1147 572 1143 374 1148 374 1148 572 1143 375 1149 375 1149 572 1143 490 1150 490 1150 572 1143 491 1151 491 1151 572 1143 492 1152 347 1140 573 1153 572 1143 571 1154 569 1155 567 1156 567 1156 569 1155 568 1157 346 1158 570 1159 347 1160 347 1160 570 1159 573 1161 524 1162 547 1163 525 1164 525 1164 547 1163 526 1165 526 1165 547 1163 546 1166 526 1165 546 1166 527 1167 527 1167 546 1166 545 1168 527 1167 545 1168 528 1169 528 1169 545 1168 544 1170 528 1169 544 1170 529 1171 529 1171 544 1170 543 1172 529 1171 543 1172 530 1173 530 1173 543 1172 542 1174 530 1173 542 1174 531 1175 531 1175 542 1174 541 1176 531 1175 541 1176 532 1177 532 1177 541 1176 540 1178 532 1177 540 1178 533 1179 533 1179 540 1178 539 1180 533 1179 539 1180 534 1181 534 1181 539 1180 538 1182 534 1181 538 1182 535 1183 535 1183 538 1182 537 1184 535 1183 537 1184 536 1185</p>
        </triangles>
      </mesh>
    </geometry>
  </library_geometries>
  <library_visual_scenes>
    <visual_scene id="Scene" name="Scene">
      <node id="FootBaseRight-node" name="FootBaseRight" type="NODE">
        <instance_geometry url="#FootBaseRight-mesh">
          <bind_material>
            <technique_common>
              <instance_material symbol="Powder_Coat__White_" target="#Powder_Coat__White_"/>
            </technique_common>
          </bind_material>
        </instance_geometry>
      </node>
    </visual_scene>
  </library_visual_scenes>
  <scene>
    <instance_visual_scene url="#Scene"/>
  </scene>
</COLLADA>
