<?xml version="1.0" encoding="utf-8"?>
<COLLADA xmlns="http://www.collada.org/2005/11/COLLADASchema" version="1.4.1">
  <asset>
    <contributor>
      <authoring_tool>Fusion URDF/XACRO Exporter</authoring_tool>
    </contributor>
    <created>2026-06-08T18:29:33Z</created>
    <modified>2026-06-08T18:29:33Z</modified>
    <unit name="meter" meter="1.0"/>
    <up_axis>Z_UP</up_axis>
  </asset>
  <library_effects>
    <effect id="Powder_Coat__White_-effect">
      <profile_COMMON>
        <technique sid="common">
          <lambert>
            <emission><color>0 0 0 1</color></emission>
            <ambient><color>0.0000 0.0000 0.0000 1</color></ambient>
            <diffuse><color>0.9647 0.9647 0.9529 1</color></diffuse>
            <reflective><color>0 0 0 1</color></reflective>
            <transparent opaque="A_ONE"><color>1 1 1 1</color></transparent>
            <transparency><float>1</float></transparency>
          </lambert>
        </technique>
      </profile_COMMON>
    </effect>
  </library_effects>
  <library_materials>
    <material id="Powder_Coat__White_" name="Powder_Coat_(White)">
      <instance_effect url="#Powder_Coat__White_-effect"/>
    </material>
  </library_materials>
  <library_geometries>
    <geometry id="FootBaseLeft-mesh" name="FootBaseLeft">
      <mesh>
        <source id="FootBaseLeft-mesh-positions">
          <float_array id="FootBaseLeft-mesh-positions-array" count="1722">0.118071 0.137704 -0.246786 0.118071 0.142677 -0.246158 0.118071 0.147339 -0.244312 0.118071 0.151395 -0.241365 0.118071 0.154590 -0.237503 0.118071 0.156725 -0.232966 0.118071 0.157664 -0.228042 0.118071 0.157349 -0.223038 0.118071 0.155800 -0.218270 0.118071 0.153114 -0.214038 0.118071 0.149459 -0.210606 0.118071 0.145066 -0.208191 0.118071 0.140210 -0.206944 0.118071 0.135197 -0.206944 0.118071 0.130341 -0.208191 0.118071 0.125948 -0.210606 0.118071 0.122293 -0.214038 0.118071 0.119607 -0.218270 0.118071 0.118058 -0.223038 0.118071 0.117743 -0.228042 0.118071 0.118683 -0.232966 0.118071 0.120817 -0.237503 0.118071 0.124013 -0.241365 0.118071 0.128069 -0.244312 0.118071 0.132730 -0.246158 0.121071 0.137704 -0.246786 0.121071 0.132730 -0.246158 0.121071 0.128069 -0.244312 0.121071 0.124013 -0.241365 0.121071 0.120817 -0.237503 0.121071 0.118683 -0.232966 0.121071 0.117743 -0.228042 0.121071 0.118058 -0.223038 0.121071 0.119607 -0.218270 0.121071 0.122293 -0.214038 0.121071 0.125948 -0.210606 0.121071 0.130341 -0.208191 0.121071 0.135197 -0.206944 0.121071 0.140210 -0.206944 0.121071 0.145066 -0.208191 0.121071 0.149459 -0.210606 0.121071 0.153114 -0.214038 0.121071 0.155800 -0.218270 0.121071 0.157349 -0.223038 0.121071 0.157664 -0.228042 0.121071 0.156725 -0.232966 0.121071 0.154590 -0.237503 0.121071 0.151395 -0.241365 0.121071 0.147339 -0.244312 0.121071 0.142677 -0.246158 0.118071 0.149295 -0.225430 0.118071 0.149748 -0.225371 0.118071 0.150170 -0.225196 0.118071 0.150532 -0.224918 0.118071 0.150810 -0.224555 0.118071 0.150985 -0.224133 0.118071 0.151045 -0.223680 0.118071 0.150985 -0.223227 0.118071 0.150810 -0.222805 0.118071 0.150532 -0.222443 0.118071 0.150170 -0.222165 0.118071 0.149748 -0.221990 0.118071 0.149295 -0.221930 0.118071 0.148842 -0.221990 0.118071 0.148420 -0.222165 0.118071 0.148057 -0.222443 0.118071 0.147779 -0.222805 0.118071 0.147604 -0.223227 0.118071 0.147545 -0.223680 0.118071 0.147604 -0.224133 0.118071 0.147779 -0.224555 0.118071 0.148057 -0.224918 0.118071 0.148420 -0.225196 0.118071 0.148842 -0.225371 0.118071 0.129218 -0.220051 0.118071 0.129671 -0.219991 0.118071 0.130093 -0.219816 0.118071 0.130456 -0.219538 0.118071 0.130734 -0.219176 0.118071 0.130909 -0.218754 0.118071 0.130968 -0.218301 0.118071 0.130909 -0.217848 0.118071 0.130734 -0.217426 0.118071 0.130456 -0.217063 0.118071 0.130093 -0.216785 0.118071 0.129671 -0.216610 0.118071 0.129218 -0.216551 0.118071 0.128765 -0.216610 0.118071 0.128343 -0.216785 0.118071 0.127981 -0.217063 0.118071 0.127703 -0.217426 0.118071 0.127528 -0.217848 0.118071 0.127468 -0.218301 0.118071 0.127528 -0.218754 0.118071 0.127703 -0.219176 0.118071 0.127981 -0.219538 0.118071 0.128343 -0.219816 0.118071 0.128765 -0.219991 0.118071 0.146189 -0.237021 0.118071 0.146642 -0.236962 0.118071 0.147064 -0.236787 0.118071 0.147426 -0.236509 0.118071 0.147705 -0.236146 0.118071 0.147879 -0.235724 0.118071 0.147939 -0.235271 0.118071 0.147879 -0.234818 0.118071 0.147705 -0.234396 0.118071 0.147426 -0.234034 0.118071 0.147064 -0.233756 0.118071 0.146642 -0.233581 0.118071 0.146189 -0.233521 0.118071 0.145736 -0.233581 0.118071 0.145314 -0.233756 0.118071 0.144952 -0.234034 0.118071 0.144673 -0.234396 0.118071 0.144499 -0.234818 0.118071 0.144439 -0.235271 0.118071 0.144499 -0.235724 0.118071 0.144673 -0.236146 0.118071 0.144952 -0.236509 0.118071 0.145314 -0.236787 0.118071 0.145736 -0.236962 0.118071 0.126113 -0.231642 0.118071 0.126566 -0.231582 0.118071 0.126988 -0.231407 0.118071 0.127350 -0.231129 0.118071 0.127628 -0.230767 0.118071 0.127803 -0.230345 0.118071 0.127863 -0.229892 0.118071 0.127803 -0.229439 0.118071 0.127628 -0.229017 0.118071 0.127350 -0.228654 0.118071 0.126988 -0.228376 0.118071 0.126566 -0.228201 0.118071 0.126113 -0.228142 0.118071 0.125660 -0.228201 0.118071 0.125238 -0.228376 0.118071 0.124875 -0.228654 0.118071 0.124597 -0.229017 0.118071 0.124422 -0.229439 0.118071 0.124363 -0.229892 0.118071 0.124422 -0.230345 0.118071 0.124597 -0.230767 0.118071 0.124875 -0.231129 0.118071 0.125238 -0.231407 0.118071 0.125660 -0.231582 0.118071 0.134598 -0.240127 0.118071 0.135051 -0.240068 0.118071 0.135473 -0.239893 0.118071 0.135835 -0.239615 0.118071 0.136113 -0.239252 0.118071 0.136288 -0.238830 0.118071 0.136348 -0.238377 0.118071 0.136288 -0.237924 0.118071 0.136113 -0.237502 0.118071 0.135835 -0.237140 0.118071 0.135473 -0.236862 0.118071 0.135051 -0.236687 0.118071 0.134598 -0.236627 0.118071 0.134145 -0.236687 0.118071 0.133723 -0.236862 0.118071 0.133360 -0.237140 0.118071 0.133082 -0.237502 0.118071 0.132907 -0.237924 0.118071 0.132848 -0.238377 0.118071 0.132907 -0.238830 0.118071 0.133082 -0.239252 0.118071 0.133360 -0.239615 0.118071 0.133723 -0.239893 0.118071 0.134145 -0.240068 0.118071 0.140810 -0.216945 0.118071 0.141262 -0.216885 0.118071 0.141685 -0.216710 0.118071 0.142047 -0.216432 0.118071 0.142325 -0.216070 0.118071 0.142500 -0.215648 0.118071 0.142560 -0.215195 0.118071 0.142500 -0.214742 0.118071 0.142325 -0.214320 0.118071 0.142047 -0.213957 0.118071 0.141685 -0.213679 0.118071 0.141262 -0.213505 0.118071 0.140810 -0.213445 0.118071 0.140357 -0.213505 0.118071 0.139935 -0.213679 0.118071 0.139572 -0.213957 0.118071 0.139294 -0.214320 0.118071 0.139119 -0.214742 0.118071 0.139060 -0.215195 0.118071 0.139119 -0.215648 0.118071 0.139294 -0.216070 0.118071 0.139572 -0.216432 0.118071 0.139935 -0.216710 0.118071 0.140357 -0.216885 0.128071 0.127468 -0.218301 0.128071 0.127528 -0.218754 0.128071 0.127703 -0.219176 0.128071 0.127981 -0.219538 0.128071 0.128343 -0.219816 0.128071 0.128765 -0.219991 0.128071 0.129218 -0.220051 0.128071 0.129671 -0.219991 0.128071 0.130093 -0.219816 0.128071 0.130456 -0.219538 0.128071 0.130734 -0.219176 0.128071 0.130909 -0.218754 0.128071 0.130968 -0.218301 0.128071 0.130909 -0.217848 0.128071 0.130734 -0.217426 0.128071 0.130456 -0.217063 0.128071 0.130093 -0.216785 0.128071 0.129671 -0.216610 0.128071 0.129218 -0.216551 0.128071 0.128765 -0.216610 0.128071 0.128343 -0.216785 0.128071 0.127981 -0.217063 0.128071 0.127703 -0.217426 0.128071 0.127528 -0.217848 0.128071 0.144439 -0.235271 0.128071 0.144499 -0.235724 0.128071 0.144673 -0.236146 0.128071 0.144952 -0.236509 0.128071 0.145314 -0.236787 0.128071 0.145736 -0.236962 0.128071 0.146189 -0.237021 0.128071 0.146642 -0.236962 0.128071 0.147064 -0.236787 0.128071 0.147426 -0.236509 0.128071 0.147705 -0.236146 0.128071 0.147879 -0.235724 0.128071 0.147939 -0.235271 0.128071 0.147879 -0.234818 0.128071 0.147705 -0.234396 0.128071 0.147426 -0.234034 0.128071 0.147064 -0.233756 0.128071 0.146642 -0.233581 0.128071 0.146189 -0.233521 0.128071 0.145736 -0.233581 0.128071 0.145314 -0.233756 0.128071 0.144952 -0.234034 0.128071 0.144673 -0.234396 0.128071 0.144499 -0.234818 0.128071 0.132848 -0.238377 0.128071 0.132907 -0.238830 0.128071 0.133082 -0.239252 0.128071 0.133360 -0.239615 0.128071 0.133723 -0.239893 0.128071 0.134145 -0.240068 0.128071 0.134598 -0.240127 0.128071 0.135051 -0.240068 0.128071 0.135473 -0.239893 0.128071 0.135835 -0.239615 0.128071 0.136113 -0.239252 0.128071 0.136288 -0.238830 0.128071 0.136348 -0.238377 0.128071 0.136288 -0.237924 0.128071 0.136113 -0.237502 0.128071 0.135835 -0.237140 0.128071 0.135473 -0.236862 0.128071 0.135051 -0.236687 0.128071 0.134598 -0.236627 0.128071 0.134145 -0.236687 0.128071 0.133723 -0.236862 0.128071 0.133360 -0.237140 0.128071 0.133082 -0.237502 0.128071 0.132907 -0.237924 0.128071 0.139060 -0.215195 0.128071 0.139119 -0.215648 0.128071 0.139294 -0.216070 0.128071 0.139572 -0.216432 0.128071 0.139935 -0.216710 0.128071 0.140357 -0.216885 0.128071 0.140810 -0.216945 0.128071 0.141262 -0.216885 0.128071 0.141685 -0.216710 0.128071 0.142047 -0.216432 0.128071 0.142325 -0.216070 0.128071 0.142500 -0.215648 0.128071 0.142560 -0.215195 0.128071 0.142500 -0.214742 0.128071 0.142325 -0.214320 0.128071 0.142047 -0.213957 0.128071 0.141685 -0.213679 0.128071 0.141262 -0.213505 0.128071 0.140810 -0.213445 0.128071 0.140357 -0.213505 0.128071 0.139935 -0.213679 0.128071 0.139572 -0.213957 0.128071 0.139294 -0.214320 0.128071 0.139119 -0.214742 0.128071 0.124363 -0.229892 0.128071 0.124422 -0.230345 0.128071 0.124597 -0.230767 0.128071 0.124875 -0.231129 0.128071 0.125238 -0.231407 0.128071 0.125660 -0.231582 0.128071 0.126113 -0.231642 0.128071 0.126566 -0.231582 0.128071 0.126988 -0.231407 0.128071 0.127350 -0.231129 0.128071 0.127628 -0.230767 0.128071 0.127803 -0.230345 0.128071 0.127863 -0.229892 0.128071 0.127803 -0.229439 0.128071 0.127628 -0.229017 0.128071 0.127350 -0.228654 0.128071 0.126988 -0.228376 0.128071 0.126566 -0.228201 0.128071 0.126113 -0.228142 0.128071 0.125660 -0.228201 0.128071 0.125238 -0.228376 0.128071 0.124875 -0.228654 0.128071 0.124597 -0.229017 0.128071 0.124422 -0.229439 0.128071 0.147545 -0.223680 0.128071 0.147604 -0.224133 0.128071 0.147779 -0.224555 0.128071 0.148057 -0.224918 0.128071 0.148420 -0.225196 0.128071 0.148842 -0.225371 0.128071 0.149295 -0.225430 0.128071 0.149748 -0.225371 0.128071 0.150170 -0.225196 0.128071 0.150532 -0.224918 0.128071 0.150810 -0.224555 0.128071 0.150985 -0.224133 0.128071 0.151045 -0.223680 0.128071 0.150985 -0.223227 0.128071 0.150810 -0.222805 0.128071 0.150532 -0.222443 0.128071 0.150170 -0.222165 0.128071 0.149748 -0.221990 0.128071 0.149295 -0.221930 0.128071 0.148842 -0.221990 0.128071 0.148420 -0.222165 0.128071 0.148057 -0.222443 0.128071 0.147779 -0.222805 0.128071 0.147604 -0.223227 0.079648 0.142261 -0.279586 0.077554 0.145217 -0.279410 0.079262 0.124847 -0.275317 0.081108 0.124847 -0.276087 0.114071 0.103694 -0.280690 0.114474 0.126790 -0.280287 0.115686 0.149822 -0.279075 0.117715 0.172872 -0.277047 0.120570 0.196023 -0.274191 0.098429 0.196023 -0.274160 0.077021 0.196023 -0.274126 0.077021 0.175907 -0.276725 0.077021 0.155741 -0.278663 0.077021 0.135526 -0.279940 0.077021 0.115262 -0.280557 0.077045 0.114041 -0.280631 0.077076 0.115261 -0.280557 0.077240 0.130253 -0.280164 0.079309 0.123005 -0.280400 0.079210 0.103693 -0.280690 0.080101 0.117566 -0.273307 0.081355 0.110700 -0.270300 0.082996 0.104409 -0.266366 0.084987 0.098838 -0.261596 0.087280 0.094117 -0.256100 0.089822 0.090354 -0.250006 0.092555 0.087638 -0.243456 0.095415 0.086032 -0.236601 0.098335 0.085571 -0.229600 0.100443 0.085587 -0.229742 0.097492 0.085953 -0.236817 0.094596 0.087490 -0.243757 0.091826 0.090162 -0.250397 0.089246 0.093906 -0.256580 0.086918 0.098633 -0.262160 0.084897 0.104232 -0.267005 0.083230 0.110569 -0.271001 0.081957 0.117495 -0.274052 0.123571 0.033668 -0.275690 0.123571 0.033715 -0.275327 0.123571 0.033855 -0.274990 0.123571 0.034078 -0.274700 0.123571 0.034368 -0.274477 0.123571 0.034705 -0.274337 0.123571 0.035068 -0.274290 0.123571 0.035430 -0.274337 0.123571 0.035768 -0.274477 0.123571 0.036058 -0.274700 0.123571 0.036280 -0.274990 0.123571 0.036420 -0.275327 0.123571 0.036468 -0.275690 0.123571 0.036420 -0.276052 0.123571 0.036280 -0.276390 0.123571 0.036058 -0.276680 0.123571 0.035768 -0.276902 0.123571 0.035430 -0.277042 0.123571 0.035068 -0.277090 0.123571 0.034705 -0.277042 0.123571 0.034368 -0.276902 0.123571 0.034078 -0.276680 0.123571 0.033855 -0.276390 0.123571 0.033715 -0.276052 0.128071 0.033668 -0.275690 0.128071 0.033715 -0.276052 0.128071 0.033855 -0.276390 0.128071 0.034078 -0.276680 0.128071 0.034368 -0.276902 0.128071 0.034705 -0.277042 0.128071 0.035068 -0.277090 0.128071 0.035430 -0.277042 0.128071 0.035768 -0.276902 0.128071 0.036058 -0.276680 0.128071 0.036280 -0.276390 0.128071 0.036420 -0.276052 0.128071 0.036468 -0.275690 0.128071 0.036420 -0.275327 0.128071 0.036280 -0.274990 0.128071 0.036058 -0.274700 0.128071 0.035768 -0.274477 0.128071 0.035430 -0.274337 0.128071 0.035068 -0.274290 0.128071 0.034705 -0.274337 0.128071 0.034368 -0.274477 0.128071 0.034078 -0.274700 0.128071 0.033855 -0.274990 0.128071 0.033715 -0.275327 0.123571 0.137086 -0.223267 0.123571 0.137134 -0.222904 0.123571 0.137273 -0.222567 0.123571 0.137496 -0.222277 0.123571 0.137786 -0.222054 0.123571 0.138124 -0.221914 0.123571 0.138486 -0.221867 0.123571 0.138848 -0.221914 0.123571 0.139186 -0.222054 0.123571 0.139476 -0.222277 0.123571 0.139698 -0.222567 0.123571 0.139838 -0.222904 0.123571 0.139886 -0.223267 0.123571 0.139838 -0.223629 0.123571 0.139698 -0.223967 0.123571 0.139476 -0.224257 0.123571 0.139186 -0.224479 0.123571 0.138848 -0.224619 0.123571 0.138486 -0.224667 0.123571 0.138124 -0.224619 0.123571 0.137786 -0.224479 0.123571 0.137496 -0.224257 0.123571 0.137273 -0.223967 0.123571 0.137134 -0.223629 0.128071 0.139886 -0.223267 0.128071 0.139838 -0.222904 0.128071 0.139698 -0.222567 0.128071 0.139476 -0.222277 0.128071 0.139186 -0.222054 0.128071 0.138848 -0.221914 0.128071 0.138486 -0.221867 0.128071 0.138124 -0.221914 0.128071 0.137786 -0.222054 0.128071 0.137496 -0.222277 0.128071 0.137273 -0.222567 0.128071 0.137134 -0.222904 0.128071 0.137086 -0.223267 0.128071 0.137134 -0.223629 0.128071 0.137273 -0.223967 0.128071 0.137496 -0.224257 0.128071 0.137786 -0.224479 0.128071 0.138124 -0.224619 0.128071 0.138486 -0.224667 0.128071 0.138848 -0.224619 0.128071 0.139186 -0.224479 0.128071 0.139476 -0.224257 0.128071 0.139698 -0.223967 0.128071 0.139838 -0.223629 0.121071 0.121946 -0.203039 0.128071 0.121946 -0.203039 0.128071 0.127008 -0.200369 0.128071 0.132501 -0.198765 0.128071 0.138204 -0.198290 0.128071 0.143887 -0.198965 0.128071 0.149321 -0.200761 0.128071 0.154286 -0.203607 0.128071 0.158583 -0.207387 0.128071 0.162037 -0.211949 0.121071 0.162037 -0.211949 0.121071 0.158583 -0.207387 0.121071 0.154286 -0.203607 0.121071 0.149321 -0.200761 0.121071 0.143887 -0.198965 0.121071 0.138204 -0.198290 0.121071 0.132501 -0.198765 0.121071 0.127008 -0.200369 0.098654 0.085496 -0.228835 0.098974 0.085432 -0.228069 0.099294 0.085380 -0.227303 0.121071 0.085380 -0.227303 0.121071 0.085431 -0.228062 0.121071 0.085495 -0.228820 0.121071 0.085569 -0.229577 0.100512 0.085569 -0.229577 0.100489 0.085575 -0.229632 0.100466 0.085581 -0.229687 0.128071 0.177855 -0.269330 0.128071 0.177909 -0.269744 0.128071 0.178069 -0.270130 0.128071 0.178324 -0.270461 0.128071 0.178655 -0.270716 0.128071 0.179041 -0.270875 0.128071 0.179455 -0.270930 0.128071 0.179869 -0.270875 0.128071 0.180255 -0.270716 0.128071 0.180586 -0.270461 0.128071 0.180841 -0.270130 0.128071 0.181000 -0.269744 0.128071 0.181055 -0.269330 0.128071 0.181000 -0.268916 0.128071 0.180841 -0.268530 0.128071 0.180586 -0.268199 0.128071 0.180255 -0.267944 0.128071 0.179869 -0.267785 0.128071 0.179455 -0.267730 0.128071 0.179041 -0.267785 0.128071 0.178655 -0.267944 0.128071 0.178324 -0.268199 0.128071 0.178069 -0.268530 0.128071 0.177909 -0.268916 0.122071 0.177855 -0.269330 0.122071 0.177909 -0.268916 0.122071 0.178069 -0.268530 0.122071 0.178324 -0.268199 0.122071 0.178655 -0.267944 0.122071 0.179041 -0.267785 0.122071 0.179455 -0.267730 0.122071 0.179869 -0.267785 0.122071 0.180255 -0.267944 0.122071 0.180586 -0.268199 0.122071 0.180841 -0.268530 0.122071 0.181000 -0.268916 0.122071 0.181055 -0.269330 0.122071 0.181000 -0.269744 0.122071 0.180841 -0.270130 0.122071 0.180586 -0.270461 0.122071 0.180255 -0.270716 0.122071 0.179869 -0.270875 0.122071 0.179455 -0.270930 0.122071 0.179041 -0.270875 0.122071 0.178655 -0.270716 0.122071 0.178324 -0.270461 0.122071 0.178069 -0.270130 0.122071 0.177909 -0.269744 0.128071 0.026023 -0.266690 0.128071 0.026023 -0.280690 0.128071 0.196023 -0.280690 0.128071 0.196023 -0.267690 0.082861 0.026023 -0.266690 0.077021 0.026023 -0.292690 0.121071 0.026023 -0.292690 0.077021 0.026023 -0.280690 0.121071 0.196023 -0.292690 0.092425 0.196023 -0.285940 0.095318 0.196023 -0.292690 0.077021 0.196023 -0.292690 0.121071 0.196023 -0.273690 0.121071 0.196023 -0.267690 0.102774 0.196023 -0.292690 0.105667 0.196023 -0.285940 0.121071 0.028023 -0.273690 0.121071 0.028023 -0.267763 0.077021 0.103695 -0.280690 0.102774 0.041023 -0.292690 0.095318 0.041023 -0.292690 0.092425 0.041023 -0.285940 0.114071 0.028023 -0.280690 0.105667 0.041023 -0.285940 0.079188 0.028023 -0.280690 0.084581 0.028023 -0.267763</float_array>
          <technique_common>
            <accessor source="#FootBaseLeft-mesh-positions-array" count="574" stride="3">
              <param name="X" type="float"/>
              <param name="Y" type="float"/>
              <param name="Z" type="float"/>
            </accessor>
          </technique_common>
        </source>
        <source id="FootBaseLeft-mesh-normals">
          <float_array id="FootBaseLeft-mesh-normals-array" count="3558">-0.000000 0.248690 -0.968583 -0.000000 0.248690 -0.968583 -0.000000 0.000000 -1.000000 -0.000000 0.000000 -1.000000 -0.000000 -0.248690 -0.968583 -0.000000 -0.248690 -0.968583 -0.000000 -0.481754 -0.876307 -0.000000 -0.481754 -0.876307 -0.000000 -0.684547 -0.728969 -0.000000 -0.684547 -0.728969 -0.000000 -0.844328 -0.535827 -0.000000 -0.844328 -0.535827 -0.000000 -0.951057 -0.309017 -0.000000 -0.951057 -0.309017 -0.000000 -0.998027 -0.062791 -0.000000 -0.998027 -0.062791 -0.000000 -0.982287 0.187381 -0.000000 -0.982287 0.187381 -0.000000 -0.904827 0.425779 -0.000000 -0.904827 0.425779 -0.000000 -0.770513 0.637424 -0.000000 -0.770513 0.637424 -0.000000 -0.587785 0.809017 -0.000000 -0.587785 0.809017 -0.000000 -0.368125 0.929776 -0.000000 -0.368125 0.929776 -0.000000 -0.125333 0.992115 -0.000000 -0.125333 0.992115 0.000000 0.125333 0.992115 0.000000 0.125333 0.992115 0.000000 0.368125 0.929776 0.000000 0.368125 0.929776 0.000000 0.587785 0.809017 0.000000 0.587785 0.809017 0.000000 0.770513 0.637424 0.000000 0.770513 0.637424 0.000000 0.904827 0.425779 0.000000 0.904827 0.425779 0.000000 0.982287 0.187381 0.000000 0.982287 0.187381 -0.000000 0.998027 -0.062791 -0.000000 0.998027 -0.062791 -0.000000 0.951057 -0.309017 -0.000000 0.951057 -0.309017 -0.000000 0.844328 -0.535827 -0.000000 0.844328 -0.535827 -0.000000 0.684547 -0.728969 -0.000000 0.684547 -0.728969 -0.000000 0.481754 -0.876307 -0.000000 0.481754 -0.876307 -1.000000 0.000000 0.000000 -1.000000 0.000000 0.000000 -1.000000 0.000000 0.000000 -1.000000 0.000000 0.000000 -1.000000 0.000000 0.000000 -1.000000 0.000000 0.000000 -1.000000 0.000000 0.000000 -1.000000 0.000000 0.000000 -1.000000 0.000000 0.000000 -1.000000 0.000000 0.000000 -1.000000 0.000000 0.000000 -1.000000 0.000000 0.000000 -1.000000 0.000000 0.000000 -1.000000 0.000000 0.000000 -1.000000 0.000000 0.000000 -1.000000 0.000000 0.000000 -1.000000 0.000000 0.000000 -1.000000 0.000000 0.000000 -1.000000 0.000000 0.000000 -1.000000 0.000000 0.000000 -1.000000 0.000000 0.000000 -1.000000 0.000000 0.000000 -1.000000 0.000000 0.000000 -1.000000 0.000000 0.000000 -1.000000 0.000000 0.000000 -1.000000 0.000000 0.000000 -1.000000 0.000000 0.000000 -1.000000 0.000000 0.000000 -1.000000 0.000000 0.000000 -1.000000 0.000000 0.000000 -1.000000 0.000000 0.000000 -1.000000 0.000000 0.000000 -1.000000 0.000000 0.000000 -1.000000 0.000000 0.000000 -1.000000 0.000000 0.000000 -1.000000 0.000000 0.000000 -1.000000 0.000000 0.000000 -1.000000 0.000000 0.000000 -1.000000 0.000000 0.000000 -1.000000 0.000000 0.000000 -1.000000 0.000000 0.000000 -1.000000 0.000000 0.000000 -1.000000 0.000000 0.000000 -1.000000 0.000000 0.000000 -1.000000 0.000000 0.000000 -1.000000 0.000000 0.000000 -1.000000 0.000000 0.000000 -1.000000 0.000000 0.000000 -1.000000 0.000000 0.000000 -1.000000 0.000000 0.000000 -1.000000 0.000000 0.000000 -1.000000 0.000000 0.000000 -1.000000 0.000000 0.000000 -1.000000 0.000000 0.000000 -1.000000 0.000000 0.000000 -1.000000 0.000000 0.000000 -1.000000 0.000000 0.000000 -1.000000 0.000000 0.000000 -1.000000 0.000000 0.000000 -1.000000 0.000000 0.000000 -1.000000 0.000000 0.000000 -1.000000 0.000000 0.000000 -1.000000 0.000000 0.000000 -1.000000 0.000000 0.000000 -1.000000 0.000000 0.000000 -1.000000 0.000000 0.000000 -1.000000 0.000000 0.000000 -1.000000 0.000000 0.000000 -1.000000 0.000000 0.000000 -1.000000 0.000000 0.000000 -1.000000 0.000000 0.000000 -1.000000 0.000000 0.000000 -1.000000 0.000000 0.000000 -1.000000 0.000000 0.000000 -1.000000 0.000000 0.000000 -1.000000 0.000000 0.000000 -1.000000 0.000000 0.000000 -1.000000 0.000000 0.000000 -1.000000 0.000000 0.000000 -1.000000 0.000000 0.000000 -1.000000 0.000000 0.000000 -1.000000 0.000000 0.000000 -1.000000 0.000000 0.000000 -1.000000 0.000000 0.000000 -1.000000 0.000000 0.000000 -1.000000 0.000000 0.000000 -1.000000 0.000000 0.000000 -1.000000 0.000000 0.000000 -1.000000 0.000000 0.000000 -1.000000 0.000000 0.000000 -1.000000 0.000000 0.000000 -1.000000 0.000000 0.000000 -1.000000 0.000000 0.000000 -1.000000 0.000000 0.000000 -1.000000 0.000000 0.000000 -1.000000 0.000000 0.000000 -1.000000 0.000000 0.000000 -1.000000 0.000000 0.000000 -1.000000 0.000000 0.000000 -1.000000 0.000000 0.000000 -1.000000 0.000000 0.000000 -1.000000 0.000000 0.000000 -1.000000 0.000000 0.000000 -1.000000 0.000000 0.000000 -1.000000 0.000000 0.000000 -1.000000 0.000000 0.000000 -1.000000 0.000000 0.000000 -1.000000 0.000000 0.000000 -1.000000 0.000000 0.000000 -1.000000 0.000000 0.000000 -1.000000 0.000000 0.000000 -1.000000 0.000000 0.000000 -1.000000 0.000000 0.000000 -1.000000 0.000000 0.000000 -1.000000 0.000000 0.000000 -1.000000 0.000000 0.000000 -1.000000 0.000000 0.000000 -1.000000 0.000000 0.000000 -1.000000 0.000000 0.000000 -1.000000 0.000000 0.000000 -1.000000 0.000000 0.000000 -1.000000 0.000000 0.000000 -1.000000 0.000000 0.000000 -1.000000 0.000000 0.000000 -1.000000 0.000000 0.000000 -1.000000 0.000000 0.000000 -1.000000 0.000000 0.000000 -1.000000 0.000000 0.000000 -1.000000 0.000000 0.000000 -1.000000 0.000000 0.000000 -1.000000 0.000000 0.000000 -1.000000 0.000000 0.000000 -1.000000 0.000000 0.000000 -1.000000 0.000000 0.000000 -1.000000 0.000000 0.000000 -1.000000 0.000000 0.000000 -1.000000 0.000000 0.000000 -1.000000 0.000000 0.000000 -1.000000 0.000000 0.000000 -1.000000 0.000000 0.000000 -1.000000 0.000000 0.000000 -1.000000 0.000000 0.000000 -1.000000 0.000000 0.000000 -1.000000 0.000000 0.000000 -1.000000 0.000000 0.000000 -1.000000 0.000000 0.000000 -1.000000 0.000000 0.000000 -1.000000 0.000000 0.000000 -1.000000 0.000000 0.000000 -1.000000 0.000000 0.000000 -1.000000 0.000000 0.000000 -1.000000 0.000000 0.000000 -1.000000 0.000000 0.000000 -1.000000 0.000000 0.000000 -1.000000 0.000000 0.000000 -1.000000 0.000000 0.000000 -1.000000 0.000000 0.000000 -1.000000 0.000000 0.000000 -1.000000 0.000000 0.000000 -1.000000 0.000000 0.000000 -1.000000 0.000000 0.000000 -1.000000 0.000000 0.000000 -1.000000 0.000000 0.000000 -1.000000 0.000000 0.000000 -1.000000 0.000000 0.000000 -1.000000 0.000000 0.000000 -1.000000 0.000000 0.000000 -1.000000 0.000000 0.000000 -1.000000 0.000000 0.000000 -0.000000 0.258819 0.965926 -0.000000 0.258819 0.965926 0.000000 -0.000000 1.000000 0.000000 -0.000000 1.000000 0.000000 -0.258819 0.965926 0.000000 -0.258819 0.965926 0.000000 -0.500000 0.866025 0.000000 -0.500000 0.866025 0.000000 -0.707107 0.707107 0.000000 -0.707107 0.707107 0.000000 -0.866025 0.500000 0.000000 -0.866025 0.500000 0.000000 -0.965926 0.258819 0.000000 -0.965926 0.258819 0.000000 -1.000000 0.000000 0.000000 -1.000000 -0.000000 0.000000 -0.965926 -0.258819 0.000000 -0.965926 -0.258819 0.000000 -0.866025 -0.500000 0.000000 -0.866025 -0.500000 0.000000 -0.707107 -0.707107 0.000000 -0.707107 -0.707107 0.000000 -0.500000 -0.866025 0.000000 -0.500000 -0.866025 0.000000 -0.258819 -0.965926 0.000000 -0.258819 -0.965926 0.000000 -0.000000 -1.000000 0.000000 0.000000 -1.000000 0.000000 0.258819 -0.965926 0.000000 0.258819 -0.965926 0.000000 0.500000 -0.866025 0.000000 0.500000 -0.866025 0.000000 0.707107 -0.707107 0.000000 0.707107 -0.707107 0.000000 0.866025 -0.500000 0.000000 0.866025 -0.500000 0.000000 0.965926 -0.258819 0.000000 0.965926 -0.258819 -0.000000 1.000000 0.000000 -0.000000 1.000000 0.000000 -0.000000 0.965926 0.258819 -0.000000 0.965926 0.258819 -0.000000 0.866025 0.500000 -0.000000 0.866025 0.500000 -0.000000 0.707107 0.707107 -0.000000 0.707107 0.707107 -0.000000 0.500000 0.866025 -0.000000 0.500000 0.866025 -0.000000 0.258819 0.965926 -0.000000 0.258819 0.965926 0.000000 -0.000000 1.000000 0.000000 -0.000000 1.000000 0.000000 -0.258819 0.965926 0.000000 -0.258819 0.965926 0.000000 -0.500000 0.866025 0.000000 -0.500000 0.866025 0.000000 -0.707107 0.707107 0.000000 -0.707107 0.707107 0.000000 -0.866025 0.500000 0.000000 -0.866025 0.500000 0.000000 -0.965926 0.258819 0.000000 -0.965926 0.258819 0.000000 -1.000000 0.000000 0.000000 -1.000000 -0.000000 0.000000 -0.965926 -0.258819 0.000000 -0.965926 -0.258819 0.000000 -0.866025 -0.500000 0.000000 -0.866025 -0.500000 0.000000 -0.707107 -0.707107 0.000000 -0.707107 -0.707107 0.000000 -0.500000 -0.866025 0.000000 -0.500000 -0.866025 0.000000 -0.258819 -0.965926 0.000000 -0.258819 -0.965926 0.000000 -0.000000 -1.000000 0.000000 0.000000 -1.000000 0.000000 0.258819 -0.965926 0.000000 0.258819 -0.965926 0.000000 0.500000 -0.866025 0.000000 0.500000 -0.866025 0.000000 0.707107 -0.707107 0.000000 0.707107 -0.707107 0.000000 0.866025 -0.500000 0.000000 0.866025 -0.500000 0.000000 0.965926 -0.258819 0.000000 0.965926 -0.258819 -0.000000 1.000000 0.000000 -0.000000 1.000000 0.000000 -0.000000 0.965926 0.258819 -0.000000 0.965926 0.258819 -0.000000 0.866025 0.500000 -0.000000 0.866025 0.500000 -0.000000 0.707107 0.707107 -0.000000 0.707107 0.707107 -0.000000 0.500000 0.866025 -0.000000 0.500000 0.866025 -0.000000 0.258819 0.965926 -0.000000 0.258819 0.965926 0.000000 -0.000000 1.000000 0.000000 -0.000000 1.000000 0.000000 -0.258819 0.965926 0.000000 -0.258819 0.965926 0.000000 -0.500000 0.866025 0.000000 -0.500000 0.866025 0.000000 -0.707107 0.707107 0.000000 -0.707107 0.707107 0.000000 -0.866025 0.500000 0.000000 -0.866025 0.500000 0.000000 -0.965926 0.258819 0.000000 -0.965926 0.258819 0.000000 -1.000000 0.000000 0.000000 -1.000000 -0.000000 0.000000 -0.965926 -0.258819 0.000000 -0.965926 -0.258819 0.000000 -0.866025 -0.500000 0.000000 -0.866025 -0.500000 0.000000 -0.707107 -0.707107 0.000000 -0.707107 -0.707107 0.000000 -0.500000 -0.866025 0.000000 -0.500000 -0.866025 0.000000 -0.258819 -0.965926 0.000000 -0.258819 -0.965926 0.000000 -0.000000 -1.000000 0.000000 0.000000 -1.000000 0.000000 0.258819 -0.965926 0.000000 0.258819 -0.965926 0.000000 0.500000 -0.866025 0.000000 0.500000 -0.866025 0.000000 0.707107 -0.707107 0.000000 0.707107 -0.707107 0.000000 0.866025 -0.500000 0.000000 0.866025 -0.500000 0.000000 0.965926 -0.258819 0.000000 0.965926 -0.258819 -0.000000 1.000000 0.000000 -0.000000 1.000000 0.000000 -0.000000 0.965926 0.258819 -0.000000 0.965926 0.258819 -0.000000 0.866025 0.500000 -0.000000 0.866025 0.500000 -0.000000 0.707107 0.707107 -0.000000 0.707107 0.707107 -0.000000 0.500000 0.866025 -0.000000 0.500000 0.866025 -0.000000 0.258819 0.965926 -0.000000 0.258819 0.965926 0.000000 -0.000000 1.000000 0.000000 -0.000000 1.000000 0.000000 -0.258819 0.965926 0.000000 -0.258819 0.965926 0.000000 -0.500000 0.866025 0.000000 -0.500000 0.866025 0.000000 -0.707107 0.707107 0.000000 -0.707107 0.707107 0.000000 -0.866025 0.500000 0.000000 -0.866025 0.500000 0.000000 -0.965926 0.258819 0.000000 -0.965926 0.258819 0.000000 -1.000000 0.000000 0.000000 -1.000000 -0.000000 0.000000 -0.965926 -0.258819 0.000000 -0.965926 -0.258819 0.000000 -0.866025 -0.500000 0.000000 -0.866025 -0.500000 0.000000 -0.707107 -0.707107 0.000000 -0.707107 -0.707107 0.000000 -0.500000 -0.866025 0.000000 -0.500000 -0.866025 0.000000 -0.258819 -0.965926 0.000000 -0.258819 -0.965926 0.000000 -0.000000 -1.000000 0.000000 0.000000 -1.000000 0.000000 0.258819 -0.965926 0.000000 0.258819 -0.965926 0.000000 0.500000 -0.866025 0.000000 0.500000 -0.866025 0.000000 0.707107 -0.707107 0.000000 0.707107 -0.707107 0.000000 0.866025 -0.500000 0.000000 0.866025 -0.500000 0.000000 0.965926 -0.258819 0.000000 0.965926 -0.258819 -0.000000 1.000000 0.000000 -0.000000 1.000000 0.000000 -0.000000 0.965926 0.258819 -0.000000 0.965926 0.258819 -0.000000 0.866025 0.500000 -0.000000 0.866025 0.500000 -0.000000 0.707107 0.707107 -0.000000 0.707107 0.707107 -0.000000 0.500000 0.866025 -0.000000 0.500000 0.866025 -0.000000 0.258819 0.965926 -0.000000 0.258819 0.965926 0.000000 -0.000000 1.000000 0.000000 -0.000000 1.000000 0.000000 -0.258819 0.965926 0.000000 -0.258819 0.965926 0.000000 -0.500000 0.866025 0.000000 -0.500000 0.866025 0.000000 -0.707107 0.707107 0.000000 -0.707107 0.707107 0.000000 -0.866025 0.500000 0.000000 -0.866025 0.500000 0.000000 -0.965926 0.258819 0.000000 -0.965926 0.258819 0.000000 -1.000000 0.000000 0.000000 -1.000000 -0.000000 0.000000 -0.965926 -0.258819 0.000000 -0.965926 -0.258819 0.000000 -0.866025 -0.500000 0.000000 -0.866025 -0.500000 0.000000 -0.707107 -0.707107 0.000000 -0.707107 -0.707107 0.000000 -0.500000 -0.866025 0.000000 -0.500000 -0.866025 0.000000 -0.258819 -0.965926 0.000000 -0.258819 -0.965926 0.000000 -0.000000 -1.000000 0.000000 0.000000 -1.000000 0.000000 0.258819 -0.965926 0.000000 0.258819 -0.965926 0.000000 0.500000 -0.866025 0.000000 0.500000 -0.866025 0.000000 0.707107 -0.707107 0.000000 0.707107 -0.707107 0.000000 0.866025 -0.500000 0.000000 0.866025 -0.500000 0.000000 0.965926 -0.258819 0.000000 0.965926 -0.258819 -0.000000 1.000000 0.000000 -0.000000 1.000000 0.000000 -0.000000 0.965926 0.258819 -0.000000 0.965926 0.258819 -0.000000 0.866025 0.500000 -0.000000 0.866025 0.500000 -0.000000 0.707107 0.707107 -0.000000 0.707107 0.707107 -0.000000 0.500000 0.866025 -0.000000 0.500000 0.866025 -0.000000 0.258819 0.965926 -0.000000 0.258819 0.965926 0.000000 -0.000000 1.000000 0.000000 -0.000000 1.000000 0.000000 -0.258819 0.965926 0.000000 -0.258819 0.965926 0.000000 -0.500000 0.866025 0.000000 -0.500000 0.866025 0.000000 -0.707107 0.707107 0.000000 -0.707107 0.707107 0.000000 -0.866025 0.500000 0.000000 -0.866025 0.500000 0.000000 -0.965926 0.258819 0.000000 -0.965926 0.258819 0.000000 -1.000000 0.000000 0.000000 -1.000000 -0.000000 0.000000 -0.965926 -0.258819 0.000000 -0.965926 -0.258819 0.000000 -0.866025 -0.500000 0.000000 -0.866025 -0.500000 0.000000 -0.707107 -0.707107 0.000000 -0.707107 -0.707107 0.000000 -0.500000 -0.866025 0.000000 -0.500000 -0.866025 0.000000 -0.258819 -0.965926 0.000000 -0.258819 -0.965926 0.000000 -0.000000 -1.000000 0.000000 0.000000 -1.000000 0.000000 0.258819 -0.965926 0.000000 0.258819 -0.965926 0.000000 0.500000 -0.866025 0.000000 0.500000 -0.866025 0.000000 0.707107 -0.707107 0.000000 0.707107 -0.707107 0.000000 0.866025 -0.500000 0.000000 0.866025 -0.500000 0.000000 0.965926 -0.258819 0.000000 0.965926 -0.258819 -0.000000 1.000000 0.000000 -0.000000 1.000000 0.000000 -0.000000 0.965926 0.258819 -0.000000 0.965926 0.258819 -0.000000 0.866025 0.500000 -0.000000 0.866025 0.500000 -0.000000 0.707107 0.707107 -0.000000 0.707107 0.707107 -0.000000 0.500000 0.866025 -0.000000 0.500000 0.866025 0.376214 0.212760 0.901774 0.376214 0.212760 0.901774 0.376214 0.212760 0.901774 0.376214 0.212760 0.901774 0.002224 0.004143 0.999989 0.001918 0.000075 0.999998 0.000310 -0.026751 0.999642 -0.000042 -0.035000 0.999387 -0.000666 -0.057685 0.998335 -0.000793 -0.070080 0.997541 -0.000732 -0.062395 0.998051 -0.000789 -0.079375 0.996845 -0.000428 -0.046749 0.998907 -0.000334 -0.105040 0.994468 -0.000102 -0.111905 0.993719 0.001327 -0.139751 0.990186 0.001473 -0.141958 0.989872 0.001630 -0.144238 0.989542 -0.000163 -0.038263 0.999268 0.000978 -0.014131 0.999900 0.000978 -0.014136 0.999900 0.001096 -0.012173 0.999925 0.359410 0.358675 0.861497 0.359201 0.360090 0.860994 0.334270 0.496270 0.801236 0.333689 0.498900 0.799844 0.301376 0.622354 0.722390 0.300283 0.625908 0.719770 0.261492 0.734002 0.626788 0.259773 0.738107 0.622668 0.215542 0.828624 0.516647 0.213117 0.832844 0.510835 0.164592 0.904026 0.394522 0.161419 0.907877 0.386916 0.109824 0.958457 0.263245 0.105902 0.961430 0.253843 0.052509 0.990657 0.125863 0.047879 0.992238 0.114765 -0.006024 0.999878 -0.014439 -0.011276 0.999571 -0.027029 0.000000 0.965927 -0.258814 0.000000 0.965927 -0.258814 -0.000000 1.000000 0.000006 -0.000000 1.000000 0.000006 -0.000000 0.965924 0.258825 -0.000000 0.965924 0.258825 -0.000000 0.866023 0.500005 -0.000000 0.866023 0.500005 -0.000000 0.707103 0.707111 -0.000000 0.707103 0.707111 -0.000000 0.499995 0.866028 -0.000000 0.499995 0.866028 -0.000000 0.258814 0.965927 -0.000000 0.258814 0.965927 -0.000000 -0.000006 1.000000 -0.000000 -0.000006 1.000000 -0.000000 -0.258825 0.965924 -0.000000 -0.258825 0.965924 -0.000000 -0.500005 0.866023 -0.000000 -0.500005 0.866023 -0.000000 -0.707111 0.707103 -0.000000 -0.707111 0.707103 -0.000000 -0.866028 0.499995 -0.000000 -0.866028 0.499995 -0.000000 -0.965927 0.258814 -0.000000 -0.965927 0.258814 0.000000 -1.000000 -0.000006 0.000000 -1.000000 -0.000006 0.000000 -0.965924 -0.258825 0.000000 -0.965924 -0.258825 0.000000 -0.866023 -0.500005 0.000000 -0.866023 -0.500005 0.000000 -0.707103 -0.707111 0.000000 -0.707103 -0.707111 0.000000 -0.499995 -0.866028 0.000000 -0.499995 -0.866028 0.000000 -0.258814 -0.965927 0.000000 -0.258814 -0.965927 0.000000 0.000006 -1.000000 0.000000 0.000006 -1.000000 0.000000 0.258825 -0.965924 0.000000 0.258825 -0.965924 0.000000 0.500005 -0.866023 0.000000 0.500005 -0.866023 0.000000 0.707111 -0.707103 0.000000 0.707111 -0.707103 0.000000 0.866028 -0.499995 0.000000 0.866028 -0.499995 -0.000000 0.965930 -0.258804 -0.000000 1.000000 0.000000 -0.000000 1.000000 0.000015 0.000000 0.965926 0.258819 0.000000 0.965922 0.258834 0.000000 0.866025 0.500000 0.000000 0.866018 0.500013 0.000000 0.707107 0.707107 0.000000 0.707096 0.707118 0.000000 0.500000 0.866025 0.000000 0.499987 0.866033 0.000000 0.258819 0.965926 0.000000 0.258804 0.965930 0.000000 -0.000000 1.000000 0.000000 -0.000015 1.000000 0.000000 -0.258819 0.965926 0.000000 -0.258834 0.965922 0.000000 -0.500000 0.866025 0.000000 -0.500013 0.866018 0.000000 -0.707107 0.707107 0.000000 -0.707118 0.707096 0.000000 -0.866025 0.500000 0.000000 -0.866033 0.499987 0.000000 -0.965926 0.258819 0.000000 -0.965930 0.258804 0.000000 -1.000000 0.000000 0.000000 -1.000000 -0.000015 -0.000000 -0.965926 -0.258819 -0.000000 -0.965922 -0.258834 -0.000000 -0.866025 -0.500000 -0.000000 -0.866018 -0.500013 -0.000000 -0.707107 -0.707107 -0.000000 -0.707096 -0.707118 -0.000000 -0.500000 -0.866025 -0.000000 -0.499987 -0.866033 -0.000000 -0.258819 -0.965926 -0.000000 -0.258804 -0.965930 -0.000000 0.000000 -1.000000 -0.000000 0.000015 -1.000000 -0.000000 0.258819 -0.965926 -0.000000 0.258834 -0.965922 -0.000000 0.500000 -0.866025 -0.000000 0.500013 -0.866018 -0.000000 0.707107 -0.707107 -0.000000 0.707118 -0.707096 -0.000000 0.866025 -0.500000 -0.000000 0.866033 -0.499987 -0.000000 0.965926 -0.258819 0.000000 -0.552910 0.833241 0.000000 -0.552910 0.833241 0.000000 -0.375294 0.926906 0.000000 -0.375294 0.926906 0.000000 -0.182545 0.983197 0.000000 -0.182545 0.983197 0.000000 0.017564 0.999846 0.000000 0.017564 0.999846 0.000000 0.216965 0.976179 0.000000 0.216965 0.976179 0.000000 0.407618 0.913153 0.000000 0.407618 0.913153 0.000000 0.581835 0.813307 0.000000 0.581835 0.813307 0.000000 0.732592 0.680668 0.000000 0.732592 0.680668 0.000000 0.853811 0.520584 0.000000 0.853811 0.520584 -0.000001 0.994086 0.108598 -0.000001 0.994388 0.105794 -0.000001 0.994203 0.107516 -0.000001 0.994320 0.106434 -0.000001 0.994435 0.105352 -0.000000 0.995878 0.090703 -0.000001 0.994433 0.105374 -0.000000 0.995903 0.090430 0.000000 0.997139 0.075591 0.000000 0.997148 0.075466 0.000001 0.998171 0.060461 0.000001 0.998169 0.060485 0.000000 0.965926 0.258817 0.000000 0.965926 0.258817 0.000000 1.000000 -0.000002 0.000000 1.000000 -0.000002 0.000000 0.965925 -0.258821 0.000000 0.965925 -0.258821 -0.000000 0.866025 -0.500002 -0.000000 0.866025 -0.500002 -0.000000 0.707106 -0.707108 -0.000000 0.707106 -0.707108 -0.000000 0.499998 -0.866026 -0.000000 0.499998 -0.866026 -0.000000 0.258817 -0.965926 -0.000000 0.258817 -0.965926 -0.000000 -0.000002 -1.000000 -0.000000 -0.000002 -1.000000 -0.000000 -0.258821 -0.965925 -0.000000 -0.258821 -0.965925 -0.000000 -0.500002 -0.866025 -0.000000 -0.500002 -0.866025 -0.000000 -0.707108 -0.707106 -0.000000 -0.707108 -0.707106 -0.000000 -0.866026 -0.499998 -0.000000 -0.866026 -0.499998 -0.000000 -0.965926 -0.258817 -0.000000 -0.965926 -0.258817 -0.000000 -1.000000 0.000002 -0.000000 -1.000000 0.000002 -0.000000 -0.965925 0.258821 -0.000000 -0.965925 0.258821 0.000000 -0.866025 0.500002 0.000000 -0.866025 0.500002 0.000000 -0.707106 0.707108 0.000000 -0.707106 0.707108 0.000000 -0.499998 0.866026 0.000000 -0.499998 0.866026 0.000000 -0.258817 0.965926 0.000000 -0.258817 0.965926 0.000000 0.000002 1.000000 0.000000 0.000002 1.000000 0.000000 0.258821 0.965925 0.000000 0.258821 0.965925 0.000000 0.500002 0.866025 0.000000 0.500002 0.866025 0.000000 0.707108 0.707106 0.000000 0.707108 0.707106 0.000000 0.866026 0.499998 0.000000 0.866026 0.499998 1.000000 0.000000 0.000000 1.000000 0.000000 0.000000 1.000000 0.000000 0.000000 1.000000 0.000000 0.000000 1.000000 0.000000 0.000000 1.000000 0.000000 0.000000 1.000000 0.000000 0.000000 1.000000 0.000000 0.000000 1.000000 0.000000 0.000000 1.000000 0.000000 0.000000 1.000000 0.000000 0.000000 1.000000 0.000000 0.000000 1.000000 0.000000 0.000000 1.000000 0.000000 0.000000 1.000000 0.000000 0.000000 1.000000 0.000000 0.000000 1.000000 0.000000 0.000000 1.000000 0.000000 0.000000 1.000000 0.000000 0.000000 1.000000 0.000000 0.000000 1.000000 0.000000 0.000000 1.000000 0.000000 0.000000 1.000000 0.000000 0.000000 1.000000 0.000000 0.000000 1.000000 0.000000 0.000000 1.000000 0.000000 0.000000 1.000000 0.000000 0.000000 1.000000 0.000000 0.000000 1.000000 0.000000 0.000000 1.000000 0.000000 0.000000 1.000000 0.000000 0.000000 1.000000 0.000000 0.000000 1.000000 0.000000 0.000000 1.000000 0.000000 0.000000 1.000000 0.000000 0.000000 1.000000 0.000000 0.000000 1.000000 0.000000 0.000000 1.000000 0.000000 0.000000 1.000000 0.000000 0.000000 1.000000 0.000000 0.000000 1.000000 0.000000 0.000000 1.000000 0.000000 0.000000 1.000000 0.000000 0.000000 1.000000 0.000000 0.000000 1.000000 0.000000 0.000000 1.000000 0.000000 0.000000 1.000000 0.000000 0.000000 1.000000 0.000000 0.000000 1.000000 0.000000 0.000000 1.000000 0.000000 0.000000 1.000000 0.000000 0.000000 1.000000 0.000000 0.000000 1.000000 0.000000 0.000000 1.000000 0.000000 0.000000 1.000000 0.000000 0.000000 1.000000 0.000000 0.000000 1.000000 0.000000 0.000000 1.000000 0.000000 0.000000 1.000000 0.000000 0.000000 1.000000 0.000000 0.000000 1.000000 0.000000 0.000000 1.000000 0.000000 0.000000 1.000000 0.000000 0.000000 1.000000 0.000000 0.000000 1.000000 0.000000 0.000000 1.000000 0.000000 0.000000 1.000000 0.000000 0.000000 1.000000 0.000000 0.000000 1.000000 0.000000 0.000000 1.000000 0.000000 0.000000 1.000000 0.000000 0.000000 1.000000 0.000000 0.000000 1.000000 0.000000 0.000000 1.000000 0.000000 0.000000 1.000000 0.000000 0.000000 1.000000 0.000000 0.000000 1.000000 0.000000 0.000000 1.000000 0.000000 0.000000 1.000000 0.000000 0.000000 1.000000 0.000000 0.000000 1.000000 0.000000 0.000000 1.000000 0.000000 0.000000 1.000000 0.000000 0.000000 1.000000 0.000000 0.000000 1.000000 0.000000 0.000000 1.000000 0.000000 0.000000 1.000000 0.000000 0.000000 1.000000 0.000000 0.000000 1.000000 0.000000 0.000000 1.000000 0.000000 0.000000 1.000000 0.000000 0.000000 1.000000 0.000000 0.000000 1.000000 0.000000 0.000000 1.000000 0.000000 0.000000 1.000000 0.000000 0.000000 1.000000 0.000000 0.000000 1.000000 0.000000 0.000000 1.000000 0.000000 0.000000 1.000000 0.000000 0.000000 1.000000 0.000000 0.000000 1.000000 0.000000 0.000000 1.000000 0.000000 0.000000 1.000000 0.000000 0.000000 1.000000 0.000000 0.000000 1.000000 0.000000 0.000000 1.000000 0.000000 0.000000 1.000000 0.000000 0.000000 1.000000 0.000000 0.000000 1.000000 0.000000 0.000000 1.000000 0.000000 0.000000 1.000000 0.000000 0.000000 1.000000 0.000000 0.000000 1.000000 0.000000 0.000000 1.000000 0.000000 0.000000 1.000000 0.000000 0.000000 1.000000 0.000000 0.000000 1.000000 0.000000 0.000000 1.000000 0.000000 0.000000 1.000000 0.000000 0.000000 1.000000 0.000000 0.000000 1.000000 0.000000 0.000000 1.000000 0.000000 0.000000 1.000000 0.000000 0.000000 1.000000 0.000000 0.000000 1.000000 0.000000 0.000000 1.000000 0.000000 0.000000 1.000000 0.000000 0.000000 1.000000 0.000000 0.000000 1.000000 0.000000 0.000000 1.000000 0.000000 0.000000 1.000000 0.000000 0.000000 1.000000 0.000000 0.000000 1.000000 0.000000 0.000000 1.000000 0.000000 0.000000 1.000000 0.000000 0.000000 1.000000 0.000000 0.000000 1.000000 0.000000 0.000000 1.000000 0.000000 0.000000 1.000000 0.000000 0.000000 1.000000 0.000000 0.000000 1.000000 0.000000 0.000000 1.000000 0.000000 0.000000 1.000000 0.000000 0.000000 1.000000 0.000000 0.000000 1.000000 0.000000 0.000000 1.000000 0.000000 0.000000 1.000000 0.000000 0.000000 1.000000 0.000000 0.000000 1.000000 0.000000 0.000000 1.000000 0.000000 0.000000 1.000000 0.000000 0.000000 1.000000 0.000000 0.000000 1.000000 0.000000 0.000000 1.000000 0.000000 0.000000 1.000000 0.000000 0.000000 1.000000 0.000000 0.000000 1.000000 0.000000 0.000000 1.000000 0.000000 0.000000 1.000000 0.000000 0.000000 1.000000 0.000000 0.000000 1.000000 0.000000 0.000000 1.000000 0.000000 0.000000 1.000000 0.000000 0.000000 1.000000 0.000000 0.000000 1.000000 0.000000 0.000000 1.000000 0.000000 0.000000 1.000000 0.000000 0.000000 1.000000 0.000000 0.000000 1.000000 0.000000 0.000000 1.000000 0.000000 0.000000 1.000000 0.000000 0.000000 1.000000 0.000000 0.000000 1.000000 0.000000 0.000000 1.000000 0.000000 0.000000 1.000000 0.000000 0.000000 1.000000 0.000000 0.000000 1.000000 0.000000 0.000000 1.000000 0.000000 0.000000 1.000000 0.000000 0.000000 1.000000 0.000000 0.000000 1.000000 0.000000 0.000000 1.000000 0.000000 0.000000 1.000000 0.000000 0.000000 1.000000 0.000000 0.000000 1.000000 0.000000 0.000000 1.000000 0.000000 0.000000 1.000000 0.000000 0.000000 1.000000 0.000000 0.000000 1.000000 0.000000 0.000000 1.000000 0.000000 0.000000 1.000000 0.000000 0.000000 1.000000 0.000000 0.000000 1.000000 0.000000 0.000000 1.000000 0.000000 0.000000 1.000000 0.000000 0.000000 1.000000 0.000000 0.000000 1.000000 0.000000 0.000000 1.000000 0.000000 0.000000 1.000000 0.000000 0.000000 1.000000 0.000000 0.000000 1.000000 0.000000 0.000000 1.000000 0.000000 0.000000 1.000000 0.000000 0.000000 1.000000 0.000000 0.000000 1.000000 0.000000 0.000000 1.000000 0.000000 0.000000 1.000000 0.000000 0.000000 1.000000 0.000000 0.000000 1.000000 0.000000 0.000000 1.000000 0.000000 0.000000 1.000000 0.000000 0.000000 1.000000 0.000000 0.000000 1.000000 0.000000 0.000000 1.000000 0.000000 0.000000 1.000000 0.000000 0.000000 1.000000 0.000000 0.000000 1.000000 0.000000 0.000000 1.000000 0.000000 0.000000 1.000000 0.000000 0.000000 1.000000 0.000000 0.000000 1.000000 0.000000 0.000000 1.000000 0.000000 0.000000 1.000000 0.000000 0.000000 1.000000 0.000000 0.000000 1.000000 0.000000 0.000000 1.000000 0.000000 0.000000 1.000000 0.000000 0.000000 1.000000 0.000000 0.000000 1.000000 0.000000 0.000000 0.000000 -0.552910 0.833241 0.000000 -0.552910 0.833241 0.000000 -0.552910 0.833241 0.000000 -0.552910 0.833241 0.000000 -1.000000 0.000000 0.000000 -1.000000 0.000000 0.000000 -1.000000 0.000000 0.000000 -1.000000 0.000000 0.000000 -1.000000 0.000000 0.000000 -1.000000 0.000000 0.863779 -0.000000 -0.503871 0.863779 -0.000000 -0.503871 0.863779 -0.000000 -0.503871 0.863779 -0.000000 -0.503871 -0.000000 1.000000 -0.000000 -0.000000 1.000000 -0.000000 -0.000000 1.000000 -0.000000 -0.000000 1.000000 -0.000000 -0.000000 1.000000 -0.000000 -0.000000 1.000000 -0.000000 -0.000000 1.000000 -0.000000 -0.000000 1.000000 -0.000000 -0.000000 1.000000 -0.000000 -0.000000 1.000000 -0.000000 -0.000000 1.000000 -0.000000 -0.000000 1.000000 -0.000000 -0.000000 1.000000 -0.000000 -0.000000 0.853811 0.520584 -0.000000 0.853811 0.520584 -1.000000 -0.000000 -0.000000 -1.000000 -0.000000 -0.000000 -1.000000 -0.000000 -0.000000 -1.000000 -0.000000 -0.000000 -1.000000 -0.000000 -0.000000 -1.000000 -0.000000 -0.000000 -1.000000 -0.000000 -0.000000 -1.000000 -0.000000 -0.000000 -1.000000 -0.000000 -0.000000 -1.000000 -0.000000 -0.000000 -1.000000 -0.000000 -0.000000 -1.000000 -0.000000 -0.000000 -1.000000 -0.000000 -0.000000 -1.000000 -0.000000 -0.000000 -1.000000 -0.000000 -0.000000 -1.000000 -0.000000 -0.000000 -1.000000 -0.000000 -0.000000 -1.000000 -0.000000 -0.000000 -1.000000 -0.000000 -0.000000 -1.000000 -0.000000 -0.000000 -1.000000 -0.000000 -0.000000 -1.000000 -0.000000 -0.000000 -1.000000 -0.000000 -0.000000 -1.000000 -0.000000 -0.000000 -1.000000 -0.000000 -0.000000 -1.000000 -0.000000 -0.000000 -1.000000 -0.000000 -0.000000 -1.000000 -0.000000 -0.000000 -1.000000 -0.000000 -0.000000 -1.000000 -0.000000 -0.000000 -1.000000 -0.000000 -0.000000 -1.000000 -0.000000 -0.000000 -1.000000 -0.000000 -0.000000 -1.000000 -0.000000 -0.000000 -1.000000 -0.000000 -0.000000 -1.000000 -0.000000 -0.000000 -1.000000 -0.000000 -0.000000 -1.000000 -0.000000 -0.000000 -1.000000 -0.000000 -0.000000 -1.000000 -0.000000 -0.000000 -1.000000 -0.000000 -0.000000 -1.000000 -0.000000 -0.000000 1.000000 0.000000 0.000000 1.000000 0.000000 0.000000 1.000000 0.000000 0.000000 1.000000 0.000000 0.000000 1.000000 0.000000 0.000000 1.000000 0.000000 0.000000 1.000000 0.000000 0.000000 1.000000 0.000000 0.000000 1.000000 0.000000 0.000000 1.000000 0.000000 0.000000 1.000000 0.000000 0.000000 1.000000 0.000000 0.000000 1.000000 0.000000 0.000000 1.000000 0.000000 0.000000 1.000000 0.000000 0.000000 1.000000 0.000000 0.000000 1.000000 0.000000 0.000000 1.000000 0.000000 0.000000 1.000000 0.000000 0.000000 1.000000 0.000000 0.000000 1.000000 0.000000 0.000000 1.000000 0.000000 0.000000 1.000000 0.000000 0.000000 1.000000 0.000000 0.000000 1.000000 0.000000 0.000000 1.000000 0.000000 0.000000 1.000000 0.000000 0.000000 1.000000 0.000000 0.000000 1.000000 0.000000 0.000000 1.000000 0.000000 0.000000 1.000000 0.000000 0.000000 1.000000 0.000000 0.000000 1.000000 0.000000 0.000000 1.000000 0.000000 0.000000 1.000000 0.000000 0.000000 1.000000 0.000000 0.000000 1.000000 0.000000 0.000000 1.000000 0.000000 0.000000 1.000000 0.000000 0.000000 1.000000 0.000000 0.000000 1.000000 0.000000 0.000000 1.000000 0.000000 0.000000 1.000000 0.000000 0.000000 1.000000 0.000000 0.000000 1.000000 0.000000 0.000000 1.000000 0.000000 0.000000 1.000000 0.000000 0.000000 1.000000 0.000000 0.000000 -0.922901 -0.000000 0.385038 -0.922901 -0.000000 0.385038 -0.922901 -0.000000 0.385038 -0.922901 -0.000000 0.385038 -0.922901 -0.000000 0.385038 -0.922901 -0.000000 0.385038 -0.922901 -0.000000 0.385038 -0.922901 -0.000000 0.385038 -0.922901 -0.000000 0.385038 -0.922901 -0.000000 0.385038 -0.922901 -0.000000 0.385038 -0.922901 -0.000000 0.385038 -0.922901 -0.000000 0.385038 -0.922901 -0.000000 0.385038 -0.922901 -0.000000 0.385038 -0.922901 -0.000000 0.385038 -0.922901 -0.000000 0.385038 -0.922901 -0.000000 0.385038 -0.922901 -0.000000 0.385038 -0.922901 -0.000000 0.385038 -0.000000 -0.000000 -1.000000 -0.000000 -0.000000 -1.000000 -0.000000 -0.000000 -1.000000 -0.000000 -0.000000 -1.000000 -0.000000 -0.000000 -1.000000 -0.000000 -0.000000 -1.000000 -0.000000 -0.000000 -1.000000 -0.000000 -0.000000 -1.000000 -1.000000 -0.000000 -0.000000 -1.000000 -0.000000 -0.000000 -1.000000 -0.000000 -0.000000 -1.000000 -0.000000 -0.000000 -1.000000 -0.000000 -0.000000 -1.000000 -0.000000 -0.000000 -1.000000 -0.000000 -0.000000 -1.000000 -0.000000 -0.000000 -1.000000 -0.000000 -0.000000 -1.000000 -0.000000 -0.000000 0.919145 -0.000000 0.393920 0.919145 -0.000000 0.393920 0.919145 -0.000000 0.393920 0.919145 -0.000000 0.393920 -0.707107 -0.000000 0.707107 -0.707107 -0.000000 0.707107 -0.707107 -0.000000 0.707107 -0.707107 -0.000000 0.707107 -0.707107 -0.000000 0.707107 -0.707107 -0.000000 0.707107 -0.707107 -0.000000 0.707107 -0.707107 -0.000000 0.707107 -0.919145 0.000000 0.393920 -0.919145 0.000000 0.393920 -0.919145 0.000000 0.393920 -0.919145 0.000000 0.393920 -0.000000 -0.000000 -1.000000 -0.000000 -0.000000 -1.000000 -0.000000 -0.000000 -1.000000 -0.000000 -0.000000 -1.000000 -0.000000 1.000000 -0.000000 -0.000000 1.000000 -0.000000 -0.000000 1.000000 -0.000000 -0.000000 1.000000 -0.000000 -0.000000 1.000000 -0.000000 -0.000000 0.552910 -0.833241 -0.000000 0.552910 -0.833241 -0.000000 0.552910 -0.833241 -0.000000 0.552910 -0.833241 0.922901 0.000000 -0.385037 0.922901 0.000000 -0.385037 0.922901 0.000000 -0.385037 0.922901 0.000000 -0.385037 0.922901 0.000000 -0.385037 0.922901 0.000000 -0.385037 0.922901 0.000000 -0.385037 0.922901 0.000000 -0.385037 0.922901 0.000000 -0.385037 0.922901 0.000000 -0.385037 0.922901 0.000000 -0.385037 0.922901 0.000000 -0.385037 0.922901 0.000000 -0.385037 0.922901 0.000000 -0.385037 0.922901 0.000000 -0.385037 0.922901 0.000000 -0.385037 0.922901 0.000000 -0.385037 0.922901 0.000000 -0.385037 0.000000 1.000000 0.000000 0.000000 1.000000 0.000000 0.000000 1.000000 0.000000 0.000000 1.000000 0.000000 0.000000 0.000000 1.000000 0.000000 0.000000 1.000000 0.000000 0.000000 1.000000 0.000000 0.000000 1.000000 1.000000 0.000000 0.000000 1.000000 0.000000 0.000000 1.000000 0.000000 0.000000 1.000000 0.000000 0.000000 1.000000 0.000000 0.000000 1.000000 0.000000 0.000000 1.000000 0.000000 0.000000 1.000000 0.000000 0.000000 1.000000 0.000000 0.000000 1.000000 0.000000 0.000000 1.000000 0.000000 0.000000 1.000000 0.000000 0.000000 1.000000 0.000000 0.000000 1.000000 0.000000 0.000000 1.000000 0.000000 0.000000 1.000000 0.000000 0.000000 1.000000 0.000000 0.000000 1.000000 0.000000 0.000000 1.000000 0.000000 0.000000 1.000000 0.000000 0.000000 1.000000 0.000000 0.000000 1.000000 0.000000 0.000000 1.000000 0.000000 0.000000 1.000000 0.000000 0.000000</float_array>
          <technique_common>
            <accessor source="#FootBaseLeft-mesh-normals-array" count="1186" stride="3">
              <param name="X" type="float"/>
              <param name="Y" type="float"/>
              <param name="Z" type="float"/>
            </accessor>
          </technique_common>
        </source>
        <vertices id="FootBaseLeft-mesh-vertices">
          <input semantic="POSITION" source="#FootBaseLeft-mesh-positions"/>
        </vertices>
        <triangles material="Powder_Coat__White_" count="1168">
          <input semantic="VERTEX" source="#FootBaseLeft-mesh-vertices" offset="0"/>
          <input semantic="NORMAL" source="#FootBaseLeft-mesh-normals" offset="1"/>
          <p>1 0 49 1 0 2 0 2 49 1 25 3 0 2 25 3 24 4 24 4 25 3 26 5 24 4 26 5 23 6 23 6 26 5 27 7 23 6 27 7 22 8 22 8 27 7 28 9 22 8 28 9 21 10 21 10 28 9 29 11 21 10 29 11 20 12 20 12 29 11 30 13 20 12 30 13 19 14 19 14 30 13 31 15 19 14 31 15 18 16 18 16 31 15 32 17 18 16 32 17 17 18 17 18 32 17 33 19 17 18 33 19 16 20 16 20 33 19 34 21 16 20 34 21 15 22 15 22 34 21 35 23 15 22 35 23 14 24 14 24 35 23 36 25 14 24 36 25 13 26 13 26 36 25 37 27 13 26 37 27 12 28 12 28 37 27 38 29 12 28 38 29 11 30 11 30 38 29 39 31 11 30 39 31 10 32 10 32 39 31 40 33 10 32 40 33 9 34 9 34 40 33 41 35 9 34 41 35 8 36 8 36 41 35 42 37 8 36 42 37 7 38 7 38 42 37 43 39 7 38 43 39 6 40 6 40 43 39 44 41 6 40 44 41 5 42 5 42 44 41 45 43 5 42 45 43 4 44 4 44 45 43 46 45 4 44 46 45 3 46 3 46 46 45 47 47 3 46 47 47 2 48 2 48 47 47 48 49 2 48 48 49 1 0 1 0 48 49 49 1 51 50 108 51 50 52 50 52 108 51 109 53 50 52 109 53 73 54 73 54 109 53 110 55 73 54 110 55 72 56 72 56 110 55 111 57 72 56 111 57 71 58 71 58 111 57 112 59 71 58 112 59 70 60 70 60 112 59 113 61 70 60 113 61 69 62 69 62 113 61 129 63 69 62 129 63 77 64 77 64 129 63 130 65 77 64 130 65 76 66 76 66 130 65 131 67 76 66 131 67 75 68 75 68 131 67 132 69 75 68 132 69 74 70 74 70 132 69 133 71 74 70 133 71 97 72 97 72 133 71 134 73 97 72 134 73 96 74 96 74 134 73 135 75 96 74 135 75 95 76 95 76 135 75 18 77 95 76 18 77 94 78 94 78 18 77 17 79 94 78 17 79 93 80 93 80 17 79 92 81 92 81 17 79 16 82 92 81 16 82 91 83 91 83 16 82 90 84 90 84 16 82 89 85 89 85 16 82 15 86 89 85 15 86 88 87 88 87 15 86 87 88 87 88 15 86 86 89 86 89 15 86 14 90 86 89 14 90 85 91 85 91 14 90 84 92 84 92 14 90 83 93 83 93 14 90 187 94 83 93 187 94 188 95 52 96 5 97 51 50 51 50 5 97 107 98 51 50 107 98 108 51 5 97 52 96 6 99 6 99 52 96 53 100 6 99 53 100 54 101 54 101 55 102 6 99 6 99 55 102 7 103 7 103 55 102 56 104 7 103 56 104 57 105 57 105 58 106 7 103 7 103 58 106 8 107 8 107 58 106 59 108 8 107 59 108 60 109 60 109 61 110 8 107 8 107 61 110 9 111 9 111 61 110 62 112 9 111 62 112 63 113 64 114 174 115 63 113 63 113 174 115 175 116 63 113 175 116 9 111 9 111 175 116 176 117 9 111 176 117 10 118 10 118 176 117 177 119 10 118 177 119 178 120 174 115 64 114 173 121 173 121 64 114 65 122 173 121 65 122 172 123 172 123 65 122 66 124 172 123 66 124 171 125 171 125 66 124 67 126 171 125 67 126 170 127 170 127 67 126 68 128 170 127 68 128 193 129 193 129 68 128 69 62 193 129 69 62 77 64 77 64 78 130 193 129 193 129 78 130 192 131 192 131 78 130 79 132 192 131 79 132 191 133 191 133 79 132 80 134 191 133 80 134 190 135 190 135 80 134 81 136 190 135 81 136 189 137 189 137 81 136 82 138 189 137 82 138 188 95 188 95 82 138 83 93 121 139 98 140 2 141 2 141 98 140 99 142 2 141 99 142 3 143 3 143 99 142 100 144 3 143 100 144 101 145 101 145 102 146 3 143 3 143 102 146 4 147 4 147 102 146 103 148 4 147 103 148 104 149 104 149 105 150 4 147 4 147 105 150 5 97 5 97 105 150 106 151 5 97 106 151 107 98 129 63 113 61 157 152 157 152 113 61 114 153 157 152 114 153 156 154 156 154 114 153 115 155 156 154 115 155 155 156 155 156 115 155 116 157 155 156 116 157 154 158 154 158 116 157 117 159 154 158 117 159 153 160 153 160 117 159 118 161 153 160 118 161 152 162 152 162 118 161 119 163 152 162 119 163 151 164 151 164 119 163 1 165 151 164 1 165 150 166 150 166 1 165 149 167 149 167 1 165 0 168 149 167 0 168 148 169 148 169 0 168 147 170 147 170 0 168 24 171 147 170 24 171 146 172 146 172 24 171 169 173 169 173 24 171 168 174 168 174 24 171 23 175 168 174 23 175 167 176 167 176 23 175 166 177 166 177 23 175 165 178 165 178 23 175 22 179 165 178 22 179 164 180 164 180 22 179 163 181 163 181 22 179 123 182 163 181 123 182 162 183 162 183 123 182 124 184 162 183 124 184 161 185 161 185 124 184 125 186 161 185 125 186 160 187 160 187 125 186 126 188 160 187 126 188 159 189 159 189 126 188 127 190 159 189 127 190 158 191 158 191 127 190 128 192 158 191 128 192 157 152 157 152 128 192 129 63 119 163 120 193 1 165 1 165 120 193 2 141 2 141 120 193 121 139 123 182 22 179 122 194 122 194 22 179 21 195 122 194 21 195 145 196 145 196 21 195 144 197 144 197 21 195 143 198 143 198 21 195 20 199 143 198 20 199 142 200 142 200 20 199 141 201 141 201 20 199 140 202 140 202 20 199 19 203 140 202 19 203 139 204 139 204 19 203 138 205 138 205 19 203 137 206 137 206 19 203 18 77 137 206 18 77 136 207 136 207 18 77 135 75 10 118 178 120 11 208 11 208 178 120 179 209 11 208 179 209 180 210 180 210 181 211 11 208 11 208 181 211 12 212 12 212 181 211 182 213 12 212 182 213 183 214 183 214 184 215 12 212 12 212 184 215 13 216 13 216 184 215 185 217 13 216 185 217 186 218 186 218 187 94 13 216 13 216 187 94 14 90 97 219 199 220 74 221 74 221 199 220 200 222 74 221 200 222 75 223 75 223 200 222 201 224 75 223 201 224 76 225 76 225 201 224 202 226 76 225 202 226 77 227 77 227 202 226 203 228 77 227 203 228 78 229 78 229 203 228 204 230 78 229 204 230 79 231 79 231 204 230 205 232 79 231 205 232 80 233 80 233 205 232 206 234 80 233 206 234 81 235 81 235 206 234 207 236 81 235 207 236 82 237 82 237 207 236 208 238 82 237 208 238 83 239 83 239 208 238 209 240 83 239 209 240 84 241 84 241 209 240 210 242 84 241 210 242 85 243 85 243 210 242 211 244 85 243 211 244 86 245 86 245 211 244 212 246 86 245 212 246 87 247 87 247 212 246 213 248 87 247 213 248 88 249 88 249 213 248 214 250 88 249 214 250 89 251 89 251 214 250 215 252 89 251 215 252 90 253 90 253 215 252 216 254 90 253 216 254 91 255 91 255 216 254 217 256 91 255 217 256 92 257 92 257 217 256 194 258 92 257 194 258 93 259 93 259 194 258 195 260 93 259 195 260 94 261 94 261 195 260 196 262 94 261 196 262 95 263 95 263 196 262 197 264 95 263 197 264 96 265 96 265 197 264 198 266 96 265 198 266 97 219 97 219 198 266 199 220 121 267 223 268 98 269 98 269 223 268 224 270 98 269 224 270 99 271 99 271 224 270 225 272 99 271 225 272 100 273 100 273 225 272 226 274 100 273 226 274 101 275 101 275 226 274 227 276 101 275 227 276 102 277 102 277 227 276 228 278 102 277 228 278 103 279 103 279 228 278 229 280 103 279 229 280 104 281 104 281 229 280 230 282 104 281 230 282 105 283 105 283 230 282 231 284 105 283 231 284 106 285 106 285 231 284 232 286 106 285 232 286 107 287 107 287 232 286 233 288 107 287 233 288 108 289 108 289 233 288 234 290 108 289 234 290 109 291 109 291 234 290 235 292 109 291 235 292 110 293 110 293 235 292 236 294 110 293 236 294 111 295 111 295 236 294 237 296 111 295 237 296 112 297 112 297 237 296 238 298 112 297 238 298 113 299 113 299 238 298 239 300 113 299 239 300 114 301 114 301 239 300 240 302 114 301 240 302 115 303 115 303 240 302 241 304 115 303 241 304 116 305 116 305 241 304 218 306 116 305 218 306 117 307 117 307 218 306 219 308 117 307 219 308 118 309 118 309 219 308 220 310 118 309 220 310 119 311 119 311 220 310 221 312 119 311 221 312 120 313 120 313 221 312 222 314 120 313 222 314 121 267 121 267 222 314 223 268 169 315 247 316 146 317 146 317 247 316 248 318 146 317 248 318 147 319 147 319 248 318 249 320 147 319 249 320 148 321 148 321 249 320 250 322 148 321 250 322 149 323 149 323 250 322 251 324 149 323 251 324 150 325 150 325 251 324 252 326 150 325 252 326 151 327 151 327 252 326 253 328 151 327 253 328 152 329 152 329 253 328 254 330 152 329 254 330 153 331 153 331 254 330 255 332 153 331 255 332 154 333 154 333 255 332 256 334 154 333 256 334 155 335 155 335 256 334 257 336 155 335 257 336 156 337 156 337 257 336 258 338 156 337 258 338 157 339 157 339 258 338 259 340 157 339 259 340 158 341 158 341 259 340 260 342 158 341 260 342 159 343 159 343 260 342 261 344 159 343 261 344 160 345 160 345 261 344 262 346 160 345 262 346 161 347 161 347 262 346 263 348 161 347 263 348 162 349 162 349 263 348 264 350 162 349 264 350 163 351 163 351 264 350 265 352 163 351 265 352 164 353 164 353 265 352 242 354 164 353 242 354 165 355 165 355 242 354 243 356 165 355 243 356 166 357 166 357 243 356 244 358 166 357 244 358 167 359 167 359 244 358 245 360 167 359 245 360 168 361 168 361 245 360 246 362 168 361 246 362 169 315 169 315 246 362 247 316 193 363 271 364 170 365 170 365 271 364 272 366 170 365 272 366 171 367 171 367 272 366 273 368 171 367 273 368 172 369 172 369 273 368 274 370 172 369 274 370 173 371 173 371 274 370 275 372 173 371 275 372 174 373 174 373 275 372 276 374 174 373 276 374 175 375 175 375 276 374 277 376 175 375 277 376 176 377 176 377 277 376 278 378 176 377 278 378 177 379 177 379 278 378 279 380 177 379 279 380 178 381 178 381 279 380 280 382 178 381 280 382 179 383 179 383 280 382 281 384 179 383 281 384 180 385 180 385 281 384 282 386 180 385 282 386 181 387 181 387 282 386 283 388 181 387 283 388 182 389 182 389 283 388 284 390 182 389 284 390 183 391 183 391 284 390 285 392 183 391 285 392 184 393 184 393 285 392 286 394 184 393 286 394 185 395 185 395 286 394 287 396 185 395 287 396 186 397 186 397 287 396 288 398 186 397 288 398 187 399 187 399 288 398 289 400 187 399 289 400 188 401 188 401 289 400 266 402 188 401 266 402 189 403 189 403 266 402 267 404 189 403 267 404 190 405 190 405 267 404 268 406 190 405 268 406 191 407 191 407 268 406 269 408 191 407 269 408 192 409 192 409 269 408 270 410 192 409 270 410 193 363 193 363 270 410 271 364 145 411 295 412 122 413 122 413 295 412 296 414 122 413 296 414 123 415 123 415 296 414 297 416 123 415 297 416 124 417 124 417 297 416 298 418 124 417 298 418 125 419 125 419 298 418 299 420 125 419 299 420 126 421 126 421 299 420 300 422 126 421 300 422 127 423 127 423 300 422 301 424 127 423 301 424 128 425 128 425 301 424 302 426 128 425 302 426 129 427 129 427 302 426 303 428 129 427 303 428 130 429 130 429 303 428 304 430 130 429 304 430 131 431 131 431 304 430 305 432 131 431 305 432 132 433 132 433 305 432 306 434 132 433 306 434 133 435 133 435 306 434 307 436 133 435 307 436 134 437 134 437 307 436 308 438 134 437 308 438 135 439 135 439 308 438 309 440 135 439 309 440 136 441 136 441 309 440 310 442 136 441 310 442 137 443 137 443 310 442 311 444 137 443 311 444 138 445 138 445 311 444 312 446 138 445 312 446 139 447 139 447 312 446 313 448 139 447 313 448 140 449 140 449 313 448 290 450 140 449 290 450 141 451 141 451 290 450 291 452 141 451 291 452 142 453 142 453 291 452 292 454 142 453 292 454 143 455 143 455 292 454 293 456 143 455 293 456 144 457 144 457 293 456 294 458 144 457 294 458 145 411 145 411 294 458 295 412 73 459 319 460 50 461 50 461 319 460 320 462 50 461 320 462 51 463 51 463 320 462 321 464 51 463 321 464 52 465 52 465 321 464 322 466 52 465 322 466 53 467 53 467 322 466 323 468 53 467 323 468 54 469 54 469 323 468 324 470 54 469 324 470 55 471 55 471 324 470 325 472 55 471 325 472 56 473 56 473 325 472 326 474 56 473 326 474 57 475 57 475 326 474 327 476 57 475 327 476 58 477 58 477 327 476 328 478 58 477 328 478 59 479 59 479 328 478 329 480 59 479 329 480 60 481 60 481 329 480 330 482 60 481 330 482 61 483 61 483 330 482 331 484 61 483 331 484 62 485 62 485 331 484 332 486 62 485 332 486 63 487 63 487 332 486 333 488 63 487 333 488 64 489 64 489 333 488 334 490 64 489 334 490 65 491 65 491 334 490 335 492 65 491 335 492 66 493 66 493 335 492 336 494 66 493 336 494 67 495 67 495 336 494 337 496 67 495 337 496 68 497 68 497 337 496 314 498 68 497 314 498 69 499 69 499 314 498 315 500 69 499 315 500 70 501 70 501 315 500 316 502 70 501 316 502 71 503 71 503 316 502 317 504 71 503 317 504 72 505 72 505 317 504 318 506 72 505 318 506 73 459 73 459 318 506 319 460 339 507 340 508 338 509 338 509 340 508 341 510 357 511 342 512 356 513 356 513 342 512 343 514 356 513 343 514 338 515 338 515 343 514 344 516 338 515 344 516 339 517 339 517 344 516 350 518 339 517 350 518 351 519 344 516 345 520 350 518 350 518 345 520 349 521 349 521 345 520 346 522 349 521 346 522 347 523 347 523 348 524 349 521 339 517 351 519 355 525 355 525 351 519 352 526 355 525 352 526 354 527 354 527 352 526 353 528 340 508 358 529 341 510 341 510 358 529 375 530 375 530 358 529 359 531 375 530 359 531 374 532 374 532 359 531 360 533 374 532 360 533 373 534 373 534 360 533 361 535 373 534 361 535 372 536 372 536 361 535 362 537 372 536 362 537 371 538 371 538 362 537 363 539 371 538 363 539 370 540 370 540 363 539 364 541 370 540 364 541 369 542 369 542 364 541 365 543 369 542 365 543 368 544 368 544 365 543 366 545 368 544 366 545 367 546 377 547 423 548 376 549 376 549 423 548 400 550 376 549 400 550 399 551 399 551 400 550 401 552 399 551 401 552 398 553 398 553 401 552 402 554 398 553 402 554 397 555 397 555 402 554 403 556 397 555 403 556 396 557 396 557 403 556 404 558 396 557 404 558 395 559 395 559 404 558 405 560 395 559 405 560 394 561 394 561 405 560 406 562 394 561 406 562 393 563 393 563 406 562 407 564 393 563 407 564 392 565 392 565 407 564 408 566 392 565 408 566 391 567 391 567 408 566 409 568 391 567 409 568 390 569 390 569 409 568 410 570 390 569 410 570 389 571 389 571 410 570 411 572 389 571 411 572 388 573 388 573 411 572 412 574 388 573 412 574 387 575 387 575 412 574 413 576 387 575 413 576 386 577 386 577 413 576 414 578 386 577 414 578 385 579 385 579 414 578 415 580 385 579 415 580 384 581 384 581 415 580 416 582 384 581 416 582 383 583 383 583 416 582 417 584 383 583 417 584 382 585 382 585 417 584 418 586 382 585 418 586 381 587 381 587 418 586 419 588 381 587 419 588 380 589 380 589 419 588 420 590 380 589 420 590 379 591 379 591 420 590 421 592 379 591 421 592 378 593 378 593 421 592 422 594 378 593 422 594 377 547 377 547 422 594 423 548 425 595 460 596 424 597 424 597 460 596 461 598 424 597 461 598 447 599 447 599 461 598 462 600 447 599 462 600 446 601 446 601 462 600 463 602 446 601 463 602 445 603 445 603 463 602 464 604 445 603 464 604 444 605 444 605 464 604 465 606 444 605 465 606 443 607 443 607 465 606 466 608 443 607 466 608 442 609 442 609 466 608 467 610 442 609 467 610 441 611 441 611 467 610 468 612 441 611 468 612 440 613 440 613 468 612 469 614 440 613 469 614 439 615 439 615 469 614 470 616 439 615 470 616 438 617 438 617 470 616 471 618 438 617 471 618 437 619 437 619 471 618 448 620 437 619 448 620 436 621 436 621 448 620 449 622 436 621 449 622 435 623 435 623 449 622 450 624 435 623 450 624 434 625 434 625 450 624 451 626 434 625 451 626 433 627 433 627 451 626 452 628 433 627 452 628 432 629 432 629 452 628 453 630 432 629 453 630 431 631 431 631 453 630 454 632 431 631 454 632 430 633 430 633 454 632 455 634 430 633 455 634 429 635 429 635 455 634 456 636 429 635 456 636 428 637 428 637 456 636 457 638 428 637 457 638 427 639 427 639 457 638 458 640 427 639 458 640 426 641 426 641 458 640 459 642 426 641 459 642 425 595 425 595 459 642 460 596 472 643 473 644 489 645 489 645 473 644 474 646 489 645 474 646 488 647 488 647 474 646 475 648 488 647 475 648 487 649 487 649 475 648 476 650 487 649 476 650 486 651 486 651 476 650 477 652 486 651 477 652 485 653 485 653 477 652 478 654 485 653 478 654 484 655 484 655 478 654 479 656 484 655 479 656 483 657 483 657 479 656 480 658 483 657 480 658 482 659 482 659 480 658 481 660 367 661 366 662 499 663 499 663 366 662 498 664 498 664 366 662 497 665 497 665 366 662 490 666 497 665 490 666 496 667 496 667 490 666 495 668 495 668 490 666 491 669 495 668 491 669 494 670 494 670 491 669 492 671 494 670 492 671 493 672 501 673 547 674 500 675 500 675 547 674 524 676 500 675 524 676 523 677 523 677 524 676 525 678 523 677 525 678 522 679 522 679 525 678 526 680 522 679 526 680 521 681 521 681 526 680 527 682 521 681 527 682 520 683 520 683 527 682 528 684 520 683 528 684 519 685 519 685 528 684 529 686 519 685 529 686 518 687 518 687 529 686 530 688 518 687 530 688 517 689 517 689 530 688 531 690 517 689 531 690 516 691 516 691 531 690 532 692 516 691 532 692 515 693 515 693 532 692 533 694 515 693 533 694 514 695 514 695 533 694 534 696 514 695 534 696 513 697 513 697 534 696 535 698 513 697 535 698 512 699 512 699 535 698 536 700 512 699 536 700 511 701 511 701 536 700 537 702 511 701 537 702 510 703 510 703 537 702 538 704 510 703 538 704 509 705 509 705 538 704 539 706 509 705 539 706 508 707 508 707 539 706 540 708 508 707 540 708 507 709 507 709 540 708 541 710 507 709 541 710 506 711 506 711 541 710 542 712 506 711 542 712 505 713 505 713 542 712 543 714 505 713 543 714 504 715 504 715 543 714 544 716 504 715 544 716 503 717 503 717 544 716 545 718 503 717 545 718 502 719 502 719 545 718 546 720 502 719 546 720 501 673 501 673 546 720 547 674 548 721 290 722 473 723 473 723 290 722 313 724 473 723 313 724 312 725 549 726 423 727 548 721 548 721 423 727 422 728 548 721 422 728 421 729 550 730 407 731 549 726 549 726 407 731 406 732 549 726 406 732 405 733 551 734 509 735 550 730 550 730 509 735 508 736 550 730 508 736 507 737 481 738 324 739 551 734 551 734 324 739 230 740 551 734 230 740 229 741 480 742 281 743 481 738 481 738 281 743 280 744 481 738 280 744 279 745 479 746 283 747 480 742 480 742 283 747 282 748 480 742 282 748 281 743 283 747 479 746 284 749 284 749 479 746 478 750 284 749 478 750 477 751 477 751 476 752 284 749 284 749 476 752 475 753 284 749 475 753 285 754 285 754 475 753 286 755 286 755 475 753 287 756 287 756 475 753 206 757 287 756 206 757 288 758 288 758 206 757 289 759 289 759 206 757 266 760 266 760 206 757 267 761 267 761 206 757 268 762 268 762 206 757 269 763 269 763 206 757 270 764 270 764 206 757 205 765 270 764 205 765 271 766 271 766 205 765 455 767 271 766 455 767 454 768 474 769 211 770 475 753 475 753 211 770 210 771 475 753 210 771 209 772 474 769 473 723 211 770 211 770 473 723 212 773 212 773 473 723 213 774 213 774 473 723 214 775 214 775 473 723 215 776 215 776 473 723 216 777 216 777 473 723 217 778 217 778 473 723 194 779 194 779 473 723 312 725 194 779 312 725 311 780 401 781 400 782 549 726 549 726 400 782 423 727 421 729 420 783 548 721 548 721 420 783 419 784 548 721 419 784 418 785 418 785 417 786 548 721 548 721 417 786 416 787 548 721 416 787 246 788 246 788 416 787 415 789 246 788 415 789 247 790 247 790 415 789 414 791 247 790 414 791 413 792 247 790 413 792 501 793 501 793 413 792 412 794 501 793 412 794 502 795 502 795 412 794 411 796 502 795 411 796 503 797 503 797 411 796 410 798 503 797 410 798 409 799 503 797 409 799 504 800 504 800 409 799 408 801 504 800 408 801 550 730 550 730 408 801 407 731 405 733 404 802 549 726 549 726 404 802 403 803 549 726 403 803 402 804 402 804 401 781 549 726 523 805 248 806 500 807 500 807 248 806 247 790 500 807 247 790 501 793 523 805 522 808 248 806 248 806 522 808 521 809 248 806 521 809 249 810 249 810 521 809 520 811 249 810 520 811 519 812 249 810 519 812 225 813 225 813 519 812 518 814 225 813 518 814 226 815 226 815 518 814 227 816 227 816 518 814 551 734 227 816 551 734 228 817 228 817 551 734 229 741 518 814 517 818 551 734 551 734 517 818 516 819 551 734 516 819 515 820 515 820 514 821 551 734 551 734 514 821 513 822 551 734 513 822 512 823 512 823 511 824 551 734 551 734 511 824 510 825 551 734 510 825 509 735 507 737 506 826 550 730 550 730 506 826 505 827 550 730 505 827 504 800 471 828 314 829 448 830 448 830 314 829 337 831 448 830 337 831 449 832 449 832 337 831 336 833 449 832 336 833 450 834 450 834 336 833 335 835 450 834 335 835 451 836 451 836 335 835 334 837 451 836 334 837 452 838 452 838 334 837 273 839 452 838 273 839 453 840 453 840 273 839 272 841 453 840 272 841 454 768 454 768 272 841 271 766 314 829 471 828 315 842 315 842 471 828 470 843 315 842 470 843 316 844 316 844 470 843 469 845 316 844 469 845 317 846 317 846 469 845 468 847 317 846 468 847 318 848 318 848 468 847 467 849 318 848 467 849 319 850 319 850 467 849 237 851 319 850 237 851 236 852 467 849 466 853 237 851 237 851 466 853 238 854 238 854 466 853 465 855 238 854 465 855 260 856 260 856 465 855 261 857 261 857 465 855 464 858 261 857 464 858 262 859 262 859 464 858 463 860 262 859 463 860 203 861 203 861 463 860 462 862 203 861 462 862 461 863 461 863 460 864 203 861 203 861 460 864 459 865 203 861 459 865 458 866 458 866 457 867 203 861 203 861 457 867 456 868 203 861 456 868 455 767 334 837 333 869 273 839 273 839 333 869 274 870 274 870 333 869 332 871 274 870 332 871 275 872 275 872 332 871 276 873 276 873 332 871 331 874 276 873 331 874 277 875 277 875 331 874 481 738 277 875 481 738 278 876 278 876 481 738 279 745 331 874 330 877 481 738 481 738 330 877 329 878 481 738 329 878 328 879 328 879 327 880 481 738 481 738 327 880 326 881 481 738 326 881 325 882 325 882 324 739 481 738 230 740 324 739 231 883 231 883 324 739 323 884 231 883 323 884 232 885 232 885 323 884 322 886 232 885 322 886 233 887 233 887 322 886 321 888 233 887 321 888 234 889 234 889 321 888 235 890 235 890 321 888 320 891 235 890 320 891 236 852 236 852 320 891 319 850 311 780 310 892 194 779 194 779 310 892 309 893 194 779 309 893 308 894 308 894 307 895 194 779 194 779 307 895 306 896 194 779 306 896 305 897 304 898 202 899 305 897 305 897 202 899 201 900 305 897 201 900 200 901 202 899 304 898 203 861 203 861 304 898 303 902 203 861 303 902 262 859 262 859 303 902 263 903 263 903 303 902 302 904 263 903 302 904 301 905 301 905 300 906 263 903 263 903 300 906 299 907 263 903 299 907 298 908 298 908 297 909 263 903 263 903 297 909 296 910 263 903 296 910 264 911 264 911 296 910 295 912 264 911 295 912 265 913 265 913 295 912 242 914 242 914 295 912 243 915 243 915 295 912 294 916 243 915 294 916 244 917 244 917 294 916 548 721 244 917 548 721 245 918 245 918 548 721 246 788 294 916 293 919 548 721 548 721 293 919 292 920 548 721 292 920 291 921 291 921 290 722 548 721 238 854 260 856 239 922 239 922 260 856 259 923 239 922 259 923 240 924 240 924 259 923 241 925 241 925 259 923 258 926 241 925 258 926 218 927 218 927 258 926 219 928 219 928 258 926 257 929 219 928 257 929 220 930 220 930 257 929 256 931 220 930 256 931 221 932 221 932 256 931 255 933 221 932 255 933 222 934 222 934 255 933 254 935 222 934 254 935 253 936 222 934 253 936 223 937 223 937 253 936 252 938 223 937 252 938 251 939 223 937 251 939 224 940 224 940 251 939 250 941 224 940 250 941 225 813 225 813 250 941 249 810 209 772 208 942 475 753 475 753 208 942 207 943 475 753 207 943 206 757 205 765 204 944 455 767 455 767 204 944 203 861 200 901 199 945 305 897 305 897 199 945 198 946 305 897 198 946 197 947 197 947 196 948 305 897 305 897 196 948 195 949 305 897 195 949 194 779 552 950 548 951 492 952 492 952 548 951 493 953 493 953 548 951 473 644 493 953 473 644 472 643 553 954 554 955 555 956 555 956 554 955 549 957 555 956 549 957 552 958 552 958 549 957 548 959 556 960 550 961 554 962 554 962 550 961 549 963 558 964 559 965 557 966 557 966 559 965 348 967 557 966 348 967 347 968 557 966 347 968 563 969 563 969 347 968 346 970 563 969 346 970 550 971 550 971 346 970 560 972 550 971 560 972 551 973 551 973 560 972 561 974 550 971 556 975 563 969 563 969 556 975 562 976 482 659 481 660 561 977 561 977 481 660 551 978 49 979 561 980 25 981 25 981 561 980 560 982 25 981 560 982 564 983 49 979 48 984 561 980 561 980 48 984 47 985 561 980 47 985 46 986 46 986 45 987 561 980 561 980 45 987 44 988 561 980 44 988 482 989 482 989 44 988 43 990 482 989 43 990 42 991 42 991 41 992 482 989 482 989 41 992 40 993 482 989 40 993 483 994 483 994 40 993 39 995 483 994 39 995 484 996 484 996 39 995 38 997 484 996 38 997 485 998 485 998 38 997 486 999 486 999 38 997 487 1000 487 1000 38 997 37 1001 487 1000 37 1001 488 1002 488 1002 37 1001 489 1003 489 1003 37 1001 472 1004 472 1004 37 1001 36 1005 472 1004 36 1005 35 1006 35 1006 34 1007 472 1004 472 1004 34 1007 493 1008 493 1008 34 1007 33 1009 493 1008 33 1009 32 1010 32 1010 31 1011 493 1008 493 1008 31 1011 494 1012 494 1012 31 1011 495 1013 495 1013 31 1011 496 1014 496 1014 31 1011 30 1015 496 1014 30 1015 29 1016 29 1016 28 1017 496 1014 496 1014 28 1017 565 1018 565 1018 28 1017 27 1019 565 1018 27 1019 26 1020 565 1018 26 1020 564 983 564 983 26 1020 25 981 376 1021 399 1022 377 1023 377 1023 399 1022 378 1024 378 1024 399 1022 398 1025 378 1024 398 1025 379 1026 379 1026 398 1025 397 1027 379 1026 397 1027 380 1028 380 1028 397 1027 396 1029 380 1028 396 1029 381 1030 381 1030 396 1029 395 1031 381 1030 395 1031 382 1032 382 1032 395 1031 394 1033 382 1032 394 1033 383 1034 383 1034 394 1033 393 1035 383 1034 393 1035 384 1036 384 1036 393 1035 392 1037 384 1036 392 1037 385 1038 385 1038 392 1037 391 1039 385 1038 391 1039 386 1040 386 1040 391 1039 390 1041 386 1040 390 1041 387 1042 387 1042 390 1041 389 1043 387 1042 389 1043 388 1044 424 1045 447 1046 425 1047 425 1047 447 1046 426 1048 426 1048 447 1046 446 1049 426 1048 446 1049 427 1050 427 1050 446 1049 445 1051 427 1050 445 1051 428 1052 428 1052 445 1051 444 1053 428 1052 444 1053 429 1054 429 1054 444 1053 443 1055 429 1054 443 1055 430 1056 430 1056 443 1055 442 1057 430 1056 442 1057 431 1058 431 1058 442 1057 441 1059 431 1058 441 1059 432 1060 432 1060 441 1059 440 1061 432 1060 440 1061 433 1062 433 1062 440 1061 439 1063 433 1062 439 1063 434 1064 434 1064 439 1063 438 1065 434 1064 438 1065 435 1066 435 1066 438 1065 437 1067 435 1066 437 1067 436 1068 339 1069 355 1070 340 1071 340 1071 355 1070 354 1072 340 1071 354 1072 358 1073 358 1073 354 1072 353 1074 358 1073 353 1074 566 1075 555 1076 552 1077 566 1075 566 1075 552 1077 360 1078 566 1075 360 1078 359 1079 492 1080 491 1081 552 1077 552 1077 491 1081 490 1082 552 1077 490 1082 366 1083 366 1083 365 1084 552 1077 552 1077 365 1084 364 1085 552 1077 364 1085 363 1086 363 1086 362 1087 552 1077 552 1077 362 1087 361 1088 552 1077 361 1088 360 1078 359 1079 358 1073 566 1075 562 1089 556 1090 567 1091 567 1091 556 1090 554 1092 567 1091 554 1092 568 1093 568 1093 554 1092 553 1094 568 1093 553 1094 559 1095 559 1095 558 1096 568 1093 348 1097 559 1098 349 1099 349 1099 559 1098 350 1100 350 1100 559 1098 351 1101 351 1101 559 1098 353 1102 351 1101 353 1102 352 1103 353 1102 559 1098 566 1104 566 1104 559 1098 553 1105 566 1104 553 1105 555 1106 569 1107 568 1108 557 1109 557 1109 568 1108 558 1110 570 1111 564 1112 342 1113 342 1113 564 1112 344 1114 342 1113 344 1114 343 1115 560 1116 346 1117 564 1112 564 1112 346 1117 345 1118 564 1112 345 1118 344 1114 563 1119 562 1120 571 1121 571 1121 562 1120 567 1122 557 1123 563 1124 569 1125 569 1125 563 1124 571 1126 572 1127 573 1128 570 1129 570 1129 573 1128 564 1130 564 1130 573 1128 565 1131 496 1132 565 1133 497 1134 497 1134 565 1133 573 1135 356 1136 375 1137 357 1138 357 1138 375 1137 374 1139 357 1138 374 1139 373 1140 338 1141 341 1142 356 1136 356 1136 341 1142 375 1137 357 1138 373 1140 573 1143 573 1143 373 1140 372 1144 573 1143 372 1144 371 1145 371 1145 370 1146 573 1143 573 1143 370 1146 369 1147 573 1143 369 1147 368 1148 368 1148 367 1149 573 1143 573 1143 367 1149 499 1150 573 1143 499 1150 498 1151 498 1151 497 1152 573 1143 573 1143 572 1153 357 1138 571 1154 567 1155 569 1156 569 1156 567 1155 568 1157 342 1158 357 1159 570 1160 570 1160 357 1159 572 1161 524 1162 547 1163 525 1164 525 1164 547 1163 546 1165 525 1164 546 1165 526 1166 526 1166 546 1165 545 1167 526 1166 545 1167 527 1168 527 1168 545 1167 544 1169 527 1168 544 1169 528 1170 528 1170 544 1169 543 1171 528 1170 543 1171 529 1172 529 1172 543 1171 542 1173 529 1172 542 1173 530 1174 530 1174 542 1173 541 1175 530 1174 541 1175 531 1176 531 1176 541 1175 540 1177 531 1176 540 1177 532 1178 532 1178 540 1177 539 1179 532 1178 539 1179 533 1180 533 1180 539 1179 538 1181 533 1180 538 1181 534 1182 534 1182 538 1181 537 1183 534 1182 537 1183 535 1184 535 1184 537 1183 536 1185</p>
        </triangles>
      </mesh>
    </geometry>
  </library_geometries>
  <library_visual_scenes>
    <visual_scene id="Scene" name="Scene">
      <node id="FootBaseLeft-node" name="FootBaseLeft" type="NODE">
        <instance_geometry url="#FootBaseLeft-mesh">
          <bind_material>
            <technique_common>
              <instance_material symbol="Powder_Coat__White_" target="#Powder_Coat__White_"/>
            </technique_common>
          </bind_material>
        </instance_geometry>
      </node>
    </visual_scene>
  </library_visual_scenes>
  <scene>
    <instance_visual_scene url="#Scene"/>
  </scene>
</COLLADA>
