<?xml version="1.0" encoding="utf-8"?>
<COLLADA xmlns="http://www.collada.org/2005/11/COLLADASchema" version="1.4.1">
  <asset>
    <contributor>
      <authoring_tool>Fusion URDF/XACRO Exporter</authoring_tool>
    </contributor>
    <created>2026-06-08T18:29:35Z</created>
    <modified>2026-06-08T18:29:35Z</modified>
    <unit name="meter" meter="1.0"/>
    <up_axis>Z_UP</up_axis>
  </asset>
  <library_effects>
    <effect id="Steel_-_Satin-effect">
      <profile_COMMON>
        <technique sid="common">
          <lambert>
            <emission><color>0 0 0 1</color></emission>
            <ambient><color>0.0000 0.0000 0.0000 1</color></ambient>
            <diffuse><color>0.6275 0.6275 0.6275 1</color></diffuse>
            <reflective><color>0 0 0 1</color></reflective>
            <transparent opaque="A_ONE"><color>1 1 1 1</color></transparent>
            <transparency><float>1</float></transparency>
          </lambert>
        </technique>
      </profile_COMMON>
    </effect>
  </library_effects>
  <library_materials>
    <material id="Steel_-_Satin" name="Steel_-_Satin">
      <instance_effect url="#Steel_-_Satin-effect"/>
    </material>
  </library_materials>
  <library_geometries>
    <geometry id="FootPadRight-mesh" name="FootPadRight">
      <mesh>
        <source id="FootPadRight-mesh-positions">
          <float_array id="FootPadRight-mesh-positions-array" count="312">0.092021 0.041023 0.307690 0.089495 0.038497 0.307475 0.087006 0.036009 0.306827 0.084599 0.033602 0.305725 0.082331 0.031334 0.304140 0.080287 0.029290 0.302035 0.078595 0.027598 0.299380 0.077937 0.026939 0.297852 0.077439 0.026441 0.296207 0.077127 0.026130 0.294473 0.077021 0.026023 0.292690 0.121071 0.026023 0.292690 0.120965 0.026130 0.294473 0.120653 0.026441 0.296207 0.120155 0.026939 0.297852 0.119497 0.027598 0.299380 0.117805 0.029290 0.302035 0.115761 0.031334 0.304140 0.113493 0.033602 0.305725 0.111086 0.036009 0.306827 0.108597 0.038497 0.307475 0.106071 0.041023 0.307690 0.102556 0.196023 0.292690 0.095536 0.196023 0.292690 0.077021 0.196023 0.292690 0.077127 0.195917 0.294473 0.077439 0.195605 0.296207 0.077937 0.195107 0.297852 0.078595 0.194448 0.299380 0.080287 0.192756 0.302035 0.082331 0.190712 0.304140 0.084599 0.188445 0.305725 0.087006 0.186037 0.306827 0.089495 0.183549 0.307475 0.092021 0.181023 0.307690 0.106071 0.181023 0.307690 0.108597 0.183549 0.307475 0.111086 0.186037 0.306827 0.113493 0.188445 0.305725 0.115761 0.190712 0.304140 0.117805 0.192756 0.302035 0.119497 0.194448 0.299380 0.120155 0.195107 0.297852 0.120653 0.195605 0.296207 0.120965 0.195917 0.294473 0.121071 0.196023 0.292690 0.092021 0.087085 0.307690 0.091596 0.087105 0.307684 0.091181 0.087211 0.307666 0.090798 0.087388 0.307640 0.090451 0.087618 0.307607 0.089823 0.088202 0.307528 0.089300 0.088880 0.307441 0.087811 0.091938 0.307087 0.086833 0.095263 0.306764 0.086181 0.098524 0.306507 0.085383 0.105503 0.306141 0.085148 0.112351 0.306023 0.085383 0.119199 0.306141 0.086181 0.126179 0.306507 0.086833 0.129439 0.306764 0.087811 0.132765 0.307088 0.089300 0.135822 0.307441 0.089823 0.136500 0.307528 0.090451 0.137085 0.307607 0.090798 0.137314 0.307640 0.091181 0.137491 0.307666 0.091596 0.137598 0.307684 0.092021 0.137617 0.307690 0.081414 0.111023 0.303296 0.084521 0.111023 0.305680 0.079030 0.111023 0.300190 0.077532 0.111023 0.296572 0.106071 0.136648 0.307690 0.106466 0.136582 0.307684 0.106844 0.136453 0.307670 0.107559 0.136032 0.307616 0.108171 0.135480 0.307542 0.108702 0.134846 0.307457 0.110289 0.131966 0.307085 0.111377 0.128800 0.306720 0.112127 0.125643 0.306413 0.113047 0.118991 0.305969 0.113325 0.112351 0.305819 0.113047 0.105711 0.305969 0.112127 0.099059 0.306413 0.111377 0.095903 0.306720 0.110289 0.092737 0.307085 0.108702 0.089856 0.307457 0.108171 0.089222 0.307542 0.107559 0.088670 0.307616 0.106844 0.088249 0.307670 0.106466 0.088120 0.307684 0.106071 0.088055 0.307690 0.116678 0.111023 0.303296 0.113572 0.111023 0.305680 0.119062 0.111023 0.300190 0.120560 0.111023 0.296572 0.095536 0.041473 0.292690 0.102556 0.041473 0.292690 0.092728 0.041473 0.286140 0.105364 0.041473 0.286140 0.105364 0.196023 0.286140 0.092728 0.196023 0.286140</float_array>
          <technique_common>
            <accessor source="#FootPadRight-mesh-positions-array" count="104" stride="3">
              <param name="X" type="float"/>
              <param name="Y" type="float"/>
              <param name="Z" type="float"/>
            </accessor>
          </technique_common>
        </source>
        <source id="FootPadRight-mesh-normals">
          <float_array id="FootPadRight-mesh-normals-array" count="648">0.000000 -0.000000 1.000000 0.000000 -0.168393 0.985720 0.000000 -0.000000 1.000000 0.000000 -0.168393 0.985720 0.000000 -0.334286 0.942472 0.000000 -0.334286 0.942472 0.000000 -0.494764 0.869027 0.000000 -0.494764 0.869027 0.000000 -0.645953 0.763377 0.000000 -0.645954 0.763377 0.000000 -0.782215 0.623008 0.000000 -0.782216 0.623008 0.000000 -0.895013 0.446039 0.000000 -0.895013 0.446040 0.000000 -0.938914 0.344151 0.000000 -0.938914 0.344151 0.000000 -0.972121 0.234480 0.000000 -0.972121 0.234480 0.000000 -0.992911 0.118864 0.000000 -1.000000 0.000000 0.000000 -1.000000 0.000000 0.000000 -0.992911 0.118864 -0.000000 1.000000 0.000000 -0.000000 0.992910 0.118864 -0.000000 1.000000 0.000000 -0.000000 0.992910 0.118864 0.000000 1.000000 -0.000000 -0.000000 1.000000 0.000000 -0.000000 0.972121 0.234480 -0.000000 0.972121 0.234480 -0.000000 0.938914 0.344151 -0.000000 0.938914 0.344151 -0.000000 0.895013 0.446040 -0.000000 0.895013 0.446040 -0.000000 0.782215 0.623008 -0.000000 0.782215 0.623008 -0.000000 0.645953 0.763377 -0.000000 0.645953 0.763377 -0.000000 0.494764 0.869027 -0.000000 0.494764 0.869027 -0.000000 0.334286 0.942472 -0.000000 0.334286 0.942472 -0.000000 0.168392 0.985720 -0.000000 0.168392 0.985720 -0.000000 0.000000 1.000000 -0.000000 0.000000 1.000000 -0.168382 -0.000000 0.985722 -0.081520 -0.000000 0.996672 0.000016 -0.000000 1.000000 -0.055936 -0.000000 0.998434 -0.028266 -0.000000 0.999600 -0.334279 -0.000000 0.942474 -0.280620 -0.000000 0.959819 -0.181338 -0.000000 0.983421 -0.146468 -0.000000 0.989215 -0.494760 -0.000000 0.869030 -0.442504 -0.000000 0.896766 -0.389265 -0.000000 0.921126 -0.345837 -0.000000 0.938295 -0.645953 -0.000000 0.763377 -0.499996 -0.000000 0.866028 -0.458135 -0.000000 0.888883 -0.707108 -0.000000 0.707106 -0.782218 -0.000000 0.623005 -0.866029 -0.000000 0.499994 -0.895017 -0.000000 0.446031 -0.938918 -0.000000 0.344140 -0.965929 -0.000000 0.258807 -0.972124 -0.000000 0.234466 -0.992912 -0.000000 0.118848 -1.000000 -0.000000 -0.000018 -1.000000 -0.000000 -0.000017 -0.992912 -0.000000 0.118849 -0.972124 -0.000000 0.234467 -0.938918 -0.000000 0.344141 -0.895017 -0.000000 0.446032 -0.782218 -0.000000 0.623005 -0.645954 -0.000000 0.763377 -0.494761 -0.000000 0.869029 -0.442504 -0.000000 0.896766 -0.334279 -0.000000 0.942474 -0.389265 -0.000000 0.921126 -0.345837 -0.000000 0.938294 -0.280620 -0.000000 0.959819 -0.168382 -0.000000 0.985722 -0.181339 -0.000000 0.983421 -0.146469 -0.000000 0.989215 -0.104648 -0.000000 0.994509 -0.081521 -0.000000 0.996672 0.000014 -0.000000 1.000000 -0.055936 -0.000000 0.998434 -0.028266 -0.000000 0.999600 0.000014 -0.000000 1.000000 -0.104647 -0.000000 0.994509 0.000015 -0.000000 1.000000 0.168382 -0.000000 0.985722 0.099176 -0.000000 0.995070 -0.000014 -0.000000 1.000000 0.051468 -0.000000 0.998675 0.026307 -0.000000 0.999654 0.334279 -0.000000 0.942474 0.281160 -0.000000 0.959661 0.175383 -0.000000 0.984500 0.139955 -0.000000 0.990158 0.494761 -0.000000 0.869029 0.403699 -0.000000 0.914892 0.353679 -0.000000 0.935367 0.645954 -0.000000 0.763377 0.499996 -0.000000 0.866028 0.465026 -0.000000 0.885297 0.707108 -0.000000 0.707106 0.782218 -0.000000 0.623004 0.866029 -0.000000 0.499994 0.895017 -0.000000 0.446031 0.938918 -0.000000 0.344141 0.965929 -0.000000 0.258807 0.972124 -0.000000 0.234467 0.992912 -0.000000 0.118849 1.000000 -0.000000 -0.000017 1.000000 -0.000000 -0.000018 0.992912 -0.000000 0.118848 0.972124 -0.000000 0.234466 0.938918 -0.000000 0.344140 0.895018 -0.000000 0.446031 0.782218 -0.000000 0.623004 0.645953 -0.000000 0.763377 0.494760 -0.000000 0.869030 0.483583 -0.000000 0.875298 0.465026 -0.000000 0.885297 0.403699 -0.000000 0.914892 0.334279 -0.000000 0.942474 0.353679 -0.000000 0.935367 0.281160 -0.000000 0.959661 0.168382 -0.000000 0.985722 0.175383 -0.000000 0.984500 0.139955 -0.000000 0.990158 0.099176 -0.000000 0.995070 -0.000016 -0.000000 1.000000 0.051468 -0.000000 0.998675 0.026307 -0.000000 0.999654 -0.000016 -0.000000 1.000000 -0.000015 -0.000000 1.000000 -0.007994 -0.132912 0.991096 -0.007760 -0.131905 0.991232 -0.008131 -0.133498 0.991016 -0.009668 -0.139894 0.990119 -0.011337 -0.146497 0.989146 -0.010401 -0.142834 0.989692 -0.010987 -0.145139 0.989350 -0.006176 -0.124857 0.992156 -0.007457 -0.130590 0.991408 -0.007110 -0.129062 0.991611 -0.006312 -0.125476 0.992077 -0.005468 -0.121562 0.992569 -0.002509 -0.106642 0.994294 -0.002195 -0.104928 0.994477 0.000696 -0.087514 0.996163 0.000716 -0.087384 0.996174 0.002978 -0.070690 0.997494 0.005553 -0.044470 0.998995 0.006195 -0.034959 0.999370 0.007231 -0.000000 0.999974 0.007231 -0.000000 0.999974 0.006195 0.034958 0.999370 0.005553 0.044470 0.998995 0.002978 0.070689 0.997494 0.000716 0.087384 0.996174 0.000696 0.087514 0.996163 -0.002195 0.104928 0.994477 -0.002508 0.106642 0.994294 -0.005468 0.121562 0.992569 -0.006176 0.124856 0.992156 -0.006312 0.125476 0.992077 -0.007110 0.129062 0.991611 -0.008131 0.133498 0.991016 -0.007457 0.130590 0.991408 -0.007760 0.131905 0.991232 -0.007994 0.132912 0.991096 -0.009668 0.139894 0.990119 -0.011337 0.146497 0.989146 -0.010401 0.142834 0.989692 -0.010987 0.145139 0.989350 -0.011340 0.146510 0.989144 -0.011388 0.146696 0.989116 -0.011340 -0.146510 0.989144 -0.011388 -0.146696 0.989116 -0.000000 -0.000000 1.000000 -0.000000 -0.000000 1.000000 -0.000000 -0.000000 1.000000 -0.000000 -0.000000 1.000000 0.000000 0.000000 -1.000000 0.000000 0.000000 -1.000000 0.000000 0.000000 -1.000000 0.000000 0.000000 -1.000000 0.000000 0.000000 -1.000000 0.000000 0.000000 -1.000000 0.000000 0.000000 -1.000000 0.000000 0.000000 -1.000000 0.000000 -1.000000 0.000000 0.000000 -1.000000 0.000000 0.000000 -1.000000 0.000000 0.000000 -1.000000 0.000000 -0.000000 1.000000 -0.000000 -0.000000 1.000000 -0.000000 0.000000 -0.000000 -1.000000 0.000000 -0.000000 -1.000000 0.000000 -0.000000 -1.000000 0.000000 -0.000000 -1.000000 0.919145 0.000000 0.393920 0.919145 0.000000 0.393920 0.919145 0.000000 0.393920 0.919145 0.000000 0.393920 -0.919145 0.000000 0.393919 -0.919145 0.000000 0.393919 -0.919145 0.000000 0.393919 -0.919145 0.000000 0.393919</float_array>
          <technique_common>
            <accessor source="#FootPadRight-mesh-normals-array" count="216" stride="3">
              <param name="X" type="float"/>
              <param name="Y" type="float"/>
              <param name="Z" type="float"/>
            </accessor>
          </technique_common>
        </source>
        <vertices id="FootPadRight-mesh-vertices">
          <input semantic="POSITION" source="#FootPadRight-mesh-positions"/>
        </vertices>
        <triangles material="Steel_-_Satin" count="204">
          <input semantic="VERTEX" source="#FootPadRight-mesh-vertices" offset="0"/>
          <input semantic="NORMAL" source="#FootPadRight-mesh-normals" offset="1"/>
          <p>0 0 1 1 21 2 21 2 1 1 20 3 20 3 1 1 2 4 20 3 2 4 19 5 19 5 2 4 3 6 19 5 3 6 18 7 18 7 3 6 4 8 18 7 4 8 17 9 17 9 4 8 5 10 17 9 5 10 16 11 16 11 5 10 6 12 16 11 6 12 15 13 15 13 6 12 14 14 14 14 6 12 7 15 14 14 7 15 13 16 13 16 7 15 8 17 13 16 8 17 9 18 10 19 11 20 9 18 9 18 11 20 12 21 9 18 12 21 13 16 23 22 25 23 22 24 22 24 25 23 44 25 22 24 44 25 45 26 23 22 24 27 25 23 44 25 25 23 43 28 43 28 25 23 26 29 43 28 26 29 27 30 43 28 27 30 42 31 42 31 27 30 28 32 42 31 28 32 41 33 41 33 28 32 40 34 40 34 28 32 29 35 40 34 29 35 39 36 39 36 29 35 30 37 39 36 30 37 38 38 38 38 30 37 31 39 38 38 31 39 37 40 37 40 31 39 32 41 37 40 32 41 36 42 36 42 32 41 33 43 36 42 33 43 35 44 35 44 33 43 34 45 33 46 65 47 34 48 34 48 65 47 66 49 34 48 66 49 67 50 32 51 61 52 33 46 33 46 61 52 62 53 33 46 62 53 63 54 31 55 58 56 32 51 32 51 58 56 59 57 32 51 59 57 60 58 30 59 70 60 31 55 31 55 70 60 57 61 31 55 57 61 58 56 70 60 30 59 69 62 69 62 30 59 29 63 69 62 29 63 71 64 71 64 29 63 28 65 71 64 28 65 27 66 71 64 27 66 72 67 72 67 27 66 26 68 72 67 26 68 25 69 24 70 10 71 25 69 25 69 10 71 72 67 10 71 9 72 72 67 72 67 9 72 8 73 72 67 8 73 7 74 72 67 7 74 71 64 71 64 7 74 6 75 71 64 6 75 5 76 71 64 5 76 69 62 69 62 5 76 4 77 69 62 4 77 70 60 70 60 4 77 3 78 70 60 3 78 57 61 57 61 3 78 56 79 56 79 3 78 2 80 56 79 2 80 55 81 55 81 2 80 54 82 54 82 2 80 53 83 53 83 2 80 1 84 53 83 1 84 52 85 52 85 1 84 51 86 51 86 1 84 50 87 50 87 1 84 49 88 49 88 1 84 0 89 49 88 0 89 48 90 48 90 0 89 47 91 47 91 0 89 46 92 60 58 61 52 32 51 63 54 64 93 33 46 33 46 64 93 65 47 67 50 68 94 34 48 20 95 90 96 21 97 21 97 90 96 91 98 21 97 91 98 92 99 19 100 87 101 20 95 20 95 87 101 88 102 20 95 88 102 89 103 18 104 85 105 19 100 19 100 85 105 86 106 19 100 86 106 87 101 17 107 95 108 18 104 18 104 95 108 84 109 18 104 84 109 85 105 95 108 17 107 94 110 94 110 17 107 16 111 94 110 16 111 96 112 96 112 16 111 15 113 96 112 15 113 14 114 96 112 14 114 97 115 97 115 14 114 13 116 97 115 13 116 12 117 12 117 11 118 97 115 97 115 11 118 45 119 97 115 45 119 44 120 44 120 43 121 97 115 97 115 43 121 42 122 97 115 42 122 96 112 96 112 42 122 41 123 96 112 41 123 40 124 96 112 40 124 94 110 94 110 40 124 39 125 94 110 39 125 95 108 95 108 39 125 38 126 95 108 38 126 83 127 83 127 38 126 82 128 82 128 38 126 81 129 81 129 38 126 37 130 81 129 37 130 80 131 80 131 37 130 79 132 79 132 37 130 36 133 79 132 36 133 78 134 78 134 36 133 77 135 77 135 36 133 76 136 76 136 36 133 35 137 76 136 35 137 75 138 75 138 35 137 74 139 74 139 35 137 73 140 83 127 84 109 95 108 89 103 90 96 20 95 92 99 93 141 21 97 67 142 66 143 68 144 68 144 66 143 78 145 68 144 78 145 73 146 73 146 78 145 77 147 73 146 77 147 76 148 78 145 66 143 79 149 79 149 66 143 65 150 79 149 65 150 64 151 64 151 63 152 79 149 79 149 63 152 62 153 79 149 62 153 80 154 80 154 62 153 61 155 80 154 61 155 60 156 80 154 60 156 81 157 81 157 60 156 59 158 81 157 59 158 82 159 82 159 59 158 58 160 82 159 58 160 83 161 83 161 58 160 57 162 83 161 57 162 56 163 83 161 56 163 84 164 84 164 56 163 55 165 84 164 55 165 85 166 85 166 55 165 54 167 85 166 54 167 53 168 85 166 53 168 86 169 86 169 53 168 52 170 86 169 52 170 87 171 87 171 52 170 51 172 87 171 51 172 50 173 87 171 50 173 46 174 46 174 50 173 49 175 46 174 49 175 48 176 48 176 47 177 46 174 87 171 46 174 88 178 88 178 46 174 93 179 88 178 93 179 89 180 89 180 93 179 90 181 90 181 93 179 91 182 91 182 93 179 92 183 76 148 75 184 73 146 73 146 75 184 74 185 93 186 46 187 21 2 21 2 46 187 0 0 34 45 68 188 35 44 35 44 68 188 73 189 23 190 98 191 24 192 24 192 98 191 10 193 10 193 98 191 99 194 10 193 99 194 11 195 11 195 99 194 45 196 45 196 99 194 22 197 98 198 100 199 99 200 99 200 100 199 101 201 102 202 103 203 22 24 22 24 103 203 23 22 101 204 100 205 102 206 102 206 100 205 103 207 99 208 101 209 22 210 22 210 101 209 102 211 98 212 23 213 100 214 100 214 23 213 103 215</p>
        </triangles>
      </mesh>
    </geometry>
  </library_geometries>
  <library_visual_scenes>
    <visual_scene id="Scene" name="Scene">
      <node id="FootPadRight-node" name="FootPadRight" type="NODE">
        <instance_geometry url="#FootPadRight-mesh">
          <bind_material>
            <technique_common>
              <instance_material symbol="Steel_-_Satin" target="#Steel_-_Satin"/>
            </technique_common>
          </bind_material>
        </instance_geometry>
      </node>
    </visual_scene>
  </library_visual_scenes>
  <scene>
    <instance_visual_scene url="#Scene"/>
  </scene>
</COLLADA>
