<?xml version="1.0" encoding="utf-8"?>
<COLLADA xmlns="http://www.collada.org/2005/11/COLLADASchema" version="1.4.1">
  <asset>
    <contributor>
      <authoring_tool>Fusion URDF/XACRO Exporter</authoring_tool>
    </contributor>
    <created>2026-06-08T18:29:27Z</created>
    <modified>2026-06-08T18:29:27Z</modified>
    <unit name="meter" meter="1.0"/>
    <up_axis>Z_UP</up_axis>
  </asset>
  <library_effects>
    <effect id="Aluminum_-_Polished-effect">
      <profile_COMMON>
        <technique sid="common">
          <lambert>
            <emission><color>0 0 0 1</color></emission>
            <ambient><color>0.0000 0.0000 0.0000 1</color></ambient>
            <diffuse><color>0.9608 0.9608 0.9647 1</color></diffuse>
            <reflective><color>0 0 0 1</color></reflective>
            <transparent opaque="A_ONE"><color>1 1 1 1</color></transparent>
            <transparency><float>1</float></transparency>
          </lambert>
        </technique>
      </profile_COMMON>
    </effect>
  </library_effects>
  <library_materials>
    <material id="Aluminum_-_Polished" name="Aluminum_-_Polished">
      <instance_effect url="#Aluminum_-_Polished-effect"/>
    </material>
  </library_materials>
  <library_geometries>
    <geometry id="HipRollMountLeft-mesh" name="HipRollMountLeft">
      <mesh>
        <source id="HipRollMountLeft-mesh-positions">
          <float_array id="HipRollMountLeft-mesh-positions-array" count="2046">0.069250 0.023500 0.037500 0.069768 0.023500 0.037568 0.070250 0.023500 0.037768 0.070664 0.023500 0.038086 0.070982 0.023500 0.038500 0.071182 0.023500 0.038982 0.071250 0.023500 0.039500 0.071250 -0.023500 0.039500 0.071182 -0.023500 0.038982 0.070982 -0.023500 0.038500 0.070664 -0.023500 0.038086 0.070250 -0.023500 0.037768 0.069768 -0.023500 0.037568 0.069250 -0.023500 0.037500 0.069768 0.014100 0.037568 0.069768 0.004700 0.037568 0.069768 -0.004700 0.037568 0.069768 -0.014100 0.037568 0.070250 0.014100 0.037768 0.070250 0.004700 0.037768 0.070250 -0.004700 0.037768 0.070250 -0.014100 0.037768 0.070664 0.014100 0.038086 0.070664 0.004700 0.038086 0.070664 -0.004700 0.038086 0.070664 -0.014100 0.038086 0.070982 0.014100 0.038500 0.070982 0.004700 0.038500 0.070982 -0.004700 0.038500 0.070982 -0.014100 0.038500 0.071182 0.014100 0.038982 0.071182 0.004700 0.038982 0.071182 -0.004700 0.038982 0.071182 -0.014100 0.038982 0.071250 -0.011046 0.066183 0.071250 -0.011118 0.065639 0.071250 -0.011328 0.065133 0.071250 -0.011661 0.064698 0.071250 -0.012096 0.064364 0.071250 -0.012603 0.064154 0.071250 -0.013146 0.064083 0.071250 -0.013690 0.064154 0.071250 -0.014196 0.064364 0.071250 -0.014631 0.064698 0.071250 -0.014965 0.065133 0.071250 -0.015175 0.065639 0.071250 -0.015246 0.066183 0.071250 -0.015175 0.066726 0.071250 -0.014965 0.067233 0.071250 -0.014631 0.067667 0.071250 -0.014196 0.068001 0.071250 -0.013690 0.068211 0.071250 -0.013146 0.068282 0.071250 -0.012603 0.068211 0.071250 -0.012096 0.068001 0.071250 -0.011661 0.067667 0.071250 -0.011328 0.067233 0.071250 -0.011118 0.066726 0.071250 -0.011046 0.051002 0.071250 -0.011118 0.050459 0.071250 -0.011328 0.049953 0.071250 -0.011661 0.049518 0.071250 -0.012096 0.049184 0.071250 -0.012603 0.048974 0.071250 -0.013146 0.048903 0.071250 -0.013690 0.048974 0.071250 -0.014196 0.049184 0.071250 -0.014631 0.049518 0.071250 -0.014965 0.049953 0.071250 -0.015175 0.050459 0.071250 -0.015246 0.051002 0.071250 -0.015175 0.051546 0.071250 -0.014965 0.052053 0.071250 -0.014631 0.052487 0.071250 -0.014196 0.052821 0.071250 -0.013690 0.053031 0.071250 -0.013146 0.053102 0.071250 -0.012603 0.053031 0.071250 -0.012096 0.052821 0.071250 -0.011661 0.052487 0.071250 -0.011328 0.052053 0.071250 -0.011118 0.051546 0.071250 0.002100 0.073773 0.071250 0.002028 0.073229 0.071250 0.001819 0.072722 0.071250 0.001485 0.072288 0.071250 0.001050 0.071954 0.071250 0.000544 0.071744 0.071250 0.000000 0.071673 0.071250 -0.000544 0.071744 0.071250 -0.001050 0.071954 0.071250 -0.001485 0.072288 0.071250 -0.001819 0.072722 0.071250 -0.002028 0.073229 0.071250 -0.002100 0.073773 0.071250 -0.002028 0.074316 0.071250 -0.001819 0.074823 0.071250 -0.001485 0.075257 0.071250 -0.001050 0.075591 0.071250 -0.000544 0.075801 0.071250 0.000000 0.075872 0.071250 0.000544 0.075801 0.071250 0.001050 0.075591 0.071250 0.001485 0.075257 0.071250 0.001819 0.074823 0.071250 0.002028 0.074316 0.071250 0.015246 0.051002 0.071250 0.015175 0.050459 0.071250 0.014965 0.049953 0.071250 0.014631 0.049518 0.071250 0.014196 0.049184 0.071250 0.013690 0.048974 0.071250 0.013146 0.048903 0.071250 0.012603 0.048974 0.071250 0.012096 0.049184 0.071250 0.011661 0.049518 0.071250 0.011328 0.049953 0.071250 0.011118 0.050459 0.071250 0.011046 0.051002 0.071250 0.011118 0.051546 0.071250 0.011328 0.052053 0.071250 0.011661 0.052487 0.071250 0.012096 0.052821 0.071250 0.012603 0.053031 0.071250 0.013146 0.053102 0.071250 0.013690 0.053031 0.071250 0.014196 0.052821 0.071250 0.014631 0.052487 0.071250 0.014965 0.052053 0.071250 0.015175 0.051546 0.071250 0.015246 0.066183 0.071250 0.015175 0.065639 0.071250 0.014965 0.065133 0.071250 0.014631 0.064698 0.071250 0.014196 0.064364 0.071250 0.013690 0.064154 0.071250 0.013146 0.064083 0.071250 0.012603 0.064154 0.071250 0.012096 0.064364 0.071250 0.011661 0.064698 0.071250 0.011328 0.065133 0.071250 0.011118 0.065639 0.071250 0.011046 0.066183 0.071250 0.011118 0.066726 0.071250 0.011328 0.067233 0.071250 0.011661 0.067667 0.071250 0.012096 0.068001 0.071250 0.012603 0.068211 0.071250 0.013146 0.068282 0.071250 0.013690 0.068211 0.071250 0.014196 0.068001 0.071250 0.014631 0.067667 0.071250 0.014965 0.067233 0.071250 0.015175 0.066726 0.071250 0.023500 0.064685 0.071250 0.022989 0.068567 0.071250 0.021490 0.072185 0.071250 0.019107 0.075292 0.071250 0.016000 0.077675 0.071250 0.012382 0.079174 0.071250 0.008500 0.079685 0.071250 -0.008500 0.079685 0.071250 -0.012382 0.079174 0.071250 -0.016000 0.077675 0.071250 -0.019107 0.075292 0.071250 -0.021490 0.072185 0.071250 -0.022989 0.068567 0.071250 -0.023500 0.064685 0.000000 0.023500 0.037500 0.000000 0.023500 0.042500 0.064250 0.023500 0.042500 0.064768 0.023500 0.042568 0.065250 0.023500 0.042768 0.065664 0.023500 0.043086 0.065982 0.023500 0.043500 0.066182 0.023500 0.043982 0.066250 0.023500 0.044500 0.066250 0.023500 0.064685 0.064250 -0.023500 0.042500 0.064768 -0.023500 0.042568 0.065250 -0.023500 0.042768 0.065664 -0.023500 0.043086 0.065982 -0.023500 0.043500 0.066182 -0.023500 0.043982 0.066250 -0.023500 0.044500 0.064768 -0.014100 0.042568 0.064768 -0.004700 0.042568 0.064768 0.004700 0.042568 0.064768 0.014100 0.042568 0.065250 -0.014100 0.042768 0.065250 -0.004700 0.042768 0.065250 0.004700 0.042768 0.065250 0.014100 0.042768 0.065664 -0.014100 0.043086 0.065664 -0.004700 0.043086 0.065664 0.004700 0.043086 0.065664 0.014100 0.043086 0.065982 -0.014100 0.043500 0.065982 -0.004700 0.043500 0.065982 0.004700 0.043500 0.065982 0.014100 0.043500 0.066182 -0.014100 0.043982 0.066182 -0.004700 0.043982 0.066182 0.004700 0.043982 0.066182 0.014100 0.043982 0.066250 -0.023500 0.064685 0.066250 -0.022989 0.068567 0.066250 -0.021490 0.072185 0.066250 -0.019107 0.075292 0.066250 -0.016000 0.077675 0.066250 -0.012382 0.079174 0.066250 -0.008500 0.079685 0.066250 0.008500 0.079685 0.066250 0.012382 0.079174 0.066250 0.016000 0.077675 0.066250 0.019107 0.075292 0.066250 0.021490 0.072185 0.066250 0.022989 0.068567 0.066250 -0.011046 0.066183 0.066250 -0.011118 0.066726 0.066250 -0.011328 0.067233 0.066250 -0.011661 0.067667 0.066250 -0.012096 0.068001 0.066250 -0.012603 0.068211 0.066250 -0.013146 0.068282 0.066250 -0.013690 0.068211 0.066250 -0.014196 0.068001 0.066250 -0.014631 0.067667 0.066250 -0.014965 0.067233 0.066250 -0.015175 0.066726 0.066250 -0.015246 0.066183 0.066250 -0.015175 0.065639 0.066250 -0.014965 0.065133 0.066250 -0.014631 0.064698 0.066250 -0.014196 0.064364 0.066250 -0.013690 0.064154 0.066250 -0.013146 0.064083 0.066250 -0.012603 0.064154 0.066250 -0.012096 0.064364 0.066250 -0.011661 0.064698 0.066250 -0.011328 0.065133 0.066250 -0.011118 0.065639 0.066250 -0.011046 0.051002 0.066250 -0.011118 0.051546 0.066250 -0.011328 0.052053 0.066250 -0.011661 0.052487 0.066250 -0.012096 0.052821 0.066250 -0.012603 0.053031 0.066250 -0.013146 0.053102 0.066250 -0.013690 0.053031 0.066250 -0.014196 0.052821 0.066250 -0.014631 0.052487 0.066250 -0.014965 0.052053 0.066250 -0.015175 0.051546 0.066250 -0.015246 0.051002 0.066250 -0.015175 0.050459 0.066250 -0.014965 0.049953 0.066250 -0.014631 0.049518 0.066250 -0.014196 0.049184 0.066250 -0.013690 0.048974 0.066250 -0.013146 0.048903 0.066250 -0.012603 0.048974 0.066250 -0.012096 0.049184 0.066250 -0.011661 0.049518 0.066250 -0.011328 0.049953 0.066250 -0.011118 0.050459 0.066250 0.002100 0.073773 0.066250 0.002028 0.074316 0.066250 0.001819 0.074823 0.066250 0.001485 0.075257 0.066250 0.001050 0.075591 0.066250 0.000544 0.075801 0.066250 0.000000 0.075872 0.066250 -0.000544 0.075801 0.066250 -0.001050 0.075591 0.066250 -0.001485 0.075257 0.066250 -0.001819 0.074823 0.066250 -0.002028 0.074316 0.066250 -0.002100 0.073773 0.066250 -0.002028 0.073229 0.066250 -0.001819 0.072722 0.066250 -0.001485 0.072288 0.066250 -0.001050 0.071954 0.066250 -0.000544 0.071744 0.066250 0.000000 0.071673 0.066250 0.000544 0.071744 0.066250 0.001050 0.071954 0.066250 0.001485 0.072288 0.066250 0.001819 0.072722 0.066250 0.002028 0.073229 0.066250 0.015246 0.051002 0.066250 0.015175 0.051546 0.066250 0.014965 0.052053 0.066250 0.014631 0.052487 0.066250 0.014196 0.052821 0.066250 0.013690 0.053031 0.066250 0.013146 0.053102 0.066250 0.012603 0.053031 0.066250 0.012096 0.052821 0.066250 0.011661 0.052487 0.066250 0.011328 0.052053 0.066250 0.011118 0.051546 0.066250 0.011046 0.051002 0.066250 0.011118 0.050459 0.066250 0.011328 0.049953 0.066250 0.011661 0.049518 0.066250 0.012096 0.049184 0.066250 0.012603 0.048974 0.066250 0.013146 0.048903 0.066250 0.013690 0.048974 0.066250 0.014196 0.049184 0.066250 0.014631 0.049518 0.066250 0.014965 0.049953 0.066250 0.015175 0.050459 0.066250 0.015246 0.066183 0.066250 0.015175 0.066726 0.066250 0.014965 0.067233 0.066250 0.014631 0.067667 0.066250 0.014196 0.068001 0.066250 0.013690 0.068211 0.066250 0.013146 0.068282 0.066250 0.012603 0.068211 0.066250 0.012096 0.068001 0.066250 0.011661 0.067667 0.066250 0.011328 0.067233 0.066250 0.011118 0.066726 0.066250 0.011046 0.066183 0.066250 0.011118 0.065639 0.066250 0.011328 0.065133 0.066250 0.011661 0.064698 0.066250 0.012096 0.064364 0.066250 0.012603 0.064154 0.066250 0.013146 0.064083 0.066250 0.013690 0.064154 0.066250 0.014196 0.064364 0.066250 0.014631 0.064698 0.066250 0.014965 0.065133 0.066250 0.015175 0.065639 0.000000 -0.023500 0.042500 0.000000 -0.023500 0.037500 0.005229 0.022911 0.042500 0.010196 0.021173 0.042500 0.014652 0.018373 0.042500 0.018373 0.014652 0.042500 0.021173 0.010196 0.042500 0.022911 0.005229 0.042500 0.023500 -0.000000 0.042500 0.022911 -0.005229 0.042500 0.021173 -0.010196 0.042500 0.018373 -0.014652 0.042500 0.014652 -0.018373 0.042500 0.010196 -0.021173 0.042500 0.005229 -0.022911 0.042500 -0.005229 0.022911 0.037500 -0.010196 0.021173 0.037500 -0.014652 0.018373 0.037500 -0.018373 0.014652 0.037500 -0.021173 0.010196 0.037500 -0.022911 0.005229 0.037500 -0.023500 0.000000 0.037500 -0.022911 -0.005229 0.037500 -0.021173 -0.010196 0.037500 -0.018373 -0.014652 0.037500 -0.014652 -0.018373 0.037500 -0.010196 -0.021173 0.037500 -0.005229 -0.022911 0.037500 0.023500 0.000000 0.047500 0.022911 -0.005229 0.047500 0.021173 -0.010196 0.047500 0.018373 -0.014652 0.047500 0.014652 -0.018373 0.047500 0.010196 -0.021173 0.047500 0.005229 -0.022911 0.047500 -0.000000 -0.023500 0.047500 -0.005229 -0.022911 0.047500 -0.010196 -0.021173 0.047500 -0.014652 -0.018373 0.047500 -0.018373 -0.014652 0.047500 -0.021173 -0.010196 0.047500 -0.022911 -0.005229 0.047500 -0.023500 0.000000 0.047500 -0.022911 0.005229 0.047500 -0.021173 0.010196 0.047500 -0.018373 0.014652 0.047500 -0.014652 0.018373 0.047500 -0.010196 0.021173 0.047500 -0.005229 0.022911 0.047500 -0.000000 0.023500 0.047500 0.005229 0.022911 0.047500 0.010196 0.021173 0.047500 0.014652 0.018373 0.047500 0.018373 0.014652 0.047500 0.021173 0.010196 0.047500 0.022911 0.005229 0.047500 0.002250 -0.015180 0.047500 0.002173 -0.014598 0.047500 0.001949 -0.014055 0.047500 0.001591 -0.013589 0.047500 0.001125 -0.013231 0.047500 0.000582 -0.013007 0.047500 0.000000 -0.012930 0.047500 -0.000582 -0.013007 0.047500 -0.001125 -0.013231 0.047500 -0.001591 -0.013589 0.047500 -0.001949 -0.014055 0.047500 -0.002173 -0.014598 0.047500 -0.002250 -0.015180 0.047500 -0.002173 -0.015762 0.047500 -0.001949 -0.016305 0.047500 -0.001591 -0.016771 0.047500 -0.001125 -0.017129 0.047500 -0.000582 -0.017353 0.047500 0.000000 -0.017430 0.047500 0.000582 -0.017353 0.047500 0.001125 -0.017129 0.047500 0.001591 -0.016771 0.047500 0.001949 -0.016305 0.047500 0.002173 -0.015762 0.047500 0.002250 -0.015180 0.037500 0.002173 -0.015762 0.037500 0.001949 -0.016305 0.037500 0.001591 -0.016771 0.037500 0.001125 -0.017129 0.037500 0.000582 -0.017353 0.037500 0.000000 -0.017430 0.037500 -0.000582 -0.017353 0.037500 -0.001125 -0.017129 0.037500 -0.001591 -0.016771 0.037500 -0.001949 -0.016305 0.037500 -0.002173 -0.015762 0.037500 -0.002250 -0.015180 0.037500 -0.002173 -0.014598 0.037500 -0.001949 -0.014055 0.037500 -0.001591 -0.013589 0.037500 -0.001125 -0.013231 0.037500 -0.000582 -0.013007 0.037500 0.000000 -0.012930 0.037500 0.000582 -0.013007 0.037500 0.001125 -0.013231 0.037500 0.001591 -0.013589 0.037500 0.001949 -0.014055 0.037500 0.002173 -0.014598 0.037500 -0.010896 0.007590 0.047500 -0.010973 0.008172 0.047500 -0.011198 0.008715 0.047500 -0.011555 0.009181 0.047500 -0.012021 0.009539 0.047500 -0.012564 0.009763 0.047500 -0.013146 0.009840 0.047500 -0.013729 0.009763 0.047500 -0.014271 0.009539 0.047500 -0.014737 0.009181 0.047500 -0.015095 0.008715 0.047500 -0.015320 0.008172 0.047500 -0.015396 0.007590 0.047500 -0.015320 0.007008 0.047500 -0.015095 0.006465 0.047500 -0.014737 0.005999 0.047500 -0.014271 0.005641 0.047500 -0.013729 0.005417 0.047500 -0.013146 0.005340 0.047500 -0.012564 0.005417 0.047500 -0.012021 0.005641 0.047500 -0.011555 0.005999 0.047500 -0.011198 0.006465 0.047500 -0.010973 0.007008 0.047500 -0.010896 0.007590 0.037500 -0.010973 0.007008 0.037500 -0.011198 0.006465 0.037500 -0.011555 0.005999 0.037500 -0.012021 0.005641 0.037500 -0.012564 0.005417 0.037500 -0.013146 0.005340 0.037500 -0.013729 0.005417 0.037500 -0.014271 0.005641 0.037500 -0.014737 0.005999 0.037500 -0.015095 0.006465 0.037500 -0.015320 0.007008 0.037500 -0.015396 0.007590 0.037500 -0.015320 0.008172 0.037500 -0.015095 0.008715 0.037500 -0.014737 0.009181 0.037500 -0.014271 0.009539 0.037500 -0.013729 0.009763 0.037500 -0.013146 0.009840 0.037500 -0.012564 0.009763 0.037500 -0.012021 0.009539 0.037500 -0.011555 0.009181 0.037500 -0.011198 0.008715 0.037500 -0.010973 0.008172 0.037500 0.002250 0.015180 0.047500 0.002173 0.015762 0.047500 0.001949 0.016305 0.047500 0.001591 0.016771 0.047500 0.001125 0.017129 0.047500 0.000582 0.017353 0.047500 -0.000000 0.017430 0.047500 -0.000582 0.017353 0.047500 -0.001125 0.017129 0.047500 -0.001591 0.016771 0.047500 -0.001949 0.016305 0.047500 -0.002173 0.015762 0.047500 -0.002250 0.015180 0.047500 -0.002173 0.014598 0.047500 -0.001949 0.014055 0.047500 -0.001591 0.013589 0.047500 -0.001125 0.013231 0.047500 -0.000582 0.013007 0.047500 -0.000000 0.012930 0.047500 0.000582 0.013007 0.047500 0.001125 0.013231 0.047500 0.001591 0.013589 0.047500 0.001949 0.014055 0.047500 0.002173 0.014598 0.047500 0.002250 0.015180 0.037500 0.002173 0.014598 0.037500 0.001949 0.014055 0.037500 0.001591 0.013589 0.037500 0.001125 0.013231 0.037500 0.000582 0.013007 0.037500 -0.000000 0.012930 0.037500 -0.000582 0.013007 0.037500 -0.001125 0.013231 0.037500 -0.001591 0.013589 0.037500 -0.001949 0.014055 0.037500 -0.002173 0.014598 0.037500 -0.002250 0.015180 0.037500 -0.002173 0.015762 0.037500 -0.001949 0.016305 0.037500 -0.001591 0.016771 0.037500 -0.001125 0.017129 0.037500 -0.000582 0.017353 0.037500 -0.000000 0.017430 0.037500 0.000582 0.017353 0.037500 0.001125 0.017129 0.037500 0.001591 0.016771 0.037500 0.001949 0.016305 0.037500 0.002173 0.015762 0.037500 0.015396 0.007590 0.047500 0.015320 0.008172 0.047500 0.015095 0.008715 0.047500 0.014737 0.009181 0.047500 0.014271 0.009539 0.047500 0.013729 0.009763 0.047500 0.013146 0.009840 0.047500 0.012564 0.009763 0.047500 0.012021 0.009539 0.047500 0.011555 0.009181 0.047500 0.011198 0.008715 0.047500 0.010973 0.008172 0.047500 0.010896 0.007590 0.047500 0.010973 0.007008 0.047500 0.011198 0.006465 0.047500 0.011555 0.005999 0.047500 0.012021 0.005641 0.047500 0.012564 0.005417 0.047500 0.013146 0.005340 0.047500 0.013729 0.005417 0.047500 0.014271 0.005641 0.047500 0.014737 0.005999 0.047500 0.015095 0.006465 0.047500 0.015320 0.007008 0.047500 0.015396 0.007590 0.037500 0.015320 0.007008 0.037500 0.015095 0.006465 0.037500 0.014737 0.005999 0.037500 0.014271 0.005641 0.037500 0.013729 0.005417 0.037500 0.013146 0.005340 0.037500 0.012564 0.005417 0.037500 0.012021 0.005641 0.037500 0.011555 0.005999 0.037500 0.011198 0.006465 0.037500 0.010973 0.007008 0.037500 0.010896 0.007590 0.037500 0.010973 0.008172 0.037500 0.011198 0.008715 0.037500 0.011555 0.009181 0.037500 0.012021 0.009539 0.037500 0.012564 0.009763 0.037500 0.013146 0.009840 0.037500 0.013729 0.009763 0.037500 0.014271 0.009539 0.037500 0.014737 0.009181 0.037500 0.015095 0.008715 0.037500 0.015320 0.008172 0.037500 -0.010896 -0.007590 0.047500 -0.010973 -0.007008 0.047500 -0.011198 -0.006465 0.047500 -0.011555 -0.005999 0.047500 -0.012021 -0.005641 0.047500 -0.012564 -0.005417 0.047500 -0.013146 -0.005340 0.047500 -0.013729 -0.005417 0.047500 -0.014271 -0.005641 0.047500 -0.014737 -0.005999 0.047500 -0.015095 -0.006465 0.047500 -0.015320 -0.007008 0.047500 -0.015396 -0.007590 0.047500 -0.015320 -0.008172 0.047500 -0.015095 -0.008715 0.047500 -0.014737 -0.009181 0.047500 -0.014271 -0.009539 0.047500 -0.013729 -0.009763 0.047500 -0.013146 -0.009840 0.047500 -0.012564 -0.009763 0.047500 -0.012021 -0.009539 0.047500 -0.011555 -0.009181 0.047500 -0.011198 -0.008715 0.047500 -0.010973 -0.008172 0.047500 -0.010896 -0.007590 0.037500 -0.010973 -0.008172 0.037500 -0.011198 -0.008715 0.037500 -0.011555 -0.009181 0.037500 -0.012021 -0.009539 0.037500 -0.012564 -0.009763 0.037500 -0.013146 -0.009840 0.037500 -0.013729 -0.009763 0.037500 -0.014271 -0.009539 0.037500 -0.014737 -0.009181 0.037500 -0.015095 -0.008715 0.037500 -0.015320 -0.008172 0.037500 -0.015396 -0.007590 0.037500 -0.015320 -0.007008 0.037500 -0.015095 -0.006465 0.037500 -0.014737 -0.005999 0.037500 -0.014271 -0.005641 0.037500 -0.013729 -0.005417 0.037500 -0.013146 -0.005340 0.037500 -0.012564 -0.005417 0.037500 -0.012021 -0.005641 0.037500 -0.011555 -0.005999 0.037500 -0.011198 -0.006465 0.037500 -0.010973 -0.007008 0.037500 0.015396 -0.007590 0.047500 0.015320 -0.007008 0.047500 0.015095 -0.006465 0.047500 0.014737 -0.005999 0.047500 0.014271 -0.005641 0.047500 0.013729 -0.005417 0.047500 0.013146 -0.005340 0.047500 0.012564 -0.005417 0.047500 0.012021 -0.005641 0.047500 0.011555 -0.005999 0.047500 0.011198 -0.006465 0.047500 0.010973 -0.007008 0.047500 0.010896 -0.007590 0.047500 0.010973 -0.008172 0.047500 0.011198 -0.008715 0.047500 0.011555 -0.009181 0.047500 0.012021 -0.009539 0.047500 0.012564 -0.009763 0.047500 0.013146 -0.009840 0.047500 0.013729 -0.009763 0.047500 0.014271 -0.009539 0.047500 0.014737 -0.009181 0.047500 0.015095 -0.008715 0.047500 0.015320 -0.008172 0.047500 0.015396 -0.007590 0.037500 0.015320 -0.008172 0.037500 0.015095 -0.008715 0.037500 0.014737 -0.009181 0.037500 0.014271 -0.009539 0.037500 0.013729 -0.009763 0.037500 0.013146 -0.009840 0.037500 0.012564 -0.009763 0.037500 0.012021 -0.009539 0.037500 0.011555 -0.009181 0.037500 0.011198 -0.008715 0.037500 0.010973 -0.008172 0.037500 0.010896 -0.007590 0.037500 0.010973 -0.007008 0.037500 0.011198 -0.006465 0.037500 0.011555 -0.005999 0.037500 0.012021 -0.005641 0.037500 0.012564 -0.005417 0.037500 0.013146 -0.005340 0.037500 0.013729 -0.005417 0.037500 0.014271 -0.005641 0.037500 0.014737 -0.005999 0.037500 0.015095 -0.006465 0.037500 0.015320 -0.007008 0.037500</float_array>
          <technique_common>
            <accessor source="#HipRollMountLeft-mesh-positions-array" count="682" stride="3">
              <param name="X" type="float"/>
              <param name="Y" type="float"/>
              <param name="Z" type="float"/>
            </accessor>
          </technique_common>
        </source>
        <source id="HipRollMountLeft-mesh-normals">
          <float_array id="HipRollMountLeft-mesh-normals-array" count="3972">0.258819 -0.000000 -0.965926 0.258819 -0.000000 -0.965926 -0.000000 0.000000 -1.000000 0.258819 -0.000000 -0.965926 0.258819 -0.000000 -0.965926 0.500000 -0.000000 -0.866025 0.500000 -0.000000 -0.866025 0.707107 -0.000000 -0.707107 0.707107 -0.000000 -0.707107 0.866025 -0.000000 -0.500000 0.866025 -0.000000 -0.500000 0.965926 -0.000000 -0.258819 0.965926 -0.000000 -0.258819 1.000000 -0.000000 -0.000000 0.965926 -0.000000 -0.258819 0.965926 -0.000000 -0.258819 0.866025 -0.000000 -0.500000 0.866025 -0.000000 -0.500000 0.707107 -0.000000 -0.707107 0.707107 -0.000000 -0.707107 0.500000 -0.000000 -0.866025 0.500000 -0.000000 -0.866025 0.866025 -0.000000 -0.500000 0.965926 -0.000000 -0.258819 1.000000 -0.000000 -0.000000 0.965926 -0.000000 -0.258819 0.500000 -0.000000 -0.866025 0.258819 -0.000000 -0.965926 -0.000000 0.000000 -1.000000 0.258819 -0.000000 -0.965926 0.500000 -0.000000 -0.866025 0.707107 -0.000000 -0.707107 0.707107 -0.000000 -0.707107 0.866025 -0.000000 -0.500000 1.000000 0.000000 0.000000 1.000000 0.000000 0.000000 1.000000 0.000000 0.000000 1.000000 0.000000 0.000000 1.000000 0.000000 0.000000 1.000000 0.000000 0.000000 1.000000 0.000000 0.000000 1.000000 0.000000 0.000000 1.000000 0.000000 0.000000 1.000000 0.000000 0.000000 1.000000 0.000000 0.000000 1.000000 0.000000 0.000000 1.000000 0.000000 0.000000 1.000000 0.000000 0.000000 1.000000 0.000000 0.000000 1.000000 0.000000 0.000000 1.000000 0.000000 0.000000 1.000000 0.000000 0.000000 1.000000 0.000000 0.000000 1.000000 0.000000 0.000000 1.000000 0.000000 0.000000 1.000000 0.000000 0.000000 1.000000 0.000000 0.000000 1.000000 0.000000 0.000000 1.000000 0.000000 0.000000 1.000000 0.000000 0.000000 1.000000 0.000000 0.000000 1.000000 0.000000 0.000000 1.000000 0.000000 0.000000 1.000000 0.000000 0.000000 1.000000 0.000000 0.000000 1.000000 0.000000 0.000000 1.000000 0.000000 0.000000 1.000000 0.000000 0.000000 1.000000 0.000000 0.000000 1.000000 0.000000 0.000000 1.000000 0.000000 0.000000 1.000000 0.000000 0.000000 1.000000 0.000000 0.000000 1.000000 0.000000 0.000000 1.000000 0.000000 0.000000 1.000000 0.000000 0.000000 1.000000 0.000000 0.000000 1.000000 0.000000 0.000000 1.000000 0.000000 0.000000 1.000000 0.000000 0.000000 1.000000 0.000000 0.000000 1.000000 0.000000 0.000000 1.000000 0.000000 0.000000 1.000000 0.000000 0.000000 1.000000 0.000000 0.000000 1.000000 0.000000 0.000000 1.000000 0.000000 0.000000 1.000000 0.000000 0.000000 1.000000 0.000000 0.000000 1.000000 0.000000 0.000000 1.000000 0.000000 0.000000 1.000000 0.000000 0.000000 1.000000 0.000000 0.000000 1.000000 0.000000 0.000000 1.000000 0.000000 0.000000 1.000000 0.000000 0.000000 1.000000 0.000000 0.000000 1.000000 0.000000 0.000000 1.000000 0.000000 0.000000 1.000000 0.000000 0.000000 1.000000 0.000000 0.000000 1.000000 0.000000 0.000000 1.000000 0.000000 0.000000 1.000000 0.000000 0.000000 1.000000 0.000000 0.000000 1.000000 0.000000 0.000000 1.000000 0.000000 0.000000 1.000000 0.000000 0.000000 1.000000 0.000000 0.000000 1.000000 0.000000 0.000000 1.000000 0.000000 0.000000 1.000000 0.000000 0.000000 1.000000 0.000000 0.000000 1.000000 0.000000 0.000000 1.000000 0.000000 0.000000 1.000000 0.000000 0.000000 1.000000 0.000000 0.000000 1.000000 0.000000 0.000000 1.000000 0.000000 0.000000 1.000000 0.000000 0.000000 1.000000 0.000000 0.000000 1.000000 0.000000 0.000000 1.000000 0.000000 0.000000 1.000000 0.000000 0.000000 1.000000 0.000000 0.000000 1.000000 0.000000 0.000000 1.000000 0.000000 0.000000 1.000000 0.000000 0.000000 1.000000 0.000000 0.000000 1.000000 0.000000 0.000000 1.000000 0.000000 0.000000 1.000000 0.000000 0.000000 1.000000 0.000000 0.000000 1.000000 0.000000 0.000000 1.000000 0.000000 0.000000 1.000000 0.000000 0.000000 1.000000 0.000000 0.000000 1.000000 0.000000 0.000000 1.000000 0.000000 0.000000 1.000000 0.000000 0.000000 1.000000 0.000000 0.000000 1.000000 0.000000 0.000000 1.000000 0.000000 0.000000 1.000000 0.000000 0.000000 1.000000 0.000000 0.000000 1.000000 0.000000 0.000000 1.000000 0.000000 0.000000 1.000000 0.000000 0.000000 1.000000 0.000000 0.000000 1.000000 0.000000 0.000000 1.000000 0.000000 0.000000 1.000000 0.000000 0.000000 1.000000 0.000000 0.000000 1.000000 0.000000 0.000000 1.000000 0.000000 0.000000 1.000000 0.000000 0.000000 1.000000 0.000000 0.000000 1.000000 0.000000 0.000000 1.000000 0.000000 0.000000 1.000000 0.000000 0.000000 1.000000 0.000000 0.000000 1.000000 0.000000 0.000000 1.000000 0.000000 0.000000 1.000000 0.000000 0.000000 1.000000 0.000000 0.000000 1.000000 0.000000 0.000000 1.000000 0.000000 0.000000 1.000000 0.000000 0.000000 0.000000 1.000000 0.000000 0.000000 1.000000 0.000000 0.000000 1.000000 0.000000 0.000000 1.000000 0.000000 0.000000 1.000000 0.000000 0.000000 1.000000 0.000000 0.000000 1.000000 0.000000 0.000000 1.000000 0.000000 0.000000 1.000000 0.000000 0.000000 1.000000 0.000000 0.000000 1.000000 0.000000 0.000000 1.000000 0.000000 0.000000 1.000000 0.000000 0.000000 1.000000 0.000000 0.000000 1.000000 0.000000 0.000000 1.000000 0.000000 0.000000 1.000000 0.000000 0.000000 1.000000 0.000000 -0.258819 -0.000000 0.965926 -0.258819 -0.000000 0.965926 0.000000 -0.000000 1.000000 -0.258819 -0.000000 0.965926 -0.258819 -0.000000 0.965926 -0.500000 -0.000000 0.866025 -0.500000 -0.000000 0.866025 -0.707107 -0.000000 0.707107 -0.707107 -0.000000 0.707107 -0.866025 -0.000000 0.500000 -0.866025 -0.000000 0.500000 -0.965926 -0.000000 0.258819 -0.965926 -0.000000 0.258819 -1.000000 -0.000000 -0.000000 -0.965926 -0.000000 0.258819 -0.965926 -0.000000 0.258819 -0.866025 -0.000000 0.500000 -0.866025 -0.000000 0.500000 -0.707107 -0.000000 0.707107 -0.707107 -0.000000 0.707107 -0.500000 -0.000000 0.866025 -0.500000 -0.000000 0.866025 -0.866025 -0.000000 0.500000 -0.965926 -0.000000 0.258819 -1.000000 -0.000000 -0.000000 -0.965926 -0.000000 0.258819 -0.500000 -0.000000 0.866025 -0.258819 -0.000000 0.965926 0.000000 -0.000000 1.000000 -0.258819 -0.000000 0.965926 -0.500000 -0.000000 0.866025 -0.707107 -0.000000 0.707107 -0.707107 -0.000000 0.707107 -0.866025 -0.000000 0.500000 -1.000000 0.000000 0.000000 -1.000000 0.000000 0.000000 -1.000000 0.000000 0.000000 -1.000000 0.000000 0.000000 -1.000000 0.000000 0.000000 -1.000000 0.000000 0.000000 -1.000000 0.000000 0.000000 -1.000000 0.000000 0.000000 -1.000000 0.000000 0.000000 -1.000000 0.000000 0.000000 -1.000000 0.000000 0.000000 -1.000000 0.000000 0.000000 -1.000000 0.000000 0.000000 -1.000000 0.000000 0.000000 -1.000000 0.000000 0.000000 -1.000000 0.000000 0.000000 -1.000000 0.000000 0.000000 -1.000000 0.000000 0.000000 -1.000000 0.000000 0.000000 -1.000000 0.000000 0.000000 -1.000000 0.000000 0.000000 -1.000000 0.000000 0.000000 -1.000000 0.000000 0.000000 -1.000000 0.000000 0.000000 -1.000000 0.000000 0.000000 -1.000000 0.000000 0.000000 -1.000000 0.000000 0.000000 -1.000000 0.000000 0.000000 -1.000000 0.000000 0.000000 -1.000000 0.000000 0.000000 -1.000000 0.000000 0.000000 -1.000000 0.000000 0.000000 -1.000000 0.000000 0.000000 -1.000000 0.000000 0.000000 -1.000000 0.000000 0.000000 -1.000000 0.000000 0.000000 -1.000000 0.000000 0.000000 -1.000000 0.000000 0.000000 -1.000000 0.000000 0.000000 -1.000000 0.000000 0.000000 -1.000000 0.000000 0.000000 -1.000000 0.000000 0.000000 -1.000000 0.000000 0.000000 -1.000000 0.000000 0.000000 -1.000000 0.000000 0.000000 -1.000000 0.000000 0.000000 -1.000000 0.000000 0.000000 -1.000000 0.000000 0.000000 -1.000000 0.000000 0.000000 -1.000000 0.000000 0.000000 -1.000000 0.000000 0.000000 -1.000000 0.000000 0.000000 -1.000000 0.000000 0.000000 -1.000000 0.000000 0.000000 -1.000000 0.000000 0.000000 -1.000000 0.000000 0.000000 -1.000000 0.000000 0.000000 -1.000000 0.000000 0.000000 -1.000000 0.000000 0.000000 -1.000000 0.000000 0.000000 -1.000000 0.000000 0.000000 -1.000000 0.000000 0.000000 -1.000000 0.000000 0.000000 -1.000000 0.000000 0.000000 -1.000000 0.000000 0.000000 -1.000000 0.000000 0.000000 -1.000000 0.000000 0.000000 -1.000000 0.000000 0.000000 -1.000000 0.000000 0.000000 -1.000000 0.000000 0.000000 -1.000000 0.000000 0.000000 -1.000000 0.000000 0.000000 -1.000000 0.000000 0.000000 -1.000000 0.000000 0.000000 -1.000000 0.000000 0.000000 -1.000000 0.000000 0.000000 -1.000000 0.000000 0.000000 -1.000000 0.000000 0.000000 -1.000000 0.000000 0.000000 -1.000000 0.000000 0.000000 -1.000000 0.000000 0.000000 -1.000000 0.000000 0.000000 -1.000000 0.000000 0.000000 -1.000000 0.000000 0.000000 -1.000000 0.000000 0.000000 -1.000000 0.000000 0.000000 -1.000000 0.000000 0.000000 -1.000000 0.000000 0.000000 -1.000000 0.000000 0.000000 -1.000000 0.000000 0.000000 -1.000000 0.000000 0.000000 -1.000000 0.000000 0.000000 -1.000000 0.000000 0.000000 -1.000000 0.000000 0.000000 -1.000000 0.000000 0.000000 -1.000000 0.000000 0.000000 -1.000000 0.000000 0.000000 -1.000000 0.000000 0.000000 -1.000000 0.000000 0.000000 -1.000000 0.000000 0.000000 -1.000000 0.000000 0.000000 -1.000000 0.000000 0.000000 -1.000000 0.000000 0.000000 -1.000000 0.000000 0.000000 -1.000000 0.000000 0.000000 -1.000000 0.000000 0.000000 -1.000000 0.000000 0.000000 -1.000000 0.000000 0.000000 -1.000000 0.000000 0.000000 -1.000000 0.000000 0.000000 -1.000000 0.000000 0.000000 -1.000000 0.000000 0.000000 -1.000000 0.000000 0.000000 -1.000000 0.000000 0.000000 -1.000000 0.000000 0.000000 -1.000000 0.000000 0.000000 -1.000000 0.000000 0.000000 -1.000000 0.000000 0.000000 -1.000000 0.000000 0.000000 -1.000000 0.000000 0.000000 -1.000000 0.000000 0.000000 -1.000000 0.000000 0.000000 -1.000000 0.000000 0.000000 -1.000000 0.000000 0.000000 -1.000000 0.000000 0.000000 -1.000000 0.000000 0.000000 -1.000000 0.000000 0.000000 -1.000000 0.000000 0.000000 -1.000000 0.000000 0.000000 -1.000000 0.000000 0.000000 -1.000000 0.000000 0.000000 -1.000000 0.000000 0.000000 -1.000000 0.000000 0.000000 -1.000000 0.000000 0.000000 0.000000 -1.000000 -0.000000 0.000000 -1.000000 -0.000000 -0.000000 -0.965926 0.258819 -0.000000 -0.965926 0.258819 -0.000000 -0.866025 0.500000 -0.000000 -0.866025 0.500000 -0.000000 -0.707107 0.707107 -0.000000 -0.707107 0.707107 -0.000000 -0.500000 0.866025 -0.000000 -0.500000 0.866025 -0.000000 -0.258819 0.965926 -0.000000 -0.258819 0.965926 -0.000000 -0.000000 1.000000 -0.000000 -0.000000 1.000000 0.000000 -1.000000 0.000000 0.000000 -1.000000 0.000000 0.000000 -1.000000 0.000000 0.000000 -1.000000 0.000000 0.000000 -1.000000 0.000000 0.000000 -1.000000 0.000000 0.000000 -1.000000 0.000000 0.000000 -1.000000 0.000000 0.000000 -1.000000 0.000000 0.000000 -1.000000 0.000000 0.000000 -1.000000 0.000000 0.000000 -1.000000 0.000000 0.000000 -1.000000 0.000000 0.000000 -1.000000 0.000000 0.000000 -1.000000 0.000000 0.000000 -1.000000 0.000000 0.000000 0.965926 0.258819 0.000000 0.965926 0.258819 0.000000 0.866025 0.500000 0.000000 0.866025 0.500000 0.000000 0.707107 0.707107 0.000000 0.707107 0.707107 0.000000 0.500000 0.866025 0.000000 0.500000 0.866025 0.000000 0.258819 0.965926 0.000000 0.258819 0.965926 -0.000000 -0.000000 1.000000 -0.000000 -0.000000 1.000000 0.000000 -0.965926 0.258819 0.000000 -0.965926 0.258819 0.000000 -1.000000 0.000000 0.000000 -1.000000 0.000000 -0.000000 -0.965926 -0.258819 -0.000000 -0.965926 -0.258819 -0.000000 -0.866025 -0.500000 -0.000000 -0.866025 -0.500000 -0.000000 -0.707107 -0.707107 -0.000000 -0.707107 -0.707107 -0.000000 -0.500000 -0.866025 -0.000000 -0.500000 -0.866025 -0.000000 -0.258819 -0.965926 -0.000000 -0.258819 -0.965926 0.000000 0.000000 -1.000000 0.000000 0.000000 -1.000000 0.000000 0.258819 -0.965926 0.000000 0.258819 -0.965926 0.000000 0.500000 -0.866025 0.000000 0.500000 -0.866025 0.000000 0.707107 -0.707107 0.000000 0.707107 -0.707107 0.000000 0.866025 -0.500000 0.000000 0.866025 -0.500000 0.000000 0.965926 -0.258819 0.000000 0.965926 -0.258819 0.000000 1.000000 -0.000000 0.000000 1.000000 -0.000000 0.000000 0.965926 0.258819 0.000000 0.965926 0.258819 0.000000 0.866025 0.500000 0.000000 0.866025 0.500000 0.000000 0.707107 0.707107 0.000000 0.707107 0.707107 0.000000 0.500000 0.866025 0.000000 0.500000 0.866025 0.000000 0.258819 0.965926 0.000000 0.258819 0.965926 0.000000 0.000000 1.000000 0.000000 0.000000 1.000000 0.000000 -0.258819 0.965926 0.000000 -0.258819 0.965926 0.000000 -0.500000 0.866025 0.000000 -0.500000 0.866025 0.000000 -0.707107 0.707107 0.000000 -0.707107 0.707107 0.000000 -0.866025 0.500000 0.000000 -0.866025 0.500000 0.000000 -0.965926 0.258819 0.000000 -0.965926 0.258819 0.000000 -1.000000 0.000000 0.000000 -1.000000 0.000000 -0.000000 -0.965926 -0.258819 -0.000000 -0.965926 -0.258819 -0.000000 -0.866025 -0.500000 -0.000000 -0.866025 -0.500000 -0.000000 -0.707107 -0.707107 -0.000000 -0.707107 -0.707107 -0.000000 -0.500000 -0.866025 -0.000000 -0.500000 -0.866025 -0.000000 -0.258819 -0.965926 -0.000000 -0.258819 -0.965926 0.000000 0.000000 -1.000000 0.000000 0.000000 -1.000000 0.000000 0.258819 -0.965926 0.000000 0.258819 -0.965926 0.000000 0.500000 -0.866025 0.000000 0.500000 -0.866025 0.000000 0.707107 -0.707107 0.000000 0.707107 -0.707107 0.000000 0.866025 -0.500000 0.000000 0.866025 -0.500000 0.000000 0.965926 -0.258819 0.000000 0.965926 -0.258819 0.000000 1.000000 -0.000000 0.000000 1.000000 -0.000000 0.000000 0.965926 0.258819 0.000000 0.965926 0.258819 0.000000 0.866025 0.500000 0.000000 0.866025 0.500000 0.000000 0.707107 0.707107 0.000000 0.707107 0.707107 0.000000 0.500000 0.866025 0.000000 0.500000 0.866025 0.000000 0.258819 0.965926 0.000000 0.258819 0.965926 0.000000 0.000000 1.000000 0.000000 0.000000 1.000000 0.000000 -0.258819 0.965926 0.000000 -0.258819 0.965926 0.000000 -0.500000 0.866025 0.000000 -0.500000 0.866025 0.000000 -0.707107 0.707107 0.000000 -0.707107 0.707107 0.000000 -0.866025 0.500000 0.000000 -0.866025 0.500000 0.000000 -0.965926 0.258819 0.000000 -0.965926 0.258819 0.000000 -1.000000 0.000000 0.000000 -1.000000 0.000000 -0.000000 -0.965926 -0.258819 -0.000000 -0.965926 -0.258819 -0.000000 -0.866025 -0.500000 -0.000000 -0.866025 -0.500000 -0.000000 -0.707107 -0.707107 -0.000000 -0.707107 -0.707107 -0.000000 -0.500000 -0.866025 -0.000000 -0.500000 -0.866025 -0.000000 -0.258819 -0.965926 -0.000000 -0.258819 -0.965926 0.000000 0.000000 -1.000000 0.000000 0.000000 -1.000000 0.000000 0.258819 -0.965926 0.000000 0.258819 -0.965926 0.000000 0.500000 -0.866025 0.000000 0.500000 -0.866025 0.000000 0.707107 -0.707107 0.000000 0.707107 -0.707107 0.000000 0.866025 -0.500000 0.000000 0.866025 -0.500000 0.000000 0.965926 -0.258819 0.000000 0.965926 -0.258819 0.000000 1.000000 -0.000000 0.000000 1.000000 -0.000000 0.000000 0.965926 0.258819 0.000000 0.965926 0.258819 0.000000 0.866025 0.500000 0.000000 0.866025 0.500000 0.000000 0.707107 0.707107 0.000000 0.707107 0.707107 0.000000 0.500000 0.866025 0.000000 0.500000 0.866025 0.000000 0.258819 0.965926 0.000000 0.258819 0.965926 0.000000 0.000000 1.000000 0.000000 0.000000 1.000000 0.000000 -0.258819 0.965926 0.000000 -0.258819 0.965926 0.000000 -0.500000 0.866025 0.000000 -0.500000 0.866025 0.000000 -0.707107 0.707107 0.000000 -0.707107 0.707107 0.000000 -0.866025 0.500000 0.000000 -0.866025 0.500000 0.000000 -0.965926 0.258819 0.000000 -0.965926 0.258819 0.000000 -1.000000 0.000000 0.000000 -1.000000 0.000000 -0.000000 -0.965926 -0.258819 -0.000000 -0.965926 -0.258819 -0.000000 -0.866025 -0.500000 -0.000000 -0.866025 -0.500000 -0.000000 -0.707107 -0.707107 -0.000000 -0.707107 -0.707107 -0.000000 -0.500000 -0.866025 -0.000000 -0.500000 -0.866025 -0.000000 -0.258819 -0.965926 -0.000000 -0.258819 -0.965926 0.000000 0.000000 -1.000000 0.000000 0.000000 -1.000000 0.000000 0.258819 -0.965926 0.000000 0.258819 -0.965926 0.000000 0.500000 -0.866025 0.000000 0.500000 -0.866025 0.000000 0.707107 -0.707107 0.000000 0.707107 -0.707107 0.000000 0.866025 -0.500000 0.000000 0.866025 -0.500000 0.000000 0.965926 -0.258819 0.000000 0.965926 -0.258819 0.000000 1.000000 -0.000000 0.000000 1.000000 -0.000000 0.000000 0.965926 0.258819 0.000000 0.965926 0.258819 0.000000 0.866025 0.500000 0.000000 0.866025 0.500000 0.000000 0.707107 0.707107 0.000000 0.707107 0.707107 0.000000 0.500000 0.866025 0.000000 0.500000 0.866025 0.000000 0.258819 0.965926 0.000000 0.258819 0.965926 0.000000 0.000000 1.000000 0.000000 0.000000 1.000000 0.000000 -0.258819 0.965926 0.000000 -0.258819 0.965926 0.000000 -0.500000 0.866025 0.000000 -0.500000 0.866025 0.000000 -0.707107 0.707107 0.000000 -0.707107 0.707107 0.000000 -0.866025 0.500000 0.000000 -0.866025 0.500000 0.000000 -0.965926 0.258819 0.000000 -0.965926 0.258819 0.000000 -1.000000 0.000000 0.000000 -1.000000 0.000000 -0.000000 -0.965926 -0.258819 -0.000000 -0.965926 -0.258819 -0.000000 -0.866025 -0.500000 -0.000000 -0.866025 -0.500000 -0.000000 -0.707107 -0.707107 -0.000000 -0.707107 -0.707107 -0.000000 -0.500000 -0.866025 -0.000000 -0.500000 -0.866025 -0.000000 -0.258819 -0.965926 -0.000000 -0.258819 -0.965926 0.000000 0.000000 -1.000000 0.000000 0.000000 -1.000000 0.000000 0.258819 -0.965926 0.000000 0.258819 -0.965926 0.000000 0.500000 -0.866025 0.000000 0.500000 -0.866025 0.000000 0.707107 -0.707107 0.000000 0.707107 -0.707107 0.000000 0.866025 -0.500000 0.000000 0.866025 -0.500000 0.000000 0.965926 -0.258819 0.000000 0.965926 -0.258819 0.000000 1.000000 -0.000000 0.000000 1.000000 -0.000000 0.000000 0.965926 0.258819 0.000000 0.965926 0.258819 0.000000 0.866025 0.500000 0.000000 0.866025 0.500000 0.000000 0.707107 0.707107 0.000000 0.707107 0.707107 0.000000 0.500000 0.866025 0.000000 0.500000 0.866025 0.000000 0.258819 0.965926 0.000000 0.258819 0.965926 0.000000 0.000000 1.000000 0.000000 0.000000 1.000000 0.000000 -0.258819 0.965926 0.000000 -0.258819 0.965926 0.000000 -0.500000 0.866025 0.000000 -0.500000 0.866025 0.000000 -0.707107 0.707107 0.000000 -0.707107 0.707107 0.000000 -0.866025 0.500000 0.000000 -0.866025 0.500000 0.000000 0.000000 1.000000 0.000000 0.000000 1.000000 0.000000 0.000000 1.000000 0.000000 0.000000 1.000000 0.000000 0.000000 1.000000 0.000000 0.000000 1.000000 0.000000 0.000000 1.000000 0.000000 0.000000 1.000000 0.000000 0.000000 1.000000 0.000000 0.000000 1.000000 0.000000 0.000000 1.000000 0.000000 0.000000 1.000000 0.000000 0.000000 1.000000 0.000000 0.000000 1.000000 0.000000 0.000000 1.000000 -0.222521 -0.974928 0.000000 -0.222521 -0.974928 0.000000 -0.433884 -0.900969 0.000000 -0.000000 -1.000000 0.000000 0.222521 -0.974928 -0.000000 0.222521 -0.974928 -0.000000 0.433884 -0.900969 -0.000000 0.433884 -0.900969 -0.000000 0.623490 -0.781831 -0.000000 0.623490 -0.781831 -0.000000 0.781831 -0.623490 -0.000000 0.781831 -0.623490 -0.000000 0.900969 -0.433884 -0.000000 0.900969 -0.433884 -0.000000 0.974928 -0.222521 -0.000000 0.974928 -0.222521 -0.000000 1.000000 -0.000000 -0.000000 1.000000 -0.000000 -0.000000 0.974928 0.222521 -0.000000 0.974928 0.222521 -0.000000 0.900969 0.433884 -0.000000 0.900969 0.433884 -0.000000 0.781831 0.623490 -0.000000 0.781831 0.623490 -0.000000 0.623490 0.781831 -0.000000 0.623490 0.781831 -0.000000 0.433884 0.900969 -0.000000 0.433884 0.900969 -0.000000 0.222521 0.974928 -0.000000 0.222521 0.974928 -0.000000 -0.000000 1.000000 -0.000000 -0.222521 0.974928 -0.000000 -0.222521 0.974928 -0.000000 -0.433884 0.900969 -0.000000 -0.433884 0.900969 -0.000000 -0.623490 0.781831 -0.000000 -0.623490 0.781831 -0.000000 -0.781831 0.623490 -0.000000 -0.781831 0.623490 -0.000000 -0.900969 0.433884 -0.000000 -0.900969 0.433884 -0.000000 -0.974928 0.222521 -0.000000 -0.974928 0.222521 -0.000000 -1.000000 -0.000000 0.000000 -1.000000 -0.000000 0.000000 -0.974928 -0.222521 0.000000 -0.974928 -0.222521 0.000000 -0.900969 -0.433884 0.000000 -0.900969 -0.433884 0.000000 -0.781831 -0.623490 0.000000 -0.781831 -0.623490 0.000000 -0.623490 -0.781831 0.000000 -0.623490 -0.781831 0.000000 -0.433884 -0.900969 0.000000 -0.965926 -0.258819 0.000000 -0.965926 -0.258819 0.000000 -1.000000 -0.000000 0.000000 -1.000000 -0.000000 0.000000 -0.965926 0.258819 0.000000 -0.965926 0.258819 0.000000 -0.866025 0.500000 0.000000 -0.866025 0.500000 0.000000 -0.707107 0.707107 0.000000 -0.707107 0.707107 0.000000 -0.500000 0.866025 0.000000 -0.500000 0.866025 0.000000 -0.258819 0.965926 0.000000 -0.258819 0.965926 0.000000 0.000000 1.000000 -0.000000 0.000000 1.000000 -0.000000 0.258819 0.965926 -0.000000 0.258819 0.965926 -0.000000 0.500000 0.866025 -0.000000 0.500000 0.866025 -0.000000 0.707107 0.707107 -0.000000 0.707107 0.707107 -0.000000 0.866025 0.500000 -0.000000 0.866025 0.500000 -0.000000 0.965926 0.258819 -0.000000 0.965926 0.258819 -0.000000 1.000000 0.000000 -0.000000 1.000000 0.000000 -0.000000 0.965926 -0.258819 0.000000 0.965926 -0.258819 0.000000 0.866025 -0.500000 0.000000 0.866025 -0.500000 0.000000 0.707107 -0.707107 0.000000 0.707107 -0.707107 0.000000 0.500000 -0.866025 0.000000 0.500000 -0.866025 0.000000 0.258819 -0.965926 0.000000 0.258819 -0.965926 0.000000 0.000000 -1.000000 0.000000 0.000000 -1.000000 0.000000 -0.258819 -0.965926 0.000000 -0.258819 -0.965926 0.000000 -0.500000 -0.866025 0.000000 -0.500000 -0.866025 0.000000 -0.707107 -0.707107 0.000000 -0.707107 -0.707107 0.000000 -0.866025 -0.500000 0.000000 -0.866025 -0.500000 0.000000 -0.965926 -0.258819 0.000000 -0.965926 -0.258819 0.000000 -1.000000 -0.000000 0.000000 -1.000000 -0.000000 0.000000 -0.965926 0.258819 0.000000 -0.965926 0.258819 0.000000 -0.866025 0.500000 0.000000 -0.866025 0.500000 0.000000 -0.707107 0.707107 0.000000 -0.707107 0.707107 0.000000 -0.500000 0.866025 0.000000 -0.500000 0.866025 0.000000 -0.258819 0.965926 0.000000 -0.258819 0.965926 0.000000 0.000000 1.000000 -0.000000 0.000000 1.000000 -0.000000 0.258819 0.965926 -0.000000 0.258819 0.965926 -0.000000 0.500000 0.866025 -0.000000 0.500000 0.866025 -0.000000 0.707107 0.707107 -0.000000 0.707107 0.707107 -0.000000 0.866025 0.500000 -0.000000 0.866025 0.500000 -0.000000 0.965926 0.258819 -0.000000 0.965926 0.258819 -0.000000 1.000000 0.000000 -0.000000 1.000000 0.000000 -0.000000 0.965926 -0.258819 0.000000 0.965926 -0.258819 0.000000 0.866025 -0.500000 0.000000 0.866025 -0.500000 0.000000 0.707107 -0.707107 0.000000 0.707107 -0.707107 0.000000 0.500000 -0.866025 0.000000 0.500000 -0.866025 0.000000 0.258819 -0.965926 0.000000 0.258819 -0.965926 0.000000 0.000000 -1.000000 0.000000 0.000000 -1.000000 0.000000 -0.258819 -0.965926 0.000000 -0.258819 -0.965926 0.000000 -0.500000 -0.866025 0.000000 -0.500000 -0.866025 0.000000 -0.707107 -0.707107 0.000000 -0.707107 -0.707107 0.000000 -0.866025 -0.500000 0.000000 -0.866025 -0.500000 0.000000 -0.965926 -0.258819 0.000000 -0.965926 -0.258819 0.000000 -1.000000 -0.000000 0.000000 -1.000000 -0.000000 0.000000 -0.965926 0.258819 0.000000 -0.965926 0.258819 0.000000 -0.866025 0.500000 0.000000 -0.866025 0.500000 0.000000 -0.707107 0.707107 0.000000 -0.707107 0.707107 0.000000 -0.500000 0.866025 0.000000 -0.500000 0.866025 0.000000 -0.258819 0.965926 0.000000 -0.258819 0.965926 0.000000 0.000000 1.000000 -0.000000 0.000000 1.000000 -0.000000 0.258819 0.965926 -0.000000 0.258819 0.965926 -0.000000 0.500000 0.866025 -0.000000 0.500000 0.866025 -0.000000 0.707107 0.707107 -0.000000 0.707107 0.707107 -0.000000 0.866025 0.500000 -0.000000 0.866025 0.500000 -0.000000 0.965926 0.258819 -0.000000 0.965926 0.258819 -0.000000 1.000000 0.000000 -0.000000 1.000000 0.000000 -0.000000 0.965926 -0.258819 0.000000 0.965926 -0.258819 0.000000 0.866025 -0.500000 0.000000 0.866025 -0.500000 0.000000 0.707107 -0.707107 0.000000 0.707107 -0.707107 0.000000 0.500000 -0.866025 0.000000 0.500000 -0.866025 0.000000 0.258819 -0.965926 0.000000 0.258819 -0.965926 0.000000 0.000000 -1.000000 0.000000 0.000000 -1.000000 0.000000 -0.258819 -0.965926 0.000000 -0.258819 -0.965926 0.000000 -0.500000 -0.866025 0.000000 -0.500000 -0.866025 0.000000 -0.707107 -0.707107 0.000000 -0.707107 -0.707107 0.000000 -0.866025 -0.500000 0.000000 -0.866025 -0.500000 0.000000 -0.965926 -0.258819 0.000000 -0.965926 -0.258819 0.000000 -1.000000 -0.000000 0.000000 -1.000000 -0.000000 0.000000 -0.965926 0.258819 0.000000 -0.965926 0.258819 0.000000 -0.866025 0.500000 0.000000 -0.866025 0.500000 0.000000 -0.707107 0.707107 0.000000 -0.707107 0.707107 0.000000 -0.500000 0.866025 0.000000 -0.500000 0.866025 0.000000 -0.258819 0.965926 0.000000 -0.258819 0.965926 0.000000 0.000000 1.000000 -0.000000 0.000000 1.000000 -0.000000 0.258819 0.965926 -0.000000 0.258819 0.965926 -0.000000 0.500000 0.866025 -0.000000 0.500000 0.866025 -0.000000 0.707107 0.707107 -0.000000 0.707107 0.707107 -0.000000 0.866025 0.500000 -0.000000 0.866025 0.500000 -0.000000 0.965926 0.258819 -0.000000 0.965926 0.258819 -0.000000 1.000000 0.000000 -0.000000 1.000000 0.000000 -0.000000 0.965926 -0.258819 0.000000 0.965926 -0.258819 0.000000 0.866025 -0.500000 0.000000 0.866025 -0.500000 0.000000 0.707107 -0.707107 0.000000 0.707107 -0.707107 0.000000 0.500000 -0.866025 0.000000 0.500000 -0.866025 0.000000 0.258819 -0.965926 0.000000 0.258819 -0.965926 0.000000 0.000000 -1.000000 0.000000 0.000000 -1.000000 0.000000 -0.258819 -0.965926 0.000000 -0.258819 -0.965926 0.000000 -0.500000 -0.866025 0.000000 -0.500000 -0.866025 0.000000 -0.707107 -0.707107 0.000000 -0.707107 -0.707107 0.000000 -0.866025 -0.500000 0.000000 -0.866025 -0.500000 0.000000 -0.965926 -0.258819 0.000000 -0.965926 -0.258819 0.000000 -1.000000 -0.000000 0.000000 -1.000000 -0.000000 0.000000 -0.965926 0.258819 0.000000 -0.965926 0.258819 0.000000 -0.866025 0.500000 0.000000 -0.866025 0.500000 0.000000 -0.707107 0.707107 0.000000 -0.707107 0.707107 0.000000 -0.500000 0.866025 0.000000 -0.500000 0.866025 0.000000 -0.258819 0.965926 0.000000 -0.258819 0.965926 0.000000 0.000000 1.000000 -0.000000 0.000000 1.000000 -0.000000 0.258819 0.965926 -0.000000 0.258819 0.965926 -0.000000 0.500000 0.866025 -0.000000 0.500000 0.866025 -0.000000 0.707107 0.707107 -0.000000 0.707107 0.707107 -0.000000 0.866025 0.500000 -0.000000 0.866025 0.500000 -0.000000 0.965926 0.258819 -0.000000 0.965926 0.258819 -0.000000 1.000000 0.000000 -0.000000 1.000000 0.000000 -0.000000 0.965926 -0.258819 0.000000 0.965926 -0.258819 0.000000 0.866025 -0.500000 0.000000 0.866025 -0.500000 0.000000 0.707107 -0.707107 0.000000 0.707107 -0.707107 0.000000 0.500000 -0.866025 0.000000 0.500000 -0.866025 0.000000 0.258819 -0.965926 0.000000 0.258819 -0.965926 0.000000 0.000000 -1.000000 0.000000 0.000000 -1.000000 0.000000 -0.258819 -0.965926 0.000000 -0.258819 -0.965926 0.000000 -0.500000 -0.866025 0.000000 -0.500000 -0.866025 0.000000 -0.707107 -0.707107 0.000000 -0.707107 -0.707107 0.000000 -0.866025 -0.500000 0.000000 -0.866025 -0.500000 0.000000 -0.965926 -0.258819 0.000000 -0.965926 -0.258819 0.000000 -1.000000 -0.000000 0.000000 -1.000000 -0.000000 0.000000 -0.965926 0.258819 0.000000 -0.965926 0.258819 0.000000 -0.866025 0.500000 0.000000 -0.866025 0.500000 0.000000 -0.707107 0.707107 0.000000 -0.707107 0.707107 0.000000 -0.500000 0.866025 0.000000 -0.500000 0.866025 0.000000 -0.258819 0.965926 0.000000 -0.258819 0.965926 0.000000 0.000000 1.000000 -0.000000 0.000000 1.000000 -0.000000 0.258819 0.965926 -0.000000 0.258819 0.965926 -0.000000 0.500000 0.866025 -0.000000 0.500000 0.866025 -0.000000 0.707107 0.707107 -0.000000 0.707107 0.707107 -0.000000 0.866025 0.500000 -0.000000 0.866025 0.500000 -0.000000 0.965926 0.258819 -0.000000 0.965926 0.258819 -0.000000 1.000000 0.000000 -0.000000 1.000000 0.000000 -0.000000 0.965926 -0.258819 0.000000 0.965926 -0.258819 0.000000 0.866025 -0.500000 0.000000 0.866025 -0.500000 0.000000 0.707107 -0.707107 0.000000 0.707107 -0.707107 0.000000 0.500000 -0.866025 0.000000 0.500000 -0.866025 0.000000 0.258819 -0.965926 0.000000 0.258819 -0.965926 0.000000 0.000000 -1.000000 0.000000 0.000000 -1.000000 0.000000 -0.258819 -0.965926 0.000000 -0.258819 -0.965926 0.000000 -0.500000 -0.866025 0.000000 -0.500000 -0.866025 0.000000 -0.707107 -0.707107 0.000000 -0.707107 -0.707107 0.000000 -0.866025 -0.500000 0.000000 -0.866025 -0.500000 0.000000 0.000000 0.000000 1.000000 0.000000 0.000000 1.000000 0.000000 0.000000 1.000000 0.000000 0.000000 1.000000 0.000000 0.000000 1.000000 0.000000 0.000000 1.000000 0.000000 0.000000 1.000000 0.000000 0.000000 1.000000 0.000000 0.000000 1.000000 0.000000 0.000000 1.000000 0.000000 0.000000 1.000000 0.000000 0.000000 1.000000 0.000000 0.000000 1.000000 0.000000 0.000000 1.000000 0.000000 0.000000 1.000000 0.000000 0.000000 1.000000 0.000000 0.000000 1.000000 0.000000 0.000000 1.000000 0.000000 0.000000 1.000000 0.000000 0.000000 1.000000 0.000000 0.000000 1.000000 0.000000 0.000000 1.000000 0.000000 0.000000 1.000000 0.000000 0.000000 1.000000 0.000000 0.000000 1.000000 0.000000 0.000000 1.000000 0.000000 0.000000 1.000000 0.000000 0.000000 1.000000 0.000000 0.000000 1.000000 0.000000 0.000000 1.000000 0.000000 0.000000 1.000000 0.000000 0.000000 1.000000 0.000000 0.000000 1.000000 0.000000 0.000000 1.000000 0.000000 0.000000 1.000000 0.000000 0.000000 1.000000 0.000000 0.000000 1.000000 0.000000 0.000000 1.000000 0.000000 0.000000 1.000000 0.000000 0.000000 1.000000 0.000000 0.000000 1.000000 0.000000 0.000000 1.000000 0.000000 0.000000 1.000000 0.000000 0.000000 1.000000 0.000000 0.000000 1.000000 0.000000 0.000000 1.000000 0.000000 0.000000 1.000000 0.000000 0.000000 1.000000 0.000000 0.000000 1.000000 0.000000 0.000000 1.000000 0.000000 0.000000 1.000000 0.000000 0.000000 1.000000 0.000000 0.000000 1.000000 0.000000 0.000000 1.000000 0.000000 0.000000 1.000000 0.000000 0.000000 1.000000 0.000000 0.000000 1.000000 0.000000 0.000000 1.000000 0.000000 0.000000 1.000000 0.000000 0.000000 1.000000 0.000000 0.000000 1.000000 0.000000 0.000000 1.000000 0.000000 0.000000 1.000000 0.000000 0.000000 1.000000 0.000000 0.000000 1.000000 0.000000 0.000000 1.000000 0.000000 0.000000 1.000000 0.000000 0.000000 1.000000 0.000000 0.000000 1.000000 0.000000 0.000000 1.000000 0.000000 0.000000 1.000000 0.000000 0.000000 1.000000 0.000000 0.000000 1.000000 0.000000 0.000000 1.000000 0.000000 0.000000 1.000000 0.000000 0.000000 1.000000 0.000000 0.000000 1.000000 0.000000 0.000000 1.000000 0.000000 0.000000 1.000000 0.000000 0.000000 1.000000 0.000000 0.000000 1.000000 0.000000 0.000000 1.000000 0.000000 0.000000 1.000000 0.000000 0.000000 1.000000 0.000000 0.000000 1.000000 0.000000 0.000000 1.000000 0.000000 0.000000 1.000000 0.000000 0.000000 1.000000 0.000000 0.000000 1.000000 0.000000 0.000000 1.000000 0.000000 0.000000 1.000000 0.000000 0.000000 1.000000 0.000000 0.000000 1.000000 0.000000 0.000000 1.000000 0.000000 0.000000 1.000000 0.000000 0.000000 1.000000 0.000000 0.000000 1.000000 0.000000 0.000000 1.000000 0.000000 0.000000 1.000000 0.000000 0.000000 1.000000 0.000000 0.000000 1.000000 0.000000 0.000000 1.000000 0.000000 0.000000 1.000000 0.000000 0.000000 1.000000 0.000000 0.000000 1.000000 0.000000 0.000000 1.000000 0.000000 0.000000 1.000000 0.000000 0.000000 1.000000 0.000000 0.000000 1.000000 0.000000 0.000000 1.000000 0.000000 0.000000 1.000000 0.000000 0.000000 1.000000 0.000000 0.000000 1.000000 0.000000 0.000000 1.000000 0.000000 0.000000 1.000000 0.000000 0.000000 1.000000 0.000000 0.000000 1.000000 0.000000 0.000000 1.000000 0.000000 0.000000 1.000000 0.000000 0.000000 1.000000 0.000000 0.000000 1.000000 0.000000 0.000000 1.000000 0.000000 0.000000 1.000000 0.000000 0.000000 1.000000 0.000000 0.000000 1.000000 0.000000 0.000000 1.000000 0.000000 0.000000 1.000000 0.000000 0.000000 1.000000 0.000000 0.000000 1.000000 0.000000 0.000000 1.000000 0.000000 0.000000 1.000000 0.000000 0.000000 1.000000 0.000000 0.000000 1.000000 0.000000 0.000000 1.000000 0.000000 0.000000 1.000000 0.000000 0.000000 1.000000 0.000000 0.000000 1.000000 0.000000 0.000000 1.000000 0.000000 0.000000 1.000000 0.000000 0.000000 1.000000 0.000000 0.000000 1.000000 0.000000 0.000000 1.000000 0.000000 0.000000 1.000000 0.000000 0.000000 1.000000 0.000000 0.000000 1.000000 0.000000 0.000000 1.000000 0.000000 0.000000 1.000000 0.000000 0.000000 1.000000 0.000000 0.000000 1.000000 0.000000 0.000000 1.000000 0.000000 0.000000 1.000000 0.000000 0.000000 1.000000 0.000000 0.000000 1.000000 0.000000 0.000000 1.000000 0.000000 0.000000 1.000000 0.000000 0.000000 1.000000 0.000000 0.000000 1.000000 0.000000 0.000000 1.000000 0.000000 0.000000 1.000000 0.000000 0.000000 1.000000 0.000000 0.000000 1.000000 0.000000 0.000000 1.000000 0.000000 0.000000 1.000000 0.000000 0.000000 1.000000 0.000000 0.000000 1.000000 0.000000 0.000000 1.000000 0.000000 0.000000 1.000000 0.000000 0.000000 1.000000 0.000000 0.000000 1.000000 0.000000 0.000000 1.000000 0.000000 0.000000 1.000000 0.000000 0.000000 1.000000 -0.000000 -0.000000 -1.000000 -0.000000 -0.000000 -1.000000 -0.000000 -0.000000 -1.000000 -0.000000 -0.000000 -1.000000 -0.000000 -0.000000 -1.000000 -0.000000 -0.000000 -1.000000 -0.000000 -0.000000 -1.000000 -0.000000 -0.000000 -1.000000 -0.000000 -0.000000 -1.000000 -0.000000 -0.000000 -1.000000 -0.000000 -0.000000 -1.000000 -0.000000 -0.000000 -1.000000 -0.000000 -0.000000 -1.000000 -0.000000 -0.000000 -1.000000 -0.000000 -0.000000 -1.000000 -0.000000 -0.000000 -1.000000 -0.000000 -0.000000 -1.000000 -0.000000 -0.000000 -1.000000 -0.000000 -0.000000 -1.000000 -0.000000 -0.000000 -1.000000 -0.000000 -0.000000 -1.000000 -0.000000 -0.000000 -1.000000 -0.000000 -0.000000 -1.000000 -0.000000 -0.000000 -1.000000 -0.000000 -0.000000 -1.000000 -0.000000 -0.000000 -1.000000 -0.000000 -0.000000 -1.000000 -0.000000 -0.000000 -1.000000 -0.000000 -0.000000 -1.000000 -0.000000 -0.000000 -1.000000 -0.000000 -0.000000 -1.000000 -0.000000 -0.000000 -1.000000 -0.000000 -0.000000 -1.000000 -0.000000 -0.000000 -1.000000 -0.000000 -0.000000 -1.000000 -0.000000 -0.000000 -1.000000 -0.000000 -0.000000 -1.000000 -0.000000 -0.000000 -1.000000 -0.000000 -0.000000 -1.000000 -0.000000 -0.000000 -1.000000 -0.000000 -0.000000 -1.000000 -0.000000 -0.000000 -1.000000 -0.000000 -0.000000 -1.000000 -0.000000 -0.000000 -1.000000 -0.000000 -0.000000 -1.000000 -0.000000 -0.000000 -1.000000 -0.000000 -0.000000 -1.000000 -0.000000 -0.000000 -1.000000 -0.000000 -0.000000 -1.000000 -0.000000 -0.000000 -1.000000 -0.000000 -0.000000 -1.000000 -0.000000 -0.000000 -1.000000 -0.000000 -0.000000 -1.000000 -0.000000 -0.000000 -1.000000 -0.000000 -0.000000 -1.000000 -0.000000 -0.000000 -1.000000 -0.000000 -0.000000 -1.000000 -0.000000 -0.000000 -1.000000 -0.000000 -0.000000 -1.000000 -0.000000 -0.000000 -1.000000 -0.000000 -0.000000 -1.000000 -0.000000 -0.000000 -1.000000 -0.000000 -0.000000 -1.000000 -0.000000 -0.000000 -1.000000 -0.000000 -0.000000 -1.000000 -0.000000 -0.000000 -1.000000 -0.000000 -0.000000 -1.000000 -0.000000 -0.000000 -1.000000 -0.000000 -0.000000 -1.000000 -0.000000 -0.000000 -1.000000 -0.000000 -0.000000 -1.000000 -0.000000 -0.000000 -1.000000 -0.000000 -0.000000 -1.000000 -0.000000 -0.000000 -1.000000 -0.000000 -0.000000 -1.000000 -0.000000 -0.000000 -1.000000 -0.000000 -0.000000 -1.000000 -0.000000 -0.000000 -1.000000 -0.000000 -0.000000 -1.000000 -0.000000 -0.000000 -1.000000 -0.000000 -0.000000 -1.000000 -0.000000 -0.000000 -1.000000 -0.000000 -0.000000 -1.000000 -0.000000 -0.000000 -1.000000 -0.000000 -0.000000 -1.000000 -0.000000 -0.000000 -1.000000 -0.000000 -0.000000 -1.000000 -0.000000 -0.000000 -1.000000 -0.000000 -0.000000 -1.000000 -0.000000 -0.000000 -1.000000 -0.000000 -0.000000 -1.000000 -0.000000 -0.000000 -1.000000 -0.000000 -0.000000 -1.000000 -0.000000 -0.000000 -1.000000 -0.000000 -0.000000 -1.000000 -0.000000 -0.000000 -1.000000 -0.000000 -0.000000 -1.000000 -0.000000 -0.000000 -1.000000 -0.000000 -0.000000 -1.000000 -0.000000 -0.000000 -1.000000 -0.000000 -0.000000 -1.000000 -0.000000 -0.000000 -1.000000 -0.000000 -0.000000 -1.000000 -0.000000 -0.000000 -1.000000 -0.000000 -0.000000 -1.000000 -0.000000 -0.000000 -1.000000 -0.000000 -0.000000 -1.000000 -0.000000 -0.000000 -1.000000 -0.000000 -0.000000 -1.000000 -0.000000 -0.000000 -1.000000 -0.000000 -0.000000 -1.000000 -0.000000 -0.000000 -1.000000 -0.000000 -0.000000 -1.000000 -0.000000 -0.000000 -1.000000 -0.000000 -0.000000 -1.000000 -0.000000 -0.000000 -1.000000 -0.000000 -0.000000 -1.000000 -0.000000 -0.000000 -1.000000 -0.000000 -0.000000 -1.000000 -0.000000 -0.000000 -1.000000 -0.000000 -0.000000 -1.000000 -0.000000 -0.000000 -1.000000 -0.000000 -0.000000 -1.000000 -0.000000 -0.000000 -1.000000 -0.000000 -0.000000 -1.000000 -0.000000 -0.000000 -1.000000 -0.000000 -0.000000 -1.000000 -0.000000 -0.000000 -1.000000 -0.000000 -0.000000 -1.000000 -0.000000 -0.000000 -1.000000 -0.000000 -0.000000 -1.000000 -0.000000 -0.000000 -1.000000 -0.000000 -0.000000 -1.000000 -0.000000 -0.000000 -1.000000 -0.000000 -0.000000 -1.000000 -0.000000 -0.000000 -1.000000 -0.000000 -0.000000 -1.000000 -0.000000 -0.000000 -1.000000 -0.000000 -0.000000 -1.000000 -0.000000 -0.000000 -1.000000 -0.000000 -0.000000 -1.000000 -0.000000 -0.000000 -1.000000 -0.000000 -0.000000 -1.000000 -0.000000 -0.000000 -1.000000 -0.000000 -0.000000 -1.000000 -0.000000 -0.000000 -1.000000 -0.000000 -0.000000 -1.000000 -0.000000 -0.000000 -1.000000 -0.000000 -0.000000 -1.000000 -0.000000 -0.000000 -1.000000 -0.000000 -0.000000 -1.000000 -0.000000 -0.000000 -1.000000 -0.000000 -0.000000 -1.000000 -0.000000 -0.000000 -1.000000 -0.000000 -0.000000 -1.000000 -0.000000 -0.000000 -1.000000 -0.000000 -0.000000 -1.000000 -0.000000 -0.000000 -1.000000 -0.000000 -0.000000 -1.000000</float_array>
          <technique_common>
            <accessor source="#HipRollMountLeft-mesh-normals-array" count="1324" stride="3">
              <param name="X" type="float"/>
              <param name="Y" type="float"/>
              <param name="Z" type="float"/>
            </accessor>
          </technique_common>
        </source>
        <vertices id="HipRollMountLeft-mesh-vertices">
          <input semantic="POSITION" source="#HipRollMountLeft-mesh-positions"/>
        </vertices>
        <triangles material="Aluminum_-_Polished" count="1404">
          <input semantic="VERTEX" source="#HipRollMountLeft-mesh-vertices" offset="0"/>
          <input semantic="NORMAL" source="#HipRollMountLeft-mesh-normals" offset="1"/>
          <p>1 0 14 1 0 2 0 2 14 1 15 3 0 2 15 3 16 4 16 4 15 3 20 5 16 4 20 5 21 6 21 6 20 5 25 7 21 6 25 7 10 8 10 8 25 7 9 9 9 9 25 7 29 10 9 9 29 10 8 11 8 11 29 10 33 12 8 11 33 12 7 13 7 13 33 12 32 14 7 13 32 14 31 15 31 15 32 14 27 16 31 15 27 16 26 17 26 17 27 16 22 18 26 17 22 18 3 19 3 19 22 18 2 20 2 20 22 18 18 21 2 20 18 21 1 0 1 0 18 21 14 1 3 19 4 22 26 17 26 17 4 22 30 23 26 17 30 23 31 15 31 15 30 23 6 24 31 15 6 24 7 13 4 22 5 25 30 23 30 23 5 25 6 24 10 8 11 26 21 6 21 6 11 26 17 27 21 6 17 27 16 4 16 4 17 27 13 28 16 4 13 28 0 2 11 26 12 29 17 27 17 27 12 29 13 28 15 3 14 1 19 30 19 30 14 1 18 21 19 30 18 21 23 31 23 31 18 21 22 18 23 31 22 18 27 16 15 3 19 30 20 5 20 5 19 30 24 32 20 5 24 32 25 7 25 7 24 32 29 10 24 32 19 30 23 31 24 32 23 31 28 33 28 33 23 31 27 16 28 33 27 16 32 14 33 12 29 10 28 33 28 33 29 10 24 32 33 12 28 33 32 14 35 34 89 35 34 36 34 36 89 35 90 37 34 36 90 37 57 38 57 38 90 37 91 39 57 38 91 39 56 40 56 40 91 39 92 41 56 40 92 41 55 42 55 42 92 41 93 43 55 42 93 43 54 44 54 44 93 43 94 45 54 44 94 45 53 46 53 46 94 45 161 47 53 46 161 47 162 48 89 35 35 34 88 49 88 49 35 34 36 50 88 49 36 50 140 51 140 51 36 50 120 52 140 51 120 52 121 53 120 52 36 50 80 54 80 54 36 50 37 55 80 54 37 55 79 56 79 56 37 55 38 57 79 56 38 57 78 58 78 58 38 57 39 59 78 58 39 59 77 60 77 60 39 59 40 61 77 60 40 61 76 62 76 62 40 61 75 63 75 63 40 61 41 64 75 63 41 64 74 65 74 65 41 64 42 66 74 65 42 66 167 67 167 67 42 66 43 68 167 67 43 68 44 69 44 69 45 70 167 67 167 67 45 70 46 71 167 67 46 71 166 72 166 72 46 71 47 73 166 72 47 73 48 74 166 72 48 74 165 75 165 75 48 74 49 76 165 75 49 76 50 77 165 75 50 77 164 78 164 78 50 77 51 79 164 78 51 79 52 80 164 78 52 80 163 81 163 81 52 80 53 46 163 81 53 46 162 48 59 82 117 83 58 84 58 84 117 83 118 85 58 84 118 85 81 86 81 86 118 85 119 87 81 86 119 87 80 54 80 54 119 87 120 52 117 83 59 82 116 88 116 88 59 82 60 89 116 88 60 89 115 90 115 90 60 89 61 91 115 90 61 91 114 92 114 92 61 91 62 93 114 92 62 93 6 24 6 24 62 93 7 13 7 13 62 93 63 94 7 13 63 94 64 95 64 95 65 96 7 13 7 13 65 96 66 97 7 13 66 97 67 98 67 98 68 99 7 13 7 13 68 99 69 100 7 13 69 100 70 101 7 13 70 101 167 67 167 67 70 101 71 102 167 67 71 102 72 103 72 103 73 104 167 67 167 67 73 104 74 65 83 105 146 106 82 107 82 107 146 106 147 108 82 107 147 108 160 109 160 109 147 108 159 110 159 110 147 108 158 111 158 111 147 108 148 112 158 111 148 112 157 113 157 113 148 112 149 114 157 113 149 114 150 115 146 106 83 105 145 116 145 116 83 105 84 117 145 116 84 117 144 118 144 118 84 117 85 119 144 118 85 119 143 120 143 120 85 119 86 121 143 120 86 121 142 122 142 122 86 121 87 123 142 122 87 123 141 124 141 124 87 123 88 49 141 124 88 49 140 51 94 45 95 125 161 47 161 47 95 125 96 126 161 47 96 126 97 127 97 127 98 128 161 47 161 47 98 128 99 129 161 47 99 129 100 130 161 47 100 130 160 109 160 109 100 130 101 131 160 109 101 131 102 132 102 132 103 133 160 109 160 109 103 133 104 134 160 109 104 134 105 135 105 135 82 107 160 109 107 136 6 24 106 137 106 137 6 24 154 138 106 137 154 138 129 139 129 139 154 138 128 140 128 140 154 138 127 141 127 141 154 138 126 142 126 142 154 138 134 143 126 142 134 143 135 144 107 136 108 145 6 24 6 24 108 145 109 146 6 24 109 146 110 147 110 147 111 148 6 24 6 24 111 148 112 149 6 24 112 149 113 150 113 150 114 92 6 24 122 151 138 152 121 53 121 53 138 152 139 153 121 53 139 153 140 51 138 152 122 151 137 154 137 154 122 151 123 155 137 154 123 155 136 156 136 156 123 155 124 157 136 156 124 157 125 158 136 156 125 158 135 144 135 144 125 158 126 142 131 159 154 138 130 160 130 160 154 138 155 161 130 160 155 161 153 162 153 162 155 161 152 163 152 163 155 161 156 164 152 163 156 164 151 165 151 165 156 164 150 115 150 115 156 164 157 113 131 159 132 166 154 138 154 138 132 166 133 167 154 138 133 167 134 143 5 168 0 169 6 170 6 170 0 169 170 171 6 170 170 171 171 172 5 168 4 173 0 169 0 169 4 173 3 174 0 169 3 174 2 175 2 175 1 176 0 169 0 169 168 177 170 171 170 171 168 177 169 178 171 172 172 179 6 170 6 170 172 179 173 180 6 170 173 180 174 181 174 181 175 182 6 170 6 170 175 182 176 183 6 170 176 183 154 184 154 184 176 183 177 185 179 186 185 187 178 188 178 188 185 187 186 189 178 188 186 189 187 190 187 190 186 189 191 191 187 190 191 191 192 192 192 192 191 191 196 193 192 192 196 193 173 194 173 194 196 193 174 195 174 195 196 193 200 196 174 195 200 196 175 197 175 197 200 196 204 198 175 197 204 198 176 199 176 199 204 198 203 200 176 199 203 200 202 201 202 201 203 200 198 202 202 201 198 202 197 203 197 203 198 202 193 204 197 203 193 204 181 205 181 205 193 204 180 206 180 206 193 204 189 207 180 206 189 207 179 186 179 186 189 207 185 187 181 205 182 208 197 203 197 203 182 208 201 209 197 203 201 209 202 201 202 201 201 209 184 210 202 201 184 210 176 199 182 208 183 211 201 209 201 209 183 211 184 210 173 194 172 212 192 192 192 192 172 212 188 213 192 192 188 213 187 190 187 190 188 213 170 214 187 190 170 214 178 188 172 212 171 215 188 213 188 213 171 215 170 214 186 189 185 187 190 216 190 216 185 187 189 207 190 216 189 207 194 217 194 217 189 207 193 204 194 217 193 204 198 202 186 189 190 216 191 191 191 191 190 216 195 218 191 191 195 218 196 193 196 193 195 218 200 196 195 218 190 216 194 217 195 218 194 217 199 219 199 219 194 217 198 202 199 219 198 202 203 200 204 198 200 196 199 219 199 219 200 196 195 218 204 198 199 219 203 200 184 210 307 220 176 199 176 199 307 220 308 221 176 199 308 221 309 222 205 223 253 224 184 210 184 210 253 224 254 225 184 210 254 225 255 226 206 227 230 228 205 223 205 223 230 228 231 229 205 223 231 229 232 230 207 231 227 232 206 227 206 227 227 232 228 233 206 227 228 233 229 234 208 235 225 236 207 231 207 231 225 236 226 237 207 231 226 237 227 232 225 236 208 235 224 238 224 238 208 235 209 239 224 238 209 239 223 240 223 240 209 239 210 241 223 240 210 241 278 242 278 242 210 241 211 243 278 242 211 243 277 244 277 244 211 243 276 245 276 245 211 243 275 246 275 246 211 243 274 247 274 247 211 243 273 248 273 248 211 243 272 249 272 249 211 243 212 250 272 249 212 250 271 251 271 251 212 250 270 252 270 252 212 250 269 253 269 253 212 250 268 254 268 254 212 250 267 255 267 255 212 250 266 256 266 256 212 250 213 257 266 256 213 257 321 258 321 258 213 257 214 259 321 258 214 259 320 260 320 260 214 259 215 261 320 260 215 261 319 262 319 262 215 261 216 263 319 262 216 263 318 264 318 264 216 263 317 265 317 265 216 263 217 266 317 265 217 266 316 267 316 267 217 266 315 268 315 268 217 266 314 269 314 269 217 266 177 270 314 269 177 270 337 271 337 271 177 270 336 272 336 272 177 270 335 273 335 273 177 270 334 274 334 274 177 270 294 275 334 274 294 275 333 276 333 276 294 275 295 277 333 276 295 277 332 278 332 278 295 277 296 279 332 278 296 279 297 280 176 199 291 281 177 270 177 270 291 281 292 282 177 270 292 282 293 283 241 284 218 285 283 286 283 286 218 285 219 287 283 286 219 287 282 288 282 288 219 287 220 289 282 288 220 289 281 290 281 290 220 289 221 291 281 290 221 291 280 292 280 292 221 291 222 293 280 292 222 293 279 294 279 294 222 293 223 240 279 294 223 240 278 242 229 234 230 228 206 227 232 230 233 295 205 223 205 223 233 295 234 296 205 223 234 296 250 297 250 297 234 296 235 298 250 297 235 298 249 299 249 299 235 298 236 300 249 299 236 300 248 301 248 301 236 300 247 302 247 302 236 300 237 303 247 302 237 303 246 304 246 304 237 303 238 305 246 304 238 305 245 306 245 306 238 305 239 307 245 306 239 307 329 308 329 308 239 307 328 309 328 309 239 307 240 310 328 309 240 310 327 311 327 311 240 310 241 284 327 311 241 284 284 312 284 312 241 284 283 286 243 313 301 314 242 315 242 315 301 314 302 316 242 315 302 316 265 317 265 317 302 316 303 318 265 317 303 318 264 319 264 319 303 318 304 320 264 319 304 320 263 321 263 321 304 320 305 322 263 321 305 322 262 323 262 323 305 322 306 324 262 323 306 324 261 325 261 325 306 324 307 220 261 325 307 220 184 210 301 314 243 313 300 326 300 326 243 313 244 327 300 326 244 327 299 328 299 328 244 327 245 306 299 328 245 306 329 308 250 297 251 329 205 223 205 223 251 329 252 330 205 223 252 330 253 224 255 226 256 331 184 210 184 210 256 331 257 332 184 210 257 332 258 333 258 333 259 334 184 210 184 210 259 334 260 335 184 210 260 335 261 325 284 312 285 336 327 311 327 311 285 336 326 337 326 337 285 336 325 338 325 338 285 336 286 339 325 338 286 339 324 340 324 340 286 339 287 341 324 340 287 341 323 342 323 342 287 341 288 343 323 342 288 343 322 344 322 344 288 343 289 345 322 344 289 345 321 258 321 258 289 345 266 256 313 346 290 347 176 199 176 199 290 347 291 281 293 283 294 275 177 270 332 278 297 280 331 348 331 348 297 280 298 349 331 348 298 349 330 350 330 350 298 349 299 328 330 350 299 328 329 308 309 222 310 351 176 199 176 199 310 351 311 352 176 199 311 352 312 353 312 353 313 346 176 199 205 354 167 355 206 356 206 356 167 355 166 357 206 356 166 357 207 358 207 358 166 357 165 359 207 358 165 359 208 360 208 360 165 359 164 361 208 360 164 361 209 362 209 362 164 361 163 363 209 362 163 363 210 364 210 364 163 363 162 365 210 364 162 365 211 366 211 366 162 365 161 367 12 368 11 369 13 370 13 370 11 369 10 371 13 370 10 371 9 372 9 372 8 373 13 370 13 370 8 373 7 374 13 370 7 374 178 375 178 375 7 374 179 376 179 376 7 374 180 377 180 377 7 374 181 378 181 378 7 374 182 379 182 379 7 374 183 380 183 380 7 374 184 381 184 381 7 374 167 355 184 381 167 355 205 354 338 382 339 383 178 375 178 375 339 383 13 370 154 184 177 185 155 384 155 384 177 185 217 385 155 384 217 385 156 386 156 386 217 385 216 387 156 386 216 387 157 388 157 388 216 387 215 389 157 388 215 389 158 390 158 390 215 389 214 391 158 390 214 391 159 392 159 392 214 391 213 393 159 392 213 393 160 394 160 394 213 393 212 395 337 396 131 397 314 398 314 398 131 397 130 399 314 398 130 399 315 400 315 400 130 399 153 401 315 400 153 401 316 402 316 402 153 401 152 403 316 402 152 403 317 404 317 404 152 403 151 405 317 404 151 405 318 406 318 406 151 405 150 407 318 406 150 407 319 408 319 408 150 407 149 409 319 408 149 409 320 410 320 410 149 409 148 411 320 410 148 411 321 412 321 412 148 411 147 413 321 412 147 413 322 414 322 414 147 413 146 415 322 414 146 415 323 416 323 416 146 415 145 417 323 416 145 417 324 418 324 418 145 417 144 419 324 418 144 419 325 420 325 420 144 419 143 421 325 420 143 421 326 422 326 422 143 421 142 423 326 422 142 423 327 424 327 424 142 423 141 425 327 424 141 425 328 426 328 426 141 425 140 427 328 426 140 427 329 428 329 428 140 427 139 429 329 428 139 429 330 430 330 430 139 429 138 431 330 430 138 431 331 432 331 432 138 431 137 433 331 432 137 433 332 434 332 434 137 433 136 435 332 434 136 435 333 436 333 436 136 435 135 437 333 436 135 437 334 438 334 438 135 437 134 439 334 438 134 439 335 440 335 440 134 439 133 441 335 440 133 441 336 442 336 442 133 441 132 443 336 442 132 443 337 396 337 396 132 443 131 397 313 444 107 445 290 446 290 446 107 445 106 447 290 446 106 447 291 448 291 448 106 447 129 449 291 448 129 449 292 450 292 450 129 449 128 451 292 450 128 451 293 452 293 452 128 451 127 453 293 452 127 453 294 454 294 454 127 453 126 455 294 454 126 455 295 456 295 456 126 455 125 457 295 456 125 457 296 458 296 458 125 457 124 459 296 458 124 459 297 460 297 460 124 459 123 461 297 460 123 461 298 462 298 462 123 461 122 463 298 462 122 463 299 464 299 464 122 463 121 465 299 464 121 465 300 466 300 466 121 465 120 467 300 466 120 467 301 468 301 468 120 467 119 469 301 468 119 469 302 470 302 470 119 469 118 471 302 470 118 471 303 472 303 472 118 471 117 473 303 472 117 473 304 474 304 474 117 473 116 475 304 474 116 475 305 476 305 476 116 475 115 477 305 476 115 477 306 478 306 478 115 477 114 479 306 478 114 479 307 480 307 480 114 479 113 481 307 480 113 481 308 482 308 482 113 481 112 483 308 482 112 483 309 484 309 484 112 483 111 485 309 484 111 485 310 486 310 486 111 485 110 487 310 486 110 487 311 488 311 488 110 487 109 489 311 488 109 489 312 490 312 490 109 489 108 491 312 490 108 491 313 444 313 444 108 491 107 445 289 492 83 493 266 494 266 494 83 493 82 495 266 494 82 495 267 496 267 496 82 495 105 497 267 496 105 497 268 498 268 498 105 497 104 499 268 498 104 499 269 500 269 500 104 499 103 501 269 500 103 501 270 502 270 502 103 501 102 503 270 502 102 503 271 504 271 504 102 503 101 505 271 504 101 505 272 506 272 506 101 505 100 507 272 506 100 507 273 508 273 508 100 507 99 509 273 508 99 509 274 510 274 510 99 509 98 511 274 510 98 511 275 512 275 512 98 511 97 513 275 512 97 513 276 514 276 514 97 513 96 515 276 514 96 515 277 516 277 516 96 515 95 517 277 516 95 517 278 518 278 518 95 517 94 519 278 518 94 519 279 520 279 520 94 519 93 521 279 520 93 521 280 522 280 522 93 521 92 523 280 522 92 523 281 524 281 524 92 523 91 525 281 524 91 525 282 526 282 526 91 525 90 527 282 526 90 527 283 528 283 528 90 527 89 529 283 528 89 529 284 530 284 530 89 529 88 531 284 530 88 531 285 532 285 532 88 531 87 533 285 532 87 533 286 534 286 534 87 533 86 535 286 534 86 535 287 536 287 536 86 535 85 537 287 536 85 537 288 538 288 538 85 537 84 539 288 538 84 539 289 492 289 492 84 539 83 493 265 540 59 541 242 542 242 542 59 541 58 543 242 542 58 543 243 544 243 544 58 543 81 545 243 544 81 545 244 546 244 546 81 545 80 547 244 546 80 547 245 548 245 548 80 547 79 549 245 548 79 549 246 550 246 550 79 549 78 551 246 550 78 551 247 552 247 552 78 551 77 553 247 552 77 553 248 554 248 554 77 553 76 555 248 554 76 555 249 556 249 556 76 555 75 557 249 556 75 557 250 558 250 558 75 557 74 559 250 558 74 559 251 560 251 560 74 559 73 561 251 560 73 561 252 562 252 562 73 561 72 563 252 562 72 563 253 564 253 564 72 563 71 565 253 564 71 565 254 566 254 566 71 565 70 567 254 566 70 567 255 568 255 568 70 567 69 569 255 568 69 569 256 570 256 570 69 569 68 571 256 570 68 571 257 572 257 572 68 571 67 573 257 572 67 573 258 574 258 574 67 573 66 575 258 574 66 575 259 576 259 576 66 575 65 577 259 576 65 577 260 578 260 578 65 577 64 579 260 578 64 579 261 580 261 580 64 579 63 581 261 580 63 581 262 582 262 582 63 581 62 583 262 582 62 583 263 584 263 584 62 583 61 585 263 584 61 585 264 586 264 586 61 585 60 587 264 586 60 587 265 540 265 540 60 587 59 541 241 588 35 589 218 590 218 590 35 589 34 591 218 590 34 591 219 592 219 592 34 591 57 593 219 592 57 593 220 594 220 594 57 593 56 595 220 594 56 595 221 596 221 596 56 595 55 597 221 596 55 597 222 598 222 598 55 597 54 599 222 598 54 599 223 600 223 600 54 599 53 601 223 600 53 601 224 602 224 602 53 601 52 603 224 602 52 603 225 604 225 604 52 603 51 605 225 604 51 605 226 606 226 606 51 605 50 607 226 606 50 607 227 608 227 608 50 607 49 609 227 608 49 609 228 610 228 610 49 609 48 611 228 610 48 611 229 612 229 612 48 611 47 613 229 612 47 613 230 614 230 614 47 613 46 615 230 614 46 615 231 616 231 616 46 615 45 617 231 616 45 617 232 618 232 618 45 617 44 619 232 618 44 619 233 620 233 620 44 619 43 621 233 620 43 621 234 622 234 622 43 621 42 623 234 622 42 623 235 624 235 624 42 623 41 625 235 624 41 625 236 626 236 626 41 625 40 627 236 626 40 627 237 628 237 628 40 627 39 629 237 628 39 629 238 630 238 630 39 629 38 631 238 630 38 631 239 632 239 632 38 631 37 633 239 632 37 633 240 634 240 634 37 633 36 635 240 634 36 635 241 588 241 588 36 635 35 589 211 366 161 367 212 395 212 395 161 367 160 394 170 214 346 636 178 188 178 188 346 636 347 637 178 188 347 637 348 638 169 639 340 640 170 214 170 214 340 640 341 641 170 214 341 641 342 642 342 642 343 643 170 214 170 214 343 643 344 644 170 214 344 644 345 645 345 645 346 636 170 214 348 638 349 646 178 188 178 188 349 646 350 647 178 188 350 647 351 648 351 648 352 649 178 188 178 188 352 649 338 650 339 383 338 382 365 651 365 651 338 382 374 652 365 651 374 652 375 653 374 652 338 382 373 654 373 654 338 382 352 655 373 654 352 655 372 656 372 656 352 655 351 657 372 656 351 657 371 658 371 658 351 657 350 659 371 658 350 659 370 660 370 660 350 659 349 661 370 660 349 661 369 662 369 662 349 661 348 663 369 662 348 663 368 664 368 664 348 663 347 665 368 664 347 665 367 666 367 666 347 665 366 667 366 667 347 665 346 668 366 667 346 668 393 669 393 669 346 668 345 670 393 669 345 670 344 671 393 669 344 671 392 672 392 672 344 671 343 673 392 672 343 673 391 674 391 674 343 673 342 675 391 674 342 675 390 676 390 676 342 675 341 677 390 676 341 677 389 678 389 678 341 677 340 679 389 678 340 679 388 680 388 680 340 679 169 178 388 680 169 178 387 681 387 681 169 178 386 682 386 682 169 178 353 683 386 682 353 683 354 684 169 178 168 177 353 683 386 682 354 684 385 685 385 685 354 684 355 686 385 685 355 686 384 687 384 687 355 686 356 688 384 687 356 688 383 689 383 689 356 688 357 690 383 689 357 690 382 691 382 691 357 690 358 692 382 691 358 692 381 693 381 693 358 692 359 694 381 693 359 694 380 695 380 695 359 694 360 696 380 695 360 696 379 697 379 697 360 696 361 698 379 697 361 698 378 699 378 699 361 698 362 700 378 699 362 700 377 701 377 701 362 700 363 702 377 701 363 702 376 703 376 703 363 702 364 704 376 703 364 704 375 653 375 653 364 704 365 651 395 705 441 706 394 707 394 707 441 706 418 708 394 707 418 708 417 709 417 709 418 708 419 710 417 709 419 710 416 711 416 711 419 710 420 712 416 711 420 712 415 713 415 713 420 712 421 714 415 713 421 714 414 715 414 715 421 714 422 716 414 715 422 716 413 717 413 717 422 716 423 718 413 717 423 718 412 719 412 719 423 718 424 720 412 719 424 720 411 721 411 721 424 720 425 722 411 721 425 722 410 723 410 723 425 722 426 724 410 723 426 724 409 725 409 725 426 724 427 726 409 725 427 726 408 727 408 727 427 726 428 728 408 727 428 728 407 729 407 729 428 728 429 730 407 729 429 730 406 731 406 731 429 730 430 732 406 731 430 732 405 733 405 733 430 732 431 734 405 733 431 734 404 735 404 735 431 734 432 736 404 735 432 736 403 737 403 737 432 736 433 738 403 737 433 738 402 739 402 739 433 738 434 740 402 739 434 740 401 741 401 741 434 740 435 742 401 741 435 742 400 743 400 743 435 742 436 744 400 743 436 744 399 745 399 745 436 744 437 746 399 745 437 746 398 747 398 747 437 746 438 748 398 747 438 748 397 749 397 749 438 748 439 750 397 749 439 750 396 751 396 751 439 750 440 752 396 751 440 752 395 705 395 705 440 752 441 706 443 753 489 754 442 755 442 755 489 754 466 756 442 755 466 756 465 757 465 757 466 756 467 758 465 757 467 758 464 759 464 759 467 758 468 760 464 759 468 760 463 761 463 761 468 760 469 762 463 761 469 762 462 763 462 763 469 762 470 764 462 763 470 764 461 765 461 765 470 764 471 766 461 765 471 766 460 767 460 767 471 766 472 768 460 767 472 768 459 769 459 769 472 768 473 770 459 769 473 770 458 771 458 771 473 770 474 772 458 771 474 772 457 773 457 773 474 772 475 774 457 773 475 774 456 775 456 775 475 774 476 776 456 775 476 776 455 777 455 777 476 776 477 778 455 777 477 778 454 779 454 779 477 778 478 780 454 779 478 780 453 781 453 781 478 780 479 782 453 781 479 782 452 783 452 783 479 782 480 784 452 783 480 784 451 785 451 785 480 784 481 786 451 785 481 786 450 787 450 787 481 786 482 788 450 787 482 788 449 789 449 789 482 788 483 790 449 789 483 790 448 791 448 791 483 790 484 792 448 791 484 792 447 793 447 793 484 792 485 794 447 793 485 794 446 795 446 795 485 794 486 796 446 795 486 796 445 797 445 797 486 796 487 798 445 797 487 798 444 799 444 799 487 798 488 800 444 799 488 800 443 753 443 753 488 800 489 754 491 801 537 802 490 803 490 803 537 802 514 804 490 803 514 804 513 805 513 805 514 804 515 806 513 805 515 806 512 807 512 807 515 806 516 808 512 807 516 808 511 809 511 809 516 808 517 810 511 809 517 810 510 811 510 811 517 810 518 812 510 811 518 812 509 813 509 813 518 812 519 814 509 813 519 814 508 815 508 815 519 814 520 816 508 815 520 816 507 817 507 817 520 816 521 818 507 817 521 818 506 819 506 819 521 818 522 820 506 819 522 820 505 821 505 821 522 820 523 822 505 821 523 822 504 823 504 823 523 822 524 824 504 823 524 824 503 825 503 825 524 824 525 826 503 825 525 826 502 827 502 827 525 826 526 828 502 827 526 828 501 829 501 829 526 828 527 830 501 829 527 830 500 831 500 831 527 830 528 832 500 831 528 832 499 833 499 833 528 832 529 834 499 833 529 834 498 835 498 835 529 834 530 836 498 835 530 836 497 837 497 837 530 836 531 838 497 837 531 838 496 839 496 839 531 838 532 840 496 839 532 840 495 841 495 841 532 840 533 842 495 841 533 842 494 843 494 843 533 842 534 844 494 843 534 844 493 845 493 845 534 844 535 846 493 845 535 846 492 847 492 847 535 846 536 848 492 847 536 848 491 801 491 801 536 848 537 802 539 849 585 850 538 851 538 851 585 850 562 852 538 851 562 852 561 853 561 853 562 852 563 854 561 853 563 854 560 855 560 855 563 854 564 856 560 855 564 856 559 857 559 857 564 856 565 858 559 857 565 858 558 859 558 859 565 858 566 860 558 859 566 860 557 861 557 861 566 860 567 862 557 861 567 862 556 863 556 863 567 862 568 864 556 863 568 864 555 865 555 865 568 864 569 866 555 865 569 866 554 867 554 867 569 866 570 868 554 867 570 868 553 869 553 869 570 868 571 870 553 869 571 870 552 871 552 871 571 870 572 872 552 871 572 872 551 873 551 873 572 872 573 874 551 873 573 874 550 875 550 875 573 874 574 876 550 875 574 876 549 877 549 877 574 876 575 878 549 877 575 878 548 879 548 879 575 878 576 880 548 879 576 880 547 881 547 881 576 880 577 882 547 881 577 882 546 883 546 883 577 882 578 884 546 883 578 884 545 885 545 885 578 884 579 886 545 885 579 886 544 887 544 887 579 886 580 888 544 887 580 888 543 889 543 889 580 888 581 890 543 889 581 890 542 891 542 891 581 890 582 892 542 891 582 892 541 893 541 893 582 892 583 894 541 893 583 894 540 895 540 895 583 894 584 896 540 895 584 896 539 849 539 849 584 896 585 850 587 897 633 898 586 899 586 899 633 898 610 900 586 899 610 900 609 901 609 901 610 900 611 902 609 901 611 902 608 903 608 903 611 902 612 904 608 903 612 904 607 905 607 905 612 904 613 906 607 905 613 906 606 907 606 907 613 906 614 908 606 907 614 908 605 909 605 909 614 908 615 910 605 909 615 910 604 911 604 911 615 910 616 912 604 911 616 912 603 913 603 913 616 912 617 914 603 913 617 914 602 915 602 915 617 914 618 916 602 915 618 916 601 917 601 917 618 916 619 918 601 917 619 918 600 919 600 919 619 918 620 920 600 919 620 920 599 921 599 921 620 920 621 922 599 921 621 922 598 923 598 923 621 922 622 924 598 923 622 924 597 925 597 925 622 924 623 926 597 925 623 926 596 927 596 927 623 926 624 928 596 927 624 928 595 929 595 929 624 928 625 930 595 929 625 930 594 931 594 931 625 930 626 932 594 931 626 932 593 933 593 933 626 932 627 934 593 933 627 934 592 935 592 935 627 934 628 936 592 935 628 936 591 937 591 937 628 936 629 938 591 937 629 938 590 939 590 939 629 938 630 940 590 939 630 940 589 941 589 941 630 940 631 942 589 941 631 942 588 943 588 943 631 942 632 944 588 943 632 944 587 897 587 897 632 944 633 898 635 945 681 946 634 947 634 947 681 946 658 948 634 947 658 948 657 949 657 949 658 948 659 950 657 949 659 950 656 951 656 951 659 950 660 952 656 951 660 952 655 953 655 953 660 952 661 954 655 953 661 954 654 955 654 955 661 954 662 956 654 955 662 956 653 957 653 957 662 956 663 958 653 957 663 958 652 959 652 959 663 958 664 960 652 959 664 960 651 961 651 961 664 960 665 962 651 961 665 962 650 963 650 963 665 962 666 964 650 963 666 964 649 965 649 965 666 964 667 966 649 965 667 966 648 967 648 967 667 966 668 968 648 967 668 968 647 969 647 969 668 968 669 970 647 969 669 970 646 971 646 971 669 970 670 972 646 971 670 972 645 973 645 973 670 972 671 974 645 973 671 974 644 975 644 975 671 974 672 976 644 975 672 976 643 977 643 977 672 976 673 978 643 977 673 978 642 979 642 979 673 978 674 980 642 979 674 980 641 981 641 981 674 980 675 982 641 981 675 982 640 983 640 983 675 982 676 984 640 983 676 984 639 985 639 985 676 984 677 986 639 985 677 986 638 987 638 987 677 986 678 988 638 987 678 988 637 989 637 989 678 988 679 990 637 989 679 990 636 991 636 991 679 990 680 992 636 991 680 992 635 945 635 945 680 992 681 946 635 993 634 994 368 995 368 995 634 994 657 996 368 995 657 996 656 997 656 997 655 998 368 995 368 995 655 998 369 999 369 999 655 998 654 1000 369 999 654 1000 653 1001 369 999 653 1001 370 1002 370 1002 653 1001 652 1003 370 1002 652 1003 651 1004 651 1004 650 1005 370 1002 370 1002 650 1005 371 1006 371 1006 650 1005 394 1007 371 1006 394 1007 417 1008 394 1007 650 1005 395 1009 395 1009 650 1005 649 1010 395 1009 649 1010 396 1011 396 1011 649 1010 648 1012 396 1011 648 1012 397 1013 397 1013 648 1012 647 1014 397 1013 647 1014 398 1015 398 1015 647 1014 646 1016 398 1015 646 1016 399 1017 399 1017 646 1016 645 1018 399 1017 645 1018 400 1019 400 1019 645 1018 644 1020 400 1019 644 1020 588 1021 588 1021 644 1020 464 1022 588 1021 464 1022 589 1023 589 1023 464 1022 463 1024 589 1023 463 1024 590 1025 590 1025 463 1024 462 1026 590 1025 462 1026 591 1027 591 1027 462 1026 461 1028 591 1027 461 1028 592 1029 592 1029 461 1028 460 1030 592 1029 460 1030 593 1031 593 1031 460 1030 459 1032 593 1031 459 1032 594 1033 594 1033 459 1032 458 1034 594 1033 458 1034 380 1035 380 1035 458 1034 457 1036 380 1035 457 1036 381 1037 381 1037 457 1036 456 1038 381 1037 456 1038 455 1039 464 1022 644 1020 552 1040 552 1040 644 1020 643 1041 552 1040 643 1041 553 1042 553 1042 643 1041 642 1043 553 1042 642 1043 554 1044 554 1044 642 1043 641 1045 554 1044 641 1045 555 1046 555 1046 641 1045 640 1047 555 1046 640 1047 556 1048 556 1048 640 1047 557 1049 557 1049 640 1047 639 1050 557 1049 639 1050 558 1051 558 1051 639 1050 638 1052 558 1051 638 1052 366 1053 366 1053 638 1052 637 1054 366 1053 637 1054 367 1055 367 1055 637 1054 636 1056 367 1055 636 1056 635 993 367 1055 635 993 368 995 609 1057 402 1058 586 1059 586 1059 402 1058 401 1060 586 1059 401 1060 587 1061 587 1061 401 1060 400 1019 587 1061 400 1019 588 1021 402 1058 609 1057 403 1062 403 1062 609 1057 608 1063 403 1062 608 1063 404 1064 404 1064 608 1063 607 1065 404 1064 607 1065 405 1066 405 1066 607 1065 606 1067 405 1066 606 1067 406 1068 406 1068 606 1067 375 1069 406 1068 375 1069 407 1070 407 1070 375 1069 408 1071 408 1071 375 1069 374 1072 408 1071 374 1072 409 1073 409 1073 374 1072 410 1074 410 1074 374 1072 373 1075 410 1074 373 1075 411 1076 411 1076 373 1075 412 1077 412 1077 373 1075 413 1078 413 1078 373 1075 414 1079 414 1079 373 1075 372 1080 414 1079 372 1080 415 1081 415 1081 372 1080 416 1082 416 1082 372 1080 371 1006 416 1082 371 1006 417 1008 375 1069 606 1067 376 1083 376 1083 606 1067 605 1084 376 1083 605 1084 604 1085 604 1085 603 1086 376 1083 376 1083 603 1086 377 1087 377 1087 603 1086 602 1088 377 1087 602 1088 601 1089 377 1087 601 1089 378 1090 378 1090 601 1089 600 1091 378 1090 600 1091 599 1092 599 1092 598 1093 378 1090 378 1090 598 1093 597 1094 378 1090 597 1094 379 1095 379 1095 597 1094 596 1096 379 1095 596 1096 595 1097 379 1095 595 1097 380 1035 380 1035 595 1097 594 1033 539 1098 538 1099 392 1100 392 1100 538 1099 561 1101 392 1100 561 1101 393 1102 393 1102 561 1101 560 1103 393 1102 560 1103 559 1104 393 1102 559 1104 366 1053 366 1053 559 1104 558 1051 464 1022 552 1040 508 1105 508 1105 552 1040 551 1106 508 1105 551 1106 509 1107 509 1107 551 1106 550 1108 509 1107 550 1108 510 1109 510 1109 550 1108 549 1110 510 1109 549 1110 511 1111 511 1111 549 1110 548 1112 511 1111 548 1112 512 1113 512 1113 548 1112 547 1114 512 1113 547 1114 513 1115 513 1115 547 1114 546 1116 513 1115 546 1116 490 1117 490 1117 546 1116 389 1118 490 1117 389 1118 491 1119 491 1119 389 1118 492 1120 492 1120 389 1118 388 1121 492 1120 388 1121 493 1122 493 1122 388 1121 494 1123 494 1123 388 1121 387 1124 494 1123 387 1124 495 1125 495 1125 387 1124 496 1126 496 1126 387 1124 497 1127 497 1127 387 1124 498 1128 498 1128 387 1124 386 1129 498 1128 386 1129 499 1130 499 1130 386 1129 500 1131 500 1131 386 1129 385 1132 500 1131 385 1132 501 1133 501 1133 385 1132 502 1134 502 1134 385 1132 446 1135 502 1134 446 1135 503 1136 503 1136 446 1135 445 1137 503 1136 445 1137 504 1138 504 1138 445 1137 444 1139 504 1138 444 1139 505 1140 505 1140 444 1139 443 1141 505 1140 443 1141 506 1142 506 1142 443 1141 442 1143 506 1142 442 1143 507 1144 507 1144 442 1143 465 1145 507 1144 465 1145 508 1105 508 1105 465 1145 464 1022 389 1118 546 1116 390 1146 390 1146 546 1116 545 1147 390 1146 545 1147 544 1148 544 1148 543 1149 390 1146 390 1146 543 1149 391 1150 391 1150 543 1149 542 1151 391 1150 542 1151 541 1152 391 1150 541 1152 392 1100 392 1100 541 1152 540 1153 392 1100 540 1153 539 1098 381 1037 455 1039 382 1154 382 1154 455 1039 454 1155 382 1154 454 1155 453 1156 453 1156 452 1157 382 1154 382 1154 452 1157 451 1158 382 1154 451 1158 383 1159 383 1159 451 1158 450 1160 383 1159 450 1160 449 1161 383 1159 449 1161 384 1162 384 1162 449 1161 448 1163 384 1162 448 1163 447 1164 447 1164 446 1135 384 1162 384 1162 446 1135 385 1132 13 28 680 1165 0 2 0 2 680 1165 564 1166 0 2 564 1166 563 1167 339 1168 663 1169 13 28 13 28 663 1169 662 1170 13 28 662 1170 661 1171 365 1172 424 1173 339 1168 339 1168 424 1173 423 1174 339 1168 423 1174 422 1175 424 1173 365 1172 425 1176 425 1176 365 1172 364 1177 425 1176 364 1177 426 1178 426 1178 364 1177 427 1179 427 1179 364 1177 363 1180 427 1179 363 1180 428 1181 428 1181 363 1180 429 1182 429 1182 363 1180 430 1183 430 1183 363 1180 362 1184 430 1183 362 1184 431 1185 431 1185 362 1184 615 1186 431 1185 615 1186 432 1187 432 1187 615 1186 433 1188 433 1188 615 1186 614 1189 433 1188 614 1189 434 1190 434 1190 614 1189 613 1191 434 1190 613 1191 435 1192 435 1192 613 1191 612 1193 435 1192 612 1193 611 1194 361 1195 617 1196 362 1184 362 1184 617 1196 616 1197 362 1184 616 1197 615 1186 360 1198 622 1199 361 1195 361 1195 622 1199 621 1200 361 1195 621 1200 620 1201 359 1202 627 1203 360 1198 360 1198 627 1203 626 1204 360 1198 626 1204 625 1205 358 1206 473 1207 359 1202 359 1202 473 1207 472 1208 359 1202 472 1208 628 1209 628 1209 472 1208 471 1210 628 1209 471 1210 629 1211 629 1211 471 1210 470 1212 629 1211 470 1212 630 1213 630 1213 470 1212 570 1214 630 1213 570 1214 674 1215 674 1215 570 1214 675 1216 675 1216 570 1214 569 1217 675 1216 569 1217 676 1218 676 1218 569 1217 568 1219 676 1218 568 1219 567 1220 357 1221 478 1222 358 1206 358 1206 478 1222 477 1223 358 1206 477 1223 476 1224 356 1225 483 1226 357 1221 357 1221 483 1226 482 1227 357 1221 482 1227 481 1228 355 1229 526 1230 356 1225 356 1225 526 1230 525 1231 356 1225 525 1231 485 1232 485 1232 525 1231 524 1233 485 1232 524 1233 523 1234 354 1235 529 1236 355 1229 355 1229 529 1236 528 1237 355 1229 528 1237 527 1238 353 1239 531 1240 354 1235 354 1235 531 1240 530 1241 354 1235 530 1241 529 1236 531 1240 353 1239 532 1242 532 1242 353 1239 168 1243 532 1242 168 1243 533 1244 533 1244 168 1243 534 1245 534 1245 168 1243 535 1246 535 1246 168 1243 581 1247 535 1246 581 1247 536 1248 536 1248 581 1247 537 1249 537 1249 581 1247 580 1250 537 1249 580 1250 514 1251 514 1251 580 1250 515 1252 515 1252 580 1250 579 1253 515 1252 579 1253 516 1254 516 1254 579 1253 517 1255 517 1255 579 1253 578 1256 517 1255 578 1256 518 1257 518 1257 578 1256 577 1258 518 1257 577 1258 519 1259 519 1259 577 1258 576 1260 519 1259 576 1260 575 1261 168 1243 0 2 581 1247 581 1247 0 2 582 1262 582 1262 0 2 583 1263 583 1263 0 2 584 1264 584 1264 0 2 585 1265 585 1265 0 2 562 1266 562 1266 0 2 563 1167 659 1267 658 1268 13 28 13 28 658 1268 681 1269 13 28 681 1269 680 1165 564 1166 680 1165 565 1270 565 1270 680 1165 679 1271 565 1270 679 1271 566 1272 566 1272 679 1271 678 1273 566 1272 678 1273 567 1220 567 1220 678 1273 677 1274 567 1220 677 1274 676 1218 630 1213 674 1215 631 1275 631 1275 674 1215 673 1276 631 1275 673 1276 632 1277 632 1277 673 1276 672 1278 632 1277 672 1278 633 1279 633 1279 672 1278 671 1280 633 1279 671 1280 610 1281 610 1281 671 1280 670 1282 610 1281 670 1282 436 1283 436 1283 670 1282 669 1284 436 1283 669 1284 437 1285 437 1285 669 1284 668 1286 437 1285 668 1286 667 1287 437 1285 667 1287 438 1288 438 1288 667 1287 666 1289 438 1288 666 1289 439 1290 439 1290 666 1289 665 1291 439 1290 665 1291 440 1292 440 1292 665 1291 441 1293 441 1293 665 1291 664 1294 441 1293 664 1294 418 1295 418 1295 664 1294 419 1296 419 1296 664 1294 663 1169 419 1296 663 1169 420 1297 420 1297 663 1169 421 1298 421 1298 663 1169 339 1168 421 1298 339 1168 422 1175 661 1171 660 1299 13 28 13 28 660 1299 659 1267 628 1209 627 1203 359 1202 625 1205 624 1300 360 1198 360 1198 624 1300 623 1301 360 1198 623 1301 622 1199 620 1201 619 1302 361 1195 361 1195 619 1302 618 1303 361 1195 618 1303 617 1196 435 1192 611 1194 436 1283 436 1283 611 1194 610 1281 519 1259 575 1261 520 1304 520 1304 575 1261 574 1305 520 1304 574 1305 466 1306 466 1306 574 1305 467 1307 467 1307 574 1305 573 1308 467 1307 573 1308 468 1309 468 1309 573 1308 572 1310 468 1309 572 1310 469 1311 469 1311 572 1310 571 1312 469 1311 571 1312 470 1212 470 1212 571 1312 570 1214 527 1238 526 1230 355 1229 485 1232 523 1234 486 1313 486 1313 523 1234 522 1314 486 1313 522 1314 487 1315 487 1315 522 1314 521 1316 487 1315 521 1316 488 1317 488 1317 521 1316 489 1318 489 1318 521 1316 520 1304 489 1318 520 1304 466 1306 485 1232 484 1319 356 1225 356 1225 484 1319 483 1226 481 1228 480 1320 357 1221 357 1221 480 1320 479 1321 357 1221 479 1321 478 1222 476 1224 475 1322 358 1206 358 1206 475 1322 474 1323 358 1206 474 1323 473 1207</p>
        </triangles>
      </mesh>
    </geometry>
  </library_geometries>
  <library_visual_scenes>
    <visual_scene id="Scene" name="Scene">
      <node id="HipRollMountLeft-node" name="HipRollMountLeft" type="NODE">
        <instance_geometry url="#HipRollMountLeft-mesh">
          <bind_material>
            <technique_common>
              <instance_material symbol="Aluminum_-_Polished" target="#Aluminum_-_Polished"/>
            </technique_common>
          </bind_material>
        </instance_geometry>
      </node>
    </visual_scene>
  </library_visual_scenes>
  <scene>
    <instance_visual_scene url="#Scene"/>
  </scene>
</COLLADA>
