<?xml version="1.0" encoding="utf-8"?>
<COLLADA xmlns="http://www.collada.org/2005/11/COLLADASchema" version="1.4.1">
  <asset>
    <contributor>
      <authoring_tool>Fusion URDF/XACRO Exporter</authoring_tool>
    </contributor>
    <created>2026-06-08T18:29:23Z</created>
    <modified>2026-06-08T18:29:23Z</modified>
    <unit name="meter" meter="1.0"/>
    <up_axis>Z_UP</up_axis>
  </asset>
  <library_effects>
    <effect id="Powder_Coat__White_-effect">
      <profile_COMMON>
        <technique sid="common">
          <lambert>
            <emission><color>0 0 0 1</color></emission>
            <ambient><color>0.0000 0.0000 0.0000 1</color></ambient>
            <diffuse><color>0.9647 0.9647 0.9529 1</color></diffuse>
            <reflective><color>0 0 0 1</color></reflective>
            <transparent opaque="A_ONE"><color>1 1 1 1</color></transparent>
            <transparency><float>1</float></transparency>
          </lambert>
        </technique>
      </profile_COMMON>
    </effect>
  </library_effects>
  <library_materials>
    <material id="Powder_Coat__White_" name="Powder_Coat_(White)">
      <instance_effect url="#Powder_Coat__White_-effect"/>
    </material>
  </library_materials>
  <library_geometries>
    <geometry id="TopLeftPanel-mesh" name="TopLeftPanel">
      <mesh>
        <source id="TopLeftPanel-mesh-positions">
          <float_array id="TopLeftPanel-mesh-positions-array" count="690">0.076917 0.047000 0.128400 0.088377 0.047000 0.099749 0.088377 0.047000 0.060298 0.090977 0.047000 0.060298 0.090977 0.047000 0.066375 0.089977 0.047000 0.066878 0.089977 0.047000 0.100000 0.089997 0.047000 0.100008 0.078000 0.047000 0.130000 0.043000 0.047000 0.130000 0.043000 0.047000 0.132000 0.040000 0.047000 0.132000 0.040000 0.047000 0.100000 0.041600 0.047000 0.100000 0.041600 0.047000 0.128400 0.089977 0.118561 0.100000 0.089997 0.118376 0.100008 0.089977 0.051069 0.065843 0.089977 0.054746 0.063814 0.089977 0.057791 0.060923 0.089977 0.057881 0.060837 0.089977 0.057989 0.060776 0.089977 0.058109 0.060744 0.089977 0.058233 0.060742 0.089977 0.058354 0.060771 0.089977 0.058464 0.060829 0.089977 0.080959 0.076500 0.089977 0.119451 0.076500 0.089977 0.119512 0.076496 0.089977 0.119512 0.099720 0.090977 0.049168 0.059590 0.090977 0.051119 0.058409 0.090977 0.052752 0.056817 0.090977 0.054011 0.055615 0.090977 0.055527 0.054761 0.090977 0.057207 0.054307 0.090977 0.058947 0.054281 0.090977 0.060639 0.054686 0.090977 0.062180 0.055495 0.090977 0.083000 0.070000 0.090977 0.119512 0.070000 0.090977 0.119512 0.076000 0.090977 0.081116 0.076000 0.090977 0.058750 0.060418 0.090977 0.058530 0.060303 0.090977 0.058288 0.060245 0.090977 0.058040 0.060249 0.090977 0.057800 0.060313 0.090977 0.057583 0.060436 0.090977 0.057403 0.060607 0.090977 0.054467 0.063399 0.090977 0.050923 0.065363 0.088377 0.118230 0.099749 0.088377 0.119413 0.099400 0.088377 0.119413 0.070000 0.088377 0.083000 0.070000 0.088377 0.062180 0.055495 0.088377 0.060639 0.054686 0.088377 0.058947 0.054281 0.088377 0.057207 0.054307 0.088377 0.055527 0.054761 0.088377 0.054011 0.055615 0.088377 0.052752 0.056817 0.088377 0.051119 0.058409 0.088377 0.049168 0.059590 0.086217 0.158004 0.068484 0.086217 0.158004 0.067743 0.085156 0.158500 0.068487 0.085156 0.158500 0.068693 0.086959 0.152000 0.066000 0.084347 0.152000 0.066000 0.084347 0.152000 0.062360 0.086959 0.152000 0.061717 0.087454 0.148000 0.070000 0.084842 0.148000 0.070000 0.086121 0.150696 0.076496 0.087146 0.150488 0.076000 0.060200 0.164976 0.128400 0.060200 0.166000 0.128369 0.070453 0.166000 0.128369 0.070567 0.164976 0.128400 0.060200 0.152427 0.128400 0.060200 0.152427 0.128879 0.060200 0.166000 0.128879 0.084228 0.166000 0.096948 0.084531 0.163551 0.096106 0.084797 0.161401 0.094663 0.085008 0.159694 0.092716 0.085150 0.158543 0.090396 0.085214 0.158027 0.087859 0.085195 0.158180 0.085274 0.085095 0.158991 0.082815 0.084920 0.160406 0.080647 0.084682 0.162331 0.078914 0.084397 0.164636 0.077734 0.084084 0.167167 0.077186 0.082516 0.166807 0.077222 0.082823 0.164329 0.077850 0.083099 0.162090 0.079086 0.083328 0.160238 0.080848 0.083495 0.158894 0.083023 0.083587 0.158145 0.085468 0.083600 0.158040 0.088023 0.083533 0.158587 0.090520 0.083389 0.159749 0.092798 0.083178 0.161451 0.094706 0.082915 0.163581 0.096120 0.082616 0.166000 0.096948 0.086257 0.056577 0.109358 0.086411 0.056631 0.108974 0.086554 0.056791 0.108615 0.086677 0.057045 0.108308 0.086771 0.057377 0.108072 0.086831 0.057763 0.107923 0.086851 0.058177 0.107873 0.086831 0.058591 0.107923 0.086771 0.058977 0.108072 0.086677 0.059308 0.108308 0.086554 0.059562 0.108615 0.086411 0.059722 0.108974 0.086257 0.059777 0.109358 0.086103 0.059722 0.109743 0.085960 0.059562 0.110101 0.085837 0.059308 0.110409 0.085742 0.058977 0.110645 0.085683 0.058591 0.110793 0.085663 0.058177 0.110844 0.085683 0.057763 0.110793 0.085742 0.057377 0.110645 0.085837 0.057045 0.110409 0.085960 0.056791 0.110101 0.086103 0.056631 0.109743 0.083286 0.056577 0.108170 0.083132 0.056631 0.108554 0.082989 0.056791 0.108912 0.082865 0.057045 0.109220 0.082771 0.057377 0.109456 0.082712 0.057763 0.109605 0.082691 0.058177 0.109655 0.082712 0.058591 0.109605 0.082771 0.058977 0.109456 0.082865 0.059308 0.109220 0.082989 0.059562 0.108912 0.083132 0.059722 0.108554 0.083286 0.059777 0.108170 0.083439 0.059722 0.107785 0.083583 0.059562 0.107427 0.083706 0.059308 0.107119 0.083800 0.058977 0.106883 0.083860 0.058591 0.106735 0.083880 0.058177 0.106684 0.083860 0.057763 0.106735 0.083800 0.057377 0.106883 0.083706 0.057045 0.107119 0.083583 0.056791 0.107427 0.083439 0.056631 0.107785 0.084771 0.054977 0.108764 0.084464 0.055086 0.109533 0.084177 0.055405 0.110249 0.083931 0.055914 0.110865 0.083742 0.056577 0.111337 0.083623 0.057348 0.111634 0.083583 0.058177 0.111735 0.083623 0.059005 0.111634 0.083742 0.059777 0.111337 0.083931 0.060439 0.110865 0.084177 0.060948 0.110249 0.084464 0.061268 0.109533 0.084771 0.061377 0.108764 0.085079 0.061268 0.107995 0.085365 0.060948 0.107278 0.085612 0.060439 0.106663 0.085800 0.059777 0.106191 0.085919 0.059005 0.105894 0.085960 0.058177 0.105793 0.085919 0.057348 0.105894 0.085800 0.056577 0.106191 0.085612 0.055914 0.106663 0.085365 0.055405 0.107278 0.085079 0.055086 0.107995 0.083286 0.054977 0.108170 0.083593 0.055086 0.107401 0.083880 0.055405 0.106684 0.084126 0.055914 0.106069 0.084315 0.056577 0.105597 0.084434 0.057348 0.105300 0.084474 0.058177 0.105199 0.084434 0.059005 0.105300 0.084315 0.059777 0.105597 0.084126 0.060439 0.106069 0.083880 0.060948 0.106684 0.083593 0.061268 0.107401 0.083286 0.061377 0.108170 0.082978 0.061268 0.108939 0.082691 0.060948 0.109655 0.082445 0.060439 0.110271 0.082256 0.059777 0.110743 0.082138 0.059005 0.111040 0.082097 0.058177 0.111141 0.082138 0.057348 0.111040 0.082256 0.056577 0.110743 0.082445 0.055914 0.110271 0.082691 0.055405 0.109655 0.082978 0.055086 0.108939 0.040000 0.076500 0.100000 0.054228 0.106000 0.100000 0.054228 0.152427 0.100000 0.055828 0.152427 0.100000 0.055828 0.105634 0.100000 0.041600 0.076134 0.100000 0.043000 0.075814 0.132000 0.057228 0.105314 0.132000 0.057228 0.166000 0.132000 0.054228 0.166000 0.132000 0.054228 0.106000 0.132000 0.040000 0.076500 0.132000 0.043000 0.075814 0.130000 0.055828 0.152427 0.128400 0.055828 0.105634 0.128400 0.057228 0.105314 0.130000 0.041600 0.076134 0.128400 0.078000 0.113565 0.130000 0.071515 0.166000 0.130000 0.057228 0.166000 0.130000 0.082616 0.166000 0.099400 0.089977 0.119450 0.076500 0.084228 0.166000 0.099720 0.076917 0.113633 0.128400 0.054228 0.166000 0.128879 0.054228 0.152427 0.128879</float_array>
          <technique_common>
            <accessor source="#TopLeftPanel-mesh-positions-array" count="230" stride="3">
              <param name="X" type="float"/>
              <param name="Y" type="float"/>
              <param name="Z" type="float"/>
            </accessor>
          </technique_common>
        </source>
        <source id="TopLeftPanel-mesh-normals">
          <float_array id="TopLeftPanel-mesh-normals-array" count="1632">-0.000000 -1.000000 -0.000000 -0.000000 -1.000000 -0.000000 -0.000000 -1.000000 -0.000000 -0.000000 -1.000000 -0.000000 -0.000000 -1.000000 -0.000000 -0.000000 -1.000000 -0.000000 -0.000000 -1.000000 -0.000000 -0.000000 -1.000000 -0.000000 -0.000000 -1.000000 -0.000000 -0.000000 -1.000000 -0.000000 -0.000000 -1.000000 -0.000000 -0.000000 -1.000000 -0.000000 -0.000000 -1.000000 -0.000000 -0.000000 -1.000000 -0.000000 -0.000000 -1.000000 -0.000000 0.371625 0.000000 -0.928383 0.371625 0.000000 -0.928383 0.371625 0.000000 -0.928383 0.371625 0.000000 -0.928383 1.000000 0.000000 0.000000 1.000000 0.000000 0.000000 1.000000 0.000000 0.000000 1.000000 0.000000 0.000000 1.000000 0.000000 0.000000 1.000000 0.000000 0.000000 1.000000 0.000000 0.000000 1.000000 0.000000 0.000000 1.000000 0.000000 0.000000 1.000000 0.000000 0.000000 1.000000 0.000000 0.000000 1.000000 0.000000 0.000000 1.000000 0.000000 0.000000 1.000000 0.000000 0.000000 1.000000 0.000000 0.000000 1.000000 0.000000 0.000000 1.000000 0.000000 0.000000 1.000000 0.000000 0.000000 1.000000 0.000000 0.000000 1.000000 0.000000 0.000000 1.000000 0.000000 0.000000 1.000000 0.000000 0.000000 1.000000 0.000000 0.000000 1.000000 0.000000 0.000000 1.000000 0.000000 0.000000 1.000000 0.000000 0.000000 1.000000 0.000000 0.000000 1.000000 0.000000 0.000000 1.000000 0.000000 0.000000 1.000000 0.000000 0.000000 1.000000 0.000000 0.000000 1.000000 0.000000 0.000000 1.000000 0.000000 0.000000 1.000000 0.000000 0.000000 1.000000 0.000000 0.000000 1.000000 0.000000 0.000000 1.000000 0.000000 0.000000 1.000000 0.000000 0.000000 1.000000 0.000000 0.000000 1.000000 0.000000 0.000000 -1.000000 -0.000000 -0.000000 -1.000000 -0.000000 -0.000000 -1.000000 -0.000000 -0.000000 -1.000000 -0.000000 -0.000000 -1.000000 -0.000000 -0.000000 -1.000000 -0.000000 -0.000000 -1.000000 -0.000000 -0.000000 -1.000000 -0.000000 -0.000000 -1.000000 -0.000000 -0.000000 -1.000000 -0.000000 -0.000000 -1.000000 -0.000000 -0.000000 -1.000000 -0.000000 -0.000000 -1.000000 -0.000000 -0.000000 -1.000000 -0.000000 -0.000000 -1.000000 -0.000000 -0.000000 0.423517 0.905888 -0.000002 0.423517 0.905888 -0.000002 0.423517 0.905888 -0.000002 0.423517 0.905888 -0.000002 -0.000000 -1.000000 -0.000000 -0.000000 -1.000000 -0.000000 -0.000000 -1.000000 -0.000000 -0.000000 -1.000000 -0.000000 0.000000 -0.707107 -0.707106 0.000000 -0.707107 -0.707106 0.000000 -0.707107 -0.707106 0.000000 -0.707107 -0.707106 0.430524 0.664285 0.611043 0.430524 0.664285 0.611043 0.430524 0.664285 0.611043 0.430524 0.664285 0.611043 -0.000000 -0.029980 -0.999550 -0.000000 -0.029980 -0.999550 -0.000000 -0.029980 -0.999550 -0.000000 -0.029980 -0.999550 0.446901 0.693422 0.565195 0.446900 0.693551 0.565038 0.447374 0.529140 0.721019 0.447375 0.528275 0.721652 0.447377 0.331130 0.830787 0.447375 0.328949 0.831654 0.446911 0.111933 0.887548 0.446900 0.108338 0.888000 -1.000000 -0.000000 -0.000000 -1.000000 -0.000000 -0.000000 -1.000000 -0.000000 -0.000000 -1.000000 -0.000000 -0.000000 -1.000000 -0.000000 -0.000000 0.447187 -0.511262 0.733918 0.447210 -0.314422 0.837342 0.447187 -0.511262 0.733918 0.447210 -0.314422 0.837342 0.447225 -0.098157 0.889019 0.447225 -0.098157 0.889019 0.447230 0.124172 0.885758 0.447230 0.124172 0.885758 0.447226 0.338827 0.827759 0.447226 0.338827 0.827759 0.447212 0.532546 0.718607 0.447212 0.532546 0.718607 0.447189 0.693359 0.565045 0.447189 0.693359 0.565045 -0.000008 0.200214 -0.979752 -0.000008 0.200212 -0.979753 -0.000004 0.442122 -0.896955 -0.000004 0.445063 -0.895499 -0.000000 0.655126 -0.755519 0.000000 0.660072 -0.751202 0.000003 0.825302 -0.564692 0.000003 0.830824 -0.556536 0.000005 0.941523 -0.336948 0.000005 0.945867 -0.324554 0.000006 0.996193 -0.087175 0.000006 0.997490 -0.070810 0.000005 0.985737 0.168296 0.000005 0.982230 0.187682 0.000003 0.910838 0.412765 0.000003 0.901110 0.433590 0.000001 0.776393 0.630249 0.000000 0.759571 0.650425 -0.000003 0.591192 0.806531 -0.000004 0.567101 0.823648 -0.000007 0.367341 0.930086 -0.000008 0.336607 0.941645 -0.000012 0.119476 0.992837 -0.000013 0.083544 0.996504 -0.096123 0.965925 0.240309 -0.096123 0.965925 0.240309 -0.000001 1.000000 0.000002 -0.000000 1.000000 0.000001 0.096122 0.965926 -0.240306 0.096122 0.965926 -0.240306 0.185694 0.866026 -0.464237 0.185694 0.866026 -0.464238 0.262611 0.707108 -0.656531 0.262612 0.707108 -0.656532 0.321632 0.500002 -0.804084 0.321632 0.500001 -0.804084 0.358734 0.258821 -0.896840 0.358735 0.258820 -0.896840 0.371389 0.000002 -0.928477 0.371389 0.000001 -0.928477 0.358735 -0.258817 -0.896841 0.358735 -0.258818 -0.896840 0.321633 -0.499998 -0.804086 0.321633 -0.499999 -0.804085 0.262613 -0.707105 -0.656534 0.262612 -0.707106 -0.656533 0.185695 -0.866024 -0.464240 0.185695 -0.866025 -0.464240 0.096123 -0.965925 -0.240309 0.096123 -0.965925 -0.240309 0.000001 -1.000000 -0.000002 0.000000 -1.000000 -0.000001 -0.096122 -0.965926 0.240306 -0.096122 -0.965926 0.240306 -0.185694 -0.866026 0.464237 -0.185694 -0.866026 0.464238 -0.262611 -0.707108 0.656531 -0.262612 -0.707108 0.656532 -0.321632 -0.500002 0.804084 -0.321632 -0.500001 0.804084 -0.358734 -0.258821 0.896840 -0.358735 -0.258820 0.896840 -0.371389 -0.000002 0.928477 -0.371389 -0.000001 0.928477 -0.358735 0.258817 0.896841 -0.358735 0.258818 0.896840 -0.321633 0.499998 0.804086 -0.321633 0.499999 0.804085 -0.262613 0.707105 0.656534 -0.262612 0.707106 0.656533 -0.185695 0.866024 0.464240 -0.185695 0.866025 0.464240 -0.096123 -0.965926 0.240308 -0.096123 -0.965926 0.240308 -0.000000 -1.000000 0.000001 -0.000000 -1.000000 0.000000 0.096123 -0.965926 -0.240307 0.096123 -0.965926 -0.240307 0.185695 -0.866026 -0.464238 0.185695 -0.866026 -0.464238 0.262612 -0.707107 -0.656532 0.262613 -0.707107 -0.656532 0.321633 -0.500001 -0.804084 0.321634 -0.500000 -0.804084 0.358736 -0.258820 -0.896839 0.358736 -0.258819 -0.896840 0.371390 -0.000001 -0.928477 0.371390 -0.000000 -0.928477 0.358736 0.258818 -0.896840 0.358736 0.258819 -0.896840 0.321634 0.499999 -0.804085 0.321634 0.500000 -0.804085 0.262613 0.707106 -0.656533 0.262613 0.707107 -0.656532 0.185696 0.866025 -0.464239 0.185695 0.866025 -0.464239 0.096123 0.965926 -0.240308 0.096123 0.965926 -0.240308 0.000000 1.000000 -0.000000 0.000000 1.000000 -0.000000 -0.096123 0.965926 0.240307 -0.096123 0.965926 0.240307 -0.185695 0.866026 0.464238 -0.185695 0.866026 0.464238 -0.262612 0.707107 0.656532 -0.262613 0.707107 0.656532 -0.321633 0.500001 0.804084 -0.321634 0.500000 0.804084 -0.358736 0.258820 0.896839 -0.358736 0.258819 0.896840 -0.371390 0.000001 0.928477 -0.371390 0.000000 0.928477 -0.358736 -0.258818 0.896840 -0.358736 -0.258819 0.896840 -0.321634 -0.499999 0.804085 -0.321634 -0.500000 0.804085 -0.262613 -0.707106 0.656533 -0.262613 -0.707107 0.656532 -0.185696 -0.866025 0.464239 -0.185695 -0.866025 0.464239 0.000000 -0.200002 -0.979796 0.000000 -0.200002 -0.979796 0.000000 -0.416799 -0.908999 0.000000 -0.416799 -0.908999 0.000000 -0.611917 -0.790922 0.000000 -0.611917 -0.790922 0.000000 -0.775208 -0.631706 0.000000 -0.775208 -0.631706 -0.000000 -0.775210 -0.631704 -0.000000 -0.775210 -0.631704 -0.000000 -0.595423 -0.803412 -0.000000 -0.595423 -0.803412 -0.000000 -0.378835 -0.925464 -0.000000 -0.378835 -0.925464 -0.000000 -0.138831 -0.990316 -0.000000 -0.138831 -0.990316 -0.000000 0.109753 -0.993959 -0.000000 0.109753 -0.993959 -0.000000 0.351553 -0.936168 -0.000000 0.351553 -0.936168 -0.000000 0.571625 -0.820515 -0.000000 0.571625 -0.820515 -0.000000 -0.000000 -1.000000 -0.000000 -0.000000 -1.000000 -0.000000 -0.000000 -1.000000 -0.000000 -0.000000 -1.000000 -0.000000 -0.000000 -1.000000 -0.000000 -0.000000 -1.000000 -0.000000 -0.000000 -1.000000 -0.000000 -0.000000 -1.000000 0.000000 0.000000 1.000000 0.000000 0.000000 1.000000 0.000000 0.000000 1.000000 0.000000 0.000000 1.000000 0.000000 0.000000 1.000000 0.000000 0.000000 1.000000 0.000000 0.000000 1.000000 0.000000 0.000000 1.000000 1.000000 0.000000 0.000000 1.000000 0.000000 0.000000 1.000000 0.000000 0.000000 1.000000 0.000000 0.000000 1.000000 0.000000 0.000000 1.000000 0.000000 0.000000 1.000000 0.000000 0.000000 1.000000 0.000000 0.000000 0.900711 -0.434418 -0.000000 0.900711 -0.434418 -0.000000 0.900711 -0.434418 -0.000000 0.900711 -0.434418 -0.000000 0.900711 -0.434418 -0.000000 0.900711 -0.434418 -0.000000 0.900711 -0.434418 -0.000000 0.900711 -0.434418 -0.000000 -0.900712 0.434418 0.000000 -0.900712 0.434418 0.000000 -0.900712 0.434418 0.000000 -0.900712 0.434418 0.000000 1.000000 0.000000 0.000000 1.000000 0.000000 0.000000 1.000000 0.000000 0.000000 1.000000 0.000000 0.000000 -1.000000 -0.000000 -0.000000 -1.000000 -0.000000 -0.000000 -1.000000 -0.000000 -0.000000 -1.000000 -0.000000 -0.000000 0.000000 0.000000 1.000000 0.000000 0.000000 1.000000 0.000000 0.000000 1.000000 0.000000 0.000000 1.000000 0.000000 0.000000 1.000000 0.000000 0.000000 1.000000 0.000000 0.000000 1.000000 -0.173901 0.686821 -0.705716 -0.173901 0.686821 -0.705716 -0.173901 0.686821 -0.705716 -0.173901 0.686821 -0.705716 -0.173901 0.686821 -0.705716 -0.173901 0.686821 -0.705716 -0.992439 -0.122737 0.000000 -0.992439 -0.122737 0.000000 -0.992439 -0.122737 0.000000 -0.992439 -0.122737 0.000000 -0.992439 -0.122737 0.000000 -0.992439 -0.122737 0.000000 -0.992439 -0.122737 0.000000 -0.992439 -0.122737 0.000000 -0.992439 -0.122737 0.000000 -0.992439 -0.122737 0.000000 -0.992439 -0.122737 0.000000 -0.992439 -0.122737 0.000000 -0.992439 -0.122737 0.000000 -0.992439 -0.122737 0.000000 -0.992439 -0.122737 0.000000 -0.992439 -0.122737 0.000000 -0.992439 -0.122737 0.000000 -0.992439 -0.122737 0.000000 -0.928477 0.000000 -0.371390 -0.928477 0.000000 -0.371390 -0.928477 0.000000 -0.371390 -0.928477 0.000000 -0.371390 -0.928477 0.000000 -0.371390 -0.928477 0.000000 -0.371390 -0.928477 0.000000 -0.371390 -0.928477 0.000000 -0.371390 -0.928477 0.000000 -0.371390 -0.928477 0.000000 -0.371390 -0.928477 0.000000 -0.371390 -0.928477 0.000000 -0.371390 -0.928477 0.000000 -0.371390 -0.928477 0.000000 -0.371390 -0.928477 0.000000 -0.371390 -0.928477 0.000000 -0.371390 -0.928477 0.000000 -0.371390 -0.928477 0.000000 -0.371390 -0.928477 0.000000 -0.371390 -0.928477 0.000000 -0.371390 -0.928477 0.000000 -0.371390 -0.928477 0.000000 -0.371390 -0.928477 0.000000 -0.371390 -0.928477 0.000000 -0.371390 -0.928477 0.000000 -0.371390 -0.928477 0.000000 -0.371390 -0.928477 0.000000 -0.371390 -0.928477 0.000000 -0.371390 -0.928477 0.000000 -0.371390 -0.928477 0.000000 -0.371390 -0.928477 0.000000 -0.371390 -0.928477 0.000000 -0.371390 -0.928477 0.000000 -0.371390 -0.928477 0.000000 -0.371390 -0.928477 0.000000 -0.371390 -0.928477 0.000000 -0.371390 -0.928477 0.000000 -0.371390 -0.928477 0.000000 -0.371390 -0.928477 0.000000 -0.371390 -0.928477 0.000000 -0.371390 -0.928477 0.000000 -0.371390 -0.928477 0.000000 -0.371390 -0.928477 0.000000 -0.371390 -0.928477 0.000000 -0.371390 -0.928477 0.000000 -0.371390 -0.928477 0.000000 -0.371390 -0.928477 0.000000 -0.371390 -0.928477 0.000000 -0.371390 -0.000000 0.571625 -0.820515 -0.000000 0.571625 -0.820515 0.447213 -0.511277 0.733891 0.447213 -0.511277 0.733891 0.447213 -0.511277 0.733891 0.447213 -0.511277 0.733891 0.443868 0.054894 0.894409 0.443868 0.054894 0.894409 0.443868 0.054894 0.894409 0.443868 0.054894 0.894409 0.443868 0.054894 0.894409 0.443868 0.054894 0.894409 0.928477 0.000000 0.371391 0.928477 0.000000 0.371391 0.928477 0.000000 0.371391 0.928477 0.000000 0.371391 0.928477 0.000000 0.371391 0.928477 0.000000 0.371391 0.928477 0.000000 0.371391 0.928477 0.000000 0.371391 0.928477 0.000000 0.371391 0.928477 0.000000 0.371391 0.928477 0.000000 0.371391 0.928477 0.000000 0.371391 0.928477 0.000000 0.371391 0.928477 0.000000 0.371391 0.928477 0.000000 0.371391 0.928477 0.000000 0.371391 0.928477 0.000000 0.371391 0.928477 0.000000 0.371391 0.928477 0.000000 0.371391 0.928477 0.000000 0.371391 0.928477 0.000000 0.371391 0.928477 0.000000 0.371391 0.928477 0.000000 0.371391 0.928477 0.000000 0.371391 0.928477 0.000000 0.371391 0.928477 0.000000 0.371391 0.928477 0.000000 0.371391 0.928477 0.000000 0.371391 0.916098 0.113295 0.384615 0.916098 0.113295 0.384615 0.916098 0.113295 0.384615 0.916098 0.113295 0.384615 0.916098 0.113295 0.384615 0.916098 0.113295 0.384615 -0.916098 -0.113295 -0.384615 -0.916098 -0.113295 -0.384615 -0.916098 -0.113295 -0.384615 -0.916098 -0.113295 -0.384615 -0.916098 -0.113295 -0.384615 -0.916098 -0.113295 -0.384615 -0.928477 -0.000000 -0.371390 -0.928477 -0.000000 -0.371390 -0.928477 -0.000000 -0.371390 -0.928477 -0.000000 -0.371390 -0.928477 -0.000000 -0.371390 -0.928477 -0.000000 -0.371390 -0.928477 -0.000000 -0.371390 -0.928477 -0.000000 -0.371390 -0.928477 -0.000000 -0.371390 -0.928477 -0.000000 -0.371390 -0.928477 -0.000000 -0.371390 -0.928477 -0.000000 -0.371390 -0.928477 -0.000000 -0.371390 -0.928477 -0.000000 -0.371390 -0.928477 -0.000000 -0.371390 -0.928477 -0.000000 -0.371390 -0.928477 -0.000000 -0.371390 -0.928477 -0.000000 -0.371390 -0.928477 -0.000000 -0.371390 -0.928477 -0.000000 -0.371390 -0.928477 -0.000000 -0.371390 -0.928477 -0.000000 -0.371390 -0.928477 -0.000000 -0.371390 -0.928477 -0.000000 -0.371390 -0.928477 -0.000000 -0.371390 -0.928477 -0.000000 -0.371390 -0.928477 -0.000000 -0.371390 -0.928477 -0.000000 -0.371390 -0.000000 -0.000000 -1.000000 -0.000000 -0.000000 -1.000000 -0.000000 -0.000000 -1.000000 -0.000000 -0.000000 -1.000000 -0.000000 -0.000000 -1.000000 -0.000000 -0.000000 -1.000000 0.447232 0.000000 0.894418 0.447232 0.000000 0.894418 0.447232 0.000000 0.894418 0.447232 0.000000 0.894418 0.447232 0.000000 0.894418 0.992439 0.122737 0.000002 0.992439 0.122737 0.000002 0.992439 0.122737 0.000002 0.992439 0.122737 0.000002 0.992439 0.122737 0.000002 0.992439 0.122737 0.000002 0.992439 0.122737 0.000002 0.992439 0.122737 0.000002 0.992439 0.122737 0.000002 0.992439 0.122737 0.000002 0.992439 0.122737 0.000002 0.992439 0.122737 0.000002 0.992439 0.122737 0.000002 0.992439 0.122737 0.000002 0.992439 0.122737 0.000002 0.992439 0.122737 0.000002 0.992439 0.122737 0.000002 0.992439 0.122737 0.000002 0.992439 0.122737 -0.000001 0.992439 0.122737 -0.000001 0.992439 0.122737 -0.000001 0.992439 0.122737 -0.000001 0.992439 0.122737 -0.000001 0.992439 0.122737 -0.000001 0.992439 0.122737 -0.000001 0.992439 0.122737 -0.000001 -0.000000 -0.000000 -1.000000 -0.000000 -0.000000 -1.000000 -0.000000 -0.000000 -1.000000 -0.000000 -0.000000 -1.000000 -0.000000 -0.000000 -1.000000 -0.000000 -0.000000 -1.000000 -0.000000 -0.000000 -1.000000 -0.000000 -0.000000 -1.000000 -0.000000 -0.000000 -1.000000 1.000000 0.000000 0.000000 1.000000 0.000000 0.000000 1.000000 0.000000 0.000000 1.000000 0.000000 0.000000 -1.000000 -0.000000 -0.000000 -1.000000 -0.000000 -0.000000 -1.000000 -0.000000 -0.000000 -1.000000 -0.000000 -0.000000 -1.000000 -0.000000 -0.000000 -1.000000 -0.000000 -0.000000 0.000000 1.000000 0.000000 0.000000 1.000000 0.000000 0.000000 1.000000 0.000000 0.000000 1.000000 0.000000 0.000000 1.000000 0.000000 0.000000 1.000000 0.000000 0.000000 1.000000 0.000000 0.000000 1.000000 0.000000 0.000000 1.000000 0.000000 0.000000 1.000000 0.000000 0.000000 1.000000 0.000000 0.000000 1.000000 0.000000 -0.000000 1.000000 -0.000000 -0.000000 1.000000 -0.000000 -0.000000 1.000000 -0.000000 -0.000000 1.000000 -0.000000 -0.000000 1.000000 -0.000000 -0.000000 1.000000 -0.000000 -0.000000 -0.000000 -1.000000 -0.000000 -0.000000 -1.000000 -0.000000 -0.000000 -1.000000 -0.000000 -0.000000 -1.000000</float_array>
          <technique_common>
            <accessor source="#TopLeftPanel-mesh-normals-array" count="544" stride="3">
              <param name="X" type="float"/>
              <param name="Y" type="float"/>
              <param name="Z" type="float"/>
            </accessor>
          </technique_common>
        </source>
        <vertices id="TopLeftPanel-mesh-vertices">
          <input semantic="POSITION" source="#TopLeftPanel-mesh-positions"/>
        </vertices>
        <triangles material="Powder_Coat__White_" count="460">
          <input semantic="VERTEX" source="#TopLeftPanel-mesh-vertices" offset="0"/>
          <input semantic="NORMAL" source="#TopLeftPanel-mesh-normals" offset="1"/>
          <p>1 0 8 1 0 2 0 2 8 1 9 3 0 2 9 3 14 4 14 4 9 3 11 5 14 4 11 5 12 6 2 7 5 8 1 0 1 0 5 8 6 9 1 0 6 9 7 10 3 11 4 12 2 7 2 7 4 12 5 8 7 10 8 1 1 0 9 3 10 13 11 5 12 6 13 14 14 4 7 15 6 16 16 17 16 17 6 16 15 18 15 19 6 20 26 21 26 21 6 20 5 22 26 21 5 22 17 23 17 23 18 24 26 21 26 21 18 24 25 25 25 25 18 24 19 26 25 25 19 26 20 27 20 27 21 28 25 25 25 25 21 28 24 29 24 29 21 28 22 30 24 29 22 30 23 31 26 21 27 32 15 19 15 19 27 32 29 33 29 33 27 32 28 34 4 35 3 36 51 37 51 37 3 36 50 38 50 38 3 36 49 39 49 39 3 36 30 40 49 39 30 40 48 41 48 41 30 40 47 42 47 42 30 40 31 43 47 42 31 43 46 44 46 44 31 43 45 45 45 45 31 43 32 46 45 45 32 46 38 47 38 47 32 46 33 48 38 47 33 48 34 49 38 47 34 49 37 50 37 50 34 49 35 51 37 50 35 51 36 52 39 53 43 54 38 47 38 47 43 54 44 55 38 47 44 55 45 45 40 56 41 57 39 53 39 53 41 57 42 58 39 53 42 58 43 54 64 59 2 60 55 61 55 61 2 60 1 62 55 61 1 62 52 63 53 64 54 65 52 63 52 63 54 65 55 61 64 59 55 61 63 66 63 66 55 61 56 67 63 66 56 67 62 68 62 68 56 67 61 69 61 69 56 67 60 70 60 70 56 67 57 71 60 70 57 71 59 72 59 72 57 71 58 73 66 74 67 75 65 76 65 76 67 75 68 77 70 78 71 79 69 80 69 80 71 79 72 81 73 82 74 83 69 84 69 84 74 83 70 85 65 86 68 87 76 88 76 88 68 87 75 89 78 90 79 91 77 92 77 92 79 91 80 93 49 94 19 95 50 96 50 96 19 95 18 97 50 96 18 97 51 98 51 98 18 97 17 99 51 98 17 99 4 100 4 100 17 99 5 101 81 102 82 103 77 104 77 104 82 103 83 105 77 104 83 105 78 106 25 107 24 108 43 109 43 109 24 108 44 110 44 110 24 108 23 111 44 110 23 111 45 112 45 112 23 111 22 113 45 112 22 113 46 114 46 114 22 113 47 115 47 115 22 113 21 116 47 115 21 116 48 117 48 117 21 116 20 118 48 117 20 118 49 119 49 119 20 118 19 120 107 121 84 122 106 123 106 123 84 122 85 124 106 123 85 124 105 125 105 125 85 124 86 126 105 125 86 126 104 127 104 127 86 126 87 128 104 127 87 128 103 129 103 129 87 128 88 130 103 129 88 130 102 131 102 131 88 130 89 132 102 131 89 132 101 133 101 133 89 132 90 134 101 133 90 134 100 135 100 135 90 134 91 136 100 135 91 136 99 137 99 137 91 136 92 138 99 137 92 138 98 139 98 139 92 138 93 140 98 139 93 140 97 141 97 141 93 140 94 142 97 141 94 142 96 143 96 143 94 142 95 144 109 145 155 146 108 147 108 147 155 146 132 148 108 147 132 148 131 149 131 149 132 148 133 150 131 149 133 150 130 151 130 151 133 150 134 152 130 151 134 152 129 153 129 153 134 152 135 154 129 153 135 154 128 155 128 155 135 154 136 156 128 155 136 156 127 157 127 157 136 156 137 158 127 157 137 158 126 159 126 159 137 158 138 160 126 159 138 160 125 161 125 161 138 160 139 162 125 161 139 162 124 163 124 163 139 162 140 164 124 163 140 164 123 165 123 165 140 164 141 166 123 165 141 166 122 167 122 167 141 166 142 168 122 167 142 168 121 169 121 169 142 168 143 170 121 169 143 170 120 171 120 171 143 170 144 172 120 171 144 172 119 173 119 173 144 172 145 174 119 173 145 174 118 175 118 175 145 174 146 176 118 175 146 176 117 177 117 177 146 176 147 178 117 177 147 178 116 179 116 179 147 178 148 180 116 179 148 180 115 181 115 181 148 180 149 182 115 181 149 182 114 183 114 183 149 182 150 184 114 183 150 184 113 185 113 185 150 184 151 186 113 185 151 186 112 187 112 187 151 186 152 188 112 187 152 188 111 189 111 189 152 188 153 190 111 189 153 190 110 191 110 191 153 190 154 192 110 191 154 192 109 145 109 145 154 192 155 146 157 193 203 194 156 195 156 195 203 194 180 196 156 195 180 196 179 197 179 197 180 196 181 198 179 197 181 198 178 199 178 199 181 198 182 200 178 199 182 200 177 201 177 201 182 200 183 202 177 201 183 202 176 203 176 203 183 202 184 204 176 203 184 204 175 205 175 205 184 204 185 206 175 205 185 206 174 207 174 207 185 206 186 208 174 207 186 208 173 209 173 209 186 208 187 210 173 209 187 210 172 211 172 211 187 210 188 212 172 211 188 212 171 213 171 213 188 212 189 214 171 213 189 214 170 215 170 215 189 214 190 216 170 215 190 216 169 217 169 217 190 216 191 218 169 217 191 218 168 219 168 219 191 218 192 220 168 219 192 220 167 221 167 221 192 220 193 222 167 221 193 222 166 223 166 223 193 222 194 224 166 223 194 224 165 225 165 225 194 224 195 226 165 225 195 226 164 227 164 227 195 226 196 228 164 227 196 228 163 229 163 229 196 228 197 230 163 229 197 230 162 231 162 231 197 230 198 232 162 231 198 232 161 233 161 233 198 232 199 234 161 233 199 234 160 235 160 235 199 234 200 236 160 235 200 236 159 237 159 237 200 236 201 238 159 237 201 238 158 239 158 239 201 238 202 240 158 239 202 240 157 193 157 193 202 240 203 194 3 241 2 242 30 243 30 243 2 242 64 244 30 243 64 244 31 245 31 245 64 244 63 246 31 245 63 246 32 247 32 247 63 246 62 248 32 249 62 250 33 251 33 251 62 250 61 252 33 251 61 252 34 253 34 253 61 252 60 254 34 253 60 254 35 255 35 255 60 254 59 256 35 255 59 256 36 257 36 257 59 256 58 258 36 257 58 258 37 259 37 259 58 258 57 260 37 259 57 260 38 261 38 261 57 260 56 262 13 263 12 264 209 265 209 265 12 264 204 266 209 265 204 266 205 267 206 268 207 269 205 267 205 267 207 269 208 270 205 267 208 270 209 265 10 271 210 272 11 273 11 273 210 272 215 274 215 274 210 272 214 275 214 275 210 272 211 276 214 275 211 276 212 277 212 277 213 278 214 275 10 279 9 280 210 281 210 281 9 280 216 282 218 283 208 284 217 285 217 285 208 284 207 286 219 287 211 288 216 289 216 289 211 288 210 290 220 291 209 292 218 293 218 293 209 292 208 294 204 295 215 296 205 297 205 297 215 296 214 298 14 299 13 300 220 301 220 301 13 300 209 302 12 303 11 304 204 305 204 305 11 304 215 306 216 307 9 308 219 309 219 309 9 308 8 310 219 309 8 310 221 311 221 311 222 312 219 309 219 309 222 312 223 313 72 314 71 315 66 316 66 316 71 315 67 317 67 317 71 315 96 318 67 317 96 318 95 319 107 320 106 321 224 322 224 322 106 321 105 323 224 322 105 323 53 324 53 324 105 323 104 325 53 324 104 325 103 326 103 326 102 327 53 324 53 324 102 327 101 328 53 324 101 328 74 329 74 329 101 328 100 330 74 329 100 330 99 331 99 331 98 332 74 329 74 329 98 332 70 333 70 333 98 332 97 334 70 333 97 334 96 335 96 335 71 336 70 333 74 329 54 337 53 324 203 338 133 339 180 340 180 340 133 339 132 341 180 340 132 341 181 342 181 342 132 341 155 343 181 342 155 343 182 344 182 344 155 343 154 345 182 344 154 345 183 346 183 346 154 345 153 347 183 346 153 347 184 348 184 348 153 347 152 349 184 348 152 349 185 350 185 350 152 349 151 351 185 350 151 351 186 352 186 352 151 351 150 353 186 352 150 353 187 354 187 354 150 353 149 355 187 354 149 355 188 356 188 356 149 355 148 357 188 356 148 357 189 358 189 358 148 357 147 359 189 358 147 359 190 360 190 360 147 359 146 361 190 360 146 361 191 362 191 362 146 361 145 363 191 362 145 363 192 364 192 364 145 363 144 365 192 364 144 365 193 366 193 366 144 365 143 367 193 366 143 367 194 368 194 368 143 367 142 369 194 368 142 369 195 370 195 370 142 369 141 371 195 370 141 371 196 372 196 372 141 371 140 373 196 372 140 373 197 374 197 374 140 373 139 375 197 374 139 375 198 376 198 376 139 375 138 377 198 376 138 377 199 378 199 378 138 377 137 379 199 378 137 379 200 380 200 380 137 379 136 381 200 380 136 381 201 382 201 382 136 381 135 383 201 382 135 383 202 384 202 384 135 383 134 385 202 384 134 385 203 338 203 338 134 385 133 339 38 261 56 262 39 386 39 386 56 262 55 387 26 388 25 389 42 390 42 390 25 389 43 391 75 392 28 393 76 394 76 394 28 393 41 395 41 395 28 393 225 396 225 396 28 393 27 397 8 398 125 399 221 400 221 400 125 399 124 401 221 400 124 401 123 402 7 403 130 404 8 398 8 398 130 404 129 405 8 398 129 405 128 406 16 407 115 408 7 403 7 403 115 408 114 409 7 403 114 409 113 410 221 400 122 411 16 407 16 407 122 411 121 412 16 407 121 412 120 413 109 414 108 415 7 403 7 403 108 415 131 416 7 403 131 416 130 404 128 406 127 417 8 398 8 398 127 417 126 418 8 398 126 418 125 399 123 402 122 411 221 400 120 413 119 419 16 407 16 407 119 419 118 420 16 407 118 420 117 421 117 421 116 422 16 407 16 407 116 422 115 408 113 410 112 423 7 403 7 403 112 423 111 424 7 403 111 424 110 425 110 425 109 414 7 403 222 426 221 427 226 428 226 428 221 427 29 429 29 429 221 427 15 430 15 430 221 427 16 431 79 432 224 433 80 434 80 434 224 433 227 435 227 435 224 433 53 436 227 435 53 436 52 437 52 438 166 439 227 440 227 440 166 439 165 441 227 440 165 441 164 442 1 443 173 444 52 438 52 438 173 444 172 445 52 438 172 445 171 446 0 447 157 448 1 443 1 443 157 448 156 449 1 443 156 449 179 450 227 440 163 451 0 447 0 447 163 451 162 452 0 447 162 452 161 453 179 450 178 454 1 443 1 443 178 454 177 455 1 443 177 455 176 456 176 456 175 457 1 443 1 443 175 457 174 458 1 443 174 458 173 444 171 446 170 459 52 438 52 438 170 459 169 460 52 438 169 460 168 461 168 461 167 462 52 438 52 438 167 462 166 439 164 442 163 451 227 440 161 453 160 463 0 447 0 447 160 463 159 464 0 447 159 464 158 465 158 465 157 448 0 447 73 466 40 467 54 468 54 468 40 467 39 469 54 468 39 469 55 470 54 468 74 471 73 466 41 472 225 473 42 474 42 474 225 473 26 475 26 475 225 473 27 476 68 477 93 478 75 479 75 479 93 478 92 480 75 479 92 480 91 481 67 482 95 483 68 477 68 477 95 483 94 484 68 477 94 484 93 478 91 481 90 485 75 479 75 479 90 485 89 486 75 479 89 486 29 487 29 487 89 486 88 488 29 487 88 488 87 489 87 489 86 490 29 487 29 487 86 490 226 491 226 491 86 490 85 492 226 491 85 492 84 493 29 487 28 494 75 479 76 495 73 496 65 497 65 497 73 496 69 498 65 497 69 498 66 499 66 499 69 498 72 500 76 495 41 501 73 496 73 496 41 501 40 502 227 503 0 504 218 505 218 505 0 504 14 506 218 505 14 506 220 507 217 508 81 509 218 505 218 505 81 509 227 503 77 510 80 511 81 509 81 509 80 511 227 503 211 512 219 513 212 514 212 514 219 513 223 515 228 516 229 517 213 518 213 518 229 517 214 519 214 519 229 517 205 520 205 520 229 517 206 521 228 522 223 523 83 524 83 524 223 523 222 525 83 524 222 525 79 526 79 526 222 525 226 527 79 526 226 527 224 528 224 528 226 527 84 529 224 528 84 529 107 530 228 522 213 531 223 523 223 523 213 531 212 532 79 526 78 533 83 524 81 534 217 535 82 536 82 536 217 535 229 537 229 537 217 535 206 538 206 538 217 535 207 539 82 540 229 541 83 542 83 542 229 541 228 543</p>
        </triangles>
      </mesh>
    </geometry>
  </library_geometries>
  <library_visual_scenes>
    <visual_scene id="Scene" name="Scene">
      <node id="TopLeftPanel-node" name="TopLeftPanel" type="NODE">
        <instance_geometry url="#TopLeftPanel-mesh">
          <bind_material>
            <technique_common>
              <instance_material symbol="Powder_Coat__White_" target="#Powder_Coat__White_"/>
            </technique_common>
          </bind_material>
        </instance_geometry>
      </node>
    </visual_scene>
  </library_visual_scenes>
  <scene>
    <instance_visual_scene url="#Scene"/>
  </scene>
</COLLADA>
