<?xml version="1.0" encoding="utf-8"?>
<COLLADA xmlns="http://www.collada.org/2005/11/COLLADASchema" version="1.4.1">
  <asset>
    <contributor>
      <authoring_tool>Fusion URDF/XACRO Exporter</authoring_tool>
    </contributor>
    <created>2026-06-08T18:29:23Z</created>
    <modified>2026-06-08T18:29:23Z</modified>
    <unit name="meter" meter="1.0"/>
    <up_axis>Z_UP</up_axis>
  </asset>
  <library_effects>
    <effect id="Powder_Coat__White_-effect">
      <profile_COMMON>
        <technique sid="common">
          <lambert>
            <emission><color>0 0 0 1</color></emission>
            <ambient><color>0.0000 0.0000 0.0000 1</color></ambient>
            <diffuse><color>0.9647 0.9647 0.9529 1</color></diffuse>
            <reflective><color>0 0 0 1</color></reflective>
            <transparent opaque="A_ONE"><color>1 1 1 1</color></transparent>
            <transparency><float>1</float></transparency>
          </lambert>
        </technique>
      </profile_COMMON>
    </effect>
  </library_effects>
  <library_materials>
    <material id="Powder_Coat__White_" name="Powder_Coat_(White)">
      <instance_effect url="#Powder_Coat__White_-effect"/>
    </material>
  </library_materials>
  <library_geometries>
    <geometry id="TopRightPanel-mesh" name="TopRightPanel">
      <mesh>
        <source id="TopRightPanel-mesh-positions">
          <float_array id="TopRightPanel-mesh-positions-array" count="690">0.088377 0.047000 -0.099749 0.076917 0.047000 -0.128400 0.041600 0.047000 -0.128400 0.041600 0.047000 -0.100000 0.040000 0.047000 -0.100000 0.040000 0.047000 -0.132000 0.043000 0.047000 -0.132000 0.043000 0.047000 -0.130000 0.078000 0.047000 -0.130000 0.089997 0.047000 -0.100008 0.089977 0.047000 -0.100000 0.089977 0.047000 -0.066878 0.090977 0.047000 -0.066375 0.090977 0.047000 -0.060298 0.088377 0.047000 -0.060298 0.043000 0.075814 -0.132000 0.043000 0.075814 -0.130000 0.040000 0.076500 -0.132000 0.054228 0.106000 -0.132000 0.054228 0.166000 -0.132000 0.057228 0.166000 -0.132000 0.057228 0.105314 -0.132000 0.040000 0.076500 -0.100000 0.041600 0.076134 -0.100000 0.055828 0.105634 -0.100000 0.055828 0.152427 -0.100000 0.054228 0.152427 -0.100000 0.054228 0.106000 -0.100000 0.041600 0.076134 -0.128400 0.076917 0.113633 -0.128400 0.070567 0.164976 -0.128400 0.060200 0.164976 -0.128400 0.060200 0.152427 -0.128400 0.055828 0.152427 -0.128400 0.055828 0.105634 -0.128400 0.086217 0.158004 -0.067743 0.086217 0.158004 -0.068484 0.085156 0.158500 -0.068693 0.085156 0.158500 -0.068487 0.084347 0.152000 -0.066000 0.086959 0.152000 -0.066000 0.086959 0.152000 -0.061717 0.084347 0.152000 -0.062360 0.084842 0.148000 -0.070000 0.087454 0.148000 -0.070000 0.089997 0.118376 -0.100008 0.089977 0.118561 -0.100000 0.087146 0.150488 -0.076000 0.086121 0.150696 -0.076496 0.060200 0.166000 -0.128369 0.070453 0.166000 -0.128369 0.089977 0.057791 -0.060923 0.090977 0.057403 -0.060607 0.090977 0.054467 -0.063399 0.090977 0.050923 -0.065363 0.089977 0.051069 -0.065843 0.089977 0.054746 -0.063814 0.060200 0.166000 -0.128879 0.060200 0.152427 -0.128879 0.089977 0.058464 -0.060829 0.090977 0.058750 -0.060418 0.090977 0.058530 -0.060303 0.090977 0.058288 -0.060245 0.090977 0.058040 -0.060249 0.090977 0.057800 -0.060313 0.090977 0.057583 -0.060436 0.089977 0.057881 -0.060837 0.089977 0.057989 -0.060776 0.089977 0.058109 -0.060744 0.089977 0.058233 -0.060742 0.089977 0.058354 -0.060771 0.084084 0.167167 -0.077186 0.084397 0.164636 -0.077734 0.084682 0.162331 -0.078914 0.084920 0.160406 -0.080647 0.085095 0.158991 -0.082815 0.085195 0.158180 -0.085274 0.085214 0.158027 -0.087859 0.085150 0.158543 -0.090396 0.085008 0.159694 -0.092716 0.084797 0.161401 -0.094663 0.084531 0.163551 -0.096106 0.084228 0.166000 -0.096948 0.082616 0.166000 -0.096948 0.082915 0.163581 -0.096120 0.083178 0.161451 -0.094706 0.083389 0.159749 -0.092798 0.083533 0.158587 -0.090520 0.083600 0.158040 -0.088023 0.083587 0.158145 -0.085468 0.083495 0.158894 -0.083023 0.083328 0.160238 -0.080848 0.083099 0.162090 -0.079086 0.082823 0.164329 -0.077850 0.082516 0.166807 -0.077222 0.086257 0.056577 -0.109358 0.086103 0.056631 -0.109743 0.085960 0.056791 -0.110101 0.085837 0.057045 -0.110409 0.085742 0.057377 -0.110645 0.085683 0.057763 -0.110793 0.085663 0.058177 -0.110844 0.085683 0.058591 -0.110793 0.085742 0.058977 -0.110645 0.085837 0.059308 -0.110409 0.085960 0.059562 -0.110101 0.086103 0.059722 -0.109743 0.086257 0.059777 -0.109358 0.086411 0.059722 -0.108974 0.086554 0.059562 -0.108615 0.086677 0.059308 -0.108308 0.086771 0.058977 -0.108072 0.086831 0.058591 -0.107923 0.086851 0.058177 -0.107873 0.086831 0.057763 -0.107923 0.086771 0.057377 -0.108072 0.086677 0.057045 -0.108308 0.086554 0.056791 -0.108615 0.086411 0.056631 -0.108974 0.083286 0.056577 -0.108170 0.083439 0.056631 -0.107785 0.083583 0.056791 -0.107427 0.083706 0.057045 -0.107119 0.083800 0.057377 -0.106883 0.083860 0.057763 -0.106735 0.083880 0.058177 -0.106684 0.083860 0.058591 -0.106735 0.083800 0.058977 -0.106883 0.083706 0.059308 -0.107119 0.083583 0.059562 -0.107427 0.083439 0.059722 -0.107785 0.083286 0.059777 -0.108170 0.083132 0.059722 -0.108554 0.082989 0.059562 -0.108912 0.082865 0.059308 -0.109220 0.082771 0.058977 -0.109456 0.082712 0.058591 -0.109605 0.082691 0.058177 -0.109655 0.082712 0.057763 -0.109605 0.082771 0.057377 -0.109456 0.082865 0.057045 -0.109220 0.082989 0.056791 -0.108912 0.083132 0.056631 -0.108554 0.084771 0.054977 -0.108764 0.085079 0.055086 -0.107995 0.085365 0.055405 -0.107278 0.085612 0.055914 -0.106663 0.085800 0.056577 -0.106191 0.085919 0.057348 -0.105894 0.085960 0.058177 -0.105793 0.085919 0.059005 -0.105894 0.085800 0.059777 -0.106191 0.085612 0.060439 -0.106663 0.085365 0.060948 -0.107278 0.085079 0.061268 -0.107995 0.084771 0.061377 -0.108764 0.084464 0.061268 -0.109533 0.084177 0.060948 -0.110249 0.083931 0.060439 -0.110865 0.083742 0.059777 -0.111337 0.083623 0.059005 -0.111634 0.083583 0.058177 -0.111735 0.083623 0.057348 -0.111634 0.083742 0.056577 -0.111337 0.083931 0.055914 -0.110865 0.084177 0.055405 -0.110249 0.084464 0.055086 -0.109533 0.083286 0.054977 -0.108170 0.082978 0.055086 -0.108939 0.082691 0.055405 -0.109655 0.082445 0.055914 -0.110271 0.082256 0.056577 -0.110743 0.082138 0.057348 -0.111040 0.082097 0.058177 -0.111141 0.082138 0.059005 -0.111040 0.082256 0.059777 -0.110743 0.082445 0.060439 -0.110271 0.082691 0.060948 -0.109655 0.082978 0.061268 -0.108939 0.083286 0.061377 -0.108170 0.083593 0.061268 -0.107401 0.083880 0.060948 -0.106684 0.084126 0.060439 -0.106069 0.084315 0.059777 -0.105597 0.084434 0.059005 -0.105300 0.084474 0.058177 -0.105199 0.084434 0.057348 -0.105300 0.084315 0.056577 -0.105597 0.084126 0.055914 -0.106069 0.083880 0.055405 -0.106684 0.083593 0.055086 -0.107401 0.090977 0.049168 -0.059590 0.090977 0.051119 -0.058409 0.090977 0.052752 -0.056817 0.088377 0.052752 -0.056817 0.088377 0.051119 -0.058409 0.088377 0.049168 -0.059590 0.090977 0.054011 -0.055615 0.090977 0.055527 -0.054761 0.090977 0.057207 -0.054307 0.090977 0.058947 -0.054281 0.090977 0.060639 -0.054686 0.090977 0.062180 -0.055495 0.088377 0.062180 -0.055495 0.088377 0.060639 -0.054686 0.088377 0.058947 -0.054281 0.088377 0.057207 -0.054307 0.088377 0.055527 -0.054761 0.088377 0.054011 -0.055615 0.057228 0.105314 -0.130000 0.057228 0.166000 -0.130000 0.071515 0.166000 -0.130000 0.078000 0.113565 -0.130000 0.082616 0.166000 -0.099400 0.088377 0.119413 -0.099400 0.088377 0.119413 -0.070000 0.090977 0.083000 -0.070000 0.088377 0.083000 -0.070000 0.089977 0.080959 -0.076500 0.090977 0.081116 -0.076000 0.089977 0.119512 -0.099720 0.089977 0.119512 -0.076496 0.089977 0.119451 -0.076500 0.090977 0.119512 -0.076000 0.089977 0.119450 -0.076500 0.084228 0.166000 -0.099720 0.088377 0.118230 -0.099749 0.090977 0.119512 -0.070000 0.054228 0.152427 -0.128879 0.054228 0.166000 -0.128879</float_array>
          <technique_common>
            <accessor source="#TopRightPanel-mesh-positions-array" count="230" stride="3">
              <param name="X" type="float"/>
              <param name="Y" type="float"/>
              <param name="Z" type="float"/>
            </accessor>
          </technique_common>
        </source>
        <source id="TopRightPanel-mesh-normals">
          <float_array id="TopRightPanel-mesh-normals-array" count="1632">-0.000000 -1.000000 -0.000000 -0.000000 -1.000000 -0.000000 -0.000000 -1.000000 -0.000000 -0.000000 -1.000000 -0.000000 -0.000000 -1.000000 -0.000000 -0.000000 -1.000000 -0.000000 -0.000000 -1.000000 -0.000000 -0.000000 -1.000000 -0.000000 -0.000000 -1.000000 -0.000000 -0.000000 -1.000000 -0.000000 -0.000000 -1.000000 -0.000000 -0.000000 -1.000000 -0.000000 -0.000000 -1.000000 -0.000000 -0.000000 -1.000000 -0.000000 -0.000000 -1.000000 -0.000000 1.000000 0.000000 -0.000000 1.000000 0.000000 -0.000000 1.000000 0.000000 -0.000000 1.000000 0.000000 -0.000000 0.000000 0.000000 -1.000000 0.000000 0.000000 -1.000000 0.000000 0.000000 -1.000000 0.000000 0.000000 -1.000000 0.000000 0.000000 -1.000000 0.000000 0.000000 -1.000000 0.000000 0.000000 -1.000000 0.000000 0.000000 -1.000000 -1.000000 -0.000000 0.000000 -1.000000 -0.000000 0.000000 -1.000000 -0.000000 0.000000 -1.000000 -0.000000 0.000000 -0.000000 -0.000000 1.000000 -0.000000 -0.000000 1.000000 -0.000000 -0.000000 1.000000 -0.000000 -0.000000 1.000000 -0.000000 -0.000000 1.000000 -0.000000 -0.000000 1.000000 -0.000000 -0.000000 1.000000 -0.000000 -0.000000 1.000000 1.000000 0.000000 -0.000000 1.000000 0.000000 -0.000000 1.000000 0.000000 -0.000000 1.000000 0.000000 -0.000000 -0.000000 -0.000000 1.000000 -0.000000 -0.000000 1.000000 -0.000000 -0.000000 1.000000 -0.000000 -0.000000 1.000000 -0.000000 -0.000000 1.000000 -0.000000 -0.000000 1.000000 -0.000000 -0.000000 1.000000 -0.000000 -0.000000 1.000000 -0.000000 -0.000000 1.000000 0.423517 0.905888 0.000002 0.423517 0.905888 0.000002 0.423517 0.905888 0.000002 0.423517 0.905888 0.000002 -0.000000 -1.000000 0.000000 -0.000000 -1.000000 0.000000 -0.000000 -1.000000 0.000000 -0.000000 -1.000000 0.000000 0.000000 -0.707107 0.707106 0.000000 -0.707107 0.707106 0.000000 -0.707107 0.707106 0.000000 -0.707107 0.707106 0.371625 0.000000 0.928383 0.371625 0.000000 0.928383 0.371625 0.000000 0.928383 0.371625 0.000000 0.928383 0.430524 0.664285 -0.611043 0.430524 0.664285 -0.611043 0.430524 0.664285 -0.611043 0.430524 0.664285 -0.611043 -0.000000 -0.029980 0.999550 -0.000000 -0.029980 0.999550 -0.000000 -0.029980 0.999550 -0.000000 -0.029980 0.999550 0.446901 0.693422 -0.565195 0.447374 0.529140 -0.721019 0.446900 0.693551 -0.565038 0.447375 0.528275 -0.721652 0.447377 0.331130 -0.830787 0.447375 0.328949 -0.831654 0.446911 0.111933 -0.887548 0.446900 0.108338 -0.888000 -1.000000 -0.000000 0.000000 -1.000000 -0.000000 0.000000 -1.000000 -0.000000 0.000000 -1.000000 -0.000000 0.000000 -1.000000 -0.000000 0.000000 0.447187 -0.511262 -0.733918 0.447187 -0.511262 -0.733918 0.447210 -0.314422 -0.837342 0.447210 -0.314422 -0.837342 0.447225 -0.098157 -0.889019 0.447225 -0.098157 -0.889019 0.447230 0.124172 -0.885758 0.447230 0.124172 -0.885758 0.447226 0.338827 -0.827759 0.447226 0.338827 -0.827759 0.447212 0.532546 -0.718607 0.447212 0.532546 -0.718607 0.447189 0.693359 -0.565045 0.447189 0.693359 -0.565045 -0.000013 0.083544 -0.996504 -0.000008 0.336607 -0.941645 -0.000012 0.119476 -0.992837 -0.000007 0.367341 -0.930086 -0.000004 0.567101 -0.823648 -0.000003 0.591192 -0.806531 0.000000 0.759571 -0.650425 0.000001 0.776393 -0.630249 0.000003 0.901110 -0.433590 0.000003 0.910838 -0.412765 0.000005 0.982230 -0.187682 0.000005 0.985737 -0.168296 0.000006 0.997490 0.070810 0.000006 0.996193 0.087175 0.000005 0.945867 0.324554 0.000005 0.941523 0.336948 0.000003 0.830824 0.556536 0.000003 0.825302 0.564692 0.000000 0.660072 0.751202 -0.000000 0.655126 0.755519 -0.000004 0.445063 0.895499 -0.000004 0.442122 0.896955 -0.000008 0.200212 0.979753 -0.000008 0.200214 0.979752 0.096122 0.965926 0.240306 -0.000000 1.000000 -0.000001 -0.000001 1.000000 -0.000002 -0.096123 0.965925 -0.240309 -0.096123 0.965925 -0.240309 -0.185695 0.866025 -0.464240 -0.185695 0.866024 -0.464240 -0.262612 0.707106 -0.656533 -0.262613 0.707105 -0.656534 -0.321633 0.499999 -0.804085 -0.321633 0.499998 -0.804086 -0.358735 0.258818 -0.896840 -0.358735 0.258817 -0.896841 -0.371389 -0.000001 -0.928477 -0.371389 -0.000002 -0.928477 -0.358735 -0.258820 -0.896840 -0.358734 -0.258821 -0.896840 -0.321632 -0.500001 -0.804084 -0.321632 -0.500002 -0.804084 -0.262612 -0.707108 -0.656532 -0.262611 -0.707108 -0.656531 -0.185694 -0.866026 -0.464238 -0.185694 -0.866026 -0.464237 -0.096122 -0.965926 -0.240306 -0.096122 -0.965926 -0.240306 0.000000 -1.000000 0.000001 0.000001 -1.000000 0.000002 0.096123 -0.965925 0.240309 0.096123 -0.965925 0.240309 0.185695 -0.866025 0.464240 0.185695 -0.866024 0.464240 0.262612 -0.707106 0.656533 0.262613 -0.707105 0.656534 0.321633 -0.499999 0.804085 0.321633 -0.499998 0.804086 0.358735 -0.258818 0.896840 0.358735 -0.258817 0.896841 0.371389 0.000001 0.928477 0.371389 0.000002 0.928477 0.358735 0.258820 0.896840 0.358734 0.258821 0.896840 0.321632 0.500001 0.804084 0.321632 0.500002 0.804084 0.262612 0.707108 0.656532 0.262611 0.707108 0.656531 0.185694 0.866026 0.464238 0.185694 0.866026 0.464237 0.096122 0.965926 0.240306 0.096123 -0.965926 0.240307 -0.000000 -1.000000 -0.000000 -0.000000 -1.000000 -0.000001 -0.096123 -0.965926 -0.240308 -0.096123 -0.965926 -0.240308 -0.185695 -0.866025 -0.464239 -0.185696 -0.866025 -0.464239 -0.262613 -0.707107 -0.656532 -0.262613 -0.707106 -0.656533 -0.321634 -0.500000 -0.804085 -0.321634 -0.499999 -0.804085 -0.358736 -0.258819 -0.896840 -0.358736 -0.258818 -0.896840 -0.371390 0.000000 -0.928477 -0.371390 0.000001 -0.928477 -0.358736 0.258819 -0.896840 -0.358736 0.258820 -0.896839 -0.321634 0.500000 -0.804084 -0.321633 0.500001 -0.804084 -0.262613 0.707107 -0.656532 -0.262612 0.707107 -0.656532 -0.185695 0.866026 -0.464238 -0.185695 0.866026 -0.464238 -0.096123 0.965926 -0.240307 -0.096123 0.965926 -0.240307 0.000000 1.000000 -0.000000 0.000000 1.000000 -0.000000 0.096123 0.965926 0.240308 0.096123 0.965926 0.240308 0.185695 0.866025 0.464239 0.185696 0.866025 0.464239 0.262613 0.707107 0.656532 0.262613 0.707106 0.656533 0.321634 0.500000 0.804085 0.321634 0.499999 0.804085 0.358736 0.258819 0.896840 0.358736 0.258818 0.896840 0.371390 -0.000000 0.928477 0.371390 -0.000001 0.928477 0.358736 -0.258819 0.896840 0.358736 -0.258820 0.896839 0.321634 -0.500000 0.804084 0.321633 -0.500001 0.804084 0.262613 -0.707107 0.656532 0.262612 -0.707107 0.656532 0.185695 -0.866026 0.464238 0.185695 -0.866026 0.464238 0.096123 -0.965926 0.240307 0.000000 -0.200002 0.979796 0.000000 -0.200002 0.979796 0.000000 -0.416799 0.908999 0.000000 -0.416799 0.908999 0.000000 -0.611917 0.790922 0.000000 -0.611917 0.790922 0.000000 -0.775208 0.631706 0.000000 -0.775208 0.631706 0.000000 -0.775210 0.631704 0.000000 -0.775210 0.631704 0.000000 -0.595423 0.803412 0.000000 -0.595423 0.803412 0.000000 -0.378835 0.925464 0.000000 -0.378835 0.925464 0.000000 -0.138831 0.990316 0.000000 -0.138831 0.990316 0.000000 0.109753 0.993959 0.000000 0.109753 0.993959 0.000000 0.351553 0.936168 0.000000 0.351553 0.936168 0.000000 0.571625 0.820515 0.000000 0.571625 0.820515 1.000000 0.000000 -0.000000 1.000000 0.000000 -0.000000 1.000000 0.000000 -0.000000 1.000000 0.000000 -0.000000 0.900711 -0.434418 -0.000000 0.900711 -0.434418 -0.000000 0.900711 -0.434418 -0.000000 0.900711 -0.434418 -0.000000 0.900711 -0.434418 -0.000000 0.900711 -0.434418 -0.000000 0.900711 -0.434418 -0.000000 0.900711 -0.434418 -0.000000 -0.900712 0.434418 0.000000 -0.900712 0.434418 0.000000 -0.900712 0.434418 0.000000 -0.900712 0.434418 0.000000 0.000000 0.000000 -1.000000 0.000000 0.000000 -1.000000 0.000000 0.000000 -1.000000 0.000000 0.000000 -1.000000 0.000000 0.000000 -1.000000 0.000000 0.000000 -1.000000 0.000000 0.000000 -1.000000 -0.173901 0.686821 0.705716 -0.173901 0.686821 0.705716 -0.173901 0.686821 0.705716 -0.173901 0.686821 0.705716 -0.173901 0.686821 0.705716 -0.173901 0.686821 0.705716 -0.992439 -0.122737 -0.000000 -0.992439 -0.122737 -0.000000 -0.992439 -0.122737 -0.000000 -0.992439 -0.122737 -0.000000 -0.992439 -0.122737 -0.000000 -0.992439 -0.122737 -0.000000 -0.992439 -0.122737 -0.000000 -0.992439 -0.122737 -0.000000 -0.992439 -0.122737 -0.000000 -0.992439 -0.122737 -0.000000 -0.992439 -0.122737 -0.000000 -0.992439 -0.122737 -0.000000 -0.992439 -0.122737 -0.000000 -0.992439 -0.122737 -0.000000 -0.992439 -0.122737 -0.000000 -0.992439 -0.122737 -0.000000 -0.992439 -0.122737 -0.000000 -0.992439 -0.122737 -0.000000 -0.928477 0.000000 0.371390 -0.928477 0.000000 0.371390 -0.928477 0.000000 0.371390 -0.928477 0.000000 0.371390 -0.928477 0.000000 0.371390 -0.928477 0.000000 0.371390 -0.928477 0.000000 0.371390 -0.928477 0.000000 0.371390 -0.928477 0.000000 0.371390 -0.928477 0.000000 0.371390 -0.928477 0.000000 0.371390 -0.928477 0.000000 0.371390 -0.928477 0.000000 0.371390 -0.928477 0.000000 0.371390 -0.928477 0.000000 0.371390 -0.928477 0.000000 0.371390 -0.928477 0.000000 0.371390 -0.928477 0.000000 0.371390 -0.928477 0.000000 0.371390 -0.928477 0.000000 0.371390 -0.928477 0.000000 0.371390 -0.928477 0.000000 0.371390 -0.928477 0.000000 0.371390 -0.928477 0.000000 0.371390 -0.928477 0.000000 0.371390 -0.928477 0.000000 0.371390 -0.928477 0.000000 0.371390 -0.928477 0.000000 0.371390 -0.928477 0.000000 0.371390 -0.928477 0.000000 0.371390 -0.928477 0.000000 0.371390 -0.928477 0.000000 0.371390 -0.928477 0.000000 0.371390 -0.928477 0.000000 0.371390 -0.928477 0.000000 0.371390 -0.928477 0.000000 0.371390 -0.928477 0.000000 0.371390 -0.928477 0.000000 0.371390 -0.928477 0.000000 0.371390 -0.928477 0.000000 0.371390 -0.928477 0.000000 0.371390 -0.928477 0.000000 0.371390 -0.928477 0.000000 0.371390 -0.928477 0.000000 0.371390 -0.928477 0.000000 0.371390 -0.928477 0.000000 0.371390 -0.928477 0.000000 0.371390 -0.928477 0.000000 0.371390 -0.000000 0.571625 0.820515 -0.000000 0.571625 0.820515 0.447213 -0.511277 -0.733891 0.447213 -0.511277 -0.733891 0.447213 -0.511277 -0.733891 0.447213 -0.511277 -0.733891 1.000000 0.000000 -0.000000 1.000000 0.000000 -0.000000 1.000000 0.000000 -0.000000 1.000000 0.000000 -0.000000 1.000000 0.000000 -0.000000 1.000000 0.000000 -0.000000 1.000000 0.000000 -0.000000 1.000000 0.000000 -0.000000 1.000000 0.000000 -0.000000 1.000000 0.000000 -0.000000 1.000000 0.000000 -0.000000 1.000000 0.000000 -0.000000 1.000000 0.000000 -0.000000 1.000000 0.000000 -0.000000 1.000000 0.000000 -0.000000 1.000000 0.000000 -0.000000 0.443868 0.054894 -0.894409 0.443868 0.054894 -0.894409 0.443868 0.054894 -0.894409 0.443868 0.054894 -0.894409 0.443868 0.054894 -0.894409 0.443868 0.054894 -0.894409 0.928477 0.000000 -0.371391 0.928477 0.000000 -0.371391 0.928477 0.000000 -0.371391 0.928477 0.000000 -0.371391 0.928477 0.000000 -0.371391 0.928477 0.000000 -0.371391 0.928477 0.000000 -0.371391 0.928477 0.000000 -0.371391 0.928477 0.000000 -0.371391 0.928477 0.000000 -0.371391 0.928477 0.000000 -0.371391 0.928477 0.000000 -0.371391 0.928477 0.000000 -0.371391 0.928477 0.000000 -0.371391 0.928477 0.000000 -0.371391 0.928477 0.000000 -0.371391 0.928477 0.000000 -0.371391 0.928477 0.000000 -0.371391 0.928477 0.000000 -0.371391 0.928477 0.000000 -0.371391 0.928477 0.000000 -0.371391 0.928477 0.000000 -0.371391 0.928477 0.000000 -0.371391 0.928477 0.000000 -0.371391 0.928477 0.000000 -0.371391 0.928477 0.000000 -0.371391 0.928477 0.000000 -0.371391 0.928477 0.000000 -0.371391 0.916098 0.113295 -0.384615 0.916098 0.113295 -0.384615 0.916098 0.113295 -0.384615 0.916098 0.113295 -0.384615 0.916098 0.113295 -0.384615 0.916098 0.113295 -0.384615 -0.916098 -0.113295 0.384615 -0.916098 -0.113295 0.384615 -0.916098 -0.113295 0.384615 -0.916098 -0.113295 0.384615 -0.916098 -0.113295 0.384615 -0.916098 -0.113295 0.384615 -0.928477 -0.000000 0.371390 -0.928477 -0.000000 0.371390 -0.928477 -0.000000 0.371390 -0.928477 -0.000000 0.371390 -0.928477 -0.000000 0.371390 -0.928477 -0.000000 0.371390 -0.928477 -0.000000 0.371390 -0.928477 -0.000000 0.371390 -0.928477 -0.000000 0.371390 -0.928477 -0.000000 0.371390 -0.928477 -0.000000 0.371390 -0.928477 -0.000000 0.371390 -0.928477 -0.000000 0.371390 -0.928477 -0.000000 0.371390 -0.928477 -0.000000 0.371390 -0.928477 -0.000000 0.371390 -0.928477 -0.000000 0.371390 -0.928477 -0.000000 0.371390 -0.928477 -0.000000 0.371390 -0.928477 -0.000000 0.371390 -0.928477 -0.000000 0.371390 -0.928477 -0.000000 0.371390 -0.928477 -0.000000 0.371390 -0.928477 -0.000000 0.371390 -0.928477 -0.000000 0.371390 -0.928477 -0.000000 0.371390 -0.928477 -0.000000 0.371390 -0.928477 -0.000000 0.371390 -1.000000 -0.000000 0.000000 -1.000000 -0.000000 0.000000 -1.000000 -0.000000 0.000000 -1.000000 -0.000000 0.000000 -1.000000 -0.000000 0.000000 -1.000000 -0.000000 0.000000 -1.000000 -0.000000 0.000000 -1.000000 -0.000000 0.000000 -1.000000 -0.000000 0.000000 -1.000000 -0.000000 0.000000 -1.000000 -0.000000 0.000000 -1.000000 -0.000000 0.000000 -1.000000 -0.000000 0.000000 -1.000000 -0.000000 0.000000 -1.000000 -0.000000 0.000000 -0.000000 -0.000000 1.000000 -0.000000 -0.000000 1.000000 -0.000000 -0.000000 1.000000 -0.000000 -0.000000 1.000000 -0.000000 -0.000000 1.000000 -0.000000 -0.000000 1.000000 1.000000 0.000000 -0.000000 1.000000 0.000000 -0.000000 1.000000 0.000000 -0.000000 1.000000 0.000000 -0.000000 1.000000 0.000000 -0.000000 1.000000 0.000000 -0.000000 1.000000 0.000000 -0.000000 1.000000 0.000000 -0.000000 1.000000 0.000000 -0.000000 1.000000 0.000000 -0.000000 1.000000 0.000000 -0.000000 1.000000 0.000000 -0.000000 1.000000 0.000000 -0.000000 1.000000 0.000000 -0.000000 1.000000 0.000000 -0.000000 1.000000 0.000000 -0.000000 1.000000 0.000000 -0.000000 1.000000 0.000000 -0.000000 1.000000 0.000000 -0.000000 1.000000 0.000000 -0.000000 1.000000 0.000000 -0.000000 1.000000 0.000000 -0.000000 1.000000 0.000000 -0.000000 1.000000 0.000000 -0.000000 0.447232 0.000000 -0.894418 0.447232 0.000000 -0.894418 0.447232 0.000000 -0.894418 0.447232 0.000000 -0.894418 0.447232 0.000000 -0.894418 0.992439 0.122737 -0.000002 0.992439 0.122737 -0.000002 0.992439 0.122737 -0.000002 0.992439 0.122737 -0.000002 0.992439 0.122737 -0.000002 0.992439 0.122737 -0.000002 0.992439 0.122737 -0.000002 0.992439 0.122737 -0.000002 0.992439 0.122737 -0.000002 0.992439 0.122737 -0.000002 0.992439 0.122737 -0.000002 0.992439 0.122737 -0.000002 0.992439 0.122737 -0.000002 0.992439 0.122737 -0.000002 0.992439 0.122737 -0.000002 0.992439 0.122737 -0.000002 0.992439 0.122737 -0.000002 0.992439 0.122737 -0.000002 0.992439 0.122737 0.000001 0.992439 0.122737 0.000001 0.992439 0.122737 0.000001 0.992439 0.122737 0.000001 0.992439 0.122737 0.000001 0.992439 0.122737 0.000001 0.992439 0.122737 0.000001 0.992439 0.122737 0.000001 1.000000 0.000000 -0.000000 1.000000 0.000000 -0.000000 1.000000 0.000000 -0.000000 1.000000 0.000000 -0.000000 -1.000000 -0.000000 0.000000 -1.000000 -0.000000 0.000000 -1.000000 -0.000000 0.000000 -1.000000 -0.000000 0.000000 -1.000000 -0.000000 0.000000 -1.000000 -0.000000 0.000000 0.000000 1.000000 -0.000000 0.000000 1.000000 -0.000000 0.000000 1.000000 -0.000000 0.000000 1.000000 -0.000000 0.000000 1.000000 -0.000000 0.000000 1.000000 -0.000000 0.000000 1.000000 -0.000000 0.000000 1.000000 -0.000000 0.000000 1.000000 -0.000000 0.000000 1.000000 -0.000000 0.000000 1.000000 -0.000000 0.000000 1.000000 -0.000000 -0.000000 1.000000 -0.000000 -0.000000 1.000000 -0.000000 -0.000000 1.000000 -0.000000 -0.000000 1.000000 -0.000000 -0.000000 1.000000 -0.000000 -0.000000 1.000000 -0.000000 -0.000000 -0.000000 1.000000 -0.000000 -0.000000 1.000000 -0.000000 -0.000000 1.000000 -0.000000 -0.000000 1.000000</float_array>
          <technique_common>
            <accessor source="#TopRightPanel-mesh-normals-array" count="544" stride="3">
              <param name="X" type="float"/>
              <param name="Y" type="float"/>
              <param name="Z" type="float"/>
            </accessor>
          </technique_common>
        </source>
        <vertices id="TopRightPanel-mesh-vertices">
          <input semantic="POSITION" source="#TopRightPanel-mesh-positions"/>
        </vertices>
        <triangles material="Powder_Coat__White_" count="460">
          <input semantic="VERTEX" source="#TopRightPanel-mesh-vertices" offset="0"/>
          <input semantic="NORMAL" source="#TopRightPanel-mesh-normals" offset="1"/>
          <p>1 0 8 1 0 2 0 2 8 1 9 3 0 2 9 3 10 4 8 1 1 0 7 5 7 5 1 0 2 6 7 5 2 6 5 7 5 7 2 6 4 8 4 8 2 6 3 9 5 7 6 10 7 5 10 4 11 11 0 2 0 2 11 11 14 12 14 12 11 11 12 13 14 12 12 13 13 14 7 15 6 16 16 17 16 17 6 16 15 18 6 19 5 20 15 21 15 21 5 20 17 22 15 21 17 22 18 23 19 24 20 25 18 23 18 23 20 25 21 26 18 23 21 26 15 21 5 27 4 28 17 29 17 29 4 28 22 30 3 31 23 32 4 33 4 33 23 32 22 34 22 34 23 32 27 35 27 35 23 32 24 36 27 35 24 36 25 37 25 37 26 38 27 35 3 39 2 40 23 41 23 41 2 40 28 42 28 43 2 44 34 45 34 45 2 44 1 46 34 45 1 46 29 47 34 45 29 47 32 48 32 48 29 47 30 49 32 48 30 49 31 50 32 48 33 51 34 45 35 52 36 53 38 54 38 54 36 53 37 55 39 56 40 57 42 58 42 58 40 57 41 59 44 60 40 61 43 62 43 62 40 61 39 63 9 64 45 65 10 66 10 66 45 65 46 67 36 68 47 69 37 70 37 70 47 69 48 71 49 72 31 73 50 74 50 74 31 73 30 75 52 76 53 77 51 78 51 78 53 77 56 79 56 79 53 77 54 80 56 79 54 80 55 81 55 81 54 80 12 82 55 81 12 82 11 83 32 84 31 85 58 86 58 86 31 85 57 87 57 87 31 85 49 88 59 89 60 90 70 91 70 91 60 90 61 92 70 91 61 92 69 93 69 93 61 92 62 94 69 93 62 94 68 95 68 95 62 94 63 96 68 95 63 96 64 97 68 95 64 97 67 98 67 98 64 97 65 99 67 98 65 99 66 100 66 100 65 99 52 101 66 100 52 101 51 102 71 103 72 104 94 105 94 105 72 104 93 106 93 106 72 104 73 107 93 106 73 107 92 108 92 108 73 107 74 109 92 108 74 109 91 110 91 110 74 109 75 111 91 110 75 111 90 112 90 112 75 111 76 113 90 112 76 113 89 114 89 114 76 113 77 115 89 114 77 115 88 116 88 116 77 115 78 117 88 116 78 117 87 118 87 118 78 117 79 119 87 118 79 119 86 120 86 120 79 119 80 121 86 120 80 121 85 122 85 122 80 121 81 123 85 122 81 123 84 124 84 124 81 123 82 125 84 124 82 125 83 126 96 127 119 128 95 129 95 129 119 128 120 130 95 129 120 130 118 131 118 131 120 130 121 132 118 131 121 132 117 133 117 133 121 132 122 134 117 133 122 134 116 135 116 135 122 134 123 136 116 135 123 136 115 137 115 137 123 136 124 138 115 137 124 138 114 139 114 139 124 138 125 140 114 139 125 140 113 141 113 141 125 140 126 142 113 141 126 142 112 143 112 143 126 142 127 144 112 143 127 144 111 145 111 145 127 144 128 146 111 145 128 146 110 147 110 147 128 146 129 148 110 147 129 148 109 149 109 149 129 148 130 150 109 149 130 150 108 151 108 151 130 150 131 152 108 151 131 152 107 153 107 153 131 152 132 154 107 153 132 154 106 155 106 155 132 154 133 156 106 155 133 156 105 157 105 157 133 156 134 158 105 157 134 158 104 159 104 159 134 158 135 160 104 159 135 160 103 161 103 161 135 160 136 162 103 161 136 162 102 163 102 163 136 162 137 164 102 163 137 164 101 165 101 165 137 164 138 166 101 165 138 166 100 167 100 167 138 166 139 168 100 167 139 168 99 169 99 169 139 168 140 170 99 169 140 170 98 171 98 171 140 170 141 172 98 171 141 172 97 173 97 173 141 172 142 174 97 173 142 174 96 127 96 127 142 174 119 128 144 175 167 176 143 177 143 177 167 176 168 178 143 177 168 178 166 179 166 179 168 178 169 180 166 179 169 180 165 181 165 181 169 180 170 182 165 181 170 182 164 183 164 183 170 182 171 184 164 183 171 184 163 185 163 185 171 184 172 186 163 185 172 186 162 187 162 187 172 186 173 188 162 187 173 188 161 189 161 189 173 188 174 190 161 189 174 190 160 191 160 191 174 190 175 192 160 191 175 192 159 193 159 193 175 192 176 194 159 193 176 194 158 195 158 195 176 194 177 196 158 195 177 196 157 197 157 197 177 196 178 198 157 197 178 198 156 199 156 199 178 198 179 200 156 199 179 200 155 201 155 201 179 200 180 202 155 201 180 202 154 203 154 203 180 202 181 204 154 203 181 204 153 205 153 205 181 204 182 206 153 205 182 206 152 207 152 207 182 206 183 208 152 207 183 208 151 209 151 209 183 208 184 210 151 209 184 210 150 211 150 211 184 210 185 212 150 211 185 212 149 213 149 213 185 212 186 214 149 213 186 214 148 215 148 215 186 214 187 216 148 215 187 216 147 217 147 217 187 216 188 218 147 217 188 218 146 219 146 219 188 218 189 220 146 219 189 220 145 221 145 221 189 220 190 222 145 221 190 222 144 175 144 175 190 222 167 176 14 223 13 224 196 225 196 225 13 224 191 226 196 225 191 226 195 227 195 227 191 226 192 228 195 227 192 228 194 229 194 229 192 228 193 230 194 231 193 232 208 233 208 233 193 232 197 234 208 233 197 234 207 235 207 235 197 234 198 236 207 235 198 236 206 237 206 237 198 236 199 238 206 237 199 238 205 239 205 239 199 238 200 240 205 239 200 240 204 241 204 241 200 240 201 242 204 241 201 242 203 243 203 243 201 242 202 244 33 245 25 246 34 247 34 247 25 246 24 248 21 249 209 250 15 251 15 251 209 250 16 252 23 253 28 254 24 255 24 255 28 254 34 256 27 257 18 258 22 259 22 259 18 258 17 260 212 261 8 262 209 263 209 263 8 262 7 264 209 263 7 264 16 265 210 266 211 267 209 263 209 263 211 267 212 261 41 268 35 269 42 270 42 270 35 269 38 271 42 270 38 271 94 272 94 272 38 271 71 273 42 274 94 275 39 276 39 276 94 275 93 277 39 276 93 277 92 278 39 276 92 278 43 279 43 279 92 278 91 280 43 279 91 280 90 281 90 281 89 282 43 279 43 279 89 282 214 283 43 279 214 283 215 284 89 282 88 285 214 283 214 283 88 285 87 286 214 283 87 286 86 287 86 287 85 288 214 283 214 283 85 288 213 289 213 289 85 288 84 290 213 289 84 290 83 291 190 292 119 293 167 294 167 294 119 293 142 295 167 294 142 295 168 296 168 296 142 295 141 297 168 296 141 297 169 298 169 298 141 297 140 299 169 298 140 299 170 300 170 300 140 299 139 301 170 300 139 301 171 302 171 302 139 301 138 303 171 302 138 303 172 304 172 304 138 303 137 305 172 304 137 305 173 306 173 306 137 305 136 307 173 306 136 307 174 308 174 308 136 307 135 309 174 308 135 309 175 310 175 310 135 309 134 311 175 310 134 311 176 312 176 312 134 311 133 313 176 312 133 313 177 314 177 314 133 313 132 315 177 314 132 315 178 316 178 316 132 315 131 317 178 316 131 317 179 318 179 318 131 317 130 319 179 318 130 319 180 320 180 320 130 319 129 321 180 320 129 321 181 322 181 322 129 321 128 323 181 322 128 323 182 324 182 324 128 323 127 325 182 324 127 325 183 326 183 326 127 325 126 327 183 326 126 327 184 328 184 328 126 327 125 329 184 328 125 329 185 330 185 330 125 329 124 331 185 330 124 331 186 332 186 332 124 331 123 333 186 332 123 333 187 334 187 334 123 333 122 335 187 334 122 335 188 336 188 336 122 335 121 337 188 336 121 337 189 338 189 338 121 337 120 339 189 338 120 339 190 292 190 292 120 339 119 293 216 340 217 341 202 244 202 244 217 341 203 243 218 342 219 343 59 344 59 344 219 343 60 345 55 346 11 347 218 348 218 348 11 347 10 349 218 348 10 349 46 350 218 348 46 350 222 351 222 351 46 350 220 352 222 351 220 352 221 353 55 346 218 348 56 354 56 354 218 348 59 355 56 354 59 355 51 356 51 356 59 355 66 357 66 357 59 355 67 358 67 358 59 355 70 359 67 358 70 359 68 360 68 360 70 359 69 361 48 362 47 363 221 364 221 364 47 363 223 365 221 364 223 365 224 366 224 366 222 367 221 364 212 368 102 369 8 370 8 370 102 369 101 371 8 370 101 371 100 372 45 373 105 374 212 368 212 368 105 374 104 375 212 368 104 375 103 376 9 377 112 378 45 373 45 373 112 378 111 379 45 373 111 379 110 380 8 370 97 381 9 377 9 377 97 381 96 382 9 377 96 382 95 383 95 383 118 384 9 377 9 377 118 384 117 385 9 377 117 385 116 386 116 386 115 387 9 377 9 377 115 387 114 388 9 377 114 388 113 389 113 389 112 378 9 377 110 380 109 390 45 373 45 373 109 390 108 391 45 373 108 391 107 392 107 392 106 393 45 373 45 373 106 393 105 374 103 376 102 369 212 368 100 372 99 394 8 370 8 370 99 394 98 395 8 370 98 395 97 381 211 396 225 397 212 398 212 398 225 397 220 399 212 398 220 399 46 400 46 400 45 401 212 398 50 402 30 403 213 404 213 404 30 403 29 405 213 404 29 405 214 406 214 406 29 405 226 407 29 408 157 409 226 410 226 410 157 409 156 411 226 410 156 411 155 412 1 413 160 414 29 408 29 408 160 414 159 415 29 408 159 415 158 416 0 417 166 418 1 413 1 413 166 418 165 419 1 413 165 419 164 420 226 410 150 421 0 417 0 417 150 421 149 422 0 417 149 422 148 423 144 424 143 425 0 417 0 417 143 425 166 418 164 420 163 426 1 413 1 413 163 426 162 427 1 413 162 427 161 428 161 428 160 414 1 413 158 416 157 409 29 408 155 412 154 429 226 410 226 410 154 429 153 430 226 410 153 430 152 431 152 431 151 432 226 410 226 410 151 432 150 421 148 423 147 433 0 417 0 417 147 433 146 434 0 417 146 434 145 435 145 435 144 424 0 417 226 436 0 437 217 438 217 438 0 437 14 439 217 438 14 439 196 440 196 440 195 441 217 438 217 438 195 441 203 442 203 442 195 441 194 443 203 442 194 443 208 444 208 444 207 445 203 442 203 442 207 445 204 446 204 446 207 445 206 447 204 446 206 447 205 448 217 438 215 449 226 436 226 436 215 449 214 450 217 451 216 452 215 453 215 453 216 452 227 454 215 453 227 454 44 455 44 455 43 456 215 453 12 457 54 458 13 459 13 459 54 458 53 460 13 459 53 460 52 461 13 459 52 461 191 462 191 462 52 461 65 463 191 462 65 463 64 464 191 462 64 464 192 465 192 465 64 464 63 466 192 465 63 466 62 467 61 468 202 469 62 467 62 467 202 469 193 470 62 467 193 470 192 465 61 468 60 471 202 469 202 469 60 471 216 472 216 472 60 471 219 473 216 472 219 473 223 474 223 474 227 475 216 472 201 476 198 477 202 469 202 469 198 477 197 478 202 469 197 478 193 470 200 479 199 480 201 476 201 476 199 480 198 477 223 481 219 482 224 483 224 483 219 482 218 484 224 483 218 484 222 485 48 486 73 487 37 488 37 488 73 487 72 489 37 488 72 489 71 490 221 491 220 492 48 486 48 486 220 492 77 493 48 486 77 493 76 494 225 495 80 496 220 492 220 492 80 496 79 497 220 492 79 497 78 498 82 499 81 500 225 495 225 495 81 500 80 496 78 498 77 493 220 492 76 494 75 501 48 486 48 486 75 501 74 502 48 486 74 502 73 487 71 490 38 503 37 488 223 504 47 505 44 506 44 506 47 505 36 507 44 506 36 507 40 508 40 508 36 507 35 509 40 508 35 509 41 510 44 506 227 511 223 504 20 512 210 513 21 514 21 514 210 513 209 515 229 516 19 517 228 518 228 518 19 517 18 519 228 518 18 519 27 520 27 520 26 521 228 518 19 522 229 523 210 524 210 524 229 523 57 525 210 524 57 525 211 526 211 526 57 525 50 527 211 526 50 527 225 528 225 528 50 527 213 529 225 528 213 529 82 530 82 530 213 529 83 531 57 525 49 532 50 527 210 524 20 533 19 522 32 534 58 535 33 536 33 536 58 535 228 537 33 536 228 537 26 538 26 538 25 539 33 536 228 540 58 541 229 542 229 542 58 541 57 543</p>
        </triangles>
      </mesh>
    </geometry>
  </library_geometries>
  <library_visual_scenes>
    <visual_scene id="Scene" name="Scene">
      <node id="TopRightPanel-node" name="TopRightPanel" type="NODE">
        <instance_geometry url="#TopRightPanel-mesh">
          <bind_material>
            <technique_common>
              <instance_material symbol="Powder_Coat__White_" target="#Powder_Coat__White_"/>
            </technique_common>
          </bind_material>
        </instance_geometry>
      </node>
    </visual_scene>
  </library_visual_scenes>
  <scene>
    <instance_visual_scene url="#Scene"/>
  </scene>
</COLLADA>
